<?xml version="1.0" encoding="UTF-8"?>
<svg xmlns="http://www.w3.org/2000/svg" xmlns:xlink="http://www.w3.org/1999/xlink" width="224.87999pt" height="225pt" viewBox="0 0 224.87999 225" version="1.2">
<defs>
<clipPath id="clip1">
  <path d="M 116 187 L 133 187 L 133 202.453125 L 116 202.453125 Z M 116 187 "/>
</clipPath>
<clipPath id="clip2">
  <path d="M 93 188 L 110 188 L 110 202.453125 L 93 202.453125 Z M 93 188 "/>
</clipPath>
<clipPath id="clip3">
  <path d="M 63.304688 100 L 78 100 L 78 122 L 63.304688 122 Z M 63.304688 100 "/>
</clipPath>
<clipPath id="clip4">
  <path d="M 95 22.546875 L 131 22.546875 L 131 55 L 95 55 Z M 95 22.546875 "/>
</clipPath>
</defs>
<g id="surface1">
<path style=" stroke:none;fill-rule:evenodd;fill:rgb(32.159424%,39.219666%,72.158813%);fill-opacity:1;" d="M 145.445312 86.097656 C 144.816406 85.757812 142.273438 82.691406 141.914062 82.390625 C 141.554688 82.09375 134.3125 78.796875 134.3125 78.796875 L 123.871094 74.082031 L 121.804688 73.25 L 121.542969 73.367188 C 121.496094 75.167969 120.136719 77.8125 119.289062 79.363281 C 118.003906 81.71875 113.890625 85.332031 113.128906 85.992188 L 112.601562 85.992188 C 111.835938 85.332031 107.722656 81.71875 106.4375 79.363281 C 105.015625 76.765625 104.21875 74.652344 104.1875 73.492188 C 104.183594 73.304688 104.109375 73.332031 103.925781 73.25 L 101.855469 74.082031 L 91.414062 78.796875 C 91.414062 78.796875 84.171875 82.09375 83.8125 82.390625 C 83.453125 82.691406 80.910156 85.757812 80.28125 86.097656 C 79.652344 86.4375 73.804688 88.863281 73.804688 88.863281 C 73.804688 88.863281 74.296875 90.753906 77.707031 95.039062 C 81.121094 99.324219 84.113281 101.8125 84.890625 101.542969 L 91.386719 96.746094 C 91.386719 96.746094 92.460938 101.421875 92.851562 102.441406 C 93.238281 103.460938 94.328125 107.386719 94.328125 107.386719 L 94.738281 110.175781 L 93.949219 123.640625 L 91.953125 134.269531 L 95.5 136.398438 C 95.5 136.398438 94.914062 145.476562 94.859375 148.746094 C 94.796875 152.011719 94.863281 164.453125 95.1875 167.417969 C 95.917969 174.039062 95.765625 180.628906 96.621094 187.347656 C 96.621094 187.347656 101.679688 190.390625 102.488281 190.675781 C 103.296875 190.953125 110.03125 187.167969 110.390625 186.507812 C 110.390625 186.507812 110.089844 175 109.730469 171.460938 C 109.835938 168.179688 111.84375 155.320312 112.214844 153.511719 C 112.417969 152.515625 112.675781 151.792969 112.863281 151.34375 C 113.050781 151.792969 113.308594 152.515625 113.511719 153.511719 C 113.886719 155.320312 115.664062 168.570312 115.996094 171.460938 C 115.636719 175 115.339844 186.507812 115.339844 186.507812 C 115.695312 187.167969 122.429688 190.953125 123.238281 190.675781 C 124.046875 190.390625 129.105469 187.347656 129.105469 187.347656 C 129.746094 179.785156 129.980469 175.003906 130.328125 167.796875 C 130.65625 164.832031 130.71875 152.011719 130.660156 148.746094 C 130.601562 145.476562 130.230469 136.398438 130.230469 136.398438 L 133.773438 134.269531 L 131.773438 123.640625 L 130.992188 110.175781 C 131.351562 107.707031 131.8125 104.6875 132.679688 102.40625 C 133.070312 101.386719 134.339844 96.746094 134.339844 96.746094 L 140.835938 101.542969 C 141.617188 101.8125 144.605469 99.324219 148.019531 95.039062 C 151.429688 90.753906 151.921875 88.863281 151.921875 88.863281 C 151.921875 88.863281 146.074219 86.4375 145.445312 86.097656 "/>
<path style=" stroke:none;fill-rule:evenodd;fill:rgb(63.529968%,67.059326%,86.669922%);fill-opacity:1;" d="M 76.292969 92.554688 C 76.292969 92.554688 75.59375 90.21875 75.753906 90.035156 C 75.914062 89.855469 80.460938 88.214844 81.300781 87.496094 C 82.140625 86.777344 84.851562 83.539062 85.609375 83.183594 C 86.109375 82.941406 89.117188 81.539062 91.101562 80.613281 C 92.121094 80.136719 104.238281 74.601562 104.238281 74.601562 L 104.191406 73.117188 L 90.453125 79.261719 L 83.8125 82.390625 L 79.917969 86.273438 L 73.804688 89.054688 C 73.804688 89.054688 74.800781 92.011719 76.292969 92.554688 "/>
<path style=" stroke:none;fill-rule:evenodd;fill:rgb(63.529968%,67.059326%,86.669922%);fill-opacity:1;" d="M 95.195312 125.339844 L 93.949219 134.050781 L 95.875 136.464844 L 92.472656 134.210938 L 94.171875 124.460938 L 95.195312 125.339844 "/>
<path style=" stroke:none;fill-rule:evenodd;fill:rgb(63.529968%,67.059326%,86.669922%);fill-opacity:1;" d="M 96.925781 139.246094 C 96.925781 139.246094 95.660156 175.925781 98.617188 188.238281 C 98.617188 188.238281 96.710938 188.023438 96.578125 186.988281 C 96.441406 185.949219 95.613281 173.886719 95.261719 168.972656 C 94.90625 164.0625 94.992188 144.359375 95.109375 143.320312 C 95.226562 142.28125 95.5 137.886719 95.5 137.886719 C 95.5 137.886719 96.953125 138.363281 96.925781 139.246094 "/>
<path style=" stroke:none;fill-rule:evenodd;fill:rgb(63.529968%,67.059326%,86.669922%);fill-opacity:1;" d="M 149.1875 92.554688 C 149.1875 92.554688 149.886719 90.21875 149.726562 90.035156 C 149.566406 89.855469 145.019531 88.214844 144.179688 87.496094 C 143.34375 86.777344 140.628906 83.539062 139.871094 83.183594 C 139.113281 82.820312 121.363281 74.566406 121.363281 74.566406 L 121.429688 73.199219 L 141.667969 82.390625 L 145.5625 86.273438 L 151.671875 89.054688 C 151.671875 89.054688 150.679688 92.011719 149.1875 92.554688 "/>
<path style=" stroke:none;fill-rule:evenodd;fill:rgb(63.529968%,67.059326%,86.669922%);fill-opacity:1;" d="M 130.28125 125.339844 L 131.53125 134.050781 L 129.605469 136.464844 L 133.007812 134.210938 L 131.304688 124.460938 L 130.28125 125.339844 "/>
<path style=" stroke:none;fill-rule:evenodd;fill:rgb(63.529968%,67.059326%,86.669922%);fill-opacity:1;" d="M 128.554688 139.246094 C 128.554688 139.246094 129.816406 175.925781 126.863281 188.238281 C 126.863281 188.238281 128.769531 188.023438 128.902344 186.988281 C 129.039062 185.949219 129.867188 173.886719 130.21875 168.972656 C 130.574219 164.0625 130.484375 144.359375 130.371094 143.320312 C 130.253906 142.28125 129.980469 137.886719 129.980469 137.886719 C 129.980469 137.886719 128.527344 138.363281 128.554688 139.246094 "/>
<path style=" stroke:none;fill-rule:evenodd;fill:rgb(21.569824%,28.239441%,57.649231%);fill-opacity:1;" d="M 131.484375 107.089844 C 131.835938 106.246094 132.867188 102.351562 132.898438 102.226562 C 132.832031 102.289062 129.910156 104.9375 125.722656 103.140625 C 117.78125 99.734375 107.992188 99.734375 100.050781 103.140625 C 95.863281 104.9375 92.941406 102.289062 92.875 102.226562 C 92.90625 102.351562 93.9375 106.246094 94.289062 107.089844 C 94.648438 107.945312 94.777344 109.929688 94.777344 109.929688 L 94.207031 119.9375 C 95.378906 119.453125 96.523438 118.914062 97.609375 118.265625 C 98.769531 116.5625 100.132812 114.972656 101.046875 113.125 C 100.890625 112.664062 100.695312 112.050781 100.695312 112.050781 C 100.695312 112.050781 103.683594 107.558594 112.527344 107.558594 L 113.246094 107.558594 C 122.089844 107.558594 125.074219 112.050781 125.074219 112.050781 C 125.074219 112.050781 124.699219 113.242188 124.570312 113.550781 C 124.445312 113.859375 123.617188 114.609375 123.351562 115.085938 C 123.09375 115.558594 123.40625 115.808594 123.40625 115.808594 C 123.40625 115.808594 122.65625 116.886719 122.8125 117.683594 C 122.964844 118.480469 123.976562 119.582031 124.570312 119.945312 C 125.167969 120.300781 125.230469 119.882812 125.515625 120.300781 C 125.800781 120.722656 127.328125 122.523438 127.566406 123.640625 C 127.804688 124.757812 128.464844 125.699219 128.878906 125.878906 C 129.296875 126.058594 131.773438 125.046875 131.773438 125.046875 L 131.773438 123.640625 L 130.996094 109.929688 C 130.996094 109.929688 131.125 107.945312 131.484375 107.089844 "/>
<path style=" stroke:none;fill-rule:evenodd;fill:rgb(96.469116%,78.819275%,64.709473%);fill-opacity:1;" d="M 121.34375 71.90625 L 121.34375 74.230469 C 121.34375 74.230469 120.5 77.566406 118.515625 80.074219 C 116.53125 82.582031 112.820312 86.097656 112.820312 86.097656 C 112.820312 86.097656 108.261719 82.707031 106.292969 79.109375 C 104.324219 75.507812 103.863281 75.058594 104.390625 71.90625 C 104.390625 71.90625 105.945312 72.832031 107.046875 74.109375 C 108.15625 75.390625 108.953125 76.273438 110.628906 76.53125 C 112.304688 76.785156 116.359375 76.378906 116.964844 75.761719 C 117.570312 75.148438 117.828125 74.910156 118.515625 74.070312 C 119.207031 73.230469 120.820312 72.25 121.34375 71.90625 "/>
<path style=" stroke:none;fill-rule:evenodd;fill:rgb(84.309387%,58.428955%,47.839355%);fill-opacity:1;" d="M 104.433594 74.597656 C 104.433594 74.597656 106.371094 76.457031 107.046875 77.265625 C 107.546875 77.863281 108.761719 78.71875 110.503906 79.128906 C 111.804688 79.433594 113.546875 79.453125 114.863281 79.171875 C 116.710938 78.78125 118.003906 77.882812 118.519531 77.265625 C 119.199219 76.457031 121.132812 74.597656 121.132812 74.597656 L 121.203125 72.066406 C 121.203125 72.066406 119.371094 73.042969 119.144531 73.191406 C 118.917969 73.339844 118.054688 74.089844 117.363281 75.351562 C 116.785156 76.410156 113.753906 76.511719 112.785156 76.515625 C 111.816406 76.511719 108.785156 76.410156 108.207031 75.351562 C 107.515625 74.089844 106.652344 73.339844 106.425781 73.191406 C 106.199219 73.042969 104.363281 72.066406 104.363281 72.066406 L 104.433594 74.597656 "/>
<path style=" stroke:none;fill-rule:evenodd;fill:rgb(96.469116%,78.819275%,64.709473%);fill-opacity:1;" d="M 150.921875 91.75 C 150.921875 91.75 154.167969 94.410156 155.125 95.570312 C 156.085938 96.726562 158.875 99.703125 158.875 99.703125 C 158.875 99.703125 160.113281 99.890625 160.234375 100.488281 C 160.355469 101.082031 160.511719 101.753906 160.433594 102.160156 C 160.355469 102.5625 159.914062 104.179688 159.753906 104.390625 C 159.597656 104.601562 156.175781 112.429688 153.730469 114.03125 C 151.28125 115.628906 136.609375 119.34375 136.609375 119.34375 C 136.609375 119.34375 132.0625 124.980469 129.589844 123.339844 L 128.632812 122.222656 C 128.632812 122.222656 128.070312 121.703125 128.03125 121.582031 C 127.992188 121.464844 127.59375 120.863281 127.515625 120.703125 C 127.433594 120.542969 127.117188 120.144531 127.035156 119.984375 C 126.957031 119.824219 126.515625 119.34375 126.476562 119.222656 C 126.4375 119.105469 125.878906 118.464844 125.878906 118.464844 C 125.878906 118.464844 124.082031 118.226562 123.761719 117.105469 C 123.445312 115.988281 122.570312 115.628906 123.167969 115.230469 C 123.761719 114.828125 124.640625 113.589844 124.800781 112.953125 C 124.960938 112.3125 125.535156 110.726562 125.648438 110.597656 C 125.757812 110.476562 129.191406 109.59375 130.105469 109.996094 C 131.023438 110.394531 133.160156 111.671875 133.925781 111.671875 C 134.695312 111.671875 137.808594 111.496094 139.683594 108.707031 C 141.558594 105.917969 144.152344 102.640625 144.152344 102.640625 L 142.464844 100.777344 C 142.464844 100.777344 148.105469 95.488281 149.382812 93.25 C 149.382812 93.25 150.957031 90.914062 150.84375 91.152344 C 150.730469 91.382812 150.921875 91.75 150.921875 91.75 "/>
<path style=" stroke:none;fill-rule:evenodd;fill:rgb(84.309387%,58.428955%,47.839355%);fill-opacity:1;" d="M 151.847656 92.519531 C 151.847656 92.519531 148.957031 97.738281 143.5625 101.988281 L 142.730469 101.070312 C 142.730469 101.070312 145.730469 97.683594 147.09375 96.117188 C 148.453125 94.550781 150.578125 91.691406 150.578125 91.691406 L 151.847656 92.519531 "/>
<path style=" stroke:none;fill-rule:evenodd;fill:rgb(84.309387%,58.428955%,47.839355%);fill-opacity:1;" d="M 147.425781 97.972656 L 149.140625 100.003906 C 149.140625 100.003906 151.960938 100.402344 152.664062 101.003906 C 152.664062 101.003906 147.464844 100.242188 144.152344 102.640625 L 143.117188 101.402344 L 147.425781 97.972656 "/>
<path style=" stroke:none;fill-rule:evenodd;fill:rgb(84.309387%,58.428955%,47.839355%);fill-opacity:1;" d="M 124.945312 113.875 C 124.945312 113.875 124.960938 116.226562 126.816406 117.304688 L 127.054688 117.128906 C 127.054688 117.128906 127.085938 117.515625 127.414062 117.996094 C 127.742188 118.476562 130.0625 122.421875 131.125 123.074219 C 131.125 123.074219 130.140625 123.621094 129.511719 123.25 C 128.878906 122.878906 129.023438 122.664062 128.527344 122.121094 C 128.03125 121.582031 127.589844 120.796875 127.441406 120.585938 C 127.292969 120.371094 126.800781 119.695312 126.640625 119.460938 C 126.476562 119.222656 126.683594 119.285156 126.214844 118.863281 C 125.746094 118.441406 124.902344 118.921875 124.449219 118.242188 C 124.003906 117.5625 123.167969 116.207031 123.167969 115.71875 C 123.167969 115.230469 123.199219 114.917969 123.40625 114.878906 C 123.609375 114.839844 124.628906 113.324219 124.945312 113.875 "/>
<path style=" stroke:none;fill-rule:evenodd;fill:rgb(84.309387%,58.428955%,47.839355%);fill-opacity:1;" d="M 128.011719 112.183594 L 128.589844 112.050781 C 128.589844 112.050781 127.585938 111.640625 127.214844 111.492188 C 126.847656 111.34375 125.679688 111.765625 125.289062 112.183594 C 124.898438 112.597656 124.699219 113.242188 124.699219 113.242188 L 124.570312 113.949219 C 124.570312 113.949219 124.996094 113.308594 125.65625 112.867188 C 126.203125 112.503906 126.859375 112.34375 128.011719 112.183594 "/>
<path style=" stroke:none;fill-rule:evenodd;fill:rgb(84.309387%,58.428955%,47.839355%);fill-opacity:1;" d="M 160.074219 100.964844 C 160.074219 100.964844 157.359375 108.792969 152.492188 111.710938 C 147.625 114.628906 136.371094 119.105469 136.371094 119.105469 C 136.371094 119.105469 138.363281 118.890625 138.941406 118.738281 C 139.523438 118.585938 150.539062 115.910156 154.246094 113.949219 C 154.246094 113.949219 155.191406 112.691406 155.925781 111.519531 C 156.660156 110.347656 160.066406 103.632812 160.25 102.894531 C 160.433594 102.160156 160.675781 101.121094 160.457031 100.804688 C 160.234375 100.488281 160.195312 99.886719 160.074219 100.964844 "/>
<path style=" stroke:none;fill-rule:evenodd;fill:rgb(69.018555%,81.17981%,87.059021%);fill-opacity:1;" d="M 108.03125 188.800781 C 108.03125 188.800781 109.292969 191.671875 109.023438 193.152344 C 108.753906 194.628906 107.835938 196.628906 107.355469 197.707031 C 106.878906 198.785156 106.992188 200.609375 104.441406 201.261719 C 101.894531 201.917969 92.742188 202.460938 93.726562 198.125 C 93.726562 198.125 93.867188 196.234375 95.066406 195.253906 C 96.265625 194.269531 98.058594 192.152344 98.140625 192.03125 C 98.21875 191.910156 99.617188 189.394531 99.617188 189.394531 C 99.617188 189.394531 101.851562 190.703125 102.367188 190.6875 C 102.886719 190.675781 107.945312 187.925781 108.03125 188.800781 "/>
<path style=" stroke:none;fill-rule:evenodd;fill:rgb(69.018555%,81.17981%,87.059021%);fill-opacity:1;" d="M 117.542969 188.800781 C 117.542969 188.800781 116.285156 191.671875 116.554688 193.152344 C 116.824219 194.628906 117.738281 196.628906 118.21875 197.707031 C 118.699219 198.785156 118.585938 200.609375 121.132812 201.261719 C 123.679688 201.917969 132.832031 202.460938 131.851562 198.125 C 131.851562 198.125 131.707031 196.234375 130.507812 195.253906 C 129.3125 194.269531 127.515625 192.152344 127.4375 192.03125 C 127.355469 191.910156 125.960938 189.394531 125.960938 189.394531 C 125.960938 189.394531 123.726562 190.703125 123.207031 190.6875 C 122.6875 190.675781 117.628906 187.925781 117.542969 188.800781 "/>
<path style=" stroke:none;fill-rule:evenodd;fill:rgb(29.40979%,34.509277%,38.819885%);fill-opacity:1;" d="M 122.574219 96.746094 L 123.347656 96.988281 C 123.347656 96.988281 123.707031 95.996094 123.964844 95.089844 C 124.226562 94.179688 124.824219 91.039062 125.023438 90.035156 C 125.222656 89.035156 125.59375 84.71875 125.5 83.539062 C 125.410156 82.363281 125.320312 80.125 125.210938 79.207031 C 125.101562 78.285156 124.484375 74.808594 124.085938 74.03125 L 123.949219 73.902344 C 123.949219 73.902344 123.703125 74.011719 123.683594 74.007812 C 123.664062 74 123.457031 74.300781 123.457031 74.300781 C 123.457031 74.300781 123.792969 75.726562 124.042969 76.867188 C 124.292969 78.003906 124.601562 79.726562 124.65625 80.644531 C 124.703125 81.5625 124.792969 83.460938 124.742188 84.378906 C 124.695312 85.300781 124.601562 88.207031 124.34375 89.375 C 124.085938 90.542969 123.246094 95.59375 122.574219 96.746094 "/>
<path style=" stroke:none;fill-rule:evenodd;fill:rgb(75.689697%,80.389404%,82.749939%);fill-opacity:1;" d="M 123.40625 96.988281 L 122.574219 96.808594 L 121.515625 99.371094 C 121.515625 99.371094 120.863281 98.105469 119.457031 98.222656 C 118.050781 98.34375 117.175781 100.34375 116.929688 101.484375 C 116.679688 102.621094 116.816406 104.230469 117.453125 105.226562 C 118.085938 106.226562 119.328125 106.375 119.859375 105.902344 C 120.390625 105.429688 121.714844 104.5625 121.867188 102.773438 C 122.015625 100.980469 121.96875 100.710938 121.96875 100.710938 C 121.96875 100.710938 122.769531 98.65625 122.921875 98.1875 C 123.070312 97.714844 123.40625 96.988281 123.40625 96.988281 "/>
<path style=" stroke:none;fill-rule:evenodd;fill:rgb(29.40979%,34.509277%,38.819885%);fill-opacity:1;" d="M 103.945312 91.703125 L 104.605469 90.761719 C 104.605469 90.761719 104.273438 90.175781 103.542969 89.535156 C 102.816406 88.894531 101.230469 88.617188 101.230469 88.617188 C 101.230469 88.617188 100.929688 85.007812 100.882812 83.730469 C 100.832031 82.453125 101.023438 79.753906 101.183594 78.59375 C 101.339844 77.4375 101.953125 75.449219 102.253906 74.886719 C 102.558594 74.332031 102.738281 73.953125 102.738281 73.953125 L 101.820312 74.332031 C 101.820312 74.332031 101.253906 75.597656 101.230469 75.636719 C 101.210938 75.679688 100.398438 78.054688 100.191406 79.492188 C 99.984375 80.933594 99.816406 84.21875 99.964844 85.40625 C 100.113281 86.597656 100.253906 88.925781 100.253906 88.925781 C 100.253906 88.925781 99.355469 90.023438 99.265625 90.570312 C 99.175781 91.125 99.09375 92.480469 99.09375 92.480469 C 99.09375 92.480469 100.125 93.039062 100.292969 92.660156 C 100.292969 92.660156 100.125 90.507812 100.871094 90.035156 C 101.621094 89.566406 103.035156 90.035156 103.945312 91.703125 "/>
<path style=" stroke:none;fill-rule:evenodd;fill:rgb(29.40979%,34.509277%,38.819885%);fill-opacity:1;" d="M 109.691406 106.425781 L 108.921875 105.695312 C 108.921875 105.695312 109.050781 105.386719 109.101562 105.238281 C 109.152344 105.085938 109.140625 104.921875 109.222656 104.839844 C 109.304688 104.757812 109.746094 104.414062 110.066406 104.660156 C 110.390625 104.90625 110.941406 105.492188 110.917969 105.664062 C 110.898438 105.835938 110.875 105.910156 110.742188 105.957031 C 110.605469 106 109.691406 106.425781 109.691406 106.425781 "/>
<path style=" stroke:none;fill-rule:evenodd;fill:rgb(29.40979%,34.509277%,38.819885%);fill-opacity:1;" d="M 104.84375 107.230469 L 104.695312 108.25 L 103.773438 108.457031 C 103.773438 108.457031 103.234375 108.628906 103.191406 108.457031 C 103.144531 108.285156 103.109375 107.730469 103.191406 107.453125 C 103.273438 107.175781 103.402344 106.816406 103.511719 106.734375 C 103.625 106.652344 103.679688 106.621094 103.746094 106.652344 C 103.8125 106.683594 103.953125 106.691406 103.992188 106.71875 C 104.035156 106.75 104.464844 107.011719 104.464844 107.011719 L 104.84375 107.230469 "/>
<path style=" stroke:none;fill-rule:evenodd;fill:rgb(75.689697%,80.389404%,82.749939%);fill-opacity:1;" d="M 104.605469 90.902344 L 104.019531 91.597656 C 104.019531 91.597656 105.089844 93.222656 105.449219 93.921875 C 105.808594 94.621094 106.726562 96.828125 106.957031 97.886719 C 107.1875 98.945312 107.484375 101.082031 107.40625 102.394531 C 107.324219 103.699219 106.957031 105.496094 106.828125 105.890625 C 106.695312 106.277344 106.238281 107.386719 106.238281 107.386719 L 104.839844 107.261719 L 104.703125 108.183594 L 106.828125 108.535156 C 106.828125 108.535156 107.566406 106.835938 108.085938 104.699219 C 108.601562 102.5625 108.433594 99.683594 108.085938 98.273438 C 107.734375 96.867188 107.109375 94.839844 106.5 93.769531 C 105.886719 92.699219 104.605469 90.902344 104.605469 90.902344 "/>
<path style=" stroke:none;fill-rule:evenodd;fill:rgb(75.689697%,80.389404%,82.749939%);fill-opacity:1;" d="M 100.144531 92.792969 L 99.234375 92.554688 C 99.234375 92.554688 99.175781 94.519531 99.417969 95.886719 C 99.65625 97.257812 100.375 99.066406 100.710938 100.144531 C 101.050781 101.222656 102.875 103.679688 103.476562 104.460938 C 104.074219 105.238281 106.519531 107.027344 107.28125 107.507812 C 108.042969 107.984375 108.222656 107.957031 108.222656 107.957031 L 109.640625 106.425781 L 108.921875 105.769531 L 107.972656 106.757812 C 107.972656 106.757812 105.289062 105.128906 104.550781 104.128906 C 103.8125 103.128906 102.207031 101.503906 101.429688 99.207031 C 100.652344 96.90625 99.941406 94.429688 100.144531 92.792969 "/>
<path style=" stroke:none;fill-rule:evenodd;fill:rgb(21.569824%,28.239441%,57.649231%);fill-opacity:1;" d="M 90.6875 92.554688 L 90.324219 88.816406 L 89.648438 90.035156 L 78.917969 96.585938 C 78.917969 96.585938 82.574219 100.847656 84.496094 101.707031 L 91.527344 96.585938 Z M 134.886719 92.554688 L 135.253906 88.816406 L 135.925781 90.035156 L 146.660156 96.585938 C 146.660156 96.585938 143 100.847656 141.082031 101.707031 L 134.050781 96.585938 Z M 115.789062 143.035156 C 119.75 142.535156 126.734375 141.21875 130.378906 137.984375 L 130.261719 136.15625 C 118.78125 142.867188 106.804688 142.871094 95.3125 136.15625 L 95.195312 137.984375 C 98.863281 141.242188 105.917969 142.550781 109.863281 143.042969 C 109.277344 146.902344 106.59375 164.609375 106.167969 168.734375 C 105.6875 173.371094 107.316406 188.457031 107.316406 188.457031 C 107.316406 188.457031 109.855469 187.460938 110.429688 186.242188 C 110.335938 184.632812 109.664062 175.457031 109.84375 171.019531 C 110.003906 167.011719 111.972656 154.976562 112.828125 151.714844 C 113.691406 154.921875 115.660156 166.578125 115.824219 170.582031 C 116.003906 175.015625 114.746094 184.800781 115.226562 186.242188 C 115.707031 187.679688 118.371094 188.238281 118.371094 188.238281 C 118.371094 188.238281 119.964844 173.371094 119.484375 168.734375 C 119.058594 164.609375 116.371094 146.871094 115.789062 143.035156 "/>
<path style=" stroke:none;fill-rule:evenodd;fill:rgb(47.44873%,58.428955%,65.098572%);fill-opacity:1;" d="M 99.015625 190.972656 C 99.015625 190.972656 101.738281 192.441406 102.457031 192.652344 C 103.175781 192.859375 108.382812 190.3125 108.382812 190.3125 L 108.117188 188.238281 C 108.117188 188.238281 103.027344 190.914062 102.605469 190.851562 C 102.191406 190.792969 99.546875 189.519531 99.546875 189.519531 L 99.015625 190.972656 "/>
<path style=" stroke:none;fill-rule:evenodd;fill:rgb(47.44873%,58.428955%,65.098572%);fill-opacity:1;" d="M 126.671875 190.972656 C 126.671875 190.972656 123.949219 192.441406 123.230469 192.652344 C 122.511719 192.859375 117.304688 190.3125 117.304688 190.3125 L 117.570312 188.238281 C 117.570312 188.238281 122.660156 190.914062 123.078125 190.851562 C 123.5 190.792969 126.140625 189.519531 126.140625 189.519531 L 126.671875 190.972656 "/>
<path style=" stroke:none;fill-rule:evenodd;fill:rgb(5.099487%,5.099487%,5.099487%);fill-opacity:1;" d="M 113.433594 86.183594 C 113.21875 86.367188 113.003906 86.550781 112.78125 86.734375 C 112.5625 86.550781 112.34375 86.367188 112.132812 86.183594 C 104.292969 79.40625 103.789062 74.605469 103.769531 74.386719 L 103.769531 71.484375 C 103.816406 71.523438 103.867188 71.5625 103.921875 71.601562 C 104.128906 71.757812 104.359375 71.859375 104.605469 71.945312 L 104.605469 74.328125 C 104.644531 74.609375 105.339844 79.226562 112.78125 85.632812 C 112.996094 85.816406 113.210938 86 113.433594 86.183594 "/>
<path style=" stroke:none;fill-rule:evenodd;fill:rgb(5.099487%,5.099487%,5.099487%);fill-opacity:1;" d="M 91.660156 95.941406 L 84.503906 101.171875 C 79.324219 97.726562 75.195312 91 74.1875 89.265625 C 75.539062 88.730469 79.46875 87.144531 80.367188 86.523438 C 80.878906 86.167969 81.46875 85.488281 82.09375 84.769531 C 82.804688 83.949219 83.609375 83.023438 84.351562 82.53125 C 84.832031 82.210938 87.511719 80.980469 90.941406 79.457031 C 91.421875 79.242188 103.8125 73.839844 104.316406 73.617188 C 104.261719 73.476562 104.121094 72.90625 104.179688 72.761719 C 103.5625 73.035156 91.199219 78.421875 90.609375 78.683594 C 87.21875 80.195312 84.414062 81.480469 83.886719 81.832031 C 83.050781 82.390625 82.207031 83.359375 81.460938 84.21875 C 80.871094 84.894531 80.316406 85.539062 79.890625 85.835938 C 79.070312 86.402344 74.949219 88.066406 73.429688 88.664062 L 72.988281 88.839844 L 73.214844 89.257812 C 73.410156 89.613281 78.046875 98.027344 84.292969 102.035156 L 84.53125 102.191406 L 91.859375 96.832031 C 91.695312 96.574219 91.628906 96.253906 91.660156 95.941406 "/>
<path style=" stroke:none;fill-rule:evenodd;fill:rgb(5.099487%,5.099487%,5.099487%);fill-opacity:1;" d="M 94.199219 110.742188 C 94.277344 110.667969 94.363281 110.605469 94.457031 110.566406 C 94.507812 110.542969 95.101562 110.300781 94.859375 110.40625 C 94.914062 110.378906 94.96875 110.363281 95.023438 110.34375 C 94.90625 108.433594 94.648438 106.832031 94.253906 105.554688 C 92.722656 100.59375 90.335938 89.871094 90.3125 89.761719 C 90.3125 89.761719 90.375 93.855469 90.929688 96.144531 C 91.71875 99.449219 92.691406 103.332031 93.453125 105.804688 C 93.851562 107.082031 94.097656 108.742188 94.199219 110.742188 "/>
<path style=" stroke:none;fill-rule:evenodd;fill:rgb(5.099487%,5.099487%,5.099487%);fill-opacity:1;" d="M 92.648438 134.136719 C 93.40625 130.105469 93.992188 126.402344 94.398438 123.0625 C 94.097656 123.054688 93.804688 122.960938 93.582031 122.773438 C 93.167969 126.238281 92.566406 130.082031 91.777344 134.253906 L 91.722656 134.519531 L 91.945312 134.671875 C 92.050781 134.746094 94.503906 136.453125 98.371094 138.1875 C 101.023438 139.378906 104.730469 140.742188 108.847656 141.359375 C 112.226562 141.867188 114.617188 141.792969 118.0625 141.128906 C 121.640625 140.441406 124.835938 139.25 127.195312 138.1875 C 131.0625 136.453125 133.519531 134.746094 133.621094 134.671875 L 133.839844 134.519531 L 133.792969 134.253906 C 133.023438 130.203125 132.433594 126.464844 132.023438 123.082031 C 131.746094 123.171875 131.441406 123.164062 131.167969 123.074219 C 131.574219 126.410156 132.15625 130.109375 132.917969 134.136719 C 131.675781 134.953125 125.414062 138.890625 117.761719 140.332031 C 114.523438 140.945312 112.160156 141.015625 108.945312 140.527344 C 100.777344 139.289062 93.949219 134.992188 92.648438 134.136719 "/>
<path style=" stroke:none;fill-rule:evenodd;fill:rgb(5.099487%,5.099487%,5.099487%);fill-opacity:1;" d="M 121.796875 71.484375 L 121.796875 74.386719 C 121.777344 74.605469 121.273438 79.40625 113.433594 86.183594 C 113.21875 86.367188 113.003906 86.550781 112.78125 86.734375 C 112.5625 86.550781 112.34375 86.367188 112.132812 86.183594 C 112.355469 86 112.574219 85.816406 112.78125 85.632812 C 120.226562 79.222656 120.921875 74.609375 120.960938 74.328125 L 120.960938 71.945312 C 121.207031 71.859375 121.4375 71.757812 121.644531 71.601562 C 121.699219 71.5625 121.75 71.523438 121.796875 71.484375 "/>
<path style=" stroke:none;fill-rule:evenodd;fill:rgb(5.099487%,5.099487%,5.099487%);fill-opacity:1;" d="M 133.910156 95.941406 L 141.0625 101.171875 C 146.242188 97.726562 150.371094 91 151.378906 89.265625 C 150.027344 88.730469 146.097656 87.144531 145.199219 86.523438 C 144.6875 86.167969 144.09375 85.488281 143.472656 84.769531 C 142.761719 83.949219 141.953125 83.023438 141.214844 82.53125 C 140.71875 82.199219 137.855469 80.890625 134.246094 79.289062 C 133.886719 79.128906 121.714844 73.824219 121.34375 73.65625 C 121.460938 73.359375 121.457031 73.039062 121.339844 72.742188 C 121.84375 72.964844 134.140625 78.324219 134.625 78.539062 C 138.164062 80.113281 141.132812 81.46875 141.679688 81.832031 C 142.515625 82.390625 143.359375 83.359375 144.101562 84.21875 C 144.691406 84.894531 145.25 85.539062 145.675781 85.835938 C 146.496094 86.402344 150.617188 88.066406 152.132812 88.664062 L 152.578125 88.839844 L 152.351562 89.257812 C 152.15625 89.613281 147.519531 98.027344 141.277344 102.035156 L 141.035156 102.191406 L 133.707031 96.832031 C 133.871094 96.574219 133.9375 96.253906 133.910156 95.941406 "/>
<path style=" stroke:none;fill-rule:evenodd;fill:rgb(5.099487%,5.099487%,5.099487%);fill-opacity:1;" d="M 131.3125 105.554688 C 130.925781 106.804688 130.671875 108.363281 130.550781 110.214844 C 130.75 110.21875 130.941406 110.277344 131.105469 110.40625 C 131.195312 110.472656 131.285156 110.53125 131.375 110.597656 C 131.480469 108.664062 131.726562 107.050781 132.113281 105.804688 C 132.875 103.332031 133.847656 99.449219 134.636719 96.144531 C 135.191406 93.855469 135.253906 89.761719 135.253906 89.761719 C 135.230469 89.871094 132.84375 100.59375 131.3125 105.554688 "/>
<path style=" stroke:none;fill-rule:evenodd;fill:rgb(5.099487%,5.099487%,5.099487%);fill-opacity:1;" d="M 130.019531 136.332031 C 129.957031 136.332031 129.894531 136.324219 129.828125 136.316406 C 130.191406 144.726562 130.820312 167 128.5 187.238281 C 127.914062 187.636719 125.722656 189.09375 123.105469 190.320312 C 122.382812 190.128906 118.917969 189.105469 115.632812 186.445312 C 115.703125 184.835938 116.148438 174.46875 116.269531 171.875 C 116.359375 169.863281 114.417969 157.644531 113.207031 150.300781 C 113.050781 149.351562 112.90625 148.484375 112.78125 147.730469 C 112.65625 148.484375 112.511719 149.351562 112.355469 150.300781 C 112.492188 151.113281 112.632812 151.988281 112.78125 152.90625 C 113.96875 160.210938 115.507812 170.117188 115.429688 171.835938 C 115.296875 174.636719 114.792969 186.5 114.789062 186.617188 L 114.777344 186.828125 L 114.9375 186.960938 C 118.804688 190.160156 122.878906 191.136719 123.054688 191.175781 L 123.191406 191.207031 L 123.324219 191.148438 C 126.5 189.671875 129.109375 187.835938 129.136719 187.816406 L 129.289062 187.710938 L 129.308594 187.523438 C 131.671875 167.082031 131.023438 144.519531 130.664062 136.15625 C 130.472656 136.265625 130.253906 136.332031 130.019531 136.332031 "/>
<path style=" stroke:none;fill-rule:evenodd;fill:rgb(5.099487%,5.099487%,5.099487%);fill-opacity:1;" d="M 113.207031 150.300781 C 113.050781 149.351562 112.90625 148.484375 112.78125 147.730469 C 112.65625 148.484375 112.511719 149.351562 112.355469 150.300781 C 111.148438 157.644531 109.207031 169.863281 109.300781 171.875 C 109.421875 174.46875 109.863281 184.835938 109.933594 186.445312 C 106.65625 189.101562 103.183594 190.128906 102.460938 190.320312 C 99.847656 189.097656 97.652344 187.636719 97.066406 187.238281 C 94.738281 166.914062 95.378906 144.535156 95.738281 136.207031 C 95.714844 136.210938 95.691406 136.210938 95.664062 136.210938 C 95.355469 136.210938 95.105469 136.121094 94.910156 135.976562 C 94.550781 144.195312 93.875 166.9375 96.253906 187.523438 L 96.277344 187.710938 L 96.429688 187.816406 C 96.457031 187.835938 99.066406 189.671875 102.242188 191.148438 L 102.371094 191.207031 L 102.511719 191.175781 C 102.683594 191.136719 106.761719 190.160156 110.628906 186.960938 L 110.789062 186.828125 L 110.78125 186.617188 C 110.773438 186.5 110.269531 174.636719 110.136719 171.835938 C 110.054688 170.117188 111.597656 160.210938 112.78125 152.90625 C 112.929688 151.988281 113.074219 151.113281 113.207031 150.300781 "/>
<g clip-path="url(#clip1)" clip-rule="nonzero">
<path style=" stroke:none;fill-rule:evenodd;fill:rgb(5.099487%,5.099487%,5.099487%);fill-opacity:1;" d="M 132.199219 198.3125 C 131.921875 196.191406 130.851562 195.082031 129.613281 193.800781 C 128.507812 192.652344 127.277344 191.375 126.25 189.0625 C 126.042969 189.25 125.773438 189.375 125.480469 189.394531 C 126.578125 191.859375 127.910156 193.238281 129.007812 194.382812 C 130.191406 195.609375 131.128906 196.578125 131.371094 198.421875 C 131.449219 199.027344 131.300781 199.507812 130.914062 199.90625 C 129.492188 201.359375 125.25 201.246094 123.734375 201.078125 L 123.675781 201.078125 C 119.960938 201.179688 119.671875 200.230469 119.191406 198.660156 C 119.019531 198.109375 118.828125 197.484375 118.472656 196.835938 C 117.136719 194.414062 116.832031 193.257812 117.175781 191.882812 C 117.398438 190.980469 117.722656 189.476562 117.957031 188.390625 C 117.617188 188.351562 117.363281 188.199219 117.1875 187.980469 C 116.953125 189.074219 116.597656 190.71875 116.359375 191.679688 C 115.914062 193.480469 116.449219 194.90625 117.738281 197.242188 C 118.054688 197.8125 118.226562 198.367188 118.390625 198.902344 C 118.652344 199.757812 118.898438 200.558594 119.667969 201.128906 C 120.46875 201.726562 121.703125 201.96875 123.667969 201.917969 C 123.851562 201.933594 124.667969 202.011719 125.730469 202.011719 C 127.617188 202.011719 130.269531 201.765625 131.511719 200.492188 C 132.082031 199.910156 132.316406 199.175781 132.199219 198.3125 "/>
</g>
<path style=" stroke:none;fill-rule:evenodd;fill:rgb(5.099487%,5.099487%,5.099487%);fill-opacity:1;" d="M 123.625 200.046875 C 120.960938 200.046875 120.292969 199.804688 119.648438 197.714844 C 119.355469 196.75 118.746094 196.117188 118.15625 195.507812 C 117.246094 194.5625 116.308594 193.582031 116.597656 191.46875 L 117.070312 191.53125 C 116.8125 193.417969 117.597656 194.230469 118.503906 195.175781 C 119.128906 195.824219 119.777344 196.5 120.105469 197.570312 C 120.730469 199.601562 121.117188 199.597656 124.800781 199.558594 C 125.359375 199.550781 125.988281 199.542969 126.703125 199.542969 C 129.617188 199.542969 130.738281 198.917969 131.167969 198.394531 C 131.46875 198.019531 131.414062 197.695312 131.414062 197.691406 L 131.882812 197.59375 C 131.886719 197.617188 131.988281 198.140625 131.535156 198.699219 C 130.820312 199.578125 129.191406 200.023438 126.703125 200.023438 C 125.992188 200.023438 125.363281 200.03125 124.808594 200.035156 C 124.375 200.039062 123.980469 200.046875 123.625 200.046875 "/>
<g clip-path="url(#clip2)" clip-rule="nonzero">
<path style=" stroke:none;fill-rule:evenodd;fill:rgb(5.099487%,5.099487%,5.099487%);fill-opacity:1;" d="M 108.398438 188.074219 C 108.160156 188.226562 107.902344 188.351562 107.621094 188.433594 C 107.851562 189.519531 108.171875 190.988281 108.394531 191.882812 C 108.734375 193.257812 108.429688 194.414062 107.09375 196.835938 C 106.738281 197.484375 106.542969 198.109375 106.375 198.660156 C 105.894531 200.230469 105.605469 201.179688 101.890625 201.078125 L 101.835938 201.078125 C 100.316406 201.246094 96.074219 201.359375 94.652344 199.90625 C 94.265625 199.507812 94.117188 199.027344 94.195312 198.421875 C 94.4375 196.578125 95.375 195.609375 96.554688 194.382812 C 97.664062 193.234375 99.007812 191.839844 100.105469 189.347656 C 99.828125 189.3125 99.558594 189.195312 99.351562 188.988281 C 98.3125 191.351562 97.070312 192.640625 95.953125 193.800781 C 94.714844 195.082031 93.644531 196.191406 93.363281 198.3125 C 93.25 199.175781 93.480469 199.910156 94.054688 200.492188 C 95.296875 201.765625 97.949219 202.011719 99.835938 202.011719 C 100.898438 202.011719 101.71875 201.933594 101.894531 201.917969 C 103.863281 201.96875 105.097656 201.726562 105.902344 201.128906 C 106.667969 200.558594 106.914062 199.757812 107.175781 198.902344 C 107.34375 198.367188 107.511719 197.8125 107.828125 197.242188 C 109.117188 194.90625 109.652344 193.480469 109.207031 191.679688 C 108.976562 190.746094 108.632812 189.164062 108.398438 188.074219 "/>
</g>
<path style=" stroke:none;fill-rule:evenodd;fill:rgb(5.099487%,5.099487%,5.099487%);fill-opacity:1;" d="M 101.9375 200.046875 C 104.605469 200.046875 105.273438 199.804688 105.914062 197.714844 C 106.210938 196.75 106.820312 196.117188 107.40625 195.507812 C 108.320312 194.5625 109.261719 193.582031 108.964844 191.46875 L 108.492188 191.53125 C 108.753906 193.417969 107.972656 194.230469 107.066406 195.175781 C 106.4375 195.824219 105.789062 196.5 105.457031 197.570312 C 104.835938 199.601562 104.449219 199.597656 100.765625 199.558594 C 100.207031 199.550781 99.578125 199.542969 98.863281 199.542969 C 95.949219 199.542969 94.828125 198.917969 94.402344 198.394531 C 94.09375 198.019531 94.152344 197.695312 94.152344 197.691406 L 93.683594 197.59375 C 93.675781 197.617188 93.578125 198.140625 94.027344 198.699219 C 94.746094 199.578125 96.371094 200.023438 98.863281 200.023438 C 99.574219 200.023438 100.203125 200.03125 100.761719 200.035156 C 101.191406 200.039062 101.582031 200.046875 101.9375 200.046875 "/>
<path style=" stroke:none;fill-rule:evenodd;fill:rgb(5.099487%,5.099487%,5.099487%);fill-opacity:1;" d="M 142.648438 100.574219 C 142.675781 100.546875 142.699219 100.515625 142.726562 100.488281 L 144.609375 102.582031 L 143.984375 103.140625 L 141.988281 100.921875 C 142.230469 100.875 142.464844 100.757812 142.648438 100.574219 "/>
<path style=" stroke:none;fill-rule:evenodd;fill:rgb(5.099487%,5.099487%,5.099487%);fill-opacity:1;" d="M 122.886719 115.433594 C 122.90625 115 123.03125 114.683594 123.257812 114.492188 C 123.625 114.175781 124.199219 113.183594 124.4375 112.746094 C 124.449219 112.617188 124.460938 112.492188 124.472656 112.367188 C 124.550781 111.453125 124.640625 110.417969 125.667969 110.074219 C 125.707031 110.0625 129.40625 108.859375 130.414062 109.59375 C 130.863281 109.917969 132.925781 110.765625 134.230469 111.265625 C 134.660156 111.308594 136.96875 110.640625 137.9375 109.898438 C 138.597656 109.390625 140.125 107.3125 141.46875 105.476562 C 142.074219 104.648438 142.703125 103.792969 143.246094 103.085938 C 143.683594 102.515625 144.339844 102.046875 145.097656 101.660156 C 148.230469 100.078125 151.394531 100.882812 151.394531 100.882812 C 151.339844 100.886719 145.574219 101.429688 143.910156 103.597656 C 143.371094 104.296875 142.75 105.148438 142.144531 105.972656 C 140.632812 108.035156 139.203125 109.988281 138.445312 110.566406 C 137.429688 111.347656 134.789062 112.25 134.03125 112.082031 L 133.972656 112.0625 C 133.628906 111.933594 130.605469 110.769531 129.925781 110.273438 C 129.570312 110.015625 127.375 110.390625 125.933594 110.871094 C 125.476562 111.023438 125.390625 111.46875 125.304688 112.441406 C 125.292969 112.597656 125.277344 112.757812 125.257812 112.917969 L 125.25 112.996094 L 125.214844 113.066406 C 125.132812 113.226562 124.382812 114.632812 123.800781 115.128906 C 123.546875 115.394531 123.914062 117.164062 124.421875 117.667969 C 124.808594 118.054688 125.242188 118.167969 125.832031 118.035156 L 126.164062 117.964844 L 126.304688 118.273438 C 126.441406 118.578125 126.886719 119.429688 127.296875 119.71875 C 127.679688 119.988281 127.859375 120.429688 128.03125 120.851562 C 128.183594 121.230469 128.328125 121.589844 128.585938 121.738281 C 129.03125 122 129.234375 122.390625 129.398438 122.710938 C 129.5625 123.023438 129.625 123.113281 129.730469 123.125 C 130.5 123.191406 133.847656 122.730469 136.226562 119.199219 L 136.308594 119.078125 L 137.105469 118.824219 L 137.152344 118.8125 C 141.429688 117.957031 151.570312 115.042969 153.691406 113.546875 C 155.734375 112.109375 159.503906 103.960938 159.824219 103.078125 C 160.039062 102.488281 160.082031 101.25 159.949219 100.96875 C 159.582031 100.734375 158.652344 100.242188 158.644531 100.234375 L 158.5625 100.191406 L 158.503906 100.113281 C 156.054688 96.796875 151.980469 93.257812 150.246094 91.816406 C 150.3125 91.769531 150.371094 91.71875 150.429688 91.660156 C 150.511719 91.578125 150.585938 91.480469 150.644531 91.382812 C 150.691406 91.308594 150.730469 91.230469 150.757812 91.152344 C 152.496094 92.59375 156.601562 96.160156 159.121094 99.539062 C 159.375 99.675781 160.136719 100.085938 160.449219 100.292969 C 161.144531 100.761719 160.78125 102.890625 160.613281 103.363281 C 160.40625 103.921875 156.539062 112.570312 154.175781 114.234375 C 151.894531 115.839844 141.632812 118.769531 137.339844 119.632812 L 136.839844 119.792969 C 134.445312 123.25 131.171875 123.96875 129.890625 123.96875 C 129.800781 123.96875 129.722656 123.964844 129.652344 123.960938 C 129.078125 123.90625 128.84375 123.460938 128.65625 123.097656 C 128.523438 122.84375 128.398438 122.601562 128.164062 122.464844 C 127.660156 122.171875 127.441406 121.636719 127.253906 121.164062 C 127.121094 120.84375 127 120.53125 126.816406 120.40625 C 126.320312 120.058594 125.898438 119.328125 125.679688 118.910156 C 124.957031 118.988281 124.339844 118.773438 123.832031 118.261719 C 123.308594 117.742188 122.847656 116.367188 122.886719 115.433594 "/>
<path style=" stroke:none;fill-rule:evenodd;fill:rgb(5.099487%,5.099487%,5.099487%);fill-opacity:1;" d="M 125.566406 80.59375 C 125.320312 77.996094 124.824219 75.902344 124.378906 74.421875 C 124.371094 74.40625 123.777344 73.902344 123.769531 73.902344 C 124.257812 75.363281 124.867188 77.671875 125.148438 80.652344 C 125.609375 85.550781 125.25 93.300781 120.929688 102.472656 L 119.867188 102.472656 C 119.773438 102.28125 119.609375 101.839844 119.863281 101.414062 L 120.871094 101.34375 L 120.921875 101.242188 C 120.941406 101.210938 122.671875 98 123.855469 93.070312 C 124.945312 88.519531 125.78125 81.523438 123.5625 74.027344 L 123.160156 74.148438 C 125.347656 81.546875 124.527344 88.460938 123.449219 92.957031 C 122.398438 97.355469 120.90625 100.359375 120.609375 100.9375 L 119.632812 101.007812 L 119.570312 101.085938 C 118.988281 101.898438 119.542969 102.761719 119.566406 102.796875 L 119.628906 102.894531 L 121.195312 102.894531 L 121.25 102.777344 C 125.675781 93.453125 126.039062 85.566406 125.566406 80.59375 "/>
<path style=" stroke:none;fill-rule:evenodd;fill:rgb(5.099487%,5.099487%,5.099487%);fill-opacity:1;" d="M 121.992188 100.558594 C 121.984375 100.589844 121.976562 100.617188 121.96875 100.648438 C 121.964844 100.671875 121.960938 100.6875 121.957031 100.695312 C 121.984375 100.914062 121.84375 101.074219 121.667969 101.136719 C 121.695312 101.585938 121.671875 102.066406 121.585938 102.558594 C 121.261719 104.402344 120.175781 105.796875 119.054688 105.914062 C 118.925781 105.925781 118.789062 105.921875 118.660156 105.898438 C 118.480469 105.867188 118.3125 105.804688 118.160156 105.707031 C 117.226562 105.144531 116.738281 103.527344 117.050781 101.757812 C 117.363281 99.988281 118.375 98.632812 119.441406 98.421875 C 119.621094 98.386719 119.800781 98.386719 119.976562 98.417969 C 120.109375 98.441406 120.234375 98.480469 120.351562 98.539062 C 120.765625 98.742188 121.101562 99.140625 121.332031 99.664062 C 121.34375 99.636719 121.351562 99.605469 121.359375 99.578125 C 121.410156 99.4375 121.507812 99.351562 121.617188 99.308594 C 121.507812 99.101562 121.386719 98.910156 121.246094 98.742188 C 121.015625 98.460938 120.738281 98.242188 120.429688 98.113281 C 120.308594 98.0625 120.179688 98.027344 120.050781 98 C 118.570312 97.738281 117.039062 99.394531 116.636719 101.683594 C 116.234375 103.976562 117.109375 106.050781 118.585938 106.3125 C 118.714844 106.335938 118.847656 106.34375 118.980469 106.339844 C 119.316406 106.324219 119.652344 106.214844 119.96875 106.027344 C 120.921875 105.46875 121.726562 104.199219 122 102.632812 C 122.132812 101.886719 122.125 101.171875 122.011719 100.527344 C 122.003906 100.539062 122 100.550781 121.992188 100.558594 "/>
<path style=" stroke:none;fill-rule:evenodd;fill:rgb(5.099487%,5.099487%,5.099487%);fill-opacity:1;" d="M 119.433594 106.035156 C 119.300781 106.011719 119.175781 105.972656 119.054688 105.914062 C 118.042969 105.421875 117.496094 103.738281 117.820312 101.894531 C 118.148438 100.046875 119.234375 98.652344 120.351562 98.539062 C 120.484375 98.527344 120.617188 98.53125 120.75 98.554688 C 120.925781 98.582031 121.09375 98.648438 121.246094 98.742188 C 121.015625 98.460938 120.738281 98.242188 120.429688 98.113281 C 120.09375 98.128906 119.761719 98.238281 119.441406 98.421875 C 118.492188 98.984375 117.683594 100.253906 117.410156 101.820312 C 117.132812 103.386719 117.453125 104.855469 118.160156 105.707031 C 118.390625 105.996094 118.667969 106.210938 118.980469 106.339844 C 119.316406 106.324219 119.652344 106.214844 119.96875 106.027344 C 119.789062 106.0625 119.609375 106.066406 119.433594 106.035156 "/>
<path style=" stroke:none;fill-rule:evenodd;fill:rgb(5.099487%,5.099487%,5.099487%);fill-opacity:1;" d="M 123.34375 97.207031 C 123.074219 97.199219 122.546875 97.003906 122.484375 96.980469 L 122.632812 96.585938 C 122.832031 96.660156 123.203125 96.78125 123.355469 96.785156 L 123.34375 97.207031 "/>
<path style=" stroke:none;fill-rule:evenodd;fill:rgb(5.099487%,5.099487%,5.099487%);fill-opacity:1;" d="M 104.785156 90.671875 C 104.730469 90.582031 103.386719 88.464844 101.429688 88.429688 C 101.246094 87.035156 100.226562 78.0625 103.101562 73.921875 L 102.847656 73.746094 C 102.765625 73.832031 102.675781 73.90625 102.570312 73.964844 C 99.613281 78.6875 100.976562 88.261719 101.035156 88.675781 L 101.066406 88.863281 L 101.257812 88.855469 C 102.875 88.769531 104.121094 90.441406 104.382812 90.820312 C 104.304688 91.039062 104.121094 91.253906 103.972656 91.394531 C 103.515625 90.828125 102.027344 89.15625 100.9375 89.722656 C 100.019531 90.199219 100.066406 92.007812 100.109375 92.613281 C 99.90625 92.621094 99.582031 92.5 99.351562 92.375 C 99.308594 91.972656 99.21875 90.367188 100.449219 89.109375 L 100.523438 89.035156 L 100.507812 88.929688 C 100.492188 88.828125 99.164062 79.179688 102.109375 74.105469 C 102.058594 74.113281 102.003906 74.113281 101.949219 74.113281 C 101.839844 74.113281 101.734375 74.105469 101.640625 74.082031 C 100.5 76.136719 99.875 79.066406 99.78125 82.824219 C 99.707031 85.8125 100.007812 88.355469 100.078125 88.886719 C 98.59375 90.480469 98.933594 92.457031 98.953125 92.542969 L 98.96875 92.636719 L 99.046875 92.683594 C 99.164062 92.753906 99.648438 93.03125 100.078125 93.03125 C 100.207031 93.03125 100.332031 93.007812 100.441406 92.945312 L 100.558594 92.875 L 100.542969 92.742188 C 100.480469 92.125 100.460938 90.441406 101.128906 90.09375 C 101.882812 89.707031 103.234375 91.089844 103.773438 91.820312 L 103.902344 91.992188 L 104.070312 91.863281 C 104.09375 91.847656 104.695312 91.390625 104.816406 90.828125 L 104.832031 90.746094 L 104.785156 90.671875 "/>
<path style=" stroke:none;fill-rule:evenodd;fill:rgb(5.099487%,5.099487%,5.099487%);fill-opacity:1;" d="M 107.539062 95.804688 C 106.414062 92.683594 104.773438 90.773438 104.703125 90.691406 L 104.597656 90.570312 L 104.457031 90.699219 C 104.476562 90.796875 104.503906 90.90625 104.496094 91.007812 C 104.496094 91.035156 104.492188 91.058594 104.488281 91.085938 L 104.566406 91.019531 C 104.941406 91.484375 106.28125 93.246094 107.242188 95.910156 C 108.265625 98.746094 109.03125 103.167969 106.847656 108.140625 L 106.742188 108.375 L 104.859375 108.101562 L 104.957031 107.429688 L 106.332031 107.632812 L 106.378906 107.519531 C 107.910156 103.8125 107.992188 99.996094 106.621094 96.175781 C 105.726562 93.679688 104.453125 91.964844 104.070312 91.480469 C 104.058594 91.480469 104.050781 91.484375 104.039062 91.484375 C 103.933594 91.5 103.808594 91.433594 103.734375 91.359375 C 103.730469 91.351562 103.726562 91.347656 103.71875 91.339844 L 103.613281 91.429688 L 103.71875 91.546875 C 103.730469 91.566406 105.289062 93.394531 106.324219 96.285156 C 107.65625 99.988281 107.589844 103.6875 106.132812 107.285156 L 104.6875 107.074219 L 104.5 108.367188 L 106.933594 108.722656 L 107.132812 108.265625 C 109.363281 103.199219 108.585938 98.691406 107.539062 95.804688 "/>
<path style=" stroke:none;fill-rule:evenodd;fill:rgb(5.099487%,5.099487%,5.099487%);fill-opacity:1;" d="M 103.371094 108.707031 C 103.253906 108.707031 103.148438 108.652344 103.074219 108.550781 C 102.859375 108.246094 102.9375 107.527344 103.132812 107.03125 C 103.261719 106.703125 103.523438 106.5 103.835938 106.484375 C 104.09375 106.472656 104.324219 106.589844 104.417969 106.777344 C 104.472656 106.890625 104.976562 107.082031 105.390625 107.179688 L 105.320312 107.484375 C 105.082031 107.429688 104.285156 107.222656 104.136719 106.917969 C 104.105469 106.855469 103.988281 106.792969 103.851562 106.800781 C 103.738281 106.804688 103.539062 106.855469 103.421875 107.148438 C 103.230469 107.636719 103.214844 108.203125 103.332031 108.367188 C 103.351562 108.394531 103.363281 108.394531 103.375 108.390625 C 103.488281 108.386719 103.640625 108.335938 103.8125 108.28125 C 104.128906 108.179688 104.53125 108.054688 104.964844 108.117188 L 105.542969 108.203125 L 105.496094 108.515625 L 104.921875 108.429688 C 104.554688 108.375 104.214844 108.488281 103.910156 108.585938 C 103.714844 108.644531 103.546875 108.699219 103.390625 108.707031 C 103.382812 108.707031 103.378906 108.707031 103.371094 108.707031 "/>
<path style=" stroke:none;fill-rule:evenodd;fill:rgb(5.099487%,5.099487%,5.099487%);fill-opacity:1;" d="M 106.640625 106.101562 C 106.644531 106.09375 106.644531 106.082031 106.648438 106.074219 C 106.683594 105.96875 106.75 105.894531 106.828125 105.847656 C 104.082031 103.90625 102.160156 101.242188 101.113281 97.910156 C 100.191406 94.980469 100.328125 92.582031 100.328125 92.558594 L 100.339844 92.402344 L 100.199219 92.394531 C 100.199219 92.402344 100.199219 92.414062 100.199219 92.421875 C 100.183594 92.523438 100.125 92.652344 100.03125 92.707031 C 100.023438 92.710938 100.015625 92.714844 100.007812 92.71875 C 99.992188 93.335938 100.015625 95.476562 100.8125 98.003906 C 101.882812 101.402344 103.839844 104.121094 106.640625 106.101562 "/>
<path style=" stroke:none;fill-rule:evenodd;fill:rgb(5.099487%,5.099487%,5.099487%);fill-opacity:1;" d="M 108.941406 105.507812 L 107.914062 106.550781 C 107.804688 106.484375 107.695312 106.417969 107.582031 106.347656 C 107.582031 106.359375 107.582031 106.367188 107.578125 106.382812 C 107.558594 106.480469 107.542969 106.578125 107.523438 106.679688 C 107.636719 106.75 107.746094 106.820312 107.863281 106.886719 L 107.96875 106.949219 L 108.941406 105.957031 L 109.421875 106.429688 L 108.089844 107.789062 L 107.863281 107.664062 C 107.699219 107.574219 107.539062 107.480469 107.378906 107.382812 C 107.378906 107.402344 107.375 107.417969 107.367188 107.433594 L 107.289062 107.671875 C 107.421875 107.777344 107.5625 107.859375 107.710938 107.941406 L 108.144531 108.183594 L 109.871094 106.425781 L 108.941406 105.507812 "/>
<path style=" stroke:none;fill-rule:evenodd;fill:rgb(5.099487%,5.099487%,5.099487%);fill-opacity:1;" d="M 106.351562 107.050781 C 106.394531 106.96875 106.429688 106.882812 106.457031 106.792969 C 102.703125 104.203125 100.960938 100.746094 100.15625 98.171875 C 99.3125 95.464844 99.316406 93.253906 99.332031 92.652344 L 99.433594 92.660156 C 99.417969 92.640625 99.398438 92.621094 99.378906 92.601562 C 99.3125 92.527344 99.269531 92.421875 99.226562 92.332031 L 99.035156 92.316406 L 99.027344 92.476562 C 99.019531 92.582031 98.867188 95.097656 99.855469 98.265625 C 100.679688 100.902344 102.464844 104.449219 106.335938 107.089844 C 106.339844 107.078125 106.34375 107.066406 106.351562 107.050781 "/>
<path style=" stroke:none;fill-rule:evenodd;fill:rgb(5.099487%,5.099487%,5.099487%);fill-opacity:1;" d="M 110.972656 106.011719 C 111.066406 105.9375 111.117188 105.832031 111.113281 105.707031 C 111.101562 105.332031 110.605469 104.804688 110.152344 104.53125 C 109.851562 104.347656 109.519531 104.34375 109.261719 104.523438 C 109.050781 104.667969 108.9375 104.902344 108.976562 105.105469 C 108.996094 105.234375 108.714844 105.6875 108.441406 106.015625 L 108.683594 106.214844 C 108.839844 106.027344 109.347656 105.382812 109.285156 105.046875 C 109.269531 104.980469 109.328125 104.863281 109.441406 104.78125 C 109.53125 104.71875 109.722656 104.636719 109.988281 104.800781 C 110.4375 105.070312 110.792969 105.515625 110.796875 105.714844 C 110.796875 105.746094 110.789062 105.753906 110.78125 105.757812 C 110.683594 105.824219 110.539062 105.875 110.367188 105.9375 C 110.050781 106.050781 109.65625 106.191406 109.347656 106.507812 L 108.941406 106.921875 L 109.164062 107.144531 L 109.574219 106.726562 C 109.832031 106.464844 110.171875 106.34375 110.472656 106.238281 C 110.664062 106.167969 110.828125 106.109375 110.957031 106.019531 C 110.964844 106.015625 110.96875 106.015625 110.972656 106.011719 "/>
<path style=" stroke:none;fill-rule:evenodd;fill:rgb(5.099487%,5.099487%,5.099487%);fill-opacity:1;" d="M 123.972656 114.878906 C 123.972656 114.878906 125.21875 113.191406 125.898438 112.871094 C 126.574219 112.550781 127.972656 112.371094 128.589844 112.050781 C 128.265625 112.035156 125.964844 112.023438 125.757812 112.234375 C 125.640625 112.351562 125.785156 112.625 125.488281 112.769531 C 125.1875 112.917969 124.820312 113.292969 124.820312 113.292969 C 124.820312 113.292969 124.742188 113.398438 124.640625 113.464844 C 124.542969 113.53125 124.105469 114.386719 123.972656 114.878906 "/>
<path style=" stroke:none;fill-rule:evenodd;fill:rgb(5.099487%,5.099487%,5.099487%);fill-opacity:1;" d="M 124.785156 117.976562 C 124.785156 117.976562 125.71875 117.667969 126.078125 117.484375 C 126.433594 117.304688 127.054688 117.128906 127.054688 117.128906 L 126.125 118.042969 C 126.125 118.042969 125.207031 118.53125 124.785156 117.976562 "/>
<path style=" stroke:none;fill-rule:evenodd;fill:rgb(96.469116%,78.819275%,64.709473%);fill-opacity:1;" d="M 68.792969 120.410156 C 68.792969 120.410156 66.589844 116.292969 66.296875 115.113281 C 66.003906 113.933594 65.761719 111.886719 65.378906 111.296875 C 64.996094 110.707031 63.984375 110.375 64.171875 109.34375 C 64.359375 108.304688 66.261719 105.53125 66.703125 105.125 C 67.144531 104.714844 65.988281 102.089844 65.683594 101.574219 C 65.378906 101.054688 64.492188 100.503906 64.699219 99.710938 C 64.910156 98.914062 65.597656 97.308594 65.722656 97.269531 C 65.847656 97.226562 66.675781 96.644531 66.675781 96.644531 L 68.238281 103.363281 L 75.4375 101.207031 C 75.4375 101.207031 76.753906 102.410156 76.636719 103.398438 C 76.515625 104.382812 76.246094 104.398438 76.046875 104.558594 C 75.84375 104.722656 71.304688 106.65625 71.304688 106.65625 C 71.304688 106.65625 69.566406 108.570312 68.945312 109.925781 L 70.808594 108.941406 L 76.769531 109.09375 C 76.769531 109.09375 77.507812 109.667969 77.503906 110.261719 C 77.503906 110.851562 77.210938 112.164062 77.210938 112.164062 L 76.570312 112.605469 C 76.570312 112.605469 77.585938 113.578125 77.410156 114.347656 C 77.234375 115.121094 76.246094 115.972656 76.246094 115.972656 L 72.578125 117.800781 L 71.902344 118.167969 L 73.222656 118.402344 C 73.222656 118.402344 74.113281 118.390625 74.132812 118.335938 C 74.15625 118.28125 75.988281 117.882812 76.433594 118.039062 C 76.882812 118.195312 77.703125 119.179688 77.320312 119.765625 C 76.933594 120.359375 75.816406 120.71875 75.816406 120.71875 L 72.171875 121.636719 L 68.792969 120.410156 "/>
<path style=" stroke:none;fill-rule:evenodd;fill:rgb(5.099487%,5.099487%,5.099487%);fill-opacity:1;" d="M 66.339844 105.371094 C 66.335938 105.339844 65.582031 102 64.777344 100.777344 C 64.3125 100.070312 64.28125 99.09375 64.683594 98.160156 C 65.125 97.148438 65.960938 96.425781 66.859375 96.269531 L 67.015625 97.191406 C 66.429688 97.289062 65.851562 97.816406 65.539062 98.53125 C 65.261719 99.175781 65.265625 99.824219 65.554688 100.261719 C 66.453125 101.632812 67.21875 105.023438 67.253906 105.167969 L 66.339844 105.371094 "/>
<path style=" stroke:none;fill-rule:evenodd;fill:rgb(82.749939%,83.139038%,83.139038%);fill-opacity:1;" d="M 70.265625 87.191406 L 72.109375 89.402344 L 87.945312 86.082031 L 88.621094 83.023438 L 70.265625 87.191406 "/>
<path style=" stroke:none;fill-rule:evenodd;fill:rgb(82.749939%,57.249451%,29.798889%);fill-opacity:1;" d="M 70.265625 87.191406 L 72.148438 89.542969 L 87.945312 86.082031 L 88.761719 83.046875 L 93.394531 82.257812 C 93.394531 82.257812 93.992188 82.382812 94.082031 82.777344 C 94.167969 83.175781 102.476562 122.765625 102.476562 122.765625 C 102.476562 122.765625 102.394531 123.695312 101.476562 123.90625 C 100.5625 124.125 74.390625 129.503906 74.390625 129.503906 C 74.390625 129.503906 73.613281 129.5625 73.4375 128.765625 C 73.265625 127.972656 71.972656 121.566406 71.972656 121.566406 L 76.976562 120.558594 C 76.976562 120.558594 77.433594 119.929688 77.410156 119.53125 C 77.289062 117.382812 74.734375 118.050781 73.394531 118.398438 L 72.445312 117.515625 L 77.074219 115.390625 C 77.074219 115.390625 77.734375 114.753906 77.519531 114.011719 C 77.308594 113.269531 76.570312 112.605469 76.570312 112.605469 C 76.570312 112.605469 77.871094 110.757812 77.710938 110.261719 C 77.550781 109.765625 77.410156 109.019531 77.199219 109.160156 C 76.992188 109.296875 73.464844 109.007812 73.464844 109.007812 L 70.886719 109.09375 L 68.753906 110.21875 C 68.753906 110.21875 71.257812 106.714844 71.804688 106.441406 C 72.351562 106.164062 76.414062 104.671875 76.605469 104.179688 C 76.796875 103.6875 75.6875 101.128906 75.277344 101.253906 C 74.863281 101.378906 68.203125 103.210938 68.203125 103.210938 L 65.085938 88.492188 C 65.085938 88.492188 65.230469 88.128906 65.667969 87.960938 C 66.105469 87.792969 70.265625 87.191406 70.265625 87.191406 "/>
<path style=" stroke:none;fill-rule:evenodd;fill:rgb(73.329163%,45.878601%,22.349548%);fill-opacity:1;" d="M 96.714844 95.320312 C 96.714844 95.320312 96.796875 113.316406 77.15625 115.1875 L 72.726562 117.730469 L 70.519531 117.171875 C 70.519531 117.171875 72.402344 118.488281 73.824219 118.289062 C 75.246094 118.085938 77.375 117.929688 77.175781 119.246094 C 76.976562 120.558594 77.074219 120.40625 75.3125 120.847656 L 72.449219 121.675781 L 71.699219 121.464844 L 73.4375 128.765625 C 73.4375 128.765625 73.5 129.6875 74.988281 129.378906 C 76.472656 129.074219 101.476562 123.90625 101.476562 123.90625 C 101.476562 123.90625 102.667969 123.675781 102.476562 122.765625 C 102.285156 121.851562 96.714844 95.320312 96.714844 95.320312 "/>
<path style=" stroke:none;fill-rule:evenodd;fill:rgb(5.099487%,5.099487%,5.099487%);fill-opacity:1;" d="M 102.882812 122.390625 L 94.535156 82.769531 C 94.410156 82.179688 93.929688 81.726562 93.339844 81.636719 C 93.167969 81.609375 92.992188 81.613281 92.820312 81.648438 L 65.742188 87.371094 C 65.363281 87.453125 65.042969 87.675781 64.832031 88 C 64.621094 88.320312 64.546875 88.710938 64.628906 89.085938 L 67.800781 104.144531 C 68.027344 103.863281 68.300781 103.621094 68.601562 103.421875 L 65.539062 88.894531 C 65.511719 88.761719 65.539062 88.625 65.613281 88.507812 C 65.6875 88.394531 65.800781 88.316406 65.9375 88.285156 L 93.015625 82.566406 C 93.074219 82.550781 93.136719 82.550781 93.199219 82.558594 C 93.40625 82.589844 93.578125 82.75 93.621094 82.960938 L 101.972656 122.585938 C 102 122.722656 101.976562 122.859375 101.898438 122.972656 C 101.824219 123.089844 101.710938 123.167969 101.574219 123.195312 L 74.5 128.917969 C 74.4375 128.933594 74.375 128.933594 74.316406 128.921875 C 74.101562 128.890625 73.933594 128.730469 73.890625 128.523438 L 72.394531 121.410156 C 72.054688 121.449219 71.699219 121.402344 71.402344 121.242188 L 72.980469 128.714844 C 73.101562 129.300781 73.582031 129.757812 74.171875 129.847656 C 74.347656 129.871094 74.519531 129.867188 74.691406 129.832031 L 101.769531 124.109375 C 102.148438 124.03125 102.46875 123.808594 102.679688 123.484375 C 102.894531 123.160156 102.964844 122.773438 102.882812 122.390625 "/>
<path style=" stroke:none;fill-rule:evenodd;fill:rgb(5.099487%,5.099487%,5.099487%);fill-opacity:1;" d="M 71.855469 89.789062 L 69.957031 87.074219 L 70.433594 86.738281 L 72.109375 89.140625 L 87.710938 85.84375 L 88.277344 82.96875 L 88.847656 83.082031 L 88.207031 86.335938 L 71.855469 89.789062 "/>
<path style=" stroke:none;fill-rule:evenodd;fill:rgb(5.099487%,5.099487%,5.099487%);fill-opacity:1;" d="M 77.921875 114.242188 C 77.953125 113.4375 77.488281 112.871094 77.105469 112.546875 C 77.492188 112.046875 78.058594 111.171875 78.050781 110.316406 C 78.035156 109.1875 77.171875 108.671875 76.71875 108.558594 L 76.675781 108.546875 L 76.632812 108.546875 C 76.453125 108.53125 72.175781 108.277344 70.972656 108.523438 C 70.40625 108.636719 69.402344 109.242188 68.445312 109.890625 C 67.285156 110.765625 66.652344 112.347656 66.652344 112.347656 C 67.992188 111.304688 70.394531 109.59375 71.160156 109.4375 C 72.046875 109.253906 75.277344 109.398438 76.519531 109.472656 C 76.660156 109.519531 77.109375 109.726562 77.117188 110.332031 C 77.125 111.050781 76.371094 112.003906 76.078125 112.3125 L 75.65625 112.761719 L 76.203125 113.046875 C 76.210938 113.050781 77.019531 113.484375 76.992188 114.207031 C 76.957031 115.132812 76.15625 115.402344 76.121094 115.414062 C 75.765625 115.53125 73.386719 116.667969 72.640625 117.023438 L 68.539062 116.398438 C 68.539062 116.398438 70.003906 117.566406 71.394531 117.777344 L 72.785156 117.992188 L 72.914062 117.929688 C 74.441406 117.195312 76.1875 116.371094 76.410156 116.300781 C 76.949219 116.125 77.875 115.496094 77.921875 114.242188 "/>
<g clip-path="url(#clip3)" clip-rule="nonzero">
<path style=" stroke:none;fill-rule:evenodd;fill:rgb(5.099487%,5.099487%,5.099487%);fill-opacity:1;" d="M 77.796875 118.945312 C 77.242188 117.46875 75.921875 117.113281 73.648438 117.828125 C 73.191406 117.808594 70.773438 117.636719 69.683594 116.648438 L 69.390625 116.976562 C 69.390625 116.976562 70.964844 118.382812 73.699219 118.765625 L 73.777344 118.769531 L 73.855469 118.742188 C 76.417969 117.917969 76.734375 118.765625 76.925781 119.273438 C 77.085938 119.703125 76.507812 120.058594 76.371094 120.136719 C 75.011719 120.53125 72.683594 121.105469 72.027344 121.003906 C 71.152344 120.871094 69.941406 120.4375 69.078125 120.148438 C 68.710938 119.546875 67.164062 116.808594 65.808594 111.515625 C 65.660156 111.03125 65.304688 110.292969 64.980469 109.921875 C 64.71875 109.617188 64.515625 108.546875 64.933594 107.933594 C 65.328125 107.34375 67.371094 105.015625 68.472656 103.773438 C 69.328125 103.535156 74.117188 102.191406 75.308594 101.84375 C 75.5 101.90625 76 102.171875 76.140625 103.21875 C 76.28125 104.265625 75.175781 104.710938 72.445312 105.707031 C 72.019531 105.859375 71.566406 106.023438 71.082031 106.207031 L 70.980469 106.246094 L 70.910156 106.324219 C 70.847656 106.390625 69.378906 107.949219 68.609375 109.410156 L 68.011719 110.597656 L 68.164062 110.675781 C 68.589844 110.269531 69.101562 109.898438 69.585938 109.570312 C 70.222656 108.480469 71.238281 107.34375 71.515625 107.042969 C 71.953125 106.878906 72.371094 106.726562 72.765625 106.582031 C 74.132812 106.082031 75.21875 105.691406 75.945312 105.21875 C 76.5 104.863281 77.21875 104.253906 77.0625 103.09375 C 76.929688 102.074219 76.371094 100.996094 75.25 100.886719 C 72.824219 101.601562 70.390625 102.265625 67.957031 102.949219 C 66.777344 104.269531 65.117188 105.992188 64.160156 107.410156 C 63.53125 108.335938 63.707031 109.878906 64.273438 110.53125 C 64.546875 110.84375 64.816406 111.515625 64.910156 111.769531 C 65.613281 114.507812 66.859375 118.535156 68.472656 120.933594 C 69.527344 121.289062 70.761719 121.722656 71.839844 121.921875 C 72.648438 122.058594 75.875 121.289062 76.753906 120.988281 C 77.28125 120.726562 78.179688 119.960938 77.796875 118.945312 "/>
</g>
<path style=" stroke:none;fill-rule:evenodd;fill:rgb(5.099487%,5.099487%,5.099487%);fill-opacity:1;" d="M 72.367188 112.855469 C 72.367188 112.855469 69.570312 113.386719 68.589844 113.949219 C 68.589844 113.949219 70.800781 114.070312 72.214844 113.828125 L 76.496094 113.09375 L 76.339844 112.171875 L 72.367188 112.855469 "/>
<path style=" stroke:none;fill-rule:evenodd;fill:rgb(59.609985%,30.589294%,18.429565%);fill-opacity:1;" d="M 96.378906 53.96875 C 96.378906 53.96875 95.066406 43.621094 95.386719 42.382812 C 95.703125 41.144531 97.378906 38.785156 97.378906 38.785156 C 97.378906 38.785156 95.386719 35.910156 95.902344 32.910156 L 97.378906 34.269531 C 97.378906 34.269531 96.703125 32.871094 97.859375 29.753906 C 99.015625 26.640625 101.210938 23.320312 101.210938 23.320312 C 101.210938 23.320312 105.242188 26.160156 108.59375 26.398438 C 111.945312 26.640625 114.9375 27.835938 116.054688 28.238281 C 117.171875 28.636719 118.25 29.273438 118.25 29.273438 L 118.089844 26.558594 C 118.089844 26.558594 122.597656 28.476562 124.554688 31.394531 C 126.507812 34.3125 127.507812 37.308594 127.507812 37.308594 L 129.105469 34.949219 C 129.105469 34.949219 129.832031 36.148438 129.425781 36.828125 C 129.023438 37.507812 127.984375 38.644531 127.984375 38.644531 C 127.984375 38.644531 129.941406 41.023438 130.101562 42.382812 C 130.257812 43.742188 129.222656 53.96875 129.222656 53.96875 C 129.222656 53.96875 127.070312 54.488281 126.191406 56.726562 L 99.417969 57.207031 C 99.417969 57.207031 97.292969 54 96.378906 53.96875 "/>
<path style=" stroke:none;fill-rule:evenodd;fill:rgb(96.469116%,78.819275%,64.709473%);fill-opacity:1;" d="M 100.242188 44.648438 C 100.242188 44.648438 101.410156 45.820312 100.929688 47.496094 C 100.453125 49.175781 99.417969 53.292969 99.417969 54.570312 C 99.417969 55.847656 99.417969 57.207031 99.417969 57.207031 C 99.417969 57.207031 96.960938 53.160156 95.898438 54.105469 C 94.839844 55.054688 94.945312 57.605469 95.542969 58.847656 C 96.144531 60.082031 100.214844 65.148438 100.214844 65.148438 C 100.214844 65.148438 100.9375 68.777344 102.382812 70.136719 C 103.828125 71.496094 106.023438 72.804688 106.71875 73.605469 C 107.417969 74.402344 107.234375 75.191406 109.628906 76.066406 C 112.027344 76.945312 116.574219 76.507812 117.570312 75.308594 C 118.570312 74.109375 120.125 72.625 122.082031 71.429688 C 124.035156 70.234375 125.363281 66.0625 125.433594 64.820312 C 125.433594 64.820312 130.535156 59.660156 130.371094 57.300781 C 130.273438 55.835938 130.328125 54.160156 129.414062 54.070312 C 128.855469 54.015625 127.835938 54.316406 126.507812 56.246094 L 126.121094 57.042969 C 126.121094 57.042969 126.03125 52.003906 125.433594 50.128906 C 124.832031 48.257812 124.316406 47.136719 124.554688 46.296875 C 124.792969 45.457031 125.03125 44.660156 125.03125 44.660156 L 124.085938 44.339844 L 124.964844 43.433594 C 124.964844 43.433594 122.484375 42.761719 119.503906 44.179688 C 116.234375 45.734375 113.09375 45.613281 111.574219 45.535156 C 110.058594 45.453125 105.519531 44.097656 104.402344 43.660156 C 103.285156 43.222656 101.011719 42.882812 100.492188 43.273438 L 101.53125 44.378906 L 100.242188 44.648438 "/>
<path style=" stroke:none;fill-rule:evenodd;fill:rgb(41.178894%,17.248535%,11.369324%);fill-opacity:1;" d="M 129.214844 40.941406 C 129.214844 40.941406 128.945312 42.652344 127.804688 43.28125 L 127.804688 42.5 C 127.804688 42.5 126.191406 43.519531 124.902344 43.761719 L 124.085938 44.339844 L 125.03125 44.660156 C 125.03125 44.660156 124.203125 46.136719 124.570312 47.394531 C 124.941406 48.652344 126.011719 51.824219 126.070312 52.960938 C 126.132812 54.101562 126.101562 57.007812 126.101562 57.007812 C 126.101562 57.007812 127.46875 55.007812 128.34375 54.488281 C 129.222656 53.96875 129.425781 53.917969 129.425781 53.917969 C 129.425781 53.917969 129.929688 46.34375 130.007812 45.140625 C 130.082031 43.9375 130.167969 42.714844 130.101562 42.382812 C 130.03125 42.046875 129.421875 40.914062 129.214844 40.941406 "/>
<path style=" stroke:none;fill-rule:evenodd;fill:rgb(41.178894%,17.248535%,11.369324%);fill-opacity:1;" d="M 96.246094 40.941406 C 96.246094 40.941406 96.515625 42.652344 97.652344 43.28125 L 97.652344 42.5 C 97.652344 42.5 99.269531 43.519531 100.558594 43.761719 L 101.375 44.339844 L 100.425781 44.660156 C 100.425781 44.660156 101.257812 46.136719 100.890625 47.394531 C 100.519531 48.652344 99.449219 51.824219 99.390625 52.960938 C 99.328125 54.101562 99.359375 57.007812 99.359375 57.007812 C 99.359375 57.007812 97.992188 55.007812 97.117188 54.488281 C 96.238281 53.96875 96.035156 53.917969 96.035156 53.917969 C 96.035156 53.917969 95.527344 46.34375 95.453125 45.140625 C 95.378906 43.9375 95.292969 42.714844 95.359375 42.382812 C 95.429688 42.046875 96.039062 40.914062 96.246094 40.941406 "/>
<path style=" stroke:none;fill-rule:evenodd;fill:rgb(87.838745%,49.01886%,26.669312%);fill-opacity:1;" d="M 95.824219 34.234375 C 95.824219 34.234375 95.902344 38.726562 100.332031 39.746094 C 100.332031 39.746094 98.019531 38.265625 97.699219 36.269531 C 97.699219 36.269531 100.011719 39.167969 106.097656 40.261719 C 106.097656 40.261719 93.507812 37.105469 101.292969 23.859375 L 101.210938 23.320312 C 101.210938 23.320312 99.832031 25.339844 98.960938 27.257812 C 98.085938 29.171875 97.324219 31.074219 97.253906 32.050781 C 97.183594 33.03125 97.378906 34.269531 97.378906 34.269531 L 95.902344 32.910156 C 95.902344 32.910156 95.726562 33.429688 95.824219 34.234375 "/>
<path style=" stroke:none;fill-rule:evenodd;fill:rgb(87.838745%,49.01886%,26.669312%);fill-opacity:1;" d="M 101.375 25.421875 C 101.375 25.421875 100.332031 39.105469 116.132812 40.261719 C 116.132812 40.261719 115.59375 32.550781 109.730469 29.132812 C 109.730469 29.132812 114.039062 33.269531 114.699219 38.726562 C 114.699219 38.726562 102.65625 36.929688 101.375 25.421875 "/>
<path style=" stroke:none;fill-rule:evenodd;fill:rgb(84.309387%,58.428955%,47.839355%);fill-opacity:1;" d="M 114.59375 62.109375 C 114.683594 62.066406 114.785156 62.195312 114.640625 62.457031 C 114.570312 62.585938 113.25 63.628906 112.75 63.640625 C 112.492188 63.644531 111.925781 63.304688 111.625 63.066406 C 111.238281 62.757812 111.011719 62.570312 110.914062 62.457031 C 110.691406 62.019531 111.15625 62.269531 111.15625 62.269531 C 111.15625 62.269531 111.445312 62.34375 111.675781 62.457031 C 111.726562 62.480469 111.78125 62.507812 111.820312 62.539062 C 111.910156 62.648438 111.988281 62.765625 112.175781 62.863281 C 112.585938 63.078125 113.039062 63.054688 113.445312 62.839844 C 113.578125 62.769531 113.640625 62.640625 113.734375 62.539062 C 113.773438 62.511719 113.832031 62.480469 113.878906 62.457031 C 114.101562 62.34375 114.59375 62.109375 114.59375 62.109375 "/>
<path style=" stroke:none;fill-rule:evenodd;fill:rgb(84.309387%,58.428955%,47.839355%);fill-opacity:1;" d="M 124.15625 44.222656 C 124.175781 44.140625 124.8125 43.519531 124.8125 43.519531 L 124.792969 43.222656 C 124.792969 43.222656 122.917969 43.019531 122.417969 43.101562 C 121.921875 43.179688 117.59375 44.863281 116.871094 45.050781 C 116.15625 45.238281 113.71875 45.648438 113.71875 45.648438 L 112.941406 45.648438 L 112.941406 45.683594 C 112.765625 45.671875 112.582031 45.664062 112.460938 45.648438 C 112.183594 45.617188 111.683594 45.648438 111.683594 45.648438 C 111.683594 45.648438 109.25 45.238281 108.53125 45.050781 C 107.8125 44.863281 103.484375 43.179688 102.984375 43.101562 C 102.484375 43.019531 100.609375 43.222656 100.609375 43.222656 L 100.589844 43.519531 C 100.589844 43.519531 101.230469 44.140625 101.246094 44.222656 C 101.269531 44.300781 100.050781 44.578125 100.484375 44.882812 C 100.914062 45.1875 103.484375 44.820312 103.484375 44.820312 L 102.945312 44.359375 C 102.945312 44.359375 104.023438 44.421875 106.496094 45.71875 C 108.972656 47.015625 112.460938 47.015625 112.460938 47.015625 L 112.941406 47.015625 C 112.941406 47.015625 116.433594 47.015625 118.90625 45.71875 C 121.382812 44.421875 122.457031 44.359375 122.457031 44.359375 L 121.921875 44.820312 C 121.921875 44.820312 124.488281 45.1875 124.921875 44.882812 C 125.351562 44.578125 124.132812 44.300781 124.15625 44.222656 "/>
<path style=" stroke:none;fill-rule:evenodd;fill:rgb(5.099487%,5.099487%,5.099487%);fill-opacity:1;" d="M 99.859375 58.042969 C 99.90625 57.871094 99.898438 57.722656 99.898438 57.722656 C 99.476562 53.105469 100.515625 50.070312 101.042969 48.519531 C 101.109375 48.332031 101.164062 48.167969 101.210938 48.023438 C 101.582031 46.867188 101.203125 45.644531 100.925781 44.992188 L 102.695312 44.503906 L 101.277344 43.539062 C 102.011719 43.421875 103.304688 43.4375 105.191406 44.265625 C 110.472656 46.585938 115.089844 46.585938 120.375 44.265625 C 122.257812 43.4375 123.554688 43.421875 124.285156 43.539062 L 122.871094 44.503906 L 124.636719 44.992188 C 124.363281 45.644531 123.984375 46.867188 124.355469 48.023438 C 124.398438 48.167969 124.457031 48.332031 124.519531 48.519531 C 125.054688 50.070312 126.09375 53.105469 125.667969 57.722656 C 125.667969 57.722656 125.664062 57.871094 125.707031 58.046875 C 125.65625 58.652344 125.753906 59.023438 125.753906 59.023438 L 126.417969 57.582031 C 127.253906 55.78125 128.835938 54.367188 129.246094 54.425781 C 129.789062 54.496094 130.246094 55.546875 129.964844 57.671875 C 129.734375 59.429688 126.378906 63.378906 125.105469 64.753906 L 125.019531 64.847656 L 124.996094 64.96875 C 124.195312 69.738281 121.570312 71.277344 120.308594 72.019531 C 120.210938 72.074219 120.121094 72.128906 120.046875 72.175781 C 118.867188 72.894531 118.019531 73.90625 117.183594 74.96875 C 115.972656 76.503906 109.59375 76.503906 108.382812 74.96875 C 107.546875 73.90625 106.695312 72.894531 105.519531 72.175781 C 105.441406 72.128906 105.355469 72.074219 105.257812 72.019531 C 103.996094 71.277344 101.371094 69.738281 100.566406 64.96875 L 100.542969 64.847656 L 100.460938 64.753906 C 99.1875 63.378906 95.832031 59.429688 95.601562 57.671875 C 95.320312 55.546875 95.777344 54.496094 96.320312 54.425781 C 96.730469 54.367188 98.308594 55.78125 99.148438 57.582031 C 99.148438 57.582031 99.8125 59.023438 99.8125 59.023438 C 99.8125 59.023438 99.910156 58.652344 99.859375 58.042969 Z M 129.355469 53.59375 C 128.640625 53.496094 127.523438 54.371094 126.605469 55.621094 C 126.613281 52.035156 125.777344 49.597656 125.3125 48.246094 C 125.25 48.066406 125.199219 47.90625 125.152344 47.769531 C 124.738281 46.46875 125.589844 44.941406 125.597656 44.925781 L 125.863281 44.457031 L 124.839844 44.175781 L 125.996094 43.386719 L 125.457031 43.046875 C 125.382812 43 123.609375 41.925781 120.035156 43.496094 C 115.015625 45.703125 110.550781 45.703125 105.527344 43.496094 C 101.957031 41.925781 100.183594 43 100.109375 43.046875 L 99.566406 43.386719 L 100.726562 44.175781 L 99.703125 44.457031 L 99.96875 44.925781 C 99.976562 44.941406 100.828125 46.46875 100.414062 47.769531 C 100.371094 47.90625 100.316406 48.066406 100.253906 48.246094 C 99.789062 49.597656 98.953125 52.035156 98.960938 55.621094 C 98.042969 54.371094 96.925781 53.496094 96.207031 53.59375 C 94.984375 53.757812 94.445312 55.324219 94.769531 57.78125 C 95.0625 60.015625 99.101562 64.507812 99.761719 65.230469 C 100.65625 70.289062 103.578125 72.003906 104.832031 72.742188 C 104.925781 72.796875 105.007812 72.84375 105.082031 72.890625 C 106.046875 73.480469 106.757812 74.257812 107.726562 75.488281 C 109.277344 77.460938 116.289062 77.457031 117.839844 75.488281 C 118.808594 74.257812 119.519531 73.480469 120.484375 72.890625 C 120.558594 72.84375 120.640625 72.796875 120.730469 72.742188 C 121.984375 72.003906 124.910156 70.289062 125.804688 65.230469 C 126.464844 64.507812 130.503906 60.015625 130.796875 57.78125 C 131.117188 55.324219 130.582031 53.757812 129.355469 53.59375 "/>
<g clip-path="url(#clip4)" clip-rule="nonzero">
<path style=" stroke:none;fill-rule:evenodd;fill:rgb(5.099487%,5.099487%,5.099487%);fill-opacity:1;" d="M 128.808594 54.226562 C 128.878906 54.179688 128.949219 54.128906 129.019531 54.082031 C 129.222656 53.945312 129.480469 53.996094 129.660156 54.144531 C 130.015625 51.007812 130.636719 44.277344 130.527344 42.617188 C 130.429688 41.0625 129.1875 39.328125 128.640625 38.636719 C 129.097656 38.164062 129.871094 37.261719 129.871094 36.566406 C 129.871094 35.765625 129.515625 34.550781 129.5 34.5 L 129.226562 33.566406 L 127.675781 36.230469 C 127.476562 35.453125 127.101562 34.339844 126.40625 33.101562 C 125.210938 30.972656 122.792969 28.046875 118.082031 26.207031 L 117.390625 25.9375 L 117.847656 28.582031 C 116.46875 27.890625 113.355469 26.511719 109.453125 25.941406 C 104.457031 25.210938 101.546875 22.859375 101.515625 22.839844 L 101.167969 22.546875 L 100.90625 22.921875 C 100.71875 23.191406 96.714844 28.980469 96.867188 33.109375 C 96.597656 32.820312 96.316406 32.5 96.082031 32.183594 L 95.34375 31.179688 L 95.328125 32.425781 C 95.324219 32.609375 95.289062 36.671875 96.933594 38.625 C 96.394531 39.308594 95.140625 41.054688 95.035156 42.617188 C 94.929688 44.269531 95.542969 50.957031 95.898438 54.105469 C 96 54.070312 96.109375 54.066406 96.210938 54.105469 C 96.40625 54.179688 96.59375 54.261719 96.773438 54.363281 C 96.414062 51.328125 95.769531 44.246094 95.875 42.671875 C 95.980469 41.003906 97.632812 39.101562 97.648438 39.082031 C 97.820312 39.175781 98.386719 39.375 99.253906 39.398438 C 98.394531 38.941406 97.925781 38.507812 97.554688 38.066406 C 96.632812 36.957031 96.320312 34.933594 96.214844 33.640625 C 96.726562 34.183594 97.179688 34.597656 97.210938 34.621094 L 98.378906 35.671875 L 97.886719 34.179688 C 96.839844 30.988281 100.378906 25.25 101.351562 23.761719 C 102.308594 24.4375 105.074219 26.148438 109.332031 26.773438 C 114.371094 27.511719 118.160156 29.695312 118.199219 29.71875 L 118.976562 30.171875 L 118.472656 27.273438 C 122.480469 29.019531 124.585938 31.585938 125.652344 33.476562 C 126.882812 35.644531 127.058594 37.425781 127.058594 37.445312 L 127.175781 38.757812 L 128.933594 35.734375 C 128.992188 36.023438 129.035156 36.324219 129.035156 36.566406 C 129.035156 36.917969 128.386719 37.738281 127.789062 38.300781 L 127.492188 38.574219 L 127.757812 38.882812 C 127.777344 38.902344 129.582031 40.996094 129.691406 42.671875 C 129.792969 44.222656 129.167969 51.121094 128.808594 54.226562 "/>
</g>
<path style=" stroke:none;fill-rule:evenodd;fill:rgb(5.099487%,5.099487%,5.099487%);fill-opacity:1;" d="M 116.789062 51.34375 C 116.789062 51.34375 118.164062 48.945312 119.8125 48.914062 C 121.457031 48.886719 122.144531 50.953125 122.144531 50.953125 C 122.144531 50.953125 119.570312 48.707031 116.789062 51.34375 "/>
<path style=" stroke:none;fill-rule:evenodd;fill:rgb(5.099487%,5.099487%,5.099487%);fill-opacity:1;" d="M 118.886719 57.855469 C 118.886719 58.832031 118.4375 59.625 117.886719 59.625 C 117.335938 59.625 116.890625 58.832031 116.890625 57.855469 C 116.890625 56.878906 117.335938 56.085938 117.886719 56.085938 C 118.4375 56.085938 118.886719 56.878906 118.886719 57.855469 "/>
<path style=" stroke:none;fill-rule:evenodd;fill:rgb(5.099487%,5.099487%,5.099487%);fill-opacity:1;" d="M 108.777344 51.34375 C 108.777344 51.34375 107.398438 48.945312 105.753906 48.914062 C 104.109375 48.886719 103.417969 50.953125 103.417969 50.953125 C 103.417969 50.953125 105.992188 48.707031 108.777344 51.34375 "/>
<path style=" stroke:none;fill-rule:evenodd;fill:rgb(5.099487%,5.099487%,5.099487%);fill-opacity:1;" d="M 104.046875 57.855469 C 104.046875 58.832031 104.496094 59.625 105.046875 59.625 C 105.597656 59.625 106.042969 58.832031 106.042969 57.855469 C 106.042969 56.878906 105.597656 56.085938 105.046875 56.085938 C 104.496094 56.085938 104.046875 56.878906 104.046875 57.855469 "/>
<path style=" stroke:none;fill-rule:evenodd;fill:rgb(5.099487%,5.099487%,5.099487%);fill-opacity:1;" d="M 124.992188 57.335938 C 124.644531 59.40625 123.535156 60.367188 119.730469 60.335938 C 115.929688 60.308594 115.4375 58.507812 114.882812 56.492188 C 114.851562 56.378906 114.824219 56.269531 114.800781 56.164062 C 114.679688 55.285156 115.199219 55.050781 115.292969 55.015625 C 116.832031 54.472656 120.121094 53.675781 124.59375 54.636719 C 124.777344 54.6875 125.136719 54.855469 125.210938 55.390625 C 125.230469 56.035156 125.097656 56.714844 124.992188 57.335938 Z M 110.855469 56.132812 C 110.828125 56.238281 110.800781 56.347656 110.769531 56.460938 C 110.175781 58.464844 109.660156 60.257812 105.859375 60.230469 C 102.054688 60.203125 100.957031 59.222656 100.644531 57.148438 C 100.550781 56.527344 100.425781 55.84375 100.457031 55.203125 C 100.539062 54.667969 100.902344 54.503906 101.082031 54.453125 C 105.570312 53.5625 108.847656 54.410156 110.378906 54.980469 C 110.472656 55.015625 110.988281 55.257812 110.855469 56.132812 Z M 126.917969 53.476562 C 126.875 52.816406 126.996094 52.398438 126.363281 52.296875 C 125.726562 52.195312 123.164062 51.976562 120.257812 51.980469 C 118.382812 51.984375 116.785156 52.347656 115.265625 52.839844 C 114.308594 53.152344 113.542969 53.109375 112.878906 53.101562 C 112.160156 53.097656 111.390625 53.128906 110.4375 52.804688 C 108.929688 52.285156 107.335938 51.898438 105.464844 51.867188 C 102.554688 51.820312 99.988281 51.996094 99.351562 52.089844 C 98.71875 52.183594 98.835938 52.597656 98.78125 53.261719 C 98.726562 53.917969 98.820312 54.410156 99.285156 54.734375 C 99.746094 55.050781 99.390625 56.542969 100.058594 58.601562 C 100.726562 60.664062 102.996094 60.875 105.367188 60.992188 C 106.355469 61.042969 107.316406 61.011719 108.171875 60.796875 C 108.226562 60.785156 108.277344 60.773438 108.324219 60.757812 C 108.550781 60.675781 108.960938 60.53125 109.320312 60.34375 C 109.367188 60.324219 109.40625 60.300781 109.445312 60.277344 C 109.597656 60.191406 109.734375 60.097656 109.832031 60.003906 C 110.261719 59.652344 110.617188 59.1875 110.867188 58.582031 C 111.546875 56.957031 111.882812 55.179688 112.835938 55.109375 C 113.785156 55.195312 114.097656 56.976562 114.75 58.609375 C 115.628906 60.8125 117.839844 61.1875 120.210938 61.105469 C 122.582031 61.027344 124.855469 60.847656 125.554688 58.800781 C 126.257812 56.75 125.925781 55.253906 126.390625 54.941406 C 126.859375 54.625 126.960938 54.136719 126.917969 53.476562 "/>
<path style=" stroke:none;fill-rule:evenodd;fill:rgb(5.099487%,5.099487%,5.099487%);fill-opacity:1;" d="M 118.824219 66.277344 C 118.921875 65.511719 118.347656 65.0625 117.800781 65.304688 C 117.871094 65.324219 118.066406 65.460938 118.171875 65.5625 C 116.996094 66.90625 115.234375 67.492188 112.957031 67.574219 C 110.519531 67.664062 108.398438 66.871094 107.25 65.5625 C 107.351562 65.460938 107.554688 65.324219 107.625 65.304688 C 107.347656 65.179688 107.0625 65.238281 106.867188 65.414062 C 106.671875 65.59375 106.558594 65.898438 106.605469 66.277344 C 106.726562 66.050781 106.882812 65.863281 107.007812 65.757812 C 108.519531 67.4375 110.671875 68.058594 113.003906 67.992188 C 115.035156 67.9375 117.109375 67.285156 118.417969 65.757812 C 118.628906 65.929688 118.824219 66.277344 118.824219 66.277344 "/>
<path style=" stroke:none;fill-rule:evenodd;fill:rgb(5.099487%,5.099487%,5.099487%);fill-opacity:1;" d="M 111.359375 68.769531 C 111.359375 68.769531 113.042969 69.132812 114.367188 68.714844 C 113.683594 69.492188 111.980469 69.46875 111.359375 68.769531 "/>
<path style=" stroke:none;fill-rule:evenodd;fill:rgb(5.099487%,5.099487%,5.099487%);fill-opacity:1;" d="M 114.640625 62.457031 C 114.738281 62.34375 114.804688 62.050781 114.578125 62.082031 C 114.347656 62.113281 113.878906 62.457031 113.878906 62.457031 C 114.433594 62.34375 114.640625 62.457031 114.640625 62.457031 "/>
<path style=" stroke:none;fill-rule:evenodd;fill:rgb(5.099487%,5.099487%,5.099487%);fill-opacity:1;" d="M 113.734375 62.539062 C 113.199219 62.96875 112.355469 62.96875 111.820312 62.539062 C 112.183594 63.476562 113.371094 63.476562 113.734375 62.539062 "/>
<path style=" stroke:none;fill-rule:evenodd;fill:rgb(5.099487%,5.099487%,5.099487%);fill-opacity:1;" d="M 111.675781 62.457031 C 111.675781 62.457031 111.207031 62.113281 110.976562 62.082031 C 110.75 62.050781 110.816406 62.34375 110.914062 62.457031 C 110.914062 62.457031 111.125 62.34375 111.675781 62.457031 "/>
<path style=" stroke:none;fill-rule:evenodd;fill:rgb(84.309387%,58.428955%,47.839355%);fill-opacity:1;" d="M 98.523438 58.949219 C 98.523438 58.949219 97.625 56.828125 97.023438 56.367188 C 96.421875 55.902344 96.773438 58.015625 97.085938 58.808594 C 97.402344 59.601562 98.050781 61.007812 98.96875 61.324219 C 98.96875 61.324219 98.382812 59.390625 98.523438 58.949219 "/>
<path style=" stroke:none;fill-rule:evenodd;fill:rgb(5.099487%,5.099487%,5.099487%);fill-opacity:1;" d="M 99.894531 61.890625 C 99.894531 61.890625 98.808594 61.09375 98.8125 60.363281 C 98.8125 59.632812 98.566406 58.972656 98.542969 58.757812 C 98.523438 58.542969 97.179688 56.011719 96.417969 55.175781 C 96.417969 55.175781 98.039062 58.222656 98.191406 59.027344 C 98.34375 59.828125 98.113281 61.15625 99.894531 61.890625 "/>
<path style=" stroke:none;fill-rule:evenodd;fill:rgb(5.099487%,5.099487%,5.099487%);fill-opacity:1;" d="M 97.296875 56.902344 C 97.296875 56.902344 96.148438 57.078125 97.628906 60.0625 C 97.628906 60.0625 96.765625 57.304688 97.585938 57.507812 C 97.585938 57.507812 97.6875 57.042969 97.296875 56.902344 "/>
<path style=" stroke:none;fill-rule:evenodd;fill:rgb(84.309387%,58.428955%,47.839355%);fill-opacity:1;" d="M 127.078125 58.949219 C 127.078125 58.949219 127.976562 56.828125 128.574219 56.367188 C 129.175781 55.902344 128.828125 58.015625 128.511719 58.808594 C 128.195312 59.601562 127.546875 61.007812 126.628906 61.324219 C 126.628906 61.324219 127.214844 59.390625 127.078125 58.949219 "/>
<path style=" stroke:none;fill-rule:evenodd;fill:rgb(5.099487%,5.099487%,5.099487%);fill-opacity:1;" d="M 125.703125 61.890625 C 125.703125 61.890625 126.785156 61.09375 126.785156 60.363281 C 126.78125 59.632812 127.03125 58.972656 127.054688 58.757812 C 127.078125 58.542969 128.417969 56.011719 129.183594 55.175781 C 129.183594 55.175781 127.558594 58.222656 127.40625 59.027344 C 127.253906 59.828125 127.484375 61.15625 125.703125 61.890625 "/>
<path style=" stroke:none;fill-rule:evenodd;fill:rgb(5.099487%,5.099487%,5.099487%);fill-opacity:1;" d="M 128.300781 56.902344 C 128.300781 56.902344 129.453125 57.078125 127.96875 60.0625 C 127.96875 60.0625 128.832031 57.304688 128.011719 57.507812 C 128.011719 57.507812 127.910156 57.042969 128.300781 56.902344 "/>
</g>
</svg>
