<?xml version="1.0" encoding="UTF-8"?>
<svg class="person" viewBox="0 70 224.87999 2">
<defs>
<clipPath id="clip1">
  <path d="M 115 185 L 132 185 L 132 202.453125 L 115 202.453125 Z M 115 185 "/>
</clipPath>
<clipPath id="clip2">
  <path d="M 97 185 L 113 185 L 113 202.453125 L 97 202.453125 Z M 97 185 "/>
</clipPath>
</defs>
<g id="surface1">
<path style=" stroke:none;fill-rule:evenodd;fill:rgb(78.039551%,21.569824%,63.919067%);fill-opacity:1;" d="M 143.289062 97.578125 C 143.007812 97.121094 139.546875 91.863281 137.195312 87.890625 C 135.75 85.449219 134.972656 83.523438 134.867188 83.414062 C 134.1875 82.738281 130.605469 80.40625 130.605469 80.40625 C 130.628906 80.378906 123.226562 76.601562 122.585938 76.28125 C 120.109375 80.554688 117.433594 83.628906 114.207031 86.738281 C 110.976562 83.628906 107.808594 80.644531 105.824219 76.28125 C 104.472656 76.898438 95.257812 80.84375 94.164062 82.644531 C 93.117188 84.367188 91.007812 88.824219 91.007812 88.824219 C 91.007812 88.824219 91.949219 89.992188 91.796875 91.101562 C 91.644531 92.207031 90.503906 93.433594 90.503906 93.433594 L 90.296875 99.546875 C 92.308594 100.976562 93.386719 102.652344 94.511719 104.796875 L 93.566406 106.867188 L 95.425781 107.402344 L 98.222656 99.546875 C 98.28125 99.835938 99.90625 104.40625 100.597656 107.097656 C 100.894531 108.535156 99.902344 118.257812 98.816406 121.757812 C 97.304688 125.984375 95.933594 129.253906 95.660156 133.808594 L 97.296875 134.945312 C 97.296875 134.945312 96.871094 141.871094 97.238281 145.269531 C 97.605469 148.671875 98.40625 153.28125 98.652344 154.550781 C 98.898438 155.820312 99.226562 157.664062 98.734375 159.46875 C 98.242188 161.273438 97.09375 166.230469 97.871094 169.058594 C 98.652344 171.886719 100.332031 177.011719 100.742188 178.816406 C 101.25 181.054688 102.015625 183.65625 102.136719 186.152344 C 102.136719 186.152344 104.492188 187.441406 107.382812 187.136719 C 110.269531 186.828125 111.972656 185.742188 112.097656 185.167969 C 112.097656 185.167969 111.972656 174.757812 111.769531 168.484375 C 111.5625 162.214844 112.054688 152.378906 112.710938 147.335938 C 112.796875 146.679688 113.785156 140.195312 114.207031 139.824219 C 114.625 140.195312 115.613281 146.679688 115.699219 147.335938 C 116.355469 152.378906 116.847656 162.214844 116.640625 168.484375 C 116.4375 174.757812 116.3125 185.167969 116.3125 185.167969 C 116.4375 185.742188 118.140625 186.828125 121.027344 187.136719 C 123.917969 187.441406 126.273438 186.152344 126.273438 186.152344 L 126.316406 185.789062 C 126.316406 185.789062 127.257812 180.617188 127.667969 178.816406 C 128.078125 177.011719 129.757812 171.886719 130.539062 169.058594 C 131.316406 166.230469 130.167969 161.273438 129.675781 159.46875 C 129.183594 157.664062 129.511719 155.820312 129.757812 154.550781 C 130.003906 153.28125 131.03125 146.597656 131.398438 143.195312 C 131.566406 141.664062 131.523438 139.839844 131.429688 138.296875 C 130.640625 138.519531 127.429688 137.886719 126.628906 137.535156 C 125.992188 137.550781 125.898438 138.09375 125.28125 138.234375 C 124.421875 138.429688 123.023438 138.320312 123.027344 137.050781 C 121.1875 136.847656 118.730469 136.589844 116.957031 136.28125 C 116.230469 136.15625 115.707031 136.195312 115.449219 135.398438 C 115.335938 135.054688 115.449219 134.601562 115.484375 134.257812 C 116.019531 128.996094 116.871094 121.980469 117.53125 116.921875 C 117.554688 116.40625 117.992188 116.054688 118.4375 116.039062 C 118.558594 116.03125 128.402344 117.28125 128.652344 117.355469 C 127.980469 113.941406 127.378906 110.828125 127.773438 107.40625 C 127.84375 106.78125 130.121094 100.640625 130.34375 98.058594 L 132.792969 103.828125 C 136.5 103.507812 140.679688 101.667969 143.289062 97.578125 "/>
<path style=" stroke:none;fill-rule:evenodd;fill:rgb(96.859741%,59.999084%,81.959534%);fill-opacity:1;" d="M 122.070312 77.367188 C 122.070312 77.367188 130.953125 81.910156 132.21875 82.980469 C 133.082031 83.710938 133.9375 84.648438 134.351562 85.730469 C 135.378906 88.394531 142.617188 98.695312 142.617188 98.695312 L 143.453125 97.578125 L 136.402344 86.679688 C 136.402344 86.679688 135.226562 83.421875 133.277344 81.933594 C 132.71875 81.46875 122.832031 76.390625 122.832031 76.390625 L 122.070312 77.367188 "/>
<path style=" stroke:none;fill-rule:evenodd;fill:rgb(96.859741%,59.999084%,81.959534%);fill-opacity:1;" d="M 106.390625 77.429688 C 106.390625 77.429688 98.277344 81.515625 97.929688 81.660156 C 97.253906 81.945312 96.171875 82.5 95.660156 83.3125 C 94.878906 84.542969 91.929688 91.46875 91.929688 91.46875 L 91.503906 88.574219 L 94.511719 82.171875 L 105.824219 76.28125 L 106.390625 77.429688 "/>
<path style=" stroke:none;fill-rule:evenodd;fill:rgb(59.609985%,70.979309%,78.42865%);fill-opacity:1;" d="M 103.40625 186.671875 C 103.40625 186.671875 105.457031 187.488281 107.382812 187.136719 C 109.308594 186.785156 110.855469 186.058594 110.855469 186.058594 C 110.855469 186.058594 111.71875 189.894531 112.179688 193.34375 C 112.640625 196.796875 112.238281 200.476562 107.566406 201.460938 C 102.894531 202.445312 94.96875 201.460938 98.363281 196.296875 C 98.363281 196.296875 101.386719 192.546875 102.09375 190.917969 C 102.800781 189.285156 103.40625 186.671875 103.40625 186.671875 "/>
<path style=" stroke:none;fill-rule:evenodd;fill:rgb(59.609985%,70.979309%,78.42865%);fill-opacity:1;" d="M 124.921875 186.671875 C 124.921875 186.671875 122.871094 187.488281 120.945312 187.136719 C 119.019531 186.785156 117.472656 186.058594 117.472656 186.058594 C 117.472656 186.058594 116.609375 189.894531 116.148438 193.34375 C 115.691406 196.796875 116.089844 200.476562 120.761719 201.460938 C 125.433594 202.445312 133.359375 201.460938 129.96875 196.296875 C 129.96875 196.296875 126.941406 192.546875 126.234375 190.917969 C 125.527344 189.285156 124.921875 186.671875 124.921875 186.671875 "/>
<path style=" stroke:none;fill-rule:evenodd;fill:rgb(93.328857%,69.018555%,54.119873%);fill-opacity:1;" d="M 119.378906 74.3125 L 122.691406 76.441406 C 122.691406 76.441406 117.28125 84.691406 114.144531 86.679688 C 114.144531 86.679688 107.804688 80.800781 105.824219 76.28125 L 109.042969 74.128906 C 109.042969 74.128906 111.871094 75.542969 114.144531 75.421875 C 116.421875 75.296875 119.378906 74.3125 119.378906 74.3125 "/>
<path style=" stroke:none;fill-rule:evenodd;fill:rgb(93.328857%,69.018555%,54.119873%);fill-opacity:1;" d="M 113.417969 75.410156 C 113.417969 75.410156 120.03125 75.78125 123.382812 70.808594 L 126.996094 64.414062 C 126.996094 64.414062 129.890625 62.699219 130.605469 59.929688 C 131.320312 57.160156 131.277344 53.667969 128.429688 56.109375 C 128.429688 56.109375 126.789062 53.203125 124.523438 51.675781 C 122.261719 50.152344 116.476562 47.976562 114.53125 45.597656 C 112.589844 43.222656 110.535156 39.453125 110.535156 39.453125 C 110.535156 39.453125 109.269531 42.652344 107.09375 45.273438 C 104.921875 47.898438 101.734375 52.078125 101.234375 53.429688 C 100.734375 54.785156 100.480469 56.257812 100.480469 56.257812 C 100.480469 56.257812 99.144531 54.683594 97.792969 55.65625 C 96.4375 56.628906 97.496094 61.875 101.578125 64.375 C 101.578125 64.375 103.011719 73.578125 113.417969 75.410156 "/>
<path style=" stroke:none;fill-rule:evenodd;fill:rgb(24.308777%,19.219971%,17.649841%);fill-opacity:1;" d="M 100.53125 55.984375 C 100.53125 55.984375 101.515625 52.632812 102.730469 50.953125 C 103.945312 49.277344 106.871094 45.710938 107.703125 44.496094 C 108.53125 43.285156 110.703125 39.453125 110.703125 39.453125 C 110.703125 39.453125 112.210938 43.910156 115.019531 46 C 117.824219 48.089844 122.160156 50.300781 123.21875 50.90625 C 124.277344 51.515625 127.5625 55.09375 127.5625 55.09375 L 128.007812 56.484375 C 128.007812 56.484375 128.871094 55.15625 129.640625 55.273438 C 130.410156 55.394531 130.746094 55.273438 130.746094 55.273438 L 130.992188 53.035156 C 130.992188 53.035156 131.800781 46.832031 129.699219 43.265625 C 127.601562 39.699219 127.761719 39.929688 127.070312 37.878906 C 126.378906 35.824219 125.214844 29.433594 119.863281 25.988281 C 114.515625 22.546875 110.425781 27.578125 109.441406 29.957031 C 109.441406 29.957031 106.0625 26.328125 101.695312 29.371094 C 97.328125 32.414062 97.605469 41.113281 98.191406 44.125 C 98.191406 44.125 97.203125 48.613281 97.234375 50.859375 C 97.269531 53.101562 97.820312 55.746094 97.820312 55.746094 C 97.820312 55.746094 98.496094 54.867188 99.207031 55.273438 C 99.910156 55.683594 100.480469 56.625 100.480469 56.625 L 100.53125 55.984375 "/>
<path style=" stroke:none;fill-rule:evenodd;fill:rgb(75.689697%,80.389404%,82.749939%);fill-opacity:1;" d="M 123 97.105469 L 123.59375 97.382812 L 122.382812 100.742188 L 122.28125 102.390625 C 122.28125 102.390625 121.6875 104.625 120.695312 105.210938 C 119.699219 105.792969 118.4375 105.507812 118.089844 104.410156 C 117.742188 103.3125 117.539062 101.871094 117.988281 100.78125 C 118.4375 99.695312 119.667969 98.410156 120.304688 98.386719 C 120.941406 98.363281 121.175781 98.609375 121.378906 98.804688 C 121.585938 99 122.003906 99.554688 122.003906 99.554688 L 123 97.105469 "/>
<path style=" stroke:none;fill-rule:evenodd;fill:rgb(29.40979%,34.509277%,38.819885%);fill-opacity:1;" d="M 123.121094 96.5625 L 122.882812 97.105469 L 123.550781 97.300781 C 123.550781 97.300781 124.21875 95.453125 124.394531 94.625 C 124.566406 93.792969 125.335938 90.484375 125.441406 88.992188 C 125.550781 87.503906 125.566406 83.476562 125.351562 81.984375 C 125.136719 80.492188 124.75 78.433594 124.75 78.433594 C 124.75 78.433594 124.257812 76.804688 124.246094 76.867188 C 124.230469 76.925781 123.769531 77.234375 123.769531 77.234375 L 124.78125 82.109375 C 124.78125 82.109375 124.859375 85.289062 124.8125 87.179688 C 124.765625 89.070312 123.96875 94.507812 123.121094 96.5625 "/>
<path style=" stroke:none;fill-rule:evenodd;fill:rgb(75.689697%,80.389404%,82.749939%);fill-opacity:1;" d="M 107.21875 92.03125 L 106.65625 92.757812 C 106.65625 92.757812 108.039062 94.796875 108.613281 96.101562 C 109.1875 97.402344 109.761719 100.28125 109.71875 101.757812 C 109.679688 103.230469 109.175781 105.230469 109.175781 105.230469 L 109.054688 105.726562 L 108.664062 106.890625 L 107.402344 106.664062 L 107.289062 107.519531 L 109.175781 107.832031 C 109.175781 107.832031 109.472656 107.28125 109.679688 106.707031 C 109.882812 106.132812 110.261719 105.027344 110.394531 104.082031 C 110.527344 103.140625 110.691406 100.945312 110.4375 99.546875 C 110.179688 98.148438 109.738281 96.210938 108.796875 94.480469 C 107.855469 92.75 107.21875 92.03125 107.21875 92.03125 "/>
<path style=" stroke:none;fill-rule:evenodd;fill:rgb(75.689697%,80.389404%,82.749939%);fill-opacity:1;" d="M 111.0625 105.289062 L 111.695312 105.917969 L 110.363281 107.339844 L 109.441406 106.839844 C 109.441406 106.839844 106.972656 105.105469 106.050781 103.96875 C 105.128906 102.832031 103.734375 100.792969 103.015625 98.609375 C 102.300781 96.429688 102.402344 93.621094 102.402344 93.621094 L 103.191406 93.792969 C 103.191406 93.792969 103.289062 96.019531 103.707031 97.617188 C 104.125 99.214844 105.085938 101.5625 106.304688 103.015625 C 107.527344 104.472656 109.09375 105.503906 109.09375 105.503906 L 110.097656 106.246094 L 111.0625 105.289062 "/>
<path style=" stroke:none;fill-rule:evenodd;fill:rgb(29.40979%,34.509277%,38.819885%);fill-opacity:1;" d="M 111.695312 105.917969 L 111.0625 105.289062 C 111.0625 105.289062 111.214844 105.148438 111.246094 104.941406 C 111.277344 104.738281 111.285156 104.59375 111.378906 104.472656 C 111.472656 104.347656 111.75 104.257812 112.023438 104.390625 C 112.300781 104.523438 112.527344 104.617188 112.660156 104.882812 C 112.792969 105.148438 112.96875 105.253906 112.875 105.363281 C 112.78125 105.476562 112.125 105.726562 112.125 105.726562 L 111.695312 105.917969 "/>
<path style=" stroke:none;fill-rule:evenodd;fill:rgb(29.40979%,34.509277%,38.819885%);fill-opacity:1;" d="M 107.402344 106.664062 L 107.289062 107.519531 L 106.726562 107.691406 L 106.128906 107.832031 C 106.128906 107.832031 105.96875 108 105.90625 107.558594 C 105.84375 107.117188 106.003906 106.574219 106.128906 106.398438 C 106.253906 106.222656 106.398438 106.113281 106.5 106.144531 C 106.605469 106.171875 106.984375 106.324219 106.984375 106.324219 C 106.984375 106.324219 107.242188 106.636719 107.402344 106.664062 "/>
<path style=" stroke:none;fill-rule:evenodd;fill:rgb(29.40979%,34.509277%,38.819885%);fill-opacity:1;" d="M 106.574219 92.726562 C 106.574219 92.726562 106.902344 92.691406 106.941406 92.511719 C 106.984375 92.335938 107.136719 92.03125 107.136719 92.03125 C 107.136719 92.03125 107.1875 91.886719 106.757812 91.40625 C 106.328125 90.925781 105.546875 90.339844 105.28125 90.257812 C 105.015625 90.175781 104.207031 90.035156 104.207031 90.035156 C 104.207031 90.035156 104.09375 88.464844 103.941406 87.308594 C 103.785156 86.148438 103.898438 82.726562 104.0625 81.445312 C 104.226562 80.164062 104.808594 78.339844 104.808594 78.339844 L 105.824219 76.566406 C 105.824219 76.566406 105.511719 76.441406 105.40625 76.441406 C 105.300781 76.441406 104.6875 76.898438 104.6875 76.898438 C 104.6875 76.898438 103.734375 79.210938 103.457031 80.800781 C 103.179688 82.390625 102.988281 86.046875 103.121094 87.757812 C 103.253906 89.46875 103.34375 90.320312 103.34375 90.320312 C 103.34375 90.320312 102.269531 91.570312 102.277344 92.484375 C 102.289062 93.394531 102.277344 93.515625 102.277344 93.515625 C 102.277344 93.515625 103.359375 93.972656 103.367188 93.621094 C 103.375 93.273438 103.292969 92.195312 103.558594 91.765625 C 103.828125 91.335938 103.816406 91.234375 104.183594 91.128906 C 104.554688 91.027344 105.242188 91.386719 105.609375 91.734375 C 105.980469 92.082031 106.574219 92.726562 106.574219 92.726562 "/>
<path style=" stroke:none;fill-rule:evenodd;fill:rgb(93.328857%,69.018555%,54.119873%);fill-opacity:1;" d="M 141.660156 99.933594 C 141.660156 99.933594 140.183594 101.707031 138.273438 102.492188 C 136.363281 103.277344 134.0625 103.828125 134.0625 103.828125 L 136.242188 110.765625 C 136.242188 110.765625 134.546875 116.046875 134.0625 118.050781 C 133.574219 120.058594 131.730469 126.515625 131.730469 126.515625 C 131.730469 126.515625 129.042969 126.726562 128.417969 126.515625 C 127.792969 126.296875 126.75 125.9375 126.011719 126.609375 C 125.273438 127.28125 123.828125 127.957031 123.828125 127.957031 L 121.429688 128.542969 C 121.429688 128.542969 120.722656 129.25 121.277344 129.925781 C 121.832031 130.601562 122.628906 130.878906 123.089844 130.847656 C 123.550781 130.816406 126.441406 130.171875 126.441406 130.171875 C 126.441406 130.171875 125.296875 133.09375 124.964844 133.429688 C 124.628906 133.769531 123.210938 136.144531 123.15625 136.808594 C 123.097656 137.472656 123.78125 138.488281 124.414062 138.316406 C 125.050781 138.148438 126.511719 137.527344 126.511719 137.527344 C 126.511719 137.527344 132.535156 139.230469 133.226562 137.527344 C 133.914062 135.828125 135.941406 130.109375 136.710938 128.664062 C 137.480469 127.21875 145.53125 115.785156 145.164062 112.496094 C 144.796875 109.207031 141.660156 99.933594 141.660156 99.933594 "/>
<path style=" stroke:none;fill-rule:evenodd;fill:rgb(83.918762%,57.249451%,29.798889%);fill-opacity:1;" d="M 133.902344 119.078125 L 132.488281 118.941406 C 132.488281 118.941406 132.734375 118.007812 132.222656 117.753906 C 131.710938 117.496094 118.265625 116.0625 118.265625 116.0625 C 118.265625 116.0625 117.609375 115.90625 117.425781 117.058594 C 117.242188 118.214844 115.292969 134.28125 115.292969 134.34375 C 115.292969 134.402344 114.917969 136.136719 116.230469 136.308594 C 117.542969 136.480469 123.164062 137.089844 123.164062 137.089844 C 123.164062 137.089844 123.203125 136.085938 124.128906 134.792969 C 125.050781 133.503906 126.605469 130.265625 126.484375 130.078125 C 126.359375 129.894531 123.941406 130.488281 123.328125 130.671875 C 122.710938 130.859375 121.277344 129.957031 121.257812 129.648438 C 121.238281 129.34375 121.03125 128.707031 121.523438 128.480469 C 122.015625 128.253906 123.269531 128.179688 123.714844 127.984375 C 124.164062 127.792969 125.960938 126.550781 126.46875 126.328125 C 126.976562 126.101562 127.550781 126.0625 127.917969 126.125 C 128.285156 126.1875 131.78125 126.332031 131.78125 126.332031 L 133.902344 119.078125 "/>
<path style=" stroke:none;fill-rule:evenodd;fill:rgb(83.918762%,57.249451%,29.798889%);fill-opacity:1;" d="M 142.183594 120.078125 C 142.183594 120.078125 144.5 120.386719 144.765625 120.835938 C 145.03125 121.289062 145.148438 121.699219 145.070312 122.460938 C 144.96875 123.3125 143.0625 138.335938 143.0625 138.335938 C 143.0625 138.335938 143.027344 139.167969 142.277344 139.242188 C 141.527344 139.316406 132.433594 138.136719 132.433594 138.136719 C 132.433594 138.136719 134.476562 134.191406 135.074219 132.640625 C 135.671875 131.085938 135.871094 129.996094 136.199219 129.34375 C 136.527344 128.6875 142.183594 120.078125 142.183594 120.078125 "/>
<path style=" stroke:none;fill-rule:evenodd;fill:rgb(73.329163%,46.669006%,22.349548%);fill-opacity:1;" d="M 132.285156 119.078125 L 129.980469 126.25 C 129.980469 126.25 131.605469 127.003906 131.730469 126.515625 C 131.851562 126.023438 133.902344 119.402344 133.902344 119.402344 L 132.285156 119.078125 "/>
<path style=" stroke:none;fill-rule:evenodd;fill:rgb(73.329163%,46.669006%,22.349548%);fill-opacity:1;" d="M 121.339844 130.507812 C 121.339844 130.507812 121.648438 132.355469 122.816406 132.324219 C 123.984375 132.292969 123.828125 132.324219 123.828125 132.324219 C 123.828125 132.324219 121.730469 135.265625 121.429688 136.867188 L 123.121094 136.964844 C 123.121094 136.964844 124.265625 134.757812 124.957031 133.4375 C 125.652344 132.113281 126.257812 130.539062 126.351562 130.355469 C 126.441406 130.171875 126.628906 130.296875 126.441406 130.171875 C 126.253906 130.046875 124.21875 130.5 123.929688 130.707031 C 123.644531 130.910156 121.339844 130.507812 121.339844 130.507812 "/>
<path style=" stroke:none;fill-rule:evenodd;fill:rgb(93.328857%,69.018555%,54.119873%);fill-opacity:1;" d="M 90.296875 99.546875 C 90.296875 99.546875 92.203125 100.492188 93.027344 102.054688 C 93.847656 103.621094 94.511719 104.796875 94.511719 104.796875 C 94.511719 104.796875 90.414062 112.339844 88.722656 114.03125 C 87.03125 115.722656 85.464844 117.8125 84.417969 117.414062 C 83.375 117.015625 81.804688 116.644531 80.484375 110.773438 C 79.164062 104.902344 80.882812 93.039062 81.46875 91.808594 C 82.050781 90.578125 82.609375 90.234375 83.160156 89.804688 C 83.710938 89.378906 83.890625 89 83.902344 88.992188 C 83.917969 88.988281 83.988281 83.292969 83.988281 83.292969 C 83.988281 83.292969 83.957031 81.921875 85.28125 81.5625 C 86.601562 81.199219 87.460938 80.984375 87.90625 82.152344 C 88.351562 83.320312 88.015625 87.59375 88.015625 87.59375 L 90.296875 88.515625 C 90.296875 88.515625 91.53125 88.882812 91.582031 89.410156 C 91.628906 89.9375 91.847656 90.960938 91.773438 91.234375 C 91.699219 91.507812 90.691406 93.21875 90.691406 93.21875 C 90.691406 93.21875 90.394531 97.777344 90.34375 98.234375 C 90.289062 98.691406 90.296875 99.546875 90.296875 99.546875 "/>
<path style=" stroke:none;fill-rule:evenodd;fill:rgb(96.859741%,59.999084%,81.959534%);fill-opacity:1;" d="M 129.683594 138.226562 C 129.738281 140.875 129.699219 147.003906 128.53125 153.628906 C 128.53125 153.628906 127.363281 157.378906 128.226562 160.636719 C 129.085938 163.894531 129.457031 167.234375 129.085938 169.375 C 128.71875 171.519531 125.144531 180.03125 124.964844 186.472656 L 126.273438 186.152344 C 126.273438 186.152344 127.035156 179.246094 128.605469 175.5 C 130.179688 171.757812 130.882812 168.386719 130.789062 167.308594 C 130.691406 166.230469 129.332031 159.835938 129.394531 157.070312 C 129.457031 154.304688 131.289062 145.0625 131.398438 143.195312 C 131.460938 142.121094 131.355469 139.96875 131.257812 138.339844 C 130.746094 138.4375 130.207031 138.363281 129.683594 138.226562 "/>
<path style=" stroke:none;fill-rule:evenodd;fill:rgb(96.859741%,59.999084%,81.959534%);fill-opacity:1;" d="M 98.636719 136.84375 C 98.636719 136.84375 98.183594 144.792969 99.742188 153.628906 C 99.742188 153.628906 100.910156 157.378906 100.050781 160.636719 C 99.191406 163.894531 98.820312 167.234375 99.191406 169.375 C 99.558594 171.519531 103.132812 180.03125 103.3125 186.472656 L 102 186.152344 C 102 186.152344 101.242188 179.246094 99.667969 175.5 C 98.097656 171.757812 97.390625 168.386719 97.488281 167.308594 C 97.582031 166.230469 98.941406 159.835938 98.882812 157.070312 C 98.820312 154.304688 96.984375 145.0625 96.878906 143.195312 C 96.769531 141.332031 97.160156 136.226562 97.160156 136.226562 L 98.636719 136.84375 "/>
<path style=" stroke:none;fill-rule:evenodd;fill:rgb(45.098877%,36.859131%,32.548523%);fill-opacity:1;" d="M 98.683594 55.179688 C 98.683594 55.179688 95.765625 36.199219 112.179688 32.261719 C 112.179688 32.261719 103.941406 31.460938 98.683594 42.652344 C 98.683594 42.652344 95.945312 47.628906 97.820312 55.746094 L 98.683594 55.179688 "/>
<path style=" stroke:none;fill-rule:evenodd;fill:rgb(45.098877%,36.859131%,32.548523%);fill-opacity:1;" d="M 111.226562 35.117188 C 111.226562 35.117188 110.570312 41.558594 105.777344 46.898438 C 100.988281 52.242188 100.429688 55.835938 100.429688 55.835938 L 100.238281 55.585938 C 100.238281 55.585938 99.757812 52.691406 102.914062 48.636719 C 106.070312 44.578125 109.457031 41.605469 111.226562 35.117188 "/>
<path style=" stroke:none;fill-rule:evenodd;fill:rgb(45.098877%,36.859131%,32.548523%);fill-opacity:1;" d="M 110.210938 34.246094 C 110.210938 34.246094 101.15625 41.507812 99.757812 51.257812 C 99.757812 51.257812 99.074219 41.902344 110.210938 34.246094 "/>
<path style=" stroke:none;fill-rule:evenodd;fill:rgb(45.098877%,36.859131%,32.548523%);fill-opacity:1;" d="M 99.230469 41.546875 C 99.230469 41.546875 98.769531 38.765625 100.210938 33.878906 C 101.65625 28.992188 105.347656 28.433594 105.347656 28.433594 C 105.347656 28.433594 103.144531 27.597656 101.097656 29.84375 C 99.054688 32.09375 98.246094 35.773438 98.246094 35.773438 L 97.875 39.453125 L 98.257812 43.628906 L 99.230469 41.546875 "/>
<path style=" stroke:none;fill-rule:evenodd;fill:rgb(45.098877%,36.859131%,32.548523%);fill-opacity:1;" d="M 117.867188 32.632812 C 117.867188 32.632812 132.261719 37.835938 129.445312 55.273438 L 130.746094 55.273438 C 130.746094 55.273438 135.117188 38.234375 117.867188 32.632812 "/>
<path style=" stroke:none;fill-rule:evenodd;fill:rgb(45.098877%,36.859131%,32.548523%);fill-opacity:1;" d="M 112.179688 35.640625 C 112.179688 35.640625 113.734375 42.15625 119.257812 45.597656 C 124.78125 49.042969 127.746094 52.363281 127.746094 52.363281 C 127.746094 52.363281 125.976562 49.625 120.417969 45.476562 C 114.859375 41.328125 112.734375 37.730469 112.179688 35.640625 "/>
<path style=" stroke:none;fill-rule:evenodd;fill:rgb(45.098877%,36.859131%,32.548523%);fill-opacity:1;" d="M 115.457031 33.921875 C 115.457031 33.921875 126.910156 36.910156 128.519531 51.675781 C 128.519531 51.675781 122.988281 42.835938 116.722656 38.039062 C 116.722656 38.039062 122.96875 41.421875 127.5625 48.984375 C 127.5625 48.984375 123.84375 36.933594 115.457031 33.921875 "/>
<path style=" stroke:none;fill-rule:evenodd;fill:rgb(45.098877%,36.859131%,32.548523%);fill-opacity:1;" d="M 109.351562 32.25 C 109.351562 32.25 109.515625 26.789062 115.457031 25.25 C 115.457031 25.25 118.792969 24.964844 120.992188 27.425781 C 120.992188 27.425781 112.03125 23 110.519531 32.25 L 109.351562 32.25 "/>
<path style=" stroke:none;fill-rule:evenodd;fill:rgb(45.098877%,36.859131%,32.548523%);fill-opacity:1;" d="M 114.761719 29.1875 C 114.761719 29.1875 119.863281 26.972656 125.152344 34.71875 C 125.152344 34.71875 121.042969 25.527344 114.761719 29.1875 "/>
<path style=" stroke:none;fill-rule:evenodd;fill:rgb(45.098877%,36.859131%,32.548523%);fill-opacity:1;" d="M 106.203125 30.167969 C 106.203125 30.167969 101.820312 30.046875 100.480469 37.117188 C 100.480469 37.117188 100.65625 29.371094 106.203125 30.167969 "/>
<path style=" stroke:none;fill-rule:evenodd;fill:rgb(70.588684%,45.489502%,35.289001%);fill-opacity:1;" d="M 100.828125 56.828125 C 100.828125 56.828125 102.628906 51.792969 105.824219 49.289062 C 109.023438 46.789062 111.082031 42.816406 111.445312 41.585938 L 110.535156 39.453125 C 110.535156 39.453125 107.734375 45.148438 105.28125 47.648438 C 102.832031 50.152344 100.5 52.394531 100.828125 56.828125 "/>
<path style=" stroke:none;fill-rule:evenodd;fill:rgb(70.588684%,45.489502%,35.289001%);fill-opacity:1;" d="M 109.679688 43.265625 C 109.679688 43.265625 111.484375 46.25 115.132812 48.140625 C 118.777344 50.027344 125.652344 52.105469 127.261719 55.015625 C 127.261719 55.015625 125.414062 51.835938 120.992188 49.578125 C 116.566406 47.316406 113.542969 45.007812 112.261719 42.753906 C 110.980469 40.5 110.535156 39.453125 110.535156 39.453125 L 109.679688 43.265625 "/>
<path style=" stroke:none;fill-rule:evenodd;fill:rgb(70.588684%,45.489502%,35.289001%);fill-opacity:1;" d="M 120.964844 75.648438 C 116.949219 78.351562 111.410156 78.351562 107.394531 75.648438 L 109.28125 74.128906 C 114.132812 75.957031 114.222656 75.957031 119.074219 74.128906 L 120.964844 75.648438 "/>
<path style=" stroke:none;fill-rule:evenodd;fill:rgb(61.178589%,9.408569%,47.44873%);fill-opacity:1;" d="M 107.195312 106.589844 C 107.40625 106.722656 107.621094 106.71875 107.859375 106.730469 C 108.125 106.746094 108.40625 106.757812 108.648438 106.867188 C 108.707031 106.675781 108.785156 106.492188 108.867188 106.3125 C 108.691406 106.234375 108.53125 106.128906 108.386719 106.003906 C 108.03125 106.09375 107.671875 106.203125 107.304688 106.324219 C 107.195312 106.363281 107.082031 106.394531 106.96875 106.425781 C 107.054688 106.476562 107.132812 106.546875 107.195312 106.589844 "/>
<path style=" stroke:none;fill-rule:evenodd;fill:rgb(61.178589%,9.408569%,47.44873%);fill-opacity:1;" d="M 112.527344 105.585938 C 112.253906 105.625 112.015625 105.800781 111.765625 105.894531 C 111.3125 106.367188 110.820312 106.820312 110.339844 107.320312 C 110.128906 107.257812 109.980469 107.09375 109.617188 107 C 109.550781 106.980469 109.332031 107.628906 109.175781 107.808594 C 108.878906 107.871094 107.96875 107.585938 107.378906 107.613281 C 106.941406 107.667969 106.339844 107.917969 105.976562 107.703125 C 105.636719 107.507812 105.820312 106.945312 105.945312 106.605469 C 104.230469 106.765625 102.121094 106.367188 100.277344 105.421875 C 101.289062 108.398438 100.703125 111.582031 100.324219 114.566406 C 100.324219 114.566406 103.300781 109.421875 112.953125 109.421875 L 115.3125 109.421875 C 124.964844 109.421875 127.941406 114.566406 127.941406 114.566406 C 127.433594 110.546875 127.207031 107.429688 128.417969 105.183594 C 125.96875 106.597656 122.914062 106.988281 120.964844 106.324219 C 118.003906 105.320312 115.3125 105.382812 115.3125 105.382812 L 112.953125 105.382812 C 112.925781 105.429688 112.609375 105.570312 112.527344 105.585938 "/>
<path style=" stroke:none;fill-rule:evenodd;fill:rgb(61.178589%,9.408569%,47.44873%);fill-opacity:1;" d="M 110.917969 105.515625 C 110.601562 105.554688 110.257812 105.601562 109.890625 105.667969 C 109.890625 105.6875 109.886719 105.710938 109.878906 105.730469 C 109.835938 105.839844 109.804688 105.957031 109.777344 106.078125 C 110.238281 106.289062 110.585938 105.890625 110.917969 105.515625 "/>
<path style=" stroke:none;fill-rule:evenodd;fill:rgb(70.588684%,45.489502%,35.289001%);fill-opacity:1;" d="M 113.433594 63.289062 L 113.546875 63.351562 C 113.546875 63.351562 113.8125 63.652344 114.191406 63.691406 C 114.570312 63.726562 114.921875 63.480469 115.019531 63.351562 L 115.128906 63.289062 C 115.28125 63.21875 115.722656 62.988281 115.71875 63.289062 C 115.523438 63.457031 115.207031 63.660156 114.988281 63.851562 C 114.769531 64.042969 114.515625 64.246094 114.257812 64.25 C 114.019531 64.253906 113.816406 64.027344 113.5625 63.871094 C 113.265625 63.6875 112.890625 63.351562 112.847656 63.289062 C 112.632812 62.976562 113.414062 63.28125 113.433594 63.289062 "/>
<path style=" stroke:none;fill-rule:evenodd;fill:rgb(5.099487%,5.099487%,5.099487%);fill-opacity:1;" d="M 115.667969 63 C 115.839844 62.976562 115.792969 63.199219 115.71875 63.289062 C 115.71875 63.289062 115.554688 63.199219 115.128906 63.289062 C 115.128906 63.289062 115.492188 63.027344 115.667969 63 "/>
<path style=" stroke:none;fill-rule:evenodd;fill:rgb(5.099487%,5.099487%,5.099487%);fill-opacity:1;" d="M 113.546875 63.351562 C 113.957031 63.683594 114.609375 63.683594 115.019531 63.351562 C 114.738281 64.070312 113.824219 64.070312 113.546875 63.351562 "/>
<path style=" stroke:none;fill-rule:evenodd;fill:rgb(5.099487%,5.099487%,5.099487%);fill-opacity:1;" d="M 112.847656 63.289062 C 112.773438 63.199219 112.722656 62.976562 112.898438 63 C 113.074219 63.027344 113.433594 63.289062 113.433594 63.289062 C 113.011719 63.199219 112.847656 63.289062 112.847656 63.289062 "/>
<path style=" stroke:none;fill-rule:evenodd;fill:rgb(61.178589%,9.408569%,47.44873%);fill-opacity:1;" d="M 108.414062 163.128906 C 107.671875 163.554688 106.320312 164.148438 105.882812 164.265625 C 105.265625 164.429688 101.332031 162.460938 101.332031 162.460938 C 101.332031 162.460938 103.667969 165.664062 104.734375 165.929688 C 105.472656 166.109375 107.277344 165.75 108.328125 165.472656 C 108.097656 172.429688 108.089844 179.855469 108.59375 186.511719 C 108.59375 186.511719 111.957031 186.277344 112.074219 184.675781 C 112.195312 183.078125 111.582031 168.976562 111.617188 165.535156 C 111.65625 162.09375 111.910156 151.226562 112.570312 147.636719 C 113.101562 144.734375 113.8125 141.292969 114.066406 140.074219 L 114.242188 140.078125 C 114.496094 141.292969 115.203125 144.734375 115.738281 147.636719 C 116.398438 151.226562 116.652344 162.09375 116.691406 165.535156 C 116.726562 168.976562 116.113281 183.078125 116.230469 184.675781 C 116.351562 186.277344 119.714844 186.511719 119.714844 186.511719 C 120.214844 179.855469 120.210938 172.429688 119.980469 165.472656 C 121.03125 165.75 122.835938 166.109375 123.574219 165.929688 C 124.640625 165.664062 126.976562 162.460938 126.976562 162.460938 C 126.976562 162.460938 123.039062 164.429688 122.425781 164.265625 C 121.988281 164.148438 120.636719 163.554688 119.894531 163.128906 C 119.445312 152.101562 118.488281 142.664062 118.203125 139.996094 C 121.214844 139.816406 125.351562 139.304688 128.769531 137.914062 C 128.070312 137.886719 127.402344 137.890625 126.792969 137.488281 C 126.632812 137.382812 126.007812 137.765625 125.8125 137.851562 C 124.964844 138.234375 123.296875 138.378906 123.160156 137.167969 C 114.144531 138.414062 105.5 138.464844 97.082031 134.679688 L 97.082031 136.6875 C 100.777344 139.035156 106.335938 139.777344 110.105469 140 C 109.820312 142.664062 108.863281 152.101562 108.414062 163.128906 "/>
<path style=" stroke:none;fill-rule:evenodd;fill:rgb(41.958618%,52.549744%,56.469727%);fill-opacity:1;" d="M 117.25 187.648438 C 117.25 187.648438 121.058594 190.058594 125.285156 188.089844 C 125.285156 188.089844 125.003906 186.273438 124.964844 186.472656 C 124.921875 186.671875 121.992188 187.292969 121.269531 187.183594 C 120.542969 187.074219 117.449219 186.160156 117.449219 186.160156 L 117.25 187.648438 "/>
<path style=" stroke:none;fill-rule:evenodd;fill:rgb(41.958618%,52.549744%,56.469727%);fill-opacity:1;" d="M 111.167969 187.648438 C 111.167969 187.648438 107.363281 190.058594 103.132812 188.089844 C 103.132812 188.089844 103.414062 186.273438 103.457031 186.472656 C 103.496094 186.671875 106.425781 187.292969 107.152344 187.183594 C 107.875 187.074219 110.96875 186.160156 110.96875 186.160156 L 111.167969 187.648438 "/>
<path style=" stroke:none;fill-rule:evenodd;fill:rgb(96.859741%,59.999084%,81.959534%);fill-opacity:1;" d="M 127.210938 88.300781 C 127.210938 88.300781 128.996094 96.152344 129.023438 97.578125 C 129.054688 99 127.425781 104.875 126.996094 105.320312 C 126.566406 105.761719 125.75 106.277344 125.75 106.277344 C 125.75 106.277344 127.453125 105.691406 127.816406 105.503906 C 128.179688 105.320312 130.28125 99 130.316406 97.863281 C 130.347656 96.726562 128.316406 90.085938 127.210938 88.300781 "/>
<path style=" stroke:none;fill-rule:evenodd;fill:rgb(96.859741%,59.999084%,81.959534%);fill-opacity:1;" d="M 101.160156 88.300781 C 101.160156 88.300781 99.378906 96.152344 99.347656 97.578125 C 99.316406 99 100.945312 104.875 101.375 105.320312 C 101.808594 105.761719 102.625 106.277344 102.625 106.277344 C 102.625 106.277344 100.917969 105.691406 100.554688 105.503906 C 100.191406 105.320312 98.089844 99 98.058594 97.863281 C 98.027344 96.726562 100.054688 90.085938 101.160156 88.300781 "/>
<path style=" stroke:none;fill-rule:evenodd;fill:rgb(61.178589%,9.408569%,47.44873%);fill-opacity:1;" d="M 127.648438 88.964844 C 127.648438 88.964844 133.453125 96.363281 136.710938 102.921875 L 133.226562 103.789062 L 130.316406 98.386719 C 130.316406 98.386719 128.238281 89.917969 127.648438 88.964844 "/>
<path style=" stroke:none;fill-rule:evenodd;fill:rgb(61.178589%,9.408569%,47.44873%);fill-opacity:1;" d="M 100.4375 89.859375 C 100.4375 89.859375 95.515625 96.492188 92.871094 101.789062 L 94.644531 105.113281 L 93.257812 107.339844 L 95.140625 107.527344 L 98.222656 99.546875 C 98.222656 99.546875 97.832031 97.476562 98.058594 96.808594 C 98.285156 96.140625 100.4375 89.859375 100.4375 89.859375 "/>
<path style=" stroke:none;fill-rule:evenodd;fill:rgb(70.588684%,45.489502%,35.289001%);fill-opacity:1;" d="M 134.722656 105.363281 C 134.722656 105.363281 139.859375 104.46875 142.1875 101.535156 L 141.660156 99.933594 C 141.660156 99.933594 138.578125 102.296875 137.738281 102.703125 C 136.894531 103.105469 134.0625 103.828125 134.0625 103.828125 L 134.722656 105.363281 "/>
<path style=" stroke:none;fill-rule:evenodd;fill:rgb(70.588684%,45.489502%,35.289001%);fill-opacity:1;" d="M 90.003906 101.550781 C 90.003906 101.550781 91.265625 102.140625 92.007812 103.402344 L 90.179688 106.59375 C 90.179688 106.59375 87.769531 113.398438 85.851562 114.257812 C 83.9375 115.117188 80.980469 111.609375 80.492188 108.855469 C 80.492188 108.855469 81.097656 117.9375 84.136719 117.308594 C 87.175781 116.675781 89.699219 113.382812 90.691406 111.832031 C 91.683594 110.28125 94.644531 105.113281 94.644531 105.113281 C 94.644531 105.113281 92.640625 100.46875 90.296875 99.902344 L 90.003906 101.550781 "/>
<path style=" stroke:none;fill-rule:evenodd;fill:rgb(70.588684%,45.489502%,35.289001%);fill-opacity:1;" d="M 88.015625 93.046875 C 88.015625 93.046875 87.871094 101.136719 86.96875 102.921875 C 86.96875 102.921875 89.519531 103.070312 89.839844 101.304688 C 90.160156 99.539062 90.511719 93.300781 90.503906 93.433594 C 90.5 93.5625 88.894531 92.863281 88.894531 92.863281 L 88.015625 93.046875 "/>
<path style=" stroke:none;fill-rule:evenodd;fill:rgb(5.099487%,5.099487%,5.099487%);fill-opacity:1;" d="M 119.511719 74.019531 C 119.558594 74.339844 119.515625 74.640625 119.378906 74.945312 C 121.261719 76.023438 123.210938 77.003906 125.125 78.019531 C 127.070312 79.046875 130.445312 80.835938 130.5625 80.898438 C 132.027344 81.648438 134.476562 83.15625 135.261719 85.191406 C 136.402344 88.128906 141.839844 96.058594 142.890625 97.578125 C 142.148438 98.636719 138.765625 102.988281 133.179688 103.4375 C 132.761719 102.429688 131.339844 99.058594 130.082031 96.886719 C 130.164062 97.5625 130.191406 98.246094 130.199219 98.933594 C 131.378906 101.285156 132.484375 104.011719 132.5 104.050781 L 132.613281 104.335938 L 132.921875 104.316406 C 139.890625 103.941406 143.621094 98.054688 143.777344 97.804688 L 143.925781 97.5625 L 143.765625 97.332031 C 143.699219 97.238281 137.261719 87.96875 136.066406 84.882812 C 135.136719 82.488281 132.347656 80.816406 130.796875 80.046875 C 130.039062 79.625 127.316406 78.269531 125.574219 77.320312 C 123.574219 76.234375 121.429688 75.195312 119.511719 74.019531 "/>
<g clip-path="url(#clip1)" clip-rule="nonzero">
<path style=" stroke:none;fill-rule:evenodd;fill:rgb(5.099487%,5.099487%,5.099487%);fill-opacity:1;" d="M 128.367188 193.210938 C 126.328125 190.542969 125.5625 187.820312 125.28125 186.375 C 125.078125 186.464844 124.851562 186.511719 124.617188 186.496094 C 124.542969 186.488281 124.496094 186.484375 124.46875 186.476562 C 124.441406 186.484375 124.429688 186.488281 124.421875 186.488281 C 124.707031 188.011719 125.5 190.875 127.683594 193.734375 C 129.226562 195.761719 130.824219 198.042969 130.164062 199.402344 C 129.609375 200.550781 127.46875 201.171875 123.800781 201.25 C 120.601562 201.3125 118.617188 200.769531 117.558594 199.535156 C 115.742188 197.414062 116.492188 193.167969 117.625 186.738281 C 117.664062 186.507812 117.707031 186.273438 117.746094 186.035156 C 117.632812 186.019531 117.519531 186.003906 117.40625 185.984375 C 117.226562 185.953125 117.0625 185.886719 116.917969 185.789062 C 116.867188 186.058594 116.820312 186.328125 116.777344 186.589844 C 115.601562 193.257812 114.824219 197.664062 116.90625 200.09375 C 118.082031 201.46875 120.121094 202.113281 123.300781 202.113281 C 123.46875 202.113281 123.640625 202.113281 123.816406 202.109375 C 127.953125 202.023438 130.214844 201.28125 130.941406 199.777344 C 131.808594 197.972656 130.21875 195.644531 128.367188 193.210938 "/>
</g>
<path style=" stroke:none;fill-rule:evenodd;fill:rgb(5.099487%,5.099487%,5.099487%);fill-opacity:1;" d="M 124.332031 200.292969 C 118.613281 200.292969 116.296875 199.273438 115.796875 196.523438 L 116.28125 196.4375 C 116.660156 198.515625 118.140625 199.800781 124.332031 199.800781 C 129.921875 199.800781 130.351562 197.726562 130.355469 197.707031 L 130.839844 197.769531 C 130.828125 197.871094 130.441406 200.292969 124.332031 200.292969 "/>
<path style=" stroke:none;fill-rule:evenodd;fill:rgb(5.099487%,5.099487%,5.099487%);fill-opacity:1;" d="M 123.105469 76.277344 C 123.015625 76.425781 122.90625 76.601562 122.785156 76.792969 C 121.429688 78.957031 118.367188 83.542969 114.796875 86.882812 C 114.582031 87.082031 114.367188 87.277344 114.152344 87.464844 C 113.933594 87.277344 113.71875 87.082031 113.507812 86.882812 C 110.253906 83.839844 107.417969 79.757812 105.914062 77.421875 C 105.671875 77.042969 105.429688 76.660156 105.195312 76.277344 C 105.480469 76.210938 105.75 76.078125 105.96875 75.878906 C 106.058594 76.03125 106.164062 76.199219 106.28125 76.386719 C 107.648438 78.546875 110.691406 83.074219 114.152344 86.300781 C 117.609375 83.074219 120.65625 78.546875 122.019531 76.386719 C 122.136719 76.199219 122.246094 76.03125 122.335938 75.878906 C 122.554688 76.078125 122.820312 76.210938 123.105469 76.277344 "/>
<path style=" stroke:none;fill-rule:evenodd;fill:rgb(5.099487%,5.099487%,5.099487%);fill-opacity:1;" d="M 119.101562 74.4375 L 118.734375 78.433594 C 118.734375 78.433594 119.660156 76.128906 119.78125 74.128906 L 119.101562 74.4375 "/>
<path style=" stroke:none;fill-rule:evenodd;fill:rgb(5.099487%,5.099487%,5.099487%);fill-opacity:1;" d="M 114.597656 139.613281 C 116.128906 145.066406 116.941406 154.015625 117.015625 166.265625 C 117.070312 175.507812 116.660156 183.617188 116.578125 185.171875 C 117.304688 185.574219 119.644531 186.789062 121.378906 186.789062 C 123.070312 186.789062 125.105469 186.125 125.851562 185.859375 C 125.78125 182.992188 127.890625 176.21875 129.167969 172.109375 C 129.523438 170.972656 129.800781 170.074219 129.910156 169.648438 C 130.382812 167.792969 130.070312 162.675781 129.328125 160.207031 C 128.566406 157.667969 129.292969 154.542969 129.320312 154.410156 C 130.726562 148.324219 130.886719 142.300781 130.773438 138.308594 C 131.058594 138.402344 131.390625 138.363281 131.628906 138.195312 C 131.75 142.246094 131.59375 148.394531 130.160156 154.605469 C 130.152344 154.636719 129.457031 157.644531 130.152344 159.960938 C 130.605469 161.460938 130.898438 163.824219 130.976562 165.953125 C 130.984375 166.242188 130.992188 166.527344 130.992188 166.808594 C 131 168.058594 130.921875 169.164062 130.742188 169.863281 C 130.628906 170.308594 130.347656 171.214844 129.988281 172.363281 C 128.765625 176.304688 126.480469 183.644531 126.726562 186.109375 L 126.757812 186.433594 L 126.457031 186.550781 C 126.414062 186.570312 126.007812 186.726562 125.398438 186.921875 C 125.152344 186.996094 124.871094 187.078125 124.566406 187.160156 C 123.621094 187.414062 122.453125 187.648438 121.378906 187.648438 C 120.15625 187.648438 118.726562 187.144531 117.636719 186.660156 C 117.339844 186.527344 117.066406 186.398438 116.832031 186.28125 C 116.300781 186.015625 115.953125 185.808594 115.914062 185.785156 L 115.6875 185.648438 L 115.703125 185.390625 C 115.722656 185.066406 117.390625 155.503906 114.152344 141.355469 C 110.910156 155.503906 112.578125 185.066406 112.601562 185.390625 L 112.613281 185.648438 L 112.390625 185.785156 C 112.347656 185.808594 112 186.015625 111.472656 186.277344 C 111.238281 186.398438 110.964844 186.527344 110.667969 186.660156 C 109.574219 187.144531 108.148438 187.648438 106.921875 187.648438 C 105.851562 187.648438 104.683594 187.414062 103.738281 187.160156 C 103.433594 187.078125 103.152344 186.996094 102.902344 186.921875 C 102.296875 186.726562 101.890625 186.570312 101.847656 186.550781 L 101.542969 186.433594 L 101.574219 186.109375 C 101.824219 183.644531 99.539062 176.304688 98.3125 172.363281 C 97.957031 171.214844 97.675781 170.308594 97.558594 169.863281 C 97.382812 169.160156 97.300781 168.058594 97.3125 166.808594 C 97.3125 166.527344 97.320312 166.242188 97.328125 165.953125 C 97.402344 163.824219 97.699219 161.460938 98.148438 159.960938 C 98.84375 157.644531 98.148438 154.636719 98.144531 154.605469 C 96.242188 146.371094 96.585938 138.25 96.84375 134.976562 C 96.851562 134.871094 96.859375 134.773438 96.867188 134.679688 C 96.996094 134.785156 97.132812 134.875 97.296875 134.945312 C 97.425781 135.019531 97.558594 135.074219 97.695312 135.117188 C 97.6875 135.210938 97.679688 135.3125 97.675781 135.417969 C 97.425781 138.847656 97.171875 146.578125 98.980469 154.410156 C 99.011719 154.542969 99.734375 157.667969 98.972656 160.207031 C 98.234375 162.675781 97.917969 167.792969 98.394531 169.648438 C 98.503906 170.074219 98.78125 170.972656 99.136719 172.109375 C 100.414062 176.21875 102.519531 182.992188 102.453125 185.859375 C 103.195312 186.125 105.230469 186.789062 106.921875 186.789062 C 108.65625 186.789062 111 185.574219 111.726562 185.171875 C 111.640625 183.617188 111.234375 175.507812 111.289062 166.265625 C 111.363281 154.015625 112.171875 145.066406 113.703125 139.613281 C 113.835938 139.132812 113.984375 138.648438 114.148438 138.179688 C 114.152344 138.160156 114.496094 139.246094 114.597656 139.613281 "/>
<g clip-path="url(#clip2)" clip-rule="nonzero">
<path style=" stroke:none;fill-rule:evenodd;fill:rgb(5.099487%,5.099487%,5.099487%);fill-opacity:1;" d="M 99.9375 193.210938 C 101.972656 190.542969 102.738281 187.820312 103.019531 186.375 C 103.226562 186.464844 103.449219 186.511719 103.683594 186.496094 C 103.761719 186.488281 103.808594 186.484375 103.835938 186.476562 C 103.863281 186.484375 103.871094 186.488281 103.878906 186.488281 C 103.597656 188.011719 102.800781 190.875 100.621094 193.734375 C 99.074219 195.761719 97.480469 198.042969 98.136719 199.402344 C 98.691406 200.550781 100.832031 201.171875 104.503906 201.25 C 107.703125 201.3125 109.683594 200.769531 110.742188 199.535156 C 112.5625 197.414062 111.8125 193.167969 110.679688 186.738281 C 110.640625 186.507812 110.597656 186.273438 110.554688 186.035156 C 110.671875 186.019531 110.785156 186.003906 110.898438 185.984375 C 111.078125 185.953125 111.242188 185.886719 111.386719 185.789062 C 111.433594 186.058594 111.480469 186.328125 111.527344 186.589844 C 112.703125 193.257812 113.480469 197.664062 111.398438 200.09375 C 110.21875 201.46875 108.179688 202.113281 105.003906 202.113281 C 104.832031 202.113281 104.660156 202.113281 104.488281 202.109375 C 100.351562 202.023438 98.089844 201.28125 97.363281 199.777344 C 96.492188 197.972656 98.085938 195.644531 99.9375 193.210938 "/>
</g>
<path style=" stroke:none;fill-rule:evenodd;fill:rgb(5.099487%,5.099487%,5.099487%);fill-opacity:1;" d="M 103.972656 200.292969 C 109.691406 200.292969 112.003906 199.273438 112.507812 196.523438 L 112.023438 196.4375 C 111.644531 198.515625 110.164062 199.800781 103.972656 199.800781 C 98.378906 199.800781 97.953125 197.726562 97.949219 197.707031 L 97.460938 197.769531 C 97.476562 197.871094 97.863281 200.292969 103.972656 200.292969 "/>
<path style=" stroke:none;fill-rule:evenodd;fill:rgb(5.099487%,5.099487%,5.099487%);fill-opacity:1;" d="M 109.203125 74.4375 L 109.566406 78.433594 C 109.566406 78.433594 108.644531 76.128906 108.523438 74.128906 L 109.203125 74.4375 "/>
<path style=" stroke:none;fill-rule:evenodd;fill:rgb(5.099487%,5.099487%,5.099487%);fill-opacity:1;" d="M 127.5625 63.328125 C 127.554688 63.371094 127.539062 63.414062 127.527344 63.460938 C 127.414062 63.871094 127.292969 64.273438 127.160156 64.667969 C 126.230469 67.480469 124.878906 69.820312 123.109375 71.679688 C 119.199219 75.785156 114.726562 75.90625 114.539062 75.910156 L 114.035156 75.910156 C 113.839844 75.90625 109.367188 75.785156 105.457031 71.679688 C 103.699219 69.835938 102.355469 67.511719 101.425781 64.722656 C 101.378906 64.582031 101.332031 64.441406 101.289062 64.296875 C 101.195312 64 101.105469 63.699219 101.019531 63.390625 C 101.363281 63.65625 101.734375 63.910156 102.140625 64.152344 L 102.160156 64.207031 C 102.191406 64.308594 102.222656 64.410156 102.257812 64.507812 C 102.425781 65.003906 102.605469 65.484375 102.800781 65.945312 C 103.640625 67.957031 104.734375 69.671875 106.078125 71.085938 C 109.746094 74.933594 114 75.050781 114.042969 75.050781 L 114.53125 75.050781 C 114.566406 75.050781 118.847656 74.917969 122.503906 71.070312 C 123.988281 69.503906 125.167969 67.566406 126.035156 65.269531 C 126.121094 65.046875 126.203125 64.816406 126.285156 64.582031 C 126.339844 64.425781 126.390625 64.265625 126.441406 64.105469 C 126.847656 63.859375 127.222656 63.597656 127.5625 63.328125 "/>
<path style=" stroke:none;fill-rule:evenodd;fill:rgb(5.099487%,5.099487%,5.099487%);fill-opacity:1;" d="M 114.085938 31.277344 C 104.492188 31.277344 96.6875 40.113281 96.6875 50.96875 C 96.6875 52.703125 96.886719 54.382812 97.257812 55.984375 C 97.425781 55.6875 97.675781 55.433594 97.984375 55.265625 C 97.699219 53.882812 97.546875 52.449219 97.546875 50.96875 C 97.546875 40.585938 104.964844 32.136719 114.085938 32.136719 C 123.203125 32.136719 130.625 40.585938 130.625 50.96875 C 130.625 52.496094 130.460938 53.984375 130.160156 55.40625 C 130.441406 55.523438 130.707031 55.71875 130.917969 55.964844 C 131.289062 54.367188 131.484375 52.695312 131.484375 50.96875 C 131.484375 40.113281 123.679688 31.277344 114.085938 31.277344 "/>
<path style=" stroke:none;fill-rule:evenodd;fill:rgb(5.099487%,5.099487%,5.099487%);fill-opacity:1;" d="M 128.59375 56.578125 C 128.296875 57.011719 128 57.671875 128 57.671875 C 128 57.671875 127.59375 56.328125 127.539062 56.203125 C 126.839844 54.5 125.589844 53.058594 123.574219 51.628906 C 122.960938 51.191406 122.292969 50.757812 121.535156 50.316406 C 120.675781 49.828125 119.738281 49.332031 118.695312 48.816406 C 113.503906 46.246094 111.332031 42.230469 110.546875 40.296875 C 109.828125 41.914062 108.21875 45.078125 105.660156 47.820312 C 103.8125 49.804688 101.851562 52.351562 101.09375 55.746094 C 100.957031 56.359375 100.773438 57 100.648438 57.597656 L 100.472656 57.359375 L 100.03125 56.765625 C 100.152344 55.746094 100.441406 54.652344 100.796875 53.695312 C 101.78125 51.03125 103.445312 48.933594 105.03125 47.234375 C 108.449219 43.566406 110.164062 38.980469 110.183594 38.933594 L 110.664062 37.628906 L 111.003906 38.980469 C 111.019531 39.039062 112.554688 44.816406 119.078125 48.042969 C 122.804688 49.886719 125.046875 51.398438 126.5625 53.09375 C 126.972656 53.546875 127.324219 54.011719 127.628906 54.5 C 128.039062 55.152344 128.355469 55.847656 128.59375 56.578125 "/>
<path style=" stroke:none;fill-rule:evenodd;fill:rgb(5.099487%,5.099487%,5.099487%);fill-opacity:1;" d="M 127.160156 64.667969 C 126.964844 64.796875 126.757812 64.917969 126.542969 65.039062 L 126.285156 64.582031 C 126.339844 64.425781 126.390625 64.265625 126.441406 64.105469 C 126.847656 63.859375 127.222656 63.597656 127.5625 63.328125 C 130.300781 61.160156 130.980469 58.335938 130.703125 56.773438 C 130.597656 56.167969 130.335938 55.746094 130.042969 55.699219 C 129.472656 55.605469 129.046875 55.949219 128.746094 56.378906 C 128.691406 56.441406 128.644531 56.507812 128.59375 56.578125 C 128.296875 57.011719 128 57.671875 128 57.671875 C 127.992188 57.632812 127.984375 57.613281 127.980469 57.585938 C 127.929688 57.402344 127.820312 57.035156 127.746094 56.785156 C 127.710938 56.667969 127.679688 56.574219 127.671875 56.546875 C 127.703125 56.464844 127.734375 56.394531 127.773438 56.324219 C 127.894531 56.089844 128.046875 55.847656 128.230469 55.632812 C 128.675781 55.101562 129.308594 54.703125 130.179688 54.847656 C 130.871094 54.960938 131.371094 55.609375 131.550781 56.625 C 131.894531 58.574219 130.976562 62.222656 127.160156 64.667969 "/>
<path style=" stroke:none;fill-rule:evenodd;fill:rgb(5.099487%,5.099487%,5.099487%);fill-opacity:1;" d="M 102.257812 64.507812 L 101.957031 65.039062 C 101.773438 64.9375 101.597656 64.832031 101.425781 64.722656 C 97.539062 62.277344 96.601562 58.585938 96.949219 56.625 C 97.128906 55.609375 97.628906 54.960938 98.320312 54.847656 C 99.171875 54.707031 99.792969 55.082031 100.238281 55.59375 C 100.476562 55.867188 100.664062 56.179688 100.804688 56.476562 L 100.472656 57.359375 L 100.03125 56.765625 L 99.84375 56.515625 C 99.542969 56.023438 99.089844 55.59375 98.460938 55.699219 C 98.164062 55.746094 97.90625 56.167969 97.796875 56.773438 C 97.519531 58.355469 98.214844 61.21875 101.019531 63.390625 C 101.363281 63.65625 101.734375 63.910156 102.140625 64.152344 L 102.160156 64.207031 C 102.191406 64.308594 102.222656 64.410156 102.257812 64.507812 "/>
<path style=" stroke:none;fill-rule:evenodd;fill:rgb(70.588684%,45.489502%,35.289001%);fill-opacity:1;" d="M 127.070312 62.078125 C 127.070312 62.078125 128.507812 60.878906 128.332031 60.105469 C 128.160156 59.328125 128.753906 57.542969 129.96875 56.625 C 129.96875 56.625 128.957031 58.214844 128.773438 59.464844 C 128.773438 59.464844 129.5 60.648438 127.070312 62.078125 "/>
<path style=" stroke:none;fill-rule:evenodd;fill:rgb(70.588684%,45.489502%,35.289001%);fill-opacity:1;" d="M 129.292969 57.671875 C 129.292969 57.671875 129.738281 57.253906 130.089844 57.652344 C 130.445312 58.050781 129.503906 60.542969 128.167969 61.1875 C 128.167969 61.1875 128.632812 60.390625 128.59375 59.742188 C 128.554688 59.097656 129.292969 57.671875 129.292969 57.671875 "/>
<path style=" stroke:none;fill-rule:evenodd;fill:rgb(70.588684%,45.489502%,35.289001%);fill-opacity:1;" d="M 101.578125 62.078125 C 101.578125 62.078125 100.144531 60.878906 100.316406 60.105469 C 100.492188 59.328125 99.894531 57.542969 98.683594 56.625 C 98.683594 56.625 99.695312 58.214844 99.878906 59.464844 C 99.878906 59.464844 99.148438 60.648438 101.578125 62.078125 "/>
<path style=" stroke:none;fill-rule:evenodd;fill:rgb(70.588684%,45.489502%,35.289001%);fill-opacity:1;" d="M 99.359375 57.671875 C 99.359375 57.671875 98.914062 57.253906 98.558594 57.652344 C 98.207031 58.050781 99.144531 60.542969 100.480469 61.1875 C 100.480469 61.1875 100.019531 60.390625 100.058594 59.742188 C 100.097656 59.097656 99.359375 57.671875 99.359375 57.671875 "/>
<path style=" stroke:none;fill-rule:evenodd;fill:rgb(5.099487%,5.099487%,5.099487%);fill-opacity:1;" d="M 127.375 39.335938 C 127.59375 39.679688 127.800781 40.03125 128.007812 40.382812 C 127.570312 35.9375 125.644531 31.234375 122.78125 28.003906 C 120.828125 25.800781 118.742188 24.636719 116.75 24.636719 C 113.667969 24.636719 111.714844 26.082031 110.621094 27.300781 C 109.941406 28.050781 109.5 28.804688 109.246094 29.316406 C 108.628906 28.691406 107.429688 27.734375 105.78125 27.589844 C 104.09375 27.445312 102.390625 28.1875 100.722656 29.796875 C 96.480469 33.890625 97.4375 42.679688 97.898438 45.597656 C 98.054688 45.035156 98.320312 44.472656 98.554688 43.941406 C 98.164062 40.332031 97.976562 33.640625 101.320312 30.417969 C 102.800781 28.988281 104.273438 28.328125 105.699219 28.449219 C 107.726562 28.621094 109.011719 30.34375 109.023438 30.363281 L 109.511719 31.03125 L 109.777344 30.246094 C 109.792969 30.199219 111.460938 25.496094 116.75 25.496094 C 118.464844 25.496094 120.378906 26.589844 122.136719 28.578125 C 124.542969 31.289062 126.261719 35.089844 126.933594 38.851562 C 127.09375 38.976562 127.246094 39.132812 127.375 39.335938 "/>
<path style=" stroke:none;fill-rule:evenodd;fill:rgb(5.099487%,5.099487%,5.099487%);fill-opacity:1;" d="M 125.609375 82.753906 C 125.351562 80.0625 124.796875 77.976562 124.355469 76.652344 C 124.324219 76.664062 124.289062 76.675781 124.25 76.675781 C 124.148438 76.671875 124.050781 76.652344 123.953125 76.636719 C 124.394531 77.929688 124.976562 80.042969 125.234375 82.808594 C 125.648438 87.175781 125.328125 94.089844 121.464844 102.277344 L 120.515625 102.277344 C 120.433594 102.105469 120.289062 101.710938 120.511719 101.332031 L 121.410156 101.269531 L 121.460938 101.179688 C 121.476562 101.148438 123.023438 98.289062 124.078125 93.890625 C 125.054688 89.828125 125.800781 83.585938 123.816406 76.898438 L 123.457031 77.003906 C 125.414062 83.605469 124.679688 89.777344 123.71875 93.789062 C 122.777344 97.710938 121.445312 100.394531 121.175781 100.90625 L 120.304688 100.96875 L 120.253906 101.039062 C 119.734375 101.761719 120.226562 102.535156 120.25 102.566406 L 120.304688 102.652344 L 121.703125 102.652344 L 121.753906 102.546875 C 125.703125 94.226562 126.03125 87.191406 125.609375 82.753906 "/>
<path style=" stroke:none;fill-rule:evenodd;fill:rgb(5.099487%,5.099487%,5.099487%);fill-opacity:1;" d="M 122.417969 100.570312 C 122.40625 100.59375 122.398438 100.621094 122.394531 100.648438 C 122.390625 100.667969 122.386719 100.683594 122.382812 100.6875 C 122.40625 100.886719 122.28125 101.027344 122.125 101.082031 C 122.152344 101.484375 122.128906 101.914062 122.050781 102.351562 C 121.761719 104 120.792969 105.242188 119.789062 105.347656 C 119.671875 105.359375 119.554688 105.355469 119.4375 105.332031 C 119.277344 105.304688 119.128906 105.246094 118.988281 105.164062 C 118.15625 104.660156 117.722656 103.21875 118 101.636719 C 118.277344 100.058594 119.183594 98.851562 120.136719 98.664062 C 120.296875 98.632812 120.457031 98.628906 120.613281 98.65625 C 120.734375 98.679688 120.84375 98.714844 120.949219 98.765625 C 121.320312 98.945312 121.621094 99.300781 121.824219 99.769531 C 121.832031 99.746094 121.839844 99.71875 121.851562 99.695312 C 121.894531 99.566406 121.980469 99.492188 122.078125 99.453125 C 121.984375 99.265625 121.875 99.097656 121.75 98.949219 C 121.542969 98.695312 121.296875 98.503906 121.019531 98.386719 C 120.910156 98.34375 120.796875 98.308594 120.679688 98.289062 C 119.359375 98.054688 117.992188 99.53125 117.628906 101.574219 C 117.269531 103.617188 118.050781 105.46875 119.371094 105.703125 C 119.488281 105.722656 119.605469 105.730469 119.722656 105.726562 C 120.023438 105.710938 120.324219 105.613281 120.605469 105.449219 C 121.457031 104.945312 122.175781 103.816406 122.421875 102.417969 C 122.539062 101.753906 122.535156 101.113281 122.433594 100.539062 C 122.425781 100.550781 122.421875 100.558594 122.417969 100.570312 "/>
<path style=" stroke:none;fill-rule:evenodd;fill:rgb(5.099487%,5.099487%,5.099487%);fill-opacity:1;" d="M 120.128906 105.453125 C 120.011719 105.433594 119.898438 105.398438 119.789062 105.347656 C 118.886719 104.90625 118.398438 103.40625 118.691406 101.761719 C 118.980469 100.113281 119.949219 98.871094 120.949219 98.765625 C 121.070312 98.753906 121.1875 98.757812 121.304688 98.78125 C 121.464844 98.808594 121.613281 98.867188 121.75 98.949219 C 121.542969 98.695312 121.296875 98.503906 121.019531 98.386719 C 120.71875 98.402344 120.421875 98.496094 120.136719 98.664062 C 119.285156 99.164062 118.566406 100.296875 118.320312 101.695312 C 118.074219 103.09375 118.359375 104.402344 118.988281 105.164062 C 119.199219 105.417969 119.445312 105.609375 119.722656 105.726562 C 120.023438 105.710938 120.324219 105.613281 120.605469 105.449219 C 120.445312 105.480469 120.285156 105.484375 120.128906 105.453125 "/>
<path style=" stroke:none;fill-rule:evenodd;fill:rgb(5.099487%,5.099487%,5.099487%);fill-opacity:1;" d="M 123.625 97.578125 C 123.382812 97.570312 122.910156 97.398438 122.855469 97.378906 L 122.988281 97.023438 C 123.164062 97.09375 123.496094 97.199219 123.632812 97.199219 L 123.625 97.578125 "/>
<path style=" stroke:none;fill-rule:evenodd;fill:rgb(5.099487%,5.099487%,5.099487%);fill-opacity:1;" d="M 103.148438 94.003906 C 102.761719 94.003906 102.328125 93.753906 102.226562 93.691406 L 102.15625 93.648438 L 102.140625 93.566406 C 102.125 93.488281 101.820312 91.726562 103.144531 90.304688 C 103.085938 89.828125 102.8125 87.558594 102.882812 84.894531 C 102.984375 80.863281 103.769531 77.894531 105.21875 76.070312 L 105.511719 76.304688 C 102.175781 80.511719 103.515625 90.246094 103.53125 90.34375 L 103.542969 90.433594 L 103.476562 90.5 C 102.378906 91.625 102.457031 93.058594 102.5 93.414062 C 102.703125 93.527344 102.992188 93.636719 103.175781 93.628906 C 103.136719 93.089844 103.09375 91.472656 103.914062 91.046875 C 104.886719 90.542969 106.214844 92.035156 106.625 92.539062 C 106.757812 92.414062 106.921875 92.222656 106.992188 92.03125 C 106.757812 91.691406 105.644531 90.199219 104.199219 90.273438 L 104.027344 90.285156 L 104.003906 90.113281 C 103.949219 89.738281 102.679688 80.851562 105.539062 76.738281 L 105.84375 76.953125 C 103.28125 80.648438 104.191406 88.652344 104.351562 89.898438 C 106.101562 89.925781 107.300781 91.8125 107.355469 91.898438 L 107.394531 91.960938 L 107.378906 92.035156 C 107.269531 92.539062 106.734375 92.945312 106.710938 92.960938 L 106.558594 93.074219 L 106.449219 92.921875 C 105.96875 92.269531 104.757812 91.035156 104.085938 91.382812 C 103.488281 91.691406 103.503906 93.191406 103.5625 93.742188 L 103.574219 93.863281 L 103.46875 93.925781 C 103.371094 93.980469 103.261719 94.003906 103.148438 94.003906 "/>
<path style=" stroke:none;fill-rule:evenodd;fill:rgb(5.099487%,5.099487%,5.099487%);fill-opacity:1;" d="M 109.8125 96.476562 C 108.804688 93.691406 107.339844 91.984375 107.277344 91.914062 L 107.1875 91.808594 L 107.058594 91.917969 C 107.078125 92.007812 107.101562 92.105469 107.09375 92.195312 C 107.09375 92.21875 107.089844 92.242188 107.085938 92.265625 L 107.15625 92.207031 C 107.492188 92.625 108.6875 94.191406 109.550781 96.570312 C 110.464844 99.097656 111.144531 103.042969 109.195312 107.480469 L 109.101562 107.691406 L 107.417969 107.445312 L 107.503906 106.851562 L 108.734375 107.027344 L 108.773438 106.925781 C 110.144531 103.621094 110.21875 100.214844 108.992188 96.808594 C 108.191406 94.582031 107.054688 93.050781 106.710938 92.617188 C 106.703125 92.621094 106.695312 92.621094 106.6875 92.621094 C 106.589844 92.632812 106.480469 92.574219 106.414062 92.511719 C 106.410156 92.503906 106.40625 92.496094 106.398438 92.492188 L 106.304688 92.574219 L 106.398438 92.679688 C 106.410156 92.695312 107.800781 94.324219 108.726562 96.902344 C 109.917969 100.207031 109.859375 103.507812 108.554688 106.71875 L 107.265625 106.53125 L 107.097656 107.683594 L 109.273438 108 L 109.453125 107.59375 C 111.441406 103.070312 110.746094 99.050781 109.8125 96.476562 "/>
<path style=" stroke:none;fill-rule:evenodd;fill:rgb(5.099487%,5.099487%,5.099487%);fill-opacity:1;" d="M 106.089844 107.988281 C 105.984375 107.988281 105.890625 107.9375 105.824219 107.847656 C 105.632812 107.574219 105.699219 106.933594 105.875 106.492188 C 105.988281 106.199219 106.226562 106.015625 106.503906 106.003906 C 106.734375 105.996094 106.941406 106.097656 107.023438 106.265625 C 107.074219 106.367188 107.523438 106.535156 107.894531 106.621094 L 107.828125 106.898438 C 107.617188 106.847656 106.90625 106.664062 106.769531 106.390625 C 106.742188 106.335938 106.640625 106.28125 106.515625 106.285156 C 106.417969 106.289062 106.238281 106.335938 106.136719 106.59375 C 105.964844 107.03125 105.949219 107.539062 106.054688 107.683594 C 106.070312 107.707031 106.082031 107.707031 106.09375 107.703125 C 106.195312 107.699219 106.328125 107.65625 106.484375 107.609375 C 106.769531 107.515625 107.125 107.402344 107.515625 107.460938 L 108.03125 107.535156 L 107.988281 107.8125 L 107.472656 107.738281 C 107.148438 107.691406 106.839844 107.789062 106.566406 107.875 C 106.394531 107.933594 106.246094 107.980469 106.105469 107.988281 C 106.101562 107.988281 106.09375 107.988281 106.089844 107.988281 "/>
<path style=" stroke:none;fill-rule:evenodd;fill:rgb(5.099487%,5.099487%,5.099487%);fill-opacity:1;" d="M 109.011719 105.660156 C 109.011719 105.652344 109.015625 105.644531 109.015625 105.640625 C 109.050781 105.542969 109.109375 105.476562 109.175781 105.433594 C 106.722656 103.703125 105.007812 101.328125 104.070312 98.355469 C 103.25 95.742188 103.371094 93.601562 103.371094 93.582031 L 103.378906 93.441406 L 103.253906 93.433594 C 103.253906 93.441406 103.253906 93.449219 103.253906 93.457031 C 103.242188 93.546875 103.1875 93.664062 103.105469 93.710938 C 103.097656 93.714844 103.089844 93.71875 103.085938 93.722656 C 103.070312 94.273438 103.09375 96.179688 103.800781 98.4375 C 104.757812 101.46875 106.507812 103.894531 109.011719 105.660156 "/>
<path style=" stroke:none;fill-rule:evenodd;fill:rgb(5.099487%,5.099487%,5.099487%);fill-opacity:1;" d="M 111.0625 105.132812 L 110.148438 106.0625 C 110.046875 106.003906 109.949219 105.941406 109.851562 105.878906 C 109.851562 105.890625 109.851562 105.902344 109.847656 105.910156 C 109.832031 106 109.816406 106.089844 109.796875 106.179688 C 109.898438 106.242188 110 106.300781 110.101562 106.363281 L 110.195312 106.417969 L 111.066406 105.53125 L 111.496094 105.953125 L 110.304688 107.167969 L 110.101562 107.058594 C 109.953125 106.976562 109.8125 106.890625 109.671875 106.804688 C 109.667969 106.820312 109.664062 106.835938 109.660156 106.851562 L 109.589844 107.0625 C 109.707031 107.15625 109.835938 107.230469 109.964844 107.304688 L 110.355469 107.519531 L 111.894531 105.949219 L 111.0625 105.132812 "/>
<path style=" stroke:none;fill-rule:evenodd;fill:rgb(5.099487%,5.099487%,5.099487%);fill-opacity:1;" d="M 108.75 106.507812 C 108.789062 106.4375 108.820312 106.359375 108.847656 106.277344 C 105.488281 103.96875 103.933594 100.882812 103.21875 98.585938 C 102.464844 96.171875 102.464844 94.199219 102.480469 93.664062 L 102.570312 93.671875 C 102.554688 93.652344 102.539062 93.636719 102.523438 93.617188 C 102.460938 93.550781 102.425781 93.457031 102.382812 93.375 L 102.214844 93.363281 L 102.207031 93.503906 C 102.199219 93.601562 102.066406 95.84375 102.949219 98.667969 C 103.683594 101.023438 105.28125 104.1875 108.734375 106.542969 C 108.742188 106.53125 108.746094 106.519531 108.75 106.507812 "/>
<path style=" stroke:none;fill-rule:evenodd;fill:rgb(5.099487%,5.099487%,5.099487%);fill-opacity:1;" d="M 112.882812 105.582031 C 112.964844 105.515625 113.007812 105.421875 113.007812 105.308594 C 112.996094 104.976562 112.554688 104.503906 112.148438 104.257812 C 111.878906 104.097656 111.578125 104.09375 111.351562 104.253906 C 111.160156 104.382812 111.0625 104.59375 111.09375 104.773438 C 111.117188 104.886719 110.859375 105.292969 110.617188 105.585938 L 110.835938 105.765625 C 110.976562 105.597656 111.429688 105.023438 111.371094 104.722656 C 111.359375 104.660156 111.410156 104.554688 111.511719 104.484375 C 111.589844 104.429688 111.761719 104.355469 112 104.5 C 112.402344 104.742188 112.71875 105.140625 112.722656 105.316406 C 112.726562 105.347656 112.714844 105.351562 112.707031 105.359375 C 112.625 105.417969 112.492188 105.460938 112.339844 105.515625 C 112.054688 105.617188 111.703125 105.742188 111.429688 106.023438 L 111.0625 106.394531 L 111.265625 106.59375 L 111.628906 106.222656 C 111.859375 105.988281 112.164062 105.878906 112.433594 105.78125 C 112.605469 105.722656 112.753906 105.667969 112.867188 105.589844 C 112.871094 105.585938 112.878906 105.582031 112.882812 105.582031 "/>
<path style=" stroke:none;fill-rule:evenodd;fill:rgb(5.099487%,5.099487%,5.099487%);fill-opacity:1;" d="M 111.421875 137.414062 C 101.269531 137.015625 97.019531 134.050781 96.25 133.441406 C 96.246094 133.300781 96.25 133.160156 96.257812 133.011719 C 96.78125 129.054688 97.808594 126.046875 98.609375 123.703125 C 99.074219 122.34375 99.476562 121.167969 99.65625 120.15625 C 99.785156 119.433594 99.941406 118.550781 100.105469 117.621094 L 100.328125 116.125 L 100.5 114.972656 C 101.035156 112.089844 101.222656 109.328125 101.210938 107.996094 C 101.203125 106.925781 100.59375 105.199219 99.945312 103.367188 C 99.25 101.394531 98.457031 99.15625 98.519531 97.882812 C 98.636719 95.472656 101.121094 88.351562 101.1875 88.171875 C 101.15625 88.222656 100.667969 89.042969 100.082031 90.210938 C 99.472656 91.417969 98.757812 92.992188 98.324219 94.464844 C 97.96875 95.804688 97.699219 97.046875 97.660156 97.839844 C 97.589844 99.28125 98.375 101.503906 99.136719 103.652344 C 99.730469 105.335938 100.34375 107.078125 100.351562 108.003906 C 100.359375 109.273438 100.164062 112.082031 99.625 114.953125 L 99.503906 115.765625 L 99.257812 117.460938 C 99.09375 118.398438 98.9375 119.28125 98.808594 120.003906 C 98.640625 120.953125 98.25 122.097656 97.792969 123.425781 C 97.46875 124.375 97.109375 125.429688 96.757812 126.609375 C 96.25 128.328125 95.761719 130.3125 95.441406 132.621094 L 95.195312 133.699219 L 95.578125 134.003906 C 95.65625 134.074219 95.824219 134.214844 96.097656 134.40625 C 96.324219 134.566406 96.625 134.761719 97.003906 134.976562 C 97.246094 135.117188 97.523438 135.265625 97.835938 135.417969 C 100.15625 136.5625 104.414062 138.007812 111.410156 138.273438 C 113.429688 138.351562 115.714844 138.34375 117.71875 138.242188 C 119.886719 138.128906 121.777344 137.90625 123.421875 137.613281 C 123.402344 137.574219 123.386719 137.53125 123.371094 137.488281 C 123.292969 137.226562 123.292969 136.976562 123.347656 136.738281 C 121.71875 137.035156 119.835938 137.265625 117.671875 137.378906 C 115.632812 137.488281 113.46875 137.492188 111.421875 137.414062 "/>
<path style=" stroke:none;fill-rule:evenodd;fill:rgb(5.099487%,5.099487%,5.099487%);fill-opacity:1;" d="M 109.554688 53.035156 C 109.199219 53.003906 108.335938 50.804688 106.863281 50.773438 C 105.386719 50.742188 104.511719 52.882812 104.511719 52.882812 C 105.066406 50.453125 106.984375 49.746094 108.261719 50.773438 C 109.539062 51.804688 109.90625 53.066406 109.554688 53.035156 "/>
<path style=" stroke:none;fill-rule:evenodd;fill:rgb(5.099487%,5.099487%,5.099487%);fill-opacity:1;" d="M 124.054688 52.882812 C 124.054688 52.882812 123.179688 50.742188 121.703125 50.773438 C 120.230469 50.804688 119.367188 53.003906 119.015625 53.035156 C 118.660156 53.066406 119.03125 51.804688 120.304688 50.773438 C 120.671875 50.476562 121.09375 50.328125 121.519531 50.316406 C 122.285156 50.308594 123.054688 50.742188 123.570312 51.625 C 123.777344 51.976562 123.945312 52.394531 124.054688 52.882812 "/>
<path style=" stroke:none;fill-rule:evenodd;fill:rgb(5.099487%,5.099487%,5.099487%);fill-opacity:1;" d="M 127.878906 114.972656 L 128.054688 116.125 L 128.210938 117.183594 C 128.5 117.050781 128.84375 117.054688 129.089844 117.234375 L 128.878906 115.765625 L 128.757812 114.953125 C 128.214844 112.082031 128.023438 109.273438 128.03125 108.003906 C 128.039062 107.078125 128.652344 105.335938 129.246094 103.652344 C 130.007812 101.503906 130.792969 99.28125 130.722656 97.839844 C 130.683594 97.046875 130.414062 95.804688 130.058594 94.464844 C 129.625 92.992188 128.910156 91.417969 128.300781 90.210938 C 127.710938 89.042969 127.226562 88.222656 127.195312 88.171875 C 127.261719 88.351562 129.742188 95.472656 129.863281 97.882812 C 129.921875 99.15625 129.132812 101.394531 128.433594 103.367188 C 127.789062 105.199219 127.175781 106.925781 127.167969 107.996094 C 127.160156 109.328125 127.347656 112.089844 127.878906 114.953125 L 127.878906 114.972656 "/>
<path style=" stroke:none;fill-rule:evenodd;fill:rgb(5.099487%,5.099487%,5.099487%);fill-opacity:1;" d="M 145.617188 111.914062 C 145.027344 109.117188 142.976562 102.0625 142.179688 99.351562 C 142.039062 99.628906 141.726562 99.828125 141.429688 99.855469 C 142.269531 102.722656 144.207031 109.40625 144.773438 112.09375 C 145.230469 114.261719 143.074219 117.652344 140.34375 121.941406 C 138.960938 124.113281 137.394531 126.574219 135.929688 129.257812 L 135.910156 129.296875 L 135.898438 129.339844 C 135.023438 132.207031 133.289062 136.980469 132.363281 137.585938 C 132.351562 137.589844 131.394531 138.175781 130.050781 137.847656 C 126.859375 137.0625 126.476562 137.128906 126.308594 137.15625 C 126.117188 137.1875 125.933594 137.296875 125.699219 137.4375 C 125.292969 137.679688 124.785156 137.980469 124.273438 137.847656 C 124.046875 137.789062 123.746094 137.660156 123.613281 137.386719 C 123.496094 137.148438 123.519531 136.820312 123.671875 136.460938 C 123.792969 136.175781 124.148438 135.566406 124.5625 134.863281 C 125.46875 133.304688 126.601562 131.367188 126.863281 130.238281 L 126.976562 129.746094 L 126.472656 129.710938 C 126.433594 129.707031 125.496094 129.652344 123.828125 130.292969 C 123.046875 130.59375 122.300781 130.3125 121.90625 129.902344 C 121.78125 129.765625 121.5 129.410156 121.671875 129.023438 C 121.84375 128.636719 122.449219 128.527344 123.148438 128.398438 C 123.878906 128.261719 124.703125 128.109375 125.359375 127.589844 C 126.609375 126.585938 127.1875 126.496094 127.9375 126.683594 C 128.953125 126.9375 131.5 127.035156 131.605469 127.042969 L 131.929688 127.054688 L 132.03125 126.746094 C 132.140625 126.421875 134.675781 118.777344 135.347656 115.34375 C 135.988281 112.09375 136.679688 111.097656 136.6875 111.09375 L 136.8125 110.921875 L 136.753906 110.714844 C 136.699219 110.515625 135.625 106.792969 134.367188 103.59375 C 134.160156 103.820312 133.855469 103.957031 133.570312 103.925781 C 134.667969 106.726562 135.640625 109.976562 135.875 110.773438 C 135.625 111.210938 135.039062 112.457031 134.503906 115.179688 C 133.917969 118.171875 131.804688 124.675781 131.316406 126.167969 C 130.597656 126.132812 128.875 126.03125 128.144531 125.851562 C 127.023438 125.570312 126.152344 125.847656 124.820312 126.914062 C 124.335938 127.304688 123.652344 127.429688 122.992188 127.550781 C 122.132812 127.710938 121.242188 127.875 120.882812 128.675781 C 120.621094 129.269531 120.769531 129.949219 121.285156 130.492188 C 121.875 131.113281 122.984375 131.539062 124.136719 131.097656 C 124.878906 130.8125 125.453125 130.679688 125.835938 130.621094 C 125.417969 131.683594 124.511719 133.238281 123.820312 134.429688 C 123.375 135.1875 123.023438 135.789062 122.882812 136.117188 C 122.625 136.710938 122.609375 137.296875 122.839844 137.765625 C 123.0625 138.214844 123.480469 138.53125 124.058594 138.683594 C 124.921875 138.90625 125.65625 138.464844 126.140625 138.175781 C 126.253906 138.109375 126.40625 138.019531 126.449219 138.003906 C 126.519531 137.996094 127.015625 137.988281 129.84375 138.683594 C 130.210938 138.773438 130.550781 138.808594 130.867188 138.808594 C 132.011719 138.808594 132.78125 138.339844 132.824219 138.308594 C 134.28125 137.359375 136.285156 131.011719 136.707031 129.632812 C 138.152344 126.988281 139.703125 124.554688 141.070312 122.402344 C 143.90625 117.949219 146.144531 114.429688 145.617188 111.914062 "/>
<path style=" stroke:none;fill-rule:evenodd;fill:rgb(5.099487%,5.099487%,5.099487%);fill-opacity:1;" d="M 97.128906 80.109375 C 96.003906 80.609375 94.511719 81.417969 93.808594 82.429688 C 93.140625 83.398438 91.734375 86.410156 90.691406 88.726562 C 90.8125 88.738281 90.9375 88.78125 91.066406 88.855469 C 91.226562 88.953125 91.339844 89.070312 91.421875 89.203125 C 92.460938 86.898438 93.875 83.847656 94.515625 82.921875 C 95.089844 82.09375 96.382812 81.390625 97.398438 80.933594 C 100.671875 79.464844 104.730469 77.261719 107.941406 75.492188 C 108.488281 75.191406 108.855469 74.988281 109.105469 74.839844 C 108.957031 74.578125 109.019531 74.417969 108.886719 73.96875 C 107.210938 75.089844 98.671875 79.425781 97.128906 80.109375 "/>
<path style=" stroke:none;fill-rule:evenodd;fill:rgb(5.099487%,5.099487%,5.099487%);fill-opacity:1;" d="M 98.453125 99.535156 C 98.316406 99.011719 98.234375 98.464844 98.21875 97.910156 L 95.148438 106.96875 C 94.816406 106.914062 94.273438 106.820312 93.652344 106.695312 C 93.628906 106.757812 93.597656 106.820312 93.558594 106.878906 C 93.417969 107.070312 93.296875 107.273438 93.175781 107.476562 C 94.375 107.722656 95.363281 107.878906 95.375 107.878906 L 95.734375 107.933594 L 98.515625 99.714844 C 98.492188 99.660156 98.46875 99.597656 98.453125 99.535156 "/>
<path style=" stroke:none;fill-rule:evenodd;fill:rgb(5.099487%,5.099487%,5.099487%);fill-opacity:1;" d="M 88.242188 81.859375 C 87.867188 81.257812 87.347656 80.925781 86.746094 80.90625 C 85.59375 80.867188 84.683594 81.164062 84.121094 81.769531 C 83.601562 82.324219 83.390625 83.101562 83.492188 84.082031 C 83.6875 85.964844 83.167969 89.765625 83.160156 89.804688 L 83.558594 89.859375 C 83.71875 89.761719 83.882812 89.671875 84.058594 89.59375 C 84.183594 88.601562 84.519531 85.660156 84.347656 83.992188 C 84.273438 83.273438 84.410156 82.722656 84.75 82.355469 C 85.242188 81.828125 86.089844 81.742188 86.714844 81.765625 C 87.023438 81.777344 87.289062 81.960938 87.511719 82.316406 C 88.152344 83.34375 88.273438 85.714844 87.394531 87.847656 C 87.484375 87.847656 87.570312 87.859375 87.660156 87.886719 C 87.769531 87.859375 87.882812 87.828125 87.996094 87.8125 C 88.117188 87.796875 88.226562 87.785156 88.335938 87.796875 C 89.101562 85.664062 89.082031 83.207031 88.242188 81.859375 "/>
<path style=" stroke:none;fill-rule:evenodd;fill:rgb(5.099487%,5.099487%,5.099487%);fill-opacity:1;" d="M 95.140625 107.527344 C 95.128906 107.472656 93.722656 101.898438 90.003906 99.816406 L 90.304688 99.277344 C 94.257812 101.496094 95.679688 107.140625 95.738281 107.378906 L 95.140625 107.527344 "/>
<path style=" stroke:none;fill-rule:evenodd;fill:rgb(5.099487%,5.099487%,5.099487%);fill-opacity:1;" d="M 89.679688 108.507812 C 89.679688 108.507812 90.792969 107.175781 90.007812 104.539062 C 89.582031 103.265625 89.066406 102.359375 89.027344 102.289062 L 88.28125 102.71875 C 88.296875 102.75 90.027344 105.792969 89.679688 108.507812 "/>
<path style=" stroke:none;fill-rule:evenodd;fill:rgb(5.099487%,5.099487%,5.099487%);fill-opacity:1;" d="M 94.644531 105.113281 C 94.523438 104.859375 94.4375 104.601562 94.382812 104.34375 C 93.726562 105.636719 92.761719 107.453125 91.644531 109.296875 C 88.925781 113.769531 86.554688 116.347656 84.785156 116.75 C 84.121094 116.898438 83.53125 116.699219 82.980469 116.140625 C 80.355469 113.472656 79.359375 103.050781 82.304688 90.828125 C 83.03125 90.417969 86.0625 88.742188 87.867188 88.230469 C 88.320312 88.386719 89.871094 88.910156 90.871094 89.171875 C 91.117188 89.546875 91.535156 90.332031 91.460938 90.921875 C 91.375 91.621094 90.53125 92.71875 90.210938 93.082031 L 90.101562 93.207031 L 90.105469 93.375 C 90.105469 93.433594 90.214844 99.21875 89.421875 101.386719 C 89.183594 101.648438 87.976562 102.808594 85.816406 102.742188 C 85.816406 102.742188 86.898438 103.5625 88.46875 103.078125 C 89.539062 102.589844 90.09375 101.929688 90.132812 101.886719 L 90.175781 101.832031 L 90.199219 101.769531 C 91.011719 99.683594 90.984375 94.527344 90.96875 93.519531 C 91.300781 93.121094 92.199219 91.964844 92.316406 91.03125 C 92.457031 89.910156 91.582031 88.675781 91.480469 88.539062 L 91.386719 88.414062 L 91.234375 88.375 C 90.144531 88.109375 88.042969 87.378906 88.023438 87.371094 L 87.898438 87.328125 L 87.769531 87.363281 C 85.636719 87.925781 81.875 90.082031 81.714844 90.171875 L 81.554688 90.265625 L 81.511719 90.445312 C 78.726562 101.871094 79.101562 113.425781 82.367188 116.742188 C 82.960938 117.347656 83.644531 117.65625 84.371094 117.65625 C 84.570312 117.65625 84.773438 117.632812 84.972656 117.589844 C 88.503906 116.789062 92.757812 109.378906 94.828125 105.367188 C 94.757812 105.300781 94.699219 105.21875 94.644531 105.113281 "/>
<path style=" stroke:none;fill-rule:evenodd;fill:rgb(5.099487%,5.099487%,5.099487%);fill-opacity:1;" d="M 90.503906 93.097656 C 90.503906 93.097656 89.0625 92.296875 88.628906 92.390625 C 88.199219 92.484375 85.523438 93.710938 85.523438 93.710938 C 85.523438 93.710938 88.484375 93.464844 90.109375 93.710938 L 90.503906 93.097656 "/>
<path style=" stroke:none;fill-rule:evenodd;fill:rgb(5.099487%,5.099487%,5.099487%);fill-opacity:1;" d="M 90.289062 96.449219 C 90.289062 96.449219 87.707031 96.910156 85.523438 96.816406 C 85.523438 96.816406 87.703125 97.449219 90.289062 97.023438 L 90.289062 96.449219 "/>
<path style=" stroke:none;fill-rule:evenodd;fill:rgb(5.099487%,5.099487%,5.099487%);fill-opacity:1;" d="M 90.128906 99.183594 C 90.128906 99.183594 87.835938 99.84375 85.851562 99.921875 C 85.851562 99.921875 87.875 100.382812 90.179688 99.757812 L 90.128906 99.183594 "/>
<path style=" stroke:none;fill-rule:evenodd;fill:rgb(5.099487%,5.099487%,5.099487%);fill-opacity:1;" d="M 123.148438 136.898438 C 123.148438 136.867188 123.152344 136.835938 123.15625 136.808594 L 116.445312 135.996094 C 115.875 135.925781 115.46875 135.410156 115.535156 134.839844 L 117.519531 118.464844 C 117.585938 117.894531 118.105469 117.488281 118.675781 117.558594 L 134.035156 119.417969 C 134.039062 119.25 134.070312 119.089844 134.113281 118.933594 L 118.734375 117.070312 C 117.894531 116.96875 117.132812 117.570312 117.03125 118.40625 L 115.046875 134.78125 C 114.945312 135.617188 115.546875 136.382812 116.382812 136.484375 L 123.230469 137.3125 C 123.175781 137.1875 123.144531 137.050781 123.148438 136.898438 "/>
<path style=" stroke:none;fill-rule:evenodd;fill:rgb(5.099487%,5.099487%,5.099487%);fill-opacity:1;" d="M 144.039062 120.132812 L 142.148438 119.90625 C 142.140625 120.078125 142.082031 120.242188 141.980469 120.378906 L 143.980469 120.621094 C 144.546875 120.691406 144.953125 121.210938 144.886719 121.777344 L 142.902344 138.152344 C 142.835938 138.71875 142.316406 139.128906 141.746094 139.058594 L 132.523438 137.941406 C 132.519531 138.109375 132.472656 138.273438 132.367188 138.417969 L 141.6875 139.546875 C 142.527344 139.648438 143.289062 139.050781 143.390625 138.210938 L 145.375 121.835938 C 145.476562 121 144.875 120.234375 144.039062 120.132812 "/>
<path style=" stroke:none;fill-rule:evenodd;fill:rgb(5.099487%,5.099487%,5.099487%);fill-opacity:1;" d="M 117.234375 116.726562 L 116.046875 126.539062 C 116.003906 126.898438 116.140625 127.234375 116.382812 127.445312 C 116.320312 127.070312 116.402344 126.753906 116.425781 126.355469 C 116.4375 126.136719 116.511719 125.96875 116.625 125.847656 L 117.722656 116.785156 C 117.757812 116.5 117.984375 116.289062 118.230469 116.316406 L 131.914062 117.972656 C 132.160156 118.003906 132.332031 118.261719 132.296875 118.550781 L 132.242188 119.003906 C 132.375 118.949219 132.523438 118.925781 132.675781 118.945312 L 132.707031 118.949219 C 132.71875 118.949219 132.730469 118.953125 132.742188 118.953125 L 132.785156 118.609375 C 132.851562 118.050781 132.488281 117.546875 131.972656 117.484375 L 118.289062 115.828125 C 117.773438 115.769531 117.300781 116.167969 117.234375 116.726562 "/>
<path style=" stroke:none;fill-rule:evenodd;fill:rgb(100%,100%,100%);fill-opacity:1;" d="M 118.175781 65.800781 C 117.765625 66.730469 116.6875 68.535156 114.40625 68.921875 C 114.40625 68.921875 111.285156 68.605469 110.535156 65.628906 C 110.511719 65.527344 110.640625 65.335938 110.773438 65.429688 C 111.699219 66.085938 114.480469 67.628906 117.957031 65.523438 C 118.058594 65.460938 118.265625 65.605469 118.175781 65.800781 "/>
<path style=" stroke:none;fill-rule:evenodd;fill:rgb(92.549133%,5.099487%,36.468506%);fill-opacity:1;" d="M 114.386719 65.71875 C 114.386719 65.71875 114.660156 65.285156 115.042969 65.320312 C 115.378906 65.351562 116.953125 65.644531 117.839844 65.441406 C 117.867188 65.433594 118.042969 65.421875 117.882812 65.519531 C 117.332031 65.871094 116.023438 66.5625 114.261719 66.589844 C 114.261719 66.589844 111.535156 66.121094 111.117188 65.503906 C 111.117188 65.503906 112.167969 65.539062 112.859375 65.410156 C 113.550781 65.285156 113.910156 65.140625 114.386719 65.71875 "/>
<path style=" stroke:none;fill-rule:evenodd;fill:rgb(92.549133%,5.099487%,36.468506%);fill-opacity:1;" d="M 117.515625 67.046875 C 117.515625 67.046875 116.308594 68.464844 115.050781 68.765625 C 113.796875 69.066406 113.21875 68.601562 113.21875 68.601562 C 113.21875 68.601562 111.625 67.78125 111.226562 67.113281 C 111.226562 67.113281 111.824219 69.8125 114.007812 70.011719 C 116.1875 70.210938 117.410156 68.246094 117.515625 67.046875 "/>
<path style=" stroke:none;fill-rule:evenodd;fill:rgb(5.099487%,5.099487%,5.099487%);fill-opacity:1;" d="M 117.761719 65.363281 C 116.988281 65.890625 116.140625 66.160156 115.484375 66.296875 C 114.707031 66.457031 114.257812 66.476562 113.488281 66.34375 C 112.800781 66.226562 111.8125 65.957031 110.921875 65.34375 C 110.816406 65.375 110.609375 65.480469 110.6875 65.539062 C 111.613281 66.195312 112.652344 66.492188 113.386719 66.621094 C 114.214844 66.769531 114.707031 66.753906 115.542969 66.578125 C 116.246094 66.433594 117.15625 66.140625 117.980469 65.5625 C 118.1875 65.417969 117.804688 65.332031 117.761719 65.363281 Z M 115.160156 68.632812 C 115.933594 68.386719 117.230469 67.671875 118.050781 65.636719 C 118.09375 65.53125 118.296875 65.804688 118.25 65.910156 C 117.394531 67.886719 116.070312 68.625 115.25 68.894531 C 114.675781 69.085938 114.222656 69.113281 113.648438 68.953125 C 112.847656 68.734375 111.359375 68.039062 110.433594 65.855469 C 110.402344 65.777344 110.597656 65.492188 110.640625 65.59375 C 111.53125 67.847656 113 68.5 113.742188 68.6875 C 114.230469 68.8125 114.671875 68.785156 115.160156 68.632812 "/>
<path style=" stroke:none;fill-rule:evenodd;fill:rgb(5.099487%,5.099487%,5.099487%);fill-opacity:1;" d="M 115.390625 65.230469 C 115.191406 65.199219 115.042969 65.175781 114.949219 65.171875 C 114.703125 65.167969 114.503906 65.316406 114.355469 65.492188 C 114.203125 65.316406 114.003906 65.167969 113.757812 65.171875 C 113.664062 65.175781 113.515625 65.199219 113.316406 65.230469 C 112.75 65.3125 111.757812 65.460938 110.980469 65.269531 C 110.820312 65.230469 110.832031 65.53125 110.835938 65.53125 C 111.691406 65.765625 112.753906 65.609375 113.359375 65.515625 C 113.542969 65.488281 113.6875 65.46875 113.765625 65.464844 C 113.921875 65.457031 114.066406 65.582031 114.179688 65.734375 C 114.25 65.828125 114.308594 65.933594 114.351562 66.023438 C 114.398438 65.9375 114.457031 65.832031 114.527344 65.734375 C 114.644531 65.589844 114.789062 65.464844 114.941406 65.464844 C 115.015625 65.46875 115.164062 65.488281 115.347656 65.515625 C 115.957031 65.609375 117.03125 65.769531 117.890625 65.527344 C 117.898438 65.511719 117.664062 65.285156 117.65625 65.289062 C 116.886719 65.453125 115.941406 65.3125 115.390625 65.230469 "/>
<path style=" stroke:none;fill-rule:evenodd;fill:rgb(5.099487%,5.099487%,5.099487%);fill-opacity:1;" d="M 117.421875 67.0625 C 116.976562 68.707031 115.769531 69.886719 114.355469 69.886719 C 112.890625 69.886719 111.652344 68.628906 111.242188 66.902344 C 111.078125 66.777344 110.953125 66.613281 110.859375 66.429688 C 111.148438 68.554688 112.605469 70.179688 114.355469 70.179688 C 116.082031 70.179688 117.523438 68.59375 117.835938 66.507812 C 117.746094 66.722656 117.609375 66.914062 117.421875 67.0625 "/>
<path style=" stroke:none;fill-rule:evenodd;fill:rgb(5.099487%,5.099487%,5.099487%);fill-opacity:1;" d="M 118.007812 65.601562 C 117.699219 65.980469 116.722656 67.039062 115.289062 67.347656 C 115.289062 67.347656 116.867188 67.390625 117.832031 66.117188 C 117.832031 66.117188 118.085938 66.035156 118.113281 65.9375 C 118.226562 65.53125 118.078125 65.515625 118.007812 65.601562 "/>
<path style=" stroke:none;fill-rule:evenodd;fill:rgb(5.099487%,5.099487%,5.099487%);fill-opacity:1;" d="M 110.660156 65.550781 C 110.917969 65.878906 111.914062 67.023438 113.417969 67.347656 C 113.417969 67.347656 111.839844 67.390625 110.875 66.117188 C 110.875 66.117188 110.554688 65.890625 110.523438 65.796875 C 110.566406 65.605469 110.617188 65.496094 110.660156 65.550781 "/>
<path style=" stroke:none;fill-rule:evenodd;fill:rgb(5.099487%,5.099487%,5.099487%);fill-opacity:1;" d="M 111.445312 65.109375 C 110.847656 65.132812 110.011719 65.472656 110.269531 66.546875 C 110.394531 66.019531 110.902344 65.417969 111.445312 65.109375 "/>
<path style=" stroke:none;fill-rule:evenodd;fill:rgb(5.099487%,5.099487%,5.099487%);fill-opacity:1;" d="M 117.179688 65.109375 C 117.777344 65.132812 118.613281 65.472656 118.355469 66.546875 C 118.230469 66.019531 117.722656 65.417969 117.179688 65.109375 "/>
<path style=" stroke:none;fill-rule:evenodd;fill:rgb(5.099487%,5.099487%,5.099487%);fill-opacity:1;" d="M 105.667969 55.214844 C 105.667969 55.214844 105.046875 54.625 105.492188 53.769531 C 105.492188 53.769531 104.746094 54.5 105.378906 55.386719 L 105.632812 55.269531 L 105.667969 55.214844 "/>
<path style=" stroke:none;fill-rule:evenodd;fill:rgb(5.099487%,5.099487%,5.099487%);fill-opacity:1;" d="M 106.347656 55.289062 C 106.347656 55.289062 105.691406 54.570312 106.261719 53.636719 C 106.261719 53.636719 105.363281 54.40625 106.007812 55.460938 L 106.304688 55.347656 L 106.347656 55.289062 "/>
<path style=" stroke:none;fill-rule:evenodd;fill:rgb(5.099487%,5.099487%,5.099487%);fill-opacity:1;" d="M 107.011719 55.402344 C 107.011719 55.402344 106.453125 54.605469 107.132812 53.75 C 107.132812 53.75 106.144531 54.398438 106.652344 55.527344 L 106.960938 55.453125 L 107.011719 55.402344 "/>
<path style=" stroke:none;fill-rule:evenodd;fill:rgb(5.099487%,5.099487%,5.099487%);fill-opacity:1;" d="M 109.742188 57.144531 C 109.742188 57.144531 108.777344 54.925781 104.617188 55.117188 C 106.125 55.78125 108.21875 56.695312 109.742188 57.144531 "/>
<path style=" stroke:none;fill-rule:evenodd;fill:rgb(5.099487%,5.099487%,5.099487%);fill-opacity:1;" d="M 122.882812 55.214844 C 122.882812 55.214844 123.503906 54.625 123.058594 53.769531 C 123.058594 53.769531 123.804688 54.5 123.171875 55.386719 L 122.917969 55.269531 L 122.882812 55.214844 "/>
<path style=" stroke:none;fill-rule:evenodd;fill:rgb(5.099487%,5.099487%,5.099487%);fill-opacity:1;" d="M 122.203125 55.289062 C 122.203125 55.289062 122.859375 54.570312 122.292969 53.636719 C 122.292969 53.636719 123.1875 54.40625 122.542969 55.460938 L 122.246094 55.347656 L 122.203125 55.289062 "/>
<path style=" stroke:none;fill-rule:evenodd;fill:rgb(5.099487%,5.099487%,5.099487%);fill-opacity:1;" d="M 121.539062 55.402344 C 121.539062 55.402344 122.101562 54.605469 121.417969 53.75 C 121.417969 53.75 122.40625 54.398438 121.898438 55.527344 L 121.59375 55.453125 L 121.539062 55.402344 "/>
<path style=" stroke:none;fill-rule:evenodd;fill:rgb(5.099487%,5.099487%,5.099487%);fill-opacity:1;" d="M 118.808594 57.144531 C 118.808594 57.144531 119.777344 54.925781 123.933594 55.117188 C 122.425781 55.78125 120.332031 56.695312 118.808594 57.144531 "/>
</g>
</svg>
