<?xml version="1.0" encoding="UTF-8"?>
<svg class="person" viewBox="0 70 224.87999 2">
<defs>
<clipPath id="clip1">
  <path d="M 82.195312 70 L 142.910156 70 L 142.910156 191 L 82.195312 191 Z M 82.195312 70 "/>
</clipPath>
<clipPath id="clip2">
  <path d="M 121 70 L 142.910156 70 L 142.910156 96 L 121 96 Z M 121 70 "/>
</clipPath>
<clipPath id="clip3">
  <path d="M 82.195312 70 L 104 70 L 104 96 L 82.195312 96 Z M 82.195312 70 "/>
</clipPath>
<clipPath id="clip4">
  <path d="M 140 95 L 142.910156 95 L 142.910156 99 L 140 99 Z M 140 95 "/>
</clipPath>
<clipPath id="clip5">
  <path d="M 82.195312 95 L 85 95 L 85 98 L 82.195312 98 Z M 82.195312 95 "/>
</clipPath>
<clipPath id="clip6">
  <path d="M 82.195312 70 L 105 70 L 105 99 L 82.195312 99 Z M 82.195312 70 "/>
</clipPath>
<clipPath id="clip7">
  <path d="M 121 70 L 142.910156 70 L 142.910156 99 L 121 99 Z M 121 70 "/>
</clipPath>
<clipPath id="clip8">
  <path d="M 82.195312 95 L 92 95 L 92 98 L 82.195312 98 Z M 82.195312 95 "/>
</clipPath>
<clipPath id="clip9">
  <path d="M 133 95 L 142.910156 95 L 142.910156 98 L 133 98 Z M 133 95 "/>
</clipPath>
<clipPath id="clip10">
  <path d="M 94 22.546875 L 132 22.546875 L 132 51 L 94 51 Z M 94 22.546875 "/>
</clipPath>
</defs>
<g id="surface1">
<g clip-path="url(#clip1)" clip-rule="nonzero">
<path style=" stroke:none;fill-rule:evenodd;fill:rgb(9.799194%,70.199585%,74.508667%);fill-opacity:1;" d="M 141.214844 91.75 C 140.609375 90.023438 140.199219 89.289062 140.03125 87.457031 C 139.746094 84.429688 140.109375 82.183594 139.195312 78.542969 C 137.050781 77.027344 134.898438 76.386719 134.898438 76.386719 L 124.179688 71.589844 L 121.789062 70.871094 C 121.71875 72.738281 120.261719 75.117188 119.371094 76.730469 C 118.289062 78.691406 115.367188 81.75 113.875 83.074219 C 112.957031 83.890625 112.867188 83.945312 111.960938 83.144531 C 109.503906 80.96875 104.085938 75.320312 104 71.925781 C 103.976562 71.34375 104.171875 70.960938 103.703125 70.746094 L 101.578125 71.589844 L 91.613281 75.976562 C 91.613281 75.976562 87.75 77.511719 86.046875 78.585938 C 85.4375 81.3125 85.226562 88.121094 85.203125 88.230469 C 84.664062 90.667969 83.515625 93.65625 82.746094 96.039062 C 86.398438 95.421875 88.164062 96.042969 91.539062 96.753906 C 91.539062 96.753906 91.9375 99.402344 92.335938 100.441406 C 92.734375 101.476562 93.851562 105.46875 93.851562 105.46875 L 94.269531 108.304688 L 93.464844 122.003906 L 91.414062 132.816406 L 95.054688 134.980469 C 95.054688 134.980469 94.457031 144.214844 94.394531 147.539062 C 94.332031 150.863281 94.402344 163.515625 94.738281 166.535156 C 95.070312 169.550781 95.589844 182.355469 95.714844 183.144531 C 95.835938 183.9375 96.207031 186.804688 96.207031 186.804688 C 96.207031 186.804688 101.398438 189.902344 102.226562 190.1875 C 103.058594 190.472656 109.109375 187.371094 110.339844 185.953125 C 110.339844 185.953125 110.03125 174.242188 109.664062 170.648438 C 109.773438 167.289062 111.832031 154.226562 112.210938 152.386719 C 112.421875 151.371094 112.6875 150.640625 112.878906 150.183594 C 113.074219 150.640625 113.335938 151.371094 113.546875 152.386719 C 113.929688 154.226562 115.496094 165.34375 116.09375 170.648438 C 115.726562 174.242188 115.417969 185.953125 115.417969 185.953125 C 117.675781 187.976562 122.699219 190.472656 123.53125 190.1875 C 124.363281 189.902344 129.550781 186.804688 129.550781 186.804688 C 129.550781 186.804688 129.917969 183.9375 130.042969 183.144531 C 130.164062 182.355469 130.6875 169.550781 131.023438 166.535156 C 131.355469 163.515625 131.425781 150.863281 131.363281 147.539062 C 131.300781 144.214844 130.707031 134.980469 130.707031 134.980469 L 134.34375 132.816406 L 132.292969 122.003906 L 131.488281 108.304688 L 131.90625 105.46875 C 132.59375 102.453125 133.570312 99.605469 134.207031 96.601562 C 138.25 95.417969 138.441406 95.628906 142.707031 95.945312 C 142.515625 95.09375 141.550781 92.707031 141.214844 91.75 "/>
</g>
<path style=" stroke:none;fill-rule:evenodd;fill:rgb(65.098572%,87.838745%,76.078796%);fill-opacity:1;" d="M 96.515625 137.875 C 96.515625 137.875 95.21875 175.191406 98.253906 187.710938 C 98.253906 187.710938 96.296875 187.496094 96.160156 186.441406 C 96.019531 185.386719 95.171875 173.113281 94.808594 168.117188 C 94.445312 163.117188 94.535156 143.078125 94.652344 142.023438 C 94.773438 140.964844 95.054688 136.492188 95.054688 136.492188 C 95.054688 136.492188 96.546875 136.980469 96.515625 137.875 "/>
<path style=" stroke:none;fill-rule:evenodd;fill:rgb(0%,51.759338%,57.249451%);fill-opacity:1;" d="M 116.949219 101.667969 C 119.257812 101.625 121.382812 101.53125 124.121094 101.183594 C 127.613281 100.84375 129.851562 102.515625 131.992188 105.167969 C 132.355469 104.3125 133.417969 100.347656 133.449219 100.226562 C 133.375 100.285156 130.378906 102.980469 126.078125 101.152344 C 122.625 99.683594 116.738281 98.820312 112.902344 98.46875 C 108.300781 98.808594 103.699219 99.671875 99.378906 101.289062 C 107.035156 101.707031 111.921875 101.757812 116.949219 101.667969 "/>
<path style=" stroke:none;fill-rule:evenodd;fill:rgb(62.348938%,31.759644%,25.878906%);fill-opacity:1;" d="M 121.585938 69.378906 L 121.585938 71.746094 C 121.585938 71.746094 120.71875 75.136719 118.683594 77.6875 C 116.648438 80.238281 112.835938 83.816406 112.835938 83.816406 C 112.835938 83.816406 108.15625 80.367188 106.132812 76.707031 C 104.113281 73.042969 103.558594 72.867188 104.105469 69.660156 C 104.105469 69.660156 105.671875 70.832031 107.246094 71.902344 C 108.378906 73.203125 108.734375 73.03125 110.453125 73.292969 C 114.015625 73.414062 116.917969 73.550781 118.195312 71.9375 C 119.621094 71.058594 121.046875 69.730469 121.585938 69.378906 "/>
<g clip-path="url(#clip2)" clip-rule="nonzero">
<path style=" stroke:none;fill-rule:evenodd;fill:rgb(65.098572%,87.838745%,76.078796%);fill-opacity:1;" d="M 121.371094 72.054688 C 121.371094 72.054688 133.964844 77.535156 134.808594 77.886719 C 135.976562 78.378906 137.453125 79.050781 137.789062 79.441406 C 138.363281 80.117188 138.730469 85.867188 138.566406 88.703125 L 140.757812 94.898438 L 139.21875 95.4375 L 142.707031 95.945312 L 140.109375 88.230469 C 140.109375 88.230469 139.757812 79.5 139.023438 78.476562 C 138.582031 77.855469 136.800781 77.132812 135.464844 76.660156 C 134.585938 76.347656 121.992188 70.925781 121.992188 70.925781 L 121.371094 72.054688 "/>
</g>
<path style=" stroke:none;fill-rule:evenodd;fill:rgb(48.239136%,23.139954%,18.818665%);fill-opacity:1;" d="M 104.035156 71.898438 C 104.035156 71.898438 106.214844 74.011719 106.910156 74.832031 C 109.308594 77.679688 116.285156 77.683594 118.6875 74.832031 C 119.378906 74.011719 121.371094 72.117188 121.371094 72.117188 L 121.441406 69.542969 C 120.347656 70.625 119.816406 71.027344 118.039062 71.917969 C 117.628906 72.660156 116.738281 73.261719 113.0625 73.414062 C 109.074219 73.578125 107.714844 72.660156 107.25 71.8125 C 106.109375 71.082031 105.570312 70.59375 104.15625 69.542969 L 104.035156 71.898438 "/>
<path style=" stroke:none;fill-rule:evenodd;fill:rgb(69.018555%,81.17981%,87.059021%);fill-opacity:1;" d="M 107.917969 188.285156 C 107.917969 188.285156 109.210938 191.207031 108.933594 192.707031 C 108.660156 194.210938 107.71875 196.246094 107.226562 197.34375 C 106.734375 198.4375 106.851562 200.296875 104.234375 200.960938 C 101.621094 201.625 92.222656 202.179688 93.230469 197.769531 C 93.230469 197.769531 93.378906 195.84375 94.609375 194.847656 C 95.835938 193.847656 97.679688 191.691406 97.765625 191.570312 C 97.84375 191.449219 99.277344 188.890625 99.277344 188.890625 C 99.277344 188.890625 101.574219 190.21875 102.105469 190.203125 C 102.640625 190.1875 107.832031 187.394531 107.917969 188.285156 "/>
<path style=" stroke:none;fill-rule:evenodd;fill:rgb(69.018555%,81.17981%,87.059021%);fill-opacity:1;" d="M 117.683594 188.285156 C 117.683594 188.285156 116.386719 191.207031 116.664062 192.707031 C 116.941406 194.210938 117.886719 196.246094 118.378906 197.34375 C 118.867188 198.4375 118.75 200.296875 121.367188 200.960938 C 123.980469 201.625 133.378906 202.179688 132.371094 197.769531 C 132.371094 197.769531 132.222656 195.84375 130.992188 194.847656 C 129.765625 193.847656 127.921875 191.691406 127.839844 191.570312 C 127.753906 191.449219 126.324219 188.890625 126.324219 188.890625 C 126.324219 188.890625 124.03125 190.21875 123.496094 190.203125 C 122.964844 190.1875 117.773438 187.394531 117.683594 188.285156 "/>
<g clip-path="url(#clip3)" clip-rule="nonzero">
<path style=" stroke:none;fill-rule:evenodd;fill:rgb(65.098572%,87.838745%,76.078796%);fill-opacity:1;" d="M 103.929688 72.011719 C 103.929688 72.011719 91.679688 77.402344 91.179688 77.609375 C 89.988281 78.089844 87.925781 78.972656 87.523438 79.441406 C 86.949219 80.117188 86.582031 85.867188 86.742188 88.703125 L 84.550781 94.898438 L 86.089844 95.4375 L 82.605469 95.945312 L 85.203125 88.230469 C 85.203125 88.230469 85.554688 79.5 86.285156 78.476562 C 86.8125 77.742188 89.230469 76.855469 90.546875 76.417969 C 91.0625 76.246094 103.695312 70.714844 103.695312 70.714844 L 103.929688 72.011719 "/>
</g>
<path style=" stroke:none;fill-rule:evenodd;fill:rgb(29.40979%,34.509277%,38.819885%);fill-opacity:1;" d="M 122.84375 94.648438 L 123.644531 94.894531 C 123.644531 94.894531 124.007812 93.886719 124.277344 92.960938 C 124.542969 92.035156 125.15625 88.839844 125.363281 87.820312 C 125.566406 86.804688 125.945312 82.414062 125.851562 81.214844 C 125.761719 80.015625 125.664062 77.742188 125.554688 76.804688 C 125.445312 75.871094 124.808594 72.335938 124.398438 71.542969 L 124.257812 71.410156 C 124.257812 71.410156 124.007812 71.523438 123.988281 71.515625 C 123.96875 71.507812 123.757812 71.816406 123.757812 71.816406 C 123.757812 71.816406 124.097656 73.265625 124.355469 74.425781 C 124.613281 75.585938 124.929688 77.332031 124.984375 78.269531 C 125.035156 79.203125 125.125 81.132812 125.074219 82.070312 C 125.023438 83.003906 124.929688 85.960938 124.664062 87.148438 C 124.398438 88.335938 123.539062 93.472656 122.84375 94.648438 "/>
<path style=" stroke:none;fill-rule:evenodd;fill:rgb(75.689697%,80.389404%,82.749939%);fill-opacity:1;" d="M 117.476562 101.648438 C 118.230469 101.882812 119.03125 101.625 119.785156 101.492188 C 120.527344 101.363281 121.28125 101.261719 122.019531 101.382812 C 122.066406 101.191406 122.101562 100.992188 122.121094 100.773438 C 122.273438 98.953125 122.226562 98.679688 122.226562 98.679688 C 122.226562 98.679688 123.046875 96.589844 123.203125 96.113281 C 123.355469 95.632812 123.703125 94.894531 123.703125 94.894531 L 122.84375 94.710938 L 121.757812 97.316406 C 121.757812 97.316406 121.089844 96.027344 119.648438 96.148438 C 118.203125 96.273438 117.304688 98.308594 117.050781 99.464844 C 116.914062 100.097656 116.890625 100.867188 117.003906 101.605469 C 117.148438 101.585938 117.304688 101.597656 117.476562 101.648438 "/>
<path style=" stroke:none;fill-rule:evenodd;fill:rgb(29.40979%,34.509277%,38.819885%);fill-opacity:1;" d="M 103.722656 89.515625 L 104.398438 88.558594 C 104.398438 88.558594 104.0625 87.960938 103.3125 87.3125 C 102.566406 86.660156 100.9375 86.378906 100.9375 86.378906 C 100.9375 86.378906 100.632812 82.707031 100.578125 81.40625 C 100.527344 80.105469 100.722656 77.363281 100.886719 76.183594 C 101.050781 75.003906 101.675781 72.984375 101.988281 72.414062 C 102.300781 71.847656 102.484375 71.460938 102.484375 71.460938 L 101.542969 71.847656 C 101.542969 71.847656 100.957031 73.136719 100.9375 73.175781 C 100.917969 73.21875 100.085938 75.632812 99.871094 77.097656 C 99.65625 78.5625 99.484375 81.90625 99.636719 83.117188 C 99.789062 84.324219 99.933594 86.691406 99.933594 86.691406 C 99.933594 86.691406 99.011719 87.808594 98.917969 88.367188 C 98.828125 88.925781 98.746094 90.308594 98.746094 90.308594 C 98.746094 90.308594 99.800781 90.878906 99.972656 90.492188 C 99.972656 90.492188 99.800781 88.300781 100.570312 87.820312 C 101.335938 87.34375 102.789062 87.820312 103.722656 89.515625 "/>
<path style=" stroke:none;fill-rule:evenodd;fill:rgb(75.689697%,80.389404%,82.749939%);fill-opacity:1;" d="M 106.816406 95.808594 C 107.050781 96.882812 107.359375 99.058594 107.277344 100.390625 C 107.257812 100.730469 107.214844 101.097656 107.164062 101.46875 C 107.242188 101.46875 107.320312 101.476562 107.398438 101.488281 C 106.890625 101.410156 107.585938 101.484375 107.71875 101.488281 C 107.894531 101.496094 108.050781 101.53125 108.183594 101.585938 C 108.441406 99.621094 108.269531 97.394531 107.972656 96.203125 C 107.617188 94.769531 106.96875 92.707031 106.34375 91.621094 C 105.71875 90.535156 104.398438 88.703125 104.398438 88.703125 L 103.800781 89.410156 C 103.800781 89.410156 104.902344 91.0625 105.269531 91.773438 C 105.640625 92.484375 106.578125 94.730469 106.816406 95.808594 "/>
<path style=" stroke:none;fill-rule:evenodd;fill:rgb(75.689697%,80.389404%,82.749939%);fill-opacity:1;" d="M 100.03125 97.007812 C 100.277344 97.011719 100.53125 97.097656 100.761719 97.300781 C 100.925781 97.445312 101.128906 97.5625 101.34375 97.671875 C 101.269531 97.503906 101.203125 97.328125 101.140625 97.148438 C 100.34375 94.808594 99.613281 92.289062 99.820312 90.628906 L 98.886719 90.382812 C 98.886719 90.382812 98.828125 92.382812 99.074219 93.777344 C 99.25 94.769531 99.675781 95.992188 100.03125 97.007812 "/>
<path style=" stroke:none;fill-rule:evenodd;fill:rgb(0%,51.759338%,57.249451%);fill-opacity:1;" d="M 115.882812 141.730469 C 119.949219 141.222656 127.121094 139.886719 130.859375 136.597656 L 130.738281 134.734375 C 130.738281 134.734375 121.839844 139.890625 113.230469 139.949219 C 113.117188 139.929688 112.488281 139.929688 112.371094 139.949219 C 103.761719 139.890625 94.863281 134.734375 94.863281 134.734375 L 94.742188 136.597656 C 98.507812 139.90625 105.75 141.238281 109.796875 141.742188 C 109.199219 145.664062 106.445312 163.679688 106.003906 167.875 C 105.515625 172.589844 107.152344 187.710938 107.152344 187.710938 C 107.152344 187.710938 109.886719 187.144531 110.378906 185.679688 C 110.875 184.214844 109.941406 173.300781 110.125 168.789062 C 110.289062 164.730469 112.050781 152.824219 112.878906 149.675781 C 113.707031 152.824219 115.394531 164.730469 115.5625 168.789062 C 115.746094 173.300781 114.808594 184.214844 115.304688 185.679688 C 115.796875 187.144531 118.53125 187.710938 118.53125 187.710938 C 118.53125 187.710938 120.167969 172.589844 119.679688 167.875 C 119.242188 163.675781 116.484375 145.632812 115.882812 141.730469 "/>
<path style=" stroke:none;fill-rule:evenodd;fill:rgb(47.44873%,58.428955%,65.098572%);fill-opacity:1;" d="M 98.664062 190.492188 C 98.664062 190.492188 101.460938 191.988281 102.195312 192.203125 C 102.933594 192.414062 108.28125 189.824219 108.28125 189.824219 L 108.007812 187.710938 C 108.007812 187.710938 102.78125 190.433594 102.351562 190.371094 C 101.921875 190.3125 99.207031 189.011719 99.207031 189.011719 L 98.664062 190.492188 "/>
<path style=" stroke:none;fill-rule:evenodd;fill:rgb(47.44873%,58.428955%,65.098572%);fill-opacity:1;" d="M 127.054688 190.492188 C 127.054688 190.492188 124.257812 191.988281 123.519531 192.203125 C 122.78125 192.414062 117.4375 189.824219 117.4375 189.824219 L 117.710938 187.710938 C 117.710938 187.710938 122.933594 190.433594 123.367188 190.371094 C 123.796875 190.3125 126.507812 189.011719 126.507812 189.011719 L 127.054688 190.492188 "/>
<path style=" stroke:none;fill-rule:evenodd;fill:rgb(62.348938%,31.759644%,25.878906%);fill-opacity:1;" d="M 141.058594 95.808594 C 141.058594 95.808594 138.019531 96.082031 137.4375 95.953125 C 136.851562 95.820312 134.207031 96.601562 134.207031 96.601562 L 131.992188 105.167969 L 130.03125 103.09375 C 130.03125 103.09375 127.707031 100.65625 122.433594 101.34375 C 117.15625 102.027344 109.148438 101.625 107.71875 101.488281 C 106.28125 101.355469 103.3125 101.492188 103.3125 101.492188 L 101.492188 97.71875 C 101.492188 97.71875 99.832031 96.492188 99.230469 96.019531 C 98.632812 95.546875 97.726562 94.710938 97.402344 94.710938 C 97.082031 94.710938 94.085938 94.886719 93.535156 94.898438 C 92.980469 94.90625 91.660156 94.527344 91.375 94.769531 C 91.089844 95.015625 90.644531 95.472656 90.613281 95.539062 C 90.582031 95.609375 90.652344 95.925781 90.695312 96.101562 C 90.738281 96.28125 91.375 96.921875 91.375 96.921875 L 90.121094 96.308594 L 86.269531 95.746094 L 84.582031 95.847656 C 84.582031 95.847656 84.316406 99.480469 84.316406 102.117188 C 84.316406 104.753906 84.808594 109.890625 85.117188 111.140625 C 85.421875 112.390625 85.730469 113.535156 85.683594 114.128906 C 85.636719 114.722656 85.269531 115.148438 85.484375 115.972656 C 85.699219 116.796875 86.375 118.382812 86.988281 118.441406 C 87.605469 118.503906 92.644531 119.601562 93.601562 119.648438 C 94.5625 119.691406 98.574219 119.953125 100.246094 119.035156 C 101.921875 118.121094 107.097656 115.742188 108.878906 114.617188 C 110.660156 113.488281 112.414062 112.679688 112.644531 112.664062 C 112.875 112.648438 115.253906 114.035156 115.945312 114.386719 C 116.636719 114.738281 123.394531 118.769531 126.097656 119.429688 C 128.800781 120.085938 132.902344 119.738281 135.179688 119.097656 C 137.449219 118.457031 138.957031 118.441406 139.449219 117.175781 C 139.9375 115.914062 140.261719 116.1875 140 115.179688 C 139.738281 114.175781 139.890625 112.269531 140.371094 109.28125 C 140.84375 106.292969 141.167969 102.484375 141.183594 100.914062 C 141.199219 99.34375 141.058594 95.808594 141.058594 95.808594 "/>
<g clip-path="url(#clip4)" clip-rule="nonzero">
<path style=" stroke:none;fill-rule:evenodd;fill:rgb(0%,51.759338%,57.249451%);fill-opacity:1;" d="M 141.027344 98.0625 L 140.816406 95.625 L 142.542969 95.609375 C 142.542969 95.609375 142.257812 97.179688 141.027344 98.0625 "/>
</g>
<path style=" stroke:none;fill-rule:evenodd;fill:rgb(0%,51.759338%,57.249451%);fill-opacity:1;" d="M 135.253906 91.328125 C 135.253906 91.328125 135.9375 87.664062 135.839844 84.464844 C 135.839844 84.464844 138 91.578125 138.363281 95.808594 L 134.207031 96.601562 L 135.253906 91.328125 "/>
<path style=" stroke:none;fill-rule:evenodd;fill:rgb(0%,51.759338%,57.249451%);fill-opacity:1;" d="M 91 95.257812 L 90.222656 91.328125 C 90.222656 91.328125 89.539062 87.664062 89.636719 84.464844 C 89.636719 84.464844 87.476562 91.578125 87.113281 95.808594 L 90.941406 96.539062 C 90.773438 96.132812 90.792969 95.640625 91 95.257812 "/>
<g clip-path="url(#clip5)" clip-rule="nonzero">
<path style=" stroke:none;fill-rule:evenodd;fill:rgb(0%,51.759338%,57.249451%);fill-opacity:1;" d="M 84.316406 97.671875 L 84.550781 95.664062 L 83.488281 95.664062 L 82.605469 95.945312 C 82.605469 95.945312 83.488281 97.222656 84.316406 97.671875 "/>
</g>
<path style=" stroke:none;fill-rule:evenodd;fill:rgb(48.239136%,23.139954%,18.818665%);fill-opacity:1;" d="M 140.816406 97.085938 L 138.539062 97.332031 C 138.539062 97.332031 137.894531 104.128906 137.621094 105.929688 C 137.621094 105.929688 137.988281 107.085938 137.804688 108.152344 C 137.804688 108.152344 136.042969 104.289062 131.992188 105.167969 C 127.941406 106.046875 132.027344 105.074219 132.027344 105.074219 L 134.183594 96.699219 C 134.183594 96.699219 138.292969 95.511719 140.816406 95.722656 L 140.816406 97.085938 "/>
<path style=" stroke:none;fill-rule:evenodd;fill:rgb(48.239136%,23.139954%,18.818665%);fill-opacity:1;" d="M 127.101562 107.09375 C 127.101562 107.09375 117.628906 111.335938 116.933594 111.945312 C 116.933594 111.945312 130.535156 116.375 133.851562 116.578125 C 137.167969 116.78125 139.238281 114.464844 139.476562 112.453125 C 139.476562 112.453125 139.792969 113.730469 139.914062 114.625 C 140.035156 115.519531 140.59375 118.046875 138.363281 118.445312 C 136.132812 118.847656 130.554688 119.800781 127.101562 119.550781 C 123.652344 119.300781 112.917969 112.429688 112.796875 112.453125 C 112.671875 112.472656 123.472656 107.527344 127.101562 107.09375 "/>
<path style=" stroke:none;fill-rule:evenodd;fill:rgb(48.239136%,23.139954%,18.818665%);fill-opacity:1;" d="M 84.550781 97.300781 C 84.550781 97.300781 87.480469 97.46875 88.957031 97.71875 C 88.957031 97.71875 89.292969 97.363281 89.707031 97.300781 C 90.121094 97.238281 90.9375 97.066406 90.9375 97.066406 L 91.265625 96.96875 L 90.75 96.5 L 90.429688 96.320312 L 86.941406 95.777344 L 84.917969 95.664062 L 84.550781 95.808594 L 84.550781 97.300781 "/>
<path style=" stroke:none;fill-rule:evenodd;fill:rgb(48.239136%,23.139954%,18.818665%);fill-opacity:1;" d="M 90.554688 109.421875 C 90.554688 109.421875 90.308594 107.269531 90.796875 106.355469 L 90.273438 104.550781 C 90.273438 104.550781 88.402344 104.707031 88.804688 101.113281 L 91.375 101.113281 L 90.429688 101.773438 L 89.707031 102.464844 C 89.707031 102.464844 89.597656 102.910156 89.707031 103 C 89.816406 103.09375 90.027344 103.335938 90.058594 103.429688 C 90.09375 103.519531 91 103.792969 91 103.792969 L 92.835938 103.621094 L 93.472656 103.621094 L 93.75 104.707031 C 93.75 104.707031 91.234375 107.210938 90.554688 109.421875 "/>
<path style=" stroke:none;fill-rule:evenodd;fill:rgb(48.239136%,23.139954%,18.818665%);fill-opacity:1;" d="M 85.882812 112.148438 C 85.882812 112.148438 87.289062 116.476562 92.394531 116.414062 C 97.496094 116.351562 119.300781 108.03125 126.15625 106.535156 L 127.664062 106.535156 C 127.664062 106.535156 117.050781 110.371094 111.378906 113.34375 C 105.710938 116.316406 100.820312 118.949219 98.882812 119.480469 C 96.941406 120.011719 87.234375 119.648438 85.882812 117.574219 C 85.882812 117.574219 85.21875 116.679688 85.390625 115.683594 C 85.566406 114.6875 85.882812 112.148438 85.882812 112.148438 "/>
<path style=" stroke:none;fill-rule:evenodd;fill:rgb(65.098572%,87.838745%,76.078796%);fill-opacity:1;" d="M 95.34375 122.019531 L 93.472656 132.46875 C 93.472656 132.46875 95.199219 134.285156 98.253906 135.976562 C 98.253906 135.976562 93.90625 134.707031 91.839844 132.792969 L 93.523438 121.003906 C 93.523438 121.003906 95.550781 120.875 95.34375 122.019531 "/>
<path style=" stroke:none;fill-rule:evenodd;fill:rgb(0%,51.759338%,57.249451%);fill-opacity:1;" d="M 93.75 121.699219 C 93.75 121.699219 98.992188 122.671875 101.613281 121.210938 C 104.234375 119.75 113.535156 114.34375 114.84375 113.933594 L 112.644531 112.664062 C 112.644531 112.664062 101.148438 119.039062 100.015625 119.261719 C 98.882812 119.480469 93.75 119.699219 93.75 119.699219 L 93.75 121.699219 "/>
<path style=" stroke:none;fill-rule:evenodd;fill:rgb(65.098572%,87.838745%,76.078796%);fill-opacity:1;" d="M 130.21875 122.019531 L 132.089844 132.46875 C 132.089844 132.46875 130.367188 134.285156 127.308594 135.976562 C 127.308594 135.976562 131.65625 134.707031 133.722656 132.792969 L 132.039062 121.003906 C 132.039062 121.003906 130.011719 120.875 130.21875 122.019531 "/>
<path style=" stroke:none;fill-rule:evenodd;fill:rgb(0%,51.759338%,57.249451%);fill-opacity:1;" d="M 131.816406 121.699219 C 131.816406 121.699219 126.570312 122.671875 123.949219 121.210938 C 121.328125 119.75 112.03125 114.34375 110.71875 113.933594 L 112.917969 112.664062 C 112.917969 112.664062 124.414062 119.039062 125.546875 119.261719 C 126.683594 119.480469 131.816406 119.699219 131.816406 119.699219 L 131.816406 121.699219 "/>
<path style=" stroke:none;fill-rule:evenodd;fill:rgb(5.099487%,5.099487%,5.099487%);fill-opacity:1;" d="M 113.375 83.902344 C 113.15625 84.089844 112.933594 84.277344 112.707031 84.464844 C 112.476562 84.277344 112.257812 84.089844 112.039062 83.902344 C 103.992188 77.007812 103.472656 72.125 103.453125 71.902344 L 103.453125 68.949219 C 103.5 68.988281 103.554688 69.03125 103.609375 69.070312 C 103.824219 69.226562 104.0625 69.332031 104.3125 69.417969 L 104.3125 71.84375 C 104.351562 72.128906 105.066406 76.824219 112.707031 83.34375 C 112.921875 83.53125 113.144531 83.71875 113.375 83.902344 "/>
<path style=" stroke:none;fill-rule:evenodd;fill:rgb(5.099487%,5.099487%,5.099487%);fill-opacity:1;" d="M 121.960938 68.949219 L 121.960938 71.902344 C 121.9375 72.125 121.421875 77.007812 113.375 83.902344 C 113.15625 84.089844 112.933594 84.277344 112.707031 84.464844 C 112.476562 84.277344 112.257812 84.089844 112.039062 83.902344 C 112.269531 83.71875 112.488281 83.53125 112.707031 83.34375 C 120.347656 76.824219 121.0625 72.128906 121.101562 71.84375 L 121.101562 69.417969 C 121.351562 69.332031 121.589844 69.226562 121.804688 69.070312 C 121.859375 69.03125 121.910156 68.988281 121.960938 68.949219 "/>
<path style=" stroke:none;fill-rule:evenodd;fill:rgb(5.099487%,5.099487%,5.099487%);fill-opacity:1;" d="M 130.523438 134.914062 C 130.460938 134.914062 130.394531 134.910156 130.332031 134.898438 C 130.703125 143.453125 131.34375 166.105469 128.960938 186.695312 C 128.363281 187.101562 126.109375 188.582031 123.425781 189.832031 C 122.683594 189.636719 119.125 188.59375 115.753906 185.886719 C 115.824219 184.25 116.28125 173.703125 116.40625 171.066406 C 116.5 169.019531 114.507812 156.59375 113.265625 149.125 C 113.105469 148.15625 112.957031 147.273438 112.828125 146.507812 C 112.699219 147.273438 112.550781 148.15625 112.394531 149.125 C 112.53125 149.949219 112.675781 150.839844 112.828125 151.773438 C 114.046875 159.203125 115.628906 169.28125 115.546875 171.023438 C 115.410156 173.875 114.890625 185.945312 114.886719 186.066406 L 114.878906 186.277344 L 115.042969 186.410156 C 119.007812 189.667969 123.195312 190.660156 123.371094 190.699219 L 123.515625 190.730469 L 123.648438 190.671875 C 126.910156 189.171875 129.589844 187.300781 129.617188 187.285156 L 129.773438 187.175781 L 129.792969 186.984375 C 132.21875 166.191406 131.554688 143.242188 131.183594 134.734375 C 130.988281 134.847656 130.765625 134.914062 130.523438 134.914062 "/>
<path style=" stroke:none;fill-rule:evenodd;fill:rgb(5.099487%,5.099487%,5.099487%);fill-opacity:1;" d="M 113.265625 149.125 C 113.105469 148.15625 112.957031 147.273438 112.828125 146.507812 C 112.699219 147.273438 112.550781 148.15625 112.394531 149.125 C 111.152344 156.59375 109.15625 169.019531 109.253906 171.066406 C 109.378906 173.703125 109.832031 184.25 109.90625 185.886719 C 106.542969 188.589844 102.972656 189.632812 102.234375 189.832031 C 99.550781 188.585938 97.296875 187.101562 96.695312 186.695312 C 94.304688 166.023438 94.964844 143.257812 95.332031 134.789062 C 95.308594 134.789062 95.28125 134.792969 95.257812 134.792969 C 94.9375 134.792969 94.683594 134.699219 94.484375 134.554688 C 94.113281 142.910156 93.421875 166.042969 95.863281 186.984375 L 95.886719 187.175781 L 96.042969 187.285156 C 96.070312 187.300781 98.75 189.171875 102.007812 190.671875 L 102.140625 190.730469 L 102.285156 190.699219 C 102.464844 190.660156 106.648438 189.667969 110.617188 186.410156 L 110.78125 186.277344 L 110.773438 186.066406 C 110.769531 185.945312 110.246094 173.875 110.109375 171.023438 C 110.03125 169.28125 111.613281 159.203125 112.828125 151.773438 C 112.980469 150.839844 113.128906 149.949219 113.265625 149.125 "/>
<path style=" stroke:none;fill-rule:evenodd;fill:rgb(5.099487%,5.099487%,5.099487%);fill-opacity:1;" d="M 132.761719 197.960938 C 132.476562 195.800781 131.378906 194.675781 130.105469 193.367188 C 128.972656 192.203125 127.710938 190.90625 126.652344 188.550781 C 126.441406 188.742188 126.164062 188.867188 125.863281 188.890625 C 126.992188 191.394531 128.355469 192.800781 129.484375 193.960938 C 130.703125 195.207031 131.660156 196.195312 131.910156 198.070312 C 131.992188 198.683594 131.835938 199.179688 131.441406 199.578125 C 129.980469 201.0625 125.625 200.941406 124.070312 200.773438 L 124.039062 200.769531 L 124.011719 200.769531 C 120.199219 200.878906 119.902344 199.910156 119.40625 198.3125 C 119.234375 197.75 119.035156 197.117188 118.667969 196.457031 C 117.296875 193.996094 116.984375 192.816406 117.335938 191.417969 C 117.566406 190.5 117.898438 188.972656 118.140625 187.867188 C 117.792969 187.824219 117.53125 187.667969 117.351562 187.449219 C 117.109375 188.5625 116.746094 190.238281 116.5 191.214844 C 116.042969 193.042969 116.59375 194.496094 117.917969 196.871094 C 118.238281 197.449219 118.414062 198.015625 118.585938 198.5625 C 118.851562 199.429688 119.105469 200.246094 119.894531 200.828125 C 120.71875 201.429688 121.984375 201.675781 124.003906 201.625 C 124.191406 201.644531 125.03125 201.726562 126.121094 201.726562 C 128.054688 201.726562 130.777344 201.472656 132.058594 200.175781 C 132.640625 199.582031 132.878906 198.835938 132.761719 197.960938 "/>
<path style=" stroke:none;fill-rule:evenodd;fill:rgb(5.099487%,5.099487%,5.099487%);fill-opacity:1;" d="M 123.960938 199.722656 C 121.222656 199.722656 120.535156 199.476562 119.878906 197.351562 C 119.574219 196.371094 118.949219 195.726562 118.347656 195.105469 C 117.410156 194.140625 116.445312 193.148438 116.746094 190.996094 L 117.234375 191.0625 C 116.964844 192.980469 117.769531 193.808594 118.699219 194.765625 C 119.34375 195.429688 120.007812 196.117188 120.347656 197.207031 C 120.988281 199.269531 121.382812 199.265625 125.167969 199.226562 C 125.738281 199.21875 126.386719 199.210938 127.117188 199.210938 C 130.113281 199.210938 131.261719 198.574219 131.699219 198.042969 C 132.011719 197.660156 131.957031 197.332031 131.953125 197.328125 L 132.4375 197.230469 C 132.441406 197.25 132.542969 197.785156 132.082031 198.351562 C 131.347656 199.246094 129.675781 199.703125 127.117188 199.703125 C 126.386719 199.703125 125.742188 199.707031 125.171875 199.714844 C 124.726562 199.71875 124.324219 199.722656 123.960938 199.722656 "/>
<path style=" stroke:none;fill-rule:evenodd;fill:rgb(5.099487%,5.099487%,5.099487%);fill-opacity:1;" d="M 108.332031 187.542969 C 108.082031 187.699219 107.820312 187.828125 107.53125 187.910156 C 107.765625 189.011719 108.09375 190.511719 108.320312 191.417969 C 108.671875 192.816406 108.363281 193.996094 106.988281 196.457031 C 106.621094 197.117188 106.425781 197.75 106.25 198.3125 C 105.753906 199.910156 105.460938 200.878906 101.648438 200.769531 L 101.621094 200.769531 L 101.585938 200.773438 C 100.03125 200.941406 95.675781 201.0625 94.21875 199.578125 C 93.820312 199.179688 93.667969 198.683594 93.75 198.070312 C 94 196.195312 94.957031 195.207031 96.171875 193.960938 C 97.308594 192.792969 98.6875 191.375 99.816406 188.835938 C 99.53125 188.808594 99.253906 188.683594 99.039062 188.472656 C 97.976562 190.878906 96.699219 192.191406 95.554688 193.367188 C 94.28125 194.675781 93.179688 195.800781 92.894531 197.960938 C 92.777344 198.835938 93.015625 199.582031 93.601562 200.175781 C 94.878906 201.472656 97.605469 201.726562 99.535156 201.726562 C 100.628906 201.726562 101.46875 201.644531 101.652344 201.625 C 103.671875 201.675781 104.941406 201.429688 105.765625 200.828125 C 106.550781 200.246094 106.804688 199.429688 107.074219 198.5625 C 107.242188 198.015625 107.417969 197.449219 107.742188 196.871094 C 109.066406 194.496094 109.613281 193.042969 109.15625 191.214844 C 108.921875 190.261719 108.566406 188.652344 108.332031 187.542969 "/>
<path style=" stroke:none;fill-rule:evenodd;fill:rgb(5.099487%,5.099487%,5.099487%);fill-opacity:1;" d="M 101.699219 199.722656 C 104.433594 199.722656 105.121094 199.476562 105.78125 197.351562 C 106.085938 196.371094 106.707031 195.726562 107.3125 195.105469 C 108.246094 194.140625 109.210938 193.148438 108.914062 190.996094 L 108.425781 191.0625 C 108.691406 192.980469 107.886719 193.808594 106.957031 194.765625 C 106.3125 195.429688 105.648438 196.117188 105.3125 197.207031 C 104.671875 199.269531 104.273438 199.265625 100.492188 199.226562 C 99.921875 199.21875 99.273438 199.210938 98.542969 199.210938 C 95.546875 199.210938 94.398438 198.574219 93.960938 198.042969 C 93.644531 197.660156 93.703125 197.332031 93.703125 197.328125 L 93.222656 197.230469 C 93.21875 197.25 93.113281 197.785156 93.578125 198.351562 C 94.3125 199.246094 95.984375 199.703125 98.542969 199.703125 C 99.269531 199.703125 99.914062 199.707031 100.488281 199.714844 C 100.929688 199.71875 101.332031 199.722656 101.699219 199.722656 "/>
<path style=" stroke:none;fill-rule:evenodd;fill:rgb(5.099487%,5.099487%,5.099487%);fill-opacity:1;" d="M 125.992188 78.128906 C 125.746094 75.550781 125.253906 73.453125 124.804688 71.953125 C 124.726562 71.707031 124.230469 71.570312 124.273438 71.691406 C 124.746094 73.1875 125.300781 75.398438 125.566406 78.191406 C 126.042969 83.171875 125.671875 91.054688 121.234375 100.386719 L 120.144531 100.386719 C 120.046875 100.191406 119.882812 99.742188 120.136719 99.308594 L 121.171875 99.234375 L 121.226562 99.132812 C 121.246094 99.101562 123.023438 95.839844 124.238281 90.824219 C 125.359375 86.195312 126.214844 79.074219 123.9375 71.449219 L 123.523438 71.574219 C 125.773438 79.097656 124.925781 86.132812 123.820312 90.710938 C 122.742188 95.179688 121.210938 98.238281 120.902344 98.824219 L 119.902344 98.894531 L 119.839844 98.976562 C 119.246094 99.800781 119.8125 100.683594 119.835938 100.71875 L 119.898438 100.816406 L 121.507812 100.816406 L 121.566406 100.691406 C 126.105469 91.210938 126.480469 83.1875 125.992188 78.128906 "/>
<path style=" stroke:none;fill-rule:evenodd;fill:rgb(5.099487%,5.099487%,5.099487%);fill-opacity:1;" d="M 121.910156 100.472656 C 121.84375 100.84375 121.746094 101.203125 121.621094 101.53125 C 121.773438 101.527344 121.925781 101.527344 122.078125 101.527344 C 122.183594 101.21875 122.273438 100.890625 122.332031 100.550781 C 122.46875 99.792969 122.460938 99.058594 122.34375 98.402344 C 122.339844 98.417969 122.335938 98.429688 122.328125 98.441406 C 122.316406 98.46875 122.308594 98.5 122.300781 98.527344 C 122.296875 98.554688 122.292969 98.570312 122.292969 98.578125 C 122.316406 98.800781 122.171875 98.960938 121.992188 99.027344 C 122.023438 99.484375 121.996094 99.972656 121.910156 100.472656 "/>
<path style=" stroke:none;fill-rule:evenodd;fill:rgb(5.099487%,5.099487%,5.099487%);fill-opacity:1;" d="M 117.257812 101.769531 C 117.132812 101.136719 117.117188 100.410156 117.25 99.65625 C 117.574219 97.859375 118.609375 96.480469 119.710938 96.265625 C 119.890625 96.230469 120.074219 96.226562 120.257812 96.261719 C 120.390625 96.285156 120.519531 96.328125 120.644531 96.386719 C 121.066406 96.589844 121.410156 96.996094 121.648438 97.527344 C 121.65625 97.5 121.664062 97.472656 121.675781 97.441406 C 121.726562 97.296875 121.824219 97.210938 121.9375 97.167969 C 121.828125 96.957031 121.703125 96.761719 121.5625 96.589844 C 121.320312 96.300781 121.039062 96.082031 120.722656 95.953125 C 120.597656 95.902344 120.464844 95.863281 120.332031 95.839844 C 118.8125 95.570312 117.242188 97.253906 116.828125 99.585938 C 116.6875 100.355469 116.695312 101.105469 116.824219 101.773438 C 116.96875 101.773438 117.113281 101.769531 117.257812 101.769531 "/>
<path style=" stroke:none;fill-rule:evenodd;fill:rgb(5.099487%,5.099487%,5.099487%);fill-opacity:1;" d="M 118.019531 101.75 C 117.921875 101.15625 117.921875 100.488281 118.046875 99.796875 C 118.378906 97.921875 119.492188 96.503906 120.644531 96.386719 C 120.78125 96.371094 120.914062 96.375 121.050781 96.398438 C 121.230469 96.429688 121.402344 96.496094 121.5625 96.589844 C 121.320312 96.300781 121.039062 96.082031 120.722656 95.953125 C 120.378906 95.96875 120.035156 96.078125 119.710938 96.265625 C 118.730469 96.839844 117.902344 98.128906 117.621094 99.722656 C 117.492188 100.441406 117.488281 101.132812 117.589844 101.761719 C 117.734375 101.757812 117.878906 101.753906 118.019531 101.75 "/>
<path style=" stroke:none;fill-rule:evenodd;fill:rgb(5.099487%,5.099487%,5.099487%);fill-opacity:1;" d="M 123.714844 95.027344 C 123.4375 95.023438 122.894531 94.824219 122.832031 94.800781 L 122.984375 94.398438 C 123.1875 94.476562 123.570312 94.597656 123.722656 94.597656 L 123.714844 95.027344 "/>
<path style=" stroke:none;fill-rule:evenodd;fill:rgb(5.099487%,5.099487%,5.099487%);fill-opacity:1;" d="M 104.519531 88.367188 C 104.457031 88.269531 103.082031 86.121094 101.070312 86.085938 C 100.886719 84.667969 99.835938 75.539062 102.785156 71.328125 L 102.527344 71.148438 C 102.445312 71.234375 102.351562 71.308594 102.242188 71.371094 C 99.203125 76.175781 100.605469 85.914062 100.667969 86.335938 L 100.699219 86.527344 L 100.894531 86.515625 C 102.554688 86.429688 103.832031 88.132812 104.101562 88.515625 C 104.023438 88.738281 103.832031 88.957031 103.679688 89.101562 C 103.210938 88.523438 101.6875 86.824219 100.566406 87.398438 C 99.625 87.882812 99.675781 89.726562 99.71875 90.339844 C 99.507812 90.351562 99.175781 90.222656 98.941406 90.09375 C 98.894531 89.691406 98.800781 88.054688 100.066406 86.773438 L 100.140625 86.699219 L 100.125 86.59375 C 100.109375 86.488281 98.75 76.675781 101.769531 71.515625 C 101.71875 71.519531 101.664062 71.523438 101.605469 71.523438 C 101.492188 71.523438 101.386719 71.511719 101.289062 71.488281 C 100.121094 73.582031 99.476562 76.5625 99.378906 80.378906 C 99.304688 83.417969 99.613281 86.007812 99.683594 86.550781 C 98.164062 88.167969 98.511719 90.179688 98.527344 90.265625 L 98.546875 90.359375 L 98.628906 90.410156 C 98.746094 90.484375 99.242188 90.769531 99.683594 90.769531 C 99.816406 90.769531 99.945312 90.742188 100.054688 90.675781 L 100.175781 90.609375 L 100.160156 90.46875 C 100.09375 89.839844 100.078125 88.132812 100.765625 87.777344 C 101.535156 87.382812 102.925781 88.789062 103.476562 89.535156 L 103.605469 89.707031 L 103.78125 89.578125 C 103.808594 89.558594 104.421875 89.097656 104.546875 88.523438 L 104.566406 88.441406 L 104.519531 88.367188 "/>
<path style=" stroke:none;fill-rule:evenodd;fill:rgb(5.099487%,5.099487%,5.099487%);fill-opacity:1;" d="M 104.210938 88.789062 L 104.289062 88.71875 C 104.675781 89.195312 106.050781 90.984375 107.039062 93.691406 C 107.757812 95.664062 108.351562 98.386719 107.941406 101.53125 C 108.050781 101.53125 108.15625 101.53125 108.265625 101.53125 C 108.675781 98.347656 108.074219 95.585938 107.34375 93.585938 C 106.1875 90.410156 104.503906 88.464844 104.433594 88.382812 L 104.324219 88.265625 L 104.175781 88.390625 C 104.199219 88.492188 104.230469 88.605469 104.222656 88.707031 C 104.21875 88.730469 104.214844 88.757812 104.210938 88.789062 "/>
<path style=" stroke:none;fill-rule:evenodd;fill:rgb(5.099487%,5.099487%,5.099487%);fill-opacity:1;" d="M 106.097656 94.074219 C 107.003906 96.570312 107.277344 99.066406 106.925781 101.53125 C 107.035156 101.53125 107.144531 101.53125 107.253906 101.53125 C 107.601562 99.03125 107.320312 96.5 106.402344 93.964844 C 105.484375 91.425781 104.175781 89.679688 103.78125 89.1875 C 103.769531 89.1875 103.761719 89.191406 103.753906 89.191406 C 103.640625 89.207031 103.515625 89.136719 103.441406 89.066406 C 103.433594 89.058594 103.429688 89.050781 103.421875 89.042969 L 103.3125 89.136719 L 103.421875 89.257812 C 103.433594 89.277344 105.03125 91.132812 106.097656 94.074219 "/>
<path style=" stroke:none;fill-rule:evenodd;fill:rgb(5.099487%,5.099487%,5.099487%);fill-opacity:1;" d="M 101.164062 97.71875 C 101.269531 97.683594 101.382812 97.664062 101.492188 97.660156 C 101.207031 97.042969 100.960938 96.398438 100.746094 95.726562 C 99.800781 92.746094 99.941406 90.3125 99.941406 90.285156 L 99.953125 90.125 L 99.808594 90.117188 C 99.808594 90.125 99.808594 90.136719 99.808594 90.144531 C 99.792969 90.25 99.730469 90.378906 99.636719 90.433594 C 99.628906 90.4375 99.621094 90.441406 99.613281 90.449219 C 99.597656 91.078125 99.621094 93.25 100.4375 95.824219 C 100.648438 96.480469 100.890625 97.113281 101.164062 97.71875 "/>
<path style=" stroke:none;fill-rule:evenodd;fill:rgb(5.099487%,5.099487%,5.099487%);fill-opacity:1;" d="M 99.632812 96.621094 C 99.753906 96.671875 99.871094 96.746094 99.984375 96.855469 C 100.027344 96.894531 100.0625 96.929688 100.105469 96.96875 C 99.976562 96.632812 99.863281 96.304688 99.765625 95.992188 C 98.898438 93.238281 98.902344 90.992188 98.917969 90.382812 L 99.027344 90.386719 C 99.003906 90.367188 98.984375 90.347656 98.96875 90.328125 C 98.898438 90.253906 98.855469 90.144531 98.808594 90.050781 L 98.613281 90.039062 L 98.605469 90.199219 C 98.597656 90.304688 98.441406 92.867188 99.457031 96.085938 C 99.511719 96.261719 99.570312 96.4375 99.632812 96.621094 "/>
<path style=" stroke:none;fill-rule:evenodd;fill:rgb(5.099487%,5.099487%,5.099487%);fill-opacity:1;" d="M 91.410156 94.796875 C 90.472656 90.957031 89.71875 87.605469 89.707031 87.542969 C 89.707031 87.542969 89.769531 91.710938 90.339844 94.035156 C 90.453125 94.511719 90.574219 95 90.695312 95.492188 C 90.835938 95.160156 91.089844 94.902344 91.410156 94.796875 "/>
<path style=" stroke:none;fill-rule:evenodd;fill:rgb(5.099487%,5.099487%,5.099487%);fill-opacity:1;" d="M 93.132812 103.699219 C 93.042969 103.703125 92.957031 103.695312 92.875 103.675781 C 92.894531 103.738281 92.914062 103.800781 92.929688 103.859375 C 93.082031 104.347656 93.214844 104.890625 93.324219 105.484375 C 93.371094 105.414062 93.414062 105.347656 93.464844 105.277344 C 93.628906 105.039062 93.84375 104.898438 94.070312 104.828125 C 93.976562 104.398438 93.875 103.996094 93.757812 103.621094 C 93.550781 103.667969 93.347656 103.695312 93.132812 103.699219 "/>
<path style=" stroke:none;fill-rule:evenodd;fill:rgb(5.099487%,5.099487%,5.099487%);fill-opacity:1;" d="M 132.292969 119.429688 C 132.03125 119.539062 131.691406 119.578125 131.421875 119.472656 C 131.835938 123.363281 132.511719 127.78125 133.441406 132.679688 C 132.09375 133.5625 124.945312 138.011719 116.449219 139.21875 C 113.789062 139.597656 111.882812 139.601562 109.226562 139.238281 C 100.671875 138.058594 93.464844 133.570312 92.105469 132.679688 C 93.03125 127.8125 93.703125 123.421875 94.117188 119.550781 C 93.820312 119.691406 93.507812 119.675781 93.242188 119.554688 C 92.757812 124.082031 92.015625 128.59375 91.15625 133.066406 C 93.246094 134.515625 95.664062 135.773438 97.980469 136.800781 C 100.78125 138.050781 104.734375 139.480469 109.113281 140.082031 C 111.953125 140.472656 113.757812 140.464844 116.609375 140.058594 C 120.917969 139.441406 124.804688 138.03125 127.570312 136.800781 C 129.882812 135.773438 132.304688 134.515625 134.390625 133.066406 C 133.527344 128.550781 132.777344 124.003906 132.292969 119.429688 "/>
<path style=" stroke:none;fill-rule:evenodd;fill:rgb(5.099487%,5.099487%,5.099487%);fill-opacity:1;" d="M 131.792969 103.605469 C 131.640625 104.09375 131.511719 104.632812 131.398438 105.214844 C 131.601562 105.125 131.84375 105.082031 132.121094 105.097656 C 132.179688 105.101562 132.238281 105.109375 132.292969 105.121094 C 132.386719 104.667969 132.496094 104.246094 132.617188 103.859375 C 133.398438 101.347656 134.398438 97.398438 135.207031 94.035156 C 135.777344 91.710938 135.839844 87.542969 135.839844 87.542969 C 135.816406 87.65625 133.367188 98.558594 131.792969 103.605469 "/>
<g clip-path="url(#clip6)" clip-rule="nonzero">
<path style=" stroke:none;fill-rule:evenodd;fill:rgb(5.099487%,5.099487%,5.099487%);fill-opacity:1;" d="M 104.011719 71.125 C 103.84375 70.84375 103.824219 70.542969 103.90625 70.269531 C 103.660156 70.363281 91.234375 75.664062 90.964844 75.765625 C 88.910156 76.554688 86.382812 77.605469 85.945312 78.171875 C 85.175781 79.160156 84.882812 85.085938 84.929688 88.195312 L 82.210938 95.933594 L 82.242188 96.058594 C 82.257812 96.125 82.632812 97.496094 84.464844 98.464844 C 84.449219 98.390625 84.441406 98.320312 84.441406 98.246094 C 84.441406 98.003906 84.523438 97.777344 84.660156 97.597656 C 83.597656 96.972656 83.222656 96.230469 83.113281 95.953125 L 85.792969 88.332031 L 85.792969 88.257812 C 85.722656 84.296875 86.160156 79.292969 86.625 78.691406 C 86.886719 78.363281 88.871094 77.496094 91.160156 76.609375 C 91.390625 76.519531 103.789062 71.226562 104.023438 71.140625 C 104.015625 71.132812 104.011719 71.128906 104.011719 71.125 "/>
</g>
<g clip-path="url(#clip7)" clip-rule="nonzero">
<path style=" stroke:none;fill-rule:evenodd;fill:rgb(5.099487%,5.099487%,5.099487%);fill-opacity:1;" d="M 140.445312 88.195312 C 140.496094 85.085938 140.203125 79.160156 139.433594 78.171875 C 138.996094 77.605469 136.453125 76.546875 134.394531 75.761719 C 134.144531 75.664062 121.699219 70.320312 121.46875 70.234375 C 121.574219 70.527344 121.550781 70.847656 121.398438 71.121094 C 121.59375 71.195312 133.996094 76.523438 134.191406 76.597656 C 136.492188 77.484375 138.492188 78.363281 138.753906 78.691406 C 139.21875 79.292969 139.652344 84.296875 139.585938 88.257812 L 139.582031 88.332031 L 142.265625 95.953125 C 142.15625 96.222656 141.804688 96.917969 140.84375 97.519531 C 140.960938 97.695312 141.027344 97.902344 141.027344 98.125 C 141.027344 98.226562 141.011719 98.328125 140.980469 98.429688 C 142.753906 97.464844 143.121094 96.125 143.136719 96.058594 L 143.167969 95.933594 L 140.445312 88.195312 "/>
</g>
<path style=" stroke:none;fill-rule:evenodd;fill:rgb(5.099487%,5.099487%,5.099487%);fill-opacity:1;" d="M 140.730469 95.609375 L 140.691406 95.609375 C 140.617188 95.609375 140.542969 95.601562 140.472656 95.589844 C 140.628906 97.328125 140.6875 99.25 140.65625 101.511719 C 140.621094 104.082031 140.425781 106.59375 140.085938 108.96875 C 140.003906 109.539062 139.890625 110.121094 139.785156 110.683594 C 139.546875 111.921875 139.300781 113.199219 139.332031 114.5 C 139.339844 114.804688 139.394531 115.082031 139.449219 115.347656 C 139.53125 115.734375 139.597656 116.066406 139.488281 116.414062 C 139.304688 116.988281 138.839844 117.738281 138.125 117.964844 C 137.132812 118.273438 136.058594 118.460938 135.023438 118.644531 L 134.71875 118.699219 C 131.429688 119.285156 127.96875 119.753906 124.980469 118.503906 C 122.566406 117.496094 120.214844 116.195312 117.941406 114.933594 C 116.9375 114.378906 115.90625 113.804688 114.878906 113.265625 C 114.238281 112.929688 113.648438 112.625 113.078125 112.332031 L 112.683594 113.089844 C 113.25 113.378906 113.835938 113.683594 114.476562 114.019531 C 115.496094 114.554688 116.523438 115.125 117.523438 115.679688 C 119.816406 116.953125 122.1875 118.265625 124.644531 119.292969 C 126.15625 119.921875 127.753906 120.148438 129.378906 120.148438 C 131.207031 120.148438 133.066406 119.863281 134.871094 119.539062 L 135.171875 119.484375 C 136.238281 119.296875 137.335938 119.101562 138.382812 118.777344 C 139.414062 118.453125 140.050781 117.480469 140.308594 116.671875 C 140.484375 116.117188 140.382812 115.613281 140.292969 115.175781 C 140.246094 114.9375 140.199219 114.710938 140.191406 114.480469 C 140.164062 113.269531 140.402344 112.039062 140.628906 110.84375 C 140.738281 110.269531 140.851562 109.679688 140.9375 109.089844 C 141.285156 106.675781 141.480469 104.132812 141.515625 101.523438 C 141.550781 99.199219 141.484375 97.230469 141.320312 95.4375 C 141.148438 95.550781 140.945312 95.609375 140.730469 95.609375 "/>
<path style=" stroke:none;fill-rule:evenodd;fill:rgb(5.099487%,5.099487%,5.099487%);fill-opacity:1;" d="M 134.328125 104.679688 C 131.910156 104.351562 128.878906 105.503906 124.972656 106.984375 C 123.722656 107.457031 122.433594 107.945312 121.007812 108.453125 C 116.257812 110.136719 111.082031 112.9375 106.917969 115.183594 C 103.664062 116.941406 100.851562 118.460938 99.222656 118.929688 C 95.847656 119.902344 89.269531 118.515625 87.226562 117.953125 C 86.785156 117.832031 86.296875 117.335938 86.007812 116.71875 C 85.785156 116.238281 85.765625 115.851562 85.84375 115.679688 C 86.246094 114.8125 85.945312 112.683594 85.878906 112.265625 C 84.382812 105.289062 84.675781 98.570312 84.921875 95.613281 C 84.828125 95.636719 84.726562 95.652344 84.613281 95.652344 L 84.566406 95.652344 C 84.371094 95.652344 84.207031 95.609375 84.0625 95.539062 C 83.816406 98.554688 83.519531 105.359375 85.03125 112.40625 C 85.175781 113.339844 85.28125 114.859375 85.0625 115.320312 C 84.855469 115.769531 84.917969 116.40625 85.230469 117.078125 C 85.542969 117.753906 86.171875 118.546875 86.996094 118.777344 C 87.058594 118.792969 92.03125 120.125 96.230469 120.125 C 97.410156 120.125 98.53125 120.019531 99.460938 119.753906 C 101.179688 119.257812 104.03125 117.71875 107.328125 115.933594 C 111.464844 113.699219 116.613281 110.917969 121.296875 109.253906 C 122.734375 108.746094 124.027344 108.257812 125.277344 107.78125 C 131.078125 105.582031 134.578125 104.253906 136.980469 107.109375 C 136.980469 107.109375 136.6875 105.226562 134.328125 104.679688 "/>
<path style=" stroke:none;fill-rule:evenodd;fill:rgb(5.099487%,5.099487%,5.099487%);fill-opacity:1;" d="M 132.246094 104.898438 C 130.683594 102.933594 128.316406 99.960938 122.796875 100.808594 C 118.816406 101.421875 112.152344 101.25 106.800781 101.109375 C 103.621094 101.027344 100.871094 100.953125 99.191406 101.050781 C 96.949219 101.179688 94.738281 102.957031 93.007812 104.816406 C 90.578125 107.789062 90.429688 109.625 90.429688 109.625 C 90.476562 109.546875 94.984375 102.148438 99.242188 101.902344 C 100.886719 101.808594 103.617188 101.878906 106.78125 101.960938 C 112.167969 102.101562 118.871094 102.277344 122.925781 101.65625 C 127.808594 100.902344 129.921875 103.359375 131.4375 105.257812 C 131.730469 105.152344 132.027344 105.058594 132.328125 105.003906 C 132.304688 104.964844 132.277344 104.933594 132.246094 104.898438 "/>
<g clip-path="url(#clip8)" clip-rule="nonzero">
<path style=" stroke:none;fill-rule:evenodd;fill:rgb(5.099487%,5.099487%,5.099487%);fill-opacity:1;" d="M 90.792969 96.132812 C 86 94.738281 82.65625 95.5 82.507812 95.535156 L 82.707031 96.367188 C 82.742188 96.359375 86.347656 95.542969 91.320312 97.1875 L 91.375 97.019531 C 91.054688 96.84375 90.824219 96.511719 90.792969 96.132812 "/>
</g>
<g clip-path="url(#clip9)" clip-rule="nonzero">
<path style=" stroke:none;fill-rule:evenodd;fill:rgb(5.099487%,5.099487%,5.099487%);fill-opacity:1;" d="M 134.121094 97.1875 L 133.851562 96.378906 C 139.066406 94.652344 142.78125 95.5 142.9375 95.535156 L 142.734375 96.367188 L 142.835938 95.953125 L 142.734375 96.367188 C 142.699219 96.359375 139.09375 95.542969 134.121094 97.1875 "/>
</g>
<path style=" stroke:none;fill-rule:evenodd;fill:rgb(5.099487%,5.099487%,5.099487%);fill-opacity:1;" d="M 103.089844 101.488281 C 103.285156 101.488281 103.488281 101.488281 103.683594 101.503906 C 102.652344 99.660156 101.816406 98.101562 101.75 97.839844 C 101.644531 97.386719 100.90625 96.84375 99.367188 95.792969 C 98.753906 95.371094 98.117188 94.933594 97.945312 94.738281 C 97.585938 94.332031 97.125 94.375 96.285156 94.453125 C 95.414062 94.535156 93.953125 94.667969 91.40625 94.492188 L 91.300781 94.484375 L 91.210938 94.539062 C 91.117188 94.585938 90.324219 95.042969 90.277344 95.734375 C 90.230469 96.40625 91.09375 97.121094 91.269531 97.257812 L 91.71875 96.691406 C 91.367188 96.417969 90.984375 95.972656 91 95.785156 C 91.011719 95.574219 91.285156 95.339844 91.472656 95.214844 C 94.007812 95.382812 95.472656 95.246094 96.351562 95.167969 C 97.09375 95.097656 97.296875 95.09375 97.398438 95.210938 C 97.621094 95.460938 98.136719 95.816406 98.957031 96.378906 C 99.691406 96.882812 100.921875 97.722656 101.046875 98.011719 C 101.140625 98.371094 102.003906 99.972656 102.863281 101.511719 C 102.9375 101.5 103.011719 101.492188 103.089844 101.488281 "/>
<path style=" stroke:none;fill-rule:evenodd;fill:rgb(5.099487%,5.099487%,5.099487%);fill-opacity:1;" d="M 95.507812 96.363281 C 95.339844 96.265625 95.300781 96.246094 91.699219 96.734375 C 90.78125 96.859375 89.917969 96.972656 89.566406 97.007812 C 88.960938 97.066406 88.570312 97.558594 88.542969 98.285156 C 88.523438 98.847656 88.738281 99.457031 89.175781 99.53125 L 89.296875 98.824219 C 89.34375 98.835938 89.375 98.855469 89.382812 98.863281 C 89.296875 98.773438 89.195312 98.320312 89.328125 97.984375 C 89.40625 97.769531 89.535156 97.730469 89.636719 97.722656 C 90.003906 97.6875 90.832031 97.574219 91.796875 97.445312 C 93.003906 97.28125 94.796875 97.035156 95.203125 97.023438 L 97.730469 98.429688 C 97.730469 98.429688 96.046875 96.746094 95.507812 96.363281 "/>
<path style=" stroke:none;fill-rule:evenodd;fill:rgb(5.099487%,5.099487%,5.099487%);fill-opacity:1;" d="M 94.097656 101.371094 C 94.515625 101.371094 95.027344 101.722656 95.382812 101.953125 L 95.640625 101.652344 C 95.21875 101.292969 94.179688 100.453125 93.695312 100.375 C 93.222656 100.300781 92.121094 100.484375 90.367188 100.800781 C 89.226562 101 88.78125 100.777344 88.71875 100.738281 L 88.664062 100.6875 L 88.617188 100.679688 C 88.539062 100.550781 88.464844 100.136719 88.582031 99.828125 C 88.664062 99.613281 88.792969 99.574219 88.894531 99.566406 C 89.257812 99.53125 90.089844 99.417969 91.054688 99.289062 C 92.261719 99.121094 94.050781 98.878906 94.460938 98.867188 L 96.988281 100.273438 C 96.988281 100.273438 95.351562 98.632812 94.835938 98.253906 C 94.800781 98.230469 94.773438 98.214844 94.761719 98.207031 C 94.59375 98.109375 94.558594 98.085938 90.953125 98.578125 C 90.039062 98.703125 89.175781 98.816406 88.824219 98.851562 C 88.21875 98.910156 87.828125 99.402344 87.800781 100.128906 C 87.78125 100.648438 87.960938 101.207031 88.335938 101.347656 C 88.546875 101.480469 89.160156 101.742188 90.492188 101.503906 C 91.828125 101.265625 93.203125 101.023438 93.578125 101.082031 C 93.667969 101.097656 93.859375 101.210938 94.097656 101.371094 "/>
<path style=" stroke:none;fill-rule:evenodd;fill:rgb(5.099487%,5.099487%,5.099487%);fill-opacity:1;" d="M 94.539062 104.09375 C 94.640625 104.003906 94.746094 103.917969 94.851562 103.832031 C 94.945312 103.753906 95.050781 103.640625 95.152344 103.589844 C 95.1875 103.574219 95.226562 103.558594 95.261719 103.542969 C 94.121094 103.214844 92.617188 103.242188 91.402344 103.425781 C 90.855469 103.507812 90.445312 103.386719 90.21875 103.078125 C 90.023438 102.816406 90.023438 102.507812 90.046875 102.402344 C 90.53125 102.15625 93.257812 101.484375 93.671875 101.472656 C 93.90625 101.527344 95.207031 102 96.359375 102.4375 C 96.359375 102.4375 95.699219 101.546875 95.160156 101.222656 C 94.539062 101 93.941406 100.789062 93.78125 100.761719 C 93.386719 100.699219 89.921875 101.546875 89.550781 101.871094 C 89.265625 102.117188 89.234375 102.710938 89.46875 103.222656 C 89.632812 103.566406 90.148438 104.335938 91.511719 104.136719 C 92.488281 103.988281 93.609375 103.957031 94.523438 104.109375 C 94.527344 104.105469 94.53125 104.097656 94.539062 104.09375 "/>
<path style=" stroke:none;fill-rule:evenodd;fill:rgb(62.348938%,31.759644%,25.878906%);fill-opacity:1;" d="M 112.691406 73.382812 C 112.691406 73.382812 115.980469 73.640625 117.046875 72.855469 C 118.113281 72.066406 123.015625 68.332031 123.398438 67.953125 C 123.785156 67.570312 126.070312 65.132812 126.144531 64.839844 C 126.21875 64.550781 126.75 61.035156 126.75 61.035156 C 126.75 61.035156 128.792969 58.574219 129.625 56.960938 C 130.460938 55.351562 130.5 55.175781 130.605469 54.378906 C 130.707031 53.582031 131.070312 51.144531 130.820312 50.828125 C 130.574219 50.515625 130.015625 49.941406 129.699219 50.074219 C 129.378906 50.207031 128.320312 51.097656 128.320312 51.097656 C 128.320312 51.097656 129.671875 41.160156 129.332031 39.683594 C 128.992188 38.203125 127.121094 34.980469 126.898438 34.804688 C 125.28125 33.523438 104.066406 29.359375 100.617188 33.257812 C 99.648438 34.355469 97.085938 37.6875 96.820312 38.628906 C 96.558594 39.570312 96.59375 45.03125 96.675781 45.925781 C 96.761719 46.824219 96.820312 50.792969 96.820312 50.792969 C 96.820312 50.792969 96.121094 50.03125 95.472656 50.429688 C 94.820312 50.828125 94.527344 50.984375 94.570312 51.613281 C 94.617188 52.238281 94.753906 55.128906 94.957031 55.417969 C 95.15625 55.710938 97.210938 59.378906 97.390625 59.695312 C 97.574219 60.007812 98.65625 61.035156 98.722656 60.992188 C 98.789062 60.949219 99.214844 64.910156 99.363281 65.085938 C 99.511719 65.265625 103.078125 68.601562 103.078125 68.601562 C 103.078125 68.601562 108.558594 72.957031 109.121094 73.152344 C 109.6875 73.347656 112.691406 73.382812 112.691406 73.382812 "/>
<path style=" stroke:none;fill-rule:evenodd;fill:rgb(24.308777%,19.219971%,17.649841%);fill-opacity:1;" d="M 128.117188 51.929688 C 128.476562 51.175781 128.945312 50.25 129.835938 50.035156 C 131.019531 43.457031 135.75 23.628906 112.882812 23.261719 C 94.414062 22.96875 92.429688 37.367188 95.582031 50.238281 C 95.582031 50.238281 96.289062 50.296875 96.558594 50.507812 C 96.824219 50.722656 97.273438 51.875 97.273438 51.875 C 97.273438 51.875 97.78125 51.917969 98.046875 51.917969 C 98.132812 50.71875 98.183594 48.035156 98.496094 47.203125 C 98.699219 46.667969 98.859375 46.332031 98.8125 45.90625 C 98.765625 45.480469 98.136719 41.628906 98.136719 41.628906 C 97.5625 39.34375 97.871094 37.914062 99.269531 37.160156 C 102.960938 35.167969 107 37.527344 112.722656 37.589844 C 117.886719 37.644531 121.460938 35.097656 125.835938 37.101562 C 127.457031 37.84375 127.785156 39.113281 127.210938 41.292969 C 127.210938 41.292969 126.375 45.539062 126.5 46.425781 C 126.625 47.3125 127.007812 47.621094 127.121094 50.074219 C 127.242188 52.699219 127.304688 51.59375 128.117188 51.929688 "/>
<path style=" stroke:none;fill-rule:evenodd;fill:rgb(48.239136%,23.139954%,18.818665%);fill-opacity:1;" d="M 128.527344 54.746094 C 128.527344 54.746094 129.152344 52.9375 129.625 52.519531 C 130.097656 52.105469 129.933594 53.871094 129.71875 54.542969 C 129.5 55.222656 129.042969 56.421875 128.296875 56.734375 C 128.296875 56.734375 128.671875 55.105469 128.527344 54.746094 "/>
<path style=" stroke:none;fill-rule:evenodd;fill:rgb(48.239136%,23.139954%,18.818665%);fill-opacity:1;" d="M 97.003906 54.746094 C 97.003906 54.746094 96.378906 52.9375 95.90625 52.519531 C 95.433594 52.105469 95.601562 53.871094 95.816406 54.542969 C 96.03125 55.222656 96.492188 56.421875 97.234375 56.734375 C 97.234375 56.734375 96.863281 55.105469 97.003906 54.746094 "/>
<path style=" stroke:none;fill-rule:evenodd;fill:rgb(17.248535%,13.328552%,11.759949%);fill-opacity:1;" d="M 130.976562 38.40625 C 131.167969 42.46875 130.34375 46.429688 129.835938 50.035156 C 129.835938 50.035156 128.488281 50.347656 128.320312 51.097656 C 128.144531 51.847656 128.015625 51.914062 127.4375 51.824219 C 127.28125 51.148438 127.363281 48.648438 126.925781 47.367188 C 126.925781 47.367188 126.46875 46.675781 126.5 46.082031 C 126.535156 43.289062 127.8125 40.152344 127.59375 39.035156 C 128.605469 40.019531 130.359375 39.671875 130.976562 38.40625 "/>
<path style=" stroke:none;fill-rule:evenodd;fill:rgb(17.248535%,13.328552%,11.759949%);fill-opacity:1;" d="M 94.394531 38.40625 C 94.199219 42.46875 95.023438 46.429688 95.535156 50.035156 C 95.535156 50.035156 96.878906 50.347656 97.050781 51.097656 C 97.222656 51.847656 97.269531 51.957031 97.90625 51.824219 C 98.101562 50.414062 97.890625 48.453125 98.324219 47.171875 C 98.324219 47.171875 98.785156 46.480469 98.75 45.882812 C 98.71875 43.09375 97.558594 40.152344 97.773438 39.035156 C 96.765625 40.019531 95.011719 39.671875 94.394531 38.40625 "/>
<path style=" stroke:none;fill-rule:evenodd;fill:rgb(83.529663%,52.159119%,40.388489%);fill-opacity:1;" d="M 98.703125 56.84375 C 100.035156 63.042969 100.15625 64.527344 103.25 67.433594 C 104.601562 68.707031 105.929688 70.019531 105.929688 70.019531 L 106.863281 71.59375 C 106.863281 71.59375 100.511719 67.066406 99.625 65.007812 C 98.734375 62.949219 98.703125 56.84375 98.703125 56.84375 "/>
<path style=" stroke:none;fill-rule:evenodd;fill:rgb(83.529663%,52.159119%,40.388489%);fill-opacity:1;" d="M 95.894531 56.242188 C 95.894531 56.242188 98.039062 59.574219 98.675781 59.605469 L 98.675781 60.738281 C 98.675781 60.738281 96.53125 59.117188 95.894531 56.242188 "/>
<path style=" stroke:none;fill-rule:evenodd;fill:rgb(83.529663%,52.159119%,40.388489%);fill-opacity:1;" d="M 126.796875 56.84375 C 124.582031 65.550781 125.695312 63.828125 119.574219 70.019531 L 118.640625 71.851562 C 118.640625 71.851562 125.015625 67.113281 125.902344 65.054688 C 126.789062 62.992188 126.796875 56.84375 126.796875 56.84375 "/>
<path style=" stroke:none;fill-rule:evenodd;fill:rgb(83.529663%,52.159119%,40.388489%);fill-opacity:1;" d="M 129.605469 56.242188 C 129.605469 56.242188 127.464844 59.574219 126.824219 59.605469 L 126.824219 60.738281 C 126.824219 60.738281 128.96875 59.117188 129.605469 56.242188 "/>
<path style=" stroke:none;fill-rule:evenodd;fill:rgb(83.529663%,52.159119%,40.388489%);fill-opacity:1;" d="M 104.898438 67.484375 C 104.898438 67.484375 107.949219 71.363281 109.078125 71.902344 C 110.203125 72.441406 111.429688 72.382812 112.863281 72.371094 C 114.300781 72.355469 115.476562 72.253906 116.144531 72.003906 C 116.8125 71.757812 119.441406 69.550781 120.640625 67.484375 C 120.640625 67.484375 120.390625 68.910156 118.707031 71.09375 C 118.707031 71.09375 117.234375 72.832031 116.816406 72.996094 C 116.402344 73.152344 112.765625 73.726562 109.21875 73.179688 C 109.21875 73.179688 108.414062 72.902344 107.511719 71.839844 C 106.605469 70.773438 105.128906 68.773438 104.898438 67.484375 "/>
<path style=" stroke:none;fill-rule:evenodd;fill:rgb(5.099487%,5.099487%,5.099487%);fill-opacity:1;" d="M 128.359375 50.691406 C 128.28125 50.824219 127.980469 51.078125 127.90625 51.636719 C 127.847656 51.652344 127.714844 51.664062 127.613281 51.671875 C 127.660156 49.300781 127.539062 47.28125 127.140625 46.65625 C 126.796875 46.125 127.085938 44.1875 127.4375 42.421875 C 127.59375 41.644531 127.847656 40.6875 127.914062 39.925781 C 128.09375 37.894531 126.628906 36.90625 124.785156 36.457031 C 120.675781 35.457031 118.542969 37.316406 112.742188 37.320312 C 106.945312 37.328125 104.273438 35.355469 100.203125 36.597656 C 98.378906 37.15625 97.058594 38.300781 97.550781 40.609375 C 97.769531 41.648438 97.886719 41.9375 98.105469 43.1875 C 98.375 44.746094 98.476562 46.363281 98.191406 46.816406 C 97.949219 47.191406 97.84375 48.230469 97.800781 49.476562 C 97.773438 50.222656 97.777344 50.859375 97.773438 51.652344 C 97.65625 51.644531 97.519531 51.640625 97.382812 51.644531 C 97.210938 50.867188 97.152344 50.722656 96.984375 50.480469 C 96.984375 50.480469 96.738281 50.226562 96.84375 51.308594 C 96.917969 51.625 96.988281 51.910156 97.027344 52.074219 L 98.3125 52.167969 C 98.296875 51.84375 98.328125 51.59375 98.335938 51.175781 C 98.378906 49.183594 98.539062 47.445312 98.789062 47.054688 C 99.183594 46.433594 98.96875 44.589844 98.707031 43.109375 C 98.542969 42.171875 98.351562 41.449219 98.167969 40.582031 C 97.738281 38.582031 98.804688 37.71875 100.417969 37.199219 C 104.339844 35.933594 106.992188 38.011719 112.761719 38.007812 C 118.53125 38 120.644531 36.097656 124.640625 37.082031 C 126.304688 37.492188 127.398438 38.148438 127.269531 39.90625 C 127.214844 40.636719 126.910156 41.535156 126.757812 42.285156 C 126.449219 43.808594 126.046875 46.308594 126.519531 47.054688 C 126.808594 47.503906 126.945312 49.757812 126.996094 52.121094 C 127.359375 52.152344 128.125 52.089844 128.332031 52.058594 C 128.40625 51.683594 128.675781 50.972656 128.359375 50.691406 "/>
<path style=" stroke:none;fill-rule:evenodd;fill:rgb(5.099487%,5.099487%,5.099487%);fill-opacity:1;" d="M 97.976562 57.257812 C 96.53125 56.550781 96.800781 55.464844 96.722656 54.789062 C 96.695312 54.546875 96.519531 54.042969 96.308594 53.5 C 95.636719 53.28125 96.191406 55.617188 96.191406 55.617188 C 95.132812 53.058594 96.101562 52.980469 96.101562 52.980469 C 95.789062 52.207031 95.472656 51.5 95.472656 51.5 C 96.058594 52.238281 97.027344 54.410156 97.035156 54.589844 C 97.039062 54.769531 97.207031 55.328125 97.164062 55.933594 C 97.117188 56.535156 97.976562 57.257812 97.976562 57.257812 Z M 127.5625 57.257812 C 127.5625 57.257812 128.421875 56.535156 128.375 55.933594 C 128.332031 55.328125 128.496094 54.769531 128.503906 54.589844 C 128.511719 54.410156 129.480469 52.238281 130.066406 51.5 C 130.066406 51.5 129.75 52.207031 129.4375 52.980469 C 129.4375 52.980469 130.40625 53.058594 129.347656 55.617188 C 129.347656 55.617188 129.902344 53.28125 129.230469 53.5 C 129.019531 54.042969 128.84375 54.546875 128.816406 54.789062 C 128.738281 55.464844 129.007812 56.550781 127.5625 57.257812 Z M 130.734375 50.226562 C 130.277344 49.789062 129.695312 49.796875 129.632812 49.800781 L 129.589844 49.800781 L 129.554688 49.8125 C 129.117188 49.925781 128.699219 50.296875 128.359375 50.691406 C 128.363281 50.769531 128.121094 51.816406 128.070312 52.007812 L 128.332031 52.058594 C 128.644531 51.503906 129.183594 50.691406 129.695312 50.515625 C 129.785156 50.523438 130.039062 50.558594 130.234375 50.738281 C 130.410156 50.910156 130.5 51.183594 130.5 51.546875 C 130.5 53.144531 130.34375 54.78125 130.21875 55.070312 C 129.90625 55.761719 128.332031 58.957031 127.101562 60.292969 C 127.210938 58.5 126.835938 56.84375 126.835938 56.84375 C 126.828125 56.882812 126.546875 59.160156 126.289062 61.269531 C 125.914062 64.347656 125.109375 65.765625 123.382812 67.410156 C 122.316406 68.425781 120.683594 69.792969 119.238281 70.914062 C 120.398438 69.246094 120.640625 67.484375 120.640625 67.484375 C 119.882812 69.78125 117.714844 71.847656 117.429688 72.109375 C 117.320312 72.191406 117.222656 72.265625 117.136719 72.335938 C 116.792969 72.613281 116.480469 72.859375 115.167969 72.980469 C 113.773438 73.113281 111.503906 73.117188 110.132812 72.957031 C 109.019531 72.828125 108.726562 72.59375 108.40625 72.335938 C 108.316406 72.265625 108.21875 72.191406 108.105469 72.109375 C 107.824219 71.847656 105.65625 69.78125 104.898438 67.484375 C 104.898438 67.484375 105.140625 69.246094 106.300781 70.910156 C 105.867188 70.578125 105.371094 70.175781 104.839844 69.734375 C 100.757812 66.316406 99.867188 66.058594 99.25 61.273438 C 98.980469 59.167969 98.707031 56.882812 98.703125 56.84375 C 98.703125 56.84375 98.332031 58.65625 98.453125 60.308594 C 97.21875 58.980469 95.632812 55.765625 95.324219 55.070312 C 95.195312 54.78125 95.035156 53.144531 95.035156 51.546875 C 95.035156 51.1875 95.125 50.914062 95.300781 50.746094 C 95.492188 50.558594 95.753906 50.523438 95.847656 50.515625 C 96.285156 50.667969 96.839844 51.367188 97.183594 51.914062 C 97.140625 51.449219 97.015625 50.957031 96.984375 50.480469 C 96.691406 50.175781 96.363281 49.910156 95.949219 49.800781 L 95.90625 49.800781 C 95.84375 49.796875 95.261719 49.789062 94.804688 50.226562 C 94.480469 50.535156 94.316406 50.980469 94.316406 51.546875 C 94.316406 52.773438 94.425781 54.835938 94.660156 55.363281 C 94.683594 55.410156 96.886719 60.214844 98.53125 61.332031 C 99.160156 66.4375 99.929688 66.679688 103.269531 69.371094 C 104.546875 70.402344 105.601562 71.09375 106.929688 72.007812 C 107.964844 73.027344 108.566406 73.496094 110.085938 73.667969 C 111.390625 73.816406 113.839844 73.816406 115.179688 73.699219 C 116.773438 73.554688 117.402344 73.167969 118.417969 72.175781 C 120.027344 71.148438 121.214844 70.242188 122.65625 69.027344 C 123.535156 68.289062 124.425781 67.515625 124.9375 66.941406 C 126.304688 65.410156 126.585938 64.023438 127.007812 61.328125 C 128.648438 60.214844 130.855469 55.410156 130.875 55.363281 C 131.113281 54.835938 131.222656 52.773438 131.222656 51.546875 C 131.222656 50.980469 131.058594 50.535156 130.734375 50.226562 "/>
<path style=" stroke:none;fill-rule:evenodd;fill:rgb(45.098877%,36.859131%,32.548523%);fill-opacity:1;" d="M 95.414062 48.019531 C 95.414062 48.019531 94.738281 43.269531 95.738281 38.101562 C 96.410156 34.625 97.890625 30.722656 100.683594 28.84375 C 107.632812 24.183594 117.027344 25.242188 120.460938 26.730469 C 123.894531 28.21875 128.949219 31.390625 129.855469 38.402344 C 130.765625 45.414062 129.976562 49.566406 129.976562 49.566406 C 129.976562 49.566406 133.332031 35.855469 127.886719 29.472656 C 127.886719 29.472656 123.777344 23.242188 112.726562 23.242188 C 112.726562 23.242188 104.511719 23.167969 100.09375 27.003906 C 100.09375 27.003906 95.09375 30.542969 94.445312 38.363281 C 94.09375 42.671875 95.414062 48.019531 95.414062 48.019531 "/>
<g clip-path="url(#clip10)" clip-rule="nonzero">
<path style=" stroke:none;fill-rule:evenodd;fill:rgb(5.099487%,5.099487%,5.099487%);fill-opacity:1;" d="M 95.222656 50.203125 C 95.21875 50.183594 94.117188 44.15625 94.054688 40.25 C 94.050781 40.074219 94.050781 39.894531 94.050781 39.71875 C 94.082031 34.707031 95.761719 30.546875 98.851562 27.613281 C 101.9375 24.683594 106.421875 22.980469 112.066406 22.890625 C 112.511719 22.882812 112.972656 22.882812 113.417969 22.890625 C 119.0625 22.980469 123.539062 24.683594 126.613281 27.613281 C 129.695312 30.546875 131.367188 34.707031 131.398438 39.71875 C 131.402344 39.894531 131.398438 40.074219 131.398438 40.25 C 131.332031 44.15625 130.234375 50.183594 130.226562 50.203125 L 129.484375 50.066406 C 129.488281 50.046875 130.578125 44.082031 130.644531 40.238281 L 130.644531 39.71875 C 130.613281 34.921875 129.023438 30.945312 126.09375 28.152344 C 123.152344 25.351562 118.851562 23.730469 113.40625 23.640625 C 112.96875 23.632812 112.515625 23.632812 112.078125 23.640625 C 106.632812 23.730469 102.324219 25.351562 99.375 28.152344 C 96.433594 30.945312 94.835938 34.921875 94.804688 39.722656 L 94.808594 40.238281 C 94.871094 44.082031 95.960938 50.046875 95.964844 50.066406 L 95.222656 50.203125 "/>
</g>
<path style=" stroke:none;fill-rule:evenodd;fill:rgb(17.248535%,13.328552%,11.759949%);fill-opacity:1;" d="M 116.703125 45.117188 C 116.9375 44.417969 119.222656 44.582031 120.511719 44.769531 C 121.789062 44.957031 122.398438 46.144531 122.449219 46.96875 C 121.4375 46.574219 120.222656 46.664062 117.808594 46.855469 C 117.210938 46.902344 116.25 46.460938 116.703125 45.117188 "/>
<path style=" stroke:none;fill-rule:evenodd;fill:rgb(5.099487%,5.099487%,5.099487%);fill-opacity:1;" d="M 117.859375 44.941406 C 117.398438 44.984375 117.050781 45.070312 117 45.214844 C 116.917969 45.464844 116.890625 45.675781 116.90625 45.847656 C 116.941406 46.308594 117.335938 46.578125 117.785156 46.542969 C 118.992188 46.445312 119.898438 46.375 120.65625 46.378906 C 121.191406 46.382812 121.640625 46.425781 122.046875 46.515625 C 121.960938 46.234375 121.808594 45.941406 121.585938 45.691406 C 121.320312 45.386719 120.949219 45.152344 120.464844 45.078125 C 119.722656 44.972656 118.65625 44.871094 117.859375 44.941406 Z M 116.40625 45.015625 C 116.550781 44.585938 117.101562 44.386719 117.804688 44.320312 C 118.660156 44.242188 119.785156 44.347656 120.554688 44.460938 C 121.203125 44.554688 121.699219 44.875 122.058594 45.28125 C 122.667969 45.972656 122.6875 46.585938 122.742188 47.234375 C 121.933594 46.984375 121.5625 47.007812 120.652344 47.003906 C 119.945312 47 119.039062 47.070312 117.832031 47.167969 C 117.042969 47.230469 116.339844 46.695312 116.277344 45.898438 C 116.253906 45.644531 116.289062 45.355469 116.40625 45.015625 "/>
<path style=" stroke:none;fill-rule:evenodd;fill:rgb(17.248535%,13.328552%,11.759949%);fill-opacity:1;" d="M 108.84375 45.117188 C 108.609375 44.417969 106.328125 44.582031 105.039062 44.769531 C 103.757812 44.957031 103.148438 46.144531 103.097656 46.96875 C 104.109375 46.574219 105.328125 46.664062 107.742188 46.855469 C 108.339844 46.902344 109.296875 46.460938 108.84375 45.117188 "/>
<path style=" stroke:none;fill-rule:evenodd;fill:rgb(5.099487%,5.099487%,5.099487%);fill-opacity:1;" d="M 107.6875 44.941406 C 108.152344 44.984375 108.496094 45.070312 108.546875 45.214844 C 108.628906 45.464844 108.65625 45.675781 108.644531 45.847656 C 108.609375 46.308594 108.210938 46.578125 107.765625 46.542969 C 106.558594 46.445312 105.648438 46.375 104.894531 46.378906 C 104.359375 46.382812 103.910156 46.425781 103.5 46.515625 C 103.589844 46.234375 103.742188 45.941406 103.960938 45.691406 C 104.230469 45.386719 104.601562 45.152344 105.085938 45.078125 C 105.824219 44.972656 106.894531 44.871094 107.6875 44.941406 Z M 109.144531 45.015625 C 109 44.585938 108.449219 44.386719 107.746094 44.320312 C 106.886719 44.242188 105.765625 44.347656 104.992188 44.460938 C 104.347656 44.554688 103.847656 44.875 103.488281 45.28125 C 102.878906 45.972656 102.863281 46.585938 102.808594 47.234375 C 103.613281 46.984375 103.984375 47.007812 104.898438 47.003906 C 105.605469 47 106.511719 47.070312 107.71875 47.167969 C 108.507812 47.230469 109.207031 46.695312 109.273438 45.898438 C 109.292969 45.644531 109.257812 45.355469 109.144531 45.015625 "/>
<path style=" stroke:none;fill-rule:evenodd;fill:rgb(79.219055%,44.709778%,43.919373%);fill-opacity:1;" d="M 106.53125 61.097656 C 108.945312 61.8125 110.410156 61.527344 112.785156 61.527344 C 114.886719 61.523438 116.898438 61.921875 118.964844 61.09375 L 119.527344 61.867188 C 119.527344 61.867188 118.964844 62.816406 118.75 63.855469 C 118.628906 64.425781 118.609375 65.449219 117.515625 66.40625 C 116.75 67.074219 115.453125 67.722656 113.429688 67.820312 C 109.226562 68.027344 108.070312 66.59375 107.378906 65.449219 C 106.6875 64.304688 106.828125 62.867188 106.027344 61.835938 L 106.53125 61.097656 "/>
<path style=" stroke:none;fill-rule:evenodd;fill:rgb(100%,100%,100%);fill-opacity:1;" d="M 119.023438 61.683594 C 119.023438 61.683594 118.132812 63.601562 118.070312 63.898438 C 118.011719 64.199219 117.917969 65.675781 115.90625 66.347656 C 113.890625 67.019531 112.296875 66.839844 110.613281 66.617188 C 108.925781 66.394531 108.160156 65.691406 107.664062 64.527344 C 107.167969 63.363281 106.597656 61.46875 106.566406 61.453125 C 106.535156 61.4375 109.378906 62.886719 112.519531 62.738281 C 115.664062 62.585938 119.023438 61.683594 119.023438 61.683594 "/>
<path style=" stroke:none;fill-rule:evenodd;fill:rgb(48.239136%,23.139954%,18.818665%);fill-opacity:1;" d="M 109.640625 59.359375 C 109.046875 58.492188 109.375 58.078125 109.804688 57.671875 C 109.972656 57.511719 110.367188 57.398438 110.167969 57.59375 C 109.992188 57.761719 109.847656 57.972656 109.863281 58.277344 C 109.871094 58.449219 110.015625 58.707031 110.382812 58.839844 C 110.734375 58.941406 110.78125 58.921875 111.128906 58.921875 C 111.347656 58.921875 111.40625 58.949219 111.566406 59.121094 C 112.019531 59.613281 112.285156 59.71875 112.761719 59.71875 C 113.25 59.71875 113.679688 59.441406 113.925781 59.179688 C 114.15625 58.9375 114.421875 59.0625 115.15625 58.824219 C 115.453125 58.679688 115.613281 58.433594 115.621094 58.277344 C 115.632812 57.972656 115.488281 57.761719 115.316406 57.59375 C 115.113281 57.398438 115.511719 57.511719 115.675781 57.671875 C 116.070312 58.046875 116.367188 58.417969 115.953125 59.144531 C 115.949219 59.167969 115.9375 59.191406 115.925781 59.214844 C 115.898438 59.257812 115.863281 59.304688 115.828125 59.347656 C 115.191406 60.144531 113.617188 61.015625 112.84375 61.027344 C 112.03125 61.039062 110.03125 60.074219 109.640625 59.359375 "/>
<path style=" stroke:none;fill-rule:evenodd;fill:rgb(5.099487%,5.099487%,5.099487%);fill-opacity:1;" d="M 111.390625 59.320312 C 111.097656 59.152344 110.824219 59.011719 110.367188 58.921875 C 110.015625 58.851562 109.613281 58.867188 109.761719 59.214844 C 109.980469 59.734375 111.039062 59.371094 111.390625 59.320312 "/>
<path style=" stroke:none;fill-rule:evenodd;fill:rgb(5.099487%,5.099487%,5.099487%);fill-opacity:1;" d="M 111.621094 59.441406 C 112.113281 60.3125 113.289062 60.355469 113.921875 59.441406 C 113.277344 59.957031 112.261719 59.957031 111.621094 59.441406 "/>
<path style=" stroke:none;fill-rule:evenodd;fill:rgb(5.099487%,5.099487%,5.099487%);fill-opacity:1;" d="M 114.878906 66.398438 C 116.285156 66.117188 117.050781 65.542969 117.484375 64.984375 C 117.824219 64.386719 117.761719 63.703125 117.761719 63.703125 C 116.070312 64.363281 114.5 64.351562 114.5 64.351562 C 117.234375 64.074219 118.378906 62.359375 118.660156 61.851562 C 118.554688 61.894531 118.464844 61.933594 118.414062 61.949219 C 115.136719 63.238281 110.109375 63.238281 106.878906 61.839844 C 107.148438 62.335938 108.289062 64.074219 111.039062 64.351562 C 111.039062 64.351562 109.472656 64.363281 107.78125 63.703125 C 107.78125 63.703125 107.71875 64.386719 108.058594 64.984375 C 108.507812 65.566406 109.320312 66.160156 110.839844 66.429688 C 112.023438 66.640625 113.707031 66.632812 114.878906 66.398438 Z M 110.710938 66.769531 C 108.730469 66.398438 107.535156 65.410156 107.140625 63.824219 C 106.957031 63.066406 106.417969 62.125 106.125 61.644531 C 106 61.4375 106.121094 61.269531 106.25 61.285156 C 106.3125 61.230469 106.402344 61.199219 106.460938 61.234375 C 109.566406 62.925781 114.984375 62.898438 118.277344 61.613281 C 118.4375 61.554688 118.964844 61.332031 119.113281 61.261719 C 119.148438 61.277344 119.175781 61.292969 119.195312 61.3125 C 119.28125 61.183594 119.484375 61.535156 119.453125 61.582031 C 119.171875 62.039062 118.59375 63.035156 118.398438 63.824219 C 118.011719 65.386719 116.847656 66.367188 114.921875 66.75 C 113.695312 66.996094 111.945312 67 110.710938 66.769531 Z M 114.664062 68.121094 C 113.621094 68.351562 112.175781 68.421875 110.902344 68.121094 C 112.019531 68.933594 114.078125 68.714844 114.664062 68.121094 "/>
<path style=" stroke:none;fill-rule:evenodd;fill:rgb(5.099487%,5.099487%,5.099487%);fill-opacity:1;" d="M 118.476562 60.925781 C 118.476562 60.925781 119.375 61.523438 119.683594 62.636719 C 119.796875 61.878906 119.699219 60.71875 118.476562 60.925781 "/>
<path style=" stroke:none;fill-rule:evenodd;fill:rgb(5.099487%,5.099487%,5.099487%);fill-opacity:1;" d="M 118.296875 61.796875 C 118.332031 61.929688 118.109375 62.699219 117.820312 63.269531 C 118.4375 62.917969 119.207031 61.96875 119.230469 61.441406 C 118.917969 61.558594 118.609375 61.679688 118.296875 61.796875 "/>
<path style=" stroke:none;fill-rule:evenodd;fill:rgb(5.099487%,5.099487%,5.099487%);fill-opacity:1;" d="M 107.074219 60.925781 C 107.074219 60.925781 106.175781 61.523438 105.871094 62.636719 C 105.757812 61.878906 105.855469 60.71875 107.074219 60.925781 "/>
<path style=" stroke:none;fill-rule:evenodd;fill:rgb(5.099487%,5.099487%,5.099487%);fill-opacity:1;" d="M 107.253906 61.796875 C 107.21875 61.929688 107.441406 62.699219 107.730469 63.269531 C 107.113281 62.917969 106.347656 61.96875 106.324219 61.441406 C 106.632812 61.558594 106.945312 61.679688 107.253906 61.796875 "/>
<path style=" stroke:none;fill-rule:evenodd;fill:rgb(5.099487%,5.099487%,5.099487%);fill-opacity:1;" d="M 114.164062 59.320312 C 114.457031 59.152344 114.726562 59.011719 115.1875 58.921875 C 115.535156 58.851562 115.9375 58.867188 115.789062 59.214844 C 115.570312 59.734375 114.511719 59.371094 114.164062 59.320312 "/>
<path style=" stroke:none;fill-rule:evenodd;fill:rgb(83.529663%,52.159119%,40.388489%);fill-opacity:1;" d="M 112.75 57.085938 C 113.277344 57.085938 113.710938 57.414062 113.710938 57.820312 C 113.710938 58.226562 113.277344 58.554688 112.75 58.554688 C 112.21875 58.554688 111.789062 58.226562 111.789062 57.820312 C 111.789062 57.414062 112.21875 57.085938 112.75 57.085938 "/>
<path style=" stroke:none;fill-rule:evenodd;fill:rgb(83.529663%,52.159119%,40.388489%);fill-opacity:1;" d="M 110.617188 57.441406 C 110.507812 57.492188 110.195312 57.636719 110.070312 57.890625 C 109.949219 58.144531 110.292969 58.230469 110.621094 58.105469 C 111.050781 57.9375 111.007812 57.261719 110.617188 57.441406 "/>
<path style=" stroke:none;fill-rule:evenodd;fill:rgb(83.529663%,52.159119%,40.388489%);fill-opacity:1;" d="M 114.863281 57.441406 C 114.972656 57.492188 115.28125 57.636719 115.40625 57.890625 C 115.53125 58.144531 115.183594 58.230469 114.859375 58.105469 C 114.429688 57.9375 114.46875 57.261719 114.863281 57.441406 "/>
<path style=" stroke:none;fill-rule:evenodd;fill:rgb(5.099487%,5.099487%,5.099487%);fill-opacity:1;" d="M 106.039062 55.066406 C 104.707031 55.066406 104.707031 51.265625 106.039062 51.265625 C 107.375 51.265625 107.375 55.066406 106.039062 55.066406 "/>
<path style=" stroke:none;fill-rule:evenodd;fill:rgb(5.099487%,5.099487%,5.099487%);fill-opacity:1;" d="M 119.21875 55.066406 C 117.886719 55.066406 117.886719 51.265625 119.21875 51.265625 C 120.554688 51.265625 120.554688 55.066406 119.21875 55.066406 "/>
</g>
</svg>
