<svg class="person" viewBox="0 0 224.87999 225">
<g id="surface1">
<path style=" stroke:none;fill-rule:evenodd;fill:rgb(32.159424%,39.219666%,72.158813%);fill-opacity:1;" d="M 133.644531 80.5 C 134.144531 80.8125 135.730469 81.941406 136.40625 83.097656 C 137.234375 84.511719 140.871094 90.800781 140.871094 90.800781 L 140.339844 94.851562 C 139.722656 95.507812 137.964844 97.0625 136.800781 100.910156 L 133.632812 97.292969 C 134.015625 101.21875 131.238281 104.136719 130.96875 108.125 C 130.714844 111.894531 132.003906 117.78125 132.835938 121.753906 C 134.355469 126.03125 134.957031 127.492188 135.402344 129.621094 C 135.851562 131.753906 135.972656 133.800781 135.972656 133.800781 L 134.347656 134.9375 C 134.347656 134.9375 134.722656 141.800781 134.355469 145.203125 C 133.988281 148.605469 133.246094 153.265625 133 154.535156 C 132.753906 155.808594 132.429688 157.652344 132.917969 159.453125 C 133.40625 161.257812 134.546875 166.214844 133.773438 169.042969 C 133 171.871094 131.328125 176.992188 130.921875 178.792969 C 130.511719 180.597656 129.574219 185.769531 129.574219 185.769531 L 129.535156 186.128906 C 129.535156 186.128906 127.191406 187.417969 124.320312 187.113281 C 121.445312 186.808594 119.753906 185.71875 119.632812 185.144531 C 119.632812 185.144531 119.753906 174.738281 119.957031 168.46875 C 120.160156 162.199219 119.671875 152.363281 119.019531 147.324219 C 118.367188 142.285156 117.59375 139.867188 117.59375 139.867188 L 117.476562 139.867188 C 117.476562 139.867188 116.703125 142.285156 116.050781 147.324219 C 115.398438 152.363281 114.910156 162.199219 115.113281 168.46875 C 115.316406 174.738281 115.4375 185.144531 115.4375 185.144531 C 115.316406 185.71875 113.625 186.808594 110.75 187.113281 C 107.878906 187.417969 105.535156 186.128906 105.535156 186.128906 L 105.496094 185.769531 C 105.496094 185.769531 104.558594 180.597656 104.148438 178.792969 C 103.742188 176.992188 102.070312 171.871094 101.296875 169.042969 C 100.523438 166.214844 101.664062 161.257812 102.152344 159.453125 C 102.640625 157.652344 102.316406 155.808594 102.070312 154.535156 C 101.828125 153.265625 101.171875 149.796875 100.804688 146.394531 C 100.4375 142.992188 100.722656 134.9375 100.722656 134.9375 L 99.097656 133.800781 C 99.367188 129.25 100.734375 125.976562 102.234375 121.753906 C 103.484375 117.617188 104.105469 109.3125 104.003906 107.097656 C 103.867188 105.519531 103.214844 104.0625 102.792969 102.550781 C 102.542969 101.667969 102.394531 100.757812 102.144531 99.871094 C 102.097656 99.695312 101.613281 97.703125 101.089844 97.957031 C 101.160156 95.363281 101.253906 92.765625 101.203125 90.167969 C 101.171875 88.4375 101.011719 86.722656 100.921875 84.996094 C 100.839844 83.316406 101.128906 81.683594 101.148438 80.007812 C 101.148438 79.996094 101.148438 79.988281 101.148438 79.976562 L 109.203125 76.289062 C 111.21875 79.917969 114.324219 83.636719 117.535156 86.742188 C 120.746094 83.636719 123.898438 79.78125 125.867188 76.289062 C 126.414062 76.582031 131.113281 79.042969 133.644531 80.5 "/>
<path style=" stroke:none;fill-rule:evenodd;fill:rgb(63.529968%,67.059326%,86.669922%);fill-opacity:1;" d="M 101.589844 80.011719 C 101.574219 80.5625 101.765625 81.550781 101.71875 82.09375 C 102.085938 81.914062 106.90625 79.25 109.976562 77.601562 C 109.601562 76.925781 109.503906 76.816406 109.203125 76.289062 L 101.589844 80.011719 "/>
<path style=" stroke:none;fill-rule:evenodd;fill:rgb(63.529968%,67.059326%,86.669922%);fill-opacity:1;" d="M 125.214844 77.578125 C 125.214844 77.578125 133.25 81.855469 133.925781 82.316406 C 134.46875 82.683594 135.070312 83.195312 135.480469 83.851562 C 136.394531 85.324219 140.59375 92.925781 140.59375 92.925781 L 140.871094 90.800781 L 136.40625 82.746094 L 133.804688 80.660156 L 125.828125 76.359375 L 125.214844 77.578125 "/>
<path style=" stroke:none;fill-rule:evenodd;fill:rgb(69.018555%,81.17981%,87.059021%);fill-opacity:1;" d="M 106.800781 186.652344 C 106.800781 186.652344 108.835938 187.464844 110.75 187.113281 C 112.667969 186.761719 114.207031 186.039062 114.207031 186.039062 C 114.207031 186.039062 115.0625 189.871094 115.519531 193.320312 C 115.976562 196.773438 115.582031 200.449219 110.933594 201.433594 C 106.289062 202.417969 98.410156 201.433594 101.785156 196.273438 C 101.785156 196.273438 104.792969 192.523438 105.496094 190.894531 C 106.199219 189.265625 106.800781 186.652344 106.800781 186.652344 "/>
<path style=" stroke:none;fill-rule:evenodd;fill:rgb(69.018555%,81.17981%,87.059021%);fill-opacity:1;" d="M 128.191406 186.652344 C 128.191406 186.652344 126.152344 187.464844 124.238281 187.113281 C 122.320312 186.761719 120.785156 186.039062 120.785156 186.039062 C 120.785156 186.039062 119.925781 189.871094 119.46875 193.320312 C 119.011719 196.773438 119.410156 200.449219 124.054688 201.433594 C 128.699219 202.417969 136.582031 201.433594 133.207031 196.273438 C 133.207031 196.273438 130.199219 192.523438 129.496094 190.894531 C 128.792969 189.265625 128.191406 186.652344 128.191406 186.652344 "/>
<path style=" stroke:none;fill-rule:evenodd;fill:rgb(96.469116%,78.819275%,64.709473%);fill-opacity:1;" d="M 122.679688 74.320312 L 125.972656 76.449219 C 125.972656 76.449219 120.59375 84.695312 117.476562 86.6875 C 117.476562 86.6875 111.167969 80.808594 109.203125 76.289062 L 112.402344 74.136719 C 112.402344 74.136719 115.214844 75.554688 117.476562 75.429688 C 119.738281 75.308594 122.679688 74.320312 122.679688 74.320312 "/>
<path style=" stroke:none;fill-rule:evenodd;fill:rgb(96.469116%,78.819275%,64.709473%);fill-opacity:1;" d="M 116.75 75.421875 C 116.75 75.421875 123.328125 75.792969 126.660156 70.820312 L 130.25 64.425781 C 130.25 64.425781 133.132812 62.710938 133.839844 59.941406 C 134.550781 57.175781 134.507812 53.679688 131.675781 56.125 C 131.675781 56.125 130.042969 53.214844 127.792969 51.691406 C 125.546875 50.167969 119.792969 47.992188 117.859375 45.617188 C 115.925781 43.242188 113.882812 39.472656 113.882812 39.472656 C 113.882812 39.472656 112.625 42.667969 110.464844 45.292969 C 108.308594 47.914062 105.136719 52.089844 104.636719 53.445312 C 104.140625 54.800781 103.890625 56.269531 103.890625 56.269531 C 103.890625 56.269531 102.558594 54.699219 101.214844 55.667969 C 99.871094 56.640625 100.921875 61.886719 104.980469 64.386719 C 104.980469 64.386719 106.40625 73.585938 116.75 75.421875 "/>
<path style=" stroke:none;fill-rule:evenodd;fill:rgb(79.60968%,52.549744%,10.198975%);fill-opacity:1;" d="M 103.941406 56 C 103.941406 56 104.917969 52.648438 106.125 50.972656 C 107.332031 49.292969 110.242188 45.726562 111.070312 44.515625 C 111.894531 43.300781 114.050781 39.472656 114.050781 39.472656 C 114.050781 39.472656 115.550781 43.929688 118.34375 46.019531 C 121.132812 48.109375 125.445312 50.316406 126.496094 50.925781 C 127.550781 51.53125 130.816406 55.109375 130.816406 55.109375 L 131.261719 56.5 C 131.261719 56.5 132.117188 55.171875 132.878906 55.289062 C 133.644531 55.40625 133.980469 55.289062 133.980469 55.289062 L 134.226562 53.050781 C 134.226562 53.050781 135.03125 46.847656 132.941406 43.285156 C 130.851562 39.71875 131.015625 39.949219 130.328125 37.894531 C 129.640625 35.84375 128.480469 29.453125 123.160156 26.011719 C 117.84375 22.570312 113.777344 27.597656 112.800781 29.976562 C 112.800781 29.976562 109.4375 26.347656 105.097656 29.390625 C 100.757812 32.433594 101.03125 41.132812 101.613281 44.144531 C 101.613281 44.144531 100.628906 48.632812 100.660156 50.875 C 100.695312 53.117188 101.246094 55.761719 101.246094 55.761719 C 101.246094 55.761719 101.917969 54.878906 102.621094 55.289062 C 103.324219 55.699219 103.890625 56.640625 103.890625 56.640625 L 103.941406 56 "/>
<path style=" stroke:none;fill-rule:evenodd;fill:rgb(75.689697%,80.389404%,82.749939%);fill-opacity:1;" d="M 126.277344 97.105469 L 126.871094 97.382812 L 125.667969 100.742188 L 125.566406 102.394531 C 125.566406 102.394531 124.972656 104.625 123.984375 105.210938 C 122.996094 105.792969 121.746094 105.507812 121.398438 104.410156 C 121.050781 103.316406 120.847656 101.871094 121.296875 100.785156 C 121.746094 99.699219 122.96875 98.414062 123.597656 98.390625 C 124.230469 98.367188 124.464844 98.613281 124.667969 98.808594 C 124.871094 99 125.289062 99.554688 125.289062 99.554688 L 126.277344 97.105469 "/>
<path style=" stroke:none;fill-rule:evenodd;fill:rgb(29.40979%,34.509277%,38.819885%);fill-opacity:1;" d="M 126.402344 96.5625 L 126.164062 97.105469 L 126.828125 97.304688 C 126.828125 97.304688 127.492188 95.457031 127.664062 94.628906 C 127.835938 93.796875 128.601562 90.488281 128.707031 89 C 128.816406 87.507812 128.832031 83.480469 128.617188 81.992188 C 128.402344 80.5 128.019531 78.441406 128.019531 78.441406 C 128.019531 78.441406 127.53125 76.8125 127.515625 76.875 C 127.5 76.9375 127.042969 77.242188 127.042969 77.242188 L 128.050781 82.113281 C 128.050781 82.113281 128.128906 85.296875 128.082031 87.1875 C 128.035156 89.074219 127.242188 94.511719 126.402344 96.5625 "/>
<path style=" stroke:none;fill-rule:evenodd;fill:rgb(75.689697%,80.389404%,82.749939%);fill-opacity:1;" d="M 110.589844 92.035156 L 110.027344 92.761719 C 110.027344 92.761719 111.402344 94.800781 111.972656 96.101562 C 112.542969 97.402344 113.113281 100.28125 113.074219 101.757812 C 113.035156 103.234375 112.535156 105.230469 112.535156 105.230469 L 112.414062 105.726562 L 112.027344 106.890625 L 110.773438 106.664062 L 110.660156 107.519531 L 112.535156 107.832031 C 112.535156 107.832031 112.832031 107.28125 113.035156 106.707031 C 113.238281 106.132812 113.613281 105.027344 113.746094 104.082031 C 113.878906 103.140625 114.042969 100.945312 113.789062 99.546875 C 113.53125 98.152344 113.09375 96.214844 112.15625 94.484375 C 111.21875 92.753906 110.589844 92.035156 110.589844 92.035156 "/>
<path style=" stroke:none;fill-rule:evenodd;fill:rgb(75.689697%,80.389404%,82.749939%);fill-opacity:1;" d="M 114.410156 105.289062 L 115.039062 105.917969 L 113.714844 107.339844 L 112.800781 106.839844 C 112.800781 106.839844 110.34375 105.109375 109.425781 103.96875 C 108.507812 102.832031 107.125 100.792969 106.410156 98.613281 C 105.699219 96.429688 105.800781 93.625 105.800781 93.625 L 106.585938 93.796875 C 106.585938 93.796875 106.679688 96.019531 107.097656 97.621094 C 107.511719 99.214844 108.46875 101.5625 109.679688 103.019531 C 110.894531 104.472656 112.453125 105.507812 112.453125 105.507812 L 113.453125 106.246094 L 114.410156 105.289062 "/>
<path style=" stroke:none;fill-rule:evenodd;fill:rgb(29.40979%,34.509277%,38.819885%);fill-opacity:1;" d="M 115.039062 105.917969 L 114.410156 105.289062 C 114.410156 105.289062 114.5625 105.148438 114.59375 104.945312 C 114.621094 104.738281 114.632812 104.59375 114.726562 104.472656 C 114.816406 104.347656 115.089844 104.257812 115.367188 104.390625 C 115.640625 104.523438 115.867188 104.617188 116 104.882812 C 116.132812 105.148438 116.304688 105.253906 116.210938 105.363281 C 116.121094 105.476562 115.46875 105.726562 115.46875 105.726562 L 115.039062 105.917969 "/>
<path style=" stroke:none;fill-rule:evenodd;fill:rgb(29.40979%,34.509277%,38.819885%);fill-opacity:1;" d="M 110.773438 106.664062 L 110.660156 107.519531 L 110.097656 107.6875 L 109.507812 107.832031 C 109.507812 107.832031 109.347656 108 109.285156 107.558594 C 109.222656 107.117188 109.378906 106.570312 109.507812 106.398438 C 109.628906 106.222656 109.773438 106.113281 109.875 106.140625 C 109.976562 106.171875 110.355469 106.324219 110.355469 106.324219 C 110.355469 106.324219 110.613281 106.636719 110.773438 106.664062 "/>
<path style=" stroke:none;fill-rule:evenodd;fill:rgb(29.40979%,34.509277%,38.819885%);fill-opacity:1;" d="M 109.945312 92.734375 C 109.945312 92.734375 110.273438 92.695312 110.3125 92.515625 C 110.355469 92.339844 110.507812 92.035156 110.507812 92.035156 C 110.507812 92.035156 110.558594 91.890625 110.128906 91.410156 C 109.703125 90.929688 108.929688 90.34375 108.664062 90.265625 C 108.398438 90.179688 107.59375 90.039062 107.59375 90.039062 C 107.59375 90.039062 107.480469 88.46875 107.328125 87.3125 C 107.175781 86.15625 107.289062 82.734375 107.449219 81.453125 C 107.613281 80.171875 108.195312 78.347656 108.195312 78.347656 L 109.203125 76.574219 C 109.203125 76.574219 108.890625 76.449219 108.785156 76.449219 C 108.679688 76.453125 108.074219 76.90625 108.074219 76.90625 C 108.074219 76.90625 107.125 79.21875 106.851562 80.808594 C 106.574219 82.394531 106.382812 86.054688 106.511719 87.765625 C 106.644531 89.476562 106.738281 90.324219 106.738281 90.324219 C 106.738281 90.324219 105.667969 91.574219 105.679688 92.488281 C 105.6875 93.398438 105.679688 93.519531 105.679688 93.519531 C 105.679688 93.519531 106.753906 93.976562 106.761719 93.625 C 106.769531 93.277344 106.6875 92.199219 106.953125 91.769531 C 107.214844 91.339844 107.207031 91.238281 107.574219 91.132812 C 107.941406 91.03125 108.621094 91.390625 108.988281 91.738281 C 109.355469 92.085938 109.945312 92.734375 109.945312 92.734375 "/>
<path style=" stroke:none;fill-rule:evenodd;fill:rgb(96.469116%,78.819275%,64.709473%);fill-opacity:1;" d="M 140.296875 95.242188 C 140.296875 95.242188 140.175781 92.269531 141.070312 89.648438 C 142.746094 84.75 142.960938 81.882812 142.507812 79.660156 C 142.507812 79.660156 138.402344 76.1875 138.238281 74.652344 C 138.078125 73.113281 139.457031 69.753906 139.683594 69.222656 C 140.113281 68.210938 140.507812 68.191406 141.429688 68.023438 C 141.429688 68.023438 141.542969 65.28125 141.703125 63.84375 C 141.867188 62.410156 143.347656 58.636719 143.671875 58.125 C 143.996094 57.613281 145.453125 55.496094 145.984375 55.882812 C 146.511719 56.273438 147.144531 57.171875 146.941406 57.6875 C 146.519531 58.75 144.851562 64.753906 145.207031 65.839844 C 145.898438 65.871094 147.0625 66.476562 148.570312 67.871094 C 150.078125 69.265625 151.992188 71.824219 151.914062 73.132812 C 151.832031 74.445312 151.597656 74.582031 151.25 75.425781 C 150.90625 76.269531 149.710938 79.136719 149.742188 81.148438 C 149.773438 83.152344 150.132812 93.582031 150.667969 95.425781 C 151.199219 97.269531 151.273438 103.355469 150.667969 104.75 C 150.058594 106.140625 149.019531 107.925781 146.816406 107.945312 C 144.617188 107.964844 138.941406 103.394531 136.769531 100.691406 C 136.769531 100.691406 137.832031 96.777344 140.296875 95.242188 "/>
<path style=" stroke:none;fill-rule:evenodd;fill:rgb(63.529968%,67.059326%,86.669922%);fill-opacity:1;" d="M 132.878906 136.832031 C 132.878906 136.832031 133.328125 144.785156 131.78125 153.613281 C 131.78125 153.613281 130.617188 157.363281 131.472656 160.621094 C 132.332031 163.878906 132.695312 167.21875 132.332031 169.359375 C 131.964844 171.5 128.410156 180.011719 128.230469 186.453125 L 129.535156 186.128906 C 129.535156 186.128906 130.289062 179.222656 131.851562 175.480469 C 133.417969 171.738281 134.117188 168.371094 134.023438 167.292969 C 133.925781 166.214844 132.574219 159.824219 132.636719 157.054688 C 132.695312 154.289062 134.523438 145.050781 134.628906 143.183594 C 134.738281 141.320312 134.347656 136.21875 134.347656 136.21875 L 132.878906 136.832031 "/>
<path style=" stroke:none;fill-rule:evenodd;fill:rgb(63.529968%,67.059326%,86.669922%);fill-opacity:1;" d="M 102.054688 136.832031 C 102.054688 136.832031 101.605469 144.785156 103.15625 153.613281 C 103.15625 153.613281 104.316406 157.363281 103.460938 160.621094 C 102.605469 163.878906 102.238281 167.21875 102.605469 169.359375 C 102.972656 171.5 106.527344 180.011719 106.707031 186.453125 L 105.402344 186.128906 C 105.402344 186.128906 104.648438 179.222656 103.082031 175.480469 C 101.519531 171.738281 100.820312 168.371094 100.914062 167.292969 C 101.007812 166.214844 102.363281 159.824219 102.300781 157.054688 C 102.238281 154.289062 100.414062 145.050781 100.308594 143.183594 C 100.199219 141.320312 100.589844 136.21875 100.589844 136.21875 L 102.054688 136.832031 "/>
<path style=" stroke:none;fill-rule:evenodd;fill:rgb(95.289612%,69.40918%,24.708557%);fill-opacity:1;" d="M 102.101562 55.191406 C 102.101562 55.191406 99.199219 36.21875 115.519531 32.28125 C 115.519531 32.28125 107.328125 31.480469 102.101562 42.667969 C 102.101562 42.667969 99.382812 47.648438 101.246094 55.761719 L 102.101562 55.191406 "/>
<path style=" stroke:none;fill-rule:evenodd;fill:rgb(95.289612%,69.40918%,24.708557%);fill-opacity:1;" d="M 114.574219 35.136719 C 114.574219 35.136719 113.917969 41.578125 109.15625 46.917969 C 104.394531 52.257812 103.835938 55.851562 103.835938 55.851562 L 103.648438 55.601562 C 103.648438 55.601562 103.171875 52.707031 106.308594 48.652344 C 109.449219 44.59375 112.816406 41.621094 114.574219 35.136719 "/>
<path style=" stroke:none;fill-rule:evenodd;fill:rgb(95.289612%,69.40918%,24.708557%);fill-opacity:1;" d="M 113.5625 34.265625 C 113.5625 34.265625 104.5625 41.523438 103.171875 51.273438 C 103.171875 51.273438 102.492188 41.921875 113.5625 34.265625 "/>
<path style=" stroke:none;fill-rule:evenodd;fill:rgb(95.289612%,69.40918%,24.708557%);fill-opacity:1;" d="M 102.648438 41.566406 C 102.648438 41.566406 102.1875 38.785156 103.621094 33.898438 C 105.054688 29.011719 108.726562 28.457031 108.726562 28.457031 C 108.726562 28.457031 106.535156 27.621094 104.503906 29.867188 C 102.472656 32.113281 101.667969 35.792969 101.667969 35.792969 L 101.296875 39.472656 L 101.679688 43.648438 L 102.648438 41.566406 "/>
<path style=" stroke:none;fill-rule:evenodd;fill:rgb(95.289612%,69.40918%,24.708557%);fill-opacity:1;" d="M 121.179688 32.65625 C 121.179688 32.65625 135.488281 37.851562 132.6875 55.289062 L 133.980469 55.289062 C 133.980469 55.289062 138.328125 38.253906 121.179688 32.65625 "/>
<path style=" stroke:none;fill-rule:evenodd;fill:rgb(95.289612%,69.40918%,24.708557%);fill-opacity:1;" d="M 115.519531 35.660156 C 115.519531 35.660156 117.066406 42.171875 122.558594 45.617188 C 128.050781 49.0625 130.996094 52.378906 130.996094 52.378906 C 130.996094 52.378906 129.238281 49.640625 123.710938 45.496094 C 118.183594 41.347656 116.074219 37.75 115.519531 35.660156 "/>
<path style=" stroke:none;fill-rule:evenodd;fill:rgb(95.289612%,69.40918%,24.708557%);fill-opacity:1;" d="M 118.78125 33.941406 C 118.78125 33.941406 130.164062 36.929688 131.765625 51.691406 C 131.765625 51.691406 126.269531 42.851562 120.039062 38.058594 C 120.039062 38.058594 126.246094 41.4375 130.816406 49 C 130.816406 49 127.117188 36.953125 118.78125 33.941406 "/>
<path style=" stroke:none;fill-rule:evenodd;fill:rgb(95.289612%,69.40918%,24.708557%);fill-opacity:1;" d="M 112.707031 32.269531 C 112.707031 32.269531 112.875 26.8125 118.78125 25.273438 C 118.78125 25.273438 122.097656 24.988281 124.28125 27.449219 C 124.28125 27.449219 115.375 23.023438 113.871094 32.269531 L 112.707031 32.269531 "/>
<path style=" stroke:none;fill-rule:evenodd;fill:rgb(95.289612%,69.40918%,24.708557%);fill-opacity:1;" d="M 118.085938 29.207031 C 118.085938 29.207031 123.160156 26.996094 128.417969 34.738281 C 128.417969 34.738281 124.332031 25.550781 118.085938 29.207031 "/>
<path style=" stroke:none;fill-rule:evenodd;fill:rgb(95.289612%,69.40918%,24.708557%);fill-opacity:1;" d="M 109.578125 30.191406 C 109.578125 30.191406 105.222656 30.066406 103.890625 37.136719 C 103.890625 37.136719 104.0625 29.390625 109.578125 30.191406 "/>
<path style=" stroke:none;fill-rule:evenodd;fill:rgb(84.309387%,58.428955%,47.839355%);fill-opacity:1;" d="M 104.234375 56.839844 C 104.234375 56.839844 106.023438 51.808594 109.203125 49.308594 C 112.382812 46.808594 114.429688 42.832031 114.792969 41.601562 L 113.882812 39.472656 C 113.882812 39.472656 111.101562 45.167969 108.664062 47.667969 C 106.226562 50.167969 103.910156 52.40625 104.234375 56.839844 "/>
<path style=" stroke:none;fill-rule:evenodd;fill:rgb(84.309387%,58.428955%,47.839355%);fill-opacity:1;" d="M 113.035156 43.285156 C 113.035156 43.285156 114.832031 46.269531 118.457031 48.15625 C 122.082031 50.042969 128.917969 52.121094 130.515625 55.03125 C 130.515625 55.03125 128.679688 51.851562 124.28125 49.59375 C 119.882812 47.335938 116.878906 45.023438 115.605469 42.769531 C 114.328125 40.519531 113.882812 39.472656 113.882812 39.472656 L 113.035156 43.285156 "/>
<path style=" stroke:none;fill-rule:evenodd;fill:rgb(84.309387%,58.428955%,47.839355%);fill-opacity:1;" d="M 124.253906 75.660156 C 120.261719 78.359375 114.753906 78.359375 110.761719 75.660156 L 112.640625 74.136719 C 117.464844 75.964844 117.554688 75.964844 122.375 74.136719 L 124.253906 75.660156 "/>
<path style=" stroke:none;fill-rule:evenodd;fill:rgb(21.569824%,28.239441%,57.649231%);fill-opacity:1;" d="M 110.566406 106.589844 C 110.773438 106.722656 110.988281 106.714844 111.226562 106.730469 C 111.488281 106.746094 111.765625 106.757812 112.007812 106.867188 C 112.066406 106.675781 112.144531 106.492188 112.226562 106.3125 C 112.054688 106.234375 111.894531 106.128906 111.746094 106 C 111.398438 106.09375 111.039062 106.199219 110.671875 106.324219 C 110.566406 106.363281 110.453125 106.394531 110.339844 106.425781 C 110.421875 106.476562 110.503906 106.546875 110.566406 106.589844 "/>
<path style=" stroke:none;fill-rule:evenodd;fill:rgb(21.569824%,28.239441%,57.649231%);fill-opacity:1;" d="M 114.265625 105.515625 C 113.953125 105.554688 113.609375 105.605469 113.246094 105.667969 C 113.246094 105.6875 113.242188 105.710938 113.234375 105.730469 C 113.191406 105.839844 113.160156 105.957031 113.132812 106.078125 C 113.59375 106.289062 113.9375 105.890625 114.265625 105.515625 "/>
<path style=" stroke:none;fill-rule:evenodd;fill:rgb(46.269226%,60.389709%,65.098572%);fill-opacity:1;" d="M 120.5625 187.625 C 120.5625 187.625 124.347656 190.035156 128.554688 188.066406 C 128.554688 188.066406 128.269531 186.25 128.230469 186.453125 C 128.191406 186.652344 125.277344 187.269531 124.558594 187.160156 C 123.835938 187.054688 120.761719 186.136719 120.761719 186.136719 L 120.5625 187.625 "/>
<path style=" stroke:none;fill-rule:evenodd;fill:rgb(46.269226%,60.389709%,65.098572%);fill-opacity:1;" d="M 114.515625 187.625 C 114.515625 187.625 110.730469 190.035156 106.527344 188.066406 C 106.527344 188.066406 106.808594 186.25 106.847656 186.453125 C 106.890625 186.652344 109.800781 187.269531 110.519531 187.160156 C 111.242188 187.054688 114.316406 186.136719 114.316406 186.136719 L 114.515625 187.625 "/>
<path style=" stroke:none;fill-rule:evenodd;fill:rgb(63.529968%,67.059326%,86.669922%);fill-opacity:1;" d="M 130.464844 88.308594 C 130.464844 88.308594 132.238281 96.15625 132.269531 97.578125 C 132.300781 99 130.679688 104.875 130.253906 105.320312 C 129.824219 105.761719 129.011719 106.277344 129.011719 106.277344 C 129.011719 106.277344 130.707031 105.691406 131.066406 105.507812 C 131.429688 105.320312 133.519531 99 133.550781 97.863281 C 133.582031 96.726562 131.566406 90.089844 130.464844 88.308594 "/>
<path style=" stroke:none;fill-rule:evenodd;fill:rgb(21.569824%,28.239441%,57.649231%);fill-opacity:1;" d="M 101.214844 91.367188 C 101.222656 93.554688 101.152344 95.742188 101.089844 97.925781 L 101.417969 97.578125 C 101.417969 97.578125 103.742188 89.90625 104.105469 89.167969 C 104.105469 89.167969 102.945312 89.992188 101.214844 91.367188 "/>
<path style=" stroke:none;fill-rule:evenodd;fill:rgb(63.529968%,67.059326%,86.669922%);fill-opacity:1;" d="M 104.566406 88.308594 C 104.566406 88.308594 102.792969 96.15625 102.761719 97.578125 C 102.730469 99 104.351562 104.875 104.78125 105.320312 C 105.207031 105.761719 106.019531 106.277344 106.019531 106.277344 C 106.019531 106.277344 104.324219 105.691406 103.964844 105.507812 C 103.601562 105.320312 101.511719 99 101.480469 97.863281 C 101.449219 96.726562 103.464844 90.089844 104.566406 88.308594 "/>
<path style=" stroke:none;fill-rule:evenodd;fill:rgb(21.569824%,28.239441%,57.649231%);fill-opacity:1;" d="M 116.03125 105.386719 C 116.035156 105.480469 115.988281 105.566406 115.867188 105.585938 C 115.59375 105.625 115.34375 105.699219 115.09375 105.789062 C 114.828125 106.070312 114.5625 106.34375 114.289062 106.617188 C 114.144531 106.765625 113.960938 107.078125 113.765625 107.160156 C 113.460938 107.296875 113.261719 107.179688 113.0625 107.003906 C 113.035156 107.007812 113.003906 107.007812 112.972656 106.996094 C 112.957031 106.992188 112.945312 106.984375 112.933594 106.980469 C 112.863281 107.21875 112.773438 107.441406 112.625 107.613281 C 112.179688 108.121094 111.46875 107.621094 110.929688 107.601562 C 110.867188 107.605469 110.808594 107.609375 110.746094 107.613281 C 110.3125 107.667969 109.714844 107.917969 109.351562 107.703125 C 109.019531 107.507812 109.199219 106.945312 109.324219 106.605469 C 107.617188 106.765625 105.519531 106.367188 103.6875 105.421875 C 104.691406 108.398438 104.109375 111.578125 103.734375 114.5625 C 103.734375 114.5625 106.691406 109.421875 116.289062 109.421875 L 118.636719 109.421875 C 128.234375 109.421875 131.195312 114.5625 131.195312 114.5625 C 130.890625 110.261719 130.476562 107.601562 131.667969 105.183594 C 129.230469 106.597656 126.195312 106.988281 124.253906 106.324219 C 121.3125 105.320312 118.636719 105.386719 118.636719 105.386719 L 116.289062 105.386719 C 116.289062 105.386719 116.199219 105.382812 116.03125 105.386719 Z M 117.476562 139.75 C 118.15625 142.058594 118.621094 145.222656 119.058594 147.625 C 119.714844 151.214844 119.96875 162.074219 120.003906 165.519531 C 120.039062 168.960938 119.433594 183.054688 119.550781 184.65625 C 119.667969 186.253906 123.015625 186.492188 123.015625 186.492188 C 123.511719 179.835938 123.507812 172.410156 123.277344 165.457031 C 124.320312 165.734375 126.113281 166.09375 126.847656 165.910156 C 127.910156 165.648438 130.230469 162.445312 130.230469 162.445312 C 130.230469 162.445312 126.320312 164.410156 125.707031 164.25 C 125.273438 164.132812 123.929688 163.535156 123.191406 163.113281 C 122.742188 152.089844 121.792969 142.652344 121.511719 139.988281 C 125.257812 139.761719 130.757812 139.019531 134.417969 136.679688 L 134.417969 134.671875 C 124.8125 139.015625 110.070312 138.996094 100.511719 134.671875 L 100.511719 136.679688 C 104.183594 139.027344 109.710938 139.769531 113.457031 139.988281 C 113.171875 142.65625 112.222656 152.09375 111.777344 163.113281 C 111.039062 163.535156 109.695312 164.132812 109.257812 164.25 C 108.648438 164.410156 104.738281 162.445312 104.738281 162.445312 C 104.738281 162.445312 107.058594 165.648438 108.117188 165.910156 C 108.855469 166.09375 110.648438 165.734375 111.691406 165.457031 C 111.460938 172.410156 111.457031 179.835938 111.953125 186.492188 C 111.953125 186.492188 115.300781 186.253906 115.417969 184.65625 C 115.535156 183.054688 114.925781 168.960938 114.964844 165.519531 C 115 162.074219 115.253906 151.214844 115.910156 147.625 C 116.371094 145.089844 116.839844 142.238281 117.476562 139.75 Z M 131.28125 90.050781 C 131.28125 90.050781 133.890625 90.398438 138.808594 96.234375 L 137.316406 99.257812 L 136.945312 101.078125 L 133.628906 97.292969 L 131.28125 90.050781 "/>
<path style=" stroke:none;fill-rule:evenodd;fill:rgb(84.309387%,58.428955%,47.839355%);fill-opacity:1;" d="M 141.957031 72.726562 C 141.957031 72.726562 142.78125 74.414062 144.339844 74.539062 C 144.339844 74.539062 144.648438 75.96875 145.625 76.449219 C 146.605469 76.9375 147.855469 76.8125 148.347656 76.289062 C 148.835938 75.769531 146.726562 76.59375 146.421875 75.6875 C 146.113281 74.785156 146.113281 72.910156 146.113281 72.910156 C 146.113281 72.910156 146.113281 72.265625 145.929688 72.324219 C 145.746094 72.386719 145.1875 72.757812 145.1875 72.757812 C 145.1875 72.757812 142.140625 73.277344 141.957031 72.726562 "/>
<path style=" stroke:none;fill-rule:evenodd;fill:rgb(84.309387%,58.428955%,47.839355%);fill-opacity:1;" d="M 139.023438 96.316406 L 140.582031 98.542969 C 140.582031 98.542969 142.476562 103.796875 145.472656 104.410156 C 148.46875 105.027344 151.132812 99.101562 150.917969 96.855469 C 150.917969 96.855469 151.5625 98.800781 151.007812 102.835938 C 150.457031 106.871094 149.144531 107.804688 147.253906 107.917969 C 145.363281 108.03125 142.707031 106.488281 140.042969 103.941406 C 137.375 101.398438 136.769531 100.476562 136.769531 100.476562 C 136.769531 100.476562 137.890625 97.589844 139.023438 96.316406 "/>
<path style=" stroke:none;fill-rule:evenodd;fill:rgb(5.099487%,5.099487%,5.099487%);fill-opacity:1;" d="M 122.8125 74.03125 C 122.855469 74.351562 122.816406 74.648438 122.679688 74.953125 C 122.914062 75.089844 123.230469 75.265625 123.65625 75.5 C 124.246094 75.828125 125.472656 76.496094 127.113281 77.347656 C 127.285156 77.089844 127.519531 76.871094 127.792969 76.734375 C 125.359375 75.480469 123.355469 74.367188 122.8125 74.03125 "/>
<path style=" stroke:none;fill-rule:evenodd;fill:rgb(5.099487%,5.099487%,5.099487%);fill-opacity:1;" d="M 134.226562 166.792969 C 134.234375 168.042969 134.15625 169.144531 133.976562 169.84375 C 133.863281 170.292969 133.582031 171.199219 133.230469 172.34375 C 132.011719 176.285156 129.738281 183.625 129.984375 186.085938 L 130.015625 186.410156 L 129.714844 186.53125 C 129.671875 186.546875 129.269531 186.703125 128.664062 186.898438 C 128.417969 186.972656 128.136719 187.058594 127.835938 187.140625 C 126.894531 187.390625 125.734375 187.625 124.667969 187.625 C 123.453125 187.625 122.03125 187.121094 120.945312 186.636719 C 120.652344 186.507812 120.378906 186.375 120.144531 186.257812 C 119.617188 185.992188 119.273438 185.785156 119.234375 185.761719 L 119.011719 185.628906 L 119.023438 185.367188 C 119.042969 185.042969 120.703125 155.488281 117.480469 141.347656 C 114.261719 155.488281 115.917969 185.042969 115.9375 185.367188 L 115.953125 185.628906 L 115.730469 185.761719 C 115.6875 185.785156 115.34375 185.992188 114.816406 186.257812 C 114.582031 186.375 114.3125 186.507812 114.015625 186.636719 C 112.933594 187.121094 111.511719 187.625 110.296875 187.625 C 109.230469 187.625 108.066406 187.390625 107.128906 187.140625 C 106.824219 187.058594 106.546875 186.972656 106.296875 186.898438 C 105.695312 186.703125 105.289062 186.546875 105.246094 186.53125 L 104.945312 186.410156 L 104.980469 186.085938 C 105.222656 183.625 102.953125 176.285156 101.734375 172.34375 C 101.378906 171.199219 101.097656 170.292969 100.984375 169.84375 C 100.808594 169.144531 100.730469 168.039062 100.738281 166.792969 C 100.738281 166.511719 100.746094 166.226562 100.757812 165.933594 C 100.832031 163.808594 101.125 161.445312 101.570312 159.945312 C 102.261719 157.628906 101.574219 154.625 101.566406 154.589844 C 99.675781 146.359375 100.019531 138.238281 100.273438 134.96875 C 100.28125 134.863281 100.289062 134.765625 100.296875 134.671875 C 100.511719 134.847656 100.851562 135.03125 101.121094 135.105469 C 101.113281 135.203125 101.105469 135.304688 101.097656 135.410156 C 100.855469 138.839844 100.601562 146.566406 102.398438 154.394531 C 102.429688 154.527344 103.148438 157.652344 102.390625 160.191406 C 101.65625 162.65625 101.34375 167.773438 101.8125 169.632812 C 101.921875 170.058594 102.199219 170.953125 102.550781 172.089844 C 103.824219 176.199219 105.917969 182.96875 105.851562 185.835938 C 106.589844 186.101562 108.613281 186.765625 110.296875 186.765625 C 112.019531 186.765625 114.347656 185.550781 115.070312 185.148438 C 114.988281 183.59375 114.582031 175.488281 114.636719 166.25 C 114.707031 154 115.515625 145.058594 117.035156 139.601562 C 117.351562 138.457031 117.46875 138.132812 117.480469 138.164062 C 117.496094 138.128906 117.660156 138.632812 117.925781 139.601562 C 119.449219 145.058594 120.257812 154 120.328125 166.25 C 120.382812 175.488281 119.976562 183.59375 119.894531 185.148438 C 120.617188 185.550781 122.945312 186.765625 124.667969 186.765625 C 126.351562 186.765625 128.375 186.101562 129.113281 185.835938 C 129.046875 182.96875 131.140625 176.199219 132.414062 172.089844 C 132.761719 170.953125 133.039062 170.058594 133.148438 169.632812 C 133.621094 167.773438 133.308594 162.65625 132.574219 160.191406 C 131.8125 157.652344 132.535156 154.527344 132.566406 154.394531 C 134.363281 146.566406 134.109375 138.839844 133.863281 135.410156 C 133.855469 135.304688 133.851562 135.203125 133.84375 135.105469 C 134.109375 135.03125 134.453125 134.847656 134.664062 134.671875 C 134.671875 134.765625 134.679688 134.863281 134.691406 134.96875 C 134.945312 138.238281 135.289062 146.359375 133.398438 154.589844 C 133.390625 154.625 132.699219 157.628906 133.390625 159.945312 C 133.839844 161.445312 134.132812 163.808594 134.207031 165.933594 C 134.21875 166.226562 134.222656 166.511719 134.226562 166.792969 "/>
<g clip-path="url(#clip1)" clip-rule="nonzero">
<path style=" stroke:none;fill-rule:evenodd;fill:rgb(5.099487%,5.099487%,5.099487%);fill-opacity:1;" d="M 131.613281 193.1875 C 129.589844 190.519531 128.828125 187.796875 128.550781 186.351562 C 128.34375 186.441406 128.121094 186.488281 127.886719 186.472656 C 127.8125 186.46875 127.765625 186.460938 127.738281 186.457031 C 127.710938 186.460938 127.703125 186.464844 127.695312 186.464844 C 127.976562 187.988281 128.765625 190.851562 130.933594 193.710938 C 132.472656 195.738281 134.058594 198.015625 133.402344 199.378906 C 132.851562 200.523438 130.722656 201.144531 127.074219 201.222656 C 123.894531 201.285156 121.921875 200.742188 120.871094 199.507812 C 119.0625 197.386719 119.808594 193.144531 120.933594 186.714844 C 120.972656 186.484375 121.015625 186.25 121.058594 186.015625 C 120.941406 186 120.828125 185.980469 120.714844 185.960938 C 120.535156 185.929688 120.375 185.863281 120.230469 185.769531 C 120.183594 186.039062 120.136719 186.304688 120.089844 186.566406 C 118.921875 193.234375 118.148438 197.640625 120.21875 200.070312 C 121.390625 201.441406 123.417969 202.085938 126.578125 202.085938 C 126.746094 202.085938 126.917969 202.085938 127.089844 202.082031 C 131.203125 201.996094 133.453125 201.253906 134.175781 199.75 C 135.039062 197.949219 133.457031 195.617188 131.613281 193.1875 "/>
</g>
<path style=" stroke:none;fill-rule:evenodd;fill:rgb(5.099487%,5.099487%,5.099487%);fill-opacity:1;" d="M 127.601562 200.265625 C 121.914062 200.265625 119.617188 199.246094 119.117188 196.5 L 119.597656 196.414062 C 119.976562 198.488281 121.445312 199.773438 127.601562 199.773438 C 133.160156 199.773438 133.589844 197.699219 133.589844 197.679688 L 134.074219 197.742188 C 134.0625 197.847656 133.675781 200.265625 127.601562 200.265625 "/>
<path style=" stroke:none;fill-rule:evenodd;fill:rgb(5.099487%,5.099487%,5.099487%);fill-opacity:1;" d="M 126.386719 76.285156 C 126.292969 76.4375 126.1875 76.609375 126.066406 76.800781 C 123.753906 80.519531 120.765625 84.585938 117.480469 87.472656 C 114.273438 84.648438 111.355469 80.714844 109.0625 77.066406 C 108.898438 76.808594 108.734375 76.546875 108.578125 76.285156 C 108.859375 76.222656 109.125 76.085938 109.34375 75.886719 C 109.4375 76.039062 109.542969 76.207031 109.660156 76.394531 C 111.015625 78.554688 114.042969 83.078125 117.480469 86.308594 C 120.921875 83.078125 123.949219 78.554688 125.304688 76.394531 C 125.421875 76.207031 125.527344 76.039062 125.621094 75.886719 C 125.835938 76.085938 126.101562 76.222656 126.386719 76.285156 "/>
<path style=" stroke:none;fill-rule:evenodd;fill:rgb(5.099487%,5.099487%,5.099487%);fill-opacity:1;" d="M 122.402344 74.445312 L 122.039062 78.441406 C 122.039062 78.441406 122.957031 76.136719 123.078125 74.136719 L 122.402344 74.445312 "/>
<path style=" stroke:none;fill-rule:evenodd;fill:rgb(5.099487%,5.099487%,5.099487%);fill-opacity:1;" d="M 112.246094 73.96875 C 111.945312 74.171875 110.339844 75.074219 108.242188 76.175781 C 107.894531 76.355469 101.917969 79.367188 101.550781 79.558594 C 101.550781 79.929688 101.597656 80.171875 101.773438 80.429688 C 102.066406 80.277344 108.429688 77.046875 108.695312 76.90625 C 109.914062 76.269531 110.824219 75.769531 111.308594 75.5 C 111.851562 75.199219 112.21875 74.996094 112.464844 74.847656 C 112.332031 74.308594 112.246094 74.199219 112.246094 73.96875 "/>
<g clip-path="url(#clip2)" clip-rule="nonzero">
<path style=" stroke:none;fill-rule:evenodd;fill:rgb(5.099487%,5.099487%,5.099487%);fill-opacity:1;" d="M 103.347656 193.1875 C 105.375 190.519531 106.136719 187.796875 106.414062 186.351562 C 106.617188 186.441406 106.84375 186.488281 107.074219 186.472656 C 107.152344 186.46875 107.199219 186.460938 107.222656 186.457031 C 107.253906 186.460938 107.261719 186.464844 107.269531 186.464844 C 106.988281 187.988281 106.199219 190.851562 104.03125 193.710938 C 102.492188 195.738281 100.90625 198.015625 101.5625 199.378906 C 102.109375 200.523438 104.242188 201.144531 107.890625 201.222656 C 111.070312 201.285156 113.042969 200.742188 114.09375 199.507812 C 115.902344 197.386719 115.15625 193.144531 114.03125 186.714844 C 113.988281 186.484375 113.949219 186.25 113.90625 186.015625 C 114.019531 186 114.132812 185.980469 114.25 185.960938 C 114.425781 185.929688 114.589844 185.863281 114.734375 185.769531 C 114.78125 186.039062 114.828125 186.304688 114.871094 186.566406 C 116.042969 193.234375 116.8125 197.640625 114.742188 200.070312 C 113.574219 201.441406 111.546875 202.085938 108.386719 202.085938 C 108.21875 202.085938 108.046875 202.085938 107.871094 202.082031 C 103.761719 201.996094 101.511719 201.253906 100.789062 199.75 C 99.925781 197.949219 101.507812 195.617188 103.347656 193.1875 "/>
</g>
<path style=" stroke:none;fill-rule:evenodd;fill:rgb(5.099487%,5.099487%,5.099487%);fill-opacity:1;" d="M 107.359375 200.265625 C 113.046875 200.265625 115.347656 199.246094 115.847656 196.5 L 115.363281 196.414062 C 114.988281 198.488281 113.519531 199.773438 107.359375 199.773438 C 101.800781 199.773438 101.375 197.699219 101.371094 197.679688 L 100.886719 197.742188 C 100.902344 197.847656 101.285156 200.265625 107.359375 200.265625 "/>
<path style=" stroke:none;fill-rule:evenodd;fill:rgb(5.099487%,5.099487%,5.099487%);fill-opacity:1;" d="M 112.558594 74.445312 L 112.925781 78.441406 C 112.925781 78.441406 112.007812 76.136719 111.882812 74.136719 L 112.558594 74.445312 "/>
<path style=" stroke:none;fill-rule:evenodd;fill:rgb(5.099487%,5.099487%,5.099487%);fill-opacity:1;" d="M 130.816406 63.339844 C 130.804688 63.386719 130.792969 63.429688 130.78125 63.472656 C 130.667969 63.882812 130.546875 64.285156 130.417969 64.679688 C 129.492188 67.492188 128.148438 69.832031 126.390625 71.6875 C 122.5 75.796875 118.054688 75.917969 117.867188 75.921875 L 117.367188 75.921875 C 117.171875 75.917969 112.726562 75.796875 108.835938 71.6875 C 107.089844 69.847656 105.753906 67.523438 104.828125 64.734375 C 104.78125 64.59375 104.738281 64.453125 104.691406 64.308594 C 104.597656 64.011719 104.511719 63.710938 104.425781 63.402344 C 104.765625 63.667969 105.136719 63.921875 105.539062 64.164062 L 105.558594 64.222656 C 105.589844 64.324219 105.621094 64.421875 105.65625 64.519531 C 105.820312 65.015625 106 65.496094 106.195312 65.957031 C 107.03125 67.96875 108.117188 69.683594 109.457031 71.09375 C 113.101562 74.941406 117.332031 75.058594 117.375 75.058594 L 117.859375 75.058594 C 117.894531 75.058594 122.148438 74.929688 125.785156 71.078125 C 127.261719 69.511719 128.433594 67.578125 129.296875 65.285156 C 129.382812 65.058594 129.464844 64.828125 129.542969 64.59375 C 129.597656 64.4375 129.648438 64.277344 129.699219 64.117188 C 130.105469 63.871094 130.476562 63.609375 130.816406 63.339844 "/>
<path style=" stroke:none;fill-rule:evenodd;fill:rgb(5.099487%,5.099487%,5.099487%);fill-opacity:1;" d="M 112.308594 55.964844 C 112.308594 56.972656 111.695312 57.789062 110.941406 57.789062 C 110.207031 57.789062 109.601562 57.003906 109.578125 56.027344 C 109.578125 56.007812 109.578125 55.984375 109.578125 55.964844 C 109.578125 55.898438 109.578125 55.828125 109.585938 55.761719 C 109.589844 55.703125 109.597656 55.644531 109.605469 55.589844 C 109.621094 55.492188 109.644531 55.398438 109.671875 55.3125 C 109.703125 55.191406 109.746094 55.082031 109.796875 54.976562 C 109.84375 54.878906 109.894531 54.789062 109.957031 54.707031 C 110.203125 54.355469 110.554688 54.140625 110.941406 54.140625 C 111.695312 54.140625 112.308594 54.957031 112.308594 55.964844 "/>
<path style=" stroke:none;fill-rule:evenodd;fill:rgb(5.099487%,5.099487%,5.099487%);fill-opacity:1;" d="M 110.089844 54.78125 L 109.988281 55.03125 C 109.921875 55.015625 109.855469 54.996094 109.796875 54.976562 C 108.972656 54.683594 109.015625 53.8125 109.015625 53.8125 C 109.203125 54.488281 109.714844 54.660156 109.957031 54.707031 C 110.035156 54.71875 110.082031 54.722656 110.082031 54.722656 L 110.089844 54.78125 "/>
<path style=" stroke:none;fill-rule:evenodd;fill:rgb(5.099487%,5.099487%,5.099487%);fill-opacity:1;" d="M 110.070312 55.46875 L 109.972656 55.71875 C 109.828125 55.6875 109.710938 55.644531 109.605469 55.589844 C 108.960938 55.246094 108.996094 54.5 108.996094 54.5 C 109.128906 54.976562 109.421875 55.203125 109.671875 55.3125 C 109.886719 55.402344 110.0625 55.40625 110.0625 55.40625 L 110.070312 55.46875 "/>
<path style=" stroke:none;fill-rule:evenodd;fill:rgb(5.099487%,5.099487%,5.099487%);fill-opacity:1;" d="M 110.101562 56.019531 C 109.902344 56.0625 109.726562 56.058594 109.578125 56.027344 C 108.976562 55.902344 108.742188 55.328125 108.726562 55.289062 C 109.007812 55.640625 109.328125 55.746094 109.585938 55.761719 C 109.859375 55.78125 110.0625 55.699219 110.0625 55.699219 L 110.09375 55.753906 L 110.101562 56.019531 "/>
<path style=" stroke:none;fill-rule:evenodd;fill:rgb(5.099487%,5.099487%,5.099487%);fill-opacity:1;" d="M 112.910156 53.050781 C 112.558594 53.019531 111.703125 50.820312 110.234375 50.789062 C 108.765625 50.761719 107.898438 52.898438 107.898438 52.898438 C 108.445312 50.46875 110.355469 49.761719 111.625 50.789062 C 112.894531 51.820312 113.261719 53.082031 112.910156 53.050781 "/>
<path style=" stroke:none;fill-rule:evenodd;fill:rgb(5.099487%,5.099487%,5.099487%);fill-opacity:1;" d="M 125.648438 55.964844 C 125.648438 55.984375 125.648438 56.007812 125.644531 56.027344 C 125.621094 57.003906 125.019531 57.789062 124.28125 57.789062 C 123.527344 57.789062 122.917969 56.972656 122.917969 55.964844 C 122.917969 54.957031 123.527344 54.140625 124.28125 54.140625 C 124.671875 54.140625 125.023438 54.355469 125.269531 54.707031 C 125.328125 54.789062 125.382812 54.878906 125.429688 54.976562 C 125.480469 55.082031 125.523438 55.191406 125.554688 55.3125 C 125.582031 55.398438 125.605469 55.492188 125.617188 55.589844 C 125.628906 55.644531 125.632812 55.703125 125.640625 55.761719 C 125.644531 55.828125 125.648438 55.898438 125.648438 55.964844 "/>
<path style=" stroke:none;fill-rule:evenodd;fill:rgb(5.099487%,5.099487%,5.099487%);fill-opacity:1;" d="M 125.429688 54.976562 C 125.367188 54.996094 125.304688 55.015625 125.234375 55.03125 L 125.132812 54.78125 L 125.144531 54.722656 C 125.144531 54.722656 125.191406 54.71875 125.269531 54.707031 C 125.511719 54.660156 126.023438 54.488281 126.207031 53.8125 C 126.207031 53.8125 126.25 54.683594 125.429688 54.976562 "/>
<path style=" stroke:none;fill-rule:evenodd;fill:rgb(5.099487%,5.099487%,5.099487%);fill-opacity:1;" d="M 125.617188 55.589844 C 125.515625 55.644531 125.394531 55.6875 125.253906 55.71875 L 125.152344 55.46875 L 125.164062 55.40625 C 125.164062 55.40625 125.339844 55.402344 125.554688 55.3125 C 125.800781 55.203125 126.097656 54.976562 126.230469 54.5 C 126.230469 54.5 126.265625 55.246094 125.617188 55.589844 "/>
<path style=" stroke:none;fill-rule:evenodd;fill:rgb(5.099487%,5.099487%,5.099487%);fill-opacity:1;" d="M 126.496094 55.289062 C 126.480469 55.328125 126.25 55.902344 125.644531 56.027344 C 125.496094 56.058594 125.324219 56.0625 125.125 56.019531 L 125.128906 55.753906 L 125.164062 55.699219 C 125.164062 55.699219 125.367188 55.78125 125.640625 55.761719 C 125.894531 55.746094 126.21875 55.640625 126.496094 55.289062 "/>
<path style=" stroke:none;fill-rule:evenodd;fill:rgb(5.099487%,5.099487%,5.099487%);fill-opacity:1;" d="M 127.328125 52.898438 C 127.328125 52.898438 126.457031 50.761719 124.992188 50.789062 C 123.523438 50.820312 122.667969 53.019531 122.316406 53.050781 C 121.964844 53.082031 122.332031 51.820312 123.601562 50.789062 C 123.964844 50.496094 124.382812 50.34375 124.808594 50.332031 C 125.570312 50.324219 126.332031 50.761719 126.847656 51.640625 C 127.054688 51.992188 127.21875 52.410156 127.328125 52.898438 "/>
<path style=" stroke:none;fill-rule:evenodd;fill:rgb(5.099487%,5.099487%,5.099487%);fill-opacity:1;" d="M 117.417969 31.296875 C 107.878906 31.296875 100.117188 40.128906 100.117188 50.984375 C 100.117188 52.71875 100.316406 54.398438 100.683594 56 C 100.851562 55.703125 101.101562 55.449219 101.40625 55.277344 C 101.125 53.898438 100.972656 52.464844 100.972656 50.984375 C 100.972656 40.605469 108.347656 32.160156 117.417969 32.160156 C 126.480469 32.160156 133.859375 40.605469 133.859375 50.984375 C 133.859375 52.511719 133.699219 53.996094 133.398438 55.421875 C 133.675781 55.535156 133.941406 55.734375 134.152344 55.980469 C 134.519531 54.382812 134.714844 52.710938 134.714844 50.984375 C 134.714844 40.128906 126.953125 31.296875 117.417969 31.296875 "/>
<path style=" stroke:none;fill-rule:evenodd;fill:rgb(5.099487%,5.099487%,5.099487%);fill-opacity:1;" d="M 131.839844 56.59375 C 131.546875 57.023438 131.25 57.6875 131.25 57.6875 C 131.25 57.6875 130.867188 56.40625 130.820312 56.289062 C 130.128906 54.554688 128.882812 53.09375 126.847656 51.644531 C 126.238281 51.207031 125.578125 50.773438 124.824219 50.332031 C 123.96875 49.84375 123.035156 49.347656 122 48.832031 C 116.835938 46.265625 114.675781 42.246094 113.898438 40.3125 C 113.183594 41.929688 111.582031 45.097656 109.039062 47.835938 C 107.238281 49.78125 105.328125 52.265625 104.542969 55.5625 C 104.390625 56.207031 104.21875 56.929688 104.058594 57.609375 L 103.882812 57.371094 L 103.441406 56.78125 C 103.566406 55.75 103.855469 54.640625 104.214844 53.675781 C 105.199219 51.027344 106.84375 48.945312 108.414062 47.25 C 111.8125 43.585938 113.519531 39 113.535156 38.953125 L 114.015625 37.648438 L 114.351562 39 C 114.367188 39.058594 115.890625 44.835938 122.378906 48.058594 C 126.085938 49.90625 128.3125 51.414062 129.824219 53.105469 C 130.269531 53.605469 130.648438 54.121094 130.972656 54.664062 C 131.335938 55.273438 131.621094 55.917969 131.839844 56.59375 "/>
<path style=" stroke:none;fill-rule:evenodd;fill:rgb(5.099487%,5.099487%,5.099487%);fill-opacity:1;" d="M 130.417969 64.679688 C 130.152344 64.605469 129.964844 64.117188 130.816406 63.339844 C 133.539062 61.171875 134.210938 58.351562 133.9375 56.789062 C 133.832031 56.183594 133.574219 55.761719 133.28125 55.710938 C 132.777344 55.628906 132.390625 55.890625 132.097656 56.25 C 131.988281 56.386719 131.636719 56.886719 131.25 57.6875 C 131.246094 57.65625 131.238281 57.628906 131.230469 57.601562 C 131.132812 57.246094 131.023438 56.898438 130.921875 56.546875 C 130.953125 56.480469 130.988281 56.410156 131.023438 56.339844 C 131.148438 56.105469 131.296875 55.863281 131.480469 55.644531 C 131.921875 55.117188 132.550781 54.71875 133.417969 54.863281 C 134.105469 54.976562 134.601562 55.621094 134.78125 56.636719 C 135.121094 58.585938 134.210938 62.234375 130.417969 64.679688 "/>
<path style=" stroke:none;fill-rule:evenodd;fill:rgb(5.099487%,5.099487%,5.099487%);fill-opacity:1;" d="M 105.65625 64.519531 L 105.359375 65.050781 C 105.175781 64.949219 105 64.84375 104.828125 64.734375 C 100.964844 62.289062 100.035156 58.601562 100.378906 56.636719 C 100.558594 55.621094 101.054688 54.976562 101.742188 54.863281 C 102.585938 54.722656 103.207031 55.097656 103.648438 55.609375 C 103.882812 55.882812 104.070312 56.195312 104.210938 56.488281 L 103.882812 57.371094 L 103.441406 56.78125 L 103.257812 56.527344 C 102.957031 56.039062 102.503906 55.609375 101.878906 55.710938 C 101.585938 55.761719 101.328125 56.183594 101.222656 56.789062 C 100.945312 58.367188 101.636719 61.230469 104.425781 63.402344 C 104.765625 63.667969 105.136719 63.921875 105.539062 64.164062 L 105.558594 64.222656 C 105.589844 64.324219 105.621094 64.421875 105.65625 64.519531 "/>
<path style=" stroke:none;fill-rule:evenodd;fill:rgb(84.309387%,58.428955%,47.839355%);fill-opacity:1;" d="M 130.328125 62.089844 C 130.328125 62.089844 131.753906 60.890625 131.582031 60.117188 C 131.410156 59.34375 132 57.554688 133.207031 56.640625 C 133.207031 56.640625 132.199219 58.230469 132.015625 59.480469 C 132.015625 59.480469 132.742188 60.660156 130.328125 62.089844 "/>
<path style=" stroke:none;fill-rule:evenodd;fill:rgb(84.309387%,58.428955%,47.839355%);fill-opacity:1;" d="M 132.535156 57.6875 C 132.535156 57.6875 132.976562 57.265625 133.328125 57.667969 C 133.679688 58.066406 132.746094 60.554688 131.417969 61.199219 C 131.417969 61.199219 131.878906 60.402344 131.839844 59.753906 C 131.800781 59.109375 132.535156 57.6875 132.535156 57.6875 "/>
<path style=" stroke:none;fill-rule:evenodd;fill:rgb(84.309387%,58.428955%,47.839355%);fill-opacity:1;" d="M 104.980469 62.089844 C 104.980469 62.089844 103.554688 60.890625 103.726562 60.117188 C 103.898438 59.34375 103.308594 57.554688 102.101562 56.640625 C 102.101562 56.640625 103.105469 58.230469 103.292969 59.480469 C 103.292969 59.480469 102.566406 60.660156 104.980469 62.089844 "/>
<path style=" stroke:none;fill-rule:evenodd;fill:rgb(84.309387%,58.428955%,47.839355%);fill-opacity:1;" d="M 102.773438 57.6875 C 102.773438 57.6875 102.332031 57.265625 101.980469 57.667969 C 101.628906 58.066406 102.5625 60.554688 103.890625 61.199219 C 103.890625 61.199219 103.429688 60.402344 103.46875 59.753906 C 103.507812 59.109375 102.773438 57.6875 102.773438 57.6875 "/>
<path style=" stroke:none;fill-rule:evenodd;fill:rgb(5.099487%,5.099487%,5.099487%);fill-opacity:1;" d="M 130.628906 39.355469 C 130.84375 39.699219 131.054688 40.046875 131.261719 40.398438 C 130.824219 35.957031 128.910156 31.253906 126.0625 28.027344 C 124.121094 25.824219 122.046875 24.660156 120.0625 24.660156 C 117 24.660156 115.058594 26.105469 113.96875 27.320312 C 113.292969 28.074219 112.859375 28.824219 112.605469 29.335938 C 111.992188 28.714844 110.796875 27.757812 109.160156 27.613281 C 107.484375 27.46875 105.789062 28.210938 104.128906 29.820312 C 99.910156 33.910156 100.863281 42.699219 101.320312 45.617188 C 101.476562 45.054688 101.742188 44.488281 101.972656 43.960938 C 101.585938 40.351562 101.398438 33.664062 104.722656 30.441406 C 106.195312 29.011719 107.660156 28.347656 109.078125 28.46875 C 111.089844 28.644531 112.371094 30.367188 112.382812 30.382812 L 112.867188 31.054688 L 113.132812 30.269531 C 113.148438 30.222656 114.808594 25.519531 120.0625 25.519531 C 121.769531 25.519531 123.671875 26.613281 125.421875 28.601562 C 127.816406 31.3125 129.519531 35.109375 130.191406 38.871094 C 130.351562 38.992188 130.5 39.152344 130.628906 39.355469 "/>
<path style=" stroke:none;fill-rule:evenodd;fill:rgb(5.099487%,5.099487%,5.099487%);fill-opacity:1;" d="M 128.871094 82.761719 C 128.617188 80.070312 128.066406 77.984375 127.625 76.660156 C 127.597656 76.675781 127.5625 76.683594 127.519531 76.683594 C 127.421875 76.679688 127.324219 76.660156 127.226562 76.644531 C 127.664062 77.9375 128.242188 80.050781 128.503906 82.816406 C 128.914062 87.183594 128.59375 94.097656 124.753906 102.277344 L 123.808594 102.277344 C 123.726562 102.109375 123.582031 101.710938 123.804688 101.332031 L 124.699219 101.269531 L 124.746094 101.179688 C 124.761719 101.152344 126.300781 98.289062 127.351562 93.890625 C 128.320312 89.832031 129.0625 83.589844 127.09375 76.90625 L 126.734375 77.011719 C 128.679688 83.613281 127.949219 89.78125 126.992188 93.792969 C 126.058594 97.710938 124.734375 100.394531 124.46875 100.910156 L 123.597656 100.96875 L 123.546875 101.042969 C 123.03125 101.765625 123.523438 102.535156 123.542969 102.570312 L 123.597656 102.652344 L 124.988281 102.652344 L 125.039062 102.546875 C 128.96875 94.230469 129.292969 87.199219 128.871094 82.761719 "/>
<path style=" stroke:none;fill-rule:evenodd;fill:rgb(5.099487%,5.099487%,5.099487%);fill-opacity:1;" d="M 125.699219 100.570312 C 125.691406 100.597656 125.683594 100.625 125.675781 100.648438 C 125.671875 100.671875 125.667969 100.683594 125.667969 100.691406 C 125.6875 100.886719 125.5625 101.03125 125.410156 101.085938 C 125.433594 101.484375 125.414062 101.914062 125.335938 102.355469 C 125.046875 104 124.085938 105.242188 123.089844 105.347656 C 122.972656 105.359375 122.855469 105.355469 122.734375 105.332031 C 122.578125 105.304688 122.429688 105.246094 122.292969 105.164062 C 121.464844 104.660156 121.03125 103.21875 121.308594 101.640625 C 121.585938 100.0625 122.484375 98.851562 123.433594 98.667969 C 123.589844 98.636719 123.75 98.632812 123.90625 98.660156 C 124.023438 98.679688 124.136719 98.71875 124.242188 98.769531 C 124.609375 98.949219 124.90625 99.304688 125.109375 99.773438 C 125.117188 99.746094 125.125 99.722656 125.136719 99.695312 C 125.179688 99.570312 125.265625 99.492188 125.363281 99.457031 C 125.265625 99.269531 125.160156 99.097656 125.035156 98.949219 C 124.828125 98.699219 124.585938 98.503906 124.308594 98.390625 C 124.199219 98.34375 124.089844 98.308594 123.972656 98.289062 C 122.660156 98.058594 121.300781 99.53125 120.941406 101.574219 C 120.582031 103.617188 121.359375 105.46875 122.671875 105.703125 C 122.789062 105.722656 122.90625 105.730469 123.023438 105.726562 C 123.320312 105.710938 123.617188 105.613281 123.898438 105.449219 C 124.746094 104.949219 125.460938 103.816406 125.703125 102.417969 C 125.820312 101.757812 125.816406 101.117188 125.714844 100.539062 C 125.710938 100.550781 125.703125 100.5625 125.699219 100.570312 "/>
<path style=" stroke:none;fill-rule:evenodd;fill:rgb(5.099487%,5.099487%,5.099487%);fill-opacity:1;" d="M 123.421875 105.457031 C 123.304688 105.433594 123.195312 105.398438 123.089844 105.347656 C 122.1875 104.90625 121.703125 103.40625 121.992188 101.761719 C 122.28125 100.117188 123.246094 98.871094 124.242188 98.769531 C 124.359375 98.757812 124.476562 98.761719 124.59375 98.78125 C 124.75 98.808594 124.898438 98.867188 125.035156 98.949219 C 124.828125 98.699219 124.585938 98.503906 124.308594 98.390625 C 124.011719 98.402344 123.714844 98.5 123.433594 98.667969 C 122.585938 99.167969 121.871094 100.296875 121.625 101.695312 C 121.378906 103.09375 121.667969 104.402344 122.292969 105.164062 C 122.5 105.417969 122.746094 105.609375 123.023438 105.726562 C 123.320312 105.710938 123.617188 105.613281 123.898438 105.449219 C 123.742188 105.480469 123.582031 105.484375 123.421875 105.457031 "/>
<path style=" stroke:none;fill-rule:evenodd;fill:rgb(5.099487%,5.099487%,5.099487%);fill-opacity:1;" d="M 126.898438 97.578125 C 126.65625 97.574219 126.1875 97.398438 126.136719 97.378906 L 126.265625 97.027344 C 126.441406 97.09375 126.773438 97.199219 126.90625 97.203125 L 126.898438 97.578125 "/>
<path style=" stroke:none;fill-rule:evenodd;fill:rgb(5.099487%,5.099487%,5.099487%);fill-opacity:1;" d="M 106.539062 94.007812 C 106.15625 94.007812 105.726562 93.757812 105.625 93.695312 L 105.554688 93.652344 L 105.539062 93.566406 C 105.523438 93.492188 105.222656 91.730469 106.539062 90.308594 C 106.476562 89.835938 106.207031 87.566406 106.277344 84.898438 C 106.378906 80.871094 107.160156 77.902344 108.597656 76.078125 L 108.890625 76.3125 C 105.574219 80.519531 106.90625 90.25 106.921875 90.347656 L 106.933594 90.4375 L 106.871094 90.503906 C 105.777344 91.628906 105.855469 93.0625 105.894531 93.417969 C 106.101562 93.53125 106.386719 93.640625 106.566406 93.632812 C 106.53125 93.09375 106.488281 91.476562 107.304688 91.050781 C 108.269531 90.546875 109.59375 92.042969 110 92.542969 C 110.128906 92.417969 110.292969 92.230469 110.363281 92.035156 C 110.128906 91.695312 109.023438 90.203125 107.585938 90.28125 L 107.417969 90.289062 L 107.390625 90.121094 C 107.335938 89.742188 106.074219 80.859375 108.917969 76.746094 L 109.222656 76.960938 C 106.671875 80.65625 107.578125 88.65625 107.738281 89.902344 C 109.476562 89.933594 110.671875 91.820312 110.722656 91.902344 L 110.761719 91.964844 L 110.746094 92.039062 C 110.640625 92.542969 110.109375 92.949219 110.085938 92.964844 L 109.933594 93.078125 L 109.824219 92.925781 C 109.34375 92.273438 108.140625 91.039062 107.476562 91.386719 C 106.878906 91.695312 106.894531 93.195312 106.953125 93.746094 L 106.964844 93.867188 L 106.859375 93.929688 C 106.765625 93.984375 106.65625 94.007812 106.539062 94.007812 "/>
<path style=" stroke:none;fill-rule:evenodd;fill:rgb(5.099487%,5.099487%,5.099487%);fill-opacity:1;" d="M 113.167969 96.476562 C 112.167969 93.695312 110.710938 91.988281 110.648438 91.917969 L 110.554688 91.8125 L 110.429688 91.921875 C 110.445312 92.011719 110.472656 92.109375 110.464844 92.199219 C 110.464844 92.222656 110.460938 92.246094 110.457031 92.269531 L 110.527344 92.210938 C 110.863281 92.628906 112.050781 94.195312 112.90625 96.574219 C 113.816406 99.101562 114.492188 103.042969 112.554688 107.480469 L 112.460938 107.691406 L 110.785156 107.445312 L 110.871094 106.851562 L 112.09375 107.027344 L 112.136719 106.925781 C 113.5 103.621094 113.570312 100.21875 112.351562 96.8125 C 111.558594 94.582031 110.425781 93.054688 110.085938 92.621094 C 110.078125 92.621094 110.070312 92.625 110.058594 92.625 C 109.964844 92.636719 109.855469 92.578125 109.789062 92.515625 C 109.785156 92.507812 109.78125 92.5 109.773438 92.496094 L 109.679688 92.574219 L 109.773438 92.683594 C 109.785156 92.699219 111.167969 94.328125 112.089844 96.90625 C 113.269531 100.210938 113.214844 103.511719 111.917969 106.71875 L 110.636719 106.53125 L 110.46875 107.683594 L 112.632812 108 L 112.808594 107.59375 C 114.785156 103.074219 114.097656 99.054688 113.167969 96.476562 "/>
<path style=" stroke:none;fill-rule:evenodd;fill:rgb(5.099487%,5.099487%,5.099487%);fill-opacity:1;" d="M 109.464844 107.988281 C 109.359375 107.988281 109.269531 107.9375 109.203125 107.847656 C 109.011719 107.574219 109.078125 106.933594 109.25 106.492188 C 109.367188 106.199219 109.601562 106.015625 109.878906 106.003906 C 110.105469 105.992188 110.3125 106.097656 110.394531 106.261719 C 110.445312 106.367188 110.890625 106.535156 111.261719 106.621094 L 111.195312 106.898438 C 110.984375 106.847656 110.277344 106.664062 110.144531 106.390625 C 110.117188 106.332031 110.011719 106.28125 109.890625 106.285156 C 109.792969 106.289062 109.613281 106.335938 109.511719 106.59375 C 109.339844 107.03125 109.328125 107.539062 109.429688 107.683594 C 109.449219 107.707031 109.457031 107.707031 109.46875 107.703125 C 109.570312 107.699219 109.703125 107.65625 109.855469 107.609375 C 110.140625 107.515625 110.496094 107.402344 110.882812 107.460938 L 111.394531 107.535156 L 111.355469 107.8125 L 110.84375 107.738281 C 110.519531 107.691406 110.210938 107.789062 109.941406 107.875 C 109.769531 107.929688 109.621094 107.980469 109.480469 107.988281 C 109.476562 107.988281 109.472656 107.988281 109.464844 107.988281 "/>
<path style=" stroke:none;fill-rule:evenodd;fill:rgb(5.099487%,5.099487%,5.099487%);fill-opacity:1;" d="M 112.371094 105.660156 C 112.371094 105.652344 112.375 105.644531 112.378906 105.636719 C 112.410156 105.542969 112.46875 105.476562 112.535156 105.433594 C 110.097656 103.703125 108.390625 101.328125 107.460938 98.355469 C 106.640625 95.742188 106.761719 93.605469 106.761719 93.585938 L 106.769531 93.445312 L 106.648438 93.4375 C 106.648438 93.445312 106.648438 93.453125 106.648438 93.460938 C 106.632812 93.550781 106.582031 93.667969 106.5 93.714844 C 106.492188 93.71875 106.484375 93.722656 106.476562 93.726562 C 106.464844 94.277344 106.484375 96.183594 107.191406 98.441406 C 108.140625 101.472656 109.878906 103.894531 112.371094 105.660156 "/>
<path style=" stroke:none;fill-rule:evenodd;fill:rgb(5.099487%,5.099487%,5.099487%);fill-opacity:1;" d="M 114.410156 105.132812 L 113.5 106.0625 C 113.402344 106.003906 113.304688 105.941406 113.207031 105.878906 C 113.207031 105.890625 113.203125 105.902344 113.203125 105.914062 C 113.1875 106 113.171875 106.089844 113.152344 106.179688 C 113.253906 106.242188 113.351562 106.300781 113.453125 106.363281 L 113.546875 106.417969 L 114.414062 105.53125 L 114.839844 105.953125 L 113.65625 107.167969 L 113.457031 107.058594 C 113.308594 106.976562 113.167969 106.890625 113.027344 106.804688 C 113.023438 106.820312 113.019531 106.835938 113.015625 106.851562 L 112.945312 107.0625 C 113.0625 107.15625 113.191406 107.230469 113.320312 107.304688 L 113.707031 107.519531 L 115.238281 105.949219 L 114.410156 105.132812 "/>
<path style=" stroke:none;fill-rule:evenodd;fill:rgb(5.099487%,5.099487%,5.099487%);fill-opacity:1;" d="M 112.113281 106.507812 C 112.152344 106.4375 112.183594 106.359375 112.207031 106.277344 C 108.871094 103.96875 107.324219 100.886719 106.609375 98.589844 C 105.859375 96.175781 105.863281 94.203125 105.878906 93.667969 L 105.96875 93.671875 C 105.953125 93.65625 105.9375 93.640625 105.917969 93.621094 C 105.859375 93.554688 105.820312 93.460938 105.78125 93.378906 L 105.613281 93.367188 L 105.605469 93.507812 C 105.597656 93.601562 105.464844 95.847656 106.34375 98.671875 C 107.074219 101.023438 108.660156 104.1875 112.097656 106.542969 C 112.101562 106.53125 112.105469 106.519531 112.113281 106.507812 "/>
<path style=" stroke:none;fill-rule:evenodd;fill:rgb(5.099487%,5.099487%,5.099487%);fill-opacity:1;" d="M 116.21875 105.582031 C 116.300781 105.515625 116.34375 105.421875 116.34375 105.308594 C 116.332031 104.976562 115.890625 104.503906 115.488281 104.261719 C 115.222656 104.097656 114.925781 104.09375 114.695312 104.253906 C 114.507812 104.382812 114.410156 104.59375 114.441406 104.773438 C 114.464844 104.886719 114.210938 105.292969 113.96875 105.585938 L 114.183594 105.765625 C 114.324219 105.597656 114.773438 105.023438 114.71875 104.722656 C 114.707031 104.660156 114.753906 104.554688 114.855469 104.484375 C 114.9375 104.429688 115.105469 104.355469 115.34375 104.5 C 115.742188 104.742188 116.058594 105.140625 116.0625 105.316406 C 116.0625 105.347656 116.054688 105.351562 116.046875 105.359375 C 115.960938 105.417969 115.832031 105.460938 115.679688 105.515625 C 115.398438 105.617188 115.046875 105.742188 114.773438 106.023438 L 114.410156 106.394531 L 114.609375 106.59375 L 114.972656 106.222656 C 115.203125 105.988281 115.507812 105.878906 115.773438 105.78125 C 115.945312 105.722656 116.089844 105.667969 116.203125 105.589844 C 116.210938 105.585938 116.214844 105.582031 116.21875 105.582031 "/>
<path style=" stroke:none;fill-rule:evenodd;fill:rgb(5.099487%,5.099487%,5.099487%);fill-opacity:1;" d="M 103.25 92.203125 C 103.890625 90.097656 104.527344 88.265625 104.558594 88.175781 C 104.53125 88.226562 104.046875 89.046875 103.460938 90.214844 C 103.214844 90.703125 102.953125 91.25 102.699219 91.828125 C 102.953125 91.84375 103.144531 92.003906 103.25 92.203125 "/>
<path style=" stroke:none;fill-rule:evenodd;fill:rgb(5.099487%,5.099487%,5.099487%);fill-opacity:1;" d="M 115.242188 137.421875 C 104.785156 137.105469 100.429688 134.050781 99.652344 133.433594 C 99.644531 132.996094 99.695312 132.710938 99.761719 132.265625 C 100.304688 128.671875 101.25 125.894531 101.996094 123.699219 C 102.460938 122.339844 102.859375 121.164062 103.039062 120.152344 C 103.4375 117.914062 103.8125 115.617188 104.140625 113.363281 C 104.46875 111.101562 104.59375 109.078125 104.585938 107.996094 C 104.578125 107.15625 104.203125 105.90625 103.730469 104.519531 C 103.527344 104.90625 103.375 105.3125 103.222656 105.71875 C 103.511719 106.640625 103.726562 107.460938 103.730469 108.003906 C 103.734375 109.039062 103.609375 111.089844 103.273438 113.363281 C 102.941406 115.574219 102.589844 117.796875 102.195312 120 C 102.027344 120.949219 101.636719 122.09375 101.1875 123.421875 C 100.863281 124.367188 100.503906 125.425781 100.15625 126.605469 C 99.648438 128.324219 99.164062 130.304688 98.84375 132.613281 L 98.601562 133.691406 C 99.492188 134.402344 100.183594 134.894531 101.226562 135.410156 C 103.589844 136.582031 107.964844 138.066406 115.207031 138.28125 C 116.761719 138.328125 118.390625 138.328125 119.949219 138.277344 C 127.101562 138.046875 131.4375 136.574219 133.785156 135.410156 C 134.824219 134.894531 135.519531 134.402344 136.40625 133.691406 L 136.164062 132.613281 C 135.84375 130.304688 135.359375 128.324219 134.851562 126.605469 C 134.503906 125.425781 134.144531 124.367188 133.824219 123.421875 C 133.371094 122.09375 132.984375 120.949219 132.8125 120 C 132.429688 117.863281 132.097656 115.71875 131.769531 113.570312 C 131.410156 111.214844 131.273438 109.070312 131.28125 108.003906 C 131.289062 107.078125 131.898438 105.339844 132.488281 103.652344 C 133.246094 101.507812 134.027344 99.28125 133.957031 97.84375 C 133.917969 97.046875 133.648438 95.804688 133.296875 94.46875 C 132.867188 92.996094 132.152344 91.421875 131.550781 90.214844 C 130.964844 89.046875 130.480469 88.226562 130.453125 88.175781 C 130.515625 88.359375 132.984375 95.476562 133.101562 97.886719 C 133.164062 99.15625 132.378906 101.394531 131.683594 103.367188 C 131.039062 105.199219 130.433594 106.925781 130.425781 107.996094 C 130.417969 109.132812 130.550781 111.304688 130.917969 113.695312 C 131.246094 115.847656 131.589844 118.007812 131.972656 120.152344 C 132.152344 121.164062 132.550781 122.339844 133.011719 123.699219 C 133.726562 125.800781 134.625 128.4375 135.175781 131.8125 C 135.261719 132.339844 135.367188 132.894531 135.359375 133.433594 C 134.582031 134.050781 130.257812 137.082031 119.878906 137.417969 C 118.351562 137.46875 116.773438 137.46875 115.242188 137.421875 "/>
<g clip-path="url(#clip3)" clip-rule="nonzero">
<path style=" stroke:none;fill-rule:evenodd;fill:rgb(5.099487%,5.099487%,5.099487%);fill-opacity:1;" d="M 146.550781 71.277344 C 146.527344 70.691406 145.894531 69.996094 145.457031 69.6875 C 146.421875 68.757812 147.441406 68.199219 147.886719 67.976562 C 148.4375 68.429688 149.003906 68.957031 149.515625 69.53125 C 148.808594 69.808594 147.472656 70.414062 146.550781 71.277344 Z M 144.609375 69.132812 C 144.078125 68.800781 143.53125 68.492188 142.96875 68.210938 C 143.707031 67.480469 144.722656 66.570312 145.214844 66.394531 C 145.488281 66.382812 146.183594 66.730469 147.011719 67.3125 C 146.398438 67.65625 145.476562 68.253906 144.609375 69.132812 Z M 142.027344 67.753906 C 142.027344 67.660156 142.027344 67.5625 142.027344 67.46875 C 142.027344 62.179688 143.796875 58.300781 145.136719 56.917969 C 145.515625 56.527344 145.746094 56.457031 145.789062 56.457031 C 146.597656 56.8125 146.417969 57.496094 146.34375 57.699219 C 145.253906 60.632812 144.757812 63.65625 144.535156 65.625 C 144.097656 65.875 143.582031 66.292969 143.121094 66.703125 C 142.660156 67.117188 142.253906 67.527344 142.027344 67.753906 Z M 150.199219 80.132812 C 150.695312 78.355469 151.371094 76.082031 151.839844 75.136719 C 152.566406 73.675781 152.363281 72.742188 152.289062 72.507812 C 151.726562 69.761719 148.730469 67.128906 146.847656 66.023438 C 146.265625 65.679688 145.851562 65.519531 145.558594 65.449219 C 145.671875 64.484375 145.855469 63.304688 146.128906 62.03125 C 146.402344 60.757812 146.769531 59.390625 147.265625 58.054688 C 147.539062 57.355469 147.472656 56.113281 146.179688 55.546875 C 145.910156 55.429688 145.460938 55.382812 144.851562 55.847656 C 143.335938 56.992188 141.007812 61.414062 141.042969 67.632812 C 140.828125 67.65625 140.617188 67.710938 140.414062 67.796875 C 139.890625 68.019531 139.484375 68.429688 139.300781 68.917969 C 138.726562 70.445312 137.75 73.191406 137.660156 74.445312 C 137.617188 75.070312 137.960938 75.699219 138.445312 76.296875 C 139.203125 77.230469 141.230469 79.109375 142.097656 79.851562 C 142.183594 80.246094 142.425781 81.722656 141.96875 84.496094 C 141.863281 85.140625 141.628906 86 141.351562 86.992188 C 140.558594 89.855469 139.402344 94.03125 140.097656 98.070312 C 140.777344 101.628906 143.101562 102.914062 143.175781 102.953125 C 139.183594 98.023438 140.984375 91.523438 142.175781 87.222656 C 142.457031 86.203125 142.703125 85.324219 142.8125 84.636719 C 143.390625 81.117188 142.90625 79.542969 142.886719 79.476562 L 142.847656 79.359375 L 142.75 79.277344 C 141.511719 78.246094 140.316406 76.976562 139.28125 75.746094 C 138.90625 75.300781 138.625 74.855469 138.648438 74.519531 C 138.707031 73.695312 139.28125 71.78125 140.226562 69.269531 C 140.316406 69.035156 140.523438 68.828125 140.800781 68.710938 C 141.078125 68.59375 141.375 68.582031 141.613281 68.6875 C 142.789062 69.203125 143.808594 69.753906 144.875 70.492188 C 145.457031 70.894531 145.691406 71.371094 145.535156 71.835938 C 145.375 72.316406 144.835938 72.671875 144.3125 72.648438 C 142.859375 72.578125 141.222656 71.6875 141.144531 71.3125 C 141.144531 71.3125 140.964844 72.648438 142.566406 73.296875 C 142.933594 73.417969 143.308594 73.511719 143.660156 73.574219 C 143.945312 73.964844 144.210938 74.523438 144.210938 75.257812 C 144.210938 75.761719 144.085938 76.34375 143.75 77.011719 C 143.75 77.011719 145.273438 75.480469 144.355469 73.644531 C 144.8125 73.644531 145.25 73.503906 145.617188 73.257812 C 145.511719 74.191406 145.480469 75.550781 146.066406 76.160156 C 146.324219 76.429688 146.675781 76.542969 147.042969 76.578125 C 147.5 76.617188 147.976562 76.523438 148.304688 76.4375 C 148.570312 76.367188 149.914062 75.96875 150.085938 75.277344 C 150.25 74.613281 150.414062 73.707031 150.292969 73.054688 C 150.417969 72.921875 150.503906 72.785156 150.484375 72.695312 L 148.683594 73.320312 C 148.683594 73.320312 148.480469 73.792969 148.554688 74.820312 C 148.554688 74.820312 148.90625 74.414062 148.933594 73.820312 C 148.933594 73.820312 149.132812 73.695312 149.347656 73.582031 C 149.34375 73.945312 149.273438 74.441406 149.140625 74.980469 C 148.957031 75.160156 148.117188 75.554688 147.371094 75.589844 C 147.035156 75.605469 146.84375 75.539062 146.777344 75.46875 C 146.472656 75.152344 146.496094 73.765625 146.707031 72.640625 C 147.289062 71.554688 149.292969 70.65625 150.175781 70.339844 C 151.21875 71.761719 151.785156 73.027344 150.953125 74.691406 C 150.628906 75.347656 150.203125 76.5625 149.804688 77.839844 C 149.660156 78.304688 149.519531 78.773438 149.386719 79.230469 C 149.328125 79.78125 149.277344 80.351562 149.242188 80.929688 C 149.117188 83.019531 149.113281 85.117188 149.257812 87.203125 C 149.320312 88.390625 149.417969 89.511719 149.535156 90.546875 C 149.542969 90.613281 149.546875 90.707031 149.558594 90.773438 C 149.867188 93.371094 150.300781 95.445312 150.640625 96.832031 C 151.15625 98.902344 151.15625 103.769531 149.335938 106.089844 C 148.652344 106.964844 147.765625 107.402344 146.699219 107.390625 C 142.070312 107.351562 133.609375 96.570312 133.523438 96.460938 L 133.171875 96.738281 C 133.230469 97.007812 133.273438 97.28125 133.300781 97.558594 C 135.164062 99.855469 142.25 108.214844 146.691406 108.253906 C 148.066406 108.253906 149.15625 107.710938 150.007812 106.625 C 152.097656 103.960938 151.988281 98.710938 151.472656 96.625 C 150.90625 94.332031 150.082031 90.109375 150.039062 84.769531 C 150.035156 84.054688 150.042969 83.34375 150.0625 82.644531 C 150.085938 81.90625 150.121094 81.152344 150.179688 80.378906 C 150.183594 80.296875 150.191406 80.214844 150.199219 80.132812 "/>
</g>
<path style=" stroke:none;fill-rule:evenodd;fill:rgb(5.099487%,5.099487%,5.099487%);fill-opacity:1;" d="M 139.480469 87.28125 C 138.652344 85.765625 137.933594 84.453125 137.332031 83.550781 C 136.238281 81.90625 135.019531 80.914062 134.222656 80.386719 C 134.09375 80.300781 127.902344 76.796875 127.792969 76.734375 C 127.253906 76.726562 126.871094 76.820312 127.113281 77.347656 C 127.230469 77.414062 133.523438 80.957031 133.699219 81.074219 C 134.417969 81.539062 135.582031 82.464844 136.621094 84.027344 C 137.203125 84.902344 137.910156 86.199219 138.734375 87.699219 C 139.390625 88.898438 140.117188 90.222656 140.875 91.503906 C 140.960938 91.113281 141.070312 90.734375 141.199219 90.355469 C 140.59375 89.3125 140.015625 88.257812 139.480469 87.28125 "/>
<path style=" stroke:none;fill-rule:evenodd;fill:rgb(5.099487%,5.099487%,5.099487%);fill-opacity:1;" d="M 137.105469 101.109375 L 136.265625 100.949219 C 136.292969 100.796875 136.996094 97.195312 140.171875 94.40625 L 140.738281 95.054688 C 137.789062 97.640625 137.113281 101.074219 137.105469 101.109375 "/>
<path style=" stroke:none;fill-rule:evenodd;fill:rgb(5.099487%,5.099487%,5.099487%);fill-opacity:1;" d="M 139.597656 77.507812 C 139.597656 77.503906 139.769531 77.667969 139.769531 77.667969 C 139.710938 77.617188 139.65625 77.5625 139.597656 77.507812 "/>
<path style=" stroke:none;fill-rule:evenodd;fill:rgb(48.239136%,23.139954%,18.818665%);fill-opacity:1;" d="M 77.402344 87.515625 C 72.96875 89.128906 74.292969 97.003906 74.355469 104.484375 C 73.988281 107.261719 76.191406 108.277344 77.390625 108.636719 L 77.402344 87.515625 "/>
<path style=" stroke:none;fill-rule:evenodd;fill:rgb(21.569824%,67.059326%,90.19928%);fill-opacity:1;" d="M 100.109375 111.570312 L 100.109375 76.699219 C 100.109375 76.191406 99.734375 75.777344 99.273438 75.777344 L 79.945312 75.777344 C 79.480469 75.777344 79.105469 76.191406 79.105469 76.699219 L 79.105469 111.570312 C 79.105469 112.078125 79.480469 112.492188 79.945312 112.492188 L 99.273438 112.492188 C 99.734375 112.492188 100.109375 112.078125 100.109375 111.570312 "/>
<path style=" stroke:none;fill-rule:evenodd;fill:rgb(30.198669%,32.159424%,34.509277%);fill-opacity:1;" d="M 100.179688 111.230469 C 100.179688 112.117188 99.15625 112.507812 99.15625 112.507812 L 80.089844 112.507812 C 79.207031 112.507812 78.996094 111.703125 78.996094 111.703125 L 78.996094 77.082031 C 79.167969 75.785156 79.984375 75.726562 79.984375 75.726562 L 98.347656 75.726562 C 99.898438 75.625 100.179688 76.867188 100.179688 76.867188 Z M 100.390625 74.183594 L 94.679688 74.078125 L 78.574219 74.078125 C 78.574219 74.078125 77.515625 74.730469 77.515625 76.042969 L 77.515625 114.597656 C 77.515625 114.597656 77.808594 115.554688 78.824219 115.695312 L 100.816406 115.695312 C 100.816406 115.695312 101.550781 115.277344 101.550781 114.210938 L 101.550781 75.332031 C 101.550781 75.332031 101.484375 74.132812 100.390625 74.183594 "/>
<path style=" stroke:none;fill-rule:evenodd;fill:rgb(64.309692%,70.199585%,72.549438%);fill-opacity:1;" d="M 91.289062 114.023438 C 91.289062 114.402344 91.011719 114.714844 90.667969 114.714844 L 88.648438 114.714844 C 88.308594 114.714844 88.027344 114.402344 88.027344 114.023438 C 88.027344 113.640625 88.308594 113.332031 88.648438 113.332031 L 90.667969 113.332031 C 91.011719 113.332031 91.289062 113.640625 91.289062 114.023438 "/>
<path style=" stroke:none;fill-rule:evenodd;fill:rgb(96.469116%,78.819275%,64.709473%);fill-opacity:1;" d="M 101.535156 83.066406 C 101.535156 83.066406 102.828125 80.214844 105.273438 80.613281 C 104.507812 84.058594 105.375 88.898438 105.503906 90.542969 C 105.089844 91.679688 105.011719 93.222656 105.46875 95.101562 C 107.546875 100.210938 106.035156 105.476562 101.59375 108.660156 L 101.535156 83.066406 "/>
<path style=" stroke:none;fill-rule:evenodd;fill:rgb(84.309387%,58.428955%,47.839355%);fill-opacity:1;" d="M 104.023438 81 C 104.023438 81 102.320312 82.449219 102.441406 85.378906 C 102.558594 88.308594 102.851562 88.914062 102.734375 89.941406 C 102.613281 90.972656 102.300781 95.71875 102.378906 99.003906 C 102.457031 102.289062 102.652344 106.328125 103.558594 107 C 103.558594 107 102.652344 108.027344 101.710938 108.660156 C 101.683594 100.039062 101.660156 91.417969 101.636719 82.796875 C 102.335938 81.921875 103.03125 80.992188 104.023438 81 "/>
<path style=" stroke:none;fill-rule:evenodd;fill:rgb(5.099487%,5.099487%,5.099487%);fill-opacity:1;" d="M 105.757812 80.398438 C 105.460938 81.777344 105.242188 83.15625 105.292969 84.570312 C 105.304688 84.835938 105.320312 85.097656 105.347656 85.363281 C 105.878906 90.460938 105.972656 89.972656 105.640625 91.753906 C 105.378906 93.171875 105.746094 94.289062 106.105469 95.550781 L 106.261719 96.105469 C 106.550781 97.140625 106.710938 98.289062 106.714844 99.472656 C 106.722656 100.585938 106.589844 101.734375 106.296875 102.851562 C 105.980469 104.0625 105.476562 105.238281 104.753906 106.300781 C 104.09375 107.273438 103.253906 108.152344 102.207031 108.875 L 101.511719 109.375 C 101.609375 108.996094 101.546875 108.714844 101.699219 108.175781 C 102.652344 107.507812 103.4375 106.707031 104.054688 105.796875 C 104.695312 104.855469 105.160156 103.792969 105.464844 102.632812 C 105.734375 101.597656 105.859375 100.53125 105.855469 99.5 C 105.851562 98.40625 105.707031 97.34375 105.449219 96.386719 C 105.359375 96.054688 105.269531 95.757812 105.183594 95.476562 C 104.816406 94.269531 104.53125 93.332031 104.789062 91.625 C 105.164062 89.714844 104.996094 90.660156 104.515625 85.503906 C 104.429688 84.601562 104.421875 83.5625 104.554688 82.355469 C 104.609375 81.882812 104.640625 81.582031 104.742188 81.054688 C 103.183594 81.296875 102.441406 82.464844 101.71875 83.488281 C 101.613281 83.132812 101.582031 82.984375 101.484375 82.601562 C 101.859375 81.476562 103.539062 79.703125 105.757812 80.398438 "/>
<path style=" stroke:none;fill-rule:evenodd;fill:rgb(5.099487%,5.099487%,5.099487%);fill-opacity:1;" d="M 78.792969 74.5 C 78.582031 74.5 78.386719 74.59375 78.25 74.75 C 78.105469 74.90625 78.019531 75.125 78.019531 75.367188 L 78.019531 114.390625 C 78.019531 114.632812 78.105469 114.851562 78.25 115.007812 C 78.386719 115.164062 78.582031 115.257812 78.792969 115.257812 L 100.425781 115.257812 C 100.636719 115.257812 100.828125 115.164062 100.96875 115.007812 C 101.109375 114.851562 101.195312 114.632812 101.195312 114.390625 L 101.195312 75.367188 C 101.195312 75.125 101.109375 74.90625 100.96875 74.75 C 100.828125 74.59375 100.636719 74.5 100.425781 74.5 Z M 100.425781 116.074219 L 78.792969 116.074219 C 78.355469 116.074219 77.960938 115.882812 77.671875 115.578125 C 77.386719 115.273438 77.210938 114.851562 77.210938 114.390625 L 77.210938 75.367188 C 77.210938 74.902344 77.386719 74.484375 77.671875 74.179688 C 77.960938 73.875 78.355469 73.683594 78.792969 73.683594 L 100.425781 73.683594 C 100.863281 73.683594 101.257812 73.875 101.542969 74.179688 C 101.828125 74.484375 102.007812 74.902344 102.007812 75.367188 L 102.007812 114.390625 C 102.007812 114.851562 101.828125 115.273438 101.542969 115.578125 C 101.257812 115.882812 100.863281 116.074219 100.425781 116.074219 "/>
<path style=" stroke:none;fill-rule:evenodd;fill:rgb(5.099487%,5.099487%,5.099487%);fill-opacity:1;" d="M 80.074219 76.023438 C 79.617188 76.023438 79.246094 76.429688 79.246094 76.933594 L 79.246094 111.332031 C 79.246094 111.835938 79.617188 112.246094 80.074219 112.246094 L 99.140625 112.246094 C 99.597656 112.246094 99.96875 111.835938 99.96875 111.332031 L 99.96875 76.933594 C 99.96875 76.429688 99.597656 76.023438 99.140625 76.023438 Z M 99.140625 112.671875 L 80.074219 112.671875 C 79.386719 112.671875 78.824219 112.070312 78.824219 111.332031 L 78.824219 76.933594 C 78.824219 76.199219 79.386719 75.597656 80.074219 75.597656 L 99.140625 75.597656 C 99.832031 75.597656 100.390625 76.199219 100.390625 76.933594 L 100.390625 111.332031 C 100.390625 112.070312 99.832031 112.671875 99.140625 112.671875 "/>
<path style=" stroke:none;fill-rule:evenodd;fill:rgb(5.099487%,5.099487%,5.099487%);fill-opacity:1;" d="M 88.539062 113.570312 C 88.296875 113.570312 88.101562 113.765625 88.101562 114.007812 C 88.101562 114.25 88.296875 114.445312 88.539062 114.445312 L 90.679688 114.445312 C 90.917969 114.445312 91.113281 114.25 91.113281 114.007812 C 91.113281 113.765625 90.917969 113.570312 90.679688 113.570312 Z M 90.679688 114.871094 L 88.539062 114.871094 C 88.066406 114.871094 87.679688 114.484375 87.679688 114.007812 C 87.679688 113.53125 88.066406 113.144531 88.539062 113.144531 L 90.679688 113.144531 C 91.152344 113.144531 91.539062 113.53125 91.539062 114.007812 C 91.539062 114.484375 91.152344 114.871094 90.679688 114.871094 "/>
<path style=" stroke:none;fill-rule:evenodd;fill:rgb(96.469116%,78.819275%,64.709473%);fill-opacity:1;" d="M 78.296875 88.886719 C 78.296875 84.667969 72.730469 84.664062 72.730469 88.886719 C 72.730469 93.121094 78.296875 93.121094 78.296875 88.886719 "/>
<path style=" stroke:none;fill-rule:evenodd;fill:rgb(84.309387%,58.428955%,47.839355%);fill-opacity:1;" d="M 78.296875 88.886719 C 78.296875 86.796875 76.933594 85.742188 75.554688 85.722656 C 77 87.140625 77.074219 90.777344 75.40625 92.058594 C 76.832031 92.113281 78.296875 91.054688 78.296875 88.886719 "/>
<path style=" stroke:none;fill-rule:evenodd;fill:rgb(5.099487%,5.099487%,5.099487%);fill-opacity:1;" d="M 74.195312 92.167969 C 73.128906 91.6875 72.292969 90.59375 72.292969 88.886719 C 72.292969 87.179688 73.128906 86.085938 74.195312 85.605469 C 74.613281 85.417969 75.0625 85.324219 75.511719 85.324219 C 75.960938 85.324219 76.414062 85.417969 76.828125 85.605469 C 77.898438 86.085938 78.730469 87.179688 78.730469 88.886719 C 78.730469 90.59375 77.898438 91.6875 76.828125 92.167969 C 76.414062 92.355469 75.960938 92.449219 75.511719 92.449219 C 75.0625 92.449219 74.613281 92.355469 74.195312 92.167969 Z M 74.523438 86.339844 C 73.722656 86.707031 73.097656 87.558594 73.097656 88.886719 C 73.097656 90.222656 73.722656 91.070312 74.523438 91.441406 C 74.835938 91.585938 75.175781 91.65625 75.511719 91.65625 C 75.851562 91.65625 76.1875 91.585938 76.5 91.441406 C 77.300781 91.070312 77.925781 90.222656 77.925781 88.886719 C 77.925781 87.558594 77.300781 86.707031 76.5 86.339844 C 76.1875 86.195312 75.851562 86.125 75.511719 86.125 C 75.171875 86.125 74.835938 86.195312 74.523438 86.339844 "/>
<path style=" stroke:none;fill-rule:evenodd;fill:rgb(96.469116%,78.819275%,64.709473%);fill-opacity:1;" d="M 78.273438 106.621094 C 78.273438 102.636719 73.015625 102.636719 73.015625 106.625 C 73.015625 110.621094 78.273438 110.621094 78.273438 106.621094 "/>
<path style=" stroke:none;fill-rule:evenodd;fill:rgb(84.309387%,58.428955%,47.839355%);fill-opacity:1;" d="M 78.316406 106.539062 C 78.316406 104.449219 76.953125 103.394531 75.574219 103.371094 C 77.019531 104.792969 77.09375 108.429688 75.425781 109.710938 C 76.851562 109.765625 78.316406 108.707031 78.316406 106.539062 "/>
<path style=" stroke:none;fill-rule:evenodd;fill:rgb(5.099487%,5.099487%,5.099487%);fill-opacity:1;" d="M 74.398438 109.726562 C 73.386719 109.273438 72.597656 108.238281 72.597656 106.625 C 72.597656 105.007812 73.386719 103.972656 74.398438 103.519531 C 74.792969 103.34375 75.21875 103.253906 75.644531 103.253906 C 76.070312 103.253906 76.496094 103.34375 76.890625 103.519531 C 77.902344 103.972656 78.691406 105.007812 78.691406 106.625 C 78.691406 108.238281 77.902344 109.273438 76.890625 109.726562 C 76.496094 109.90625 76.070312 109.996094 75.644531 109.996094 C 75.21875 109.996094 74.792969 109.90625 74.398438 109.726562 Z M 74.714844 104.222656 C 73.960938 104.570312 73.371094 105.371094 73.371094 106.625 C 73.371094 107.882812 73.960938 108.683594 74.714844 109.03125 C 75.007812 109.167969 75.328125 109.234375 75.644531 109.234375 C 75.964844 109.234375 76.28125 109.167969 76.574219 109.03125 C 77.328125 108.683594 77.917969 107.882812 77.917969 106.625 C 77.917969 105.371094 77.328125 104.570312 76.574219 104.222656 C 76.28125 104.089844 75.964844 104.023438 75.644531 104.023438 C 75.324219 104.023438 75.007812 104.089844 74.714844 104.222656 "/>
<path style=" stroke:none;fill-rule:evenodd;fill:rgb(96.469116%,78.819275%,64.709473%);fill-opacity:1;" d="M 78.058594 100.878906 C 78.058594 96.65625 72.496094 96.65625 72.496094 100.878906 C 72.496094 105.109375 78.058594 105.109375 78.058594 100.878906 "/>
<path style=" stroke:none;fill-rule:evenodd;fill:rgb(84.309387%,58.428955%,47.839355%);fill-opacity:1;" d="M 77.960938 100.957031 C 77.960938 98.871094 76.597656 97.816406 75.222656 97.792969 C 76.664062 99.210938 76.738281 102.851562 75.074219 104.128906 C 76.5 104.183594 77.960938 103.128906 77.960938 100.957031 "/>
<path style=" stroke:none;fill-rule:evenodd;fill:rgb(5.099487%,5.099487%,5.099487%);fill-opacity:1;" d="M 73.960938 104.160156 C 72.890625 103.679688 72.058594 102.585938 72.058594 100.878906 C 72.058594 99.171875 72.890625 98.078125 73.960938 97.597656 C 74.375 97.410156 74.828125 97.316406 75.277344 97.316406 C 75.726562 97.316406 76.175781 97.410156 76.59375 97.597656 C 77.660156 98.078125 78.496094 99.171875 78.496094 100.878906 C 78.496094 102.585938 77.660156 103.679688 76.59375 104.160156 C 76.175781 104.347656 75.726562 104.441406 75.277344 104.441406 C 74.828125 104.441406 74.375 104.347656 73.960938 104.160156 Z M 74.289062 98.332031 C 73.488281 98.699219 72.863281 99.546875 72.863281 100.878906 C 72.863281 102.210938 73.488281 103.0625 74.289062 103.433594 C 74.601562 103.578125 74.9375 103.648438 75.277344 103.648438 C 75.617188 103.648438 75.953125 103.578125 76.265625 103.433594 C 77.066406 103.0625 77.691406 102.210938 77.691406 100.878906 C 77.691406 99.546875 77.066406 98.699219 76.265625 98.332031 C 75.953125 98.1875 75.613281 98.117188 75.277344 98.117188 C 74.9375 98.117188 74.601562 98.1875 74.289062 98.332031 "/>
<path style=" stroke:none;fill-rule:evenodd;fill:rgb(96.469116%,78.819275%,64.709473%);fill-opacity:1;" d="M 77.84375 94.890625 C 77.84375 90.671875 72.277344 90.671875 72.277344 94.890625 C 72.277344 99.125 77.84375 99.125 77.84375 94.890625 "/>
<path style=" stroke:none;fill-rule:evenodd;fill:rgb(84.309387%,58.428955%,47.839355%);fill-opacity:1;" d="M 77.863281 94.863281 C 77.863281 92.773438 76.5 91.71875 75.121094 91.699219 C 76.566406 93.117188 76.640625 96.753906 74.972656 98.035156 C 76.398438 98.089844 77.863281 97.03125 77.863281 94.863281 "/>
<g clip-path="url(#clip4)" clip-rule="nonzero">
<path style=" stroke:none;fill-rule:evenodd;fill:rgb(5.099487%,5.099487%,5.099487%);fill-opacity:1;" d="M 73.742188 98.171875 C 72.675781 97.691406 71.839844 96.597656 71.839844 94.890625 C 71.839844 93.1875 72.675781 92.089844 73.742188 91.609375 C 74.160156 91.425781 74.609375 91.332031 75.058594 91.332031 C 75.511719 91.332031 75.960938 91.425781 76.375 91.609375 C 77.445312 92.089844 78.28125 93.1875 78.28125 94.890625 C 78.28125 96.597656 77.445312 97.691406 76.375 98.171875 C 75.960938 98.359375 75.507812 98.453125 75.058594 98.453125 C 74.609375 98.453125 74.160156 98.359375 73.742188 98.171875 Z M 74.074219 92.34375 C 73.273438 92.714844 72.644531 93.5625 72.644531 94.890625 C 72.644531 96.226562 73.273438 97.078125 74.074219 97.449219 C 74.382812 97.589844 74.722656 97.664062 75.058594 97.664062 C 75.398438 97.664062 75.738281 97.589844 76.046875 97.449219 C 76.847656 97.078125 77.472656 96.226562 77.472656 94.890625 C 77.472656 93.5625 76.847656 92.714844 76.046875 92.34375 C 75.738281 92.203125 75.398438 92.128906 75.058594 92.128906 C 74.722656 92.128906 74.382812 92.203125 74.074219 92.34375 "/>
</g>
<path style=" stroke:none;fill-rule:evenodd;fill:rgb(84.309387%,58.428955%,47.839355%);fill-opacity:1;" d="M 116.769531 63.296875 L 116.878906 63.359375 C 116.878906 63.359375 117.144531 63.664062 117.523438 63.699219 C 117.898438 63.734375 118.246094 63.492188 118.34375 63.359375 L 118.453125 63.296875 C 118.601562 63.230469 119.042969 62.996094 119.039062 63.296875 C 118.84375 63.46875 118.53125 63.671875 118.3125 63.863281 C 118.097656 64.054688 117.84375 64.253906 117.585938 64.257812 C 117.347656 64.265625 117.148438 64.039062 116.894531 63.878906 C 116.601562 63.699219 116.230469 63.363281 116.1875 63.296875 C 115.972656 62.984375 116.746094 63.289062 116.769531 63.296875 "/>
<path style=" stroke:none;fill-rule:evenodd;fill:rgb(5.099487%,5.099487%,5.099487%);fill-opacity:1;" d="M 118.988281 63.011719 C 119.160156 62.988281 119.113281 63.210938 119.039062 63.300781 C 119.039062 63.300781 118.875 63.210938 118.453125 63.300781 C 118.453125 63.300781 118.8125 63.035156 118.988281 63.011719 "/>
<path style=" stroke:none;fill-rule:evenodd;fill:rgb(5.099487%,5.099487%,5.099487%);fill-opacity:1;" d="M 116.878906 63.359375 C 117.289062 63.691406 117.933594 63.691406 118.34375 63.359375 C 118.066406 64.082031 117.15625 64.082031 116.878906 63.359375 "/>
<path style=" stroke:none;fill-rule:evenodd;fill:rgb(5.099487%,5.099487%,5.099487%);fill-opacity:1;" d="M 116.1875 63.300781 C 116.113281 63.210938 116.0625 62.988281 116.234375 63.011719 C 116.410156 63.035156 116.769531 63.300781 116.769531 63.300781 C 116.347656 63.210938 116.1875 63.300781 116.1875 63.300781 "/>
<path style=" stroke:none;fill-rule:evenodd;fill:rgb(5.099487%,5.099487%,5.099487%);fill-opacity:1;" d="M 114.132812 65.46875 C 114.132812 65.46875 115.835938 66.613281 117.671875 66.582031 C 119.507812 66.550781 121.1875 65.507812 121.1875 65.507812 L 121.433594 65.820312 C 121.433594 65.820312 120.230469 68.867188 117.6875 68.929688 C 115.144531 68.988281 113.859375 65.722656 113.859375 65.722656 L 114.132812 65.46875 "/>
<path style=" stroke:none;fill-rule:evenodd;fill:rgb(100%,100%,100%);fill-opacity:1;" d="M 114.34375 65.65625 C 114.34375 65.65625 115.390625 67.292969 117.617188 67.296875 C 119.742188 67.300781 120.753906 66.148438 120.957031 65.644531 C 120.957031 65.644531 119.433594 66.566406 117.769531 66.582031 C 116.105469 66.597656 114.957031 65.941406 114.34375 65.65625 "/>
<path style=" stroke:none;fill-rule:evenodd;fill:rgb(100%,100%,100%);fill-opacity:1;" d="M 115.457031 67.957031 C 115.457031 67.957031 117.695312 69.136719 119.984375 67.867188 C 119.984375 67.867188 118.847656 68.964844 117.679688 68.945312 C 116.511719 68.921875 115.457031 67.957031 115.457031 67.957031 "/>
<path style=" stroke:none;fill-rule:evenodd;fill:rgb(92.939758%,7.839966%,26.269531%);fill-opacity:1;" d="M 117.714844 65.730469 C 117.714844 65.730469 117.988281 65.296875 118.367188 65.332031 C 118.699219 65.363281 120.269531 65.65625 121.152344 65.453125 C 121.175781 65.445312 121.347656 65.429688 121.191406 65.53125 C 120.644531 65.882812 119.339844 66.574219 117.589844 66.601562 C 117.589844 66.601562 114.878906 66.132812 114.460938 65.511719 C 114.460938 65.511719 115.511719 65.550781 116.199219 65.421875 C 116.886719 65.296875 117.242188 65.148438 117.714844 65.730469 "/>
<path style=" stroke:none;fill-rule:evenodd;fill:rgb(92.939758%,7.839966%,26.269531%);fill-opacity:1;" d="M 120.828125 67.058594 C 120.828125 67.058594 119.625 68.472656 118.378906 68.777344 C 117.128906 69.078125 116.554688 68.613281 116.554688 68.613281 C 116.554688 68.613281 114.972656 67.792969 114.574219 67.125 C 114.574219 67.125 115.167969 69.824219 117.339844 70.023438 C 119.507812 70.222656 120.71875 68.257812 120.828125 67.058594 "/>
<path style=" stroke:none;fill-rule:evenodd;fill:rgb(5.099487%,5.099487%,5.099487%);fill-opacity:1;" d="M 121.070312 65.375 C 120.300781 65.902344 119.457031 66.171875 118.804688 66.304688 C 118.035156 66.46875 117.585938 66.488281 116.824219 66.355469 C 116.140625 66.238281 115.152344 65.96875 114.269531 65.355469 C 114.167969 65.386719 113.957031 65.488281 114.039062 65.546875 C 114.957031 66.207031 115.992188 66.503906 116.722656 66.632812 C 117.546875 66.78125 118.03125 66.765625 118.863281 66.589844 C 119.5625 66.445312 120.46875 66.152344 121.289062 65.574219 C 121.492188 65.429688 121.113281 65.34375 121.070312 65.375 Z M 118.484375 68.640625 C 119.253906 68.394531 120.542969 67.683594 121.359375 65.648438 C 121.398438 65.542969 121.601562 65.816406 121.554688 65.921875 C 120.707031 67.898438 119.386719 68.632812 118.574219 68.90625 C 118 69.097656 117.550781 69.121094 116.980469 68.964844 C 116.1875 68.742188 114.703125 68.046875 113.785156 65.867188 C 113.753906 65.789062 113.949219 65.503906 113.992188 65.605469 C 114.875 67.855469 116.335938 68.507812 117.074219 68.699219 C 117.5625 68.824219 118 68.796875 118.484375 68.640625 "/>
<path style=" stroke:none;fill-rule:evenodd;fill:rgb(5.099487%,5.099487%,5.099487%);fill-opacity:1;" d="M 118.714844 65.242188 C 118.511719 65.210938 118.367188 65.1875 118.273438 65.183594 C 118.03125 65.179688 117.832031 65.328125 117.683594 65.5 C 117.53125 65.328125 117.332031 65.175781 117.089844 65.183594 C 116.996094 65.1875 116.851562 65.210938 116.648438 65.242188 C 116.085938 65.324219 115.101562 65.472656 114.328125 65.28125 C 114.171875 65.242188 114.183594 65.542969 114.183594 65.542969 C 115.035156 65.777344 116.089844 65.621094 116.695312 65.527344 C 116.875 65.5 117.019531 65.480469 117.097656 65.476562 C 117.253906 65.46875 117.394531 65.59375 117.507812 65.746094 C 117.582031 65.839844 117.640625 65.945312 117.679688 66.03125 C 117.722656 65.949219 117.785156 65.84375 117.855469 65.746094 C 117.972656 65.601562 118.113281 65.472656 118.265625 65.476562 C 118.34375 65.480469 118.488281 65.5 118.671875 65.527344 C 119.277344 65.621094 120.34375 65.78125 121.199219 65.539062 C 121.207031 65.523438 120.976562 65.296875 120.964844 65.300781 C 120.203125 65.464844 119.257812 65.324219 118.714844 65.242188 "/>
<path style=" stroke:none;fill-rule:evenodd;fill:rgb(5.099487%,5.099487%,5.099487%);fill-opacity:1;" d="M 120.734375 67.074219 C 120.289062 68.714844 119.089844 69.898438 117.683594 69.898438 C 116.230469 69.898438 114.996094 68.640625 114.589844 66.914062 C 114.425781 66.789062 114.300781 66.625 114.210938 66.441406 C 114.496094 68.566406 115.945312 70.1875 117.683594 70.1875 C 119.398438 70.1875 120.832031 68.605469 121.144531 66.515625 C 121.054688 66.734375 120.917969 66.925781 120.734375 67.074219 "/>
<path style=" stroke:none;fill-rule:evenodd;fill:rgb(5.099487%,5.099487%,5.099487%);fill-opacity:1;" d="M 114.792969 65.121094 C 114.199219 65.144531 113.363281 65.484375 113.621094 66.558594 C 113.75 66.03125 114.25 65.429688 114.792969 65.121094 "/>
<path style=" stroke:none;fill-rule:evenodd;fill:rgb(5.099487%,5.099487%,5.099487%);fill-opacity:1;" d="M 120.492188 65.121094 C 121.085938 65.144531 121.917969 65.484375 121.660156 66.558594 C 121.535156 66.03125 121.03125 65.429688 120.492188 65.121094 "/>
<g clip-path="url(#clip5)" clip-rule="nonzero">
<path style=" stroke:none;fill-rule:nonzero;fill:rgb(95.689392%,26.269531%,21.179199%);fill-opacity:1;" d="M 83.464844 95.117188 L 89.574219 101.007812 C 89.71875 101.144531 89.949219 101.144531 90.097656 101.007812 L 96.203125 95.117188 C 97.882812 93.5 97.882812 90.878906 96.203125 89.257812 C 94.527344 87.640625 91.804688 87.640625 90.125 89.257812 C 89.894531 89.480469 89.835938 89.582031 89.835938 89.582031 C 89.835938 89.582031 89.648438 89.363281 89.542969 89.257812 C 87.863281 87.640625 85.144531 87.640625 83.464844 89.257812 C 81.789062 90.878906 81.789062 93.5 83.464844 95.117188 Z M 83.464844 95.117188 "/>
</g>
<g clip-path="url(#clip6)" clip-rule="nonzero">
<path style=" stroke:none;fill-rule:evenodd;fill:rgb(100%,100%,100%);fill-opacity:1;" d="M 86.878906 93.476562 L 86.4375 94.328125 C 86.398438 94.398438 86.308594 94.460938 86.21875 94.460938 L 81.335938 94.460938 C 81.132812 94.460938 80.96875 94.292969 80.96875 94.101562 C 80.96875 93.90625 81.132812 93.746094 81.339844 93.746094 L 85.914062 93.746094 L 86.550781 92.515625 C 86.730469 92.164062 87.023438 92.160156 87.210938 92.519531 L 88.726562 95.441406 L 90.984375 91.089844 C 91.164062 90.742188 91.457031 90.738281 91.640625 91.089844 L 93.015625 93.746094 L 98.328125 93.746094 C 98.535156 93.746094 98.699219 93.914062 98.699219 94.101562 C 98.699219 94.300781 98.527344 94.460938 98.328125 94.460938 L 92.714844 94.460938 C 92.632812 94.460938 92.53125 94.398438 92.492188 94.328125 L 91.3125 92.050781 L 89.054688 96.40625 C 88.871094 96.753906 88.578125 96.757812 88.394531 96.402344 Z M 86.878906 93.476562 "/>
</g>
</g>
</svg>
