<svg class="person" viewBox="0 0 224.87999 225">
<g id="surface1">
<path style=" stroke:none;fill-rule:evenodd;fill:rgb(32.159424%,39.219666%,72.158813%);fill-opacity:1;" d="M 135.824219 89.8125 C 134.464844 88.101562 133.257812 86.320312 132.132812 84.449219 C 131.578125 83.53125 131.007812 82.535156 130.300781 81.679688 C 130.117188 81.644531 120.515625 76.808594 119.398438 76.300781 C 117.402344 80.664062 114.207031 83.648438 110.953125 86.753906 C 107.703125 83.648438 104.507812 80.664062 102.507812 76.300781 L 94.265625 80.023438 C 94.265625 80.03125 94.261719 80.039062 94.257812 80.046875 C 93.839844 81.132812 92.265625 81.347656 91.472656 82.09375 C 90.835938 82.691406 90.375 83.421875 89.914062 84.160156 C 89.40625 84.972656 88.886719 85.78125 88.34375 86.574219 C 86.332031 89.519531 84.410156 91.710938 82.082031 94.304688 C 82.089844 95.089844 82.425781 95.765625 82.671875 96.496094 C 82.882812 97.128906 83.046875 97.777344 83.296875 98.402344 C 84.421875 101.210938 85.933594 102.515625 87.984375 104.445312 C 89.183594 103.261719 90.761719 101.742188 91.722656 100.476562 C 92.441406 99.527344 93.191406 98.484375 94.300781 97.960938 C 94.417969 97.90625 94.523438 98.015625 94.515625 98.105469 C 95.015625 98.445312 95.210938 99.378906 95.355469 99.882812 C 95.605469 101.101562 97.425781 106.632812 97.304688 108.632812 C 97.125 111.550781 96.863281 117.839844 95.445312 121.765625 C 93.90625 126.042969 93.296875 127.503906 92.84375 129.632812 C 92.390625 131.765625 92.265625 133.8125 92.265625 133.8125 L 93.914062 134.949219 C 93.914062 134.949219 93.257812 139.796875 93.628906 143.199219 C 94 146.597656 95.03125 153.277344 95.28125 154.550781 C 95.527344 155.820312 95.859375 157.664062 95.363281 159.464844 C 94.867188 161.269531 93.710938 166.226562 94.496094 169.054688 C 95.28125 171.882812 96.972656 177.003906 97.386719 178.808594 C 97.800781 180.609375 98.75 185.78125 98.75 185.78125 L 98.792969 186.140625 C 98.792969 186.140625 101.167969 187.433594 104.078125 187.128906 C 106.988281 186.820312 108.703125 185.734375 108.828125 185.160156 C 108.828125 185.160156 108.703125 174.75 108.496094 168.480469 C 108.292969 162.210938 108.789062 152.378906 109.449219 147.335938 C 110.109375 142.296875 110.894531 139.878906 110.894531 139.878906 C 111.355469 140.929688 112.363281 146.601562 112.460938 147.335938 C 113.121094 152.378906 113.617188 162.210938 113.410156 168.480469 C 113.203125 174.75 113.078125 185.160156 113.078125 185.160156 C 113.203125 185.734375 114.917969 186.820312 117.828125 187.128906 C 120.738281 187.433594 123.117188 186.140625 123.117188 186.140625 L 123.15625 185.78125 C 123.15625 185.78125 124.105469 180.609375 124.519531 178.808594 C 124.933594 177.003906 126.625 171.882812 127.410156 169.054688 C 128.195312 166.226562 127.039062 161.269531 126.542969 159.464844 C 126.046875 157.664062 126.378906 155.820312 126.625 154.550781 C 126.875 153.277344 127.90625 146.597656 128.277344 143.199219 C 128.652344 139.796875 127.992188 134.949219 127.992188 134.949219 L 129.640625 133.8125 C 129.640625 133.8125 129.519531 131.765625 129.0625 129.632812 C 128.609375 127.503906 128.246094 126.101562 126.707031 121.828125 C 125.515625 116.988281 124.660156 113.503906 124.5625 108.695312 C 124.496094 105.527344 127.429688 99.734375 127.109375 98.484375 C 126.980469 98 127.664062 97.707031 127.925781 98.144531 C 128.855469 99.707031 132.855469 103.390625 134.0625 104.582031 C 137.734375 100.980469 138.441406 98.664062 139.929688 94.742188 C 138.558594 93.101562 137.152344 91.488281 135.824219 89.8125 "/>
<path style=" stroke:none;fill-rule:evenodd;fill:rgb(63.529968%,67.059326%,86.669922%);fill-opacity:1;" d="M 103.214844 77.699219 C 103.214844 77.699219 95.210938 81.453125 94.859375 81.609375 C 93.960938 82.007812 92.289062 82.824219 91.726562 83.617188 C 90.941406 84.722656 88.671875 88.410156 87.308594 90.296875 C 85.945312 92.179688 82.507812 96.050781 82.507812 96.050781 L 81.9375 94.742188 C 81.9375 94.742188 84.90625 91.09375 86.210938 89.179688 C 87.515625 87.265625 90.402344 82.519531 90.988281 82.101562 C 91.570312 81.679688 102.507812 76.300781 102.507812 76.300781 L 103.214844 77.699219 "/>
<path style=" stroke:none;fill-rule:evenodd;fill:rgb(69.018555%,81.17981%,87.059021%);fill-opacity:1;" d="M 100.074219 186.664062 C 100.074219 186.664062 102.136719 187.480469 104.078125 187.128906 C 106.019531 186.773438 107.578125 186.050781 107.578125 186.050781 C 107.578125 186.050781 108.449219 189.882812 108.914062 193.335938 C 109.375 196.785156 108.972656 200.464844 104.265625 201.449219 C 99.554688 202.429688 91.570312 201.449219 94.988281 196.285156 C 94.988281 196.285156 98.039062 192.535156 98.75 190.90625 C 99.460938 189.277344 100.074219 186.664062 100.074219 186.664062 "/>
<path style=" stroke:none;fill-rule:evenodd;fill:rgb(69.018555%,81.17981%,87.059021%);fill-opacity:1;" d="M 121.753906 186.664062 C 121.753906 186.664062 119.6875 187.480469 117.746094 187.128906 C 115.804688 186.773438 114.246094 186.050781 114.246094 186.050781 C 114.246094 186.050781 113.375 189.882812 112.914062 193.335938 C 112.449219 196.785156 112.851562 200.464844 117.5625 201.449219 C 122.269531 202.429688 130.257812 201.449219 126.835938 196.285156 C 126.835938 196.285156 123.789062 192.535156 123.074219 190.90625 C 122.363281 189.277344 121.753906 186.664062 121.753906 186.664062 "/>
<path style=" stroke:none;fill-rule:evenodd;fill:rgb(96.469116%,78.819275%,64.709473%);fill-opacity:1;" d="M 116.167969 74.332031 L 119.503906 76.464844 C 119.503906 76.464844 114.054688 84.707031 110.894531 86.699219 C 110.894531 86.699219 104.5 80.820312 102.507812 76.300781 L 105.753906 74.152344 C 105.753906 74.152344 108.601562 75.566406 110.894531 75.441406 C 113.1875 75.320312 116.167969 74.332031 116.167969 74.332031 "/>
<path style=" stroke:none;fill-rule:evenodd;fill:rgb(96.469116%,78.819275%,64.709473%);fill-opacity:1;" d="M 110.160156 75.433594 C 110.160156 75.433594 116.824219 75.804688 120.203125 70.832031 L 123.84375 64.4375 C 123.84375 64.4375 126.761719 62.722656 127.480469 59.953125 C 128.199219 57.1875 128.15625 53.695312 125.285156 56.136719 C 125.285156 56.136719 123.632812 53.226562 121.351562 51.703125 C 119.070312 50.179688 113.242188 48.003906 111.28125 45.628906 C 109.324219 43.253906 107.253906 39.484375 107.253906 39.484375 C 107.253906 39.484375 105.976562 42.679688 103.789062 45.300781 C 101.601562 47.925781 98.386719 52.101562 97.882812 53.457031 C 97.378906 54.8125 97.125 56.28125 97.125 56.28125 C 97.125 56.28125 95.777344 54.710938 94.414062 55.683594 C 93.050781 56.652344 94.117188 61.898438 98.230469 64.398438 C 98.230469 64.398438 99.675781 73.597656 110.160156 75.433594 "/>
<path style=" stroke:none;fill-rule:evenodd;fill:rgb(79.60968%,52.549744%,10.198975%);fill-opacity:1;" d="M 97.175781 56.011719 C 97.175781 56.011719 98.164062 52.660156 99.390625 50.980469 C 100.613281 49.304688 103.5625 45.738281 104.398438 44.527344 C 105.238281 43.3125 107.425781 39.484375 107.425781 39.484375 C 107.425781 39.484375 108.945312 43.941406 111.773438 46.03125 C 114.601562 48.121094 118.96875 50.324219 120.035156 50.933594 C 121.105469 51.542969 124.414062 55.121094 124.414062 55.121094 L 124.863281 56.511719 C 124.863281 56.511719 125.730469 55.183594 126.503906 55.300781 C 127.28125 55.417969 127.621094 55.300781 127.621094 55.300781 L 127.867188 53.0625 C 127.867188 53.0625 128.683594 46.859375 126.566406 43.292969 C 124.453125 39.730469 124.617188 39.957031 123.917969 37.90625 C 123.222656 35.855469 122.046875 29.464844 116.65625 26.023438 C 111.265625 22.582031 107.144531 27.609375 106.152344 29.988281 C 106.152344 29.988281 102.746094 26.363281 98.347656 29.402344 C 93.949219 32.445312 94.226562 41.144531 94.816406 44.15625 C 94.816406 44.15625 93.820312 48.640625 93.851562 50.886719 C 93.886719 53.128906 94.445312 55.773438 94.445312 55.773438 C 94.445312 55.773438 95.125 54.890625 95.839844 55.300781 C 96.550781 55.710938 97.125 56.652344 97.125 56.652344 L 97.175781 56.011719 "/>
<path style=" stroke:none;fill-rule:evenodd;fill:rgb(75.689697%,80.389404%,82.749939%);fill-opacity:1;" d="M 103.914062 92.046875 L 103.34375 92.773438 C 103.34375 92.773438 104.738281 94.8125 105.316406 96.113281 C 105.894531 97.417969 106.472656 100.292969 106.433594 101.769531 C 106.390625 103.246094 105.886719 105.242188 105.886719 105.242188 L 105.761719 105.738281 L 105.367188 106.902344 L 104.097656 106.675781 L 103.984375 107.53125 L 105.886719 107.84375 C 105.886719 107.84375 106.183594 107.292969 106.390625 106.71875 C 106.597656 106.144531 106.980469 105.039062 107.113281 104.09375 C 107.25 103.152344 107.414062 100.957031 107.15625 99.5625 C 106.898438 98.164062 106.453125 96.226562 105.503906 94.496094 C 104.554688 92.765625 103.914062 92.046875 103.914062 92.046875 "/>
<path style=" stroke:none;fill-rule:evenodd;fill:rgb(75.689697%,80.389404%,82.749939%);fill-opacity:1;" d="M 107.785156 105.300781 L 108.425781 105.929688 L 107.082031 107.351562 L 106.152344 106.851562 C 106.152344 106.851562 103.664062 105.121094 102.734375 103.984375 C 101.804688 102.84375 100.402344 100.808594 99.679688 98.625 C 98.957031 96.441406 99.058594 93.636719 99.058594 93.636719 L 99.855469 93.808594 C 99.855469 93.808594 99.953125 96.03125 100.375 97.632812 C 100.792969 99.230469 101.761719 101.574219 102.992188 103.03125 C 104.222656 104.484375 105.800781 105.519531 105.800781 105.519531 L 106.816406 106.257812 L 107.785156 105.300781 "/>
<path style=" stroke:none;fill-rule:evenodd;fill:rgb(29.40979%,34.509277%,38.819885%);fill-opacity:1;" d="M 108.425781 105.929688 L 107.785156 105.300781 C 107.785156 105.300781 107.941406 105.160156 107.972656 104.957031 C 108.003906 104.75 108.011719 104.609375 108.105469 104.484375 C 108.199219 104.363281 108.476562 104.269531 108.753906 104.402344 C 109.035156 104.535156 109.261719 104.628906 109.394531 104.894531 C 109.53125 105.160156 109.707031 105.265625 109.613281 105.375 C 109.519531 105.488281 108.859375 105.738281 108.859375 105.738281 L 108.425781 105.929688 "/>
<path style=" stroke:none;fill-rule:evenodd;fill:rgb(29.40979%,34.509277%,38.819885%);fill-opacity:1;" d="M 104.097656 106.675781 L 103.984375 107.53125 L 103.417969 107.703125 L 102.816406 107.84375 C 102.816406 107.84375 102.652344 108.015625 102.589844 107.570312 C 102.53125 107.128906 102.6875 106.585938 102.816406 106.410156 C 102.941406 106.234375 103.085938 106.125 103.191406 106.15625 C 103.292969 106.183594 103.675781 106.339844 103.675781 106.339844 C 103.675781 106.339844 103.9375 106.648438 104.097656 106.675781 "/>
<path style=" stroke:none;fill-rule:evenodd;fill:rgb(29.40979%,34.509277%,38.819885%);fill-opacity:1;" d="M 103.261719 92.746094 C 103.261719 92.746094 103.59375 92.707031 103.632812 92.53125 C 103.675781 92.351562 103.832031 92.046875 103.832031 92.046875 C 103.832031 92.046875 103.882812 91.902344 103.449219 91.421875 C 103.015625 90.941406 102.230469 90.359375 101.960938 90.277344 C 101.695312 90.191406 100.878906 90.050781 100.878906 90.050781 C 100.878906 90.050781 100.765625 88.484375 100.609375 87.324219 C 100.453125 86.167969 100.566406 82.746094 100.734375 81.464844 C 100.898438 80.183594 101.488281 78.359375 101.488281 78.359375 L 102.507812 76.585938 C 102.507812 76.585938 102.191406 76.460938 102.085938 76.464844 C 101.980469 76.464844 101.363281 76.917969 101.363281 76.917969 C 101.363281 76.917969 100.402344 79.230469 100.125 80.820312 C 99.84375 82.40625 99.648438 86.066406 99.78125 87.777344 C 99.917969 89.488281 100.011719 90.335938 100.011719 90.335938 C 100.011719 90.335938 98.925781 91.585938 98.9375 92.5 C 98.945312 93.410156 98.9375 93.53125 98.9375 93.53125 C 98.9375 93.53125 100.027344 93.988281 100.035156 93.636719 C 100.042969 93.289062 99.957031 92.210938 100.226562 91.78125 C 100.496094 91.351562 100.484375 91.25 100.855469 91.144531 C 101.230469 91.042969 101.921875 91.402344 102.292969 91.75 C 102.664062 92.097656 103.261719 92.746094 103.261719 92.746094 "/>
<path style=" stroke:none;fill-rule:evenodd;fill:rgb(96.469116%,78.819275%,64.709473%);fill-opacity:1;" d="M 139.992188 94.957031 C 139.992188 94.957031 138.183594 99.117188 137.476562 100.121094 C 136.769531 101.125 135.414062 103.183594 135.414062 103.183594 L 139.703125 107.007812 C 139.703125 107.007812 138.089844 110.417969 137.191406 111.707031 C 136.292969 112.996094 133.074219 118.40625 131.460938 118.34375 C 129.851562 118.285156 125.855469 115.890625 125.855469 115.890625 C 125.855469 115.890625 122.96875 115.609375 122.105469 116.285156 C 121.238281 116.960938 117.429688 120.773438 117.429688 120.773438 C 117.429688 120.773438 117.304688 121.601562 117.957031 121.542969 C 118.605469 121.480469 119.226562 121.265625 119.226562 121.265625 L 122.105469 119.050781 L 124.554688 119.023438 L 120.527344 121.726562 L 117.988281 124.121094 C 117.988281 124.121094 118.140625 125.105469 118.636719 125.046875 C 119.132812 124.984375 119.644531 124.859375 119.644531 124.859375 C 119.644531 124.859375 119.699219 125.664062 120.128906 125.695312 C 120.558594 125.722656 120.773438 125.882812 121.148438 125.695312 C 121.519531 125.507812 123.4375 124 123.4375 124 L 125.359375 123.660156 C 125.359375 123.660156 124.183594 124.523438 123.871094 125.074219 C 123.5625 125.628906 122.539062 127.597656 122.539062 127.597656 C 122.539062 127.597656 122.511719 128.394531 123.035156 128.363281 C 123.5625 128.332031 123.6875 128.488281 124.089844 128.117188 C 124.492188 127.75 125.609375 125.695312 125.609375 125.695312 C 125.609375 125.695312 126.5 125.925781 126.859375 126.160156 C 127.21875 126.398438 128.796875 126.996094 130.625 126.375 C 132.453125 125.75 133.785156 123.355469 133.910156 122.648438 C 133.910156 122.648438 144.410156 117.363281 147.878906 113.734375 C 149.011719 112.554688 150.917969 111.449219 150.464844 109.625 C 149.484375 105.671875 141.527344 96.824219 139.992188 94.957031 "/>
<path style=" stroke:none;fill-rule:evenodd;fill:rgb(63.529968%,67.059326%,86.669922%);fill-opacity:1;" d="M 126.503906 136.847656 C 126.503906 136.847656 126.960938 144.796875 125.390625 153.628906 C 125.390625 153.628906 124.214844 157.375 125.082031 160.632812 C 125.949219 163.890625 126.320312 167.230469 125.949219 169.371094 C 125.578125 171.511719 121.976562 180.023438 121.792969 186.464844 L 123.117188 186.140625 C 123.117188 186.140625 123.878906 179.238281 125.464844 175.492188 C 127.050781 171.75 127.761719 168.382812 127.664062 167.304688 C 127.566406 166.226562 126.195312 159.835938 126.257812 157.070312 C 126.320312 154.304688 128.167969 145.0625 128.277344 143.199219 C 128.386719 141.332031 127.992188 136.230469 127.992188 136.230469 L 126.503906 136.847656 "/>
<path style=" stroke:none;fill-rule:evenodd;fill:rgb(63.529968%,67.059326%,86.669922%);fill-opacity:1;" d="M 95.265625 136.847656 C 95.265625 136.847656 94.8125 144.796875 96.378906 153.628906 C 96.378906 153.628906 97.558594 157.375 96.691406 160.632812 C 95.824219 163.890625 95.449219 167.230469 95.824219 169.371094 C 96.195312 171.511719 99.792969 180.023438 99.976562 186.464844 L 98.65625 186.140625 C 98.65625 186.140625 97.890625 179.238281 96.304688 175.492188 C 94.722656 171.75 94.011719 168.382812 94.109375 167.304688 C 94.203125 166.226562 95.574219 159.835938 95.511719 157.070312 C 95.449219 154.304688 93.601562 145.0625 93.492188 143.199219 C 93.382812 141.332031 93.777344 136.230469 93.777344 136.230469 L 95.265625 136.847656 "/>
<path style=" stroke:none;fill-rule:evenodd;fill:rgb(95.289612%,69.40918%,24.708557%);fill-opacity:1;" d="M 95.3125 55.203125 C 95.3125 55.203125 92.371094 36.230469 108.914062 32.292969 C 108.914062 32.292969 100.609375 31.492188 95.3125 42.679688 C 95.3125 42.679688 92.554688 47.660156 94.445312 55.773438 L 95.3125 55.203125 "/>
<path style=" stroke:none;fill-rule:evenodd;fill:rgb(95.289612%,69.40918%,24.708557%);fill-opacity:1;" d="M 107.953125 35.148438 C 107.953125 35.148438 107.289062 41.589844 102.460938 46.929688 C 97.636719 52.269531 97.070312 55.863281 97.070312 55.863281 L 96.878906 55.613281 C 96.878906 55.613281 96.394531 52.71875 99.578125 48.664062 C 102.757812 44.605469 106.167969 41.632812 107.953125 35.148438 "/>
<path style=" stroke:none;fill-rule:evenodd;fill:rgb(95.289612%,69.40918%,24.708557%);fill-opacity:1;" d="M 106.929688 34.277344 C 106.929688 34.277344 97.804688 41.535156 96.394531 51.285156 C 96.394531 51.285156 95.707031 41.933594 106.929688 34.277344 "/>
<path style=" stroke:none;fill-rule:evenodd;fill:rgb(95.289612%,69.40918%,24.708557%);fill-opacity:1;" d="M 95.863281 41.578125 C 95.863281 41.578125 95.398438 38.796875 96.851562 33.910156 C 98.308594 29.023438 102.027344 28.46875 102.027344 28.46875 C 102.027344 28.46875 99.804688 27.632812 97.746094 29.878906 C 95.6875 32.125 94.875 35.804688 94.875 35.804688 L 94.496094 39.484375 L 94.882812 43.660156 L 95.863281 41.578125 "/>
<path style=" stroke:none;fill-rule:evenodd;fill:rgb(95.289612%,69.40918%,24.708557%);fill-opacity:1;" d="M 114.644531 32.667969 C 114.644531 32.667969 129.148438 37.867188 126.308594 55.300781 L 127.621094 55.300781 C 127.621094 55.300781 132.027344 38.265625 114.644531 32.667969 "/>
<path style=" stroke:none;fill-rule:evenodd;fill:rgb(95.289612%,69.40918%,24.708557%);fill-opacity:1;" d="M 108.914062 35.671875 C 108.914062 35.671875 110.480469 42.183594 116.046875 45.628906 C 121.613281 49.074219 124.597656 52.390625 124.597656 52.390625 C 124.597656 52.390625 122.8125 49.652344 117.210938 45.507812 C 111.609375 41.359375 109.472656 37.761719 108.914062 35.671875 "/>
<path style=" stroke:none;fill-rule:evenodd;fill:rgb(95.289612%,69.40918%,24.708557%);fill-opacity:1;" d="M 112.21875 33.949219 C 112.21875 33.949219 123.753906 36.9375 125.378906 51.703125 C 125.378906 51.703125 119.804688 42.863281 113.492188 38.070312 C 113.492188 38.070312 119.78125 41.449219 124.414062 49.011719 C 124.414062 49.011719 120.664062 36.964844 112.21875 33.949219 "/>
<path style=" stroke:none;fill-rule:evenodd;fill:rgb(95.289612%,69.40918%,24.708557%);fill-opacity:1;" d="M 106.0625 32.28125 C 106.0625 32.28125 106.230469 26.820312 112.21875 25.285156 C 112.21875 25.285156 115.578125 25 117.792969 27.460938 C 117.792969 27.460938 108.765625 23.035156 107.238281 32.28125 L 106.0625 32.28125 "/>
<path style=" stroke:none;fill-rule:evenodd;fill:rgb(95.289612%,69.40918%,24.708557%);fill-opacity:1;" d="M 111.511719 29.21875 C 111.511719 29.21875 116.65625 27.007812 121.984375 34.75 C 121.984375 34.75 117.84375 25.5625 111.511719 29.21875 "/>
<path style=" stroke:none;fill-rule:evenodd;fill:rgb(95.289612%,69.40918%,24.708557%);fill-opacity:1;" d="M 102.890625 30.203125 C 102.890625 30.203125 98.472656 30.082031 97.125 37.148438 C 97.125 37.148438 97.300781 29.402344 102.890625 30.203125 "/>
<path style=" stroke:none;fill-rule:evenodd;fill:rgb(84.309387%,58.428955%,47.839355%);fill-opacity:1;" d="M 97.472656 56.851562 C 97.472656 56.851562 99.289062 51.816406 102.507812 49.316406 C 105.730469 46.820312 107.804688 42.84375 108.171875 41.613281 L 107.253906 39.484375 C 107.253906 39.484375 104.429688 45.179688 101.960938 47.679688 C 99.492188 50.179688 97.144531 52.417969 97.472656 56.851562 "/>
<path style=" stroke:none;fill-rule:evenodd;fill:rgb(84.309387%,58.428955%,47.839355%);fill-opacity:1;" d="M 106.394531 43.292969 C 106.394531 43.292969 108.214844 46.28125 111.886719 48.167969 C 115.5625 50.054688 122.488281 52.132812 124.109375 55.042969 C 124.109375 55.042969 122.25 51.863281 117.792969 49.605469 C 113.332031 47.347656 110.289062 45.035156 108.996094 42.78125 C 107.703125 40.527344 107.253906 39.484375 107.253906 39.484375 L 106.394531 43.292969 "/>
<path style=" stroke:none;fill-rule:evenodd;fill:rgb(84.309387%,58.428955%,47.839355%);fill-opacity:1;" d="M 117.761719 75.671875 C 113.71875 78.371094 108.136719 78.371094 104.089844 75.671875 L 105.992188 74.152344 C 110.882812 75.976562 110.96875 75.976562 115.859375 74.152344 L 117.761719 75.671875 "/>
<path style=" stroke:none;fill-rule:evenodd;fill:rgb(21.569824%,28.239441%,57.649231%);fill-opacity:1;" d="M 103.890625 106.601562 C 104.101562 106.734375 104.316406 106.730469 104.558594 106.742188 C 104.824219 106.757812 105.109375 106.769531 105.355469 106.878906 C 105.414062 106.6875 105.492188 106.503906 105.574219 106.324219 C 105.398438 106.246094 105.234375 106.140625 105.089844 106.015625 C 104.730469 106.109375 104.367188 106.214844 104 106.339844 C 103.890625 106.375 103.777344 106.40625 103.660156 106.4375 C 103.746094 106.488281 103.824219 106.558594 103.890625 106.601562 "/>
<path style=" stroke:none;fill-rule:evenodd;fill:rgb(21.569824%,28.239441%,57.649231%);fill-opacity:1;" d="M 109.261719 105.597656 C 108.988281 105.636719 108.679688 105.875 108.425781 105.96875 C 108.15625 106.25 108.007812 106.394531 107.734375 106.667969 C 107.585938 106.816406 107.253906 107.210938 107.054688 107.296875 C 106.789062 107.21875 106.605469 107.082031 106.332031 107.011719 C 106.265625 106.992188 106.121094 107.460938 105.976562 107.625 C 105.523438 108.136719 104.804688 107.632812 104.257812 107.613281 C 104.195312 107.617188 104.136719 107.621094 104.074219 107.625 C 103.636719 107.679688 103.027344 107.929688 102.660156 107.714844 C 102.320312 107.519531 102.503906 106.957031 102.628906 106.617188 C 100.902344 106.777344 98.773438 106.378906 96.921875 105.433594 C 97.9375 108.410156 97.347656 111.589844 96.964844 114.574219 C 96.964844 114.574219 99.964844 109.433594 109.691406 109.433594 L 112.070312 109.433594 C 121.796875 109.433594 124.796875 114.574219 124.796875 114.574219 C 124.28125 110.558594 123.769531 109.652344 125.277344 105.199219 C 122.808594 106.609375 119.730469 107 117.761719 106.339844 C 114.78125 105.332031 112.070312 105.398438 112.070312 105.398438 L 109.691406 105.398438 C 109.667969 105.414062 109.3125 105.589844 109.261719 105.597656 "/>
<path style=" stroke:none;fill-rule:evenodd;fill:rgb(21.569824%,28.239441%,57.649231%);fill-opacity:1;" d="M 107.640625 105.527344 C 107.320312 105.566406 106.976562 105.617188 106.609375 105.679688 C 106.605469 105.699219 106.601562 105.722656 106.59375 105.742188 C 106.550781 105.851562 106.519531 105.96875 106.492188 106.089844 C 106.957031 106.300781 107.304688 105.902344 107.640625 105.527344 "/>
<path style=" stroke:none;fill-rule:evenodd;fill:rgb(21.569824%,28.239441%,57.649231%);fill-opacity:1;" d="M 105.117188 163.125 C 104.371094 163.550781 103.007812 164.144531 102.566406 164.261719 C 101.945312 164.425781 97.980469 162.457031 97.980469 162.457031 C 97.980469 162.457031 100.335938 165.660156 101.410156 165.925781 C 102.15625 166.105469 103.972656 165.746094 105.03125 165.46875 C 104.796875 172.425781 104.792969 179.847656 105.296875 186.503906 C 105.296875 186.503906 108.6875 186.265625 108.808594 184.667969 C 108.925781 183.070312 108.308594 168.972656 108.347656 165.53125 C 108.382812 162.089844 108.640625 151.226562 109.304688 147.636719 C 109.84375 144.738281 110.660156 141.164062 110.914062 139.949219 C 111.398438 142.515625 112.019531 145.058594 112.496094 147.636719 C 113.164062 151.226562 113.421875 162.089844 113.457031 165.53125 C 113.492188 168.972656 112.875 183.070312 112.996094 184.667969 C 113.113281 186.265625 116.507812 186.503906 116.507812 186.503906 C 117.011719 179.847656 117.003906 172.425781 116.773438 165.46875 C 117.828125 165.746094 119.648438 166.105469 120.394531 165.925781 C 121.46875 165.660156 123.820312 162.457031 123.820312 162.457031 C 123.820312 162.457031 119.855469 164.425781 119.238281 164.261719 C 118.796875 164.144531 117.433594 163.550781 116.683594 163.125 C 116.234375 152.101562 115.269531 142.664062 114.980469 140 C 118.777344 139.773438 124.355469 139.03125 128.0625 136.691406 L 128.0625 134.683594 C 128.0625 134.683594 123.902344 136.539062 121.953125 136.878906 C 113.773438 138.292969 108.273438 138.34375 99.808594 136.878906 C 97.859375 136.539062 93.699219 134.683594 93.699219 134.683594 L 93.699219 136.691406 C 97.421875 139.039062 103.023438 139.78125 106.820312 140.003906 C 106.53125 142.671875 105.570312 152.105469 105.117188 163.125 "/>
<path style=" stroke:none;fill-rule:evenodd;fill:rgb(47.44873%,58.428955%,65.098572%);fill-opacity:1;" d="M 114.023438 187.636719 C 114.023438 187.636719 117.859375 190.050781 122.121094 188.082031 C 122.121094 188.082031 121.835938 186.261719 121.792969 186.464844 C 121.753906 186.664062 118.800781 187.28125 118.070312 187.175781 C 117.339844 187.066406 114.222656 186.152344 114.222656 186.152344 L 114.023438 187.636719 "/>
<path style=" stroke:none;fill-rule:evenodd;fill:rgb(47.44873%,58.428955%,65.098572%);fill-opacity:1;" d="M 107.894531 187.636719 C 107.894531 187.636719 104.058594 190.050781 99.796875 188.082031 C 99.796875 188.082031 100.082031 186.261719 100.121094 186.464844 C 100.164062 186.664062 103.113281 187.28125 103.84375 187.175781 C 104.574219 187.066406 107.691406 186.152344 107.691406 186.152344 L 107.894531 187.636719 "/>
<path style=" stroke:none;fill-rule:evenodd;fill:rgb(21.569824%,28.239441%,57.649231%);fill-opacity:1;" d="M 124.523438 89.179688 C 124.523438 89.179688 131.898438 94.347656 137.242188 100.367188 C 137.242188 100.367188 135.261719 103.582031 134.855469 103.886719 C 134.445312 104.1875 133.992188 104.667969 133.992188 104.667969 L 127.25 97.589844 C 127.25 97.589844 124.894531 89.917969 124.523438 89.179688 "/>
<path style=" stroke:none;fill-rule:evenodd;fill:rgb(84.309387%,58.428955%,47.839355%);fill-opacity:1;" d="M 136.667969 103.941406 C 136.667969 103.941406 140.0625 99.925781 141.027344 96.03125 L 139.992188 94.957031 C 139.992188 94.957031 137.910156 99.371094 137.476562 100.121094 C 137.039062 100.867188 135.65625 102.832031 135.65625 102.832031 L 136.667969 103.941406 "/>
<path style=" stroke:none;fill-rule:evenodd;fill:rgb(84.309387%,58.428955%,47.839355%);fill-opacity:1;" d="M 137.242188 102.667969 L 140.714844 105.933594 L 139.703125 107.007812 L 136.199219 103.882812 L 137.242188 102.667969 "/>
<path style=" stroke:none;fill-rule:evenodd;fill:rgb(84.309387%,58.428955%,47.839355%);fill-opacity:1;" d="M 126.878906 125.472656 C 126.878906 125.472656 132.496094 126.765625 132.992188 121.4375 C 132.992188 121.4375 143.449219 115.484375 147.144531 111.941406 C 148.597656 110.550781 149.226562 108.925781 148.640625 106.871094 C 148.640625 106.871094 150.003906 108.128906 150.289062 110.046875 C 150.574219 111.96875 147.949219 113.476562 145.589844 115.402344 C 143.226562 117.328125 138.71875 120.757812 134.351562 122.710938 C 134.351562 122.710938 133.109375 125.328125 130.882812 126.273438 C 128.652344 127.21875 126.757812 126.269531 126.878906 125.472656 "/>
<path style=" stroke:none;fill-rule:evenodd;fill:rgb(84.309387%,58.428955%,47.839355%);fill-opacity:1;" d="M 85.238281 103.941406 C 85.238281 103.941406 81.84375 99.925781 80.878906 96.03125 L 81.914062 94.957031 C 81.914062 94.957031 83.992188 99.371094 84.429688 100.121094 C 84.867188 100.867188 86.25 102.832031 86.25 102.832031 L 85.238281 103.941406 "/>
<path style=" stroke:none;fill-rule:evenodd;fill:rgb(84.309387%,58.428955%,47.839355%);fill-opacity:1;" d="M 84.664062 102.667969 L 81.191406 105.933594 L 82.203125 107.007812 L 85.707031 103.882812 L 84.664062 102.667969 "/>
<path style=" stroke:none;fill-rule:evenodd;fill:rgb(63.529968%,67.059326%,86.669922%);fill-opacity:1;" d="M 118.648438 77.71875 C 118.648438 77.71875 129.355469 82.511719 130.140625 83.617188 C 130.925781 84.722656 133.195312 88.410156 134.558594 90.296875 C 135.921875 92.179688 139.359375 96.050781 139.359375 96.050781 L 139.929688 94.742188 C 139.929688 94.742188 136.960938 91.09375 135.65625 89.179688 C 134.351562 87.265625 131.464844 82.519531 130.882812 82.101562 C 130.300781 81.679688 119.507812 76.148438 119.507812 76.148438 L 118.648438 77.71875 "/>
<path style=" stroke:none;fill-rule:evenodd;fill:rgb(63.529968%,67.059326%,86.669922%);fill-opacity:1;" d="M 124.058594 88.320312 C 124.058594 88.320312 125.855469 96.167969 125.886719 97.589844 C 125.917969 99.015625 124.277344 104.886719 123.84375 105.332031 C 123.410156 105.773438 122.585938 106.289062 122.585938 106.289062 C 122.585938 106.289062 124.300781 105.707031 124.667969 105.519531 C 125.035156 105.332031 127.15625 99.015625 127.1875 97.878906 C 127.21875 96.738281 125.175781 90.101562 124.058594 88.320312 "/>
<path style=" stroke:none;fill-rule:evenodd;fill:rgb(21.569824%,28.239441%,57.649231%);fill-opacity:1;" d="M 97.34375 89.179688 C 97.34375 89.179688 89.972656 94.347656 84.628906 100.367188 C 84.628906 100.367188 86.605469 103.582031 87.015625 103.886719 C 87.421875 104.1875 87.875 104.667969 87.875 104.667969 L 94.617188 97.589844 C 94.617188 97.589844 96.972656 89.917969 97.34375 89.179688 "/>
<path style=" stroke:none;fill-rule:evenodd;fill:rgb(63.529968%,67.059326%,86.669922%);fill-opacity:1;" d="M 97.808594 88.320312 C 97.808594 88.320312 96.011719 96.167969 95.980469 97.589844 C 95.949219 99.015625 97.59375 104.886719 98.027344 105.332031 C 98.460938 105.773438 99.28125 106.289062 99.28125 106.289062 C 99.28125 106.289062 97.566406 105.707031 97.199219 105.519531 C 96.832031 105.332031 94.714844 99.015625 94.683594 97.878906 C 94.648438 96.738281 96.695312 90.101562 97.808594 88.320312 "/>
<path style=" stroke:none;fill-rule:evenodd;fill:rgb(5.099487%,5.099487%,5.099487%);fill-opacity:1;" d="M 116.300781 74.042969 C 116.308594 74.101562 116.316406 74.160156 116.316406 74.222656 C 116.320312 74.25 116.324219 74.28125 116.320312 74.3125 C 116.3125 74.539062 116.261719 74.761719 116.167969 74.964844 C 116.40625 75.101562 116.726562 75.277344 117.15625 75.511719 C 117.757812 75.839844 118.996094 76.507812 120.660156 77.359375 C 120.835938 77.101562 121.074219 76.882812 121.351562 76.746094 C 118.882812 75.488281 116.851562 74.375 116.300781 74.042969 "/>
<path style=" stroke:none;fill-rule:evenodd;fill:rgb(5.099487%,5.099487%,5.099487%);fill-opacity:1;" d="M 127.867188 166.804688 C 127.878906 168.054688 127.800781 169.15625 127.617188 169.859375 C 127.503906 170.304688 127.21875 171.210938 126.859375 172.359375 C 125.625 176.300781 123.324219 183.636719 123.570312 186.097656 L 123.605469 186.425781 L 123.296875 186.542969 C 123.253906 186.558594 122.847656 186.71875 122.234375 186.910156 C 121.984375 186.988281 121.699219 187.070312 121.390625 187.152344 C 120.441406 187.402344 119.261719 187.636719 118.183594 187.636719 C 116.949219 187.636719 115.511719 187.136719 114.410156 186.648438 C 114.113281 186.519531 113.835938 186.386719 113.601562 186.269531 C 113.066406 186.003906 112.714844 185.800781 112.675781 185.773438 L 112.449219 185.640625 L 112.464844 185.382812 C 112.484375 185.058594 114.164062 155.503906 110.898438 141.359375 C 110.757812 140.746094 110.609375 140.164062 110.449219 139.613281 C 110.574219 139.160156 110.710938 138.730469 110.851562 138.320312 L 110.191406 138.320312 C 110.136719 138.320312 110.085938 138.320312 110.03125 138.320312 C 109.996094 138.226562 109.964844 138.132812 109.929688 138.042969 L 110.191406 137.945312 L 110.742188 137.742188 C 110.796875 137.882812 110.847656 138.027344 110.898438 138.179688 C 110.917969 138.226562 110.933594 138.273438 110.949219 138.320312 C 111.089844 138.730469 111.222656 139.160156 111.351562 139.613281 C 112.894531 145.070312 113.710938 154.015625 113.785156 166.261719 C 113.839844 175.503906 113.429688 183.609375 113.34375 185.160156 C 114.078125 185.5625 116.4375 186.777344 118.183594 186.777344 C 119.886719 186.777344 121.9375 186.113281 122.6875 185.851562 C 122.617188 182.980469 124.742188 176.210938 126.03125 172.101562 C 126.386719 170.964844 126.667969 170.070312 126.777344 169.644531 C 127.253906 167.789062 126.941406 162.671875 126.195312 160.207031 C 125.425781 157.664062 126.15625 154.539062 126.1875 154.410156 C 128.007812 146.578125 127.753906 138.851562 127.503906 135.421875 C 127.496094 135.316406 127.488281 135.21875 127.480469 135.121094 C 127.621094 135.078125 127.753906 135.023438 127.882812 134.949219 C 128.046875 134.882812 128.1875 134.789062 128.316406 134.683594 C 128.324219 134.777344 128.332031 134.878906 128.339844 134.980469 C 128.597656 138.25 128.945312 146.371094 127.03125 154.605469 C 127.023438 154.636719 126.324219 157.640625 127.023438 159.957031 C 127.476562 161.457031 127.773438 163.824219 127.851562 165.949219 C 127.863281 166.238281 127.867188 166.523438 127.867188 166.804688 "/>
<g clip-path="url(#clip1)" clip-rule="nonzero">
<path style=" stroke:none;fill-rule:evenodd;fill:rgb(5.099487%,5.099487%,5.099487%);fill-opacity:1;" d="M 125.222656 193.203125 C 123.171875 190.53125 122.398438 187.808594 122.117188 186.363281 C 121.910156 186.457031 121.683594 186.5 121.445312 186.484375 C 121.371094 186.480469 121.324219 186.476562 121.296875 186.46875 C 121.265625 186.476562 121.257812 186.476562 121.25 186.480469 C 121.535156 188.003906 122.335938 190.863281 124.535156 193.722656 C 126.089844 195.75 127.699219 198.027344 127.035156 199.390625 C 126.476562 200.539062 124.320312 201.160156 120.621094 201.234375 C 117.398438 201.300781 115.402344 200.757812 114.332031 199.519531 C 112.5 197.402344 113.257812 193.15625 114.398438 186.730469 C 114.4375 186.496094 114.480469 186.261719 114.523438 186.027344 C 114.40625 186.011719 114.292969 185.992188 114.175781 185.972656 C 113.996094 185.945312 113.832031 185.875 113.6875 185.78125 C 113.636719 186.050781 113.589844 186.316406 113.542969 186.578125 C 112.359375 193.246094 111.578125 197.652344 113.675781 200.082031 C 114.859375 201.453125 116.914062 202.101562 120.117188 202.101562 C 120.289062 202.101562 120.460938 202.097656 120.636719 202.097656 C 124.804688 202.011719 127.085938 201.269531 127.816406 199.765625 C 128.691406 197.960938 127.089844 195.632812 125.222656 193.203125 "/>
</g>
<path style=" stroke:none;fill-rule:evenodd;fill:rgb(5.099487%,5.099487%,5.099487%);fill-opacity:1;" d="M 121.15625 200.28125 C 115.394531 200.28125 113.0625 199.257812 112.558594 196.511719 L 113.042969 196.425781 C 113.425781 198.503906 114.917969 199.789062 121.15625 199.789062 C 126.792969 199.789062 127.222656 197.714844 127.226562 197.691406 L 127.714844 197.757812 C 127.703125 197.859375 127.3125 200.28125 121.15625 200.28125 "/>
<path style=" stroke:none;fill-rule:evenodd;fill:rgb(5.099487%,5.099487%,5.099487%);fill-opacity:1;" d="M 119.921875 76.296875 C 119.828125 76.445312 119.722656 76.621094 119.601562 76.8125 C 118.234375 78.976562 115.148438 83.5625 111.546875 86.898438 C 111.335938 87.101562 111.117188 87.292969 110.898438 87.484375 C 110.679688 87.292969 110.464844 87.101562 110.25 86.898438 C 106.652344 83.5625 103.566406 78.980469 102.199219 76.8125 C 102.074219 76.621094 101.96875 76.445312 101.875 76.296875 C 102.164062 76.234375 102.433594 76.097656 102.652344 75.898438 C 102.746094 76.050781 102.851562 76.21875 102.972656 76.40625 C 104.34375 78.566406 107.414062 83.089844 110.898438 86.320312 C 114.382812 83.089844 117.453125 78.566406 118.828125 76.40625 C 118.949219 76.21875 119.054688 76.050781 119.148438 75.898438 C 119.367188 76.097656 119.636719 76.234375 119.921875 76.296875 "/>
<path style=" stroke:none;fill-rule:evenodd;fill:rgb(5.099487%,5.099487%,5.099487%);fill-opacity:1;" d="M 115.886719 74.457031 L 115.519531 78.453125 C 115.519531 78.453125 116.449219 76.148438 116.574219 74.152344 L 115.886719 74.457031 "/>
<path style=" stroke:none;fill-rule:evenodd;fill:rgb(5.099487%,5.099487%,5.099487%);fill-opacity:1;" d="M 105.617188 74.300781 L 105.480469 74.3125 C 105.464844 74.160156 105.535156 74.046875 105.59375 73.988281 C 105.238281 74.21875 103.09375 75.398438 100.449219 76.746094 C 100.726562 76.882812 100.960938 77.101562 101.136719 77.359375 C 102.800781 76.507812 104.042969 75.839844 104.640625 75.511719 C 105.195312 75.210938 105.5625 75.007812 105.8125 74.859375 C 105.714844 74.6875 105.648438 74.5 105.617188 74.300781 "/>
<path style=" stroke:none;fill-rule:evenodd;fill:rgb(5.099487%,5.099487%,5.099487%);fill-opacity:1;" d="M 110.949219 138.320312 C 111.089844 138.730469 111.222656 139.160156 111.351562 139.613281 C 111.191406 140.164062 111.039062 140.746094 110.898438 141.359375 C 107.636719 155.503906 109.316406 185.058594 109.335938 185.382812 L 109.351562 185.640625 L 109.125 185.773438 C 109.082031 185.800781 108.730469 186.003906 108.199219 186.269531 C 107.960938 186.386719 107.6875 186.519531 107.386719 186.648438 C 106.289062 187.136719 104.847656 187.636719 103.617188 187.636719 C 102.535156 187.636719 101.359375 187.402344 100.40625 187.152344 C 100.101562 187.070312 99.816406 186.988281 99.566406 186.910156 C 98.953125 186.71875 98.542969 186.5625 98.5 186.542969 L 98.195312 186.425781 L 98.226562 186.097656 C 98.476562 183.636719 96.175781 176.300781 94.941406 172.359375 C 94.578125 171.210938 94.296875 170.304688 94.179688 169.859375 C 94 169.15625 93.921875 168.054688 93.929688 166.804688 C 93.933594 166.523438 93.9375 166.238281 93.949219 165.949219 C 94.023438 163.824219 94.320312 161.457031 94.773438 159.957031 C 95.476562 157.640625 94.773438 154.636719 94.769531 154.605469 C 92.851562 146.371094 93.199219 138.25 93.460938 134.980469 C 93.464844 134.878906 93.476562 134.777344 93.484375 134.683594 C 93.613281 134.789062 93.753906 134.882812 93.914062 134.949219 C 94.042969 135.023438 94.179688 135.078125 94.316406 135.121094 C 94.3125 135.21875 94.300781 135.316406 94.296875 135.421875 C 94.046875 138.851562 93.792969 146.578125 95.613281 154.410156 C 95.644531 154.539062 96.375 157.664062 95.605469 160.207031 C 94.859375 162.671875 94.542969 167.789062 95.019531 169.644531 C 95.128906 170.070312 95.410156 170.964844 95.765625 172.101562 C 97.054688 176.210938 99.179688 182.980469 99.109375 185.851562 C 99.859375 186.113281 101.910156 186.777344 103.617188 186.777344 C 105.363281 186.777344 107.722656 185.5625 108.453125 185.160156 C 108.371094 183.609375 107.960938 175.503906 108.015625 166.261719 C 108.085938 154.015625 108.90625 145.070312 110.449219 139.613281 C 110.574219 139.160156 110.710938 138.730469 110.851562 138.320312 C 110.867188 138.273438 110.882812 138.226562 110.898438 138.179688 C 110.921875 138.242188 110.929688 138.242188 110.949219 138.320312 "/>
<g clip-path="url(#clip2)" clip-rule="nonzero">
<path style=" stroke:none;fill-rule:evenodd;fill:rgb(5.099487%,5.099487%,5.099487%);fill-opacity:1;" d="M 96.574219 193.203125 C 98.628906 190.53125 99.398438 187.808594 99.683594 186.363281 C 99.890625 186.457031 100.117188 186.5 100.351562 186.484375 C 100.429688 186.480469 100.476562 186.476562 100.503906 186.46875 C 100.53125 186.476562 100.539062 186.476562 100.550781 186.480469 C 100.261719 188.003906 99.460938 190.863281 97.265625 193.722656 C 95.707031 195.75 94.101562 198.027344 94.761719 199.390625 C 95.320312 200.539062 97.480469 201.160156 101.179688 201.234375 C 104.402344 201.300781 106.398438 200.757812 107.464844 199.519531 C 109.296875 197.402344 108.542969 193.15625 107.402344 186.730469 C 107.359375 186.496094 107.320312 186.261719 107.277344 186.027344 C 107.390625 186.011719 107.507812 185.992188 107.621094 185.972656 C 107.804688 185.945312 107.96875 185.875 108.113281 185.78125 C 108.160156 186.050781 108.207031 186.316406 108.253906 186.578125 C 109.441406 193.246094 110.222656 197.652344 108.125 200.082031 C 106.9375 201.453125 104.882812 202.101562 101.679688 202.101562 C 101.511719 202.101562 101.335938 202.097656 101.160156 202.097656 C 96.992188 202.011719 94.714844 201.269531 93.980469 199.765625 C 93.105469 197.960938 94.707031 195.632812 96.574219 193.203125 "/>
</g>
<path style=" stroke:none;fill-rule:evenodd;fill:rgb(84.309387%,58.428955%,47.839355%);fill-opacity:1;" d="M 110.175781 63.3125 L 110.289062 63.375 C 110.289062 63.375 110.558594 63.675781 110.9375 63.710938 C 111.320312 63.75 111.671875 63.503906 111.769531 63.375 L 111.882812 63.3125 C 112.035156 63.242188 112.480469 63.007812 112.472656 63.3125 C 112.277344 63.480469 111.960938 63.683594 111.742188 63.875 C 111.519531 64.066406 111.265625 64.265625 111.003906 64.269531 C 110.761719 64.273438 110.558594 64.050781 110.304688 63.890625 C 110.003906 63.710938 109.628906 63.375 109.585938 63.3125 C 109.371094 63 110.15625 63.300781 110.175781 63.3125 "/>
<path style=" stroke:none;fill-rule:evenodd;fill:rgb(5.099487%,5.099487%,5.099487%);fill-opacity:1;" d="M 112.421875 63.023438 C 112.597656 63 112.550781 63.222656 112.472656 63.3125 C 112.472656 63.3125 112.3125 63.222656 111.882812 63.3125 C 111.882812 63.3125 112.246094 63.050781 112.421875 63.023438 "/>
<path style=" stroke:none;fill-rule:evenodd;fill:rgb(5.099487%,5.099487%,5.099487%);fill-opacity:1;" d="M 110.289062 63.375 C 110.703125 63.707031 111.359375 63.707031 111.769531 63.375 C 111.492188 64.09375 110.570312 64.09375 110.289062 63.375 "/>
<path style=" stroke:none;fill-rule:evenodd;fill:rgb(5.099487%,5.099487%,5.099487%);fill-opacity:1;" d="M 109.585938 63.3125 C 109.511719 63.222656 109.460938 63 109.636719 63.023438 C 109.8125 63.050781 110.175781 63.3125 110.175781 63.3125 C 109.75 63.222656 109.585938 63.3125 109.585938 63.3125 "/>
<path style=" stroke:none;fill-rule:evenodd;fill:rgb(5.099487%,5.099487%,5.099487%);fill-opacity:1;" d="M 100.640625 200.28125 C 106.40625 200.28125 108.738281 199.257812 109.242188 196.511719 L 108.753906 196.425781 C 108.371094 198.503906 106.882812 199.789062 100.640625 199.789062 C 95.007812 199.789062 94.574219 197.714844 94.574219 197.691406 L 94.082031 197.757812 C 94.09375 197.859375 94.484375 200.28125 100.640625 200.28125 "/>
<path style=" stroke:none;fill-rule:evenodd;fill:rgb(5.099487%,5.099487%,5.099487%);fill-opacity:1;" d="M 105.910156 74.457031 L 106.28125 78.453125 C 106.28125 78.453125 105.351562 76.148438 105.226562 74.152344 L 105.910156 74.457031 "/>
<path style=" stroke:none;fill-rule:evenodd;fill:rgb(5.099487%,5.099487%,5.099487%);fill-opacity:1;" d="M 124.414062 63.351562 C 124.402344 63.398438 124.390625 63.441406 124.378906 63.484375 C 124.261719 63.894531 124.140625 64.296875 124.007812 64.691406 C 123.070312 67.503906 121.707031 69.84375 119.925781 71.699219 C 115.984375 75.804688 111.476562 75.929688 111.289062 75.933594 L 110.78125 75.933594 C 110.585938 75.929688 106.078125 75.804688 102.136719 71.699219 C 100.367188 69.859375 99.011719 67.535156 98.074219 64.746094 C 98.027344 64.605469 97.980469 64.464844 97.9375 64.320312 C 97.84375 64.023438 97.753906 63.722656 97.667969 63.414062 C 98.011719 63.679688 98.386719 63.933594 98.796875 64.175781 L 98.816406 64.234375 C 98.847656 64.332031 98.882812 64.433594 98.914062 64.53125 C 99.082031 65.027344 99.265625 65.507812 99.460938 65.96875 C 100.308594 67.980469 101.410156 69.695312 102.765625 71.105469 C 106.460938 74.953125 110.746094 75.070312 110.789062 75.070312 L 111.28125 75.070312 C 111.316406 75.070312 115.628906 74.941406 119.3125 71.089844 C 120.8125 69.523438 122 67.589844 122.875 65.296875 C 122.960938 65.070312 123.042969 64.839844 123.125 64.605469 C 123.179688 64.449219 123.230469 64.289062 123.28125 64.128906 C 123.691406 63.882812 124.070312 63.621094 124.414062 63.351562 "/>
<path style=" stroke:none;fill-rule:evenodd;fill:rgb(5.099487%,5.099487%,5.099487%);fill-opacity:1;" d="M 106.265625 53.0625 C 105.910156 53.03125 105.042969 50.832031 103.554688 50.800781 C 102.066406 50.773438 101.183594 52.90625 101.183594 52.90625 C 101.742188 50.480469 103.679688 49.773438 104.964844 50.800781 C 106.25 51.832031 106.621094 53.09375 106.265625 53.0625 "/>
<path style=" stroke:none;fill-rule:evenodd;fill:rgb(5.099487%,5.099487%,5.099487%);fill-opacity:1;" d="M 120.878906 52.90625 C 120.878906 52.90625 119.996094 50.773438 118.511719 50.800781 C 117.023438 50.832031 116.15625 53.03125 115.800781 53.0625 C 115.445312 53.09375 115.816406 51.832031 117.101562 50.800781 C 117.46875 50.503906 117.894531 50.355469 118.324219 50.34375 C 119.097656 50.335938 119.871094 50.773438 120.390625 51.652344 C 120.601562 52 120.769531 52.421875 120.878906 52.90625 "/>
<path style=" stroke:none;fill-rule:evenodd;fill:rgb(5.099487%,5.099487%,5.099487%);fill-opacity:1;" d="M 110.832031 31.308594 C 101.164062 31.308594 93.300781 40.140625 93.300781 50.996094 C 93.300781 52.730469 93.5 54.410156 93.875 56.011719 C 94.046875 55.710938 94.296875 55.460938 94.605469 55.289062 C 94.320312 53.910156 94.167969 52.476562 94.167969 50.996094 C 94.167969 40.617188 101.644531 32.167969 110.832031 32.167969 C 120.023438 32.167969 127.5 40.617188 127.5 50.996094 C 127.5 52.523438 127.335938 54.007812 127.03125 55.433594 C 127.3125 55.546875 127.582031 55.746094 127.792969 55.992188 C 128.167969 54.394531 128.367188 52.722656 128.367188 50.996094 C 128.367188 40.140625 120.5 31.308594 110.832031 31.308594 "/>
<path style=" stroke:none;fill-rule:evenodd;fill:rgb(5.099487%,5.099487%,5.099487%);fill-opacity:1;" d="M 125.453125 56.605469 C 125.152344 57.035156 124.855469 57.699219 124.855469 57.699219 C 124.855469 57.699219 124.507812 56.527344 124.464844 56.417969 C 123.773438 54.632812 122.5 53.140625 120.390625 51.652344 C 119.773438 51.21875 119.105469 50.785156 118.339844 50.34375 C 117.472656 49.855469 116.527344 49.359375 115.480469 48.84375 C 110.246094 46.277344 108.058594 42.257812 107.269531 40.328125 C 106.542969 41.941406 104.921875 45.109375 102.34375 47.847656 C 100.445312 49.871094 98.429688 52.476562 97.699219 55.972656 C 97.636719 56.273438 97.550781 56.550781 97.472656 56.851562 C 97.398438 57.140625 97.320312 57.453125 97.292969 57.621094 L 97.117188 57.382812 L 96.671875 56.792969 C 96.789062 55.804688 97.070312 54.734375 97.410156 53.808594 C 98.398438 51.101562 100.09375 48.980469 101.710938 47.261719 C 105.152344 43.597656 106.882812 39.011719 106.898438 38.964844 L 107.386719 37.660156 L 107.726562 39.011719 C 107.742188 39.070312 109.289062 44.847656 115.863281 48.070312 C 119.621094 49.914062 121.875 51.425781 123.40625 53.117188 C 123.871094 53.628906 124.265625 54.160156 124.597656 54.714844 C 124.953125 55.3125 125.234375 55.941406 125.453125 56.605469 "/>
<path style=" stroke:none;fill-rule:evenodd;fill:rgb(5.099487%,5.099487%,5.099487%);fill-opacity:1;" d="M 124.007812 64.691406 C 123.808594 64.820312 123.601562 64.941406 123.386719 65.0625 L 123.125 64.605469 C 123.179688 64.449219 123.230469 64.289062 123.28125 64.128906 C 123.691406 63.882812 124.070312 63.621094 124.414062 63.351562 C 127.171875 61.183594 127.855469 58.363281 127.578125 56.800781 C 127.46875 56.195312 127.207031 55.773438 126.910156 55.722656 C 126.335938 55.628906 125.90625 55.976562 125.605469 56.40625 C 125.550781 56.46875 125.503906 56.53125 125.453125 56.605469 C 125.152344 57.035156 124.855469 57.699219 124.855469 57.699219 C 124.84375 57.660156 124.839844 57.636719 124.832031 57.613281 C 124.78125 57.425781 124.671875 57.058594 124.597656 56.8125 C 124.558594 56.695312 124.53125 56.601562 124.523438 56.570312 C 124.554688 56.492188 124.585938 56.421875 124.625 56.351562 C 124.75 56.117188 124.902344 55.875 125.085938 55.65625 C 125.535156 55.128906 126.171875 54.730469 127.050781 54.875 C 127.75 54.988281 128.25 55.636719 128.433594 56.648438 C 128.777344 58.597656 127.851562 62.246094 124.007812 64.691406 "/>
<path style=" stroke:none;fill-rule:evenodd;fill:rgb(5.099487%,5.099487%,5.099487%);fill-opacity:1;" d="M 98.914062 64.53125 L 98.613281 65.0625 C 98.429688 64.960938 98.25 64.855469 98.074219 64.746094 C 94.160156 62.300781 93.214844 58.613281 93.566406 56.648438 C 93.746094 55.636719 94.25 54.988281 94.945312 54.875 C 95.804688 54.734375 96.433594 55.109375 96.878906 55.621094 C 97.117188 55.894531 97.308594 56.207031 97.449219 56.5 L 97.117188 57.382812 L 96.671875 56.792969 L 96.480469 56.539062 C 96.175781 56.050781 95.722656 55.621094 95.085938 55.722656 C 94.789062 55.773438 94.527344 56.195312 94.417969 56.800781 C 94.140625 58.378906 94.839844 61.242188 97.667969 63.414062 C 98.011719 63.679688 98.386719 63.933594 98.796875 64.175781 L 98.816406 64.234375 C 98.847656 64.332031 98.882812 64.433594 98.914062 64.53125 "/>
<path style=" stroke:none;fill-rule:evenodd;fill:rgb(84.309387%,58.428955%,47.839355%);fill-opacity:1;" d="M 123.917969 62.101562 C 123.917969 62.101562 125.363281 60.902344 125.191406 60.128906 C 125.015625 59.355469 125.613281 57.566406 126.835938 56.652344 C 126.835938 56.652344 125.816406 58.242188 125.632812 59.492188 C 125.632812 59.492188 126.367188 60.671875 123.917969 62.101562 "/>
<path style=" stroke:none;fill-rule:evenodd;fill:rgb(84.309387%,58.428955%,47.839355%);fill-opacity:1;" d="M 126.15625 57.699219 C 126.15625 57.699219 126.605469 57.277344 126.960938 57.679688 C 127.316406 58.078125 126.371094 60.566406 125.023438 61.210938 C 125.023438 61.210938 125.492188 60.414062 125.453125 59.769531 C 125.410156 59.121094 126.15625 57.699219 126.15625 57.699219 "/>
<path style=" stroke:none;fill-rule:evenodd;fill:rgb(84.309387%,58.428955%,47.839355%);fill-opacity:1;" d="M 98.230469 62.101562 C 98.230469 62.101562 96.785156 60.902344 96.960938 60.128906 C 97.132812 59.355469 96.535156 57.566406 95.3125 56.652344 C 95.3125 56.652344 96.332031 58.242188 96.515625 59.492188 C 96.515625 59.492188 95.78125 60.671875 98.230469 62.101562 "/>
<path style=" stroke:none;fill-rule:evenodd;fill:rgb(84.309387%,58.428955%,47.839355%);fill-opacity:1;" d="M 95.992188 57.699219 C 95.992188 57.699219 95.542969 57.277344 95.1875 57.679688 C 94.832031 58.078125 95.777344 60.566406 97.125 61.210938 C 97.125 61.210938 96.65625 60.414062 96.695312 59.769531 C 96.738281 59.121094 95.992188 57.699219 95.992188 57.699219 "/>
<path style=" stroke:none;fill-rule:evenodd;fill:rgb(5.099487%,5.099487%,5.099487%);fill-opacity:1;" d="M 124.222656 39.367188 C 124.441406 39.710938 124.652344 40.058594 124.863281 40.414062 C 124.421875 35.96875 122.480469 31.265625 119.597656 28.039062 C 117.625 25.835938 115.523438 24.671875 113.515625 24.671875 C 110.414062 24.671875 108.445312 26.117188 107.339844 27.332031 C 106.65625 28.085938 106.214844 28.835938 105.957031 29.347656 C 105.332031 28.726562 104.125 27.769531 102.464844 27.625 C 100.765625 27.476562 99.050781 28.21875 97.367188 29.832031 C 93.089844 33.921875 94.058594 42.710938 94.519531 45.628906 C 94.675781 45.066406 94.945312 44.5 95.183594 43.972656 C 94.789062 40.363281 94.601562 33.675781 97.96875 30.449219 C 99.460938 29.023438 100.945312 28.359375 102.382812 28.480469 C 104.421875 28.65625 105.71875 30.378906 105.730469 30.394531 L 106.222656 31.066406 L 106.492188 30.28125 C 106.507812 30.230469 108.1875 25.53125 113.515625 25.53125 C 115.246094 25.53125 117.171875 26.625 118.949219 28.609375 C 121.371094 31.324219 123.101562 35.121094 123.777344 38.882812 C 123.941406 39.003906 124.09375 39.164062 124.222656 39.367188 "/>
<path style=" stroke:none;fill-rule:evenodd;fill:rgb(5.099487%,5.099487%,5.099487%);fill-opacity:1;" d="M 99.808594 94.019531 C 99.421875 94.019531 98.988281 93.769531 98.882812 93.707031 L 98.8125 93.664062 L 98.796875 93.582031 C 98.78125 93.503906 98.472656 91.742188 99.808594 90.320312 C 99.746094 89.847656 99.476562 87.578125 99.542969 84.910156 C 99.648438 80.882812 100.4375 77.914062 101.898438 76.09375 L 102.195312 76.324219 C 98.832031 80.53125 100.183594 90.261719 100.195312 90.359375 L 100.210938 90.449219 L 100.144531 90.515625 C 99.035156 91.640625 99.117188 93.074219 99.15625 93.429688 C 99.363281 93.542969 99.65625 93.652344 99.839844 93.644531 C 99.800781 93.105469 99.757812 91.488281 100.585938 91.0625 C 101.566406 90.558594 102.902344 92.054688 103.316406 92.558594 C 103.449219 92.429688 103.613281 92.238281 103.683594 92.046875 C 103.449219 91.707031 102.328125 90.214844 100.871094 90.292969 L 100.699219 90.300781 L 100.671875 90.132812 C 100.617188 89.753906 99.339844 80.871094 102.21875 76.757812 L 102.53125 76.972656 C 99.945312 80.667969 100.863281 88.667969 101.027344 89.914062 C 102.789062 89.945312 103.996094 91.832031 104.050781 91.914062 L 104.089844 91.976562 L 104.074219 92.050781 C 103.964844 92.554688 103.425781 92.960938 103.402344 92.976562 L 103.25 93.089844 L 103.136719 92.9375 C 102.652344 92.285156 101.433594 91.050781 100.757812 91.398438 C 100.152344 91.707031 100.171875 93.207031 100.230469 93.757812 L 100.242188 93.878906 L 100.136719 93.941406 C 100.039062 93.996094 99.925781 94.019531 99.808594 94.019531 "/>
<path style=" stroke:none;fill-rule:evenodd;fill:rgb(5.099487%,5.099487%,5.099487%);fill-opacity:1;" d="M 106.527344 96.488281 C 105.511719 93.707031 104.035156 92 103.972656 91.929688 L 103.878906 91.824219 L 103.75 91.933594 C 103.769531 92.023438 103.796875 92.121094 103.789062 92.210938 C 103.785156 92.234375 103.785156 92.257812 103.78125 92.28125 L 103.847656 92.222656 C 104.191406 92.640625 105.394531 94.207031 106.261719 96.585938 C 107.183594 99.113281 107.871094 103.054688 105.902344 107.492188 L 105.8125 107.703125 L 104.113281 107.457031 L 104.199219 106.863281 L 105.441406 107.039062 L 105.480469 106.9375 C 106.863281 103.632812 106.9375 100.230469 105.703125 96.824219 C 104.894531 94.597656 103.746094 93.066406 103.402344 92.632812 C 103.394531 92.636719 103.386719 92.636719 103.375 92.636719 C 103.28125 92.648438 103.167969 92.589844 103.105469 92.527344 C 103.097656 92.519531 103.09375 92.511719 103.089844 92.507812 L 102.992188 92.589844 L 103.085938 92.695312 C 103.101562 92.710938 104.5 94.339844 105.433594 96.917969 C 106.632812 100.222656 106.574219 103.523438 105.261719 106.730469 L 103.960938 106.542969 L 103.792969 107.695312 L 105.984375 108.011719 L 106.164062 107.605469 C 108.167969 103.085938 107.46875 99.066406 106.527344 96.488281 "/>
<path style=" stroke:none;fill-rule:evenodd;fill:rgb(5.099487%,5.099487%,5.099487%);fill-opacity:1;" d="M 102.773438 108 C 102.667969 108 102.574219 107.949219 102.507812 107.859375 C 102.3125 107.585938 102.382812 106.945312 102.558594 106.503906 C 102.675781 106.210938 102.914062 106.027344 103.195312 106.015625 C 103.425781 106.007812 103.632812 106.109375 103.714844 106.277344 C 103.769531 106.378906 104.21875 106.546875 104.59375 106.632812 L 104.527344 106.910156 C 104.3125 106.859375 103.601562 106.675781 103.460938 106.402344 C 103.433594 106.347656 103.332031 106.292969 103.207031 106.296875 C 103.105469 106.300781 102.925781 106.347656 102.824219 106.605469 C 102.648438 107.042969 102.636719 107.550781 102.738281 107.695312 C 102.757812 107.71875 102.769531 107.71875 102.777344 107.714844 C 102.882812 107.710938 103.015625 107.667969 103.171875 107.621094 C 103.460938 107.527344 103.816406 107.417969 104.210938 107.472656 L 104.730469 107.546875 L 104.691406 107.824219 L 104.171875 107.75 C 103.84375 107.703125 103.53125 107.800781 103.257812 107.886719 C 103.082031 107.941406 102.933594 107.992188 102.792969 108 C 102.785156 108 102.78125 108 102.773438 108 "/>
<path style=" stroke:none;fill-rule:evenodd;fill:rgb(5.099487%,5.099487%,5.099487%);fill-opacity:1;" d="M 105.71875 105.671875 C 105.722656 105.667969 105.722656 105.660156 105.726562 105.652344 C 105.757812 105.554688 105.816406 105.488281 105.886719 105.445312 C 103.414062 103.714844 101.683594 101.339844 100.742188 98.371094 C 99.914062 95.753906 100.035156 93.617188 100.035156 93.597656 L 100.042969 93.457031 L 99.917969 93.449219 C 99.917969 93.457031 99.917969 93.464844 99.917969 93.472656 C 99.90625 93.5625 99.851562 93.679688 99.769531 93.726562 C 99.761719 93.730469 99.753906 93.734375 99.746094 93.738281 C 99.734375 94.289062 99.753906 96.195312 100.472656 98.453125 C 101.433594 101.484375 103.195312 103.90625 105.71875 105.671875 "/>
<path style=" stroke:none;fill-rule:evenodd;fill:rgb(5.099487%,5.099487%,5.099487%);fill-opacity:1;" d="M 107.789062 105.144531 L 106.867188 106.074219 C 106.765625 106.015625 106.664062 105.953125 106.566406 105.894531 C 106.566406 105.902344 106.566406 105.914062 106.5625 105.925781 C 106.546875 106.011719 106.53125 106.101562 106.511719 106.191406 C 106.613281 106.253906 106.714844 106.316406 106.816406 106.375 L 106.914062 106.429688 L 107.789062 105.542969 L 108.222656 105.964844 L 107.023438 107.179688 L 106.820312 107.070312 C 106.671875 106.988281 106.527344 106.902344 106.382812 106.816406 C 106.378906 106.832031 106.378906 106.847656 106.375 106.863281 L 106.300781 107.074219 C 106.421875 107.167969 106.550781 107.242188 106.679688 107.316406 L 107.074219 107.53125 L 108.625 105.964844 L 107.789062 105.144531 "/>
<path style=" stroke:none;fill-rule:evenodd;fill:rgb(5.099487%,5.099487%,5.099487%);fill-opacity:1;" d="M 105.457031 106.523438 C 105.496094 106.449219 105.527344 106.371094 105.554688 106.289062 C 102.171875 103.984375 100.605469 100.898438 99.882812 98.601562 C 99.121094 96.1875 99.121094 94.214844 99.140625 93.679688 L 99.230469 93.6875 C 99.214844 93.667969 99.199219 93.652344 99.179688 93.632812 C 99.121094 93.566406 99.082031 93.472656 99.042969 93.390625 L 98.871094 93.378906 L 98.863281 93.519531 C 98.855469 93.617188 98.71875 95.859375 99.609375 98.683594 C 100.351562 101.035156 101.960938 104.199219 105.441406 106.554688 C 105.445312 106.542969 105.449219 106.535156 105.457031 106.523438 "/>
<path style=" stroke:none;fill-rule:evenodd;fill:rgb(5.099487%,5.099487%,5.099487%);fill-opacity:1;" d="M 109.621094 105.59375 C 109.703125 105.53125 109.746094 105.433594 109.746094 105.320312 C 109.734375 104.988281 109.289062 104.519531 108.878906 104.273438 C 108.609375 104.109375 108.308594 104.105469 108.078125 104.265625 C 107.886719 104.398438 107.785156 104.605469 107.820312 104.785156 C 107.839844 104.898438 107.582031 105.304688 107.339844 105.597656 L 107.558594 105.777344 C 107.699219 105.609375 108.15625 105.035156 108.097656 104.734375 C 108.085938 104.671875 108.136719 104.570312 108.238281 104.496094 C 108.320312 104.441406 108.492188 104.367188 108.734375 104.511719 C 109.136719 104.757812 109.457031 105.152344 109.460938 105.328125 C 109.460938 105.359375 109.453125 105.363281 109.445312 105.371094 C 109.359375 105.429688 109.226562 105.476562 109.070312 105.53125 C 108.789062 105.628906 108.433594 105.753906 108.15625 106.035156 L 107.789062 106.40625 L 107.988281 106.605469 L 108.359375 106.234375 C 108.589844 106 108.898438 105.890625 109.167969 105.796875 C 109.339844 105.734375 109.488281 105.679688 109.605469 105.601562 C 109.609375 105.597656 109.617188 105.597656 109.621094 105.59375 "/>
<path style=" stroke:none;fill-rule:evenodd;fill:rgb(5.099487%,5.099487%,5.099487%);fill-opacity:1;" d="M 138.574219 105.332031 C 138.574219 105.332031 138.765625 105.507812 138.765625 105.507812 L 138.886719 105.621094 L 138.925781 105.65625 L 139.515625 106.214844 L 139.539062 106.238281 L 139.851562 106.539062 C 139.851562 106.535156 138.574219 105.332031 138.574219 105.332031 "/>
<path style=" stroke:none;fill-rule:evenodd;fill:rgb(5.099487%,5.099487%,5.099487%);fill-opacity:1;" d="M 135.523438 102.722656 C 135.347656 102.953125 135.15625 103.171875 134.957031 103.378906 C 136.183594 104.375 138.011719 105.914062 139.203125 107.125 C 138.890625 107.699219 138.101562 109.105469 136.8125 111.171875 C 136.515625 111.652344 136.222656 112.148438 135.9375 112.632812 C 134.617188 114.871094 133.253906 117.183594 131.152344 118.066406 C 130.476562 117.785156 127.808594 116.65625 126.429688 115.660156 C 125.972656 115.40625 125.148438 115.453125 124.664062 115.527344 C 123.734375 115.671875 122.277344 115.703125 122.261719 115.703125 L 122.089844 115.707031 L 121.96875 115.824219 C 120.308594 117.433594 117.722656 119.914062 117.398438 120.148438 L 117.332031 120.199219 L 117.289062 120.265625 C 117.253906 120.320312 116.953125 120.820312 117.261719 121.476562 C 117.378906 121.722656 117.597656 121.894531 117.878906 121.964844 C 118.46875 122.109375 119.300781 121.804688 120.210938 121.113281 C 121.160156 120.398438 122.121094 119.609375 122.457031 119.332031 L 123.574219 119.355469 C 122.480469 120.039062 121.003906 120.964844 120.652344 121.21875 C 120.085938 121.632812 117.867188 123.5625 117.773438 123.644531 L 117.691406 123.71875 L 117.652344 123.820312 C 117.53125 124.144531 117.464844 124.800781 117.964844 125.21875 C 118.195312 125.410156 118.484375 125.472656 118.761719 125.472656 C 119.097656 125.472656 119.421875 125.390625 119.730469 125.269531 L 119.777344 125.234375 C 121.765625 123.726562 124.042969 122.050781 124.351562 121.910156 C 124.367188 121.90625 124.386719 121.898438 124.40625 121.894531 C 124.40625 121.894531 124.683594 121.796875 125.210938 121.6875 C 125.734375 121.582031 126.511719 121.464844 127.507812 121.429688 C 127.507812 121.429688 126.234375 120.9375 124.503906 121.015625 C 124.292969 121.042969 124.128906 121.070312 124.03125 121.113281 C 123.554688 121.300781 120.359375 123.707031 119.304688 124.511719 C 119.019531 124.605469 118.632812 124.652344 118.523438 124.5625 C 118.417969 124.472656 118.425781 124.308594 118.445312 124.207031 C 118.890625 123.820312 120.695312 122.253906 121.164062 121.914062 C 121.703125 121.527344 125.222656 119.347656 125.257812 119.324219 L 126.492188 118.5625 L 122.148438 118.464844 L 122.023438 118.570312 C 122.011719 118.578125 120.839844 119.554688 119.6875 120.429688 C 118.703125 121.171875 118.125 121.179688 118.050781 121.113281 C 117.976562 120.957031 117.988281 120.832031 118.007812 120.765625 C 118.710938 120.179688 121.722656 117.265625 122.453125 116.558594 C 122.878906 116.546875 123.992188 116.5 124.796875 116.378906 C 125.476562 116.273438 125.867188 116.363281 125.96875 116.394531 C 127.652344 117.585938 130.851562 118.875 130.992188 118.925781 L 131.148438 118.992188 L 131.308594 118.929688 C 133.78125 117.992188 135.257812 115.488281 136.6875 113.066406 C 136.96875 112.589844 137.257812 112.09375 137.550781 111.625 C 138.890625 109.476562 139.699219 108.023438 139.996094 107.476562 C 139.996094 107.476562 141.058594 105.898438 143.089844 105.40625 C 143.089844 105.40625 141.351562 105.21875 139.847656 106.53125 C 138.5 105.210938 137.089844 104 135.523438 102.722656 "/>
<path style=" stroke:none;fill-rule:evenodd;fill:rgb(5.099487%,5.099487%,5.099487%);fill-opacity:1;" d="M 140.058594 94.234375 C 140.003906 94.179688 139.945312 94.121094 139.890625 94.066406 C 139.84375 94.019531 139.804688 93.96875 139.765625 93.917969 L 139.714844 93.902344 C 138.027344 99.921875 134.9375 103.148438 133.902344 104.097656 C 132.179688 101.714844 127.277344 96.945312 127.058594 96.730469 L 126.890625 96.902344 C 126.910156 97.210938 126.925781 97.515625 126.929688 97.816406 C 128.324219 99.195312 132.355469 103.234375 133.449219 104.96875 L 133.703125 105.375 L 134.082031 105.085938 C 134.253906 104.953125 138.246094 101.835938 140.40625 94.621094 C 140.269531 94.507812 140.15625 94.378906 140.058594 94.234375 "/>
<path style=" stroke:none;fill-rule:evenodd;fill:rgb(5.099487%,5.099487%,5.099487%);fill-opacity:1;" d="M 150.3125 108.230469 C 147.898438 103.339844 139.988281 93.933594 137.007812 90.394531 C 136.609375 89.921875 136.324219 89.582031 136.167969 89.390625 C 135.507812 88.585938 134.53125 87.0625 133.585938 85.585938 C 132.703125 84.21875 131.875 82.925781 131.34375 82.28125 C 130.636719 81.417969 129.140625 80.601562 128.082031 80.097656 C 127.878906 80.003906 121.515625 76.820312 121.351562 76.746094 C 120.820312 76.703125 120.546875 76.855469 120.660156 77.359375 C 120.820312 77.429688 127.46875 80.765625 127.671875 80.859375 C 128.660156 81.328125 130.058594 82.078125 130.671875 82.824219 C 131.167969 83.429688 131.988281 84.703125 132.851562 86.050781 C 133.8125 87.542969 134.804688 89.089844 135.492188 89.929688 C 135.65625 90.128906 135.941406 90.472656 136.34375 90.945312 C 139.019531 94.128906 147.167969 103.8125 149.535156 108.609375 C 149.542969 108.628906 150.457031 110.542969 149.597656 111.527344 C 148.570312 112.703125 140.324219 119.742188 134.003906 122.226562 L 133.796875 122.308594 L 133.742188 122.519531 C 133.699219 122.683594 132.746094 126.113281 129.214844 126.113281 C 128.011719 126.113281 127.355469 125.804688 126.65625 125.316406 C 126.566406 125.25 126.238281 125.027344 125.808594 125.144531 C 125.351562 125.265625 125 125.699219 124.742188 126.46875 C 124.433594 127.378906 123.898438 127.75 123.605469 127.886719 C 123.300781 128.03125 123.097656 128.011719 123.042969 127.992188 C 122.992188 127.972656 122.976562 127.78125 123.003906 127.613281 C 123.292969 127.171875 124.054688 125.757812 124.289062 125.316406 L 126.855469 123.125 L 125.761719 123.078125 C 125.699219 123.074219 124.207031 123.019531 123.136719 123.773438 C 122.976562 123.886719 122.804688 124.011719 122.625 124.140625 C 122.03125 124.574219 120.792969 125.476562 120.425781 125.394531 C 120.007812 125.300781 119.871094 124.921875 119.863281 124.90625 L 119.039062 125.171875 C 119.140625 125.488281 119.507812 126.070312 120.230469 126.234375 C 120.933594 126.394531 121.878906 125.753906 123.136719 124.835938 C 123.3125 124.707031 123.480469 124.582031 123.636719 124.472656 C 123.851562 124.324219 124.097656 124.214844 124.34375 124.136719 L 123.601562 124.769531 L 123.5625 124.839844 C 123.136719 125.636719 122.40625 126.980469 122.25 127.183594 L 122.199219 127.25 L 122.175781 127.335938 C 122.066406 127.757812 122.058594 128.542969 122.738281 128.796875 C 122.863281 128.84375 123.003906 128.867188 123.152344 128.867188 C 123.410156 128.867188 123.695312 128.796875 123.980469 128.664062 C 124.394531 128.46875 125.15625 127.957031 125.5625 126.742188 C 125.792969 126.066406 126.007812 125.980469 126.03125 125.976562 C 127.183594 126.871094 128.578125 126.976562 129.230469 126.976562 C 132.867188 126.976562 134.214844 123.816406 134.515625 122.949219 C 140.960938 120.34375 149.078125 113.4375 150.253906 112.089844 C 151.5 110.664062 150.363281 108.328125 150.3125 108.230469 "/>
<path style=" stroke:none;fill-rule:evenodd;fill:rgb(5.099487%,5.099487%,5.099487%);fill-opacity:1;" d="M 123.980469 108.007812 C 123.96875 109.476562 124.199219 112.675781 124.867188 115.839844 C 125.140625 115.734375 125.453125 115.714844 125.746094 115.785156 C 125.074219 112.644531 124.839844 109.410156 124.847656 108.015625 C 124.855469 107.089844 125.472656 105.351562 126.074219 103.667969 C 126.839844 101.515625 127.628906 99.296875 127.558594 97.855469 C 127.519531 97.058594 127.25 95.816406 126.890625 94.480469 C 126.019531 91.53125 124.003906 88.183594 124.003906 88.183594 C 124.03125 88.257812 126.574219 95.46875 126.691406 97.898438 C 126.753906 99.167969 125.957031 101.40625 125.253906 103.378906 C 124.605469 105.210938 123.988281 106.941406 123.980469 108.007812 "/>
<path style=" stroke:none;fill-rule:evenodd;fill:rgb(5.099487%,5.099487%,5.099487%);fill-opacity:1;" d="M 90.097656 84.292969 C 90.507812 83.671875 90.871094 83.152344 91.136719 82.824219 C 91.757812 82.066406 93.183594 81.308594 94.171875 80.84375 C 94.359375 80.753906 100.988281 77.425781 101.136719 77.359375 C 101.132812 76.996094 100.925781 76.785156 100.449219 76.746094 C 100.308594 76.808594 93.980469 79.980469 93.808594 80.058594 C 92.746094 80.558594 91.1875 81.394531 90.464844 82.28125 C 90.175781 82.632812 89.792969 83.183594 89.363281 83.832031 C 89.59375 84 89.839844 84.152344 90.097656 84.292969 "/>
<path style=" stroke:none;fill-rule:evenodd;fill:rgb(5.099487%,5.099487%,5.099487%);fill-opacity:1;" d="M 87.582031 88.164062 C 88.023438 87.503906 88.492188 86.773438 88.957031 86.050781 C 89.011719 85.964844 89.066406 85.878906 89.121094 85.792969 C 88.867188 85.65625 88.621094 85.503906 88.382812 85.34375 C 88.328125 85.425781 88.277344 85.507812 88.226562 85.585938 C 87.675781 86.445312 87.113281 87.316406 86.613281 88.054688 C 86.933594 88.039062 87.261719 88.078125 87.582031 88.164062 "/>
<path style=" stroke:none;fill-rule:evenodd;fill:rgb(5.099487%,5.099487%,5.099487%);fill-opacity:1;" d="M 108.363281 137.425781 C 97.980469 137.058594 93.640625 134.058594 92.859375 133.445312 C 92.84375 132.480469 93.121094 131.308594 93.316406 130.371094 C 93.871094 127.679688 94.621094 125.5 95.238281 123.710938 C 95.707031 122.351562 96.109375 121.175781 96.292969 120.164062 C 96.628906 118.3125 96.886719 116.460938 97.210938 114.613281 C 97.695312 111.875 97.867188 109.285156 97.859375 108.007812 C 97.851562 106.9375 97.238281 105.210938 96.585938 103.378906 C 95.882812 101.40625 95.085938 99.167969 95.148438 97.898438 C 95.265625 95.488281 97.769531 88.371094 97.835938 88.1875 C 97.804688 88.238281 97.3125 89.058594 96.71875 90.226562 C 96.109375 91.433594 95.386719 93.007812 94.949219 94.480469 C 94.59375 95.816406 94.320312 97.058594 94.28125 97.855469 C 94.210938 99.296875 95.003906 101.519531 95.765625 103.664062 C 96.367188 105.351562 96.984375 107.089844 96.992188 108.015625 C 97 109.210938 96.828125 111.769531 96.351562 114.460938 C 96.027344 116.308594 95.773438 118.160156 95.441406 120.011719 C 95.269531 120.960938 94.875 122.105469 94.417969 123.433594 C 94.089844 124.382812 93.726562 125.4375 93.375 126.617188 C 92.859375 128.335938 92.367188 130.320312 92.042969 132.628906 L 91.796875 133.703125 C 92.699219 134.414062 93.402344 134.90625 94.457031 135.421875 C 96.828125 136.582031 101.195312 138.046875 108.394531 138.285156 C 110.023438 138.339844 111.742188 138.34375 113.375 138.292969 C 120.6875 138.074219 125.113281 136.59375 127.503906 135.421875 C 127.816406 135.269531 128.09375 135.121094 128.339844 134.980469 C 129.3125 134.429688 129.769531 134.015625 129.824219 133.964844 L 129.957031 133.84375 L 129.960938 133.667969 C 130.027344 131.957031 129.507812 129.484375 128.820312 127.03125 C 128.78125 126.890625 128.738281 126.75 128.699219 126.609375 C 128.585938 126.621094 128.480469 126.621094 128.375 126.605469 C 128.324219 126.601562 128.273438 126.59375 128.222656 126.582031 C 128.058594 126.542969 127.898438 126.476562 127.734375 126.375 C 127.753906 126.4375 127.773438 126.5 127.789062 126.5625 C 127.828125 126.695312 127.867188 126.828125 127.90625 126.960938 C 128.632812 129.511719 129.117188 131.855469 129.097656 133.445312 C 128.3125 134.0625 123.917969 137.105469 113.375 137.433594 C 111.722656 137.484375 110.011719 137.484375 108.363281 137.425781 "/>
<path style=" stroke:none;fill-rule:evenodd;fill:rgb(82.749939%,83.139038%,83.139038%);fill-opacity:1;" d="M 78.28125 87.203125 L 79.976562 88.695312 L 91.9375 84.300781 L 92.105469 81.859375 L 78.28125 87.203125 "/>
<path style=" stroke:none;fill-rule:evenodd;fill:rgb(96.469116%,78.819275%,64.709473%);fill-opacity:1;" d="M 81.066406 113.066406 C 79.570312 111.347656 77.945312 108.160156 77.292969 106.433594 C 76.925781 106.019531 76.128906 105.246094 76.152344 104.421875 C 76.171875 103.601562 77.324219 101.875 77.621094 101.507812 C 77.210938 100.394531 76.703125 99.25 76.402344 98.886719 C 75.160156 97.371094 74.933594 96.535156 76.589844 94.964844 L 78.609375 99.96875 L 83.960938 97.449219 C 84.800781 98.003906 85.6875 99.050781 84.835938 99.96875 C 84.699219 100.117188 81.390625 102.144531 81.390625 102.144531 C 81.390625 102.144531 80.265625 103.832031 79.941406 104.949219 L 81.273438 103.96875 L 85.9375 103.382812 C 87.191406 104.082031 86.683594 105.152344 86.203125 106.117188 C 87.386719 106.941406 87.214844 107.753906 86.351562 108.757812 L 83.316406 110.769531 C 83.511719 110.8125 84.1875 110.945312 84.863281 110.753906 C 85.71875 110.464844 86.375 110.261719 86.742188 110.328125 C 87.109375 110.398438 87.867188 111.058594 87.640625 111.558594 C 87.238281 112.433594 84.71875 113.25 83.847656 113.613281 L 81.066406 113.066406 "/>
<path style=" stroke:none;fill-rule:evenodd;fill:rgb(82.749939%,57.249451%,29.798889%);fill-opacity:1;" d="M 78.265625 87.238281 L 80.011719 88.832031 L 91.914062 84.292969 L 92.1875 81.851562 L 95.703125 80.695312 C 95.703125 80.695312 96.183594 80.71875 96.300781 81.015625 C 96.414062 81.3125 107.605469 110.898438 107.605469 110.898438 C 107.605469 110.898438 107.648438 111.628906 106.960938 111.902344 C 106.273438 112.175781 86.511719 119.425781 86.511719 119.425781 C 86.511719 119.425781 85.914062 119.5625 85.6875 118.96875 C 85.457031 118.375 83.683594 113.578125 83.683594 113.578125 L 87.464844 112.210938 C 87.464844 112.210938 87.746094 111.671875 87.679688 111.367188 C 87.328125 109.722656 85.421875 110.539062 84.417969 110.96875 L 83.570312 110.398438 L 86.925781 108.210938 C 86.925781 108.210938 87.363281 107.640625 87.109375 107.09375 C 86.859375 106.546875 86.203125 106.117188 86.203125 106.117188 C 86.933594 104.660156 86.992188 103.785156 85.746094 103.367188 C 85.191406 103.367188 82.058594 103.949219 81.355469 104.078125 L 79.828125 105.199219 C 79.828125 105.199219 81.359375 102.199219 81.753906 101.921875 C 82.007812 101.742188 83.339844 101 84.28125 100.386719 C 86.222656 99.117188 83.960938 97.453125 83.84375 97.507812 C 83.535156 97.652344 78.5625 99.851562 78.5625 99.851562 L 74.382812 88.855469 C 74.382812 88.855469 74.449219 88.558594 74.773438 88.378906 C 75.09375 88.195312 78.265625 87.238281 78.265625 87.238281 "/>
<path style=" stroke:none;fill-rule:evenodd;fill:rgb(73.329163%,45.878601%,22.349548%);fill-opacity:1;" d="M 99.847656 90.390625 C 99.847656 90.390625 102.054688 104.273438 86.964844 108.042969 L 83.816406 110.527344 L 82.03125 110.359375 C 82.03125 110.359375 83.65625 111.152344 84.738281 110.832031 C 85.820312 110.507812 87.464844 110.132812 87.464844 111.171875 C 87.464844 112.210938 87.523438 112.082031 86.203125 112.628906 L 84.070312 113.609375 L 83.460938 113.535156 L 85.683594 118.96875 C 85.683594 118.96875 85.84375 119.671875 86.964844 119.257812 C 88.085938 118.847656 106.960938 111.902344 106.960938 111.902344 C 106.960938 111.902344 107.863281 111.582031 107.605469 110.898438 C 107.347656 110.21875 99.847656 90.390625 99.847656 90.390625 "/>
<path style=" stroke:none;fill-rule:evenodd;fill:rgb(5.099487%,5.099487%,5.099487%);fill-opacity:1;" d="M 107.878906 110.566406 L 96.652344 80.953125 C 96.488281 80.515625 96.058594 80.222656 95.585938 80.222656 C 95.449219 80.222656 95.3125 80.246094 95.183594 80.292969 L 74.761719 87.914062 C 74.476562 88.019531 74.25 88.230469 74.125 88.507812 C 73.996094 88.78125 73.988281 89.089844 74.09375 89.371094 L 78.359375 100.625 C 78.503906 100.378906 78.683594 100.15625 78.898438 99.96875 L 74.78125 89.113281 C 74.746094 89.015625 74.75 88.902344 74.792969 88.808594 C 74.839844 88.710938 74.917969 88.636719 75.019531 88.597656 L 95.445312 80.976562 C 95.488281 80.960938 95.539062 80.949219 95.585938 80.949219 C 95.753906 80.949219 95.90625 81.054688 95.964844 81.210938 L 107.1875 110.824219 C 107.226562 110.921875 107.222656 111.03125 107.179688 111.128906 C 107.132812 111.226562 107.054688 111.300781 106.953125 111.339844 L 86.527344 118.960938 C 86.484375 118.976562 86.433594 118.988281 86.386719 118.988281 C 86.21875 118.988281 86.066406 118.882812 86.007812 118.726562 L 83.992188 113.410156 C 83.734375 113.480469 83.453125 113.488281 83.203125 113.398438 L 85.320312 118.980469 C 85.484375 119.421875 85.914062 119.714844 86.386719 119.714844 C 86.523438 119.714844 86.660156 119.691406 86.789062 119.644531 L 107.210938 112.023438 C 107.496094 111.917969 107.722656 111.707031 107.847656 111.429688 C 107.976562 111.15625 107.984375 110.847656 107.878906 110.566406 "/>
<path style=" stroke:none;fill-rule:evenodd;fill:rgb(5.099487%,5.099487%,5.099487%);fill-opacity:1;" d="M 79.8125 89.058594 L 78.007812 87.1875 L 78.34375 86.871094 L 79.933594 88.523438 L 91.699219 84.136719 L 91.800781 81.851562 L 92.257812 81.871094 L 92.144531 84.457031 L 79.8125 89.058594 "/>
<path style=" stroke:none;fill-rule:evenodd;fill:rgb(5.099487%,5.099487%,5.099487%);fill-opacity:1;" d="M 87.453125 107.222656 C 87.382812 106.597656 86.949219 106.214844 86.613281 106.007812 C 86.855469 105.578125 87.191406 104.835938 87.082031 104.179688 C 86.9375 103.304688 86.203125 103.007812 85.835938 102.976562 L 85.800781 102.972656 L 85.765625 102.976562 C 85.625 102.988281 82.261719 103.296875 81.355469 103.628906 C 80.925781 103.785156 80.214844 104.371094 79.546875 104.980469 C 78.746094 105.796875 78.441406 107.09375 78.441406 107.09375 C 79.359375 106.128906 81.03125 104.523438 81.609375 104.3125 C 82.277344 104.066406 84.8125 103.796875 85.792969 103.707031 C 85.90625 103.726562 86.277344 103.832031 86.355469 104.296875 C 86.449219 104.851562 85.976562 105.675781 85.785156 105.949219 L 85.507812 106.347656 L 85.96875 106.503906 C 85.976562 106.507812 86.65625 106.746094 86.722656 107.304688 C 86.804688 108.023438 86.214844 108.328125 86.1875 108.339844 C 85.921875 108.472656 84.203125 109.632812 83.664062 109.996094 L 80.390625 109.996094 C 80.390625 109.996094 81.675781 110.726562 82.785156 110.726562 L 83.894531 110.726562 L 83.988281 110.660156 C 85.089844 109.914062 86.351562 109.074219 86.515625 108.992188 C 86.917969 108.792969 87.5625 108.199219 87.453125 107.222656 "/>
<path style=" stroke:none;fill-rule:evenodd;fill:rgb(5.099487%,5.099487%,5.099487%);fill-opacity:1;" d="M 87.914062 110.867188 C 87.304688 109.792969 86.234375 109.675781 84.546875 110.496094 C 84.1875 110.535156 82.285156 110.691406 81.316406 110.054688 L 81.125 110.34375 C 81.125 110.34375 82.523438 111.242188 84.699219 111.214844 L 84.761719 111.207031 L 84.816406 111.179688 C 86.714844 110.238281 87.0625 110.855469 87.273438 111.226562 C 87.449219 111.539062 87.042969 111.878906 86.941406 111.957031 C 85.929688 112.425781 84.183594 113.140625 83.664062 113.140625 C 83.015625 113.121094 81.679688 112.902344 81.261719 112.832031 C 80.902344 112.40625 79.371094 110.476562 77.683594 106.550781 L 77.671875 106.523438 C 77.628906 106.445312 77.257812 105.761719 76.847656 105.414062 C 76.609375 105.214844 76.324219 104.410156 76.574219 103.886719 C 76.8125 103.386719 78.128906 101.34375 78.839844 100.257812 C 79.480469 99.96875 83.050781 98.371094 83.941406 97.957031 C 84.09375 97.984375 84.515625 98.128906 84.75 98.921875 C 84.984375 99.710938 84.175781 100.1875 82.167969 101.277344 C 81.855469 101.449219 81.519531 101.628906 81.164062 101.828125 L 81.089844 101.867188 L 81.042969 101.9375 C 81 101.996094 80.042969 103.375 79.613281 104.59375 L 79.292969 105.582031 L 79.417969 105.621094 C 79.433594 105.605469 79.449219 105.585938 79.464844 105.570312 C 79.515625 105.519531 79.5625 105.464844 79.613281 105.414062 C 79.835938 105.105469 80.117188 104.859375 80.398438 104.601562 C 80.765625 103.683594 81.417969 102.6875 81.597656 102.421875 C 81.921875 102.242188 82.230469 102.074219 82.519531 101.917969 C 83.527344 101.371094 84.324219 100.9375 84.835938 100.488281 C 85.226562 100.148438 85.714844 99.59375 85.457031 98.714844 C 85 97.179688 83.898438 97.21875 83.851562 97.222656 L 83.777344 97.226562 L 83.714844 97.257812 C 82.945312 97.617188 78.484375 99.617188 78.4375 99.636719 L 78.339844 99.679688 L 78.28125 99.769531 C 78.199219 99.898438 76.238281 102.886719 75.910156 103.574219 C 75.53125 104.367188 75.851562 105.53125 76.371094 105.972656 C 76.621094 106.183594 76.914062 106.667969 77.015625 106.851562 C 78.988281 111.441406 80.726562 113.335938 80.796875 113.414062 L 80.882812 113.503906 L 81.003906 113.527344 C 81.078125 113.539062 82.820312 113.847656 83.625 113.871094 C 83.636719 113.871094 83.644531 113.871094 83.652344 113.871094 C 84.507812 113.871094 86.828125 112.816406 87.289062 112.601562 L 87.316406 112.589844 L 87.34375 112.570312 C 87.722656 112.304688 88.332031 111.609375 87.914062 110.867188 "/>
<path style=" stroke:none;fill-rule:evenodd;fill:rgb(5.099487%,5.099487%,5.099487%);fill-opacity:1;" d="M 82.953125 106.808594 C 82.953125 106.808594 80.839844 107.550781 80.144531 108.101562 C 80.144531 108.101562 81.878906 107.933594 82.953125 107.578125 L 86.203125 106.503906 L 85.972656 105.8125 L 82.953125 106.808594 "/>
<path style=" stroke:none;fill-rule:evenodd;fill:rgb(5.099487%,5.099487%,5.099487%);fill-opacity:1;" d="M 77.371094 101.742188 C 77.359375 101.71875 76.375 99.230469 75.601562 98.378906 C 75.15625 97.886719 75.015625 97.136719 75.21875 96.371094 C 75.441406 95.535156 76.003906 94.878906 76.6875 94.652344 L 76.921875 95.34375 C 76.476562 95.492188 76.085938 95.96875 75.929688 96.554688 C 75.789062 97.085938 75.871094 97.585938 76.148438 97.890625 C 77.011719 98.839844 78.011719 101.371094 78.054688 101.476562 L 77.371094 101.742188 "/>
<path style=" stroke:none;fill-rule:evenodd;fill:rgb(5.099487%,5.099487%,5.099487%);fill-opacity:1;" d="M 103.828125 58.546875 C 103.828125 59.554688 103.210938 60.371094 102.445312 60.371094 C 101.683594 60.371094 101.0625 59.554688 101.0625 58.546875 C 101.0625 57.539062 101.683594 56.722656 102.445312 56.722656 C 103.210938 56.722656 103.828125 57.539062 103.828125 58.546875 "/>
<path style=" stroke:none;fill-rule:evenodd;fill:rgb(5.099487%,5.099487%,5.099487%);fill-opacity:1;" d="M 101.574219 57.304688 C 101.574219 57.304688 100.742188 57.289062 100.496094 56.394531 C 100.496094 56.394531 100.445312 57.398438 101.480469 57.613281 L 101.582031 57.363281 L 101.574219 57.304688 "/>
<path style=" stroke:none;fill-rule:evenodd;fill:rgb(5.099487%,5.099487%,5.099487%);fill-opacity:1;" d="M 101.554688 57.992188 C 101.554688 57.992188 100.722656 57.976562 100.476562 57.082031 C 100.476562 57.082031 100.425781 58.082031 101.460938 58.300781 L 101.5625 58.050781 L 101.554688 57.992188 "/>
<path style=" stroke:none;fill-rule:evenodd;fill:rgb(5.099487%,5.099487%,5.099487%);fill-opacity:1;" d="M 101.554688 58.28125 C 101.554688 58.28125 100.785156 58.59375 100.199219 57.871094 C 100.199219 57.871094 100.554688 58.808594 101.589844 58.601562 L 101.585938 58.332031 L 101.554688 58.28125 "/>
<path style=" stroke:none;fill-rule:evenodd;fill:rgb(5.099487%,5.099487%,5.099487%);fill-opacity:1;" d="M 114.582031 58.546875 C 114.582031 59.554688 115.203125 60.371094 115.964844 60.371094 C 116.730469 60.371094 117.351562 59.554688 117.351562 58.546875 C 117.351562 57.539062 116.730469 56.722656 115.964844 56.722656 C 115.203125 56.722656 114.582031 57.539062 114.582031 58.546875 "/>
<path style=" stroke:none;fill-rule:evenodd;fill:rgb(5.099487%,5.099487%,5.099487%);fill-opacity:1;" d="M 116.839844 57.304688 C 116.839844 57.304688 117.671875 57.289062 117.917969 56.394531 C 117.917969 56.394531 117.96875 57.398438 116.933594 57.613281 L 116.828125 57.363281 L 116.839844 57.304688 "/>
<path style=" stroke:none;fill-rule:evenodd;fill:rgb(5.099487%,5.099487%,5.099487%);fill-opacity:1;" d="M 116.859375 57.992188 C 116.859375 57.992188 117.691406 57.976562 117.9375 57.082031 C 117.9375 57.082031 117.988281 58.082031 116.953125 58.300781 L 116.847656 58.050781 L 116.859375 57.992188 "/>
<path style=" stroke:none;fill-rule:evenodd;fill:rgb(5.099487%,5.099487%,5.099487%);fill-opacity:1;" d="M 116.859375 58.28125 C 116.859375 58.28125 117.628906 58.59375 118.210938 57.871094 C 118.210938 57.871094 117.859375 58.808594 116.820312 58.601562 L 116.824219 58.332031 L 116.859375 58.28125 "/>
<path style=" stroke:none;fill-rule:evenodd;fill:rgb(5.099487%,5.099487%,5.099487%);fill-opacity:1;" d="M 123.207031 58.257812 C 122.910156 59.222656 122.363281 60.71875 120.277344 61.335938 C 118.1875 61.960938 115.941406 61.472656 114.511719 60.160156 C 113.113281 58.878906 112.40625 56.699219 113.246094 55.554688 C 114.089844 54.417969 117.347656 54.148438 118.453125 54.1875 C 119.511719 54.222656 121.601562 54.226562 122.613281 54.910156 C 123.628906 55.59375 123.503906 57.292969 123.207031 58.257812 Z M 107.371094 60.160156 C 105.941406 61.472656 103.691406 61.960938 101.605469 61.335938 C 99.515625 60.71875 98.96875 59.222656 98.671875 58.257812 C 98.378906 57.292969 98.253906 55.59375 99.265625 54.910156 C 100.277344 54.226562 102.367188 54.222656 103.429688 54.1875 C 104.535156 54.148438 107.792969 54.417969 108.632812 55.554688 C 109.476562 56.699219 108.765625 58.878906 107.371094 60.160156 Z M 123.734375 54.390625 C 123.195312 54.335938 120.695312 53.792969 119.171875 53.792969 C 116.789062 53.792969 115.914062 53.957031 114.792969 54.222656 C 113.671875 54.488281 113.042969 54.855469 112.714844 54.816406 C 112.386719 54.78125 111.5 54.65625 110.9375 54.65625 C 110.378906 54.65625 109.488281 54.78125 109.164062 54.816406 C 108.835938 54.855469 108.203125 54.488281 107.082031 54.222656 C 105.960938 53.957031 105.078125 53.792969 102.695312 53.792969 C 101.171875 53.792969 98.636719 54.335938 98.097656 54.390625 C 97.5625 54.449219 97.050781 54.484375 97.050781 54.484375 L 97.050781 55.492188 C 97.050781 55.492188 97.542969 55.53125 97.660156 55.949219 C 97.777344 56.367188 97.871094 58.175781 98.433594 59.277344 C 99.066406 60.527344 100.082031 61.445312 101.832031 61.84375 C 103.585938 62.246094 105.4375 61.957031 106.632812 61.292969 C 107.523438 60.800781 108.363281 60.0625 108.996094 59.03125 C 109.800781 57.722656 110.027344 56.578125 110.027344 56.578125 C 110.027344 56.578125 109.683594 56.285156 109.871094 55.859375 C 110.011719 55.542969 110.472656 55.492188 110.941406 55.492188 C 111.40625 55.492188 111.867188 55.542969 112.007812 55.859375 C 112.195312 56.285156 111.855469 56.578125 111.855469 56.578125 C 111.855469 56.578125 112.078125 57.722656 112.882812 59.03125 C 113.515625 60.0625 114.355469 60.800781 115.246094 61.292969 C 116.441406 61.957031 118.285156 62.246094 120.039062 61.84375 C 121.792969 61.445312 122.800781 60.527344 123.4375 59.277344 C 123.996094 58.175781 124.054688 56.367188 124.171875 55.949219 C 124.289062 55.53125 124.734375 55.492188 124.734375 55.492188 L 124.734375 54.484375 C 124.734375 54.484375 124.273438 54.449219 123.734375 54.390625 "/>
<path style=" stroke:none;fill-rule:evenodd;fill:rgb(92.939758%,7.839966%,26.269531%);fill-opacity:1;" d="M 111.070312 66.652344 C 111.070312 66.652344 111.339844 66.230469 111.714844 66.265625 C 112.8125 66.367188 113.007812 66.605469 114.527344 66.65625 C 112.972656 67.597656 109.96875 68.324219 107.882812 66.640625 C 107.882812 66.640625 108.894531 66.476562 109.574219 66.355469 C 110.253906 66.230469 110.605469 66.085938 111.070312 66.652344 "/>
<path style=" stroke:none;fill-rule:evenodd;fill:rgb(92.939758%,7.839966%,26.269531%);fill-opacity:1;" d="M 114.636719 66.628906 C 111.585938 67.910156 110.597656 68.144531 107.566406 66.652344 C 107.492188 67.320312 108.636719 69.039062 110.777344 69.234375 C 112.921875 69.429688 114.53125 67.800781 114.636719 66.628906 "/>
<path style=" stroke:none;fill-rule:evenodd;fill:rgb(5.099487%,5.099487%,5.099487%);fill-opacity:1;" d="M 114.40625 66.503906 C 113.648438 67.015625 112.8125 67.277344 112.167969 67.410156 C 111.40625 67.570312 110.964844 67.585938 110.210938 67.460938 C 109.539062 67.34375 108.5625 67.082031 107.691406 66.484375 C 107.589844 66.515625 107.382812 66.617188 107.460938 66.671875 C 108.371094 67.316406 109.390625 67.601562 110.113281 67.730469 C 110.925781 67.871094 111.40625 67.855469 112.226562 67.6875 C 112.917969 67.546875 113.8125 67.261719 114.621094 66.699219 C 114.824219 66.558594 114.449219 66.472656 114.40625 66.503906 "/>
<path style=" stroke:none;fill-rule:evenodd;fill:rgb(5.099487%,5.099487%,5.099487%);fill-opacity:1;" d="M 112.082031 66.167969 C 111.882812 66.136719 111.738281 66.117188 111.644531 66.113281 C 111.40625 66.109375 111.207031 66.253906 111.0625 66.421875 C 110.914062 66.253906 110.714844 66.109375 110.476562 66.113281 C 110.382812 66.117188 110.238281 66.136719 110.042969 66.167969 C 109.484375 66.25 108.511719 66.597656 107.746094 66.414062 C 107.59375 66.375 107.605469 66.667969 107.605469 66.667969 C 108.445312 66.894531 109.488281 66.539062 110.085938 66.449219 C 110.265625 66.421875 110.40625 66.402344 110.484375 66.398438 C 110.636719 66.390625 110.777344 66.515625 110.890625 66.660156 C 110.960938 66.753906 111.019531 66.855469 111.058594 66.941406 C 111.101562 66.859375 111.160156 66.757812 111.234375 66.664062 C 111.347656 66.519531 111.488281 66.398438 111.636719 66.398438 C 111.710938 66.402344 111.855469 66.421875 112.039062 66.449219 C 112.636719 66.539062 113.691406 66.898438 114.53125 66.664062 C 114.542969 66.648438 114.3125 66.429688 114.304688 66.429688 C 113.546875 66.589844 112.617188 66.25 112.082031 66.167969 "/>
<path style=" stroke:none;fill-rule:evenodd;fill:rgb(5.099487%,5.099487%,5.099487%);fill-opacity:1;" d="M 114.53125 66.664062 C 114.445312 66.867188 114.234375 67.328125 114.101562 67.511719 C 113.472656 68.371094 112.34375 69.09375 111.0625 69.09375 C 109.550781 69.09375 108.257812 68.152344 107.734375 67.027344 C 107.703125 66.957031 107.632812 66.742188 107.605469 66.667969 C 107.519531 66.625 107.324219 66.828125 107.34375 66.878906 C 107.835938 68.210938 109.316406 69.390625 111.0625 69.390625 C 112.789062 69.390625 114.257812 68.226562 114.761719 66.917969 C 114.789062 66.847656 114.667969 66.59375 114.53125 66.664062 "/>
<path style=" stroke:none;fill-rule:evenodd;fill:rgb(5.099487%,5.099487%,5.099487%);fill-opacity:1;" d="M 108.351562 66.199219 C 107.765625 66.21875 106.945312 66.550781 107.199219 67.597656 C 107.324219 67.082031 107.820312 66.496094 108.351562 66.199219 "/>
<path style=" stroke:none;fill-rule:evenodd;fill:rgb(5.099487%,5.099487%,5.099487%);fill-opacity:1;" d="M 113.71875 66.140625 C 114.304688 66.160156 115.125 66.492188 114.871094 67.539062 C 114.75 67.023438 114.253906 66.4375 113.71875 66.140625 "/>
<path style=" stroke:none;fill-rule:evenodd;fill:rgb(75.689697%,80.389404%,82.749939%);fill-opacity:1;" d="M 118.929688 96.765625 L 119.527344 97.042969 L 118.308594 100.402344 L 118.207031 102.050781 C 118.207031 102.050781 117.609375 104.285156 116.605469 104.867188 C 115.605469 105.453125 114.335938 105.167969 113.984375 104.070312 C 113.632812 102.972656 113.425781 101.53125 113.878906 100.445312 C 114.335938 99.359375 115.574219 98.070312 116.214844 98.046875 C 116.855469 98.027344 117.089844 98.273438 117.296875 98.464844 C 117.503906 98.660156 117.929688 99.214844 117.929688 99.214844 L 118.929688 96.765625 "/>
<path style=" stroke:none;fill-rule:evenodd;fill:rgb(29.40979%,34.509277%,38.819885%);fill-opacity:1;" d="M 119.054688 96.222656 L 118.8125 96.765625 L 119.488281 96.960938 C 119.488281 96.960938 120.160156 95.117188 120.335938 94.285156 C 120.511719 93.457031 121.285156 90.148438 121.390625 88.65625 C 121.5 87.167969 121.515625 83.140625 121.300781 81.652344 C 121.082031 80.160156 120.695312 78.101562 120.695312 78.101562 C 120.695312 78.101562 120.433594 77.457031 120.304688 77.160156 C 120.203125 77.136719 119.714844 76.851562 119.714844 76.851562 L 120.726562 81.773438 C 120.726562 81.773438 120.804688 84.953125 120.757812 86.84375 C 120.710938 88.734375 119.90625 94.167969 119.054688 96.222656 "/>
<path style=" stroke:none;fill-rule:evenodd;fill:rgb(5.099487%,5.099487%,5.099487%);fill-opacity:1;" d="M 121.558594 82.421875 C 121.300781 79.730469 120.742188 77.644531 120.292969 76.316406 C 120.265625 76.332031 120.230469 76.34375 120.1875 76.34375 C 120.089844 76.335938 119.988281 76.320312 119.890625 76.300781 C 120.335938 77.59375 120.921875 79.710938 121.183594 82.476562 C 121.601562 86.84375 121.273438 93.753906 117.382812 101.9375 L 116.425781 101.9375 C 116.34375 101.765625 116.199219 101.371094 116.421875 100.992188 L 117.328125 100.929688 L 117.378906 100.839844 C 117.394531 100.808594 118.953125 97.949219 120.019531 93.550781 C 121 89.492188 121.75 83.25 119.753906 76.566406 L 119.390625 76.671875 C 121.363281 83.273438 120.621094 89.441406 119.652344 93.453125 C 118.707031 97.371094 117.363281 100.054688 117.09375 100.566406 L 116.214844 100.628906 L 116.164062 100.699219 C 115.640625 101.421875 116.136719 102.195312 116.15625 102.226562 L 116.214844 102.3125 L 117.621094 102.3125 L 117.671875 102.207031 C 121.65625 93.890625 121.984375 86.855469 121.558594 82.421875 "/>
<path style=" stroke:none;fill-rule:evenodd;fill:rgb(5.099487%,5.099487%,5.099487%);fill-opacity:1;" d="M 118.34375 100.230469 C 118.332031 100.257812 118.324219 100.28125 118.320312 100.308594 C 118.316406 100.332031 118.3125 100.34375 118.308594 100.347656 C 118.332031 100.546875 118.203125 100.6875 118.046875 100.746094 C 118.074219 101.144531 118.050781 101.574219 117.976562 102.011719 C 117.683594 103.660156 116.707031 104.902344 115.695312 105.003906 C 115.578125 105.015625 115.460938 105.015625 115.339844 104.992188 C 115.179688 104.964844 115.03125 104.90625 114.890625 104.820312 C 114.050781 104.320312 113.609375 102.878906 113.890625 101.296875 C 114.171875 99.71875 115.082031 98.511719 116.046875 98.324219 C 116.207031 98.292969 116.367188 98.292969 116.527344 98.320312 C 116.644531 98.339844 116.757812 98.375 116.867188 98.429688 C 117.238281 98.609375 117.539062 98.964844 117.746094 99.433594 C 117.753906 99.40625 117.761719 99.382812 117.773438 99.355469 C 117.816406 99.230469 117.902344 99.152344 118 99.117188 C 117.90625 98.929688 117.792969 98.757812 117.671875 98.609375 C 117.460938 98.355469 117.210938 98.164062 116.933594 98.046875 C 116.824219 98.003906 116.710938 97.96875 116.59375 97.949219 C 115.261719 97.714844 113.882812 99.191406 113.519531 101.234375 C 113.15625 103.277344 113.941406 105.128906 115.273438 105.363281 C 115.390625 105.382812 115.511719 105.390625 115.628906 105.386719 C 115.933594 105.371094 116.234375 105.273438 116.519531 105.105469 C 117.375 104.605469 118.097656 103.476562 118.347656 102.078125 C 118.464844 101.417969 118.460938 100.773438 118.359375 100.199219 C 118.351562 100.210938 118.347656 100.21875 118.34375 100.230469 "/>
<path style=" stroke:none;fill-rule:evenodd;fill:rgb(5.099487%,5.099487%,5.099487%);fill-opacity:1;" d="M 116.035156 105.113281 C 115.917969 105.09375 115.804688 105.058594 115.695312 105.003906 C 114.785156 104.566406 114.292969 103.066406 114.585938 101.421875 C 114.878906 99.773438 115.855469 98.53125 116.867188 98.429688 C 116.984375 98.417969 117.105469 98.421875 117.222656 98.441406 C 117.382812 98.46875 117.53125 98.527344 117.671875 98.609375 C 117.460938 98.355469 117.210938 98.164062 116.933594 98.046875 C 116.632812 98.0625 116.332031 98.160156 116.046875 98.324219 C 115.1875 98.824219 114.460938 99.957031 114.214844 101.355469 C 113.964844 102.753906 114.253906 104.058594 114.890625 104.820312 C 115.101562 105.078125 115.347656 105.269531 115.628906 105.386719 C 115.933594 105.371094 116.234375 105.273438 116.519531 105.105469 C 116.359375 105.140625 116.195312 105.144531 116.035156 105.113281 "/>
<path style=" stroke:none;fill-rule:evenodd;fill:rgb(5.099487%,5.099487%,5.099487%);fill-opacity:1;" d="M 119.558594 97.238281 C 119.316406 97.234375 118.839844 97.058594 118.785156 97.039062 L 118.917969 96.6875 C 119.097656 96.753906 119.429688 96.859375 119.566406 96.863281 L 119.558594 97.238281 "/>
</g>
</svg>
