<?xml version="1.0" encoding="UTF-8"?>
<svg class="person" viewBox="0 70 224.87999 2">
<defs>
<clipPath id="clip1">
  <path d="M 114 185 L 130 185 L 130 202.453125 L 114 202.453125 Z M 114 185 "/>
</clipPath>
<clipPath id="clip2">
  <path d="M 95 185 L 112 185 L 112 202.453125 L 95 202.453125 Z M 95 185 "/>
</clipPath>
<clipPath id="clip3">
  <path d="M 72.074219 76 L 105 76 L 105 129 L 72.074219 129 Z M 72.074219 76 "/>
</clipPath>
</defs>
<g id="surface1">
<path style=" stroke:none;fill-rule:evenodd;fill:rgb(78.039551%,21.569824%,63.919067%);fill-opacity:1;" d="M 104.285156 76.285156 L 96.054688 80.007812 C 96.054688 80.015625 96.054688 80.023438 96.050781 80.03125 C 95.628906 81.117188 94.058594 81.332031 93.265625 82.078125 C 92.628906 82.675781 92.171875 83.40625 91.714844 84.144531 C 91.207031 84.960938 90.6875 85.765625 90.144531 86.558594 C 89.054688 88.160156 87.914062 89.753906 86.632812 91.214844 C 86.03125 91.902344 85.46875 92.644531 84.835938 93.308594 C 84.523438 93.636719 84.195312 93.953125 83.894531 94.292969 C 83.929688 97.902344 87.289062 102.078125 89.785156 104.433594 C 91.253906 102.980469 95.089844 98.304688 96.480469 97.648438 C 96.570312 100.128906 98.976562 106.546875 99.023438 107.097656 C 99.296875 110.21875 98.722656 113.417969 98.195312 116.449219 C 97.878906 118.277344 97.515625 120.183594 96.867188 121.988281 C 95.328125 126.265625 95.089844 127.5 94.636719 129.632812 C 94.183594 131.761719 94.058594 133.8125 94.058594 133.8125 L 95.707031 134.949219 C 95.707031 134.949219 95.046875 139.796875 95.417969 143.199219 C 95.789062 146.601562 96.820312 153.28125 97.070312 154.550781 C 97.316406 155.824219 97.644531 157.667969 97.152344 159.46875 C 96.65625 161.273438 95.503906 166.234375 96.285156 169.0625 C 97.070312 171.890625 98.757812 177.011719 99.171875 178.816406 C 99.582031 180.621094 100.53125 185.792969 100.53125 185.792969 L 100.574219 186.152344 C 100.574219 186.152344 102.945312 187.445312 105.851562 187.136719 C 108.753906 186.832031 110.46875 185.742188 110.589844 185.171875 C 110.589844 185.171875 110.46875 174.757812 110.261719 168.488281 C 110.054688 162.214844 110.550781 152.378906 111.210938 147.339844 C 111.296875 146.683594 112.292969 140.195312 112.714844 139.824219 C 113.132812 140.195312 114.128906 146.683594 114.214844 147.339844 C 114.875 152.378906 115.371094 162.214844 115.164062 168.488281 C 114.957031 174.757812 114.835938 185.171875 114.835938 185.171875 C 114.957031 185.742188 116.667969 186.832031 119.574219 187.136719 C 122.480469 187.445312 124.851562 186.152344 124.851562 186.152344 L 124.894531 185.792969 C 124.894531 185.792969 125.839844 180.621094 126.253906 178.816406 C 126.667969 177.011719 128.355469 171.890625 129.140625 169.0625 C 129.921875 166.234375 128.769531 161.273438 128.273438 159.46875 C 127.78125 157.667969 128.109375 155.824219 128.355469 154.550781 C 128.605469 153.28125 129.632812 146.601562 130.003906 143.199219 C 130.375 139.796875 129.71875 134.949219 129.71875 134.949219 L 131.367188 133.8125 C 131.367188 133.8125 131.242188 131.761719 130.789062 129.632812 C 130.335938 127.5 129.730469 126.039062 128.191406 121.761719 C 127.574219 120.042969 127.375 117.996094 127.042969 116.109375 C 126.496094 112.976562 126.355469 111.632812 126.296875 108.6875 C 126.230469 105.617188 129.070312 99.382812 128.835938 98.472656 C 128.710938 97.988281 129.390625 97.695312 129.652344 98.132812 C 130.582031 99.695312 134.574219 103.378906 135.777344 104.570312 C 137.660156 102.660156 139.425781 100.523438 140.820312 96.699219 C 141.0625 96.035156 141.308594 95.359375 141.636719 94.730469 C 140.265625 93.089844 138.863281 91.472656 137.535156 89.800781 C 136.179688 88.085938 134.976562 86.304688 133.851562 84.4375 C 133.300781 83.515625 132.730469 82.519531 132.023438 81.664062 C 131.808594 81.621094 122.285156 76.84375 121.140625 76.285156 C 119.148438 80.648438 115.960938 83.632812 112.710938 86.742188 C 109.464844 83.632812 106.277344 80.644531 104.285156 76.285156 "/>
<path style=" stroke:none;fill-rule:evenodd;fill:rgb(96.859741%,59.999084%,81.959534%);fill-opacity:1;" d="M 120.394531 77.398438 C 120.394531 77.398438 131.082031 82.496094 131.863281 83.601562 C 132.648438 84.707031 134.914062 88.398438 136.273438 90.28125 C 137.636719 92.167969 141.066406 96.039062 141.066406 96.039062 L 141.636719 94.730469 C 141.636719 94.730469 138.671875 91.082031 137.371094 89.164062 C 136.070312 87.25 133.1875 82.503906 132.605469 82.085938 C 132.023438 81.664062 121.140625 76.285156 121.140625 76.285156 L 120.394531 77.398438 "/>
<path style=" stroke:none;fill-rule:evenodd;fill:rgb(96.859741%,59.999084%,81.959534%);fill-opacity:1;" d="M 104.832031 77.394531 C 102.5 78.625 95.121094 82.105469 94.457031 82.691406 C 94.066406 83.039062 93.632812 83.445312 93.523438 83.601562 C 92.738281 84.707031 90.472656 88.398438 89.109375 90.28125 C 87.75 92.167969 84.320312 96.039062 84.320312 96.039062 L 83.75 94.730469 C 83.75 94.730469 86.714844 91.082031 88.015625 89.164062 C 89.316406 87.25 92.804688 82.164062 93.386719 81.746094 C 93.964844 81.324219 104.085938 76.375 104.085938 76.375 L 104.832031 77.394531 "/>
<path style=" stroke:none;fill-rule:evenodd;fill:rgb(59.609985%,70.979309%,78.42865%);fill-opacity:1;" d="M 101.851562 186.675781 C 101.851562 186.675781 103.914062 187.492188 105.851562 187.136719 C 107.789062 186.785156 109.34375 186.0625 109.34375 186.0625 C 109.34375 186.0625 110.214844 189.894531 110.675781 193.347656 C 111.136719 196.800781 110.734375 200.480469 106.035156 201.460938 C 101.335938 202.445312 93.363281 201.460938 96.777344 196.296875 C 96.777344 196.296875 99.820312 192.546875 100.53125 190.917969 C 101.242188 189.289062 101.851562 186.675781 101.851562 186.675781 "/>
<path style=" stroke:none;fill-rule:evenodd;fill:rgb(59.609985%,70.979309%,78.42865%);fill-opacity:1;" d="M 123.492188 186.675781 C 123.492188 186.675781 121.429688 187.492188 119.492188 187.136719 C 117.554688 186.785156 116 186.0625 116 186.0625 C 116 186.0625 115.128906 189.894531 114.667969 193.347656 C 114.207031 196.800781 114.605469 200.480469 119.308594 201.460938 C 124.007812 202.445312 131.980469 201.460938 128.566406 196.296875 C 128.566406 196.296875 125.523438 192.546875 124.8125 190.917969 C 124.101562 189.289062 123.492188 186.675781 123.492188 186.675781 "/>
<path style=" stroke:none;fill-rule:evenodd;fill:rgb(93.328857%,69.018555%,54.119873%);fill-opacity:1;" d="M 117.917969 74.3125 L 121.25 76.445312 C 121.25 76.445312 115.804688 84.691406 112.652344 86.683594 C 112.652344 86.683594 106.273438 80.804688 104.28125 76.285156 L 107.523438 74.132812 C 107.523438 74.132812 110.363281 75.546875 112.652344 75.421875 C 114.941406 75.300781 117.917969 74.3125 117.917969 74.3125 "/>
<path style=" stroke:none;fill-rule:evenodd;fill:rgb(93.328857%,69.018555%,54.119873%);fill-opacity:1;" d="M 111.917969 75.414062 C 111.917969 75.414062 118.570312 75.785156 121.945312 70.8125 L 125.578125 64.417969 C 125.578125 64.417969 128.488281 62.699219 129.207031 59.933594 C 129.925781 57.164062 129.882812 53.667969 127.019531 56.113281 C 127.019531 56.113281 125.367188 53.203125 123.089844 51.679688 C 120.816406 50.152344 114.996094 47.976562 113.042969 45.601562 C 111.085938 43.226562 109.019531 39.457031 109.019531 39.457031 C 109.019531 39.457031 107.746094 42.652344 105.5625 45.277344 C 103.375 47.898438 100.167969 52.078125 99.664062 53.433594 C 99.164062 54.789062 98.910156 56.257812 98.910156 56.257812 C 98.910156 56.257812 97.5625 54.6875 96.203125 55.65625 C 94.84375 56.628906 95.90625 61.875 100.011719 64.378906 C 100.011719 64.378906 101.457031 73.582031 111.917969 75.414062 "/>
<path style=" stroke:none;fill-rule:evenodd;fill:rgb(24.308777%,19.219971%,17.649841%);fill-opacity:1;" d="M 98.960938 55.988281 C 98.960938 55.988281 99.949219 52.632812 101.167969 50.957031 C 102.390625 49.28125 105.335938 45.714844 106.171875 44.5 C 107.007812 43.289062 109.1875 39.457031 109.1875 39.457031 C 109.1875 39.457031 110.707031 43.914062 113.53125 46.003906 C 116.351562 48.09375 120.714844 50.300781 121.777344 50.910156 C 122.84375 51.519531 126.148438 55.097656 126.148438 55.097656 L 126.597656 56.488281 C 126.597656 56.488281 127.464844 55.160156 128.234375 55.277344 C 129.007812 55.394531 129.347656 55.277344 129.347656 55.277344 L 129.597656 53.039062 C 129.597656 53.039062 130.410156 46.832031 128.296875 43.269531 C 126.1875 39.703125 126.347656 39.929688 125.652344 37.878906 C 124.957031 35.828125 123.785156 29.433594 118.402344 25.992188 C 113.023438 22.546875 108.910156 27.578125 107.921875 29.957031 C 107.921875 29.957031 104.519531 26.328125 100.128906 29.375 C 95.738281 32.414062 96.015625 41.117188 96.605469 44.128906 C 96.605469 44.128906 95.609375 48.617188 95.644531 50.863281 C 95.675781 53.105469 96.234375 55.75 96.234375 55.75 C 96.234375 55.75 96.914062 54.867188 97.625 55.277344 C 98.335938 55.6875 98.910156 56.628906 98.910156 56.628906 L 98.960938 55.988281 "/>
<path style=" stroke:none;fill-rule:evenodd;fill:rgb(75.689697%,80.389404%,82.749939%);fill-opacity:1;" d="M 121.558594 97.105469 L 122.15625 97.382812 L 120.9375 100.746094 L 120.835938 102.394531 C 120.835938 102.394531 120.238281 104.628906 119.238281 105.210938 C 118.238281 105.796875 116.972656 105.507812 116.621094 104.414062 C 116.269531 103.316406 116.0625 101.871094 116.519531 100.785156 C 116.972656 99.699219 118.207031 98.414062 118.847656 98.390625 C 119.484375 98.367188 119.722656 98.613281 119.929688 98.808594 C 120.136719 99.003906 120.558594 99.554688 120.558594 99.554688 L 121.558594 97.105469 "/>
<path style=" stroke:none;fill-rule:evenodd;fill:rgb(29.40979%,34.509277%,38.819885%);fill-opacity:1;" d="M 121.679688 96.5625 L 121.441406 97.105469 L 122.113281 97.304688 C 122.113281 97.304688 122.785156 95.457031 122.960938 94.625 C 123.132812 93.796875 123.90625 90.488281 124.015625 88.996094 C 124.125 87.503906 124.140625 83.476562 123.921875 81.988281 C 123.707031 80.496094 123.320312 78.4375 123.320312 78.4375 C 123.320312 78.4375 122.824219 76.808594 122.808594 76.867188 C 122.792969 76.929688 122.332031 77.238281 122.332031 77.238281 L 123.351562 82.109375 C 123.351562 82.109375 123.429688 85.292969 123.382812 87.183594 C 123.335938 89.074219 122.53125 94.507812 121.679688 96.5625 "/>
<path style=" stroke:none;fill-rule:evenodd;fill:rgb(75.689697%,80.389404%,82.749939%);fill-opacity:1;" d="M 105.683594 92.035156 L 105.117188 92.761719 C 105.117188 92.761719 106.507812 94.800781 107.085938 96.101562 C 107.664062 97.402344 108.242188 100.285156 108.199219 101.757812 C 108.160156 103.234375 107.65625 105.230469 107.65625 105.230469 L 107.53125 105.726562 L 107.136719 106.894531 L 105.871094 106.667969 L 105.757812 107.519531 L 107.65625 107.835938 C 107.65625 107.835938 107.953125 107.28125 108.160156 106.707031 C 108.363281 106.132812 108.746094 105.027344 108.878906 104.085938 C 109.015625 103.140625 109.179688 100.945312 108.921875 99.550781 C 108.664062 98.152344 108.21875 96.214844 107.273438 94.484375 C 106.324219 92.75 105.683594 92.035156 105.683594 92.035156 "/>
<path style=" stroke:none;fill-rule:evenodd;fill:rgb(75.689697%,80.389404%,82.749939%);fill-opacity:1;" d="M 109.550781 105.289062 L 110.191406 105.917969 L 108.847656 107.34375 L 107.921875 106.839844 C 107.921875 106.839844 105.4375 105.109375 104.511719 103.972656 C 103.582031 102.835938 102.179688 100.796875 101.460938 98.613281 C 100.738281 96.429688 100.839844 93.625 100.839844 93.625 L 101.632812 93.796875 C 101.632812 93.796875 101.734375 96.019531 102.152344 97.621094 C 102.574219 99.21875 103.539062 101.5625 104.765625 103.019531 C 105.996094 104.472656 107.570312 105.507812 107.570312 105.507812 L 108.582031 106.246094 L 109.550781 105.289062 "/>
<path style=" stroke:none;fill-rule:evenodd;fill:rgb(29.40979%,34.509277%,38.819885%);fill-opacity:1;" d="M 110.191406 105.917969 L 109.550781 105.289062 C 109.550781 105.289062 109.703125 105.148438 109.734375 104.945312 C 109.765625 104.742188 109.777344 104.597656 109.871094 104.472656 C 109.960938 104.351562 110.242188 104.257812 110.519531 104.390625 C 110.796875 104.527344 111.023438 104.617188 111.15625 104.882812 C 111.292969 105.148438 111.46875 105.253906 111.375 105.367188 C 111.28125 105.480469 110.621094 105.730469 110.621094 105.730469 L 110.191406 105.917969 "/>
<path style=" stroke:none;fill-rule:evenodd;fill:rgb(29.40979%,34.509277%,38.819885%);fill-opacity:1;" d="M 105.871094 106.667969 L 105.757812 107.519531 L 105.191406 107.691406 L 104.589844 107.835938 C 104.589844 107.835938 104.429688 108.003906 104.367188 107.5625 C 104.304688 107.117188 104.464844 106.574219 104.589844 106.402344 C 104.714844 106.226562 104.859375 106.113281 104.964844 106.144531 C 105.066406 106.175781 105.449219 106.328125 105.449219 106.328125 C 105.449219 106.328125 105.710938 106.636719 105.871094 106.667969 "/>
<path style=" stroke:none;fill-rule:evenodd;fill:rgb(29.40979%,34.509277%,38.819885%);fill-opacity:1;" d="M 105.035156 92.730469 C 105.035156 92.730469 105.367188 92.695312 105.40625 92.515625 C 105.449219 92.339844 105.601562 92.035156 105.601562 92.035156 C 105.601562 92.035156 105.652344 91.890625 105.222656 91.410156 C 104.789062 90.925781 104.003906 90.34375 103.738281 90.261719 C 103.46875 90.179688 102.65625 90.035156 102.65625 90.035156 C 102.65625 90.035156 102.542969 88.46875 102.386719 87.308594 C 102.234375 86.152344 102.347656 82.730469 102.511719 81.449219 C 102.675781 80.167969 103.261719 78.34375 103.261719 78.34375 L 104.28125 76.566406 C 104.28125 76.566406 103.96875 76.445312 103.863281 76.445312 C 103.753906 76.445312 103.140625 76.898438 103.140625 76.898438 C 103.140625 76.898438 102.179688 79.214844 101.902344 80.804688 C 101.625 82.390625 101.429688 86.050781 101.5625 87.761719 C 101.695312 89.472656 101.789062 90.324219 101.789062 90.324219 C 101.789062 90.324219 100.707031 91.574219 100.71875 92.484375 C 100.726562 93.398438 100.71875 93.519531 100.71875 93.519531 C 100.71875 93.519531 101.804688 93.976562 101.8125 93.625 C 101.820312 93.273438 101.738281 92.199219 102.007812 91.765625 C 102.273438 91.335938 102.261719 91.234375 102.632812 91.132812 C 103.003906 91.03125 103.695312 91.386719 104.066406 91.738281 C 104.4375 92.085938 105.035156 92.730469 105.035156 92.730469 "/>
<path style=" stroke:none;fill-rule:evenodd;fill:rgb(93.328857%,69.018555%,54.119873%);fill-opacity:1;" d="M 151.160156 107.664062 C 148.378906 102.949219 146.210938 100.441406 143.0625 96.605469 L 141.699219 94.945312 C 141.699219 94.945312 139.890625 99.105469 139.183594 100.109375 C 138.480469 101.113281 137.128906 103.171875 137.128906 103.171875 L 141.40625 106.996094 C 141.40625 106.996094 139.800781 110.40625 138.902344 111.699219 C 138.007812 112.988281 134.792969 118.398438 133.183594 118.339844 C 131.574219 118.277344 127.585938 115.882812 127.585938 115.882812 C 127.585938 115.882812 124.707031 115.601562 123.84375 116.277344 C 122.980469 116.953125 119.175781 120.765625 119.175781 120.765625 C 119.175781 120.765625 119.054688 121.597656 119.703125 121.535156 C 120.351562 121.472656 120.96875 121.257812 120.96875 121.257812 L 123.84375 119.046875 L 126.289062 119.015625 L 122.269531 121.71875 L 119.734375 124.117188 C 119.734375 124.117188 119.886719 125.101562 120.382812 125.039062 C 120.878906 124.980469 121.390625 124.855469 121.390625 124.855469 C 121.390625 124.855469 121.441406 125.660156 121.871094 125.6875 C 122.300781 125.714844 122.515625 125.875 122.886719 125.6875 C 123.257812 125.5 125.175781 123.996094 125.175781 123.996094 L 127.09375 123.65625 C 127.09375 123.65625 125.917969 124.515625 125.609375 125.070312 C 125.296875 125.625 124.277344 127.59375 124.277344 127.59375 C 124.277344 127.59375 124.246094 128.390625 124.773438 128.359375 C 125.296875 128.328125 125.421875 128.484375 125.824219 128.113281 C 126.226562 127.746094 127.339844 125.6875 127.339844 125.6875 C 127.339844 125.6875 128.230469 125.917969 128.589844 126.15625 C 128.949219 126.394531 130.523438 126.992188 132.347656 126.371094 C 134.171875 125.746094 135.503906 123.351562 135.625 122.640625 C 135.625 122.640625 146.109375 117.355469 149.570312 113.726562 C 152.070312 111.109375 153.207031 111.128906 151.160156 107.664062 "/>
<path style=" stroke:none;fill-rule:evenodd;fill:rgb(96.859741%,59.999084%,81.959534%);fill-opacity:1;" d="M 128.234375 136.84375 C 128.234375 136.84375 128.691406 144.796875 127.125 153.628906 C 127.125 153.628906 125.949219 157.378906 126.8125 160.640625 C 127.679688 163.898438 128.050781 167.238281 127.679688 169.378906 C 127.308594 171.519531 123.714844 180.035156 123.53125 186.476562 L 124.851562 186.152344 C 124.851562 186.152344 125.613281 179.246094 127.195312 175.503906 C 128.777344 171.757812 129.488281 168.390625 129.390625 167.3125 C 129.292969 166.234375 127.925781 159.839844 127.988281 157.074219 C 128.050781 154.304688 129.898438 145.0625 130.003906 143.199219 C 130.113281 141.332031 129.71875 136.230469 129.71875 136.230469 L 128.234375 136.84375 "/>
<path style=" stroke:none;fill-rule:evenodd;fill:rgb(96.859741%,59.999084%,81.959534%);fill-opacity:1;" d="M 97.054688 136.84375 C 97.054688 136.84375 96.601562 144.796875 98.167969 153.628906 C 98.167969 153.628906 99.339844 157.378906 98.476562 160.640625 C 97.609375 163.898438 97.238281 167.238281 97.609375 169.378906 C 97.980469 171.519531 101.574219 180.035156 101.757812 186.476562 L 100.4375 186.152344 C 100.4375 186.152344 99.675781 179.246094 98.09375 175.503906 C 96.511719 171.757812 95.800781 168.390625 95.898438 167.3125 C 95.992188 166.234375 97.363281 159.839844 97.300781 157.074219 C 97.238281 154.304688 95.390625 145.0625 95.285156 143.199219 C 95.175781 141.332031 95.570312 136.230469 95.570312 136.230469 L 97.054688 136.84375 "/>
<path style=" stroke:none;fill-rule:evenodd;fill:rgb(45.098877%,36.859131%,32.548523%);fill-opacity:1;" d="M 97.097656 55.179688 C 97.097656 55.179688 94.164062 36.203125 110.675781 32.265625 C 110.675781 32.265625 102.386719 31.464844 97.097656 42.652344 C 97.097656 42.652344 94.347656 47.632812 96.234375 55.75 L 97.097656 55.179688 "/>
<path style=" stroke:none;fill-rule:evenodd;fill:rgb(45.098877%,36.859131%,32.548523%);fill-opacity:1;" d="M 109.71875 35.121094 C 109.71875 35.121094 109.054688 41.5625 104.234375 46.902344 C 99.417969 52.246094 98.855469 55.839844 98.855469 55.839844 L 98.664062 55.589844 C 98.664062 55.589844 98.183594 52.695312 101.355469 48.636719 C 104.53125 44.582031 107.9375 41.605469 109.71875 35.121094 "/>
<path style=" stroke:none;fill-rule:evenodd;fill:rgb(45.098877%,36.859131%,32.548523%);fill-opacity:1;" d="M 108.695312 34.25 C 108.695312 34.25 99.589844 41.507812 98.183594 51.261719 C 98.183594 51.261719 97.496094 41.90625 108.695312 34.25 "/>
<path style=" stroke:none;fill-rule:evenodd;fill:rgb(45.098877%,36.859131%,32.548523%);fill-opacity:1;" d="M 97.652344 41.550781 C 97.652344 41.550781 97.1875 38.769531 98.636719 33.882812 C 100.089844 28.996094 103.804688 28.4375 103.804688 28.4375 C 103.804688 28.4375 101.585938 27.601562 99.53125 29.847656 C 97.476562 32.09375 96.660156 35.773438 96.660156 35.773438 L 96.285156 39.457031 L 96.671875 43.632812 L 97.652344 41.550781 "/>
<path style=" stroke:none;fill-rule:evenodd;fill:rgb(45.098877%,36.859131%,32.548523%);fill-opacity:1;" d="M 116.398438 32.636719 C 116.398438 32.636719 130.875 37.839844 128.039062 55.277344 L 129.347656 55.277344 C 129.347656 55.277344 133.746094 38.238281 116.398438 32.636719 "/>
<path style=" stroke:none;fill-rule:evenodd;fill:rgb(45.098877%,36.859131%,32.548523%);fill-opacity:1;" d="M 110.675781 35.644531 C 110.675781 35.644531 112.238281 42.15625 117.796875 45.601562 C 123.351562 49.046875 126.332031 52.367188 126.332031 52.367188 C 126.332031 52.367188 124.550781 49.628906 118.960938 45.480469 C 113.367188 41.332031 111.234375 37.734375 110.675781 35.644531 "/>
<path style=" stroke:none;fill-rule:evenodd;fill:rgb(45.098877%,36.859131%,32.548523%);fill-opacity:1;" d="M 113.972656 33.921875 C 113.972656 33.921875 125.488281 36.910156 127.109375 51.679688 C 127.109375 51.679688 121.546875 42.835938 115.246094 38.042969 C 115.246094 38.042969 121.527344 41.421875 126.148438 48.984375 C 126.148438 48.984375 122.40625 36.933594 113.972656 33.921875 "/>
<path style=" stroke:none;fill-rule:evenodd;fill:rgb(45.098877%,36.859131%,32.548523%);fill-opacity:1;" d="M 107.828125 32.25 C 107.828125 32.25 107.996094 26.792969 113.972656 25.253906 C 113.972656 25.253906 117.328125 24.96875 119.539062 27.429688 C 119.539062 27.429688 110.527344 23.003906 109.003906 32.25 L 107.828125 32.25 "/>
<path style=" stroke:none;fill-rule:evenodd;fill:rgb(45.098877%,36.859131%,32.548523%);fill-opacity:1;" d="M 113.269531 29.1875 C 113.269531 29.1875 118.402344 26.976562 123.722656 34.722656 C 123.722656 34.722656 119.589844 25.53125 113.269531 29.1875 "/>
<path style=" stroke:none;fill-rule:evenodd;fill:rgb(45.098877%,36.859131%,32.548523%);fill-opacity:1;" d="M 104.664062 30.171875 C 104.664062 30.171875 100.253906 30.050781 98.910156 37.121094 C 98.910156 37.121094 99.085938 29.375 104.664062 30.171875 "/>
<path style=" stroke:none;fill-rule:evenodd;fill:rgb(70.588684%,45.489502%,35.289001%);fill-opacity:1;" d="M 99.253906 56.828125 C 99.253906 56.828125 101.066406 51.792969 104.28125 49.292969 C 107.5 46.792969 109.570312 42.816406 109.9375 41.585938 L 109.019531 39.457031 C 109.019531 39.457031 106.203125 45.152344 103.738281 47.652344 C 101.273438 50.152344 98.925781 52.394531 99.253906 56.828125 "/>
<path style=" stroke:none;fill-rule:evenodd;fill:rgb(70.588684%,45.489502%,35.289001%);fill-opacity:1;" d="M 108.160156 43.269531 C 108.160156 43.269531 109.976562 46.253906 113.644531 48.140625 C 117.3125 50.03125 124.226562 52.109375 125.84375 55.019531 C 125.84375 55.019531 123.988281 51.839844 119.539062 49.582031 C 115.089844 47.320312 112.046875 45.007812 110.757812 42.753906 C 109.46875 40.503906 109.019531 39.457031 109.019531 39.457031 L 108.160156 43.269531 "/>
<path style=" stroke:none;fill-rule:evenodd;fill:rgb(70.588684%,45.489502%,35.289001%);fill-opacity:1;" d="M 119.511719 75.652344 C 115.472656 78.351562 109.898438 78.351562 105.863281 75.652344 L 107.761719 74.132812 C 112.640625 75.960938 112.730469 75.960938 117.609375 74.132812 L 119.511719 75.652344 "/>
<path style=" stroke:none;fill-rule:evenodd;fill:rgb(61.178589%,9.408569%,47.44873%);fill-opacity:1;" d="M 127.007812 105.1875 C 124.660156 106.460938 121.472656 106.992188 119.511719 106.328125 C 116.535156 105.324219 113.828125 105.386719 113.828125 105.386719 L 111.453125 105.386719 C 111.445312 105.433594 110.367188 105.855469 110.257812 105.894531 C 110.03125 106.125 109.035156 107.226562 108.808594 107.324219 C 108.566406 107.183594 108.292969 107.09375 108.054688 106.980469 C 107.988281 107.21875 107.792969 107.671875 107.640625 107.84375 C 107.035156 107.761719 106.460938 107.582031 105.847656 107.613281 C 105.40625 107.671875 104.800781 107.921875 104.433594 107.707031 C 104.09375 107.507812 104.28125 106.945312 104.402344 106.605469 C 102.679688 106.769531 100.558594 106.371094 98.703125 105.421875 C 99.722656 108.398438 99.132812 111.582031 98.75 114.566406 C 98.75 114.566406 101.742188 109.421875 111.453125 109.421875 L 113.828125 109.421875 C 123.535156 109.421875 126.53125 114.566406 126.53125 114.566406 C 126.175781 110.027344 125.984375 106.996094 127.007812 105.1875 "/>
<path style=" stroke:none;fill-rule:evenodd;fill:rgb(61.178589%,9.408569%,47.44873%);fill-opacity:1;" d="M 105.664062 106.589844 C 105.871094 106.722656 106.089844 106.71875 106.328125 106.734375 C 106.59375 106.75 106.878906 106.761719 107.121094 106.867188 C 107.183594 106.679688 107.257812 106.496094 107.34375 106.3125 C 107.167969 106.234375 107.003906 106.132812 106.859375 106.003906 C 106.503906 106.097656 106.140625 106.203125 105.769531 106.328125 C 105.660156 106.363281 105.550781 106.398438 105.433594 106.425781 C 105.519531 106.480469 105.597656 106.550781 105.664062 106.589844 "/>
<path style=" stroke:none;fill-rule:evenodd;fill:rgb(61.178589%,9.408569%,47.44873%);fill-opacity:1;" d="M 109.40625 105.515625 C 109.085938 105.554688 108.742188 105.605469 108.375 105.671875 C 108.371094 105.691406 108.367188 105.710938 108.359375 105.734375 C 108.320312 105.839844 108.285156 105.957031 108.257812 106.082031 C 108.722656 106.292969 109.070312 105.890625 109.40625 105.515625 "/>
<path style=" stroke:none;fill-rule:evenodd;fill:rgb(61.178589%,9.408569%,47.44873%);fill-opacity:1;" d="M 118.433594 163.132812 C 119.179688 163.554688 120.539062 164.148438 120.980469 164.265625 C 121.597656 164.429688 125.554688 162.460938 125.554688 162.460938 C 125.554688 162.460938 123.207031 165.667969 122.132812 165.929688 C 121.390625 166.113281 119.578125 165.753906 118.519531 165.476562 C 118.753906 172.433594 118.757812 179.855469 118.253906 186.515625 C 118.253906 186.515625 114.871094 186.277344 114.75 184.679688 C 114.632812 183.082031 115.246094 168.980469 115.210938 165.539062 C 115.175781 162.09375 114.917969 151.226562 114.253906 147.636719 C 113.71875 144.738281 113.003906 141.296875 112.75 140.078125 C 112.6875 140.078125 112.632812 140.074219 112.574219 140.078125 C 112.320312 141.292969 111.605469 144.738281 111.066406 147.636719 C 110.402344 151.226562 110.148438 162.09375 110.109375 165.539062 C 110.074219 168.980469 110.691406 183.082031 110.570312 184.679688 C 110.453125 186.277344 107.066406 186.515625 107.066406 186.515625 C 106.5625 179.855469 106.570312 172.433594 106.800781 165.476562 C 105.746094 165.753906 103.929688 166.113281 103.1875 165.929688 C 102.113281 165.667969 99.765625 162.460938 99.765625 162.460938 C 99.765625 162.460938 103.722656 164.429688 104.339844 164.265625 C 104.78125 164.148438 106.140625 163.554688 106.886719 163.132812 C 107.339844 152.109375 108.300781 142.671875 108.585938 140 C 104.796875 139.78125 99.203125 139.039062 95.488281 136.691406 L 95.488281 134.679688 C 95.488281 134.679688 99.640625 136.539062 101.589844 136.875 C 109.820312 138.304688 115.46875 138.300781 123.691406 136.875 C 125.640625 136.539062 129.789062 134.679688 129.789062 134.679688 L 129.789062 136.691406 C 126.089844 139.03125 120.523438 139.773438 116.734375 140 C 117.019531 142.664062 117.980469 152.105469 118.433594 163.132812 "/>
<path style=" stroke:none;fill-rule:evenodd;fill:rgb(41.958618%,52.549744%,56.469727%);fill-opacity:1;" d="M 115.773438 187.652344 C 115.773438 187.652344 119.605469 190.0625 123.859375 188.09375 C 123.859375 188.09375 123.574219 186.273438 123.53125 186.476562 C 123.492188 186.675781 120.546875 187.292969 119.816406 187.1875 C 119.089844 187.078125 115.976562 186.160156 115.976562 186.160156 L 115.773438 187.652344 "/>
<path style=" stroke:none;fill-rule:evenodd;fill:rgb(41.958618%,52.549744%,56.469727%);fill-opacity:1;" d="M 109.660156 187.652344 C 109.660156 187.652344 105.832031 190.0625 101.574219 188.09375 C 101.574219 188.09375 101.859375 186.273438 101.902344 186.476562 C 101.941406 186.675781 104.886719 187.292969 105.617188 187.1875 C 106.347656 187.078125 109.457031 186.160156 109.457031 186.160156 L 109.660156 187.652344 "/>
<path style=" stroke:none;fill-rule:evenodd;fill:rgb(61.178589%,9.408569%,47.44873%);fill-opacity:1;" d="M 126.257812 89.164062 C 126.257812 89.164062 133.617188 94.332031 138.949219 100.355469 C 138.949219 100.355469 136.976562 103.574219 136.566406 103.875 C 136.160156 104.175781 135.710938 104.660156 135.710938 104.660156 L 128.976562 97.578125 C 128.976562 97.578125 126.628906 89.902344 126.257812 89.164062 "/>
<path style=" stroke:none;fill-rule:evenodd;fill:rgb(70.588684%,45.489502%,35.289001%);fill-opacity:1;" d="M 138.378906 103.929688 C 138.378906 103.929688 141.769531 99.914062 142.730469 96.019531 L 141.699219 94.945312 C 141.699219 94.945312 139.621094 99.359375 139.183594 100.109375 C 138.75 100.855469 137.371094 102.824219 137.371094 102.824219 L 138.378906 103.929688 "/>
<path style=" stroke:none;fill-rule:evenodd;fill:rgb(70.588684%,45.489502%,35.289001%);fill-opacity:1;" d="M 138.949219 102.65625 L 142.417969 105.925781 L 141.40625 106.996094 L 137.910156 103.871094 L 138.949219 102.65625 "/>
<path style=" stroke:none;fill-rule:evenodd;fill:rgb(70.588684%,45.489502%,35.289001%);fill-opacity:1;" d="M 128.609375 125.46875 C 128.609375 125.46875 134.214844 126.761719 134.707031 121.433594 C 134.707031 121.433594 144.046875 116.105469 148.183594 112.527344 C 150.019531 110.9375 151.15625 109.371094 150.328125 106.789062 C 150.328125 106.789062 151.765625 108.179688 152.050781 110.101562 C 152.335938 112.023438 149.640625 113.46875 147.28125 115.394531 C 144.925781 117.320312 136.070312 122.703125 136.070312 122.703125 C 136.070312 122.703125 134.828125 125.324219 132.605469 126.269531 C 130.378906 127.210938 128.484375 126.265625 128.609375 125.46875 "/>
<path style=" stroke:none;fill-rule:evenodd;fill:rgb(93.328857%,69.018555%,54.119873%);fill-opacity:1;" d="M 74.261719 107.664062 C 77.46875 102.234375 79.953125 99.539062 83.726562 94.945312 C 83.726562 94.945312 85.53125 99.105469 86.238281 100.109375 C 86.945312 101.113281 88.292969 103.171875 88.292969 103.171875 L 84.015625 106.996094 C 84.015625 106.996094 85.625 110.40625 86.519531 111.699219 C 87.417969 112.988281 90.632812 118.398438 92.242188 118.339844 C 93.847656 118.277344 97.835938 115.882812 97.835938 115.882812 C 97.835938 115.882812 100.71875 115.601562 101.582031 116.277344 C 102.445312 116.953125 106.246094 120.765625 106.246094 120.765625 C 106.246094 120.765625 106.371094 121.597656 105.722656 121.535156 C 105.070312 121.472656 104.453125 121.257812 104.453125 121.257812 L 101.582031 119.046875 L 99.136719 119.015625 L 103.15625 121.71875 L 105.691406 124.117188 C 105.691406 124.117188 105.535156 125.101562 105.039062 125.039062 C 104.546875 124.980469 104.035156 124.855469 104.035156 124.855469 C 104.035156 124.855469 103.980469 125.660156 103.554688 125.6875 C 103.125 125.714844 102.90625 125.875 102.535156 125.6875 C 102.164062 125.5 100.25 123.996094 100.25 123.996094 L 98.332031 123.65625 C 98.332031 123.65625 99.507812 124.515625 99.816406 125.070312 C 100.125 125.625 101.144531 127.59375 101.144531 127.59375 C 101.144531 127.59375 101.175781 128.390625 100.648438 128.359375 C 100.125 128.328125 100 128.484375 99.597656 128.113281 C 99.199219 127.746094 98.082031 125.6875 98.082031 125.6875 C 98.082031 125.6875 97.191406 125.917969 96.835938 126.15625 C 96.476562 126.394531 94.902344 126.992188 93.074219 126.371094 C 91.25 125.746094 89.921875 123.351562 89.796875 122.640625 C 89.796875 122.640625 79.316406 117.355469 75.851562 113.726562 C 73.355469 111.109375 72.214844 111.128906 74.261719 107.664062 "/>
<path style=" stroke:none;fill-rule:evenodd;fill:rgb(70.588684%,45.489502%,35.289001%);fill-opacity:1;" d="M 87.042969 103.929688 C 87.042969 103.929688 83.65625 99.914062 82.691406 96.019531 L 83.726562 94.945312 C 83.726562 94.945312 85.800781 99.359375 86.238281 100.109375 C 86.675781 100.855469 88.050781 102.824219 88.050781 102.824219 L 87.042969 103.929688 "/>
<path style=" stroke:none;fill-rule:evenodd;fill:rgb(70.588684%,45.489502%,35.289001%);fill-opacity:1;" d="M 86.472656 102.65625 L 83.003906 105.925781 L 84.015625 106.996094 L 87.511719 103.871094 L 86.472656 102.65625 "/>
<path style=" stroke:none;fill-rule:evenodd;fill:rgb(70.588684%,45.489502%,35.289001%);fill-opacity:1;" d="M 96.816406 125.46875 C 96.816406 125.46875 91.210938 126.761719 90.714844 121.433594 C 90.714844 121.433594 76.78125 113.480469 75.421875 110.488281 C 75.421875 110.488281 73.816406 108.21875 75.050781 106.742188 C 75.050781 106.742188 73.582031 108.101562 73.296875 110.023438 C 73.011719 111.945312 76.335938 114.136719 78.691406 116.0625 C 81.050781 117.992188 89.355469 122.703125 89.355469 122.703125 C 89.355469 122.703125 90.59375 125.324219 92.820312 126.269531 C 95.042969 127.210938 96.9375 126.265625 96.816406 125.46875 "/>
<path style=" stroke:none;fill-rule:evenodd;fill:rgb(96.859741%,59.999084%,81.959534%);fill-opacity:1;" d="M 125.792969 88.304688 C 125.792969 88.304688 127.585938 96.15625 127.617188 97.578125 C 127.648438 99.003906 126.011719 104.878906 125.578125 105.320312 C 125.144531 105.765625 124.324219 106.28125 124.324219 106.28125 C 124.324219 106.28125 126.035156 105.695312 126.402344 105.507812 C 126.769531 105.320312 128.882812 99.003906 128.914062 97.863281 C 128.945312 96.726562 126.90625 90.085938 125.792969 88.304688 "/>
<path style=" stroke:none;fill-rule:evenodd;fill:rgb(61.178589%,9.408569%,47.44873%);fill-opacity:1;" d="M 99.128906 89.164062 C 99.128906 89.164062 91.769531 94.332031 86.433594 100.355469 C 86.433594 100.355469 88.410156 103.574219 88.816406 103.875 C 89.226562 104.175781 89.675781 104.660156 89.675781 104.660156 L 96.40625 97.578125 C 96.40625 97.578125 98.757812 89.902344 99.128906 89.164062 "/>
<path style=" stroke:none;fill-rule:evenodd;fill:rgb(96.859741%,59.999084%,81.959534%);fill-opacity:1;" d="M 99.59375 88.304688 C 99.59375 88.304688 97.800781 96.15625 97.769531 97.578125 C 97.738281 99.003906 99.375 104.878906 99.808594 105.320312 C 100.242188 105.765625 101.0625 106.28125 101.0625 106.28125 C 100.375 106.234375 99.28125 105.761719 98.890625 105.507812 C 98.527344 105.320312 96.503906 99.003906 96.472656 97.863281 C 96.4375 96.726562 98.480469 90.085938 99.59375 88.304688 "/>
<path style=" stroke:none;fill-rule:evenodd;fill:rgb(5.099487%,5.099487%,5.099487%);fill-opacity:1;" d="M 118.050781 74.023438 C 118.058594 74.082031 118.0625 74.140625 118.066406 74.203125 C 118.070312 74.230469 118.070312 74.261719 118.070312 74.292969 C 118.0625 74.519531 118.007812 74.742188 117.917969 74.949219 C 118.15625 75.082031 118.476562 75.257812 118.90625 75.496094 C 119.503906 75.820312 120.742188 76.492188 122.402344 77.34375 C 122.578125 77.082031 122.816406 76.867188 123.089844 76.730469 C 120.628906 75.472656 118.601562 74.359375 118.050781 74.023438 "/>
<path style=" stroke:none;fill-rule:evenodd;fill:rgb(5.099487%,5.099487%,5.099487%);fill-opacity:1;" d="M 129.597656 166.808594 C 129.605469 168.0625 129.527344 169.164062 129.347656 169.863281 C 129.230469 170.3125 128.945312 171.21875 128.589844 172.367188 C 127.355469 176.308594 125.058594 183.648438 125.304688 186.109375 L 125.339844 186.433594 C 124.609375 186.722656 123.890625 186.960938 123.132812 187.164062 C 122.183594 187.414062 121.007812 187.652344 119.929688 187.652344 C 118.699219 187.652344 117.261719 187.144531 116.164062 186.660156 C 115.488281 186.363281 114.839844 186.027344 114.207031 185.652344 L 114.21875 185.390625 C 114.238281 185.066406 115.917969 155.507812 112.660156 141.359375 C 109.398438 155.507812 111.078125 185.066406 111.097656 185.390625 L 111.113281 185.652344 C 110.476562 186.027344 109.832031 186.363281 109.152344 186.660156 C 108.054688 187.144531 106.621094 187.652344 105.390625 187.652344 C 104.308594 187.652344 103.136719 187.414062 102.183594 187.164062 C 101.429688 186.964844 100.703125 186.722656 99.976562 186.433594 L 100.011719 186.109375 C 100.257812 183.648438 97.960938 176.308594 96.726562 172.367188 C 96.367188 171.21875 96.085938 170.3125 95.96875 169.863281 C 95.789062 169.164062 95.710938 168.058594 95.71875 166.808594 C 95.722656 166.53125 95.726562 166.246094 95.738281 165.953125 C 95.8125 163.828125 96.113281 161.460938 96.5625 159.960938 C 97.261719 157.644531 96.5625 154.640625 96.558594 154.605469 C 94.644531 146.375 94.992188 138.25 95.25 134.980469 C 95.257812 134.875 95.265625 134.773438 95.273438 134.679688 C 95.488281 134.859375 95.835938 135.042969 96.109375 135.117188 C 96.101562 135.214844 96.09375 135.316406 96.085938 135.417969 C 95.835938 138.847656 95.582031 146.578125 97.398438 154.410156 C 97.429688 154.542969 98.160156 157.667969 97.390625 160.210938 C 96.648438 162.675781 96.332031 167.792969 96.808594 169.652344 C 96.917969 170.078125 97.199219 170.972656 97.554688 172.109375 C 98.839844 176.222656 100.960938 182.992188 100.890625 185.863281 C 101.640625 186.125 103.683594 186.789062 105.390625 186.789062 C 107.132812 186.789062 109.488281 185.574219 110.21875 185.175781 C 110.132812 183.617188 109.722656 175.511719 109.78125 166.269531 C 109.851562 154.421875 110.613281 145.664062 112.058594 140.164062 C 112.175781 139.714844 112.652344 138.15625 112.660156 138.175781 C 112.675781 138.128906 113.152344 139.757812 113.265625 140.195312 C 114.703125 145.695312 115.46875 154.441406 115.539062 166.269531 C 115.59375 175.511719 115.183594 183.617188 115.097656 185.175781 C 115.832031 185.574219 118.183594 186.789062 119.929688 186.789062 C 121.628906 186.789062 123.675781 186.125 124.425781 185.863281 C 124.355469 182.992188 126.476562 176.222656 127.761719 172.109375 C 128.117188 170.972656 128.398438 170.078125 128.507812 169.652344 C 128.984375 167.792969 128.667969 162.675781 127.925781 160.210938 C 127.15625 157.667969 127.886719 154.542969 127.917969 154.410156 C 129.734375 146.578125 129.480469 138.847656 129.230469 135.417969 C 129.222656 135.316406 129.21875 135.214844 129.210938 135.117188 C 129.480469 135.039062 129.828125 134.859375 130.042969 134.679688 C 130.050781 134.773438 130.058594 134.875 130.066406 134.980469 C 130.324219 138.25 130.671875 146.375 128.761719 154.605469 C 128.753906 154.640625 128.054688 157.644531 128.753906 159.960938 C 129.207031 161.460938 129.503906 163.828125 129.578125 165.953125 C 129.589844 166.246094 129.59375 166.53125 129.597656 166.808594 "/>
<g clip-path="url(#clip1)" clip-rule="nonzero">
<path style=" stroke:none;fill-rule:evenodd;fill:rgb(5.099487%,5.099487%,5.099487%);fill-opacity:1;" d="M 126.957031 193.214844 C 124.90625 190.542969 124.136719 187.820312 123.855469 186.375 C 123.648438 186.464844 123.421875 186.511719 123.183594 186.496094 C 123.109375 186.492188 123.0625 186.484375 123.035156 186.480469 C 123.007812 186.484375 123 186.488281 122.988281 186.492188 C 123.277344 188.015625 124.074219 190.875 126.265625 193.734375 C 127.824219 195.765625 129.425781 198.042969 128.765625 199.40625 C 128.207031 200.554688 126.054688 201.171875 122.363281 201.25 C 119.144531 201.316406 117.152344 200.773438 116.085938 199.535156 C 114.257812 197.414062 115.011719 193.167969 116.152344 186.742188 C 116.191406 186.511719 116.234375 186.273438 116.273438 186.039062 C 116.160156 186.023438 116.046875 186.003906 115.929688 185.984375 C 115.75 185.957031 115.585938 185.886719 115.441406 185.792969 C 115.390625 186.0625 115.34375 186.328125 115.296875 186.589844 C 114.117188 193.257812 113.335938 197.667969 115.429688 200.097656 C 116.613281 201.46875 118.664062 202.117188 121.859375 202.117188 C 122.03125 202.117188 122.203125 202.113281 122.378906 202.109375 C 126.539062 202.027344 128.816406 201.285156 129.542969 199.78125 C 130.417969 197.976562 128.820312 195.644531 126.957031 193.214844 "/>
</g>
<path style=" stroke:none;fill-rule:evenodd;fill:rgb(5.099487%,5.099487%,5.099487%);fill-opacity:1;" d="M 122.898438 200.292969 C 117.144531 200.292969 114.816406 199.273438 114.3125 196.527344 L 114.800781 196.4375 C 115.179688 198.515625 116.667969 199.804688 122.898438 199.804688 C 128.519531 199.804688 128.953125 197.726562 128.953125 197.707031 L 129.445312 197.769531 C 129.429688 197.871094 129.042969 200.292969 122.898438 200.292969 "/>
<path style=" stroke:none;fill-rule:evenodd;fill:rgb(5.099487%,5.099487%,5.099487%);fill-opacity:1;" d="M 121.664062 76.277344 C 121.574219 76.429688 121.464844 76.601562 121.34375 76.792969 C 119.980469 78.960938 116.898438 83.546875 113.308594 86.886719 C 113.09375 87.085938 112.875 87.28125 112.660156 87.46875 C 112.441406 87.28125 112.222656 87.085938 112.011719 86.886719 C 112.230469 86.699219 112.445312 86.503906 112.660156 86.304688 C 116.136719 83.074219 119.199219 78.550781 120.574219 76.390625 C 120.691406 76.203125 120.796875 76.03125 120.890625 75.882812 C 121.109375 76.078125 121.378906 76.214844 121.664062 76.277344 "/>
<path style=" stroke:none;fill-rule:evenodd;fill:rgb(5.099487%,5.099487%,5.099487%);fill-opacity:1;" d="M 117.636719 74.441406 L 117.269531 78.4375 C 117.269531 78.4375 118.195312 76.132812 118.320312 74.132812 L 117.636719 74.441406 "/>
<path style=" stroke:none;fill-rule:evenodd;fill:rgb(5.099487%,5.099487%,5.099487%);fill-opacity:1;" d="M 107.386719 74.285156 L 107.246094 74.292969 C 107.234375 74.144531 107.304688 74.03125 107.363281 73.96875 C 107.007812 74.199219 104.867188 75.382812 102.226562 76.730469 C 102.503906 76.867188 102.738281 77.082031 102.914062 77.34375 C 104.574219 76.492188 105.816406 75.820312 106.410156 75.496094 C 106.964844 75.191406 107.332031 74.988281 107.582031 74.84375 C 107.484375 74.667969 107.417969 74.480469 107.386719 74.285156 "/>
<g clip-path="url(#clip2)" clip-rule="nonzero">
<path style=" stroke:none;fill-rule:evenodd;fill:rgb(5.099487%,5.099487%,5.099487%);fill-opacity:1;" d="M 98.359375 193.214844 C 100.410156 190.542969 101.179688 187.820312 101.464844 186.375 C 101.667969 186.464844 101.894531 186.511719 102.132812 186.496094 C 102.207031 186.492188 102.253906 186.484375 102.28125 186.480469 C 102.3125 186.484375 102.320312 186.488281 102.328125 186.492188 C 102.042969 188.015625 101.242188 190.875 99.050781 193.734375 C 97.496094 195.765625 95.890625 198.042969 96.550781 199.40625 C 97.109375 200.554688 99.261719 201.171875 102.957031 201.25 C 106.171875 201.316406 108.167969 200.773438 109.230469 199.535156 C 111.058594 197.414062 110.304688 193.167969 109.167969 186.742188 C 109.125 186.511719 109.085938 186.273438 109.042969 186.039062 C 109.15625 186.023438 109.273438 186.003906 109.386719 185.984375 C 109.566406 185.957031 109.730469 185.886719 109.878906 185.792969 C 109.925781 186.0625 109.972656 186.328125 110.019531 186.589844 C 111.203125 193.257812 111.984375 197.667969 109.886719 200.097656 C 108.703125 201.46875 106.652344 202.117188 103.457031 202.117188 C 103.285156 202.117188 103.113281 202.113281 102.9375 202.109375 C 98.777344 202.027344 96.5 201.285156 95.773438 199.78125 C 94.898438 197.976562 96.496094 195.644531 98.359375 193.214844 "/>
</g>
<path style=" stroke:none;fill-rule:evenodd;fill:rgb(5.099487%,5.099487%,5.099487%);fill-opacity:1;" d="M 102.421875 200.292969 C 108.171875 200.292969 110.5 199.273438 111.003906 196.527344 L 110.515625 196.4375 C 110.136719 198.515625 108.648438 199.804688 102.421875 199.804688 C 96.796875 199.804688 96.363281 197.726562 96.363281 197.707031 L 95.871094 197.769531 C 95.886719 197.871094 96.277344 200.292969 102.421875 200.292969 "/>
<path style=" stroke:none;fill-rule:evenodd;fill:rgb(5.099487%,5.099487%,5.099487%);fill-opacity:1;" d="M 113.308594 86.886719 C 113.09375 87.085938 112.875 87.28125 112.660156 87.46875 C 112.441406 87.28125 112.222656 87.085938 112.011719 86.886719 C 108.421875 83.546875 105.335938 78.960938 103.972656 76.796875 C 103.851562 76.601562 103.742188 76.429688 103.652344 76.277344 C 103.9375 76.214844 104.207031 76.078125 104.425781 75.882812 C 104.519531 76.03125 104.625 76.199219 104.746094 76.390625 C 106.117188 78.550781 109.179688 83.074219 112.660156 86.304688 C 112.875 86.503906 113.089844 86.699219 113.308594 86.886719 "/>
<path style=" stroke:none;fill-rule:evenodd;fill:rgb(5.099487%,5.099487%,5.099487%);fill-opacity:1;" d="M 107.679688 74.441406 L 108.046875 78.4375 C 108.046875 78.4375 107.121094 76.132812 106.996094 74.132812 L 107.679688 74.441406 "/>
<path style=" stroke:none;fill-rule:evenodd;fill:rgb(5.099487%,5.099487%,5.099487%);fill-opacity:1;" d="M 107.316406 138.132812 C 101.703125 137.667969 98.140625 136.429688 96.085938 135.417969 C 95.773438 135.265625 95.496094 135.121094 95.25 134.980469 C 94.277344 134.425781 93.824219 134.015625 93.765625 133.960938 L 93.636719 133.839844 L 93.632812 133.664062 C 93.566406 131.953125 94.085938 129.480469 94.773438 127.023438 C 94.8125 126.886719 94.851562 126.746094 94.890625 126.605469 C 95.292969 126.605469 95.46875 126.613281 95.855469 126.371094 C 95.835938 126.433594 95.816406 126.496094 95.796875 126.558594 C 95.761719 126.691406 95.722656 126.824219 95.683594 126.957031 C 94.957031 129.507812 94.472656 131.851562 94.492188 133.441406 C 95.203125 134.003906 98.875 136.554688 107.394531 137.269531 C 110.851562 137.5625 114.996094 137.550781 118.4375 137.226562 C 126.589844 136.449219 130.125 133.992188 130.824219 133.441406 C 130.84375 131.851562 130.359375 129.507812 129.632812 126.957031 C 129.578125 126.761719 129.519531 126.566406 129.464844 126.371094 C 129.898438 126.644531 129.9375 126.605469 130.425781 126.605469 C 130.464844 126.746094 130.503906 126.886719 130.546875 127.023438 C 131.140625 129.148438 131.753906 131.625 131.679688 133.839844 C 131.195312 134.296875 130.648438 134.648438 130.066406 134.980469 C 129.820312 135.117188 129.542969 135.265625 129.230469 135.417969 C 127.242188 136.394531 123.839844 137.589844 118.53125 138.085938 C 115.128906 138.402344 110.746094 138.414062 107.316406 138.132812 "/>
<path style=" stroke:none;fill-rule:evenodd;fill:rgb(5.099487%,5.099487%,5.099487%);fill-opacity:1;" d="M 126.148438 63.328125 C 126.136719 63.375 126.125 63.417969 126.113281 63.464844 C 125.996094 63.875 125.875 64.277344 125.746094 64.671875 C 124.808594 67.484375 123.445312 69.824219 121.667969 71.679688 C 117.734375 75.789062 113.238281 75.910156 113.046875 75.914062 L 112.542969 75.914062 C 112.347656 75.910156 107.847656 75.789062 103.914062 71.679688 C 102.148438 69.839844 100.792969 67.515625 99.859375 64.726562 C 99.8125 64.585938 99.765625 64.441406 99.71875 64.300781 C 99.625 64.003906 99.535156 63.703125 99.449219 63.394531 C 99.796875 63.660156 100.167969 63.914062 100.578125 64.152344 L 100.597656 64.210938 C 100.628906 64.3125 100.660156 64.414062 100.695312 64.511719 C 100.863281 65.003906 101.042969 65.484375 101.242188 65.949219 C 102.085938 67.960938 103.1875 69.675781 104.539062 71.089844 C 108.226562 74.9375 112.507812 75.054688 112.550781 75.054688 L 113.039062 75.054688 C 113.074219 75.050781 117.378906 74.921875 121.058594 71.070312 C 122.550781 69.503906 123.738281 67.570312 124.609375 65.273438 C 124.699219 65.046875 124.78125 64.816406 124.859375 64.585938 C 124.914062 64.425781 124.96875 64.269531 125.019531 64.105469 C 125.429688 63.859375 125.804688 63.601562 126.148438 63.328125 "/>
<path style=" stroke:none;fill-rule:evenodd;fill:rgb(5.099487%,5.099487%,5.099487%);fill-opacity:1;" d="M 108.035156 53.039062 C 107.675781 53.007812 106.8125 50.808594 105.328125 50.777344 C 103.84375 50.746094 102.960938 52.882812 102.960938 52.882812 C 103.519531 50.457031 105.449219 49.75 106.734375 50.777344 C 108.015625 51.808594 108.386719 53.070312 108.035156 53.039062 "/>
<path style=" stroke:none;fill-rule:evenodd;fill:rgb(5.099487%,5.099487%,5.099487%);fill-opacity:1;" d="M 122.621094 52.882812 C 122.621094 52.882812 121.738281 50.746094 120.253906 50.777344 C 118.769531 50.808594 117.90625 53.007812 117.546875 53.039062 C 117.195312 53.070312 117.566406 51.808594 118.847656 50.777344 C 119.21875 50.480469 119.640625 50.328125 120.070312 50.320312 C 120.839844 50.3125 121.613281 50.746094 122.132812 51.628906 C 122.339844 51.976562 122.507812 52.398438 122.621094 52.882812 "/>
<path style=" stroke:none;fill-rule:evenodd;fill:rgb(5.099487%,5.099487%,5.099487%);fill-opacity:1;" d="M 112.589844 31.28125 C 102.941406 31.28125 95.089844 40.113281 95.089844 50.972656 C 95.089844 52.707031 95.292969 54.386719 95.667969 55.988281 C 95.835938 55.6875 96.085938 55.4375 96.394531 55.265625 C 96.109375 53.886719 95.957031 52.449219 95.957031 50.972656 C 95.957031 40.589844 103.421875 32.140625 112.589844 32.140625 C 121.761719 32.140625 129.226562 40.589844 129.226562 50.972656 C 129.226562 52.5 129.0625 53.984375 128.757812 55.410156 C 129.042969 55.523438 129.308594 55.722656 129.523438 55.96875 C 129.894531 54.371094 130.09375 52.699219 130.09375 50.972656 C 130.09375 40.113281 122.242188 31.28125 112.589844 31.28125 "/>
<path style=" stroke:none;fill-rule:evenodd;fill:rgb(5.099487%,5.099487%,5.099487%);fill-opacity:1;" d="M 127.183594 56.582031 C 126.886719 57.011719 126.585938 57.675781 126.585938 57.675781 C 126.441406 57.160156 126.371094 56.851562 126.222656 56.460938 C 125.542969 54.644531 124.261719 53.132812 122.132812 51.628906 C 121.515625 51.195312 120.847656 50.761719 120.085938 50.320312 C 119.222656 49.832031 118.277344 49.335938 117.230469 48.820312 C 112.003906 46.25 109.820312 42.234375 109.035156 40.296875 C 108.308594 41.914062 106.691406 45.082031 104.117188 47.824219 C 102.246094 49.824219 100.257812 52.390625 99.507812 55.824219 C 99.378906 56.410156 99.207031 57.019531 99.078125 57.597656 L 98.902344 57.359375 L 98.457031 56.769531 C 98.582031 55.730469 98.878906 54.617188 99.246094 53.644531 C 100.238281 51.003906 101.902344 48.925781 103.484375 47.238281 C 106.921875 43.570312 108.648438 38.984375 108.667969 38.9375 L 109.152344 37.632812 L 109.492188 38.984375 C 109.507812 39.039062 111.050781 44.820312 117.613281 48.046875 C 121.363281 49.890625 123.617188 51.398438 125.144531 53.09375 C 125.5625 53.5625 125.929688 54.042969 126.242188 54.542969 C 126.640625 55.183594 126.949219 55.867188 127.183594 56.582031 "/>
<path style=" stroke:none;fill-rule:evenodd;fill:rgb(5.099487%,5.099487%,5.099487%);fill-opacity:1;" d="M 125.746094 64.671875 C 125.546875 64.796875 125.335938 64.921875 125.121094 65.042969 L 124.859375 64.585938 C 124.914062 64.425781 124.96875 64.269531 125.019531 64.105469 C 125.429688 63.859375 125.804688 63.601562 126.148438 63.328125 C 128.902344 61.164062 129.582031 58.339844 129.304688 56.777344 C 129.199219 56.171875 128.9375 55.75 128.640625 55.699219 C 128.066406 55.605469 127.640625 55.953125 127.335938 56.382812 C 127.285156 56.445312 127.234375 56.507812 127.183594 56.582031 C 126.886719 57.011719 126.585938 57.675781 126.585938 57.675781 C 126.578125 57.636719 126.574219 57.617188 126.566406 57.589844 C 126.515625 57.402344 126.40625 57.035156 126.332031 56.789062 C 126.292969 56.671875 126.265625 56.578125 126.257812 56.546875 C 126.285156 56.46875 126.320312 56.398438 126.359375 56.328125 C 126.480469 56.09375 126.636719 55.851562 126.820312 55.632812 C 127.269531 55.105469 127.902344 54.707031 128.78125 54.851562 C 129.476562 54.964844 129.980469 55.613281 130.160156 56.628906 C 130.503906 58.574219 129.582031 62.226562 125.746094 64.671875 "/>
<path style=" stroke:none;fill-rule:evenodd;fill:rgb(5.099487%,5.099487%,5.099487%);fill-opacity:1;" d="M 100.695312 64.511719 L 100.394531 65.042969 C 100.210938 64.941406 100.03125 64.835938 99.859375 64.726562 C 95.949219 62.28125 95.007812 58.589844 95.359375 56.628906 C 95.535156 55.613281 96.039062 54.964844 96.734375 54.851562 C 97.589844 54.710938 98.21875 55.085938 98.664062 55.597656 C 98.902344 55.871094 99.089844 56.183594 99.234375 56.476562 L 98.902344 57.359375 L 98.457031 56.769531 L 98.265625 56.519531 C 97.964844 56.027344 97.507812 55.597656 96.875 55.699219 C 96.578125 55.75 96.316406 56.171875 96.210938 56.777344 C 95.929688 58.355469 96.628906 61.21875 99.449219 63.394531 C 99.796875 63.660156 100.167969 63.914062 100.578125 64.152344 L 100.597656 64.210938 C 100.628906 64.3125 100.660156 64.414062 100.695312 64.511719 "/>
<path style=" stroke:none;fill-rule:evenodd;fill:rgb(70.588684%,45.489502%,35.289001%);fill-opacity:1;" d="M 125.652344 62.082031 C 125.652344 62.082031 127.097656 60.882812 126.921875 60.105469 C 126.746094 59.332031 127.34375 57.542969 128.566406 56.628906 C 128.566406 56.628906 127.550781 58.21875 127.363281 59.46875 C 127.363281 59.46875 128.097656 60.652344 125.652344 62.082031 "/>
<path style=" stroke:none;fill-rule:evenodd;fill:rgb(70.588684%,45.489502%,35.289001%);fill-opacity:1;" d="M 127.886719 57.675781 C 127.886719 57.675781 128.335938 57.253906 128.691406 57.65625 C 129.046875 58.054688 128.101562 60.546875 126.757812 61.191406 C 126.757812 61.191406 127.222656 60.390625 127.183594 59.746094 C 127.144531 59.101562 127.886719 57.675781 127.886719 57.675781 "/>
<path style=" stroke:none;fill-rule:evenodd;fill:rgb(70.588684%,45.489502%,35.289001%);fill-opacity:1;" d="M 100.011719 62.082031 C 100.011719 62.082031 98.570312 60.882812 98.742188 60.105469 C 98.917969 59.332031 98.320312 57.542969 97.097656 56.628906 C 97.097656 56.628906 98.117188 58.21875 98.304688 59.46875 C 98.304688 59.46875 97.570312 60.652344 100.011719 62.082031 "/>
<path style=" stroke:none;fill-rule:evenodd;fill:rgb(70.588684%,45.489502%,35.289001%);fill-opacity:1;" d="M 97.78125 57.675781 C 97.78125 57.675781 97.332031 57.253906 96.976562 57.65625 C 96.621094 58.054688 97.566406 60.546875 98.910156 61.191406 C 98.910156 61.191406 98.441406 60.390625 98.484375 59.746094 C 98.523438 59.101562 97.78125 57.675781 97.78125 57.675781 "/>
<path style=" stroke:none;fill-rule:evenodd;fill:rgb(5.099487%,5.099487%,5.099487%);fill-opacity:1;" d="M 125.957031 39.339844 C 126.175781 39.683594 126.386719 40.035156 126.597656 40.382812 C 126.15625 35.941406 124.21875 31.238281 121.339844 28.007812 C 119.375 25.804688 117.273438 24.640625 115.269531 24.640625 C 112.171875 24.640625 110.207031 26.085938 109.105469 27.300781 C 108.421875 28.054688 107.980469 28.804688 107.726562 29.320312 C 107.101562 28.695312 105.894531 27.738281 104.242188 27.59375 C 102.542969 27.449219 100.832031 28.191406 99.148438 29.800781 C 94.882812 33.894531 95.847656 42.683594 96.308594 45.601562 C 96.464844 45.039062 96.734375 44.472656 96.972656 43.945312 C 96.578125 40.335938 96.390625 33.644531 99.75 30.421875 C 101.242188 28.992188 102.722656 28.328125 104.15625 28.453125 C 106.195312 28.625 107.488281 30.347656 107.5 30.363281 L 107.992188 31.035156 L 108.261719 30.25 C 108.277344 30.203125 109.953125 25.5 115.269531 25.5 C 116.996094 25.5 118.921875 26.59375 120.691406 28.578125 C 123.113281 31.292969 124.839844 35.089844 125.511719 38.855469 C 125.675781 38.976562 125.828125 39.136719 125.957031 39.339844 "/>
<path style=" stroke:none;fill-rule:evenodd;fill:rgb(5.099487%,5.099487%,5.099487%);fill-opacity:1;" d="M 124.179688 82.757812 C 123.925781 80.066406 123.367188 77.980469 122.917969 76.652344 C 122.890625 76.667969 122.855469 76.679688 122.816406 76.675781 C 122.714844 76.671875 122.613281 76.65625 122.515625 76.636719 C 122.960938 77.929688 123.542969 80.046875 123.808594 82.8125 C 124.222656 87.179688 123.898438 94.09375 120.015625 102.28125 L 119.058594 102.28125 C 118.976562 102.109375 118.832031 101.714844 119.054688 101.332031 L 119.960938 101.269531 L 120.007812 101.179688 C 120.023438 101.152344 121.582031 98.289062 122.644531 93.890625 C 123.625 89.832031 124.375 83.585938 122.382812 76.902344 L 122.019531 77.007812 C 123.988281 83.609375 123.246094 89.777344 122.28125 93.792969 C 121.332031 97.710938 119.992188 100.394531 119.726562 100.910156 L 118.847656 100.972656 L 118.796875 101.042969 C 118.273438 101.765625 118.769531 102.539062 118.792969 102.570312 L 118.847656 102.65625 L 120.253906 102.65625 L 120.304688 102.546875 C 124.277344 94.230469 124.605469 87.195312 124.179688 82.757812 "/>
<path style=" stroke:none;fill-rule:evenodd;fill:rgb(5.099487%,5.099487%,5.099487%);fill-opacity:1;" d="M 120.972656 100.570312 C 120.960938 100.597656 120.953125 100.625 120.949219 100.648438 C 120.945312 100.671875 120.941406 100.683594 120.9375 100.691406 C 120.960938 100.890625 120.835938 101.03125 120.679688 101.085938 C 120.703125 101.488281 120.683594 101.917969 120.605469 102.355469 C 120.3125 104 119.335938 105.246094 118.332031 105.347656 C 118.210938 105.359375 118.09375 105.355469 117.972656 105.335938 C 117.8125 105.308594 117.664062 105.25 117.523438 105.164062 C 116.6875 104.664062 116.25 103.21875 116.527344 101.640625 C 116.808594 100.0625 117.71875 98.851562 118.679688 98.667969 C 118.839844 98.636719 119 98.632812 119.160156 98.660156 C 119.277344 98.679688 119.390625 98.71875 119.496094 98.769531 C 119.871094 98.949219 120.167969 99.304688 120.375 99.773438 C 120.382812 99.75 120.390625 99.722656 120.402344 99.695312 C 120.449219 99.570312 120.53125 99.492188 120.632812 99.457031 C 120.535156 99.269531 120.425781 99.097656 120.300781 98.949219 C 120.089844 98.699219 119.84375 98.503906 119.566406 98.390625 C 119.457031 98.34375 119.34375 98.3125 119.222656 98.289062 C 117.894531 98.058594 116.519531 99.53125 116.15625 101.574219 C 115.792969 103.621094 116.578125 105.472656 117.910156 105.707031 C 118.027344 105.726562 118.144531 105.734375 118.265625 105.726562 C 118.566406 105.714844 118.867188 105.617188 119.152344 105.449219 C 120.007812 104.949219 120.726562 103.816406 120.976562 102.421875 C 121.09375 101.757812 121.089844 101.117188 120.984375 100.542969 C 120.980469 100.550781 120.976562 100.5625 120.972656 100.570312 "/>
<path style=" stroke:none;fill-rule:evenodd;fill:rgb(5.099487%,5.099487%,5.099487%);fill-opacity:1;" d="M 118.667969 105.457031 C 118.550781 105.4375 118.4375 105.398438 118.332031 105.347656 C 117.417969 104.910156 116.929688 103.410156 117.222656 101.761719 C 117.515625 100.117188 118.488281 98.871094 119.496094 98.769531 C 119.617188 98.757812 119.734375 98.761719 119.851562 98.78125 C 120.011719 98.808594 120.160156 98.867188 120.300781 98.949219 C 120.089844 98.699219 119.84375 98.503906 119.566406 98.390625 C 119.261719 98.402344 118.964844 98.5 118.679688 98.667969 C 117.820312 99.167969 117.097656 100.296875 116.851562 101.695312 C 116.601562 103.09375 116.890625 104.402344 117.523438 105.164062 C 117.734375 105.417969 117.984375 105.613281 118.265625 105.726562 C 118.566406 105.714844 118.867188 105.617188 119.152344 105.449219 C 118.992188 105.484375 118.828125 105.484375 118.667969 105.457031 "/>
<path style=" stroke:none;fill-rule:evenodd;fill:rgb(5.099487%,5.099487%,5.099487%);fill-opacity:1;" d="M 122.1875 97.578125 C 121.941406 97.574219 121.464844 97.398438 121.414062 97.378906 L 121.546875 97.027344 C 121.722656 97.09375 122.058594 97.199219 122.195312 97.203125 L 122.1875 97.578125 "/>
<path style=" stroke:none;fill-rule:evenodd;fill:rgb(5.099487%,5.099487%,5.099487%);fill-opacity:1;" d="M 101.589844 94.003906 C 101.203125 94.003906 100.765625 93.757812 100.664062 93.695312 L 100.59375 93.648438 L 100.578125 93.566406 C 100.5625 93.492188 100.257812 91.726562 101.589844 90.308594 C 101.527344 89.832031 101.253906 87.5625 101.324219 84.898438 C 101.425781 80.867188 102.21875 77.898438 103.671875 76.074219 L 103.96875 76.308594 C 100.613281 80.515625 101.960938 90.246094 101.976562 90.34375 L 101.988281 90.4375 L 101.921875 90.503906 C 100.816406 91.628906 100.898438 93.058594 100.9375 93.417969 C 101.144531 93.527344 101.433594 93.640625 101.617188 93.628906 C 101.582031 93.09375 101.539062 91.476562 102.363281 91.050781 C 103.339844 90.546875 104.675781 92.039062 105.089844 92.542969 C 105.222656 92.417969 105.386719 92.226562 105.457031 92.03125 C 105.222656 91.695312 104.101562 90.199219 102.648438 90.277344 L 102.476562 90.285156 L 102.453125 90.117188 C 102.394531 89.742188 101.121094 80.855469 103.996094 76.742188 L 104.304688 76.953125 C 101.722656 80.648438 102.640625 88.65625 102.800781 89.898438 C 104.5625 89.929688 105.769531 91.816406 105.820312 91.898438 L 105.863281 91.964844 L 105.847656 92.039062 C 105.738281 92.539062 105.199219 92.945312 105.175781 92.964844 L 105.023438 93.078125 L 104.910156 92.925781 C 104.425781 92.273438 103.210938 91.035156 102.535156 91.382812 C 101.933594 91.695312 101.949219 93.195312 102.007812 93.746094 L 102.019531 93.867188 L 101.914062 93.925781 C 101.816406 93.984375 101.707031 94.003906 101.589844 94.003906 "/>
<path style=" stroke:none;fill-rule:evenodd;fill:rgb(5.099487%,5.099487%,5.099487%);fill-opacity:1;" d="M 108.296875 96.476562 C 107.28125 93.691406 105.808594 91.988281 105.746094 91.917969 L 105.652344 91.808594 L 105.523438 91.921875 C 105.542969 92.011719 105.566406 92.105469 105.5625 92.199219 C 105.558594 92.222656 105.554688 92.246094 105.554688 92.269531 L 105.621094 92.210938 C 105.960938 92.625 107.164062 94.195312 108.027344 96.574219 C 108.949219 99.101562 109.636719 103.046875 107.671875 107.484375 L 107.578125 107.691406 L 105.886719 107.449219 L 105.972656 106.851562 L 107.207031 107.03125 L 107.25 106.929688 C 108.628906 103.621094 108.703125 100.21875 107.46875 96.808594 C 106.664062 94.582031 105.519531 93.050781 105.175781 92.621094 C 105.167969 92.621094 105.160156 92.621094 105.148438 92.625 C 105.054688 92.636719 104.941406 92.578125 104.878906 92.511719 C 104.871094 92.507812 104.867188 92.5 104.863281 92.492188 L 104.765625 92.574219 L 104.859375 92.679688 C 104.871094 92.695312 106.269531 94.328125 107.203125 96.90625 C 108.398438 100.210938 108.339844 103.511719 107.03125 106.71875 L 105.734375 106.53125 L 105.5625 107.6875 L 107.753906 108.003906 L 107.929688 107.597656 C 109.933594 103.074219 109.234375 99.054688 108.296875 96.476562 "/>
<path style=" stroke:none;fill-rule:evenodd;fill:rgb(5.099487%,5.099487%,5.099487%);fill-opacity:1;" d="M 104.550781 107.988281 C 104.441406 107.988281 104.347656 107.941406 104.285156 107.847656 C 104.089844 107.578125 104.15625 106.933594 104.332031 106.492188 C 104.449219 106.199219 104.6875 106.019531 104.964844 106.007812 C 105.195312 105.996094 105.40625 106.101562 105.488281 106.265625 C 105.539062 106.371094 105.992188 106.539062 106.363281 106.625 L 106.300781 106.898438 C 106.085938 106.847656 105.371094 106.664062 105.234375 106.390625 C 105.207031 106.335938 105.105469 106.28125 104.980469 106.289062 C 104.878906 106.292969 104.699219 106.339844 104.597656 106.597656 C 104.421875 107.035156 104.410156 107.539062 104.515625 107.683594 C 104.53125 107.707031 104.542969 107.707031 104.550781 107.707031 C 104.65625 107.703125 104.789062 107.660156 104.945312 107.609375 C 105.234375 107.519531 105.589844 107.40625 105.980469 107.460938 L 106.5 107.539062 L 106.460938 107.816406 L 105.941406 107.742188 C 105.613281 107.695312 105.304688 107.792969 105.03125 107.878906 C 104.855469 107.933594 104.707031 107.980469 104.566406 107.988281 C 104.558594 107.988281 104.554688 107.988281 104.550781 107.988281 "/>
<path style=" stroke:none;fill-rule:evenodd;fill:rgb(5.099487%,5.099487%,5.099487%);fill-opacity:1;" d="M 107.488281 105.664062 C 107.488281 105.65625 107.492188 105.648438 107.492188 105.640625 C 107.527344 105.542969 107.585938 105.480469 107.65625 105.4375 C 105.1875 103.703125 103.460938 101.328125 102.519531 98.355469 C 101.691406 95.742188 101.8125 93.605469 101.816406 93.582031 L 101.824219 93.445312 L 101.699219 93.433594 C 101.699219 93.445312 101.699219 93.453125 101.699219 93.460938 C 101.683594 93.550781 101.632812 93.664062 101.550781 93.710938 C 101.539062 93.71875 101.535156 93.722656 101.527344 93.726562 C 101.515625 94.277344 101.535156 96.183594 102.25 98.441406 C 103.210938 101.472656 104.96875 103.898438 107.488281 105.664062 "/>
<path style=" stroke:none;fill-rule:evenodd;fill:rgb(5.099487%,5.099487%,5.099487%);fill-opacity:1;" d="M 109.550781 105.136719 L 108.632812 106.066406 C 108.53125 106.007812 108.433594 105.945312 108.332031 105.882812 C 108.332031 105.894531 108.332031 105.902344 108.332031 105.914062 C 108.3125 106.003906 108.296875 106.089844 108.28125 106.179688 C 108.378906 106.242188 108.480469 106.304688 108.585938 106.363281 L 108.679688 106.421875 L 109.554688 105.535156 L 109.988281 105.957031 L 108.789062 107.171875 L 108.585938 107.058594 C 108.4375 106.976562 108.292969 106.894531 108.152344 106.808594 C 108.148438 106.824219 108.144531 106.839844 108.140625 106.851562 L 108.070312 107.066406 C 108.1875 107.15625 108.316406 107.234375 108.449219 107.304688 L 108.839844 107.519531 L 110.386719 105.953125 L 109.550781 105.136719 "/>
<path style=" stroke:none;fill-rule:evenodd;fill:rgb(5.099487%,5.099487%,5.099487%);fill-opacity:1;" d="M 107.226562 106.511719 C 107.265625 106.4375 107.296875 106.359375 107.324219 106.28125 C 103.945312 103.972656 102.382812 100.886719 101.660156 98.589844 C 100.902344 96.175781 100.902344 94.203125 100.921875 93.667969 L 101.011719 93.671875 C 100.996094 93.65625 100.976562 93.636719 100.960938 93.621094 C 100.902344 93.554688 100.863281 93.460938 100.824219 93.378906 L 100.652344 93.367188 L 100.644531 93.507812 C 100.636719 93.601562 100.503906 95.847656 101.390625 98.671875 C 102.128906 101.023438 103.734375 104.191406 107.210938 106.546875 C 107.214844 106.535156 107.21875 106.523438 107.226562 106.511719 "/>
<path style=" stroke:none;fill-rule:evenodd;fill:rgb(5.099487%,5.099487%,5.099487%);fill-opacity:1;" d="M 111.382812 105.582031 C 111.464844 105.519531 111.507812 105.421875 111.507812 105.3125 C 111.496094 104.976562 111.050781 104.507812 110.644531 104.261719 C 110.371094 104.097656 110.070312 104.097656 109.839844 104.253906 C 109.652344 104.386719 109.550781 104.59375 109.582031 104.777344 C 109.605469 104.890625 109.347656 105.296875 109.105469 105.589844 L 109.324219 105.769531 C 109.464844 105.597656 109.917969 105.023438 109.863281 104.722656 C 109.851562 104.664062 109.898438 104.558594 110.003906 104.488281 C 110.082031 104.429688 110.257812 104.359375 110.496094 104.503906 C 110.898438 104.746094 111.21875 105.140625 111.222656 105.320312 C 111.222656 105.347656 111.214844 105.355469 111.207031 105.359375 C 111.121094 105.417969 110.988281 105.464844 110.835938 105.519531 C 110.550781 105.621094 110.195312 105.746094 109.917969 106.027344 L 109.550781 106.398438 L 109.753906 106.59375 L 110.121094 106.222656 C 110.351562 105.988281 110.660156 105.878906 110.929688 105.785156 C 111.101562 105.722656 111.25 105.671875 111.367188 105.59375 C 111.371094 105.589844 111.375 105.585938 111.382812 105.582031 "/>
<path style=" stroke:none;fill-rule:evenodd;fill:rgb(100%,100%,100%);fill-opacity:1;" d="M 116.707031 65.804688 C 116.296875 66.730469 115.210938 68.535156 112.910156 68.925781 C 112.910156 68.925781 109.777344 68.605469 109.023438 65.628906 C 108.996094 65.53125 109.125 65.335938 109.261719 65.433594 C 110.191406 66.089844 112.992188 67.632812 116.488281 65.527344 C 116.589844 65.464844 116.796875 65.605469 116.707031 65.804688 "/>
<path style=" stroke:none;fill-rule:evenodd;fill:rgb(92.549133%,5.099487%,36.468506%);fill-opacity:1;" d="M 112.894531 65.722656 C 112.894531 65.722656 113.171875 65.285156 113.554688 65.324219 C 113.890625 65.355469 115.476562 65.648438 116.371094 65.441406 C 116.394531 65.4375 116.570312 65.421875 116.414062 65.523438 C 115.855469 65.875 114.539062 66.566406 112.769531 66.59375 C 112.769531 66.59375 110.023438 66.121094 109.605469 65.503906 C 109.605469 65.503906 110.664062 65.542969 111.359375 65.414062 C 112.054688 65.285156 112.414062 65.140625 112.894531 65.722656 "/>
<path style=" stroke:none;fill-rule:evenodd;fill:rgb(92.549133%,5.099487%,36.468506%);fill-opacity:1;" d="M 116.042969 67.050781 C 116.042969 67.050781 114.828125 68.464844 113.566406 68.765625 C 112.300781 69.070312 111.71875 68.605469 111.71875 68.605469 C 111.71875 68.605469 110.117188 67.785156 109.71875 67.117188 C 109.71875 67.117188 110.316406 69.816406 112.511719 70.015625 C 114.707031 70.214844 115.933594 68.25 116.042969 67.050781 "/>
<path style=" stroke:none;fill-rule:evenodd;fill:rgb(5.099487%,5.099487%,5.099487%);fill-opacity:1;" d="M 116.289062 65.367188 C 115.511719 65.894531 114.65625 66.160156 113.996094 66.296875 C 113.214844 66.457031 112.761719 66.476562 111.992188 66.347656 C 111.300781 66.230469 110.304688 65.960938 109.410156 65.347656 C 109.304688 65.378906 109.09375 65.480469 109.175781 65.539062 C 110.105469 66.199219 111.152344 66.492188 111.890625 66.625 C 112.722656 66.773438 113.214844 66.753906 114.058594 66.582031 C 114.761719 66.433594 115.679688 66.144531 116.507812 65.566406 C 116.714844 65.421875 116.332031 65.335938 116.289062 65.367188 Z M 113.671875 68.636719 C 114.453125 68.386719 115.753906 67.675781 116.578125 65.640625 C 116.621094 65.535156 116.828125 65.808594 116.78125 65.910156 C 115.917969 67.890625 114.585938 68.628906 113.761719 68.898438 C 113.183594 69.089844 112.730469 69.117188 112.148438 68.957031 C 111.347656 68.734375 109.847656 68.039062 108.917969 65.859375 C 108.886719 65.78125 109.085938 65.496094 109.125 65.597656 C 110.023438 67.847656 111.5 68.5 112.246094 68.691406 C 112.738281 68.8125 113.183594 68.789062 113.671875 68.636719 "/>
<path style=" stroke:none;fill-rule:evenodd;fill:rgb(5.099487%,5.099487%,5.099487%);fill-opacity:1;" d="M 113.90625 65.230469 C 113.703125 65.199219 113.554688 65.179688 113.460938 65.175781 C 113.214844 65.171875 113.011719 65.316406 112.863281 65.492188 C 112.710938 65.316406 112.507812 65.167969 112.261719 65.175781 C 112.167969 65.179688 112.019531 65.199219 111.816406 65.230469 C 111.246094 65.316406 110.253906 65.464844 109.46875 65.273438 C 109.308594 65.234375 109.320312 65.53125 109.324219 65.535156 C 110.183594 65.769531 111.25 65.609375 111.859375 65.519531 C 112.046875 65.492188 112.191406 65.46875 112.269531 65.46875 C 112.425781 65.460938 112.570312 65.585938 112.6875 65.738281 C 112.757812 65.832031 112.816406 65.9375 112.859375 66.023438 C 112.90625 65.941406 112.964844 65.835938 113.039062 65.738281 C 113.152344 65.59375 113.296875 65.464844 113.453125 65.46875 C 113.53125 65.46875 113.675781 65.492188 113.863281 65.519531 C 114.472656 65.609375 115.554688 65.769531 116.417969 65.53125 C 116.425781 65.515625 116.191406 65.289062 116.183594 65.289062 C 115.410156 65.457031 114.457031 65.3125 113.90625 65.230469 "/>
<path style=" stroke:none;fill-rule:evenodd;fill:rgb(5.099487%,5.099487%,5.099487%);fill-opacity:1;" d="M 115.949219 67.066406 C 115.5 68.707031 114.285156 69.890625 112.859375 69.890625 C 111.390625 69.890625 110.144531 68.632812 109.734375 66.90625 C 109.566406 66.78125 109.4375 66.617188 109.347656 66.433594 C 109.640625 68.558594 111.101562 70.179688 112.859375 70.179688 C 114.597656 70.179688 116.050781 68.597656 116.363281 66.507812 C 116.273438 66.722656 116.136719 66.917969 115.949219 67.066406 "/>
<path style=" stroke:none;fill-rule:evenodd;fill:rgb(5.099487%,5.099487%,5.099487%);fill-opacity:1;" d="M 116.535156 65.601562 C 116.226562 65.984375 115.246094 67.042969 113.804688 67.347656 C 113.804688 67.347656 115.386719 67.394531 116.359375 66.121094 C 116.359375 66.121094 116.613281 66.039062 116.644531 65.941406 C 116.757812 65.53125 116.605469 65.519531 116.535156 65.601562 "/>
<path style=" stroke:none;fill-rule:evenodd;fill:rgb(5.099487%,5.099487%,5.099487%);fill-opacity:1;" d="M 109.144531 65.554688 C 109.40625 65.878906 110.410156 67.027344 111.917969 67.347656 C 111.917969 67.347656 110.335938 67.394531 109.363281 66.121094 C 109.363281 66.121094 109.039062 65.894531 109.011719 65.796875 C 109.050781 65.605469 109.101562 65.5 109.144531 65.554688 "/>
<path style=" stroke:none;fill-rule:evenodd;fill:rgb(5.099487%,5.099487%,5.099487%);fill-opacity:1;" d="M 109.9375 65.113281 C 109.335938 65.136719 108.492188 65.476562 108.753906 66.546875 C 108.882812 66.019531 109.390625 65.417969 109.9375 65.113281 "/>
<path style=" stroke:none;fill-rule:evenodd;fill:rgb(5.099487%,5.099487%,5.099487%);fill-opacity:1;" d="M 115.703125 65.113281 C 116.304688 65.136719 117.148438 65.476562 116.886719 66.546875 C 116.757812 66.019531 116.25 65.417969 115.703125 65.113281 "/>
<path style=" stroke:none;fill-rule:evenodd;fill:rgb(5.099487%,5.099487%,5.099487%);fill-opacity:1;" d="M 140.28125 105.320312 C 140.28125 105.324219 140.472656 105.496094 140.472656 105.496094 L 140.597656 105.609375 L 140.632812 105.644531 L 141.222656 106.207031 L 141.246094 106.230469 L 141.558594 106.53125 C 141.554688 106.523438 140.28125 105.320312 140.28125 105.320312 "/>
<path style=" stroke:none;fill-rule:evenodd;fill:rgb(5.099487%,5.099487%,5.099487%);fill-opacity:1;" d="M 141.703125 107.46875 C 141.703125 107.46875 142.761719 105.886719 144.789062 105.394531 C 144.789062 105.394531 143.054688 105.207031 141.550781 106.523438 C 140.160156 105.179688 138.773438 103.96875 137.238281 102.710938 C 137.0625 102.941406 136.871094 103.160156 136.671875 103.367188 C 137.894531 104.367188 139.722656 105.90625 140.910156 107.117188 C 140.597656 107.6875 139.808594 109.097656 138.523438 111.164062 C 138.226562 111.644531 137.933594 112.140625 137.648438 112.625 C 136.332031 114.863281 134.972656 117.175781 132.875 118.058594 C 132.199219 117.777344 129.539062 116.648438 128.160156 115.652344 L 128.121094 115.628906 L 128.082031 115.609375 C 128.019531 115.582031 127.460938 115.355469 126.398438 115.519531 C 125.46875 115.664062 124.015625 115.695312 124 115.695312 L 123.828125 115.699219 L 123.707031 115.816406 C 122.050781 117.425781 119.46875 119.910156 119.148438 120.144531 L 119.082031 120.191406 L 119.039062 120.257812 C 119.003906 120.316406 118.703125 120.816406 119.011719 121.472656 C 119.125 121.714844 119.34375 121.890625 119.625 121.957031 C 120.214844 122.101562 121.042969 121.800781 121.953125 121.109375 C 122.902344 120.390625 123.859375 119.605469 124.195312 119.324219 L 125.308594 119.351562 C 124.21875 120.03125 122.746094 120.957031 122.394531 121.214844 C 121.828125 121.625 119.613281 123.558594 119.519531 123.640625 L 119.4375 123.714844 L 119.398438 123.816406 C 119.28125 124.136719 119.210938 124.792969 119.710938 125.214844 C 119.941406 125.40625 120.226562 125.46875 120.503906 125.46875 C 120.917969 125.46875 121.304688 125.332031 121.417969 125.289062 L 121.472656 125.265625 L 121.523438 125.226562 C 123.503906 123.722656 125.777344 122.042969 126.085938 121.90625 C 126.101562 121.898438 126.121094 121.894531 126.140625 121.890625 C 126.140625 121.890625 126.417969 121.792969 126.941406 121.683594 C 127.46875 121.574219 128.242188 121.460938 129.234375 121.421875 C 129.234375 121.421875 127.964844 120.933594 126.234375 121.007812 C 126.027344 121.035156 125.863281 121.066406 125.765625 121.105469 C 125.292969 121.292969 122.101562 123.703125 121.046875 124.503906 C 120.765625 124.601562 120.375 124.648438 120.269531 124.558594 C 120.164062 124.46875 120.171875 124.300781 120.191406 124.199219 C 120.636719 123.8125 122.433594 122.25 122.90625 121.910156 C 123.441406 121.519531 126.957031 119.339844 126.992188 119.320312 L 128.222656 118.554688 L 123.886719 118.457031 L 123.761719 118.5625 C 123.75 118.574219 122.582031 119.550781 121.429688 120.425781 C 120.449219 121.167969 119.871094 121.171875 119.796875 121.109375 C 119.722656 120.949219 119.734375 120.824219 119.753906 120.761719 C 120.453125 120.171875 123.460938 117.261719 124.191406 116.550781 C 124.617188 116.539062 125.730469 116.492188 126.53125 116.371094 C 127.207031 116.265625 127.597656 116.355469 127.703125 116.386719 C 129.378906 117.578125 132.574219 118.867188 132.710938 118.921875 L 132.871094 118.984375 L 133.027344 118.925781 C 135.496094 117.984375 136.972656 115.480469 138.398438 113.058594 C 138.679688 112.582031 138.96875 112.085938 139.261719 111.617188 C 140.597656 109.464844 141.402344 108.015625 141.703125 107.46875 "/>
<path style=" stroke:none;fill-rule:evenodd;fill:rgb(5.099487%,5.099487%,5.099487%);fill-opacity:1;" d="M 141.765625 94.21875 C 141.707031 94.164062 141.652344 94.109375 141.59375 94.050781 C 141.550781 94.003906 141.507812 93.957031 141.472656 93.902344 L 141.421875 93.890625 C 139.734375 99.90625 136.652344 103.136719 135.617188 104.089844 C 133.902344 101.703125 129.007812 96.933594 128.785156 96.71875 L 128.621094 96.886719 C 128.640625 97.199219 128.652344 97.503906 128.65625 97.804688 C 130.050781 99.183594 134.078125 103.222656 135.164062 104.960938 L 135.417969 105.363281 L 135.796875 105.074219 C 135.96875 104.941406 139.957031 101.824219 142.113281 94.609375 C 141.976562 94.496094 141.863281 94.363281 141.765625 94.21875 "/>
<path style=" stroke:none;fill-rule:evenodd;fill:rgb(5.099487%,5.099487%,5.099487%);fill-opacity:1;" d="M 152 108.21875 C 149.589844 103.328125 141.691406 93.921875 138.71875 90.378906 C 138.324219 89.90625 138.035156 89.566406 137.878906 89.375 C 137.222656 88.570312 136.246094 87.046875 135.300781 85.570312 C 134.421875 84.203125 133.59375 82.910156 133.066406 82.265625 C 132.507812 81.582031 131.457031 80.929688 130.519531 80.4375 C 130.042969 80.1875 123.429688 76.878906 123.089844 76.730469 C 122.515625 76.636719 122.28125 76.851562 122.402344 77.34375 C 122.703125 77.476562 129.5625 80.914062 129.996094 81.136719 C 130.886719 81.59375 131.898438 82.199219 132.394531 82.808594 C 132.890625 83.414062 133.707031 84.6875 134.570312 86.035156 C 135.527344 87.527344 136.519531 89.074219 137.207031 89.917969 C 137.367188 90.113281 137.65625 90.457031 138.054688 90.929688 C 140.726562 94.113281 148.859375 103.800781 151.222656 108.597656 C 151.234375 108.617188 152.144531 110.53125 151.285156 111.519531 C 150.261719 112.695312 142.027344 119.734375 135.71875 122.222656 L 135.515625 122.300781 L 135.460938 122.511719 C 135.417969 122.675781 134.464844 126.109375 130.941406 126.109375 C 129.714844 126.109375 129.222656 125.921875 128.386719 125.3125 C 128.296875 125.242188 127.96875 125.023438 127.539062 125.136719 C 127.082031 125.261719 126.734375 125.695312 126.476562 126.464844 C 126.167969 127.378906 125.632812 127.746094 125.339844 127.882812 C 125.039062 128.027344 124.832031 128.007812 124.78125 127.988281 C 124.730469 127.96875 124.710938 127.777344 124.742188 127.609375 C 125.03125 127.167969 125.789062 125.753906 126.023438 125.308594 L 128.582031 123.121094 L 127.492188 123.074219 C 127.429688 123.070312 125.941406 123.015625 124.871094 123.765625 C 124.714844 123.878906 124.539062 124.003906 124.359375 124.136719 C 123.769531 124.570312 122.535156 125.472656 122.164062 125.390625 C 121.75 125.292969 121.613281 124.917969 121.605469 124.902344 L 120.785156 125.167969 C 120.886719 125.484375 121.25 126.0625 121.972656 126.226562 C 122.675781 126.390625 123.617188 125.75 124.875 124.828125 C 125.050781 124.703125 125.21875 124.578125 125.375 124.46875 C 125.589844 124.316406 125.832031 124.207031 126.078125 124.128906 L 125.335938 124.765625 L 125.296875 124.835938 C 124.921875 125.542969 124.40625 126.625 123.9375 127.246094 L 123.914062 127.328125 C 123.804688 127.753906 123.796875 128.542969 124.476562 128.792969 C 124.601562 128.839844 124.738281 128.863281 124.886719 128.863281 C 125.144531 128.863281 125.429688 128.792969 125.714844 128.660156 C 126.128906 128.464844 126.886719 127.953125 127.296875 126.738281 C 127.523438 126.0625 127.738281 125.976562 127.765625 125.96875 C 127.792969 125.960938 127.824219 125.972656 127.839844 125.984375 L 127.867188 126 C 129.148438 126.9375 129.957031 126.972656 130.957031 126.972656 C 134.585938 126.972656 135.929688 123.808594 136.230469 122.945312 C 142.664062 120.335938 150.765625 113.429688 151.9375 112.082031 C 153.183594 110.652344 152.050781 108.316406 152 108.21875 "/>
<path style=" stroke:none;fill-rule:evenodd;fill:rgb(5.099487%,5.099487%,5.099487%);fill-opacity:1;" d="M 125.714844 108 C 125.707031 109.464844 125.933594 112.667969 126.601562 115.832031 C 126.875 115.726562 127.1875 115.707031 127.476562 115.777344 C 126.808594 112.636719 126.570312 109.398438 126.582031 108.003906 C 126.585938 107.082031 127.207031 105.339844 127.804688 103.65625 C 128.570312 101.507812 129.359375 99.285156 129.285156 97.84375 C 129.246094 97.046875 128.976562 95.804688 128.621094 94.46875 C 127.75 91.519531 125.738281 88.171875 125.738281 88.171875 C 125.765625 88.242188 128.304688 95.457031 128.421875 97.886719 C 128.484375 99.15625 127.6875 101.394531 126.988281 103.367188 C 126.335938 105.199219 125.722656 106.929688 125.714844 108 "/>
<path style=" stroke:none;fill-rule:evenodd;fill:rgb(5.099487%,5.099487%,5.099487%);fill-opacity:1;" d="M 88.089844 102.710938 C 88.265625 102.941406 88.457031 103.160156 88.65625 103.367188 C 87.433594 104.367188 85.605469 105.90625 84.417969 107.117188 C 84.726562 107.6875 85.519531 109.097656 86.800781 111.164062 C 87.097656 111.644531 87.390625 112.140625 87.675781 112.625 C 88.996094 114.863281 90.355469 117.175781 92.453125 118.058594 C 93.128906 117.777344 95.789062 116.648438 97.164062 115.652344 C 97.527344 115.398438 98.5 115.453125 98.929688 115.519531 C 99.859375 115.664062 101.3125 115.695312 101.324219 115.695312 L 101.496094 115.699219 L 101.621094 115.816406 C 103.277344 117.425781 105.855469 119.910156 106.179688 120.144531 L 106.246094 120.191406 L 106.289062 120.257812 C 106.324219 120.316406 106.625 120.816406 106.316406 121.472656 C 106.199219 121.714844 105.984375 121.890625 105.699219 121.957031 C 105.113281 122.101562 104.285156 121.800781 103.375 121.109375 C 102.425781 120.390625 101.46875 119.605469 101.132812 119.324219 L 100.019531 119.351562 C 101.109375 120.03125 102.582031 120.957031 102.933594 121.214844 C 103.5 121.625 105.714844 123.558594 105.808594 123.640625 L 105.890625 123.714844 L 105.925781 123.816406 C 106.046875 124.136719 106.117188 124.792969 105.617188 125.214844 C 105.386719 125.40625 105.097656 125.46875 104.820312 125.46875 C 104.40625 125.46875 104.019531 125.332031 103.910156 125.289062 L 103.851562 125.265625 L 103.804688 125.226562 C 101.824219 123.722656 99.550781 122.042969 99.238281 121.90625 C 99.226562 121.898438 99.207031 121.894531 99.183594 121.890625 C 99.183594 121.890625 98.910156 121.792969 98.382812 121.683594 C 97.859375 121.574219 97.085938 121.460938 96.089844 121.421875 C 96.089844 121.421875 97.359375 120.933594 99.089844 121.007812 C 99.296875 121.035156 99.460938 121.066406 99.558594 121.105469 C 100.035156 121.292969 103.226562 123.703125 104.28125 124.503906 C 104.5625 124.601562 104.949219 124.648438 105.058594 124.558594 C 105.164062 124.46875 105.152344 124.300781 105.136719 124.199219 C 104.691406 123.8125 102.890625 122.25 102.421875 121.910156 C 101.882812 121.519531 98.371094 119.339844 98.335938 119.320312 L 97.105469 118.554688 L 101.441406 118.457031 L 101.5625 118.5625 C 101.574219 118.574219 102.746094 119.550781 103.898438 120.425781 C 104.878906 121.167969 105.457031 121.171875 105.53125 121.109375 C 105.605469 120.949219 105.589844 120.824219 105.570312 120.761719 C 104.871094 120.171875 101.867188 117.261719 101.136719 116.550781 C 100.710938 116.539062 99.597656 116.492188 98.796875 116.371094 C 98.117188 116.265625 97.730469 116.355469 97.625 116.386719 C 95.945312 117.578125 92.75 118.867188 92.613281 118.921875 L 92.457031 118.984375 L 92.296875 118.925781 C 89.828125 117.984375 88.355469 115.480469 86.929688 113.058594 C 86.648438 112.582031 86.355469 112.085938 86.066406 111.617188 C 84.730469 109.464844 83.921875 108.015625 83.625 107.46875 C 83.613281 107.453125 82.554688 105.886719 80.539062 105.394531 C 80.539062 105.394531 82.269531 105.207031 83.773438 106.519531 C 85.199219 105.175781 86.570312 103.957031 88.089844 102.710938 "/>
<path style=" stroke:none;fill-rule:evenodd;fill:rgb(5.099487%,5.099487%,5.099487%);fill-opacity:1;" d="M 83.5625 94.21875 C 83.617188 94.164062 83.675781 94.109375 83.730469 94.050781 C 83.777344 94.003906 83.816406 93.957031 83.855469 93.902344 L 83.90625 93.890625 C 85.589844 99.90625 88.671875 103.136719 89.707031 104.089844 C 91.425781 101.703125 96.320312 96.933594 96.539062 96.71875 L 96.707031 96.886719 C 96.6875 97.199219 96.671875 97.503906 96.667969 97.804688 C 95.277344 99.183594 91.25 103.222656 90.160156 104.960938 L 89.90625 105.363281 L 89.53125 105.074219 C 89.355469 104.941406 85.371094 101.824219 83.214844 94.609375 C 83.351562 94.496094 83.464844 94.363281 83.5625 94.21875 "/>
<g clip-path="url(#clip3)" clip-rule="nonzero">
<path style=" stroke:none;fill-rule:evenodd;fill:rgb(5.099487%,5.099487%,5.099487%);fill-opacity:1;" d="M 73.328125 108.21875 C 75.734375 103.328125 83.632812 93.921875 86.605469 90.378906 C 87.003906 89.90625 87.289062 89.566406 87.445312 89.375 C 88.101562 88.570312 89.082031 87.046875 90.027344 85.570312 C 90.902344 84.203125 91.734375 82.910156 92.261719 82.265625 C 92.941406 81.433594 94.351562 80.644531 95.398438 80.140625 C 97.660156 79.042969 99.960938 77.734375 102.226562 76.730469 C 103.179688 76.5625 103.074219 77.0625 102.914062 77.34375 C 100.523438 78.402344 98.0625 79.796875 95.679688 80.960938 C 94.71875 81.433594 93.492188 82.121094 92.933594 82.808594 C 92.4375 83.414062 91.621094 84.6875 90.753906 86.035156 C 89.796875 87.527344 88.804688 89.074219 88.117188 89.917969 C 87.957031 90.113281 87.671875 90.457031 87.273438 90.929688 C 84.601562 94.113281 76.46875 103.800781 74.101562 108.597656 C 74.09375 108.617188 73.183594 110.53125 74.042969 111.519531 C 75.066406 112.695312 83.296875 119.734375 89.605469 122.222656 L 89.8125 122.300781 L 89.867188 122.511719 C 89.910156 122.675781 90.863281 126.109375 94.386719 126.109375 C 95.425781 126.109375 95.902344 126.011719 96.707031 125.476562 C 96.789062 125.421875 96.871094 125.363281 96.941406 125.3125 C 97.03125 125.242188 97.359375 125.023438 97.785156 125.136719 C 98.246094 125.261719 98.59375 125.695312 98.851562 126.464844 C 99.15625 127.378906 99.691406 127.746094 99.984375 127.882812 C 100.289062 128.027344 100.492188 128.007812 100.546875 127.988281 C 100.597656 127.96875 100.613281 127.777344 100.585938 127.609375 C 100.296875 127.167969 99.539062 125.753906 99.300781 125.308594 L 96.742188 123.121094 L 97.835938 123.074219 C 97.898438 123.070312 99.386719 123.015625 100.453125 123.765625 C 100.613281 123.878906 100.785156 124.003906 100.964844 124.136719 C 101.558594 124.570312 102.792969 125.472656 103.160156 125.390625 C 103.578125 125.292969 103.714844 124.917969 103.71875 124.902344 L 104.542969 125.167969 C 104.441406 125.484375 104.078125 126.0625 103.355469 126.226562 C 102.652344 126.390625 101.707031 125.75 100.453125 124.828125 C 100.277344 124.703125 100.109375 124.578125 99.953125 124.46875 C 99.738281 124.316406 99.492188 124.207031 99.25 124.128906 L 99.992188 124.765625 L 100.03125 124.835938 C 100.453125 125.632812 101.183594 126.976562 101.339844 127.179688 L 101.390625 127.246094 L 101.410156 127.328125 C 101.523438 127.753906 101.527344 128.542969 100.851562 128.792969 C 100.726562 128.839844 100.585938 128.863281 100.4375 128.863281 C 100.179688 128.863281 99.894531 128.792969 99.613281 128.660156 C 99.195312 128.464844 98.4375 127.953125 98.03125 126.738281 C 97.804688 126.0625 97.585938 125.976562 97.5625 125.96875 C 97.53125 125.960938 97.5 125.972656 97.484375 125.984375 C 96.578125 126.644531 95.492188 126.972656 94.371094 126.972656 C 90.738281 126.972656 89.394531 123.808594 89.097656 122.945312 C 82.664062 120.335938 74.5625 113.429688 73.386719 112.082031 C 72.140625 110.652344 73.277344 108.316406 73.328125 108.21875 "/>
</g>
<path style=" stroke:none;fill-rule:evenodd;fill:rgb(5.099487%,5.099487%,5.099487%);fill-opacity:1;" d="M 99.609375 108 C 99.621094 109.464844 99.394531 112.667969 98.726562 115.832031 C 98.453125 115.726562 98.140625 115.707031 97.847656 115.777344 C 98.519531 112.636719 98.753906 109.398438 98.746094 108.003906 C 98.738281 107.082031 98.121094 105.339844 97.523438 103.65625 C 96.757812 101.507812 95.96875 99.285156 96.039062 97.84375 C 96.078125 97.046875 96.347656 95.804688 96.707031 94.46875 C 97.578125 91.519531 99.585938 88.171875 99.585938 88.171875 C 99.5625 88.242188 97.023438 95.457031 96.90625 97.886719 C 96.839844 99.15625 97.636719 101.394531 98.339844 103.367188 C 98.988281 105.199219 99.605469 106.929688 99.609375 108 "/>
<path style=" stroke:none;fill-rule:evenodd;fill:rgb(70.588684%,45.489502%,35.289001%);fill-opacity:1;" d="M 111.929688 63.285156 L 112.042969 63.347656 C 112.042969 63.347656 112.3125 63.652344 112.695312 63.6875 C 113.078125 63.726562 113.429688 63.476562 113.527344 63.347656 L 113.640625 63.285156 C 113.792969 63.214844 114.242188 62.984375 114.234375 63.285156 C 114.035156 63.453125 113.71875 63.660156 113.5 63.851562 C 113.277344 64.042969 113.019531 64.246094 112.761719 64.25 C 112.519531 64.253906 112.316406 64.027344 112.058594 63.871094 C 111.757812 63.6875 111.382812 63.347656 111.339844 63.285156 C 111.125 62.972656 111.910156 63.277344 111.929688 63.285156 "/>
<path style=" stroke:none;fill-rule:evenodd;fill:rgb(5.099487%,5.099487%,5.099487%);fill-opacity:1;" d="M 114.183594 62.996094 C 114.359375 62.972656 114.308594 63.199219 114.234375 63.285156 C 114.234375 63.285156 114.070312 63.199219 113.640625 63.285156 C 113.640625 63.285156 114.007812 63.023438 114.183594 62.996094 "/>
<path style=" stroke:none;fill-rule:evenodd;fill:rgb(5.099487%,5.099487%,5.099487%);fill-opacity:1;" d="M 112.042969 63.347656 C 112.457031 63.679688 113.113281 63.679688 113.527344 63.347656 C 113.246094 64.070312 112.324219 64.070312 112.042969 63.347656 "/>
<path style=" stroke:none;fill-rule:evenodd;fill:rgb(5.099487%,5.099487%,5.099487%);fill-opacity:1;" d="M 111.339844 63.285156 C 111.265625 63.199219 111.214844 62.972656 111.390625 62.996094 C 111.566406 63.023438 111.929688 63.285156 111.929688 63.285156 C 111.503906 63.199219 111.339844 63.285156 111.339844 63.285156 "/>
<path style=" stroke:none;fill-rule:evenodd;fill:rgb(5.099487%,5.099487%,5.099487%);fill-opacity:1;" d="M 104.042969 55.226562 C 104.042969 55.226562 103.410156 54.628906 103.859375 53.761719 C 103.859375 53.761719 103.105469 54.5 103.746094 55.402344 L 104.003906 55.28125 L 104.042969 55.226562 "/>
<path style=" stroke:none;fill-rule:evenodd;fill:rgb(5.099487%,5.099487%,5.099487%);fill-opacity:1;" d="M 104.734375 55.300781 C 104.734375 55.300781 104.066406 54.574219 104.644531 53.628906 C 104.644531 53.628906 103.730469 54.410156 104.386719 55.476562 L 104.6875 55.359375 L 104.734375 55.300781 "/>
<path style=" stroke:none;fill-rule:evenodd;fill:rgb(5.099487%,5.099487%,5.099487%);fill-opacity:1;" d="M 105.40625 55.414062 C 105.40625 55.414062 104.839844 54.609375 105.53125 53.742188 C 105.53125 53.742188 104.527344 54.398438 105.042969 55.542969 L 105.355469 55.464844 L 105.40625 55.414062 "/>
<path style=" stroke:none;fill-rule:evenodd;fill:rgb(5.099487%,5.099487%,5.099487%);fill-opacity:1;" d="M 108.183594 57.175781 C 108.183594 57.175781 107.203125 54.933594 102.96875 55.125 C 104.503906 55.796875 106.636719 56.722656 108.183594 57.175781 "/>
<path style=" stroke:none;fill-rule:evenodd;fill:rgb(5.099487%,5.099487%,5.099487%);fill-opacity:1;" d="M 121.554688 55.226562 C 121.554688 55.226562 122.1875 54.628906 121.734375 53.761719 C 121.734375 53.761719 122.492188 54.5 121.847656 55.402344 L 121.589844 55.28125 L 121.554688 55.226562 "/>
<path style=" stroke:none;fill-rule:evenodd;fill:rgb(5.099487%,5.099487%,5.099487%);fill-opacity:1;" d="M 120.863281 55.300781 C 120.863281 55.300781 121.53125 54.574219 120.953125 53.628906 C 120.953125 53.628906 121.867188 54.410156 121.207031 55.476562 L 120.90625 55.359375 L 120.863281 55.300781 "/>
<path style=" stroke:none;fill-rule:evenodd;fill:rgb(5.099487%,5.099487%,5.099487%);fill-opacity:1;" d="M 120.1875 55.414062 C 120.1875 55.414062 120.757812 54.609375 120.0625 53.742188 C 120.0625 53.742188 121.070312 54.398438 120.554688 55.542969 L 120.242188 55.464844 L 120.1875 55.414062 "/>
<path style=" stroke:none;fill-rule:evenodd;fill:rgb(5.099487%,5.099487%,5.099487%);fill-opacity:1;" d="M 117.410156 57.175781 C 117.410156 57.175781 118.394531 54.933594 122.625 55.125 C 121.09375 55.796875 118.960938 56.722656 117.410156 57.175781 "/>
</g>
</svg>
