<?xml version="1.0" encoding="UTF-8"?>
<svg xmlns="http://www.w3.org/2000/svg" xmlns:xlink="http://www.w3.org/1999/xlink" width="224.87999pt" height="225pt" viewBox="0 0 224.87999 225" version="1.2">
<defs>
<clipPath id="clip1">
  <path d="M 116 188 L 133 188 L 133 202.453125 L 116 202.453125 Z M 116 188 "/>
</clipPath>
<clipPath id="clip2">
  <path d="M 93 188 L 110 188 L 110 202.453125 L 93 202.453125 Z M 93 188 "/>
</clipPath>
<clipPath id="clip3">
  <path d="M 72.300781 84 L 96 84 L 96 118 L 72.300781 118 Z M 72.300781 84 "/>
</clipPath>
<clipPath id="clip4">
  <path d="M 120 95 L 152.4375 95 L 152.4375 142 L 120 142 Z M 120 95 "/>
</clipPath>
<clipPath id="clip5">
  <path d="M 95 22.546875 L 131 22.546875 L 131 55 L 95 55 Z M 95 22.546875 "/>
</clipPath>
</defs>
<g id="surface1">
<path style=" stroke:none;fill-rule:evenodd;fill:rgb(32.159424%,39.219666%,72.158813%);fill-opacity:1;" d="M 84.25 87.472656 L 78.066406 95.019531 C 78.066406 95.019531 78.402344 98.253906 79 98.9375 L 80.636719 96.605469 L 81.890625 96.949219 L 83.425781 95.066406 L 84.746094 92.222656 Z M 123.871094 74.097656 L 121.542969 73.390625 C 121.476562 75.222656 120.15625 77.800781 119.292969 79.382812 C 118.4375 80.941406 116.351562 83.050781 114.816406 84.492188 C 112.75 86.425781 113.109375 86.523438 111.164062 84.71875 C 109.609375 83.28125 107.339844 81.027344 106.441406 79.382812 C 105.019531 76.785156 104.222656 74.667969 104.191406 73.507812 C 104.191406 73.464844 104.09375 73.1875 104.089844 73.152344 L 101.863281 74.097656 L 93.167969 78.027344 C 93.085938 78.335938 92.898438 78.609375 92.601562 78.738281 C 91.945312 79.015625 90.902344 79.652344 90.25 80.089844 C 89.492188 80.601562 87.589844 83.34375 87.589844 83.34375 L 88.671875 86.628906 L 93.085938 85.464844 L 93.074219 85.40625 C 93.554688 85.300781 93.972656 85.316406 94.101562 85.746094 C 94.449219 86.460938 95.222656 87.453125 95.363281 87.929688 C 95.5625 88.492188 95.183594 89.058594 94.90625 89.570312 C 94.722656 89.902344 94.535156 90.230469 94.335938 90.558594 C 94.59375 91.074219 94.703125 91.632812 94.796875 92.207031 C 94.902344 92.859375 95.082031 93.496094 95.191406 94.148438 C 95.425781 95.546875 95.449219 97.121094 95.28125 98.53125 C 95.183594 99.367188 94.984375 100.441406 94.289062 101.007812 C 93.957031 101.28125 92.902344 101.503906 92.546875 101.542969 C 93.199219 103.496094 93.785156 105.414062 94.335938 107.40625 C 94.472656 108.335938 94.609375 109.261719 94.746094 110.191406 C 94.53125 116.839844 94.734375 121.550781 92.257812 134.414062 L 95.339844 136.332031 C 95.339844 136.332031 95.050781 145.285156 94.992188 148.550781 C 94.929688 151.820312 94.875 164.46875 95.199219 167.4375 C 95.523438 170.402344 96.03125 182.988281 96.152344 183.769531 C 96.269531 184.546875 96.632812 187.363281 96.632812 187.363281 C 96.632812 187.363281 101.683594 190.410156 102.496094 190.691406 C 103.304688 190.972656 110.035156 187.1875 110.390625 186.523438 C 110.390625 186.523438 110.136719 176.445312 109.777344 172.910156 C 109.667969 169.328125 111.886719 155.339844 112.257812 153.527344 C 112.464844 152.53125 112.679688 151.8125 112.867188 151.363281 C 113.054688 151.8125 113.101562 152.40625 113.308594 153.402344 C 113.679688 155.214844 116.066406 170.214844 115.871094 172.574219 C 115.515625 176.109375 115.339844 186.523438 115.339844 186.523438 C 115.695312 187.1875 122.429688 190.972656 123.238281 190.691406 C 124.046875 190.410156 129.101562 187.363281 129.101562 187.363281 C 129.101562 187.363281 129.460938 184.546875 129.582031 183.769531 C 129.699219 182.988281 130.207031 170.402344 130.535156 167.4375 C 130.859375 164.46875 130.929688 152.03125 130.867188 148.765625 C 130.835938 146.988281 130.648438 143.492188 130.484375 140.671875 C 129.691406 140.703125 129.074219 141.082031 128.320312 140.738281 C 127.941406 140.570312 126.976562 139.945312 126.542969 139.996094 C 126.0625 140.054688 126.054688 140.394531 125.644531 140.601562 C 125.179688 140.839844 124.707031 140.882812 124.25 140.597656 C 123.183594 139.933594 122.867188 138.566406 123.476562 137.582031 C 123.472656 137.574219 114.367188 132.867188 113.628906 132.488281 C 112.9375 132.128906 111.988281 131.46875 112.097656 130.496094 C 112.191406 129.648438 112.679688 128.929688 113.039062 128.183594 C 114.832031 124.460938 116.820312 121.082031 118.664062 117.441406 C 119.085938 116.613281 119.753906 114.523438 120.769531 114.433594 C 121.769531 114.34375 122.488281 115.25 123.335938 115.664062 C 125.621094 116.773438 129.3125 118.28125 131.171875 119.609375 L 130.988281 110.191406 C 131.386719 107.484375 131.882812 105.058594 132.871094 102.460938 C 132.960938 102.226562 133.085938 101.808594 133.222656 101.296875 L 136.082031 105.058594 C 136.082031 105.058594 137.757812 101.808594 140.75 99.738281 C 143.742188 97.664062 147.210938 95.625 147.210938 95.625 C 147.210938 95.625 142.023438 88.554688 141.386719 87.394531 C 140.75 86.234375 138.195312 81.042969 137.558594 80.800781 C 133.957031 78.917969 127.34375 75.667969 123.871094 74.097656 "/>
<path style=" stroke:none;fill-rule:evenodd;fill:rgb(63.529968%,67.059326%,86.669922%);fill-opacity:1;" d="M 94.03125 134.160156 L 95.878906 136.484375 L 92.484375 134.226562 C 93.378906 129.097656 93.925781 125.378906 94.398438 120.300781 L 94.789062 119.714844 C 95.433594 118.160156 96.382812 116.722656 96.382812 116.722656 L 95.253906 126.027344 L 94.03125 134.160156 "/>
<path style=" stroke:none;fill-rule:evenodd;fill:rgb(63.529968%,67.059326%,86.669922%);fill-opacity:1;" d="M 96.933594 139.265625 C 96.933594 139.265625 95.671875 175.949219 98.621094 188.253906 C 98.621094 188.253906 96.71875 188.042969 96.585938 187.003906 C 96.449219 185.96875 95.621094 173.90625 95.269531 168.992188 C 94.914062 164.078125 95.003906 144.375 95.117188 143.339844 C 95.234375 142.300781 95.507812 137.902344 95.507812 137.902344 C 95.507812 137.902344 96.960938 138.378906 96.933594 139.265625 "/>
<path style=" stroke:none;fill-rule:evenodd;fill:rgb(63.529968%,67.059326%,86.669922%);fill-opacity:1;" d="M 130.167969 140.804688 C 129.65625 140.957031 129.109375 141 128.601562 140.914062 C 128.804688 148.1875 129.441406 177.507812 126.863281 188.253906 C 126.863281 188.253906 128.769531 188.042969 128.902344 187.003906 C 129.035156 185.96875 129.863281 173.90625 130.21875 168.992188 C 130.570312 164.078125 130.480469 144.375 130.367188 143.339844 C 130.316406 142.898438 130.242188 141.859375 130.167969 140.804688 "/>
<path style=" stroke:none;fill-rule:evenodd;fill:rgb(21.569824%,28.239441%,57.649231%);fill-opacity:1;" d="M 130.976562 118.675781 C 129.359375 116.453125 126.257812 112.816406 123.878906 110.824219 C 121.082031 108.484375 116.382812 107.367188 111.839844 107.546875 C 104.21875 107.847656 97.890625 112.769531 94.789062 119.714844 C 94.597656 119.796875 94.53125 119.917969 94.34375 119.996094 C 94.472656 117.558594 95.128906 109.085938 94.296875 107.109375 C 93.945312 106.265625 92.914062 102.367188 92.882812 102.246094 C 92.953125 102.308594 95.871094 104.957031 100.058594 103.160156 C 107.996094 99.753906 117.785156 99.753906 125.722656 103.160156 C 129.910156 104.957031 132.828125 102.308594 132.898438 102.246094 C 132.863281 102.367188 131.835938 106.265625 131.480469 107.109375 C 130.753906 108.839844 130.789062 116.972656 130.976562 118.675781 "/>
<path style=" stroke:none;fill-rule:evenodd;fill:rgb(96.469116%,78.819275%,64.709473%);fill-opacity:1;" d="M 121.34375 71.925781 L 121.34375 74.246094 C 121.34375 74.246094 120.5 77.582031 118.515625 80.089844 C 116.535156 82.597656 112.824219 86.117188 112.824219 86.117188 C 112.824219 86.117188 108.265625 82.726562 106.296875 79.128906 C 104.328125 75.527344 103.867188 75.074219 104.394531 71.925781 C 104.394531 71.925781 105.949219 72.847656 107.054688 74.128906 C 108.160156 75.40625 108.957031 76.289062 110.632812 76.546875 C 112.308594 76.808594 116.359375 76.394531 116.96875 75.78125 C 117.570312 75.167969 117.828125 74.925781 118.515625 74.089844 C 119.207031 73.25 120.820312 72.269531 121.34375 71.925781 "/>
<path style=" stroke:none;fill-rule:evenodd;fill:rgb(84.309387%,58.428955%,47.839355%);fill-opacity:1;" d="M 121.132812 74.613281 C 121.132812 74.613281 119.199219 76.476562 118.519531 77.285156 C 117.964844 77.953125 116.507812 78.941406 114.425781 79.273438 C 113.464844 79.425781 112.125 79.425781 111.167969 79.273438 C 109.074219 78.949219 107.609375 77.953125 107.054688 77.285156 C 106.378906 76.476562 104.441406 74.613281 104.441406 74.613281 L 104.371094 72.082031 C 104.371094 72.082031 106.203125 73.058594 106.429688 73.210938 C 106.65625 73.359375 107.519531 74.109375 108.210938 75.371094 C 108.789062 76.429688 111.820312 76.527344 112.789062 76.535156 C 113.753906 76.527344 116.785156 76.429688 117.363281 75.371094 C 118.054688 74.109375 118.917969 73.359375 119.144531 73.210938 C 119.371094 73.058594 121.203125 72.082031 121.203125 72.082031 L 121.132812 74.613281 "/>
<path style=" stroke:none;fill-rule:evenodd;fill:rgb(63.529968%,67.059326%,86.669922%);fill-opacity:1;" d="M 121.429688 75.484375 C 121.429688 75.484375 133.050781 80.363281 133.949219 80.765625 C 134.992188 81.226562 136.210938 81.832031 136.640625 82.3125 C 137.4375 83.199219 140.492188 89.035156 140.492188 89.035156 L 144.738281 95.347656 L 143.144531 97.992188 L 147.078125 95.449219 C 147.078125 95.449219 142.125 88.742188 141.511719 87.601562 C 140.898438 86.464844 138.394531 81.285156 137.738281 80.941406 C 135.632812 79.632812 127.613281 75.851562 121.542969 73.390625 C 121.542969 73.507812 121.429688 75.484375 121.429688 75.484375 "/>
<path style=" stroke:none;fill-rule:evenodd;fill:rgb(69.018555%,81.17981%,87.059021%);fill-opacity:1;" d="M 108.035156 188.820312 C 108.035156 188.820312 109.292969 191.691406 109.027344 193.167969 C 108.757812 194.648438 107.839844 196.644531 107.359375 197.722656 C 106.882812 198.804688 106.996094 200.628906 104.449219 201.28125 C 101.902344 201.933594 92.753906 202.480469 93.734375 198.144531 C 93.734375 198.144531 93.878906 196.25 95.074219 195.269531 C 96.269531 194.289062 98.066406 192.171875 98.144531 192.050781 C 98.226562 191.929688 99.625 189.414062 99.625 189.414062 C 99.625 189.414062 101.855469 190.722656 102.375 190.707031 C 102.894531 190.691406 107.949219 187.945312 108.035156 188.820312 "/>
<path style=" stroke:none;fill-rule:evenodd;fill:rgb(69.018555%,81.17981%,87.059021%);fill-opacity:1;" d="M 117.546875 188.820312 C 117.546875 188.820312 116.285156 191.691406 116.554688 193.167969 C 116.824219 194.648438 117.742188 196.644531 118.222656 197.722656 C 118.699219 198.804688 118.585938 200.628906 121.132812 201.28125 C 123.679688 201.933594 132.828125 202.480469 131.847656 198.144531 C 131.847656 198.144531 131.703125 196.25 130.507812 195.269531 C 129.308594 194.289062 127.515625 192.171875 127.4375 192.050781 C 127.355469 191.929688 125.957031 189.414062 125.957031 189.414062 C 125.957031 189.414062 123.726562 190.722656 123.207031 190.707031 C 122.6875 190.691406 117.632812 187.945312 117.546875 188.820312 "/>
<path style=" stroke:none;fill-rule:evenodd;fill:rgb(29.40979%,34.509277%,38.819885%);fill-opacity:1;" d="M 122.574219 96.761719 L 123.347656 97.007812 C 123.347656 97.007812 123.707031 96.015625 123.964844 95.109375 C 124.226562 94.199219 124.824219 91.054688 125.023438 90.054688 C 125.222656 89.054688 125.59375 84.738281 125.5 83.558594 C 125.410156 82.378906 125.320312 80.144531 125.210938 79.222656 C 125.101562 78.304688 124.480469 74.828125 124.085938 74.046875 C 123.980469 74.042969 123.5625 74.253906 123.457031 74.316406 C 123.457031 74.316406 123.792969 75.746094 124.042969 76.886719 C 124.292969 78.023438 124.601562 79.742188 124.652344 80.660156 C 124.703125 81.578125 124.792969 83.476562 124.742188 84.398438 C 124.695312 85.316406 124.601562 88.222656 124.34375 89.394531 C 124.085938 90.5625 123.246094 95.613281 122.574219 96.761719 "/>
<path style=" stroke:none;fill-rule:evenodd;fill:rgb(75.689697%,80.389404%,82.749939%);fill-opacity:1;" d="M 123.40625 97.007812 L 122.574219 96.824219 L 121.515625 99.386719 C 121.515625 99.386719 120.863281 98.121094 119.457031 98.242188 C 118.050781 98.359375 117.175781 100.363281 116.929688 101.5 C 116.683594 102.640625 116.816406 104.25 117.453125 105.246094 C 118.085938 106.242188 119.332031 106.394531 119.863281 105.921875 C 120.390625 105.449219 121.714844 104.582031 121.867188 102.789062 C 122.015625 101 121.96875 100.730469 121.96875 100.730469 C 121.96875 100.730469 122.769531 98.675781 122.921875 98.203125 C 123.070312 97.734375 123.40625 97.007812 123.40625 97.007812 "/>
<path style=" stroke:none;fill-rule:evenodd;fill:rgb(63.529968%,67.059326%,86.669922%);fill-opacity:1;" d="M 104.503906 75.515625 C 104.503906 75.515625 92.308594 79.992188 91.320312 81.207031 C 90.972656 81.636719 88.5 84.875 88.5 84.875 L 87.417969 83.007812 L 90.351562 79.539062 L 93.167969 78.027344 L 104.171875 73.425781 L 104.503906 75.515625 "/>
<path style=" stroke:none;fill-rule:evenodd;fill:rgb(29.40979%,34.509277%,38.819885%);fill-opacity:1;" d="M 103.949219 91.71875 L 104.609375 90.78125 C 104.609375 90.78125 104.277344 90.191406 103.550781 89.550781 C 102.824219 88.914062 101.238281 88.632812 101.238281 88.632812 C 101.238281 88.632812 100.9375 85.027344 100.886719 83.75 C 100.839844 82.46875 101.027344 79.773438 101.1875 78.613281 C 101.347656 77.457031 101.957031 75.464844 102.261719 74.90625 C 102.5625 74.347656 102.742188 73.96875 102.742188 73.96875 L 101.828125 74.347656 C 101.828125 74.347656 101.257812 75.617188 101.238281 75.65625 C 101.214844 75.695312 100.40625 78.070312 100.199219 79.511719 C 99.992188 80.953125 99.820312 84.238281 99.972656 85.425781 C 100.121094 86.617188 100.261719 88.941406 100.261719 88.941406 C 100.261719 88.941406 99.363281 90.039062 99.273438 90.589844 C 99.183594 91.140625 99.105469 92.5 99.105469 92.5 C 99.105469 92.5 100.132812 93.058594 100.300781 92.679688 C 100.300781 92.679688 100.132812 90.527344 100.878906 90.054688 C 101.628906 89.582031 103.042969 90.054688 103.949219 91.71875 "/>
<path style=" stroke:none;fill-rule:evenodd;fill:rgb(29.40979%,34.509277%,38.819885%);fill-opacity:1;" d="M 109.699219 106.445312 L 108.925781 105.710938 C 108.925781 105.710938 109.054688 105.40625 109.105469 105.253906 C 109.160156 105.105469 109.140625 104.941406 109.226562 104.855469 C 109.308594 104.773438 109.75 104.429688 110.070312 104.679688 C 110.390625 104.925781 110.945312 105.511719 110.925781 105.679688 C 110.902344 105.855469 110.878906 105.929688 110.742188 105.972656 C 110.609375 106.019531 109.699219 106.445312 109.699219 106.445312 "/>
<path style=" stroke:none;fill-rule:evenodd;fill:rgb(29.40979%,34.509277%,38.819885%);fill-opacity:1;" d="M 104.851562 107.246094 L 104.699219 108.265625 L 103.78125 108.476562 C 103.78125 108.476562 103.242188 108.648438 103.199219 108.476562 C 103.152344 108.304688 103.117188 107.75 103.199219 107.472656 C 103.28125 107.195312 103.40625 106.835938 103.519531 106.753906 C 103.632812 106.671875 103.683594 106.640625 103.75 106.671875 C 103.820312 106.699219 103.957031 106.707031 104 106.738281 C 104.042969 106.769531 104.46875 107.03125 104.46875 107.03125 L 104.851562 107.246094 "/>
<path style=" stroke:none;fill-rule:evenodd;fill:rgb(75.689697%,80.389404%,82.749939%);fill-opacity:1;" d="M 104.609375 90.921875 L 104.023438 91.617188 C 104.023438 91.617188 105.097656 93.238281 105.453125 93.9375 C 105.816406 94.636719 106.734375 96.84375 106.960938 97.902344 C 107.191406 98.960938 107.488281 101.101562 107.410156 102.410156 C 107.332031 103.71875 106.964844 105.519531 106.832031 105.90625 C 106.703125 106.296875 106.246094 107.40625 106.246094 107.40625 L 104.847656 107.277344 L 104.710938 108.199219 L 106.832031 108.554688 C 106.832031 108.554688 107.570312 106.855469 108.089844 104.71875 C 108.609375 102.578125 108.4375 99.703125 108.089844 98.296875 C 107.742188 96.886719 107.113281 94.859375 106.503906 93.789062 C 105.894531 92.71875 104.609375 90.921875 104.609375 90.921875 "/>
<path style=" stroke:none;fill-rule:evenodd;fill:rgb(75.689697%,80.389404%,82.749939%);fill-opacity:1;" d="M 100.148438 92.8125 L 99.242188 92.570312 C 99.242188 92.570312 99.183594 94.539062 99.421875 95.90625 C 99.664062 97.277344 100.378906 99.082031 100.71875 100.164062 C 101.058594 101.242188 102.882812 103.699219 103.480469 104.476562 C 104.078125 105.257812 106.523438 107.046875 107.285156 107.523438 C 108.050781 108.003906 108.230469 107.976562 108.230469 107.976562 L 109.644531 106.445312 L 108.925781 105.785156 L 107.980469 106.777344 C 107.980469 106.777344 105.296875 105.148438 104.558594 104.148438 C 103.820312 103.148438 102.214844 101.523438 101.4375 99.222656 C 100.660156 96.925781 99.949219 94.445312 100.148438 92.8125 "/>
<path style=" stroke:none;fill-rule:evenodd;fill:rgb(21.569824%,28.239441%,57.649231%);fill-opacity:1;" d="M 115.792969 143.050781 C 116.375 146.890625 119.0625 164.625 119.488281 168.753906 C 119.964844 173.386719 118.371094 188.253906 118.371094 188.253906 C 118.371094 188.253906 116.464844 188.117188 115.230469 186.257812 C 115 184.566406 115.953125 175.347656 115.769531 170.914062 C 115.609375 166.921875 113.636719 154.832031 112.832031 151.738281 C 112.023438 154.832031 109.964844 166.585938 109.804688 170.574219 C 109.625 175.011719 110.328125 181.960938 110.433594 186.257812 C 109.722656 187.632812 107.289062 188.632812 107.289062 188.632812 C 107.289062 188.632812 107.039062 185.894531 106.761719 182.761719 C 106.347656 178.035156 105.886719 171.542969 106.175781 168.753906 C 106.601562 164.628906 109.28125 146.917969 109.867188 143.0625 C 105.921875 142.570312 98.871094 141.261719 95.207031 138.003906 L 95.324219 136.171875 C 95.324219 136.171875 101.429688 139.742188 108.347656 140.925781 C 111.234375 141.417969 114.449219 141.414062 117.335938 140.910156 C 119.507812 140.53125 121.601562 139.917969 123.445312 139.253906 C 123.636719 139.8125 123.988281 140.355469 124.609375 140.46875 C 125.253906 140.59375 125.800781 140.265625 126.285156 139.882812 C 126.507812 140.023438 126.746094 140.109375 126.992188 140.144531 C 123.324219 141.863281 118.726562 142.679688 115.792969 143.050781 "/>
<path style=" stroke:none;fill-rule:evenodd;fill:rgb(47.44873%,58.428955%,65.098572%);fill-opacity:1;" d="M 99.023438 190.992188 C 99.023438 190.992188 101.746094 192.460938 102.464844 192.667969 C 103.183594 192.878906 108.386719 190.332031 108.386719 190.332031 L 108.121094 188.253906 C 108.121094 188.253906 103.035156 190.929688 102.613281 190.871094 C 102.195312 190.808594 99.554688 189.539062 99.554688 189.539062 L 99.023438 190.992188 "/>
<path style=" stroke:none;fill-rule:evenodd;fill:rgb(47.44873%,58.428955%,65.098572%);fill-opacity:1;" d="M 126.667969 190.992188 C 126.667969 190.992188 123.949219 192.460938 123.226562 192.667969 C 122.511719 192.878906 117.304688 190.332031 117.304688 190.332031 L 117.570312 188.253906 C 117.570312 188.253906 122.660156 190.929688 123.078125 190.871094 C 123.496094 190.808594 126.140625 189.539062 126.140625 189.539062 L 126.667969 190.992188 "/>
<path style=" stroke:none;fill-rule:evenodd;fill:rgb(21.569824%,28.239441%,57.649231%);fill-opacity:1;" d="M 89.902344 106.660156 C 89.96875 106.496094 92.894531 102.554688 92.882812 102.519531 C 92.871094 102.480469 92.277344 102.246094 92.277344 102.246094 C 91.160156 103.550781 90.140625 103.707031 88.527344 103.347656 L 88.296875 103.726562 L 89.902344 106.660156 "/>
<path style=" stroke:none;fill-rule:evenodd;fill:rgb(96.469116%,78.819275%,64.709473%);fill-opacity:1;" d="M 145.773438 96.605469 L 149.964844 105.246094 C 149.964844 105.246094 151.757812 107.996094 151.800781 108.972656 C 151.839844 109.949219 150.324219 112.328125 149.445312 114.808594 C 148.566406 117.285156 145.136719 125.039062 141.148438 128.472656 L 137.238281 131.988281 C 137.238281 131.988281 135.503906 139.785156 133.6875 140.503906 L 129.074219 140.957031 L 126.511719 140.003906 C 126.511719 140.003906 125.4375 140.988281 125.269531 140.957031 C 125.105469 140.925781 122.691406 140.660156 123.222656 138.546875 C 123.222656 138.546875 127.136719 134.269531 126.863281 133.46875 C 126.585938 132.667969 125.789062 132.710938 125.191406 133.066406 C 124.59375 133.429688 122.082031 134.90625 121.203125 133.066406 C 121.203125 133.066406 120.824219 132.1875 121.691406 131.789062 C 122.558594 131.390625 127.464844 128.074219 127.464844 128.074219 L 131.695312 128.394531 C 131.695312 128.394531 134.710938 125.367188 135.882812 120.5625 C 137.054688 115.761719 137.441406 111.691406 138.699219 109.292969 L 136.082031 105.058594 C 136.082031 105.058594 139.351562 98.902344 145.773438 96.605469 "/>
<path style=" stroke:none;fill-rule:evenodd;fill:rgb(84.309387%,58.428955%,47.839355%);fill-opacity:1;" d="M 78.742188 100.273438 L 81.492188 96.949219 C 81.492188 96.949219 80.765625 96.40625 80.53125 96.4375 C 80.296875 96.464844 77.257812 101.625 77.257812 101.625 L 78.742188 100.273438 "/>
<path style=" stroke:none;fill-rule:evenodd;fill:rgb(84.309387%,58.428955%,47.839355%);fill-opacity:1;" d="M 88.296875 103.988281 L 89.636719 106.863281 L 86.074219 111.144531 C 86.074219 111.144531 87.554688 104.832031 88.296875 103.988281 "/>
<path style=" stroke:none;fill-rule:evenodd;fill:rgb(96.469116%,78.819275%,64.709473%);fill-opacity:1;" d="M 83.425781 95.066406 C 83.320312 95.195312 75.988281 103.347656 75.988281 103.347656 C 75.988281 103.347656 73.101562 105.738281 73.027344 108.394531 C 72.949219 111.050781 74.550781 115.980469 75.359375 116.578125 C 76.167969 117.175781 76.550781 117.34375 77.257812 116.996094 C 77.960938 116.644531 78.835938 116.488281 79.96875 116.339844 C 81.101562 116.1875 84.691406 115.273438 85.683594 112.019531 C 86.667969 108.769531 88.164062 103.347656 88.164062 103.347656 C 88.164062 103.347656 91.144531 104.53125 92.347656 101.769531 C 92.347656 101.769531 94.367188 101.300781 94.707031 100.519531 C 95.046875 99.746094 95.515625 97.019531 95.191406 94.148438 C 94.867188 91.28125 94.417969 90.421875 94.417969 90.421875 C 94.417969 90.421875 95.703125 89.0625 95.507812 88.285156 C 95.3125 87.503906 94.296875 85.699219 94.089844 85.464844 C 93.878906 85.226562 93.519531 85.347656 92.882812 85.515625 C 92.242188 85.6875 88.5 86.753906 88.5 86.753906 L 87.386719 87.144531 C 87.386719 87.144531 86.441406 88.316406 86.074219 89.664062 C 85.710938 91.011719 83.425781 95.066406 83.425781 95.066406 "/>
<path style=" stroke:none;fill-rule:evenodd;fill:rgb(96.469116%,78.819275%,64.709473%);fill-opacity:1;" d="M 84.882812 91.058594 L 84.25 85.226562 C 84.25 85.226562 83.617188 83.453125 85.023438 83.007812 C 86.429688 82.558594 87.085938 82.195312 87.417969 83.007812 C 87.746094 83.816406 88.730469 86.269531 88.730469 86.269531 L 88.730469 86.628906 C 88.730469 86.628906 87.6875 86.847656 87.355469 87.265625 C 87.027344 87.683594 84.746094 92.222656 84.746094 92.222656 L 84.882812 91.058594 "/>
<path style=" stroke:none;fill-rule:evenodd;fill:rgb(82.749939%,57.249451%,29.798889%);fill-opacity:1;" d="M 134.828125 123.347656 C 134.828125 123.347656 120.742188 116.304688 120.726562 116.304688 C 120.714844 116.304688 119.875 115.175781 119.066406 116.707031 C 118.253906 118.234375 112.09375 130.660156 112.09375 130.660156 C 112.09375 130.660156 111.402344 131.351562 112.964844 132.160156 C 114.523438 132.96875 123.707031 137.476562 123.707031 137.476562 L 126.992188 133.597656 C 126.992188 133.597656 126.128906 132.308594 125.5625 132.757812 C 124.992188 133.207031 122.988281 134.410156 122.269531 134.109375 C 121.550781 133.808594 120.691406 133.007812 121.195312 132.402344 C 121.691406 131.789062 127.113281 128.082031 127.113281 128.082031 C 127.113281 128.082031 129.558594 128.230469 130.226562 128.28125 C 130.890625 128.332031 131.695312 128.394531 131.695312 128.394531 L 134.828125 123.347656 "/>
<path style=" stroke:none;fill-rule:evenodd;fill:rgb(82.749939%,57.249451%,29.798889%);fill-opacity:1;" d="M 142.140625 127.277344 C 142.140625 127.277344 143.0625 127.726562 142.792969 128.652344 C 142.523438 129.582031 135.914062 142.5 135.914062 142.5 C 135.914062 142.5 135.792969 143.101562 135.074219 142.949219 C 134.355469 142.800781 130.835938 140.957031 130.835938 140.957031 C 130.835938 140.957031 133.371094 140.964844 134.265625 139.757812 C 135.164062 138.546875 137.257812 133.046875 137.4375 131.808594 C 137.4375 131.808594 141.46875 127.78125 142.140625 127.277344 "/>
<path style=" stroke:none;fill-rule:evenodd;fill:rgb(73.329163%,45.878601%,22.349548%);fill-opacity:1;" d="M 119.21875 116.449219 C 119.21875 116.449219 119.816406 113.96875 120.726562 114.359375 C 121.636719 114.75 133.238281 120.6875 133.238281 120.6875 C 133.238281 120.6875 133.660156 120.832031 133.429688 121.46875 C 133.195312 122.105469 133.050781 122.386719 133.050781 122.386719 L 120.109375 116.1875 C 120.109375 116.1875 119.460938 116.019531 119.21875 116.449219 "/>
<path style=" stroke:none;fill-rule:evenodd;fill:rgb(73.329163%,45.878601%,22.349548%);fill-opacity:1;" d="M 137.4375 131.808594 L 142.195312 127.457031 C 142.195312 127.457031 143.160156 127.804688 142.792969 128.652344 C 142.425781 129.503906 135.914062 142.5 135.914062 142.5 C 135.914062 142.5 135.417969 143.117188 134.828125 142.972656 C 134.238281 142.828125 130.835938 140.957031 130.835938 140.957031 C 130.835938 140.957031 133.789062 140.820312 134.355469 139.832031 C 134.921875 138.84375 136.121094 136.410156 136.375 135.125 C 136.628906 133.839844 136.777344 132.058594 137.4375 131.808594 "/>
<path style=" stroke:none;fill-rule:evenodd;fill:rgb(73.329163%,45.878601%,22.349548%);fill-opacity:1;" d="M 133.496094 122.898438 C 133.496094 122.898438 131.679688 126.613281 130.835938 127.125 C 130.835938 127.125 128.851562 126.949219 128.164062 126.828125 C 127.476562 126.707031 126.609375 126.613281 125.832031 127.457031 C 125.050781 128.296875 121.253906 130.691406 120.355469 131.199219 C 119.457031 131.710938 119.429688 133.6875 120.355469 134.410156 C 121.28125 135.128906 121.878906 135.472656 122.898438 135.222656 C 123.914062 134.976562 124.601562 134.707031 124.601562 134.796875 C 124.601562 134.886719 122.75 137.007812 122.75 137.007812 L 123.824219 137.707031 L 126.863281 133.675781 C 126.863281 133.675781 126.101562 132.457031 125.5625 132.757812 C 125.023438 133.058594 123.828125 133.988281 123.046875 134.046875 C 122.269531 134.109375 120.871094 133.160156 121.121094 132.628906 C 121.371094 132.101562 121.582031 131.832031 122.03125 131.5625 C 122.480469 131.292969 127.261719 128.09375 127.261719 128.09375 C 127.261719 128.09375 131.402344 128.925781 131.84375 128.324219 C 132.285156 127.722656 135.027344 123.144531 135.027344 123.144531 L 133.496094 122.898438 "/>
<path style=" stroke:none;fill-rule:evenodd;fill:rgb(84.309387%,58.428955%,47.839355%);fill-opacity:1;" d="M 146.171875 98.132812 C 146.171875 98.132812 142.554688 99.941406 140.492188 102.019531 L 141.945312 105.058594 C 141.945312 105.058594 144.496094 105.261719 145.972656 106.179688 C 145.972656 106.179688 141.136719 104.445312 138.609375 109.144531 L 135.925781 104.851562 C 135.925781 104.851562 139.867188 98.609375 145.992188 96.359375 L 146.171875 98.132812 "/>
<path style=" stroke:none;fill-rule:evenodd;fill:rgb(84.309387%,58.428955%,47.839355%);fill-opacity:1;" d="M 126.1875 139.582031 L 127.585938 138.261719 C 127.585938 138.261719 127.664062 138.917969 127.863281 138.871094 C 128.0625 138.824219 134.148438 139.902344 134.496094 139.582031 C 134.84375 139.265625 134.371094 140.351562 133.234375 140.503906 C 132.097656 140.660156 130.625 140.75 130.023438 140.863281 C 129.417969 140.980469 129.148438 141.175781 128.820312 140.957031 C 128.492188 140.738281 127.347656 140.296875 127.347656 140.296875 C 127.347656 140.296875 125.699219 140.046875 126.1875 139.582031 "/>
<path style=" stroke:none;fill-rule:evenodd;fill:rgb(84.309387%,58.428955%,47.839355%);fill-opacity:1;" d="M 95.132812 88.253906 C 95.132812 88.253906 93.257812 88.34375 92.789062 88.640625 C 92.324219 88.941406 90.945312 91.789062 90.945312 91.789062 C 90.945312 91.789062 92.371094 96.472656 91.75 99.03125 C 91.125 101.589844 87.058594 100.519531 87.058594 100.519531 C 87.058594 100.519531 84.691406 109.804688 82.988281 112.019531 C 81.28125 114.238281 78.644531 115.199219 77.886719 115.285156 C 77.886719 115.285156 77.09375 116.394531 75.71875 116.246094 C 75.71875 116.246094 76.335938 117.355469 76.796875 117.175781 C 77.257812 116.996094 78.199219 116.375 79.007812 116.367188 C 79.820312 116.359375 83.929688 115.859375 85.023438 113.414062 C 86.117188 110.96875 86.726562 108.539062 87.070312 107.296875 C 87.417969 106.054688 88.296875 103.394531 88.296875 103.394531 C 88.296875 103.394531 89.691406 104.109375 90.917969 103.269531 C 92.140625 102.429688 92.472656 101.503906 92.472656 101.503906 C 92.472656 101.503906 94.28125 101.632812 94.707031 100.519531 C 95.136719 99.410156 96.289062 95.921875 94.589844 90.890625 L 94.703125 89.929688 L 95.253906 89.035156 C 95.253906 89.035156 95.433594 87.984375 95.132812 88.253906 "/>
<path style=" stroke:none;fill-rule:evenodd;fill:rgb(21.569824%,28.239441%,57.649231%);fill-opacity:1;" d="M 135.046875 91.75 L 140.214844 99.910156 L 135.925781 105.058594 L 133.019531 101.214844 L 135.046875 91.75 "/>
<path style=" stroke:none;fill-rule:evenodd;fill:rgb(21.569824%,28.239441%,57.649231%);fill-opacity:1;" d="M 79.078125 99.03125 L 80.792969 96.605469 L 78.101562 95.347656 C 78.101562 95.347656 77.921875 97.761719 79.078125 99.03125 "/>
<path style=" stroke:none;fill-rule:evenodd;fill:rgb(63.529968%,67.059326%,86.669922%);fill-opacity:1;" d="M 84.746094 89.59375 L 81.160156 95.148438 L 81.851562 96.824219 L 78.09375 95.109375 L 84.277344 87.15625 L 84.746094 89.59375 "/>
<path style=" stroke:none;fill-rule:evenodd;fill:rgb(5.099487%,5.099487%,5.099487%);fill-opacity:1;" d="M 113.433594 86.203125 C 113.222656 86.382812 113.007812 86.570312 112.785156 86.753906 C 112.566406 86.570312 112.347656 86.386719 112.136719 86.203125 C 104.300781 79.425781 103.792969 74.621094 103.777344 74.402344 L 103.773438 74.367188 L 103.773438 71.5 C 103.824219 71.542969 103.871094 71.582031 103.929688 71.621094 C 104.136719 71.773438 104.367188 71.875 104.613281 71.964844 L 104.613281 74.347656 C 104.648438 74.625 105.347656 79.242188 112.785156 85.652344 C 112.996094 85.835938 113.210938 86.019531 113.433594 86.203125 "/>
<path style=" stroke:none;fill-rule:evenodd;fill:rgb(5.099487%,5.099487%,5.099487%);fill-opacity:1;" d="M 121.796875 71.5 L 121.796875 74.402344 C 121.777344 74.621094 121.273438 79.425781 113.433594 86.203125 C 113.222656 86.382812 113.007812 86.570312 112.785156 86.753906 C 112.566406 86.570312 112.347656 86.386719 112.136719 86.203125 C 112.359375 86.019531 112.574219 85.835938 112.785156 85.652344 C 120.226562 79.242188 120.925781 74.625 120.960938 74.347656 L 120.960938 71.964844 C 121.207031 71.875 121.4375 71.773438 121.644531 71.621094 C 121.699219 71.582031 121.75 71.542969 121.796875 71.5 "/>
<path style=" stroke:none;fill-rule:evenodd;fill:rgb(5.099487%,5.099487%,5.099487%);fill-opacity:1;" d="M 121.132812 73.585938 C 121.1875 73.292969 121.210938 73 121.214844 72.707031 C 122.949219 73.453125 124.652344 74.203125 126.367188 74.996094 C 129.316406 76.363281 134.105469 78.582031 134.398438 78.714844 C 135.902344 79.390625 137.746094 80.316406 138.21875 81.003906 C 138.941406 82.046875 141.152344 85.996094 141.757812 87.117188 C 142.1875 87.917969 145.785156 92.871094 147.628906 95.378906 L 147.9375 95.800781 L 147.460938 96.011719 C 147.375 96.046875 139.726562 99.484375 135.988281 105.652344 C 135.894531 105.363281 135.703125 105.113281 135.429688 104.957031 C 137.246094 102.082031 139.804688 99.855469 141.84375 98.375 C 143.945312 96.851562 145.8125 95.875 146.652344 95.464844 C 145.5 93.894531 141.511719 88.433594 141.019531 87.515625 C 140.441406 86.4375 138.226562 82.480469 137.53125 81.480469 C 137.210938 81.011719 135.648438 80.203125 134.109375 79.507812 C 133.855469 79.394531 128.992188 77.140625 125.9375 75.726562 C 124.335938 74.988281 122.753906 74.285156 121.132812 73.585938 "/>
<path style=" stroke:none;fill-rule:evenodd;fill:rgb(5.099487%,5.099487%,5.099487%);fill-opacity:1;" d="M 129.988281 140.640625 C 130.308594 150.941406 130.488281 169.851562 128.496094 187.257812 C 127.914062 187.65625 125.71875 189.113281 123.105469 190.339844 C 122.382812 190.148438 118.917969 189.125 115.636719 186.464844 C 115.703125 184.851562 116.148438 174.484375 116.269531 171.890625 C 116.363281 169.878906 114.417969 157.664062 113.210938 150.320312 C 113.054688 149.371094 112.910156 148.503906 112.785156 147.75 C 112.660156 148.503906 112.515625 149.371094 112.359375 150.320312 C 112.492188 151.132812 112.636719 152.007812 112.785156 152.921875 C 113.972656 160.230469 115.511719 170.136719 115.433594 171.851562 C 115.300781 174.65625 114.792969 186.515625 114.789062 186.636719 L 114.78125 186.847656 L 114.941406 186.980469 C 118.804688 190.179688 122.882812 191.152344 123.050781 191.191406 L 123.195312 191.226562 L 123.324219 191.164062 C 126.5 189.695312 129.105469 187.851562 129.132812 187.835938 L 129.285156 187.726562 L 129.304688 187.539062 C 131.335938 169.976562 131.144531 150.851562 130.820312 140.503906 C 130.5625 140.636719 130.269531 140.6875 129.988281 140.640625 "/>
<path style=" stroke:none;fill-rule:evenodd;fill:rgb(5.099487%,5.099487%,5.099487%);fill-opacity:1;" d="M 113.210938 150.320312 C 113.054688 149.371094 112.910156 148.503906 112.785156 147.75 C 112.660156 148.503906 112.515625 149.371094 112.359375 150.320312 C 111.152344 157.664062 109.207031 169.878906 109.304688 171.890625 C 109.425781 174.484375 109.867188 184.851562 109.9375 186.464844 C 106.660156 189.121094 103.1875 190.148438 102.464844 190.339844 C 99.855469 189.113281 97.660156 187.65625 97.074219 187.257812 C 94.746094 166.933594 95.386719 144.554688 95.75 136.226562 C 95.722656 136.230469 95.699219 136.230469 95.671875 136.230469 C 95.363281 136.230469 95.113281 136.140625 94.917969 135.992188 C 94.558594 144.214844 93.886719 166.953125 96.265625 187.539062 L 96.285156 187.726562 L 96.4375 187.835938 C 96.464844 187.851562 99.074219 189.695312 102.25 191.164062 L 102.378906 191.226562 L 102.519531 191.191406 C 102.691406 191.152344 106.769531 190.179688 110.632812 186.980469 L 110.792969 186.847656 L 110.78125 186.636719 C 110.777344 186.515625 110.273438 174.65625 110.140625 171.851562 C 110.058594 170.136719 111.601562 160.230469 112.785156 152.921875 C 112.933594 152.007812 113.078125 151.132812 113.210938 150.320312 "/>
<g clip-path="url(#clip1)" clip-rule="nonzero">
<path style=" stroke:none;fill-rule:evenodd;fill:rgb(5.099487%,5.099487%,5.099487%);fill-opacity:1;" d="M 132.199219 198.332031 C 131.917969 196.210938 130.847656 195.101562 129.609375 193.816406 C 128.507812 192.671875 127.277344 191.394531 126.246094 189.082031 C 126.039062 189.269531 125.773438 189.394531 125.480469 189.414062 C 126.578125 191.875 127.90625 193.257812 129.007812 194.398438 C 130.191406 195.625 131.125 196.59375 131.367188 198.441406 C 131.449219 199.042969 131.296875 199.527344 130.910156 199.925781 C 129.488281 201.378906 125.246094 201.261719 123.730469 201.097656 L 123.703125 201.09375 L 123.675781 201.09375 C 119.960938 201.199219 119.675781 200.25 119.191406 198.675781 C 119.023438 198.125 118.828125 197.5 118.472656 196.855469 C 117.136719 194.433594 116.832031 193.277344 117.175781 191.902344 C 117.398438 190.996094 117.722656 189.496094 117.957031 188.40625 C 117.621094 188.367188 117.363281 188.214844 117.1875 188 C 116.957031 189.089844 116.597656 190.738281 116.359375 191.699219 C 115.914062 193.496094 116.453125 194.925781 117.742188 197.261719 C 118.054688 197.832031 118.226562 198.386719 118.390625 198.925781 C 118.652344 199.773438 118.898438 200.578125 119.667969 201.148438 C 120.46875 201.742188 121.699219 201.984375 123.671875 201.933594 C 123.847656 201.953125 124.667969 202.03125 125.730469 202.03125 C 127.613281 202.03125 130.265625 201.785156 131.507812 200.511719 C 132.082031 199.925781 132.3125 199.195312 132.199219 198.332031 "/>
</g>
<path style=" stroke:none;fill-rule:evenodd;fill:rgb(5.099487%,5.099487%,5.099487%);fill-opacity:1;" d="M 123.628906 200.0625 C 120.960938 200.0625 120.292969 199.824219 119.648438 197.730469 C 119.355469 196.769531 118.746094 196.136719 118.15625 195.523438 C 117.25 194.578125 116.308594 193.601562 116.597656 191.484375 L 117.074219 191.550781 C 116.8125 193.433594 117.597656 194.25 118.503906 195.195312 C 119.128906 195.84375 119.78125 196.515625 120.109375 197.59375 C 120.730469 199.621094 121.117188 199.617188 124.800781 199.574219 C 125.359375 199.570312 125.988281 199.5625 126.699219 199.5625 C 129.613281 199.5625 130.734375 198.9375 131.164062 198.410156 C 131.46875 198.035156 131.410156 197.714844 131.410156 197.710938 L 131.878906 197.613281 C 131.882812 197.636719 131.988281 198.160156 131.535156 198.714844 C 130.816406 199.597656 129.191406 200.042969 126.699219 200.042969 C 125.992188 200.042969 125.359375 200.046875 124.808594 200.054688 C 124.375 200.058594 123.984375 200.0625 123.628906 200.0625 "/>
<g clip-path="url(#clip2)" clip-rule="nonzero">
<path style=" stroke:none;fill-rule:evenodd;fill:rgb(5.099487%,5.099487%,5.099487%);fill-opacity:1;" d="M 108.40625 188.09375 C 108.164062 188.246094 107.90625 188.371094 107.625 188.453125 C 107.855469 189.535156 108.175781 191.007812 108.398438 191.902344 C 108.738281 193.277344 108.433594 194.433594 107.097656 196.855469 C 106.742188 197.5 106.550781 198.125 106.378906 198.675781 C 105.898438 200.25 105.609375 201.199219 101.898438 201.09375 L 101.867188 201.09375 L 101.839844 201.097656 C 100.324219 201.261719 96.082031 201.378906 94.660156 199.925781 C 94.277344 199.527344 94.125 199.042969 94.203125 198.441406 C 94.449219 196.59375 95.382812 195.625 96.566406 194.398438 C 97.671875 193.25 99.011719 191.859375 100.113281 189.363281 C 99.835938 189.332031 99.566406 189.214844 99.359375 189.007812 C 98.324219 191.367188 97.078125 192.660156 95.960938 193.816406 C 94.722656 195.101562 93.652344 196.210938 93.375 198.332031 C 93.261719 199.195312 93.492188 199.925781 94.0625 200.511719 C 95.304688 201.785156 97.957031 202.03125 99.839844 202.03125 C 100.90625 202.03125 101.722656 201.953125 101.902344 201.933594 C 103.871094 201.984375 105.101562 201.742188 105.90625 201.148438 C 106.675781 200.578125 106.921875 199.773438 107.179688 198.925781 C 107.347656 198.386719 107.515625 197.832031 107.832031 197.261719 C 109.121094 194.925781 109.65625 193.496094 109.210938 191.699219 C 108.980469 190.765625 108.636719 189.183594 108.40625 188.09375 "/>
</g>
<path style=" stroke:none;fill-rule:evenodd;fill:rgb(5.099487%,5.099487%,5.099487%);fill-opacity:1;" d="M 101.945312 200.0625 C 104.613281 200.0625 105.28125 199.824219 105.921875 197.730469 C 106.21875 196.769531 106.824219 196.136719 107.414062 195.523438 C 108.324219 194.578125 109.265625 193.601562 108.972656 191.484375 L 108.5 191.550781 C 108.757812 193.433594 107.976562 194.25 107.070312 195.195312 C 106.441406 195.84375 105.792969 196.515625 105.464844 197.59375 C 104.84375 199.621094 104.457031 199.617188 100.769531 199.574219 C 100.214844 199.570312 99.585938 199.5625 98.871094 199.5625 C 95.957031 199.5625 94.835938 198.9375 94.410156 198.410156 C 94.105469 198.035156 94.160156 197.714844 94.160156 197.710938 L 93.691406 197.613281 C 93.6875 197.636719 93.585938 198.160156 94.039062 198.714844 C 94.753906 199.597656 96.378906 200.042969 98.871094 200.042969 C 99.582031 200.042969 100.210938 200.046875 100.765625 200.054688 C 101.199219 200.058594 101.589844 200.0625 101.945312 200.0625 "/>
<path style=" stroke:none;fill-rule:evenodd;fill:rgb(5.099487%,5.099487%,5.099487%);fill-opacity:1;" d="M 125.566406 80.609375 C 125.328125 78.101562 124.855469 76.0625 124.421875 74.589844 C 124.28125 74.117188 123.855469 74.179688 123.910156 74.359375 C 124.367188 75.828125 124.894531 77.972656 125.148438 80.671875 C 125.609375 85.566406 125.25 93.320312 120.929688 102.492188 L 119.867188 102.492188 C 119.773438 102.300781 119.613281 101.855469 119.863281 101.429688 L 120.867188 101.359375 L 120.925781 101.261719 C 120.941406 101.226562 122.671875 98.019531 123.851562 93.089844 C 124.945312 88.539062 125.777344 81.539062 123.5625 74.046875 L 123.160156 74.164062 C 125.347656 81.566406 124.523438 88.480469 123.449219 92.980469 C 122.398438 97.371094 120.90625 100.382812 120.609375 100.957031 L 119.632812 101.027344 L 119.574219 101.105469 C 118.992188 101.917969 119.546875 102.78125 119.566406 102.820312 L 119.632812 102.914062 L 121.195312 102.914062 L 121.25 102.792969 C 125.671875 93.46875 126.039062 85.585938 125.566406 80.609375 "/>
<path style=" stroke:none;fill-rule:evenodd;fill:rgb(5.099487%,5.099487%,5.099487%);fill-opacity:1;" d="M 121.996094 100.578125 C 121.984375 100.605469 121.972656 100.636719 121.96875 100.664062 C 121.964844 100.691406 121.960938 100.703125 121.957031 100.710938 C 121.984375 100.933594 121.839844 101.089844 121.667969 101.15625 C 121.695312 101.605469 121.671875 102.082031 121.585938 102.578125 C 121.261719 104.421875 120.175781 105.816406 119.054688 105.933594 C 118.925781 105.945312 118.792969 105.941406 118.660156 105.917969 C 118.480469 105.886719 118.316406 105.820312 118.160156 105.726562 C 117.226562 105.164062 116.742188 103.546875 117.050781 101.773438 C 117.363281 100.007812 118.375 98.652344 119.445312 98.445312 C 119.621094 98.40625 119.800781 98.402344 119.980469 98.433594 C 120.109375 98.457031 120.234375 98.5 120.355469 98.558594 C 120.769531 98.757812 121.101562 99.15625 121.332031 99.683594 C 121.339844 99.652344 121.351562 99.628906 121.359375 99.597656 C 121.410156 99.453125 121.507812 99.371094 121.613281 99.328125 C 121.507812 99.117188 121.386719 98.925781 121.25 98.761719 C 121.015625 98.476562 120.738281 98.261719 120.429688 98.132812 C 120.308594 98.082031 120.183594 98.042969 120.050781 98.019531 C 118.574219 97.761719 117.042969 99.410156 116.636719 101.703125 C 116.234375 103.996094 117.109375 106.070312 118.585938 106.332031 C 118.71875 106.355469 118.851562 106.363281 118.980469 106.355469 C 119.320312 106.34375 119.652344 106.234375 119.96875 106.046875 C 120.921875 105.484375 121.722656 104.21875 122 102.648438 C 122.128906 101.90625 122.125 101.1875 122.011719 100.542969 C 122.003906 100.554688 122 100.566406 121.996094 100.578125 "/>
<path style=" stroke:none;fill-rule:evenodd;fill:rgb(5.099487%,5.099487%,5.099487%);fill-opacity:1;" d="M 119.433594 106.054688 C 119.300781 106.03125 119.175781 105.988281 119.054688 105.933594 C 118.042969 105.441406 117.5 103.757812 117.824219 101.914062 C 118.148438 100.066406 119.234375 98.671875 120.355469 98.558594 C 120.488281 98.542969 120.617188 98.546875 120.75 98.574219 C 120.925781 98.601562 121.09375 98.667969 121.25 98.761719 C 121.015625 98.476562 120.738281 98.261719 120.429688 98.132812 C 120.09375 98.148438 119.761719 98.257812 119.445312 98.445312 C 118.492188 99.003906 117.683594 100.273438 117.410156 101.839844 C 117.132812 103.40625 117.453125 104.871094 118.160156 105.726562 C 118.394531 106.011719 118.667969 106.230469 118.980469 106.355469 C 119.320312 106.34375 119.652344 106.234375 119.96875 106.046875 C 119.789062 106.082031 119.609375 106.085938 119.433594 106.054688 "/>
<path style=" stroke:none;fill-rule:evenodd;fill:rgb(5.099487%,5.099487%,5.099487%);fill-opacity:1;" d="M 123.34375 97.222656 C 123.074219 97.214844 122.542969 97.023438 122.484375 97 L 122.632812 96.605469 C 122.832031 96.679688 123.203125 96.800781 123.355469 96.800781 L 123.34375 97.222656 "/>
<path style=" stroke:none;fill-rule:evenodd;fill:rgb(5.099487%,5.099487%,5.099487%);fill-opacity:1;" d="M 104.792969 90.691406 C 104.734375 90.597656 103.390625 88.484375 101.433594 88.449219 C 101.253906 87.054688 100.234375 78.082031 103.105469 73.941406 L 102.855469 73.765625 C 102.773438 73.851562 102.683594 73.925781 102.574219 73.980469 C 99.621094 78.707031 100.980469 88.28125 101.042969 88.695312 L 101.070312 88.882812 L 101.265625 88.871094 C 102.882812 88.785156 104.125 90.460938 104.386719 90.839844 C 104.308594 91.058594 104.125 91.273438 103.976562 91.410156 C 103.519531 90.847656 102.035156 89.171875 100.945312 89.738281 C 100.027344 90.214844 100.074219 92.027344 100.117188 92.628906 C 99.914062 92.644531 99.589844 92.515625 99.359375 92.390625 C 99.316406 91.992188 99.226562 90.386719 100.457031 89.125 L 100.527344 89.050781 L 100.515625 88.949219 C 100.5 88.847656 99.171875 79.199219 102.117188 74.125 C 102.066406 74.128906 102.011719 74.132812 101.957031 74.132812 C 101.84375 74.132812 101.742188 74.121094 101.644531 74.097656 C 100.507812 76.15625 99.882812 79.089844 99.789062 82.84375 C 99.710938 85.828125 100.015625 88.375 100.085938 88.90625 C 98.601562 90.496094 98.941406 92.476562 98.957031 92.5625 L 98.976562 92.652344 L 99.054688 92.703125 C 99.171875 92.773438 99.65625 93.050781 100.085938 93.050781 C 100.214844 93.050781 100.339844 93.027344 100.445312 92.964844 L 100.5625 92.894531 L 100.550781 92.761719 C 100.484375 92.144531 100.464844 90.460938 101.136719 90.113281 C 101.890625 89.722656 103.242188 91.109375 103.78125 91.839844 L 103.90625 92.011719 L 104.074219 91.882812 C 104.101562 91.863281 104.699219 91.410156 104.820312 90.847656 L 104.839844 90.761719 L 104.792969 90.691406 "/>
<path style=" stroke:none;fill-rule:evenodd;fill:rgb(5.099487%,5.099487%,5.099487%);fill-opacity:1;" d="M 107.546875 95.820312 C 106.417969 92.699219 104.777344 90.789062 104.707031 90.710938 L 104.605469 90.589844 L 104.460938 90.714844 C 104.484375 90.816406 104.511719 90.921875 104.503906 91.023438 C 104.5 91.050781 104.496094 91.078125 104.492188 91.105469 L 104.570312 91.039062 C 104.949219 91.503906 106.285156 93.265625 107.25 95.929688 C 108.273438 98.761719 109.035156 103.183594 106.851562 108.15625 L 106.746094 108.394531 L 104.863281 108.117188 L 104.960938 107.453125 L 106.335938 107.652344 L 106.382812 107.539062 C 107.914062 103.828125 107.996094 100.015625 106.625 96.195312 C 105.734375 93.699219 104.457031 91.980469 104.074219 91.5 C 104.066406 91.5 104.058594 91.503906 104.046875 91.503906 C 103.941406 91.515625 103.816406 91.449219 103.742188 91.378906 C 103.738281 91.371094 103.730469 91.363281 103.722656 91.355469 L 103.621094 91.449219 L 103.722656 91.566406 C 103.738281 91.585938 105.292969 93.410156 106.332031 96.300781 C 107.660156 100.007812 107.59375 103.707031 106.136719 107.304688 L 104.695312 107.09375 L 104.503906 108.386719 L 106.941406 108.742188 L 107.140625 108.285156 C 109.367188 103.214844 108.589844 98.710938 107.546875 95.820312 "/>
<path style=" stroke:none;fill-rule:evenodd;fill:rgb(5.099487%,5.099487%,5.099487%);fill-opacity:1;" d="M 103.375 108.726562 C 103.261719 108.726562 103.15625 108.671875 103.082031 108.566406 C 102.863281 108.265625 102.941406 107.542969 103.136719 107.050781 C 103.265625 106.722656 103.53125 106.515625 103.84375 106.503906 C 104.097656 106.492188 104.332031 106.609375 104.421875 106.792969 C 104.480469 106.910156 104.980469 107.097656 105.398438 107.195312 L 105.324219 107.503906 C 105.085938 107.449219 104.292969 107.242188 104.140625 106.933594 C 104.109375 106.875 103.996094 106.8125 103.855469 106.816406 C 103.746094 106.824219 103.546875 106.875 103.429688 107.164062 C 103.238281 107.652344 103.222656 108.222656 103.339844 108.382812 C 103.359375 108.410156 103.371094 108.410156 103.382812 108.410156 C 103.496094 108.40625 103.644531 108.359375 103.820312 108.300781 C 104.136719 108.199219 104.535156 108.070312 104.972656 108.136719 L 105.550781 108.21875 L 105.503906 108.53125 L 104.925781 108.449219 C 104.5625 108.394531 104.21875 108.507812 103.914062 108.601562 C 103.71875 108.664062 103.550781 108.71875 103.398438 108.726562 C 103.390625 108.726562 103.382812 108.726562 103.375 108.726562 "/>
<path style=" stroke:none;fill-rule:evenodd;fill:rgb(5.099487%,5.099487%,5.099487%);fill-opacity:1;" d="M 106.648438 106.121094 C 106.648438 106.109375 106.652344 106.101562 106.652344 106.09375 C 106.691406 105.984375 106.757812 105.910156 106.832031 105.863281 C 104.085938 103.921875 102.167969 101.261719 101.121094 97.929688 C 100.199219 95 100.335938 92.601562 100.335938 92.578125 L 100.34375 92.421875 L 100.207031 92.414062 C 100.207031 92.421875 100.207031 92.429688 100.207031 92.4375 C 100.191406 92.539062 100.132812 92.667969 100.039062 92.722656 C 100.03125 92.730469 100.023438 92.734375 100.015625 92.738281 C 100 93.355469 100.023438 95.492188 100.820312 98.023438 C 101.886719 101.421875 103.84375 104.136719 106.648438 106.121094 "/>
<path style=" stroke:none;fill-rule:evenodd;fill:rgb(5.099487%,5.099487%,5.099487%);fill-opacity:1;" d="M 108.941406 105.527344 L 107.917969 106.570312 C 107.808594 106.503906 107.699219 106.433594 107.589844 106.363281 C 107.585938 106.375 107.585938 106.386719 107.585938 106.398438 C 107.5625 106.5 107.546875 106.597656 107.527344 106.699219 C 107.640625 106.769531 107.753906 106.839844 107.867188 106.902344 L 107.972656 106.96875 L 108.945312 105.972656 L 109.429688 106.445312 L 108.09375 107.808594 L 107.867188 107.683594 C 107.703125 107.589844 107.542969 107.496094 107.386719 107.402344 C 107.382812 107.417969 107.378906 107.433594 107.375 107.453125 L 107.292969 107.691406 C 107.425781 107.792969 107.570312 107.878906 107.714844 107.960938 L 108.148438 108.199219 L 109.875 106.441406 L 108.941406 105.527344 "/>
<path style=" stroke:none;fill-rule:evenodd;fill:rgb(5.099487%,5.099487%,5.099487%);fill-opacity:1;" d="M 106.355469 107.070312 C 106.402344 106.984375 106.433594 106.898438 106.464844 106.8125 C 102.707031 104.222656 100.96875 100.765625 100.164062 98.1875 C 99.320312 95.484375 99.320312 93.273438 99.339844 92.671875 L 99.441406 92.679688 C 99.425781 92.660156 99.402344 92.640625 99.386719 92.621094 C 99.320312 92.542969 99.277344 92.441406 99.234375 92.347656 L 99.042969 92.335938 L 99.035156 92.496094 C 99.027344 92.601562 98.875 95.117188 99.863281 98.28125 C 100.6875 100.921875 102.472656 104.46875 106.339844 107.109375 C 106.34375 107.09375 106.347656 107.082031 106.355469 107.070312 "/>
<path style=" stroke:none;fill-rule:evenodd;fill:rgb(5.099487%,5.099487%,5.099487%);fill-opacity:1;" d="M 110.976562 106.027344 C 111.070312 105.957031 111.121094 105.851562 111.117188 105.722656 C 111.105469 105.351562 110.609375 104.824219 110.15625 104.546875 C 109.855469 104.363281 109.519531 104.359375 109.265625 104.539062 C 109.054688 104.6875 108.941406 104.921875 108.976562 105.125 C 109.003906 105.253906 108.71875 105.707031 108.445312 106.035156 L 108.6875 106.238281 C 108.84375 106.046875 109.351562 105.402344 109.289062 105.066406 C 109.277344 104.996094 109.332031 104.878906 109.445312 104.800781 C 109.535156 104.738281 109.726562 104.65625 109.992188 104.816406 C 110.441406 105.089844 110.796875 105.53125 110.800781 105.730469 C 110.804688 105.765625 110.792969 105.773438 110.785156 105.78125 C 110.691406 105.84375 110.542969 105.898438 110.371094 105.957031 C 110.054688 106.070312 109.660156 106.210938 109.351562 106.523438 L 108.941406 106.941406 L 109.167969 107.164062 L 109.574219 106.746094 C 109.835938 106.484375 110.175781 106.363281 110.476562 106.253906 C 110.667969 106.183594 110.835938 106.128906 110.960938 106.039062 C 110.96875 106.035156 110.972656 106.03125 110.976562 106.027344 "/>
<path style=" stroke:none;fill-rule:evenodd;fill:rgb(5.099487%,5.099487%,5.099487%);fill-opacity:1;" d="M 131.652344 119.535156 C 131.097656 113.363281 131.246094 108.664062 132.125 105.820312 C 132.886719 103.351562 133.859375 99.46875 134.648438 96.164062 C 135.203125 93.875 135.265625 89.78125 135.265625 89.78125 C 135.242188 89.886719 132.855469 100.613281 131.324219 105.570312 C 130.417969 108.5 130.242188 113.136719 130.777344 119.261719 C 131.085938 119.246094 131.40625 119.347656 131.652344 119.535156 "/>
<path style=" stroke:none;fill-rule:evenodd;fill:rgb(5.099487%,5.099487%,5.099487%);fill-opacity:1;" d="M 123.257812 138.871094 C 121.121094 139.617188 118.75 140.253906 116.265625 140.601562 C 114.105469 140.902344 112.246094 140.941406 110.085938 140.695312 C 101.433594 139.703125 94.035156 135.050781 92.675781 134.152344 C 95.257812 120.417969 95.8125 110.542969 94.277344 105.570312 C 93.910156 104.378906 93.492188 102.847656 93.066406 101.214844 C 92.832031 101.371094 92.542969 101.449219 92.261719 101.4375 C 92.6875 103.082031 93.105469 104.617188 93.476562 105.820312 C 94.960938 110.621094 94.367188 120.722656 91.796875 134.269531 L 91.75 134.535156 L 91.972656 134.691406 C 92.074219 134.761719 94.527344 136.472656 98.390625 138.207031 C 101.289062 139.507812 105.445312 141.011719 110.019531 141.53125 C 112.417969 141.804688 113.929688 141.773438 116.390625 141.429688 C 118.941406 141.070312 121.34375 140.421875 123.449219 139.699219 C 123.296875 139.457031 123.234375 139.160156 123.257812 138.871094 "/>
<path style=" stroke:none;fill-rule:evenodd;fill:rgb(5.099487%,5.099487%,5.099487%);fill-opacity:1;" d="M 133.101562 100.304688 C 132.976562 100.621094 132.863281 100.953125 132.757812 101.28125 C 133.796875 102.796875 136.714844 107.117188 138.398438 110.1875 C 138.40625 109.9375 138.433594 109.691406 138.492188 109.4375 C 138.53125 109.277344 138.601562 109.132812 138.699219 109.007812 C 136.664062 105.453125 133.515625 100.898438 133.101562 100.304688 "/>
<g clip-path="url(#clip3)" clip-rule="nonzero">
<path style=" stroke:none;fill-rule:evenodd;fill:rgb(5.099487%,5.099487%,5.099487%);fill-opacity:1;" d="M 88.402344 87.222656 C 88.035156 87.222656 87.539062 87.351562 87.261719 87.988281 C 86.726562 89.195312 83.847656 95.136719 83.726562 95.390625 L 83.699219 95.4375 L 83.667969 95.476562 C 83.617188 95.539062 78.554688 101.503906 76.832031 103.347656 C 76.632812 103.5625 76.429688 103.773438 76.230469 103.980469 C 74.746094 105.542969 73.460938 106.890625 73.414062 108.585938 C 73.371094 110.058594 74.25 112.496094 74.777344 113.953125 C 74.972656 114.503906 75.128906 114.9375 75.195312 115.203125 C 75.386719 115.945312 76.171875 116.710938 76.730469 116.667969 C 77.074219 116.640625 77.558594 116.460938 78.023438 116.289062 C 78.535156 116.101562 79.015625 115.921875 79.421875 115.886719 L 79.453125 115.886719 C 81.222656 115.738281 84.355469 114.988281 85.460938 111.621094 C 86.816406 107.492188 87.714844 103.253906 87.726562 103.210938 L 87.835938 102.675781 L 88.324219 102.925781 C 88.328125 102.929688 88.859375 103.1875 89.539062 103.1875 C 90.570312 103.1875 91.378906 102.605469 91.945312 101.460938 L 92.042969 101.269531 L 92.246094 101.234375 C 93.183594 101.058594 94.113281 100.800781 94.316406 100.652344 C 94.464844 100.359375 96.1875 96.652344 93.933594 90.496094 L 93.859375 90.292969 L 93.984375 90.113281 C 94.464844 89.414062 95.007812 88.527344 95.085938 88.261719 C 94.976562 87.875 94.105469 86.242188 93.777344 85.730469 C 93.207031 85.820312 91.464844 86.363281 90.164062 86.773438 C 89.671875 86.925781 89.183594 87.078125 88.734375 87.21875 L 88.636719 87.246094 L 88.539062 87.226562 C 88.539062 87.226562 88.484375 87.222656 88.402344 87.222656 Z M 76.691406 117.507812 C 75.746094 117.507812 74.667969 116.527344 74.386719 115.40625 C 74.328125 115.183594 74.167969 114.746094 73.984375 114.238281 C 73.40625 112.628906 72.53125 110.195312 72.578125 108.5625 C 72.632812 106.546875 74.085938 105.019531 75.625 103.402344 C 75.820312 103.195312 76.019531 102.988281 76.21875 102.773438 C 77.855469 101.023438 82.542969 95.507812 82.992188 94.976562 C 83.273438 94.394531 85.988281 88.785156 86.492188 87.648438 C 87 86.503906 87.996094 86.382812 88.402344 86.382812 C 88.46875 86.382812 88.527344 86.386719 88.574219 86.390625 C 88.996094 86.257812 89.453125 86.117188 89.910156 85.972656 C 92.085938 85.289062 93.4375 84.875 93.902344 84.875 C 93.964844 84.875 94.148438 84.875 94.292969 85.019531 C 94.492188 85.21875 95.90625 87.707031 95.929688 88.238281 C 95.941406 88.550781 95.558594 89.28125 94.796875 90.410156 C 95.71875 93.011719 96.085938 95.59375 95.863281 97.894531 C 95.679688 99.757812 95.167969 100.886719 95.003906 101.132812 C 94.789062 101.457031 93.980469 101.753906 92.601562 102.019531 C 91.707031 103.671875 90.449219 104.027344 89.539062 104.027344 C 89.105469 104.027344 88.722656 103.945312 88.441406 103.859375 C 88.164062 105.09375 87.359375 108.523438 86.257812 111.878906 C 85 115.710938 81.5 116.558594 79.523438 116.722656 L 79.492188 116.722656 C 79.199219 116.75 78.75 116.914062 78.316406 117.074219 C 77.796875 117.269531 77.253906 117.46875 76.796875 117.503906 C 76.761719 117.507812 76.726562 117.507812 76.691406 117.507812 "/>
</g>
<path style=" stroke:none;fill-rule:evenodd;fill:rgb(5.099487%,5.099487%,5.099487%);fill-opacity:1;" d="M 87.628906 82.792969 C 87.109375 82.386719 86.480469 82.273438 85.757812 82.453125 C 83.3125 83.066406 83.644531 84.957031 83.839844 86.085938 C 84.078125 87.472656 84.5625 92.523438 84.566406 92.570312 L 84.820312 92.546875 C 84.945312 92.105469 85.097656 91.667969 85.277344 91.246094 C 85.117188 89.636719 84.835938 86.933594 84.664062 85.945312 C 84.394531 84.386719 84.515625 83.628906 85.960938 83.265625 C 86.429688 83.152344 86.804688 83.210938 87.113281 83.453125 C 87.714844 83.925781 88.082031 85.070312 88.171875 86.722656 C 88.316406 86.664062 88.484375 86.628906 88.671875 86.628906 C 88.792969 86.628906 88.90625 86.644531 89.007812 86.667969 C 88.925781 85.183594 88.59375 83.546875 87.628906 82.792969 "/>
<path style=" stroke:none;fill-rule:evenodd;fill:rgb(5.099487%,5.099487%,5.099487%);fill-opacity:1;" d="M 78.605469 99.542969 C 78.738281 99.261719 78.925781 99.011719 79.136719 98.78125 C 78.355469 97.105469 78.398438 95.691406 78.425781 95.3125 C 78.9375 94.660156 81.957031 90.800781 84.746094 87.242188 C 84.644531 87.113281 84.5625 86.960938 84.523438 86.792969 C 84.476562 86.613281 84.453125 86.4375 84.445312 86.269531 C 81.398438 90.152344 77.9375 94.574219 77.691406 94.890625 L 77.625 94.976562 L 77.609375 95.085938 C 77.589844 95.195312 77.316406 97.21875 78.589844 99.585938 C 78.597656 99.570312 78.601562 99.558594 78.605469 99.542969 "/>
<path style=" stroke:none;fill-rule:evenodd;fill:rgb(5.099487%,5.099487%,5.099487%);fill-opacity:1;" d="M 103.976562 72.863281 C 103.773438 72.9375 92.636719 77.8125 92.398438 77.910156 C 91.414062 78.304688 90.191406 79.027344 89.636719 79.703125 C 89.410156 79.980469 88.042969 81.691406 87 83.015625 C 87.222656 83.074219 87.429688 83.183594 87.589844 83.34375 C 87.632812 83.386719 87.671875 83.429688 87.707031 83.476562 C 88.722656 82.183594 90.0625 80.503906 90.285156 80.238281 C 90.691406 79.742188 91.703125 79.105469 92.601562 78.738281 C 92.890625 78.617188 104.082031 73.71875 104.339844 73.628906 C 104.132812 73.429688 104.011719 73.152344 103.976562 72.863281 "/>
<path style=" stroke:none;fill-rule:evenodd;fill:rgb(5.099487%,5.099487%,5.099487%);fill-opacity:1;" d="M 85.710938 113.132812 L 85.023438 112.652344 L 92.398438 102.074219 L 93.085938 102.554688 L 85.710938 113.132812 "/>
<path style=" stroke:none;fill-rule:evenodd;fill:rgb(5.099487%,5.099487%,5.099487%);fill-opacity:1;" d="M 80.5625 96.117188 C 80.550781 96.105469 80.542969 96.09375 80.53125 96.082031 L 74.199219 104.925781 L 74.878906 105.414062 L 81.28125 96.472656 C 81.015625 96.433594 80.753906 96.308594 80.5625 96.117188 "/>
<path style=" stroke:none;fill-rule:evenodd;fill:rgb(5.099487%,5.099487%,5.099487%);fill-opacity:1;" d="M 82.054688 96.742188 C 79.925781 95.375 78.242188 94.78125 78.160156 94.75 L 77.886719 95.542969 C 77.921875 95.554688 79.527344 96.132812 81.550781 97.429688 C 81.703125 97.1875 81.871094 96.960938 82.054688 96.742188 "/>
<path style=" stroke:none;fill-rule:evenodd;fill:rgb(5.099487%,5.099487%,5.099487%);fill-opacity:1;" d="M 88.527344 103.347656 C 88.398438 103.667969 88.1875 103.882812 87.9375 104.003906 C 88.492188 105 88.964844 106.09375 89.304688 107.296875 C 89.347656 107.230469 89.390625 107.160156 89.4375 107.09375 C 89.582031 106.890625 89.769531 106.730469 89.976562 106.617188 C 89.597656 105.421875 89.101562 104.332031 88.527344 103.347656 "/>
<g clip-path="url(#clip4)" clip-rule="nonzero">
<path style=" stroke:none;fill-rule:evenodd;fill:rgb(5.099487%,5.099487%,5.099487%);fill-opacity:1;" d="M 152.171875 108.671875 C 152.070312 108.074219 151.109375 106.285156 150.585938 105.542969 C 150.21875 105.027344 147.679688 99.851562 145.808594 95.980469 C 145.609375 96.179688 145.34375 96.3125 145.054688 96.34375 C 146.285156 98.894531 149.421875 105.351562 149.898438 106.027344 C 150.46875 106.828125 151.28125 108.441406 151.34375 108.804688 C 151.359375 109.007812 151.007812 109.808594 150.597656 110.523438 L 150.566406 110.574219 L 150.554688 110.632812 C 150.523438 110.765625 147.199219 124.078125 137.070312 131.492188 L 136.941406 131.585938 L 136.910156 131.742188 C 136.894531 131.804688 135.539062 138.0625 134.015625 139.699219 C 134.003906 139.710938 133.726562 139.996094 132.984375 140.042969 C 132.574219 140.070312 132.148438 140.144531 131.730469 140.21875 C 131.203125 140.308594 130.652344 140.40625 130.332031 140.347656 C 129.972656 140.28125 129.617188 140.371094 129.308594 140.445312 C 128.953125 140.53125 128.734375 140.578125 128.628906 140.480469 C 128.089844 139.980469 126.644531 139.5625 126.480469 139.519531 L 126.269531 139.460938 L 125.175781 140.363281 C 124.996094 140.382812 124.585938 140.394531 124.25 140.191406 C 123.777344 139.90625 123.394531 138.953125 123.542969 138.632812 C 123.632812 138.449219 124.328125 137.617188 124.886719 136.949219 C 126.183594 135.390625 127.113281 134.25 127.300781 133.703125 L 127.386719 133.460938 L 127.210938 133.277344 C 126.996094 133.054688 126.25 132.332031 125.625 132.371094 C 125.371094 132.386719 125.09375 132.558594 124.667969 132.816406 C 123.996094 133.230469 122.980469 133.855469 122.265625 133.59375 C 121.851562 133.441406 121.613281 133.199219 121.570312 132.890625 C 121.535156 132.621094 121.65625 132.359375 121.792969 132.261719 C 121.925781 132.167969 122.300781 131.929688 122.773438 131.632812 C 124.058594 130.824219 125.996094 129.597656 126.789062 128.910156 L 126.832031 128.871094 C 126.835938 128.867188 127.414062 128.242188 128.148438 128.378906 C 129.128906 128.554688 131.484375 128.945312 131.503906 128.949219 L 131.75 128.988281 L 131.902344 128.796875 C 132.074219 128.578125 136.109375 123.421875 137.253906 116.855469 L 137.324219 116.441406 C 138.390625 110.300781 138.929688 107.21875 143.417969 105.929688 C 143.417969 105.929688 141.285156 105.214844 139.074219 107.753906 C 137.652344 109.667969 137.167969 112.453125 136.5 116.296875 L 136.425781 116.714844 C 135.445312 122.367188 132.132812 127.082031 131.390625 128.078125 C 130.757812 127.972656 129.082031 127.695312 128.300781 127.550781 C 127.1875 127.347656 126.375 128.136719 126.226562 128.292969 C 125.464844 128.941406 123.503906 130.179688 122.328125 130.921875 C 121.824219 131.238281 121.460938 131.46875 121.3125 131.578125 C 120.902344 131.867188 120.667969 132.453125 120.742188 133.003906 C 120.789062 133.367188 121.015625 134.03125 121.976562 134.382812 C 123.074219 134.78125 124.296875 134.03125 125.105469 133.535156 C 125.324219 133.402344 125.589844 133.238281 125.6875 133.207031 C 125.8125 133.214844 126.117188 133.410156 126.394531 133.660156 C 126.03125 134.265625 124.976562 135.53125 124.242188 136.40625 C 123.398438 137.417969 122.914062 138.003906 122.789062 138.273438 C 122.414062 139.066406 123.0625 140.457031 123.820312 140.910156 C 124.550781 141.351562 125.402344 141.179688 125.4375 141.171875 L 125.535156 141.148438 L 126.464844 140.386719 C 127.015625 140.558594 127.800781 140.851562 128.058594 141.09375 C 128.289062 141.304688 128.546875 141.375 128.804688 141.375 C 129.046875 141.375 129.289062 141.316406 129.507812 141.261719 C 129.761719 141.199219 129.996094 141.140625 130.183594 141.175781 C 130.648438 141.257812 131.246094 141.152344 131.878906 141.042969 C 132.269531 140.976562 132.671875 140.902344 133.035156 140.878906 C 134.089844 140.8125 134.554688 140.355469 134.636719 140.265625 C 136.183594 138.59375 137.464844 133.097656 137.695312 132.074219 C 143.046875 128.109375 146.472656 122.574219 148.40625 118.617188 C 150.390625 114.5625 151.230469 111.375 151.351562 110.890625 C 151.652344 110.367188 152.261719 109.214844 152.171875 108.671875 "/>
</g>
<path style=" stroke:none;fill-rule:evenodd;fill:rgb(5.099487%,5.099487%,5.099487%);fill-opacity:1;" d="M 112.507812 131.140625 C 112.421875 130.871094 112.441406 130.585938 112.566406 130.332031 L 119.171875 117.164062 C 119.351562 116.804688 119.710938 116.582031 120.113281 116.582031 C 120.277344 116.582031 120.433594 116.621094 120.582031 116.695312 L 134.433594 123.664062 C 134.457031 123.511719 134.511719 123.363281 134.59375 123.242188 C 134.617188 123.199219 134.644531 123.160156 134.671875 123.117188 C 134.71875 123.050781 134.773438 122.984375 134.828125 122.921875 L 120.960938 115.945312 C 120.695312 115.8125 120.410156 115.742188 120.113281 115.742188 C 119.394531 115.742188 118.746094 116.144531 118.421875 116.789062 L 111.820312 129.957031 C 111.59375 130.40625 111.554688 130.921875 111.714844 131.402344 C 111.871094 131.882812 112.210938 132.269531 112.660156 132.496094 L 123.667969 138.035156 C 123.695312 137.921875 123.746094 137.808594 123.824219 137.707031 C 123.914062 137.574219 124.011719 137.449219 124.109375 137.320312 L 113.035156 131.75 C 112.785156 131.621094 112.597656 131.40625 112.507812 131.140625 "/>
<path style=" stroke:none;fill-rule:evenodd;fill:rgb(5.099487%,5.099487%,5.099487%);fill-opacity:1;" d="M 142.511719 126.828125 C 142.453125 127.113281 142.289062 127.355469 142.0625 127.546875 C 142.410156 127.855469 142.523438 128.371094 142.304688 128.804688 L 135.703125 141.972656 C 135.523438 142.332031 135.160156 142.554688 134.757812 142.554688 C 134.59375 142.554688 134.4375 142.515625 134.289062 142.441406 L 130.65625 140.613281 C 130.144531 140.765625 129.601562 140.820312 129.074219 140.757812 L 133.914062 143.191406 C 134.179688 143.328125 134.464844 143.394531 134.757812 143.394531 C 135.480469 143.394531 136.125 142.996094 136.449219 142.351562 L 143.054688 129.183594 C 143.46875 128.355469 143.21875 127.367188 142.511719 126.828125 "/>
<path style=" stroke:none;fill-rule:evenodd;fill:rgb(5.099487%,5.099487%,5.099487%);fill-opacity:1;" d="M 133.351562 120.179688 L 121.199219 114.066406 C 121.054688 113.992188 120.902344 113.957031 120.738281 113.957031 C 120.191406 113.957031 119.640625 114.359375 119.328125 114.980469 L 118.066406 117.496094 C 118.398438 117.164062 118.789062 116.898438 119.273438 116.785156 C 119.304688 116.773438 119.335938 116.769531 119.371094 116.765625 L 120.078125 115.359375 C 120.257812 114.992188 120.554688 114.796875 120.738281 114.796875 C 120.769531 114.796875 120.796875 114.800781 120.820312 114.816406 L 132.976562 120.929688 C 133.128906 121.007812 133.210938 121.40625 132.984375 121.855469 L 132.757812 122.304688 C 132.910156 122.328125 133.0625 122.378906 133.210938 122.464844 C 133.316406 122.527344 133.414062 122.609375 133.496094 122.703125 L 133.734375 122.230469 C 134.152344 121.398438 133.980469 120.496094 133.351562 120.179688 "/>
<path style=" stroke:none;fill-rule:evenodd;fill:rgb(5.099487%,5.099487%,5.099487%);fill-opacity:1;" d="M 94.117188 90.230469 C 94.117188 90.230469 93.105469 89.8125 92.789062 89.960938 C 92.472656 90.113281 90.917969 91.851562 90.917969 91.851562 C 90.917969 91.851562 93.21875 90.980469 94.265625 90.890625 L 94.117188 90.230469 "/>
<path style=" stroke:none;fill-rule:evenodd;fill:rgb(5.099487%,5.099487%,5.099487%);fill-opacity:1;" d="M 95.042969 93.410156 C 95.042969 93.410156 93.308594 93.859375 92.054688 94.578125 C 92.054688 94.578125 94.238281 94.773438 95.253906 94.390625 L 95.042969 93.410156 "/>
<path style=" stroke:none;fill-rule:evenodd;fill:rgb(5.099487%,5.099487%,5.099487%);fill-opacity:1;" d="M 95.253906 96.949219 C 95.253906 96.949219 93.367188 97.515625 92.59375 97.996094 C 92.59375 97.996094 94.644531 98.15625 95.253906 97.785156 L 95.253906 96.949219 "/>
<path style=" stroke:none;fill-rule:evenodd;fill:rgb(59.609985%,30.589294%,18.429565%);fill-opacity:1;" d="M 96.386719 53.988281 C 96.386719 53.988281 95.074219 43.636719 95.394531 42.402344 C 95.714844 41.164062 97.390625 38.804688 97.390625 38.804688 C 97.390625 38.804688 95.394531 35.925781 95.910156 32.929688 L 97.390625 34.289062 C 97.390625 34.289062 96.710938 32.890625 97.867188 29.773438 C 99.023438 26.65625 101.21875 23.339844 101.21875 23.339844 C 101.21875 23.339844 105.246094 26.175781 108.597656 26.417969 C 111.949219 26.65625 114.941406 27.855469 116.058594 28.253906 C 117.175781 28.65625 118.253906 29.292969 118.253906 29.292969 L 118.089844 26.578125 C 118.089844 26.578125 123.058594 28.851562 125.015625 31.769531 C 126.96875 34.683594 127.503906 37.324219 127.503906 37.324219 L 129.101562 34.96875 C 129.101562 34.96875 129.832031 36.167969 129.425781 36.84375 C 129.019531 37.523438 127.984375 38.664062 127.984375 38.664062 C 127.984375 38.664062 129.9375 41.042969 130.097656 42.402344 C 130.257812 43.757812 129.21875 53.988281 129.21875 53.988281 C 129.21875 53.988281 127.066406 54.507812 126.191406 56.746094 L 99.421875 57.226562 C 99.421875 57.226562 97.300781 54.019531 96.386719 53.988281 "/>
<path style=" stroke:none;fill-rule:evenodd;fill:rgb(96.469116%,78.819275%,64.709473%);fill-opacity:1;" d="M 100.25 44.667969 C 100.25 44.667969 101.417969 45.835938 100.9375 47.515625 C 100.460938 49.191406 99.421875 53.308594 99.421875 54.589844 C 99.421875 55.867188 99.421875 57.226562 99.421875 57.226562 C 99.421875 57.226562 96.964844 53.175781 95.90625 54.125 C 94.851562 55.070312 94.957031 57.625 95.554688 58.863281 C 96.152344 60.101562 100.21875 65.167969 100.21875 65.167969 C 100.21875 65.167969 100.945312 68.800781 102.390625 70.160156 C 103.835938 71.515625 106.027344 72.824219 106.726562 73.625 C 107.421875 74.421875 107.238281 75.210938 109.636719 76.085938 C 112.03125 76.964844 116.574219 76.527344 117.574219 75.328125 C 118.570312 74.128906 120.125 72.644531 122.082031 71.449219 C 124.035156 70.253906 125.363281 66.082031 125.433594 64.835938 C 125.433594 64.835938 130.53125 59.679688 130.371094 57.320312 C 130.269531 55.855469 130.324219 54.179688 129.410156 54.089844 C 128.855469 54.035156 127.832031 54.335938 126.507812 56.265625 L 126.121094 57.0625 C 126.121094 57.0625 126.03125 52.019531 125.433594 50.148438 C 124.832031 48.273438 124.3125 47.15625 124.554688 46.316406 C 124.792969 45.476562 125.03125 44.679688 125.03125 44.679688 L 124.085938 44.359375 L 124.964844 43.453125 C 124.964844 43.453125 122.480469 42.78125 119.503906 44.199219 C 116.234375 45.753906 113.09375 45.632812 111.582031 45.554688 C 110.0625 45.472656 105.527344 44.117188 104.410156 43.679688 C 103.292969 43.242188 101.019531 42.902344 100.5 43.292969 L 101.539062 44.398438 L 100.25 44.667969 "/>
<path style=" stroke:none;fill-rule:evenodd;fill:rgb(41.178894%,17.248535%,11.369324%);fill-opacity:1;" d="M 129.210938 40.960938 C 129.210938 40.960938 128.941406 42.671875 127.804688 43.300781 L 127.804688 42.519531 C 127.804688 42.519531 126.191406 43.539062 124.902344 43.777344 L 124.085938 44.359375 L 125.03125 44.679688 C 125.03125 44.679688 124.203125 46.152344 124.570312 47.414062 C 124.9375 48.671875 126.007812 51.839844 126.070312 52.980469 C 126.128906 54.117188 126.101562 57.027344 126.101562 57.027344 C 126.101562 57.027344 127.464844 55.027344 128.34375 54.507812 C 129.21875 53.988281 129.425781 53.9375 129.425781 53.9375 C 129.425781 53.9375 129.929688 46.363281 130.003906 45.160156 C 130.078125 43.953125 130.167969 42.734375 130.097656 42.402344 C 130.03125 42.066406 129.421875 40.933594 129.210938 40.960938 "/>
<path style=" stroke:none;fill-rule:evenodd;fill:rgb(41.178894%,17.248535%,11.369324%);fill-opacity:1;" d="M 96.257812 40.960938 C 96.257812 40.960938 96.527344 42.671875 97.664062 43.300781 L 97.664062 42.519531 C 97.664062 42.519531 99.277344 43.539062 100.566406 43.777344 L 101.382812 44.359375 L 100.4375 44.679688 C 100.4375 44.679688 101.265625 46.152344 100.894531 47.414062 C 100.527344 48.671875 99.457031 51.839844 99.398438 52.980469 C 99.339844 54.117188 99.367188 57.027344 99.367188 57.027344 C 99.367188 57.027344 98.003906 55.027344 97.125 54.507812 C 96.246094 53.988281 96.042969 53.9375 96.042969 53.9375 C 96.042969 53.9375 95.539062 46.363281 95.464844 45.160156 C 95.390625 43.953125 95.300781 42.734375 95.367188 42.402344 C 95.4375 42.066406 96.046875 40.933594 96.257812 40.960938 "/>
<path style=" stroke:none;fill-rule:evenodd;fill:rgb(87.838745%,49.01886%,26.669312%);fill-opacity:1;" d="M 95.835938 34.253906 C 95.835938 34.253906 95.910156 38.742188 100.339844 39.761719 C 100.339844 39.761719 98.027344 38.285156 97.707031 36.289062 C 97.707031 36.289062 100.019531 39.183594 106.101562 40.285156 C 106.101562 40.285156 93.519531 37.125 101.300781 23.878906 L 101.21875 23.339844 C 101.21875 23.339844 99.839844 25.359375 98.96875 27.273438 C 98.09375 29.191406 97.332031 31.09375 97.261719 32.070312 C 97.191406 33.046875 97.390625 34.289062 97.390625 34.289062 L 95.910156 32.929688 C 95.910156 32.929688 95.738281 33.449219 95.835938 34.253906 "/>
<path style=" stroke:none;fill-rule:evenodd;fill:rgb(87.838745%,49.01886%,26.669312%);fill-opacity:1;" d="M 101.382812 25.4375 C 101.382812 25.4375 100.339844 39.125 116.136719 40.285156 C 116.136719 40.285156 115.597656 32.570312 109.734375 29.15625 C 109.734375 29.15625 114.042969 33.289062 114.699219 38.742188 C 114.699219 38.742188 102.664062 36.945312 101.382812 25.4375 "/>
<path style=" stroke:none;fill-rule:evenodd;fill:rgb(84.309387%,58.428955%,47.839355%);fill-opacity:1;" d="M 114.59375 62.128906 C 114.6875 62.085938 114.785156 62.214844 114.644531 62.472656 C 114.574219 62.605469 113.253906 63.644531 112.757812 63.65625 C 112.496094 63.664062 111.929688 63.324219 111.628906 63.082031 C 111.242188 62.777344 111.015625 62.589844 110.917969 62.472656 C 110.695312 62.039062 111.160156 62.285156 111.160156 62.285156 C 111.160156 62.285156 111.449219 62.363281 111.679688 62.472656 C 111.730469 62.5 111.785156 62.527344 111.824219 62.554688 C 111.914062 62.664062 111.992188 62.78125 112.179688 62.878906 C 112.589844 63.097656 113.042969 63.074219 113.449219 62.859375 C 113.578125 62.789062 113.644531 62.660156 113.734375 62.554688 C 113.777344 62.53125 113.835938 62.5 113.882812 62.472656 C 114.105469 62.363281 114.59375 62.128906 114.59375 62.128906 "/>
<path style=" stroke:none;fill-rule:evenodd;fill:rgb(84.309387%,58.428955%,47.839355%);fill-opacity:1;" d="M 124.15625 44.238281 C 124.171875 44.160156 124.8125 43.539062 124.8125 43.539062 L 124.792969 43.242188 C 124.792969 43.242188 122.917969 43.039062 122.417969 43.117188 C 121.921875 43.199219 117.59375 44.878906 116.875 45.070312 C 116.15625 45.257812 113.722656 45.667969 113.722656 45.667969 L 112.945312 45.667969 L 112.945312 45.699219 C 112.769531 45.691406 112.585938 45.679688 112.464844 45.667969 C 112.1875 45.636719 111.6875 45.667969 111.6875 45.667969 C 111.6875 45.667969 109.253906 45.257812 108.535156 45.070312 C 107.816406 44.878906 103.488281 43.199219 102.992188 43.117188 C 102.492188 43.039062 100.617188 43.242188 100.617188 43.242188 L 100.597656 43.539062 C 100.597656 43.539062 101.234375 44.160156 101.253906 44.238281 C 101.273438 44.316406 100.058594 44.597656 100.488281 44.902344 C 100.921875 45.203125 103.488281 44.839844 103.488281 44.839844 L 102.953125 44.378906 C 102.953125 44.378906 104.027344 44.4375 106.5 45.734375 C 108.972656 47.035156 112.464844 47.035156 112.464844 47.035156 L 112.945312 47.035156 C 112.945312 47.035156 116.433594 47.035156 118.910156 45.734375 C 121.382812 44.4375 122.460938 44.378906 122.460938 44.378906 L 121.921875 44.839844 C 121.921875 44.839844 124.492188 45.203125 124.921875 44.902344 C 125.351562 44.597656 124.136719 44.316406 124.15625 44.238281 "/>
<path style=" stroke:none;fill-rule:evenodd;fill:rgb(5.099487%,5.099487%,5.099487%);fill-opacity:1;" d="M 99.835938 56.746094 C 99.632812 52.683594 100.558594 49.972656 101.050781 48.535156 C 101.117188 48.351562 101.171875 48.1875 101.21875 48.042969 C 101.589844 46.886719 101.207031 45.664062 100.933594 45.007812 L 102.699219 44.523438 L 101.285156 43.558594 C 102.019531 43.4375 103.3125 43.453125 105.199219 44.28125 C 110.476562 46.601562 115.09375 46.601562 120.375 44.28125 C 122.261719 43.453125 123.554688 43.4375 124.285156 43.558594 L 122.871094 44.523438 L 124.636719 45.007812 C 124.363281 45.664062 123.984375 46.886719 124.355469 48.042969 C 124.398438 48.1875 124.457031 48.351562 124.519531 48.535156 C 125.015625 49.980469 125.949219 52.703125 125.734375 56.796875 C 125.6875 57.707031 125.753906 58.175781 125.753906 59.042969 C 126.058594 58.378906 126.359375 57.644531 126.726562 57.007812 C 127.59375 55.5 128.878906 54.394531 129.246094 54.445312 C 129.789062 54.519531 130.242188 55.5625 129.960938 57.691406 C 129.730469 59.449219 126.378906 63.398438 125.105469 64.773438 L 125.019531 64.863281 L 125 64.988281 C 124.195312 69.757812 121.570312 71.296875 120.308594 72.035156 C 120.214844 72.09375 120.125 72.144531 120.046875 72.191406 C 118.871094 72.914062 118.023438 73.925781 117.183594 74.988281 C 115.976562 76.523438 109.597656 76.523438 108.386719 74.988281 C 107.550781 73.925781 106.703125 72.914062 105.523438 72.191406 C 105.445312 72.144531 105.359375 72.09375 105.265625 72.035156 C 104 71.296875 101.378906 69.757812 100.574219 64.988281 L 100.554688 64.863281 L 100.46875 64.773438 C 99.195312 63.398438 95.839844 59.449219 95.609375 57.691406 C 95.328125 55.5625 95.785156 54.519531 96.328125 54.445312 C 96.695312 54.394531 98 55.519531 98.871094 57.046875 C 99.226562 57.675781 99.519531 58.390625 99.820312 59.042969 C 99.820312 58.160156 99.882812 57.675781 99.835938 56.746094 Z M 129.355469 53.613281 C 128.640625 53.515625 127.523438 54.390625 126.605469 55.640625 C 126.613281 52.054688 125.777344 49.617188 125.3125 48.265625 C 125.25 48.082031 125.199219 47.925781 125.152344 47.785156 C 124.738281 46.488281 125.589844 44.960938 125.597656 44.945312 L 125.863281 44.476562 L 124.839844 44.195312 L 125.996094 43.40625 L 125.453125 43.0625 C 125.382812 43.019531 123.609375 41.945312 120.035156 43.515625 C 115.019531 45.71875 110.550781 45.71875 105.535156 43.515625 C 101.960938 41.945312 100.191406 43.019531 100.117188 43.0625 L 99.578125 43.40625 L 100.730469 44.195312 L 99.710938 44.476562 L 99.976562 44.945312 C 99.984375 44.960938 100.835938 46.488281 100.421875 47.785156 C 100.375 47.925781 100.324219 48.082031 100.261719 48.265625 C 99.796875 49.617188 98.960938 52.054688 98.96875 55.640625 C 98.050781 54.390625 96.933594 53.515625 96.214844 53.613281 C 94.992188 53.777344 94.457031 55.339844 94.777344 57.800781 C 95.074219 60.035156 99.109375 64.527344 99.769531 65.25 C 100.664062 70.308594 103.585938 72.023438 104.839844 72.761719 C 104.929688 72.816406 105.015625 72.863281 105.089844 72.910156 C 106.054688 73.5 106.761719 74.277344 107.730469 75.507812 C 109.28125 77.476562 116.292969 77.476562 117.84375 75.507812 C 118.8125 74.277344 119.519531 73.5 120.484375 72.910156 C 120.558594 72.863281 120.640625 72.816406 120.734375 72.761719 C 121.988281 72.023438 124.910156 70.308594 125.804688 65.25 C 126.464844 64.527344 130.5 60.035156 130.792969 57.800781 C 131.113281 55.339844 130.578125 53.777344 129.355469 53.613281 "/>
<g clip-path="url(#clip5)" clip-rule="nonzero">
<path style=" stroke:none;fill-rule:evenodd;fill:rgb(5.099487%,5.099487%,5.099487%);fill-opacity:1;" d="M 128.808594 54.246094 C 128.878906 54.195312 128.949219 54.148438 129.015625 54.101562 C 129.21875 53.960938 129.480469 54.015625 129.660156 54.160156 C 130.011719 51.027344 130.632812 44.292969 130.527344 42.636719 C 130.425781 41.082031 129.183594 39.34375 128.640625 38.65625 C 129.09375 38.183594 129.871094 37.28125 129.871094 36.585938 C 129.871094 35.785156 129.515625 34.570312 129.5 34.519531 L 129.222656 33.585938 L 127.675781 36.246094 C 127.476562 35.46875 127.101562 34.359375 126.402344 33.117188 C 125.207031 30.988281 122.792969 28.066406 118.082031 26.226562 L 117.394531 25.953125 L 117.851562 28.601562 C 116.46875 27.910156 113.359375 26.535156 109.457031 25.960938 C 104.460938 25.230469 101.554688 22.878906 101.523438 22.855469 L 101.171875 22.566406 L 100.914062 22.9375 C 100.726562 23.210938 96.726562 29 96.875 33.125 C 96.609375 32.839844 96.324219 32.515625 96.089844 32.203125 L 95.351562 31.199219 L 95.335938 32.445312 C 95.332031 32.625 95.296875 36.691406 96.941406 38.644531 C 96.402344 39.328125 95.148438 41.074219 95.046875 42.636719 C 94.9375 44.289062 95.550781 50.972656 95.90625 54.125 C 96.011719 54.089844 96.121094 54.085938 96.222656 54.125 C 96.414062 54.199219 96.605469 54.28125 96.78125 54.382812 C 96.421875 51.347656 95.78125 44.265625 95.882812 42.691406 C 95.992188 41.019531 97.640625 39.121094 97.65625 39.101562 C 97.828125 39.191406 98.390625 39.394531 99.261719 39.417969 C 98.402344 38.957031 97.933594 38.523438 97.5625 38.082031 C 96.640625 36.976562 96.328125 34.953125 96.222656 33.65625 C 96.730469 34.203125 97.191406 34.613281 97.21875 34.640625 L 98.386719 35.691406 L 97.898438 34.195312 C 96.847656 31.003906 100.386719 25.269531 101.359375 23.78125 C 102.316406 24.457031 105.078125 26.167969 109.335938 26.789062 C 114.375 27.53125 118.160156 29.714844 118.199219 29.734375 L 118.976562 30.191406 L 118.472656 27.292969 C 122.480469 29.042969 124.582031 31.601562 125.652344 33.492188 C 126.878906 35.660156 127.058594 37.445312 127.058594 37.460938 L 127.175781 38.777344 L 128.933594 35.75 C 128.988281 36.039062 129.03125 36.34375 129.03125 36.585938 C 129.03125 36.9375 128.386719 37.757812 127.789062 38.316406 L 127.492188 38.59375 L 127.757812 38.898438 C 127.777344 38.921875 129.582031 41.015625 129.691406 42.691406 C 129.792969 44.242188 129.167969 51.140625 128.808594 54.246094 "/>
</g>
<path style=" stroke:none;fill-rule:evenodd;fill:rgb(5.099487%,5.099487%,5.099487%);fill-opacity:1;" d="M 116.789062 51.363281 C 116.789062 51.363281 118.167969 48.964844 119.8125 48.933594 C 121.457031 48.902344 122.148438 50.972656 122.148438 50.972656 C 122.148438 50.972656 119.574219 48.722656 116.789062 51.363281 "/>
<path style=" stroke:none;fill-rule:evenodd;fill:rgb(5.099487%,5.099487%,5.099487%);fill-opacity:1;" d="M 108.78125 51.363281 C 108.78125 51.363281 107.40625 48.964844 105.757812 48.933594 C 104.113281 48.902344 103.425781 50.972656 103.425781 50.972656 C 103.425781 50.972656 105.996094 48.722656 108.78125 51.363281 "/>
<path style=" stroke:none;fill-rule:evenodd;fill:rgb(5.099487%,5.099487%,5.099487%);fill-opacity:1;" d="M 114.644531 62.472656 C 114.742188 62.359375 114.804688 62.070312 114.578125 62.101562 C 114.351562 62.132812 113.882812 62.472656 113.882812 62.472656 C 114.433594 62.359375 114.644531 62.472656 114.644531 62.472656 "/>
<path style=" stroke:none;fill-rule:evenodd;fill:rgb(5.099487%,5.099487%,5.099487%);fill-opacity:1;" d="M 113.734375 62.554688 C 113.203125 62.988281 112.355469 62.988281 111.824219 62.554688 C 112.1875 63.492188 113.375 63.492188 113.734375 62.554688 "/>
<path style=" stroke:none;fill-rule:evenodd;fill:rgb(5.099487%,5.099487%,5.099487%);fill-opacity:1;" d="M 111.679688 62.472656 C 111.679688 62.472656 111.207031 62.132812 110.980469 62.101562 C 110.757812 62.070312 110.820312 62.359375 110.917969 62.472656 C 110.917969 62.472656 111.128906 62.359375 111.679688 62.472656 "/>
<path style=" stroke:none;fill-rule:evenodd;fill:rgb(84.309387%,58.428955%,47.839355%);fill-opacity:1;" d="M 98.53125 58.96875 C 98.53125 58.96875 97.628906 56.84375 97.03125 56.382812 C 96.429688 55.925781 96.78125 58.03125 97.09375 58.824219 C 97.410156 59.621094 98.058594 61.023438 98.976562 61.339844 C 98.976562 61.339844 98.386719 59.410156 98.53125 58.96875 "/>
<path style=" stroke:none;fill-rule:evenodd;fill:rgb(5.099487%,5.099487%,5.099487%);fill-opacity:1;" d="M 99.902344 61.90625 C 99.902344 61.90625 98.816406 61.113281 98.820312 60.382812 C 98.820312 59.652344 98.574219 58.988281 98.554688 58.777344 C 98.527344 58.5625 97.1875 56.03125 96.425781 55.191406 C 96.425781 55.191406 98.046875 58.242188 98.199219 59.046875 C 98.347656 59.847656 98.117188 61.175781 99.902344 61.90625 "/>
<path style=" stroke:none;fill-rule:evenodd;fill:rgb(5.099487%,5.099487%,5.099487%);fill-opacity:1;" d="M 97.304688 56.921875 C 97.304688 56.921875 96.152344 57.097656 97.636719 60.082031 C 97.636719 60.082031 96.773438 57.324219 97.59375 57.527344 C 97.59375 57.527344 97.695312 57.0625 97.304688 56.921875 "/>
<path style=" stroke:none;fill-rule:evenodd;fill:rgb(84.309387%,58.428955%,47.839355%);fill-opacity:1;" d="M 127.074219 58.96875 C 127.074219 58.96875 127.972656 56.84375 128.574219 56.382812 C 129.171875 55.925781 128.824219 58.03125 128.507812 58.824219 C 128.191406 59.621094 127.542969 61.023438 126.628906 61.339844 C 126.628906 61.339844 127.214844 59.410156 127.074219 58.96875 "/>
<path style=" stroke:none;fill-rule:evenodd;fill:rgb(5.099487%,5.099487%,5.099487%);fill-opacity:1;" d="M 125.703125 61.90625 C 125.703125 61.90625 126.785156 61.113281 126.785156 60.382812 C 126.78125 59.652344 127.027344 58.988281 127.050781 58.777344 C 127.074219 58.5625 128.417969 56.03125 129.179688 55.191406 C 129.179688 55.191406 127.558594 58.242188 127.40625 59.046875 C 127.253906 59.847656 127.484375 61.175781 125.703125 61.90625 "/>
<path style=" stroke:none;fill-rule:evenodd;fill:rgb(5.099487%,5.099487%,5.099487%);fill-opacity:1;" d="M 128.300781 56.921875 C 128.300781 56.921875 129.449219 57.097656 127.964844 60.082031 C 127.964844 60.082031 128.828125 57.324219 128.007812 57.527344 C 128.007812 57.527344 127.910156 57.0625 128.300781 56.921875 "/>
<path style=" stroke:none;fill-rule:evenodd;fill:rgb(5.099487%,5.099487%,5.099487%);fill-opacity:1;" d="M 104.3125 57.386719 C 104.3125 57.386719 106.476562 55.78125 108.753906 57.386719 C 107.960938 55.414062 105.34375 54.9375 104.3125 57.386719 "/>
<path style=" stroke:none;fill-rule:evenodd;fill:rgb(5.099487%,5.099487%,5.099487%);fill-opacity:1;" d="M 120.441406 56.675781 C 120.441406 57.652344 119.996094 58.445312 119.445312 58.445312 C 118.894531 58.445312 118.449219 57.652344 118.449219 56.675781 C 118.449219 55.699219 118.894531 54.90625 119.445312 54.90625 C 119.996094 54.90625 120.441406 55.699219 120.441406 56.675781 "/>
<path style=" stroke:none;fill-rule:evenodd;fill:rgb(100%,100%,100%);fill-opacity:1;" d="M 118.890625 65.167969 C 118.890625 65.167969 118.199219 66.761719 118.023438 67.511719 C 117.839844 68.265625 117.15625 70.210938 113.085938 70.273438 C 113.085938 70.273438 108.503906 70.183594 107.714844 68.054688 L 106.773438 65.058594 C 106.773438 65.058594 110.78125 67.4375 118.890625 65.167969 "/>
<path style=" stroke:none;fill-rule:evenodd;fill:rgb(84.309387%,58.428955%,47.839355%);fill-opacity:1;" d="M 111.574219 71.5 C 111.574219 71.5 112.898438 72.757812 114.144531 71.5 L 111.574219 71.5 "/>
<path style=" stroke:none;fill-rule:evenodd;fill:rgb(84.309387%,58.428955%,47.839355%);fill-opacity:1;" d="M 119.273438 64.699219 C 119.273438 64.699219 119.816406 65.417969 119.742188 66.019531 C 119.742188 66.019531 119.285156 65.746094 119.273438 65.867188 C 119.261719 65.988281 118.425781 67.019531 118.425781 67.019531 L 118.730469 65.546875 L 119.273438 64.699219 "/>
<path style=" stroke:none;fill-rule:evenodd;fill:rgb(84.309387%,58.428955%,47.839355%);fill-opacity:1;" d="M 106.3125 64.699219 C 106.3125 64.699219 105.769531 65.417969 105.84375 66.019531 C 105.84375 66.019531 106.300781 65.746094 106.3125 65.867188 C 106.324219 65.988281 107.160156 67.019531 107.160156 67.019531 L 106.855469 65.546875 L 106.3125 64.699219 "/>
<path style=" stroke:none;fill-rule:evenodd;fill:rgb(5.099487%,5.099487%,5.099487%);fill-opacity:1;" d="M 110.902344 71.179688 C 112.023438 72.003906 114.097656 71.78125 114.683594 71.179688 C 113.632812 71.414062 112.183594 71.484375 110.902344 71.179688 "/>
<path style=" stroke:none;fill-rule:evenodd;fill:rgb(5.099487%,5.099487%,5.099487%);fill-opacity:1;" d="M 118.457031 65.351562 C 118.503906 65.332031 118.59375 65.296875 118.699219 65.25 C 118.417969 65.769531 117.269531 67.511719 114.523438 67.789062 C 114.523438 67.789062 116.097656 67.800781 117.796875 67.132812 C 117.796875 67.132812 117.859375 67.828125 117.515625 68.433594 C 117.085938 69 116.3125 69.578125 114.898438 69.867188 C 113.722656 70.105469 112.027344 70.113281 110.835938 69.898438 C 109.3125 69.628906 108.496094 69.023438 108.042969 68.433594 C 107.703125 67.828125 107.761719 67.132812 107.761719 67.132812 C 109.464844 67.800781 111.039062 67.789062 111.039062 67.789062 C 108.273438 67.507812 107.128906 65.746094 106.855469 65.242188 C 110.105469 66.660156 115.160156 66.660156 118.457031 65.351562 Z M 106.433594 64.625 C 106.378906 64.59375 106.289062 64.625 106.226562 64.679688 C 106.09375 64.664062 105.972656 64.832031 106.101562 65.042969 C 106.394531 65.53125 106.933594 66.488281 107.121094 67.253906 C 107.515625 68.867188 108.71875 69.867188 110.707031 70.246094 C 111.949219 70.476562 113.710938 70.472656 114.945312 70.226562 C 116.878906 69.835938 118.050781 68.839844 118.4375 67.253906 C 118.632812 66.453125 119.214844 65.441406 119.5 64.976562 C 119.527344 64.929688 119.328125 64.574219 119.242188 64.703125 C 119.21875 64.6875 119.191406 64.667969 119.160156 64.652344 C 119.007812 64.722656 118.476562 64.949219 118.316406 65.011719 C 115.007812 66.316406 109.558594 66.34375 106.433594 64.625 "/>
<path style=" stroke:none;fill-rule:evenodd;fill:rgb(5.099487%,5.099487%,5.099487%);fill-opacity:1;" d="M 118.515625 64.3125 C 118.515625 64.3125 119.421875 64.921875 119.730469 66.050781 C 119.839844 65.28125 119.746094 64.101562 118.515625 64.3125 "/>
<path style=" stroke:none;fill-rule:evenodd;fill:rgb(5.099487%,5.099487%,5.099487%);fill-opacity:1;" d="M 118.339844 65.195312 C 118.375 65.332031 118.148438 66.109375 117.859375 66.691406 C 118.476562 66.335938 119.25 65.371094 119.273438 64.835938 C 118.964844 64.957031 118.652344 65.078125 118.339844 65.195312 "/>
<path style=" stroke:none;fill-rule:evenodd;fill:rgb(5.099487%,5.099487%,5.099487%);fill-opacity:1;" d="M 107.054688 64.3125 C 107.054688 64.3125 106.148438 64.921875 105.839844 66.050781 C 105.730469 65.28125 105.828125 64.101562 107.054688 64.3125 "/>
<path style=" stroke:none;fill-rule:evenodd;fill:rgb(5.099487%,5.099487%,5.099487%);fill-opacity:1;" d="M 107.234375 65.195312 C 107.199219 65.332031 107.425781 66.109375 107.714844 66.691406 C 107.09375 66.335938 106.324219 65.371094 106.296875 64.835938 C 106.609375 64.957031 106.921875 65.078125 107.234375 65.195312 "/>
</g>
</svg>
