<?xml version="1.0" encoding="UTF-8"?>
<svg class="person" viewBox="0 70 224.87999 2">
<defs>
<clipPath id="clip1">
  <path d="M 116 188 L 133 188 L 133 202.453125 L 116 202.453125 Z M 116 188 "/>
</clipPath>
<clipPath id="clip2">
  <path d="M 93 188 L 110 188 L 110 202.453125 L 93 202.453125 Z M 93 188 "/>
</clipPath>
<clipPath id="clip3">
  <path d="M 122 91 L 161.3125 91 L 161.3125 125 L 122 125 Z M 122 91 "/>
</clipPath>
<clipPath id="clip4">
  <path d="M 94 22.546875 L 131 22.546875 L 131 55 L 94 55 Z M 94 22.546875 "/>
</clipPath>
</defs>
<g id="surface1">
<path style=" stroke:none;fill-rule:evenodd;fill:rgb(70.199585%,23.139954%,59.21936%);fill-opacity:1;" d="M 145.601562 86.191406 C 144.96875 85.851562 142.40625 82.789062 142.046875 82.488281 C 141.683594 82.1875 134.390625 78.890625 134.390625 78.890625 L 123.875 74.183594 L 121.792969 73.351562 L 121.53125 73.472656 C 121.53125 73.507812 121.527344 73.546875 121.527344 73.589844 C 121.496094 74.753906 120.691406 76.863281 119.261719 79.460938 C 117.96875 81.816406 113.824219 85.425781 113.054688 86.085938 L 113.054688 85.984375 L 112.789062 86.121094 L 112.523438 85.984375 L 112.523438 86.085938 C 111.753906 85.425781 107.613281 81.816406 106.316406 79.460938 C 104.886719 76.863281 104.082031 74.753906 104.050781 73.589844 C 104.050781 73.546875 103.941406 73.5 103.941406 73.460938 L 103.785156 73.351562 L 101.703125 74.183594 L 91.191406 78.890625 C 91.191406 78.890625 83.894531 82.1875 83.535156 82.488281 C 83.171875 82.789062 80.609375 85.851562 79.976562 86.191406 C 79.34375 86.53125 73.453125 88.957031 73.453125 88.957031 C 73.453125 88.957031 73.949219 90.84375 77.382812 95.125 C 80.820312 99.410156 83.832031 101.898438 84.621094 101.625 L 91.160156 96.832031 C 91.160156 96.832031 92.246094 101.507812 92.636719 102.523438 C 93.027344 103.542969 94.121094 107.464844 94.121094 107.464844 L 94.535156 110.253906 L 93.742188 123.710938 L 91.730469 134.332031 L 95.300781 136.460938 C 95.300781 136.460938 94.714844 145.535156 94.65625 148.796875 C 94.59375 152.0625 94.660156 164.496094 94.992188 167.460938 C 95.316406 170.421875 95.828125 183.003906 95.949219 183.78125 C 96.074219 184.558594 96.433594 187.375 96.433594 187.375 C 96.433594 187.375 101.527344 190.421875 102.339844 190.699219 C 103.15625 190.980469 109.9375 187.195312 110.296875 186.539062 C 110.296875 186.539062 109.996094 175.035156 109.632812 171.503906 C 109.273438 167.96875 111.761719 155.371094 112.136719 153.5625 C 112.34375 152.566406 112.597656 151.84375 112.789062 151.398438 C 112.980469 151.84375 113.238281 152.566406 113.441406 153.5625 C 113.816406 155.371094 116.308594 167.96875 115.945312 171.503906 C 115.582031 175.035156 115.28125 186.539062 115.28125 186.539062 C 115.640625 187.195312 122.421875 190.980469 123.238281 190.699219 C 124.054688 190.421875 129.148438 187.375 129.148438 187.375 C 129.148438 187.375 129.507812 184.558594 129.628906 183.78125 C 129.75 183.003906 130.261719 170.421875 130.589844 167.460938 C 130.917969 164.496094 130.984375 152.0625 130.925781 148.796875 C 130.863281 145.535156 130.277344 136.460938 130.277344 136.460938 L 133.847656 134.332031 L 131.835938 123.710938 L 131.046875 110.253906 L 131.457031 107.464844 C 131.457031 107.464844 132.550781 103.542969 132.945312 102.523438 C 133.335938 101.507812 134.417969 96.832031 134.417969 96.832031 L 140.960938 101.625 C 141.742188 101.898438 144.757812 99.410156 148.195312 95.125 C 151.628906 90.84375 152.125 88.957031 152.125 88.957031 C 152.125 88.957031 146.234375 86.53125 145.601562 86.191406 "/>
<path style=" stroke:none;fill-rule:evenodd;fill:rgb(96.859741%,59.999084%,81.959534%);fill-opacity:1;" d="M 75.960938 92.640625 C 75.960938 92.640625 75.253906 90.308594 75.414062 90.128906 C 75.578125 89.945312 80.15625 88.308594 81 87.589844 C 81.847656 86.871094 84.578125 83.636719 85.339844 83.273438 C 85.898438 83.015625 89.546875 81.324219 91.472656 80.429688 C 92.183594 80.101562 104.042969 75.058594 104.042969 75.058594 L 103.902344 73.492188 L 90.886719 79.050781 L 83.535156 82.488281 L 79.609375 86.363281 L 73.453125 89.148438 C 73.453125 89.148438 74.457031 92.101562 75.960938 92.640625 "/>
<path style=" stroke:none;fill-rule:evenodd;fill:rgb(96.859741%,59.999084%,81.959534%);fill-opacity:1;" d="M 94.996094 125.40625 L 93.742188 134.113281 L 95.679688 136.523438 L 92.253906 134.273438 L 93.964844 124.527344 L 94.996094 125.40625 "/>
<path style=" stroke:none;fill-rule:evenodd;fill:rgb(96.859741%,59.999084%,81.959534%);fill-opacity:1;" d="M 96.738281 139.304688 C 96.738281 139.304688 95.464844 175.964844 98.441406 188.265625 C 98.441406 188.265625 96.523438 188.054688 96.386719 187.015625 C 96.25 185.980469 95.417969 173.925781 95.0625 169.015625 C 94.703125 164.105469 94.792969 144.414062 94.910156 143.378906 C 95.027344 142.339844 95.300781 137.945312 95.300781 137.945312 C 95.300781 137.945312 96.765625 138.421875 96.738281 139.304688 "/>
<path style=" stroke:none;fill-rule:evenodd;fill:rgb(96.859741%,59.999084%,81.959534%);fill-opacity:1;" d="M 149.367188 92.640625 C 149.367188 92.640625 150.074219 90.308594 149.914062 90.128906 C 149.753906 89.945312 145.171875 88.308594 144.328125 87.589844 C 143.484375 86.871094 140.75 83.636719 139.988281 83.273438 C 139.519531 83.054688 136.871094 81.828125 134.894531 80.910156 C 133.648438 80.335938 121.121094 74.695312 121.121094 74.695312 L 121.402344 73.414062 L 135.382812 79.484375 L 141.796875 82.488281 L 145.722656 86.363281 L 151.875 89.148438 C 151.875 89.148438 150.875 92.101562 149.367188 92.640625 "/>
<path style=" stroke:none;fill-rule:evenodd;fill:rgb(96.859741%,59.999084%,81.959534%);fill-opacity:1;" d="M 130.332031 125.40625 L 131.589844 134.113281 L 129.648438 136.523438 L 133.078125 134.273438 L 131.363281 124.527344 L 130.332031 125.40625 "/>
<path style=" stroke:none;fill-rule:evenodd;fill:rgb(96.859741%,59.999084%,81.959534%);fill-opacity:1;" d="M 128.589844 139.304688 C 128.589844 139.304688 129.863281 175.964844 126.886719 188.265625 C 126.886719 188.265625 128.808594 188.054688 128.945312 187.015625 C 129.078125 185.980469 129.910156 173.925781 130.269531 169.015625 C 130.625 164.105469 130.539062 144.414062 130.417969 143.378906 C 130.304688 142.339844 130.027344 137.945312 130.027344 137.945312 C 130.027344 137.945312 128.5625 138.421875 128.589844 139.304688 "/>
<path style=" stroke:none;fill-rule:evenodd;fill:rgb(57.249451%,12.548828%,45.098877%);fill-opacity:1;" d="M 131.539062 107.171875 C 131.898438 106.328125 132.9375 102.433594 132.96875 102.308594 C 132.898438 102.371094 129.957031 105.019531 125.738281 103.226562 C 117.738281 99.820312 107.882812 99.820312 99.882812 103.226562 C 95.667969 105.019531 92.726562 102.371094 92.65625 102.308594 C 92.6875 102.433594 93.726562 106.328125 94.082031 107.171875 C 94.445312 108.027344 94.574219 110.007812 94.574219 110.007812 L 93.789062 123.710938 L 93.789062 125.113281 C 93.789062 125.113281 96.285156 126.125 96.703125 125.945312 C 97.125 125.765625 97.785156 124.828125 98.027344 123.710938 C 98.269531 122.59375 99.808594 120.796875 100.09375 120.375 C 100.378906 119.957031 100.445312 120.375 101.042969 120.015625 C 101.644531 119.65625 102.660156 118.554688 102.816406 117.757812 C 102.96875 116.960938 102.21875 115.882812 102.21875 115.882812 C 102.21875 115.882812 102.53125 115.632812 102.269531 115.160156 C 102.007812 114.683594 101.171875 113.933594 101.042969 113.625 C 100.917969 113.316406 100.535156 112.128906 100.535156 112.128906 C 104.546875 106.140625 121.078125 106.140625 125.089844 112.128906 C 125.089844 112.128906 124.707031 113.316406 124.582031 113.625 C 124.453125 113.933594 123.617188 114.683594 123.355469 115.160156 C 123.09375 115.632812 123.40625 115.882812 123.40625 115.882812 C 123.40625 115.882812 122.652344 116.960938 122.808594 117.757812 C 122.960938 118.554688 123.980469 119.65625 124.582031 120.015625 C 125.179688 120.375 125.246094 119.957031 125.53125 120.375 C 125.816406 120.796875 127.355469 122.59375 127.597656 123.710938 C 127.839844 124.828125 128.5 125.765625 128.921875 125.945312 C 129.339844 126.125 131.832031 125.113281 131.832031 125.113281 L 131.835938 123.710938 L 131.050781 110.007812 C 131.050781 110.007812 131.179688 108.027344 131.539062 107.171875 "/>
<path style=" stroke:none;fill-rule:evenodd;fill:rgb(93.328857%,69.018555%,54.119873%);fill-opacity:1;" d="M 121.328125 72.007812 L 121.328125 74.332031 C 121.328125 74.332031 120.480469 77.664062 118.484375 80.171875 C 116.484375 82.679688 112.746094 86.191406 112.746094 86.191406 C 112.746094 86.191406 108.15625 82.804688 106.171875 79.207031 C 104.1875 75.609375 103.722656 75.160156 104.257812 72.007812 C 104.257812 72.007812 105.820312 72.933594 106.933594 74.210938 C 108.046875 75.488281 108.851562 76.371094 110.539062 76.628906 C 112.226562 76.886719 116.3125 76.476562 116.921875 75.863281 C 117.53125 75.25 117.785156 75.011719 118.484375 74.171875 C 119.175781 73.332031 120.800781 72.351562 121.328125 72.007812 "/>
<path style=" stroke:none;fill-rule:evenodd;fill:rgb(70.588684%,45.489502%,35.289001%);fill-opacity:1;" d="M 104.300781 74.695312 C 104.300781 74.695312 106.253906 76.558594 106.933594 77.367188 C 109.289062 80.164062 116.132812 80.164062 118.484375 77.367188 C 119.167969 76.558594 121.121094 74.695312 121.121094 74.695312 L 121.191406 72.167969 C 121.191406 72.167969 119.34375 73.140625 119.117188 73.292969 C 118.886719 73.441406 118.015625 74.191406 117.320312 75.449219 C 116.738281 76.507812 113.683594 76.609375 112.710938 76.617188 C 111.734375 76.609375 108.683594 76.507812 108.097656 75.449219 C 107.402344 74.191406 106.53125 73.441406 106.304688 73.292969 C 106.078125 73.140625 104.230469 72.167969 104.230469 72.167969 L 104.300781 74.695312 "/>
<path style=" stroke:none;fill-rule:evenodd;fill:rgb(93.328857%,69.018555%,54.119873%);fill-opacity:1;" d="M 74.386719 91.835938 C 74.386719 91.835938 71.117188 94.5 70.152344 95.65625 C 69.1875 96.8125 66.375 99.789062 66.375 99.789062 C 66.375 99.789062 65.128906 99.976562 65.007812 100.570312 C 64.886719 101.167969 64.726562 101.835938 64.804688 102.242188 C 64.886719 102.644531 65.328125 104.261719 65.488281 104.472656 C 65.652344 104.679688 69.09375 112.507812 71.558594 114.105469 C 74.023438 115.703125 88.796875 119.417969 88.796875 119.417969 C 88.796875 119.417969 93.378906 125.046875 95.871094 123.410156 L 96.835938 122.292969 C 96.835938 122.292969 97.398438 121.773438 97.4375 121.652344 C 97.476562 121.53125 97.878906 120.933594 97.960938 120.773438 C 98.039062 120.613281 98.359375 120.21875 98.441406 120.054688 C 98.523438 119.894531 98.964844 119.417969 99.003906 119.296875 C 99.042969 119.175781 99.609375 118.539062 99.609375 118.539062 C 99.609375 118.539062 101.414062 118.300781 101.738281 117.179688 C 102.058594 116.0625 102.9375 115.703125 102.339844 115.304688 C 101.738281 114.90625 100.855469 113.664062 100.691406 113.027344 C 100.53125 112.386719 99.953125 110.800781 99.839844 110.675781 C 99.730469 110.550781 96.269531 109.671875 95.347656 110.070312 C 94.425781 110.472656 92.273438 111.75 91.5 111.75 C 90.726562 111.75 87.589844 111.574219 85.703125 108.785156 C 83.816406 106 81.203125 102.722656 81.203125 102.722656 L 82.902344 100.859375 C 82.902344 100.859375 77.222656 95.574219 75.941406 93.339844 C 75.941406 93.339844 74.351562 91.003906 74.464844 91.238281 C 74.578125 91.472656 74.386719 91.835938 74.386719 91.835938 "/>
<path style=" stroke:none;fill-rule:evenodd;fill:rgb(70.588684%,45.489502%,35.289001%);fill-opacity:1;" d="M 73.453125 92.609375 C 73.453125 92.609375 76.363281 97.824219 81.796875 102.070312 L 82.632812 101.152344 C 82.632812 101.152344 79.613281 97.769531 78.242188 96.207031 C 76.875 94.640625 74.734375 91.78125 74.734375 91.78125 L 73.453125 92.609375 "/>
<path style=" stroke:none;fill-rule:evenodd;fill:rgb(70.588684%,45.489502%,35.289001%);fill-opacity:1;" d="M 77.90625 98.058594 L 76.179688 100.089844 C 76.179688 100.089844 73.34375 100.488281 72.632812 101.085938 C 72.632812 101.085938 77.867188 100.328125 81.203125 102.722656 L 82.246094 101.488281 L 77.90625 98.058594 "/>
<path style=" stroke:none;fill-rule:evenodd;fill:rgb(70.588684%,45.489502%,35.289001%);fill-opacity:1;" d="M 100.550781 113.953125 C 100.550781 113.953125 100.53125 116.300781 98.664062 117.378906 L 98.332031 117.199219 C 98.332031 117.199219 98.390625 117.589844 98.058594 118.070312 C 97.726562 118.546875 95.394531 122.492188 94.324219 123.144531 C 94.324219 123.144531 95.3125 123.691406 95.949219 123.320312 C 96.585938 122.949219 96.441406 122.734375 96.9375 122.195312 C 97.4375 121.652344 97.882812 120.867188 98.03125 120.65625 C 98.179688 120.445312 98.679688 119.769531 98.839844 119.535156 C 99.003906 119.296875 98.796875 119.355469 99.269531 118.9375 C 99.742188 118.515625 100.59375 118.992188 101.042969 118.3125 C 101.496094 117.632812 102.339844 116.28125 102.339844 115.792969 C 102.339844 115.304688 102.308594 114.988281 102.097656 114.953125 C 101.890625 114.914062 100.867188 113.398438 100.550781 113.953125 "/>
<path style=" stroke:none;fill-rule:evenodd;fill:rgb(70.588684%,45.489502%,35.289001%);fill-opacity:1;" d="M 97.457031 112.257812 L 96.585938 111.898438 C 96.585938 111.898438 97.890625 111.71875 98.261719 111.570312 C 98.632812 111.421875 99.808594 111.84375 100.199219 112.257812 C 100.59375 112.675781 100.796875 113.320312 100.796875 113.320312 L 100.925781 114.027344 C 100.925781 114.027344 100.019531 112.617188 97.457031 112.257812 "/>
<path style=" stroke:none;fill-rule:evenodd;fill:rgb(70.588684%,45.489502%,35.289001%);fill-opacity:1;" d="M 65.167969 101.046875 C 65.167969 101.046875 67.898438 108.875 72.804688 111.789062 C 77.707031 114.707031 89.039062 119.175781 89.039062 119.175781 C 89.039062 119.175781 87.03125 118.964844 86.449219 118.8125 C 85.867188 118.65625 74.773438 115.984375 71.035156 114.027344 C 71.035156 114.027344 70.089844 112.769531 69.347656 111.597656 C 68.605469 110.425781 65.175781 103.714844 64.988281 102.976562 C 64.804688 102.242188 64.5625 101.203125 64.785156 100.886719 C 65.007812 100.570312 65.046875 99.96875 65.167969 101.046875 "/>
<path style=" stroke:none;fill-rule:evenodd;fill:rgb(93.328857%,69.018555%,54.119873%);fill-opacity:1;" d="M 151.121094 91.835938 C 151.121094 91.835938 154.386719 94.5 155.351562 95.65625 C 156.316406 96.8125 159.128906 99.789062 159.128906 99.789062 C 159.128906 99.789062 160.375 99.976562 160.496094 100.570312 C 160.617188 101.167969 160.777344 101.835938 160.699219 102.242188 C 160.617188 102.644531 160.171875 104.261719 160.011719 104.472656 C 159.851562 104.679688 156.410156 112.507812 153.945312 114.105469 C 151.480469 115.703125 136.707031 119.417969 136.707031 119.417969 C 136.707031 119.417969 132.125 125.046875 129.632812 123.410156 L 128.667969 122.292969 C 128.667969 122.292969 128.105469 121.773438 128.066406 121.652344 C 128.027344 121.53125 127.625 120.933594 127.542969 120.773438 C 127.464844 120.613281 127.140625 120.21875 127.0625 120.054688 C 126.980469 119.894531 126.539062 119.417969 126.496094 119.296875 C 126.457031 119.175781 125.894531 118.539062 125.894531 118.539062 C 125.894531 118.539062 124.085938 118.300781 123.765625 117.179688 C 123.445312 116.0625 122.566406 115.703125 123.164062 115.304688 C 123.765625 114.90625 124.648438 113.664062 124.8125 113.027344 C 124.96875 112.386719 125.550781 110.800781 125.664062 110.675781 C 125.773438 110.550781 129.230469 109.671875 130.15625 110.070312 C 131.082031 110.472656 133.230469 111.75 134.003906 111.75 C 134.777344 111.75 137.910156 111.574219 139.800781 108.785156 C 141.6875 106 144.300781 102.722656 144.300781 102.722656 L 142.605469 100.859375 C 142.605469 100.859375 148.28125 95.574219 149.566406 93.339844 C 149.566406 93.339844 151.152344 91.003906 151.039062 91.238281 C 150.925781 91.472656 151.121094 91.835938 151.121094 91.835938 "/>
<path style=" stroke:none;fill-rule:evenodd;fill:rgb(70.588684%,45.489502%,35.289001%);fill-opacity:1;" d="M 152.046875 92.609375 C 152.046875 92.609375 149.140625 97.824219 143.707031 102.070312 L 142.871094 101.152344 C 142.871094 101.152344 145.890625 97.769531 147.261719 96.207031 C 148.628906 94.640625 150.769531 91.78125 150.769531 91.78125 L 152.046875 92.609375 "/>
<path style=" stroke:none;fill-rule:evenodd;fill:rgb(70.588684%,45.489502%,35.289001%);fill-opacity:1;" d="M 147.597656 98.058594 L 149.324219 100.089844 C 149.324219 100.089844 152.160156 100.488281 152.875 101.085938 C 152.875 101.085938 147.636719 100.328125 144.300781 102.722656 L 143.257812 101.488281 L 147.597656 98.058594 "/>
<path style=" stroke:none;fill-rule:evenodd;fill:rgb(70.588684%,45.489502%,35.289001%);fill-opacity:1;" d="M 124.957031 113.953125 C 124.957031 113.953125 124.96875 116.300781 126.839844 117.378906 L 127.171875 117.199219 C 127.171875 117.199219 127.113281 117.589844 127.441406 118.070312 C 127.773438 118.546875 130.109375 122.492188 131.179688 123.144531 C 131.179688 123.144531 130.191406 123.691406 129.554688 123.320312 C 128.921875 122.949219 129.0625 122.734375 128.5625 122.195312 C 128.066406 121.652344 127.621094 120.867188 127.472656 120.65625 C 127.324219 120.445312 126.824219 119.769531 126.660156 119.535156 C 126.496094 119.296875 126.707031 119.355469 126.234375 118.9375 C 125.761719 118.515625 124.914062 118.992188 124.457031 118.3125 C 124.007812 117.632812 123.164062 116.28125 123.164062 115.792969 C 123.164062 115.304688 123.199219 114.988281 123.402344 114.953125 C 123.609375 114.914062 124.636719 113.398438 124.957031 113.953125 "/>
<path style=" stroke:none;fill-rule:evenodd;fill:rgb(70.588684%,45.489502%,35.289001%);fill-opacity:1;" d="M 128.042969 112.257812 L 128.921875 111.898438 C 128.921875 111.898438 127.613281 111.71875 127.242188 111.570312 C 126.871094 111.421875 125.695312 111.84375 125.300781 112.257812 C 124.914062 112.675781 124.707031 113.320312 124.707031 113.320312 L 124.582031 114.027344 C 124.582031 114.027344 125.484375 112.617188 128.042969 112.257812 "/>
<path style=" stroke:none;fill-rule:evenodd;fill:rgb(70.588684%,45.489502%,35.289001%);fill-opacity:1;" d="M 160.335938 101.046875 C 160.335938 101.046875 157.601562 108.875 152.699219 111.789062 C 147.796875 114.707031 136.464844 119.175781 136.464844 119.175781 C 136.464844 119.175781 138.472656 118.964844 139.054688 118.8125 C 139.636719 118.65625 150.730469 115.984375 154.46875 114.027344 C 154.46875 114.027344 155.414062 112.769531 156.15625 111.597656 C 156.898438 110.425781 160.328125 103.714844 160.511719 102.976562 C 160.699219 102.242188 160.941406 101.203125 160.71875 100.886719 C 160.496094 100.570312 160.453125 99.96875 160.335938 101.046875 "/>
<path style=" stroke:none;fill-rule:evenodd;fill:rgb(69.018555%,81.17981%,87.059021%);fill-opacity:1;" d="M 107.921875 188.828125 C 107.921875 188.828125 109.191406 191.699219 108.921875 193.179688 C 108.648438 194.65625 107.722656 196.652344 107.242188 197.730469 C 106.761719 198.808594 106.875 200.632812 104.308594 201.285156 C 101.742188 201.9375 92.523438 202.480469 93.515625 198.148438 C 93.515625 198.148438 93.660156 196.257812 94.867188 195.277344 C 96.074219 194.296875 97.878906 192.179688 97.960938 192.058594 C 98.039062 191.9375 99.445312 189.421875 99.445312 189.421875 C 99.445312 189.421875 101.699219 190.730469 102.21875 190.714844 C 102.742188 190.703125 107.835938 187.953125 107.921875 188.828125 "/>
<path style=" stroke:none;fill-rule:evenodd;fill:rgb(69.018555%,81.17981%,87.059021%);fill-opacity:1;" d="M 117.503906 188.828125 C 117.503906 188.828125 116.234375 191.699219 116.503906 193.179688 C 116.777344 194.65625 117.703125 196.652344 118.183594 197.730469 C 118.664062 198.808594 118.550781 200.632812 121.117188 201.285156 C 123.679688 201.9375 132.898438 202.480469 131.910156 198.148438 C 131.910156 198.148438 131.765625 196.257812 130.558594 195.277344 C 129.355469 194.296875 127.546875 192.179688 127.464844 192.058594 C 127.386719 191.9375 125.980469 189.421875 125.980469 189.421875 C 125.980469 189.421875 123.730469 190.730469 123.207031 190.714844 C 122.683594 190.703125 117.589844 187.953125 117.503906 188.828125 "/>
<path style=" stroke:none;fill-rule:evenodd;fill:rgb(29.40979%,34.509277%,38.819885%);fill-opacity:1;" d="M 122.566406 96.832031 L 123.351562 97.074219 C 123.351562 97.074219 123.707031 96.085938 123.96875 95.175781 C 124.230469 94.269531 124.832031 91.125 125.035156 90.128906 C 125.234375 89.125 125.609375 84.8125 125.519531 83.636719 C 125.425781 82.457031 125.332031 80.222656 125.222656 79.300781 C 125.125 78.476562 124.617188 75.601562 124.222656 74.453125 C 124.183594 74.335938 123.609375 74.183594 123.460938 74.398438 C 123.460938 74.398438 123.796875 75.828125 124.050781 76.964844 C 124.304688 78.105469 124.613281 79.820312 124.664062 80.738281 C 124.714844 81.660156 124.804688 83.554688 124.753906 84.472656 C 124.703125 85.394531 124.613281 88.296875 124.351562 89.464844 C 124.089844 90.632812 123.242188 95.683594 122.566406 96.832031 "/>
<path style=" stroke:none;fill-rule:evenodd;fill:rgb(75.689697%,80.389404%,82.749939%);fill-opacity:1;" d="M 123.40625 97.074219 L 122.566406 96.894531 L 121.5 99.457031 C 121.5 99.457031 120.847656 98.1875 119.429688 98.308594 C 118.011719 98.429688 117.132812 100.429688 116.882812 101.566406 C 116.632812 102.703125 116.769531 104.316406 117.410156 105.308594 C 118.050781 106.304688 119.300781 106.457031 119.835938 105.984375 C 120.371094 105.511719 121.707031 104.644531 121.855469 102.855469 C 122.007812 101.066406 121.960938 100.792969 121.960938 100.792969 C 121.960938 100.792969 122.765625 98.742188 122.917969 98.273438 C 123.066406 97.800781 123.40625 97.074219 123.40625 97.074219 "/>
<path style=" stroke:none;fill-rule:evenodd;fill:rgb(29.40979%,34.509277%,38.819885%);fill-opacity:1;" d="M 103.808594 91.792969 L 104.46875 90.851562 C 104.46875 90.851562 104.140625 90.265625 103.40625 89.625 C 102.671875 88.988281 101.074219 88.707031 101.074219 88.707031 C 101.074219 88.707031 100.773438 85.101562 100.722656 83.824219 C 100.671875 82.546875 100.863281 79.851562 101.023438 78.691406 C 101.1875 77.535156 101.800781 75.546875 102.105469 74.988281 C 102.410156 74.429688 102.59375 74.050781 102.59375 74.050781 L 101.667969 74.429688 C 101.667969 74.429688 101.09375 75.699219 101.074219 75.738281 C 101.054688 75.777344 100.234375 78.152344 100.027344 79.589844 C 99.820312 81.03125 99.648438 84.3125 99.800781 85.5 C 99.949219 86.691406 100.089844 89.015625 100.089844 89.015625 C 100.089844 89.015625 99.183594 90.113281 99.09375 90.664062 C 99.003906 91.214844 98.925781 92.570312 98.925781 92.570312 C 98.925781 92.570312 99.957031 93.128906 100.128906 92.75 C 100.128906 92.75 99.957031 90.597656 100.714844 90.128906 C 101.46875 89.65625 102.894531 90.125 103.808594 91.792969 "/>
<path style=" stroke:none;fill-rule:evenodd;fill:rgb(29.40979%,34.509277%,38.819885%);fill-opacity:1;" d="M 109.597656 106.507812 L 108.820312 105.773438 C 108.820312 105.773438 108.949219 105.46875 109 105.316406 C 109.054688 105.167969 109.039062 105.003906 109.121094 104.921875 C 109.203125 104.835938 109.648438 104.492188 109.972656 104.742188 C 110.296875 104.988281 110.855469 105.574219 110.832031 105.742188 C 110.8125 105.917969 110.789062 105.992188 110.652344 106.035156 C 110.515625 106.082031 109.597656 106.507812 109.597656 106.507812 "/>
<path style=" stroke:none;fill-rule:evenodd;fill:rgb(29.40979%,34.509277%,38.819885%);fill-opacity:1;" d="M 104.714844 107.308594 L 104.5625 108.328125 L 103.636719 108.535156 C 103.636719 108.535156 103.09375 108.710938 103.046875 108.535156 C 103.003906 108.367188 102.964844 107.8125 103.046875 107.535156 C 103.132812 107.257812 103.261719 106.898438 103.371094 106.816406 C 103.484375 106.734375 103.539062 106.703125 103.605469 106.734375 C 103.675781 106.761719 103.8125 106.769531 103.855469 106.800781 C 103.902344 106.828125 104.328125 107.09375 104.328125 107.09375 L 104.714844 107.308594 "/>
<path style=" stroke:none;fill-rule:evenodd;fill:rgb(75.689697%,80.389404%,82.749939%);fill-opacity:1;" d="M 104.46875 90.992188 L 103.882812 91.6875 C 103.882812 91.6875 104.960938 93.308594 105.324219 94.007812 C 105.683594 94.707031 106.609375 96.914062 106.839844 97.972656 C 107.070312 99.03125 107.375 101.167969 107.292969 102.476562 C 107.210938 103.78125 106.839844 105.578125 106.710938 105.96875 C 106.582031 106.359375 106.117188 107.464844 106.117188 107.464844 L 104.707031 107.339844 L 104.570312 108.261719 L 106.710938 108.613281 C 106.710938 108.613281 107.453125 106.917969 107.976562 104.78125 C 108.5 102.644531 108.328125 99.769531 107.976562 98.363281 C 107.625 96.953125 106.992188 94.925781 106.378906 93.859375 C 105.765625 92.789062 104.46875 90.992188 104.46875 90.992188 "/>
<path style=" stroke:none;fill-rule:evenodd;fill:rgb(75.689697%,80.389404%,82.749939%);fill-opacity:1;" d="M 99.980469 92.882812 L 99.0625 92.640625 C 99.0625 92.640625 99.003906 94.609375 99.246094 95.976562 C 99.488281 97.34375 100.210938 99.152344 100.550781 100.226562 C 100.894531 101.308594 102.730469 103.761719 103.335938 104.542969 C 103.9375 105.320312 106.398438 107.109375 107.167969 107.585938 C 107.9375 108.066406 108.117188 108.035156 108.117188 108.035156 L 109.542969 106.507812 L 108.820312 105.847656 L 107.867188 106.835938 C 107.867188 106.835938 105.164062 105.210938 104.421875 104.210938 C 103.675781 103.214844 102.058594 101.585938 101.273438 99.289062 C 100.492188 96.992188 99.777344 94.515625 99.980469 92.882812 "/>
<path style=" stroke:none;fill-rule:evenodd;fill:rgb(57.249451%,12.548828%,45.098877%);fill-opacity:1;" d="M 90.457031 92.640625 L 90.089844 88.90625 L 89.410156 90.128906 L 78.601562 96.671875 C 78.601562 96.671875 82.285156 100.933594 84.222656 101.789062 L 91.300781 96.671875 Z M 134.96875 92.640625 L 135.335938 88.90625 L 136.015625 90.128906 L 146.824219 96.671875 C 146.824219 96.671875 143.140625 100.933594 141.207031 101.789062 L 134.125 96.671875 Z M 120.222656 142.332031 C 123.910156 141.527344 127.988281 140.199219 130.429688 138.046875 L 130.3125 136.214844 C 118.730469 142.933594 106.6875 142.929688 95.117188 136.214844 L 94.996094 138.046875 C 97.539062 140.285156 101.699219 141.605469 105.339844 142.367188 C 107.023438 142.722656 108.449219 142.980469 109.765625 143.140625 C 109.160156 147.0625 106.476562 164.667969 106.046875 168.777344 C 105.566406 173.410156 107.171875 188.265625 107.171875 188.265625 C 107.171875 188.265625 109.851562 187.710938 110.339844 186.273438 C 110.824219 184.832031 109.90625 174.109375 110.085938 169.675781 C 110.25 165.6875 111.941406 154.863281 112.753906 151.773438 C 113.566406 154.863281 115.257812 165.6875 115.421875 169.675781 C 115.601562 174.109375 114.683594 184.832031 115.167969 186.273438 C 115.652344 187.710938 118.335938 188.265625 118.335938 188.265625 C 118.335938 188.265625 119.941406 173.410156 119.460938 168.777344 C 119.03125 164.667969 116.34375 147.050781 115.742188 143.132812 C 117.070312 142.972656 118.511719 142.703125 120.222656 142.332031 "/>
<path style=" stroke:none;fill-rule:evenodd;fill:rgb(47.44873%,58.428955%,65.098572%);fill-opacity:1;" d="M 98.84375 191 C 98.84375 191 101.585938 192.46875 102.3125 192.675781 C 103.035156 192.886719 108.277344 190.339844 108.277344 190.339844 L 108.007812 188.265625 C 108.007812 188.265625 102.882812 190.941406 102.460938 190.882812 C 102.039062 190.820312 99.378906 189.546875 99.378906 189.546875 L 98.84375 191 "/>
<path style=" stroke:none;fill-rule:evenodd;fill:rgb(47.44873%,58.428955%,65.098572%);fill-opacity:1;" d="M 126.695312 191 C 126.695312 191 123.949219 192.46875 123.226562 192.675781 C 122.503906 192.886719 117.261719 190.339844 117.261719 190.339844 L 117.53125 188.265625 C 117.53125 188.265625 122.65625 190.941406 123.078125 190.882812 C 123.5 190.820312 126.160156 189.546875 126.160156 189.546875 L 126.695312 191 "/>
<path style=" stroke:none;fill-rule:evenodd;fill:rgb(5.099487%,5.099487%,5.099487%);fill-opacity:1;" d="M 113.273438 86.277344 C 113.0625 86.460938 112.84375 86.644531 112.621094 86.828125 C 112.394531 86.644531 112.179688 86.460938 111.964844 86.277344 C 104.070312 79.503906 103.5625 74.707031 103.542969 74.488281 L 103.542969 71.582031 C 103.589844 71.625 103.640625 71.664062 103.695312 71.703125 C 103.90625 71.859375 104.136719 71.960938 104.386719 72.046875 L 104.386719 74.425781 C 104.421875 74.710938 105.125 79.324219 112.621094 85.726562 C 112.832031 85.910156 113.050781 86.09375 113.273438 86.277344 "/>
<path style=" stroke:none;fill-rule:evenodd;fill:rgb(5.099487%,5.099487%,5.099487%);fill-opacity:1;" d="M 91.34375 96.03125 L 84.140625 101.257812 C 78.925781 97.8125 74.765625 91.089844 73.75 89.359375 C 75.113281 88.820312 79.070312 87.238281 79.972656 86.617188 C 80.488281 86.257812 81.085938 85.578125 81.714844 84.859375 C 82.429688 84.046875 83.242188 83.117188 83.984375 82.625 C 84.464844 82.308594 87.136719 81.09375 90.566406 79.578125 C 91.066406 79.359375 103.527344 73.964844 104.054688 73.734375 C 104 73.59375 103.96875 73.441406 103.96875 73.28125 C 103.96875 73.117188 104.003906 72.960938 104.058594 72.820312 C 103.4375 73.089844 90.882812 78.523438 90.289062 78.785156 C 86.871094 80.289062 84.050781 81.574219 83.515625 81.929688 C 82.679688 82.484375 81.828125 83.453125 81.078125 84.3125 C 80.484375 84.992188 79.921875 85.628906 79.492188 85.925781 C 78.667969 86.492188 74.519531 88.160156 72.988281 88.757812 L 72.542969 88.929688 L 72.773438 89.347656 C 72.96875 89.703125 77.640625 98.113281 83.925781 102.117188 L 84.167969 102.273438 L 91.546875 96.921875 C 91.382812 96.660156 91.3125 96.339844 91.34375 96.03125 "/>
<path style=" stroke:none;fill-rule:evenodd;fill:rgb(5.099487%,5.099487%,5.099487%);fill-opacity:1;" d="M 94.019531 110.6875 C 94.035156 110.679688 94.050781 110.667969 94.066406 110.660156 C 94.324219 110.550781 94.59375 110.472656 94.859375 110.433594 C 94.738281 108.519531 94.480469 106.914062 94.082031 105.636719 C 92.535156 100.675781 90.132812 89.960938 90.113281 89.855469 C 90.113281 89.855469 90.175781 93.945312 90.730469 96.234375 C 91.527344 99.535156 92.503906 103.414062 93.273438 105.882812 C 93.664062 107.132812 93.910156 108.75 94.019531 110.6875 "/>
<path style=" stroke:none;fill-rule:evenodd;fill:rgb(5.099487%,5.099487%,5.099487%);fill-opacity:1;" d="M 92.464844 134.199219 C 93.226562 130.191406 93.808594 126.511719 94.21875 123.1875 C 93.933594 123.167969 93.648438 123.078125 93.390625 122.945312 C 92.972656 126.382812 92.371094 130.1875 91.582031 134.3125 L 91.53125 134.582031 L 91.757812 134.734375 C 91.859375 134.808594 94.332031 136.515625 98.226562 138.25 C 100.917969 139.449219 104.691406 140.820312 108.878906 141.433594 C 111.683594 141.84375 113.460938 141.863281 116.242188 141.484375 C 120.574219 140.898438 124.484375 139.484375 127.257812 138.25 C 131.148438 136.515625 133.621094 134.808594 133.726562 134.734375 L 133.949219 134.582031 L 133.898438 134.3125 C 133.117188 130.222656 132.515625 126.4375 132.101562 123.027344 C 131.84375 123.144531 131.554688 123.214844 131.265625 123.234375 C 131.675781 126.546875 132.257812 130.207031 133.015625 134.199219 C 131.679688 135.074219 124.5625 139.515625 116.125 140.65625 C 113.492188 141.011719 111.59375 140.992188 108.945312 140.597656 C 100.691406 139.371094 93.78125 135.0625 92.464844 134.199219 "/>
<path style=" stroke:none;fill-rule:evenodd;fill:rgb(5.099487%,5.099487%,5.099487%);fill-opacity:1;" d="M 121.699219 71.582031 L 121.699219 74.488281 C 121.675781 74.707031 121.167969 79.503906 113.273438 86.277344 C 113.0625 86.460938 112.84375 86.644531 112.621094 86.828125 C 112.394531 86.644531 112.179688 86.460938 111.964844 86.277344 C 112.191406 86.09375 112.410156 85.910156 112.621094 85.726562 C 120.113281 79.320312 120.820312 74.710938 120.855469 74.425781 L 120.855469 72.046875 C 121.101562 71.960938 121.335938 71.859375 121.546875 71.703125 C 121.601562 71.664062 121.648438 71.625 121.699219 71.582031 "/>
<path style=" stroke:none;fill-rule:evenodd;fill:rgb(5.099487%,5.099487%,5.099487%);fill-opacity:1;" d="M 133.894531 96.03125 L 141.097656 101.257812 C 146.3125 97.8125 150.472656 91.089844 151.488281 89.359375 C 150.128906 88.820312 146.167969 87.238281 145.265625 86.617188 C 144.75 86.257812 144.152344 85.578125 143.527344 84.859375 C 142.808594 84.046875 142 83.117188 141.253906 82.625 C 140.75 82.292969 137.820312 80.964844 134.140625 79.339844 C 133.808594 79.195312 121.488281 73.867188 121.148438 73.71875 C 121.265625 73.417969 121.261719 73.101562 121.140625 72.800781 C 121.597656 73 134.03125 78.378906 134.472656 78.574219 C 138.101562 80.171875 141.164062 81.558594 141.722656 81.929688 C 142.5625 82.484375 143.414062 83.453125 144.164062 84.3125 C 144.753906 84.992188 145.320312 85.628906 145.746094 85.925781 C 146.570312 86.492188 150.71875 88.160156 152.25 88.757812 L 152.699219 88.929688 L 152.46875 89.347656 C 152.269531 89.703125 147.601562 98.113281 141.316406 102.117188 L 141.070312 102.273438 L 133.691406 96.921875 C 133.859375 96.660156 133.925781 96.339844 133.894531 96.03125 "/>
<path style=" stroke:none;fill-rule:evenodd;fill:rgb(5.099487%,5.099487%,5.099487%);fill-opacity:1;" d="M 131.398438 105.636719 C 131.003906 106.914062 130.746094 108.519531 130.625 110.429688 C 130.929688 110.492188 131.210938 110.625 131.457031 110.800781 C 131.558594 108.8125 131.808594 107.160156 132.207031 105.882812 C 132.976562 103.414062 133.953125 99.535156 134.75 96.234375 C 135.308594 93.945312 135.371094 89.855469 135.371094 89.855469 C 135.347656 89.960938 132.945312 100.675781 131.398438 105.636719 "/>
<path style=" stroke:none;fill-rule:evenodd;fill:rgb(5.099487%,5.099487%,5.099487%);fill-opacity:1;" d="M 130.101562 136.394531 C 130.035156 136.394531 129.972656 136.386719 129.910156 136.378906 C 130.273438 144.78125 130.902344 167.039062 128.570312 187.265625 C 127.976562 187.667969 125.769531 189.125 123.136719 190.351562 C 122.410156 190.160156 118.917969 189.132812 115.609375 186.476562 C 115.679688 184.867188 116.125 174.503906 116.25 171.914062 C 116.34375 169.902344 114.386719 157.695312 113.167969 150.355469 C 113.011719 149.402344 112.867188 148.539062 112.738281 147.785156 C 112.613281 148.539062 112.46875 149.402344 112.3125 150.355469 C 112.445312 151.167969 112.589844 152.039062 112.738281 152.957031 C 113.9375 160.257812 115.488281 170.160156 115.40625 171.871094 C 115.273438 174.675781 114.761719 186.53125 114.757812 186.648438 L 114.75 186.859375 L 114.910156 186.992188 C 118.800781 190.191406 122.910156 191.160156 123.082031 191.199219 L 123.222656 191.234375 L 123.355469 191.171875 C 126.554688 189.703125 129.183594 187.867188 129.207031 187.847656 L 129.363281 187.742188 L 129.386719 187.554688 C 131.765625 167.125 131.113281 144.578125 130.746094 136.214844 C 130.554688 136.328125 130.335938 136.394531 130.101562 136.394531 "/>
<path style=" stroke:none;fill-rule:evenodd;fill:rgb(5.099487%,5.099487%,5.099487%);fill-opacity:1;" d="M 113.167969 150.355469 C 113.011719 149.402344 112.867188 148.539062 112.738281 147.785156 C 112.613281 148.539062 112.46875 149.402344 112.3125 150.355469 C 111.09375 157.695312 109.136719 169.902344 109.234375 171.914062 C 109.355469 174.503906 109.800781 184.867188 109.871094 186.476562 C 106.570312 189.128906 103.070312 190.15625 102.34375 190.351562 C 99.714844 189.125 97.503906 187.667969 96.914062 187.265625 C 94.566406 166.957031 95.210938 144.589844 95.578125 136.269531 C 95.550781 136.273438 95.527344 136.273438 95.5 136.273438 C 95.191406 136.273438 94.9375 136.183594 94.742188 136.039062 C 94.378906 144.253906 93.699219 166.976562 96.097656 187.554688 L 96.117188 187.742188 L 96.273438 187.847656 C 96.296875 187.867188 98.925781 189.703125 102.125 191.171875 L 102.257812 191.234375 L 102.398438 191.199219 C 102.570312 191.160156 106.679688 190.191406 110.570312 186.992188 L 110.730469 186.859375 L 110.722656 186.648438 C 110.71875 186.53125 110.207031 174.675781 110.074219 171.871094 C 109.992188 170.160156 111.546875 160.257812 112.738281 152.957031 C 112.890625 152.039062 113.035156 151.167969 113.167969 150.355469 "/>
<g clip-path="url(#clip1)" clip-rule="nonzero">
<path style=" stroke:none;fill-rule:evenodd;fill:rgb(5.099487%,5.099487%,5.099487%);fill-opacity:1;" d="M 132.296875 198.335938 C 132.015625 196.21875 130.9375 195.109375 129.691406 193.824219 C 128.578125 192.679688 127.339844 191.40625 126.304688 189.089844 C 126.09375 189.277344 125.824219 189.402344 125.53125 189.421875 C 126.632812 191.882812 127.972656 193.265625 129.082031 194.40625 C 130.273438 195.632812 131.214844 196.601562 131.460938 198.445312 C 131.539062 199.046875 131.390625 199.53125 131 199.929688 C 129.566406 201.382812 125.292969 201.265625 123.769531 201.097656 L 123.707031 201.097656 C 119.972656 201.203125 119.679688 200.253906 119.195312 198.679688 C 119.023438 198.132812 118.828125 197.507812 118.472656 196.859375 C 117.125 194.441406 116.820312 193.285156 117.160156 191.910156 C 117.386719 191.007812 117.714844 189.503906 117.949219 188.417969 C 117.609375 188.378906 117.355469 188.222656 117.175781 188.011719 C 116.941406 189.101562 116.582031 190.746094 116.34375 191.710938 C 115.894531 193.503906 116.433594 194.933594 117.734375 197.265625 C 118.046875 197.835938 118.21875 198.390625 118.386719 198.929688 C 118.648438 199.777344 118.898438 200.582031 119.671875 201.152344 C 120.480469 201.746094 121.722656 201.988281 123.703125 201.9375 C 123.886719 201.957031 124.710938 202.035156 125.78125 202.035156 C 127.675781 202.035156 130.351562 201.789062 131.601562 200.515625 C 132.175781 199.929688 132.410156 199.199219 132.296875 198.335938 "/>
</g>
<path style=" stroke:none;fill-rule:evenodd;fill:rgb(5.099487%,5.099487%,5.099487%);fill-opacity:1;" d="M 123.660156 200.066406 C 120.976562 200.066406 120.304688 199.828125 119.65625 197.738281 C 119.359375 196.773438 118.746094 196.140625 118.152344 195.53125 C 117.238281 194.585938 116.289062 193.609375 116.582031 191.496094 L 117.058594 191.5625 C 116.796875 193.445312 117.585938 194.257812 118.5 195.199219 C 119.132812 195.847656 119.785156 196.523438 120.117188 197.597656 C 120.746094 199.625 121.132812 199.621094 124.84375 199.578125 C 125.402344 199.574219 126.039062 199.566406 126.757812 199.566406 C 129.695312 199.566406 130.824219 198.941406 131.253906 198.417969 C 131.5625 198.042969 131.503906 197.71875 131.503906 197.714844 L 131.976562 197.617188 C 131.980469 197.640625 132.082031 198.164062 131.628906 198.71875 C 130.90625 199.601562 129.265625 200.046875 126.757812 200.046875 C 126.042969 200.046875 125.40625 200.054688 124.847656 200.058594 C 124.414062 200.0625 124.019531 200.066406 123.660156 200.066406 "/>
<g clip-path="url(#clip2)" clip-rule="nonzero">
<path style=" stroke:none;fill-rule:evenodd;fill:rgb(5.099487%,5.099487%,5.099487%);fill-opacity:1;" d="M 108.328125 188.101562 C 108.085938 188.253906 107.824219 188.382812 107.539062 188.464844 C 107.773438 189.546875 108.09375 191.015625 108.320312 191.910156 C 108.664062 193.285156 108.355469 194.441406 107.011719 196.859375 C 106.652344 197.507812 106.457031 198.132812 106.289062 198.679688 C 105.800781 200.253906 105.511719 201.203125 101.773438 201.097656 L 101.710938 201.097656 C 100.1875 201.265625 95.914062 201.382812 94.480469 199.929688 C 94.089844 199.53125 93.941406 199.046875 94.019531 198.445312 C 94.265625 196.601562 95.207031 195.632812 96.398438 194.40625 C 97.515625 193.257812 98.867188 191.867188 99.976562 189.375 C 99.695312 189.34375 99.425781 189.222656 99.210938 189.015625 C 98.171875 191.378906 96.917969 192.667969 95.792969 193.824219 C 94.546875 195.109375 93.464844 196.21875 93.183594 198.335938 C 93.070312 199.199219 93.304688 199.929688 93.878906 200.515625 C 95.132812 201.789062 97.804688 202.035156 99.699219 202.035156 C 100.769531 202.035156 101.597656 201.957031 101.777344 201.9375 C 103.757812 201.988281 105 201.746094 105.808594 201.152344 C 106.582031 200.582031 106.832031 199.777344 107.09375 198.929688 C 107.261719 198.390625 107.433594 197.835938 107.75 197.265625 C 109.050781 194.933594 109.585938 193.503906 109.136719 191.710938 C 108.90625 190.773438 108.558594 189.191406 108.328125 188.101562 "/>
</g>
<path style=" stroke:none;fill-rule:evenodd;fill:rgb(5.099487%,5.099487%,5.099487%);fill-opacity:1;" d="M 101.820312 200.066406 C 104.503906 200.066406 105.179688 199.828125 105.824219 197.738281 C 106.125 196.773438 106.734375 196.140625 107.328125 195.53125 C 108.246094 194.585938 109.191406 193.609375 108.898438 191.496094 L 108.421875 191.5625 C 108.683594 193.445312 107.894531 194.257812 106.980469 195.199219 C 106.351562 195.847656 105.695312 196.523438 105.363281 197.597656 C 104.738281 199.625 104.347656 199.621094 100.636719 199.578125 C 100.078125 199.574219 99.441406 199.566406 98.722656 199.566406 C 95.785156 199.566406 94.65625 198.941406 94.226562 198.417969 C 93.921875 198.042969 93.976562 197.71875 93.976562 197.714844 L 93.503906 197.617188 C 93.5 197.640625 93.398438 198.164062 93.855469 198.71875 C 94.574219 199.601562 96.214844 200.046875 98.722656 200.046875 C 99.4375 200.046875 100.074219 200.054688 100.632812 200.058594 C 101.066406 200.0625 101.460938 200.066406 101.820312 200.066406 "/>
<path style=" stroke:none;fill-rule:evenodd;fill:rgb(5.099487%,5.099487%,5.099487%);fill-opacity:1;" d="M 82.664062 100.65625 C 82.636719 100.628906 82.609375 100.601562 82.585938 100.570312 L 80.691406 102.664062 L 81.316406 103.226562 L 83.328125 101.003906 C 83.082031 100.957031 82.847656 100.84375 82.664062 100.65625 "/>
<path style=" stroke:none;fill-rule:evenodd;fill:rgb(5.099487%,5.099487%,5.099487%);fill-opacity:1;" d="M 102.5625 115.507812 C 102.546875 115.078125 102.421875 114.757812 102.191406 114.566406 C 101.820312 114.253906 101.242188 113.257812 101.003906 112.824219 C 100.992188 112.695312 100.980469 112.570312 100.96875 112.445312 C 100.890625 111.53125 100.796875 110.496094 99.765625 110.152344 C 99.726562 110.140625 96 108.9375 94.980469 109.671875 C 94.53125 109.996094 92.457031 110.84375 91.140625 111.34375 C 90.707031 111.386719 88.382812 110.71875 87.410156 109.980469 C 86.738281 109.46875 85.207031 107.390625 83.851562 105.554688 C 83.242188 104.730469 82.609375 103.875 82.0625 103.167969 C 81.621094 102.597656 80.957031 102.128906 80.195312 101.746094 C 77.042969 100.160156 73.851562 100.96875 73.851562 100.96875 C 73.914062 100.972656 79.714844 101.511719 81.390625 103.679688 C 81.933594 104.378906 82.5625 105.230469 83.171875 106.054688 C 84.695312 108.117188 86.132812 110.0625 86.894531 110.644531 C 87.917969 111.421875 90.578125 112.328125 91.34375 112.160156 L 91.402344 112.140625 C 91.746094 112.011719 94.789062 110.851562 95.476562 110.351562 C 95.835938 110.09375 98.046875 110.46875 99.496094 110.949219 C 99.957031 111.101562 100.042969 111.542969 100.128906 112.519531 C 100.144531 112.675781 100.15625 112.832031 100.175781 112.992188 L 100.183594 113.070312 L 100.222656 113.140625 C 100.304688 113.300781 101.058594 114.710938 101.644531 115.203125 C 101.902344 115.46875 101.53125 117.234375 101.019531 117.742188 C 100.632812 118.125 100.195312 118.242188 99.601562 118.109375 L 99.265625 118.035156 L 99.125 118.347656 C 98.988281 118.648438 98.535156 119.503906 98.121094 119.792969 C 97.738281 120.058594 97.558594 120.5 97.386719 120.921875 C 97.230469 121.300781 97.082031 121.660156 96.824219 121.808594 C 96.378906 122.070312 96.171875 122.464844 96.007812 122.78125 C 95.84375 123.09375 95.777344 123.183594 95.671875 123.191406 C 94.902344 123.261719 91.523438 122.800781 89.128906 119.273438 L 89.046875 119.152344 L 88.246094 118.898438 L 88.199219 118.886719 C 83.890625 118.03125 73.679688 115.117188 71.542969 113.621094 C 69.484375 112.1875 65.6875 104.042969 65.363281 103.160156 C 65.152344 102.574219 65.105469 101.332031 65.238281 101.054688 C 65.609375 100.816406 66.542969 100.324219 66.554688 100.320312 L 66.636719 100.277344 L 66.695312 100.199219 C 69.164062 96.882812 73.265625 93.347656 75.011719 91.90625 C 74.945312 91.859375 74.882812 91.808594 74.828125 91.75 C 74.742188 91.667969 74.671875 91.574219 74.609375 91.472656 C 74.5625 91.398438 74.523438 91.320312 74.496094 91.238281 C 72.746094 92.683594 68.609375 96.246094 66.074219 99.621094 C 65.816406 99.757812 65.050781 100.167969 64.734375 100.378906 C 64.035156 100.84375 64.402344 102.976562 64.574219 103.445312 C 64.777344 104.003906 68.671875 112.644531 71.054688 114.308594 C 73.351562 115.914062 83.6875 118.839844 88.011719 119.703125 L 88.515625 119.863281 C 90.925781 123.320312 94.21875 124.039062 95.511719 124.039062 C 95.601562 124.039062 95.679688 124.035156 95.75 124.027344 C 96.328125 123.976562 96.566406 123.527344 96.753906 123.167969 C 96.886719 122.914062 97.011719 122.671875 97.25 122.535156 C 97.757812 122.238281 97.976562 121.707031 98.167969 121.238281 C 98.300781 120.910156 98.425781 120.605469 98.605469 120.480469 C 99.105469 120.132812 99.535156 119.398438 99.75 118.984375 C 100.480469 119.0625 101.105469 118.84375 101.617188 118.335938 C 102.140625 117.8125 102.601562 116.441406 102.5625 115.507812 "/>
<path style=" stroke:none;fill-rule:evenodd;fill:rgb(5.099487%,5.099487%,5.099487%);fill-opacity:1;" d="M 142.820312 100.65625 C 142.847656 100.628906 142.871094 100.601562 142.894531 100.570312 L 144.789062 102.664062 L 144.164062 103.226562 L 142.152344 101.003906 C 142.398438 100.957031 142.632812 100.84375 142.820312 100.65625 "/>
<g clip-path="url(#clip3)" clip-rule="nonzero">
<path style=" stroke:none;fill-rule:evenodd;fill:rgb(5.099487%,5.099487%,5.099487%);fill-opacity:1;" d="M 122.917969 115.507812 C 122.933594 115.078125 123.058594 114.757812 123.289062 114.566406 C 123.660156 114.253906 124.238281 113.257812 124.476562 112.824219 C 124.488281 112.695312 124.5 112.570312 124.511719 112.445312 C 124.589844 111.53125 124.683594 110.496094 125.71875 110.152344 C 125.757812 110.140625 129.480469 108.9375 130.5 109.671875 C 130.949219 109.996094 133.027344 110.84375 134.339844 111.34375 C 134.773438 111.386719 137.097656 110.71875 138.074219 109.980469 C 138.742188 109.46875 140.277344 107.390625 141.628906 105.554688 C 142.242188 104.730469 142.871094 103.875 143.417969 103.167969 C 143.863281 102.597656 144.523438 102.128906 145.285156 101.746094 C 148.441406 100.160156 151.628906 100.96875 151.628906 100.96875 C 151.570312 100.972656 145.765625 101.511719 144.085938 103.679688 C 143.546875 104.378906 142.917969 105.230469 142.308594 106.054688 C 140.789062 108.117188 139.351562 110.0625 138.585938 110.644531 C 137.5625 111.421875 134.902344 112.328125 134.136719 112.160156 L 134.078125 112.140625 C 133.734375 112.011719 130.691406 110.851562 130.003906 110.351562 C 129.644531 110.09375 127.433594 110.46875 125.984375 110.949219 C 125.523438 111.101562 125.4375 111.542969 125.351562 112.519531 C 125.335938 112.675781 125.324219 112.832031 125.304688 112.992188 L 125.296875 113.070312 L 125.261719 113.140625 C 125.175781 113.300781 124.421875 114.710938 123.835938 115.203125 C 123.578125 115.46875 123.949219 117.234375 124.460938 117.742188 C 124.847656 118.125 125.289062 118.242188 125.878906 118.109375 L 126.214844 118.035156 L 126.355469 118.347656 C 126.496094 118.648438 126.945312 119.503906 127.359375 119.792969 C 127.742188 120.058594 127.925781 120.5 128.097656 120.921875 C 128.25 121.300781 128.394531 121.660156 128.65625 121.808594 C 129.101562 122.070312 129.308594 122.464844 129.476562 122.78125 C 129.636719 123.09375 129.703125 123.183594 129.808594 123.191406 C 130.582031 123.261719 133.957031 122.800781 136.351562 119.273438 L 136.433594 119.152344 L 137.234375 118.898438 L 137.28125 118.886719 C 141.589844 118.03125 151.800781 115.117188 153.9375 113.621094 C 155.996094 112.1875 159.792969 104.042969 160.113281 103.160156 C 160.332031 102.574219 160.375 101.332031 160.242188 101.054688 C 159.875 100.816406 158.9375 100.324219 158.925781 100.320312 L 158.84375 100.277344 L 158.785156 100.199219 C 156.316406 96.882812 152.214844 93.347656 150.46875 91.90625 C 150.535156 91.859375 150.597656 91.808594 150.652344 91.75 C 150.738281 91.667969 150.808594 91.574219 150.871094 91.472656 C 150.917969 91.398438 150.957031 91.320312 150.984375 91.238281 C 152.734375 92.683594 156.871094 96.246094 159.410156 99.621094 C 159.664062 99.757812 160.429688 100.167969 160.746094 100.378906 C 161.445312 100.84375 161.082031 102.976562 160.910156 103.445312 C 160.703125 104.003906 156.808594 112.644531 154.425781 114.308594 C 152.128906 115.914062 141.792969 118.839844 137.46875 119.703125 L 136.96875 119.863281 C 134.558594 123.320312 131.261719 124.039062 129.972656 124.039062 C 129.878906 124.039062 129.800781 124.035156 129.730469 124.027344 C 129.152344 123.976562 128.917969 123.527344 128.726562 123.167969 C 128.59375 122.914062 128.46875 122.671875 128.230469 122.535156 C 127.722656 122.238281 127.503906 121.707031 127.3125 121.238281 C 127.179688 120.910156 127.054688 120.605469 126.875 120.480469 C 126.375 120.132812 125.945312 119.398438 125.730469 118.984375 C 125.003906 119.0625 124.378906 118.84375 123.867188 118.335938 C 123.339844 117.8125 122.878906 116.441406 122.917969 115.507812 "/>
</g>
<path style=" stroke:none;fill-rule:evenodd;fill:rgb(5.099487%,5.099487%,5.099487%);fill-opacity:1;" d="M 125.65625 80.605469 C 125.410156 78.03125 124.917969 75.953125 124.46875 74.472656 C 124.445312 74.398438 123.929688 74.171875 123.972656 74.304688 C 124.4375 75.769531 124.976562 77.933594 125.234375 80.664062 C 125.703125 85.558594 125.339844 93.304688 120.984375 102.472656 L 119.917969 102.472656 C 119.820312 102.28125 119.660156 101.839844 119.910156 101.414062 L 120.925781 101.339844 L 120.980469 101.242188 C 120.996094 101.207031 122.742188 98 123.933594 93.074219 C 125.03125 88.527344 125.871094 81.53125 123.636719 74.042969 L 123.230469 74.164062 C 125.4375 81.558594 124.609375 88.46875 123.523438 92.964844 C 122.464844 97.355469 120.960938 100.363281 120.660156 100.9375 L 119.679688 101.007812 L 119.621094 101.085938 C 119.035156 101.898438 119.59375 102.761719 119.613281 102.796875 L 119.675781 102.894531 L 121.253906 102.894531 L 121.308594 102.773438 C 125.765625 93.453125 126.132812 85.574219 125.65625 80.605469 "/>
<path style=" stroke:none;fill-rule:evenodd;fill:rgb(5.099487%,5.099487%,5.099487%);fill-opacity:1;" d="M 122.058594 100.558594 C 122.046875 100.589844 122.039062 100.617188 122.035156 100.644531 C 122.027344 100.671875 122.023438 100.683594 122.019531 100.695312 C 122.046875 100.914062 121.90625 101.074219 121.730469 101.132812 C 121.761719 101.582031 121.734375 102.0625 121.648438 102.554688 C 121.320312 104.402344 120.226562 105.792969 119.097656 105.910156 C 118.964844 105.921875 118.832031 105.917969 118.699219 105.894531 C 118.519531 105.863281 118.351562 105.800781 118.195312 105.703125 C 117.257812 105.140625 116.765625 103.527344 117.082031 101.757812 C 117.394531 99.988281 118.414062 98.632812 119.492188 98.425781 C 119.667969 98.390625 119.847656 98.386719 120.027344 98.417969 C 120.160156 98.441406 120.285156 98.480469 120.40625 98.542969 C 120.824219 98.742188 121.160156 99.140625 121.394531 99.664062 C 121.402344 99.636719 121.410156 99.609375 121.421875 99.578125 C 121.472656 99.4375 121.566406 99.351562 121.675781 99.308594 C 121.570312 99.097656 121.445312 98.910156 121.308594 98.742188 C 121.070312 98.460938 120.796875 98.242188 120.484375 98.113281 C 120.359375 98.0625 120.234375 98.027344 120.101562 98 C 118.613281 97.742188 117.070312 99.394531 116.664062 101.683594 C 116.257812 103.976562 117.136719 106.046875 118.625 106.308594 C 118.757812 106.332031 118.890625 106.339844 119.023438 106.335938 C 119.363281 106.320312 119.699219 106.210938 120.015625 106.023438 C 120.980469 105.460938 121.785156 104.195312 122.066406 102.628906 C 122.199219 101.886719 122.191406 101.167969 122.074219 100.523438 C 122.070312 100.539062 122.066406 100.546875 122.058594 100.558594 "/>
<path style=" stroke:none;fill-rule:evenodd;fill:rgb(5.099487%,5.099487%,5.099487%);fill-opacity:1;" d="M 119.476562 106.03125 C 119.34375 106.007812 119.21875 105.96875 119.097656 105.910156 C 118.078125 105.417969 117.53125 103.734375 117.855469 101.890625 C 118.183594 100.050781 119.277344 98.65625 120.40625 98.542969 C 120.539062 98.527344 120.671875 98.53125 120.804688 98.554688 C 120.984375 98.585938 121.152344 98.652344 121.308594 98.742188 C 121.070312 98.460938 120.796875 98.242188 120.484375 98.113281 C 120.144531 98.128906 119.808594 98.238281 119.492188 98.425781 C 118.527344 98.984375 117.71875 100.253906 117.441406 101.820312 C 117.164062 103.386719 117.488281 104.851562 118.195312 105.703125 C 118.429688 105.988281 118.710938 106.207031 119.023438 106.335938 C 119.363281 106.320312 119.699219 106.210938 120.015625 106.023438 C 119.839844 106.058594 119.660156 106.0625 119.476562 106.03125 "/>
<path style=" stroke:none;fill-rule:evenodd;fill:rgb(5.099487%,5.099487%,5.099487%);fill-opacity:1;" d="M 123.421875 97.207031 C 123.148438 97.199219 122.613281 97.003906 122.554688 96.980469 L 122.703125 96.589844 C 122.902344 96.664062 123.277344 96.78125 123.429688 96.785156 L 123.421875 97.207031 "/>
<path style=" stroke:none;fill-rule:evenodd;fill:rgb(5.099487%,5.099487%,5.099487%);fill-opacity:1;" d="M 104.585938 90.660156 C 104.527344 90.570312 103.175781 88.457031 101.203125 88.421875 C 101.023438 87.027344 99.992188 78.058594 102.886719 73.921875 L 102.632812 73.746094 C 102.554688 73.832031 102.460938 73.90625 102.355469 73.964844 C 99.375 78.683594 100.75 88.25 100.808594 88.664062 L 100.839844 88.855469 L 101.03125 88.84375 C 102.660156 88.757812 103.914062 90.433594 104.179688 90.808594 C 104.101562 91.027344 103.914062 91.242188 103.765625 91.382812 C 103.304688 90.816406 101.808594 89.144531 100.710938 89.710938 C 99.785156 90.183594 99.835938 91.996094 99.878906 92.597656 C 99.671875 92.613281 99.347656 92.484375 99.113281 92.359375 C 99.070312 91.960938 98.980469 90.355469 100.21875 89.097656 L 100.292969 89.023438 L 100.277344 88.921875 C 100.261719 88.816406 98.925781 79.175781 101.890625 74.105469 C 101.839844 74.109375 101.785156 74.113281 101.730469 74.113281 C 101.617188 74.113281 101.511719 74.101562 101.417969 74.082031 C 100.273438 76.136719 99.644531 79.066406 99.546875 82.816406 C 99.46875 85.800781 99.773438 88.347656 99.84375 88.878906 C 98.351562 90.46875 98.695312 92.445312 98.710938 92.53125 L 98.726562 92.621094 L 98.808594 92.671875 C 98.925781 92.742188 99.410156 93.023438 99.84375 93.023438 C 99.976562 93.023438 100.097656 92.996094 100.210938 92.933594 L 100.328125 92.863281 L 100.3125 92.730469 C 100.25 92.109375 100.230469 90.433594 100.90625 90.082031 C 101.664062 89.695312 103.027344 91.078125 103.566406 91.808594 L 103.695312 91.980469 L 103.867188 91.855469 C 103.890625 91.835938 104.492188 91.378906 104.617188 90.816406 L 104.632812 90.734375 L 104.585938 90.660156 "/>
<path style=" stroke:none;fill-rule:evenodd;fill:rgb(5.099487%,5.099487%,5.099487%);fill-opacity:1;" d="M 107.359375 95.789062 C 106.222656 92.671875 104.570312 90.761719 104.5 90.679688 L 104.398438 90.5625 L 104.253906 90.6875 C 104.273438 90.785156 104.300781 90.894531 104.296875 90.996094 C 104.292969 91.023438 104.289062 91.046875 104.285156 91.074219 L 104.363281 91.007812 C 104.746094 91.476562 106.089844 93.234375 107.0625 95.898438 C 108.09375 98.730469 108.863281 103.148438 106.660156 108.117188 L 106.558594 108.355469 L 104.660156 108.078125 L 104.757812 107.410156 L 106.144531 107.609375 L 106.1875 107.5 C 107.734375 103.792969 107.816406 99.980469 106.433594 96.164062 C 105.535156 93.667969 104.25 91.953125 103.863281 91.46875 C 103.855469 91.46875 103.84375 91.472656 103.835938 91.472656 C 103.730469 91.488281 103.601562 91.417969 103.53125 91.347656 C 103.523438 91.339844 103.515625 91.332031 103.511719 91.328125 L 103.40625 91.417969 L 103.507812 91.535156 C 103.527344 91.554688 105.09375 93.378906 106.136719 96.269531 C 107.476562 99.972656 107.410156 103.667969 105.941406 107.265625 L 104.488281 107.054688 L 104.296875 108.34375 L 106.75 108.699219 L 106.953125 108.246094 C 109.195312 103.179688 108.410156 98.675781 107.359375 95.789062 "/>
<path style=" stroke:none;fill-rule:evenodd;fill:rgb(5.099487%,5.099487%,5.099487%);fill-opacity:1;" d="M 103.160156 108.683594 C 103.042969 108.683594 102.9375 108.628906 102.863281 108.527344 C 102.648438 108.222656 102.722656 107.503906 102.917969 107.011719 C 103.046875 106.679688 103.316406 106.476562 103.632812 106.460938 C 103.886719 106.453125 104.121094 106.570312 104.214844 106.753906 C 104.273438 106.871094 104.777344 107.058594 105.195312 107.15625 L 105.125 107.464844 C 104.882812 107.40625 104.085938 107.199219 103.929688 106.894531 C 103.898438 106.832031 103.78125 106.773438 103.644531 106.777344 C 103.535156 106.785156 103.332031 106.835938 103.214844 107.125 C 103.019531 107.613281 103.003906 108.179688 103.125 108.34375 C 103.140625 108.371094 103.15625 108.371094 103.164062 108.367188 C 103.28125 108.363281 103.433594 108.316406 103.605469 108.261719 C 103.925781 108.15625 104.328125 108.03125 104.765625 108.09375 L 105.347656 108.179688 L 105.304688 108.492188 L 104.722656 108.40625 C 104.355469 108.355469 104.007812 108.464844 103.703125 108.5625 C 103.507812 108.625 103.335938 108.675781 103.179688 108.683594 C 103.175781 108.683594 103.167969 108.683594 103.160156 108.683594 "/>
<path style=" stroke:none;fill-rule:evenodd;fill:rgb(5.099487%,5.099487%,5.099487%);fill-opacity:1;" d="M 106.453125 106.078125 C 106.457031 106.070312 106.457031 106.0625 106.460938 106.054688 C 106.5 105.945312 106.5625 105.871094 106.644531 105.824219 C 103.875 103.886719 101.941406 101.222656 100.886719 97.894531 C 99.960938 94.964844 100.09375 92.570312 100.097656 92.546875 L 100.109375 92.390625 L 99.96875 92.382812 C 99.96875 92.390625 99.96875 92.398438 99.964844 92.410156 C 99.953125 92.511719 99.890625 92.636719 99.800781 92.691406 C 99.789062 92.699219 99.78125 92.703125 99.773438 92.707031 C 99.761719 93.324219 99.785156 95.460938 100.585938 97.988281 C 101.660156 101.386719 103.632812 104.101562 106.453125 106.078125 "/>
<path style=" stroke:none;fill-rule:evenodd;fill:rgb(5.099487%,5.099487%,5.099487%);fill-opacity:1;" d="M 108.769531 105.488281 L 107.738281 106.53125 C 107.625 106.460938 107.511719 106.394531 107.402344 106.324219 C 107.402344 106.335938 107.402344 106.347656 107.398438 106.359375 C 107.378906 106.457031 107.363281 106.558594 107.34375 106.660156 C 107.457031 106.726562 107.570312 106.796875 107.683594 106.863281 L 107.789062 106.925781 L 108.773438 105.933594 L 109.257812 106.40625 L 107.914062 107.765625 L 107.6875 107.644531 C 107.519531 107.550781 107.359375 107.457031 107.199219 107.359375 C 107.195312 107.378906 107.195312 107.394531 107.1875 107.414062 L 107.105469 107.648438 C 107.242188 107.753906 107.382812 107.839844 107.53125 107.917969 L 107.96875 108.160156 L 109.707031 106.402344 L 108.769531 105.488281 "/>
<path style=" stroke:none;fill-rule:evenodd;fill:rgb(5.099487%,5.099487%,5.099487%);fill-opacity:1;" d="M 106.160156 107.027344 C 106.207031 106.945312 106.242188 106.859375 106.269531 106.773438 C 102.484375 104.183594 100.734375 100.726562 99.925781 98.152344 C 99.074219 95.453125 99.074219 93.242188 99.09375 92.640625 L 99.199219 92.648438 C 99.175781 92.628906 99.160156 92.609375 99.140625 92.589844 C 99.074219 92.515625 99.03125 92.410156 98.988281 92.316406 L 98.796875 92.304688 L 98.785156 92.464844 C 98.78125 92.570312 98.625 95.082031 99.621094 98.25 C 100.449219 100.882812 102.25 104.429688 106.144531 107.066406 C 106.152344 107.054688 106.152344 107.042969 106.160156 107.027344 "/>
<path style=" stroke:none;fill-rule:evenodd;fill:rgb(5.099487%,5.099487%,5.099487%);fill-opacity:1;" d="M 110.816406 105.988281 C 110.914062 105.917969 110.960938 105.808594 110.960938 105.683594 C 110.949219 105.3125 110.449219 104.785156 109.988281 104.511719 C 109.6875 104.328125 109.351562 104.324219 109.09375 104.503906 C 108.882812 104.648438 108.765625 104.882812 108.804688 105.085938 C 108.828125 105.210938 108.542969 105.667969 108.265625 105.996094 L 108.511719 106.195312 C 108.667969 106.007812 109.179688 105.363281 109.113281 105.027344 C 109.101562 104.960938 109.160156 104.84375 109.273438 104.761719 C 109.363281 104.699219 109.558594 104.617188 109.824219 104.78125 C 110.277344 105.050781 110.632812 105.496094 110.640625 105.691406 C 110.644531 105.726562 110.632812 105.734375 110.621094 105.738281 C 110.527344 105.804688 110.378906 105.855469 110.207031 105.917969 C 109.886719 106.03125 109.492188 106.171875 109.179688 106.484375 L 108.769531 106.902344 L 108.996094 107.125 L 109.40625 106.707031 C 109.667969 106.445312 110.011719 106.324219 110.3125 106.214844 C 110.507812 106.148438 110.671875 106.089844 110.800781 106 C 110.808594 105.996094 110.8125 105.992188 110.816406 105.988281 "/>
<path style=" stroke:none;fill-rule:evenodd;fill:rgb(5.099487%,5.099487%,5.099487%);fill-opacity:1;" d="M 124.667969 114.148438 C 124.667969 114.148438 125.34375 113.488281 125.648438 113.277344 C 125.949219 113.066406 128.554688 112.128906 128.921875 111.898438 C 128.921875 111.898438 128.140625 112.046875 127.816406 112.046875 C 127.496094 112.046875 125.988281 112.488281 125.988281 112.488281 C 125.988281 112.488281 124.972656 112.597656 124.9375 112.78125 C 124.902344 112.96875 124.484375 113.566406 124.484375 113.566406 L 124.667969 114.148438 "/>
<path style=" stroke:none;fill-rule:evenodd;fill:rgb(5.099487%,5.099487%,5.099487%);fill-opacity:1;" d="M 126.125 118.054688 C 126.183594 117.988281 127.171875 117.199219 127.171875 117.199219 C 127.171875 117.199219 126.53125 118.316406 126.289062 118.519531 C 126.050781 118.71875 125.65625 118.589844 126.125 118.054688 "/>
<path style=" stroke:none;fill-rule:evenodd;fill:rgb(5.099487%,5.099487%,5.099487%);fill-opacity:1;" d="M 100.847656 114.148438 C 100.847656 114.148438 100.171875 113.488281 99.871094 113.277344 C 99.570312 113.066406 96.964844 112.128906 96.597656 111.898438 C 96.597656 111.898438 97.378906 112.046875 97.699219 112.046875 C 98.019531 112.046875 99.527344 112.488281 99.527344 112.488281 C 99.527344 112.488281 100.542969 112.597656 100.578125 112.78125 C 100.613281 112.96875 101.035156 113.566406 101.035156 113.566406 L 100.847656 114.148438 "/>
<path style=" stroke:none;fill-rule:evenodd;fill:rgb(5.099487%,5.099487%,5.099487%);fill-opacity:1;" d="M 99.394531 118.054688 C 99.332031 117.988281 98.347656 117.199219 98.347656 117.199219 C 98.347656 117.199219 98.988281 118.316406 99.226562 118.519531 C 99.46875 118.71875 99.859375 118.589844 99.394531 118.054688 "/>
<path style=" stroke:none;fill-rule:evenodd;fill:rgb(24.308777%,19.219971%,17.649841%);fill-opacity:1;" d="M 96.210938 53.992188 C 96.210938 53.992188 94.890625 43.640625 95.210938 42.398438 C 95.535156 41.160156 97.222656 38.804688 97.222656 38.804688 C 97.222656 38.804688 95.210938 35.925781 95.734375 32.925781 L 97.222656 34.285156 C 97.222656 34.285156 96.539062 32.886719 97.707031 29.769531 C 98.871094 26.652344 101.085938 23.332031 101.085938 23.332031 C 101.085938 23.332031 105.148438 26.171875 108.527344 26.410156 C 111.90625 26.652344 114.921875 27.851562 116.046875 28.25 C 117.171875 28.648438 118.257812 29.289062 118.257812 29.289062 L 118.101562 26.570312 C 118.101562 26.570312 122.644531 28.488281 124.613281 31.40625 C 126.585938 34.324219 127.59375 37.324219 127.59375 37.324219 L 129.199219 34.964844 C 129.199219 34.964844 129.933594 36.164062 129.527344 36.84375 C 129.121094 37.523438 128.074219 38.660156 128.074219 38.660156 C 128.074219 38.660156 130.046875 41.039062 130.207031 42.398438 C 130.367188 43.757812 129.320312 53.992188 129.320312 53.992188 C 129.320312 53.992188 127.148438 54.511719 126.265625 56.75 L 99.273438 57.230469 C 99.273438 57.230469 97.136719 54.023438 96.210938 53.992188 "/>
<path style=" stroke:none;fill-rule:evenodd;fill:rgb(93.328857%,69.018555%,54.119873%);fill-opacity:1;" d="M 100.109375 44.667969 C 100.109375 44.667969 101.285156 45.835938 100.804688 47.515625 C 100.320312 49.195312 99.273438 53.3125 99.273438 54.589844 C 99.273438 55.871094 99.273438 57.230469 99.273438 57.230469 C 99.273438 57.230469 96.796875 53.179688 95.730469 54.128906 C 94.664062 55.074219 94.769531 57.628906 95.375 58.867188 C 95.976562 60.109375 100.078125 65.175781 100.078125 65.175781 C 100.078125 65.175781 100.808594 68.804688 102.265625 70.164062 C 103.722656 71.523438 105.933594 72.832031 106.636719 73.632812 C 107.339844 74.429688 107.15625 75.21875 109.570312 76.09375 C 111.988281 76.972656 116.570312 76.535156 117.574219 75.335938 C 118.582031 74.136719 120.148438 72.652344 122.121094 71.457031 C 124.089844 70.261719 125.429688 66.085938 125.5 64.84375 C 125.5 64.84375 130.644531 59.683594 130.480469 57.324219 C 130.378906 55.855469 130.4375 54.183594 129.511719 54.09375 C 128.949219 54.035156 127.921875 54.339844 126.585938 56.269531 L 126.195312 57.0625 C 126.195312 57.0625 126.105469 52.023438 125.5 50.148438 C 124.894531 48.277344 124.375 47.15625 124.613281 46.316406 C 124.855469 45.480469 125.097656 44.675781 125.097656 44.675781 L 124.140625 44.359375 L 125.027344 43.453125 C 125.027344 43.453125 122.527344 42.78125 119.523438 44.199219 C 116.226562 45.753906 113.0625 45.632812 111.53125 45.554688 C 110.003906 45.472656 105.429688 44.121094 104.300781 43.679688 C 103.175781 43.238281 100.886719 42.898438 100.359375 43.292969 L 101.40625 44.398438 L 100.109375 44.667969 "/>
<path style=" stroke:none;fill-rule:evenodd;fill:rgb(17.248535%,13.328552%,11.759949%);fill-opacity:1;" d="M 129.308594 40.960938 C 129.308594 40.960938 129.039062 42.667969 127.894531 43.300781 L 127.894531 42.519531 C 127.894531 42.519531 126.265625 43.539062 124.964844 43.78125 L 124.140625 44.359375 L 125.097656 44.675781 C 125.097656 44.675781 124.257812 46.15625 124.632812 47.414062 C 125.003906 48.671875 126.082031 51.84375 126.144531 52.980469 C 126.203125 54.121094 126.175781 57.03125 126.175781 57.03125 C 126.175781 57.03125 127.550781 55.03125 128.4375 54.511719 C 129.320312 53.992188 129.527344 53.941406 129.527344 53.941406 C 129.527344 53.941406 130.035156 46.363281 130.109375 45.160156 C 130.183594 43.953125 130.273438 42.734375 130.207031 42.398438 C 130.136719 42.066406 129.523438 40.929688 129.308594 40.960938 "/>
<path style=" stroke:none;fill-rule:evenodd;fill:rgb(17.248535%,13.328552%,11.759949%);fill-opacity:1;" d="M 96.082031 40.960938 C 96.082031 40.960938 96.351562 42.667969 97.5 43.300781 L 97.5 42.519531 C 97.5 42.519531 99.128906 43.539062 100.425781 43.78125 L 101.25 44.359375 L 100.292969 44.675781 C 100.292969 44.675781 101.132812 46.15625 100.761719 47.414062 C 100.386719 48.671875 99.308594 51.84375 99.25 52.980469 C 99.1875 54.121094 99.21875 57.03125 99.21875 57.03125 C 99.21875 57.03125 97.839844 55.03125 96.957031 54.511719 C 96.070312 53.992188 95.867188 53.941406 95.867188 53.941406 C 95.867188 53.941406 95.359375 46.363281 95.28125 45.160156 C 95.207031 43.953125 95.117188 42.734375 95.183594 42.398438 C 95.257812 42.066406 95.871094 40.929688 96.082031 40.960938 "/>
<path style=" stroke:none;fill-rule:evenodd;fill:rgb(45.098877%,36.859131%,32.548523%);fill-opacity:1;" d="M 95.65625 34.25 C 95.65625 34.25 95.734375 38.742188 100.199219 39.761719 C 100.199219 39.761719 97.867188 38.28125 97.546875 36.285156 C 97.546875 36.285156 99.875 39.183594 106.011719 40.28125 C 106.011719 40.28125 93.320312 37.121094 101.164062 23.875 L 101.085938 23.332031 C 101.085938 23.332031 99.695312 25.355469 98.816406 27.269531 C 97.9375 29.183594 97.167969 31.089844 97.09375 32.066406 C 97.023438 33.046875 97.222656 34.285156 97.222656 34.285156 L 95.734375 32.925781 C 95.734375 32.925781 95.554688 33.445312 95.65625 34.25 "/>
<path style=" stroke:none;fill-rule:evenodd;fill:rgb(45.098877%,36.859131%,32.548523%);fill-opacity:1;" d="M 101.25 25.433594 C 101.25 25.433594 100.199219 39.121094 116.128906 40.28125 C 116.128906 40.28125 115.585938 32.566406 109.671875 29.148438 C 109.671875 29.148438 114.015625 33.285156 114.679688 38.742188 C 114.679688 38.742188 102.542969 36.945312 101.25 25.433594 "/>
<path style=" stroke:none;fill-rule:evenodd;fill:rgb(70.588684%,45.489502%,35.289001%);fill-opacity:1;" d="M 114.574219 62.132812 C 114.664062 62.089844 114.765625 62.222656 114.621094 62.480469 C 114.550781 62.609375 113.21875 63.652344 112.71875 63.664062 C 112.457031 63.671875 111.886719 63.328125 111.582031 63.089844 C 111.191406 62.78125 110.960938 62.59375 110.863281 62.480469 C 110.636719 62.042969 111.109375 62.292969 111.109375 62.292969 C 111.109375 62.292969 111.402344 62.367188 111.632812 62.480469 C 111.683594 62.503906 111.738281 62.535156 111.78125 62.5625 C 111.871094 62.671875 111.949219 62.789062 112.136719 62.886719 C 112.550781 63.101562 113.003906 63.082031 113.417969 62.863281 C 113.546875 62.796875 113.613281 62.667969 113.707031 62.5625 C 113.746094 62.535156 113.804688 62.503906 113.855469 62.480469 C 114.082031 62.367188 114.574219 62.132812 114.574219 62.132812 "/>
<path style=" stroke:none;fill-rule:evenodd;fill:rgb(70.588684%,45.489502%,35.289001%);fill-opacity:1;" d="M 124.210938 44.238281 C 124.304688 43.867188 124.902344 43.910156 124.855469 43.238281 C 124.855469 43.238281 122.964844 43.039062 122.460938 43.117188 C 121.960938 43.199219 117.597656 44.878906 116.871094 45.070312 C 113.777344 45.875 111.566406 45.878906 108.460938 45.070312 C 107.738281 44.878906 103.375 43.199219 102.871094 43.117188 C 102.367188 43.039062 100.480469 43.238281 100.480469 43.238281 C 100.433594 43.910156 101.03125 43.871094 101.121094 44.238281 C 101.140625 44.320312 99.914062 44.597656 100.351562 44.902344 C 100.785156 45.203125 103.375 44.839844 103.375 44.839844 L 102.832031 44.378906 C 102.832031 44.378906 103.917969 44.4375 106.410156 45.734375 C 108.90625 47.035156 112.425781 47.035156 112.425781 47.035156 L 112.910156 47.035156 C 112.910156 47.035156 116.429688 47.035156 118.925781 45.734375 C 121.417969 44.4375 122.503906 44.378906 122.503906 44.378906 L 121.960938 44.839844 C 121.960938 44.839844 124.550781 45.203125 124.984375 44.902344 C 125.421875 44.597656 124.191406 44.320312 124.210938 44.238281 "/>
<path style=" stroke:none;fill-rule:evenodd;fill:rgb(5.099487%,5.099487%,5.099487%);fill-opacity:1;" d="M 99.6875 56.679688 C 99.496094 52.65625 100.421875 49.964844 100.917969 48.539062 C 100.984375 48.351562 101.039062 48.1875 101.085938 48.042969 C 101.457031 46.886719 101.074219 45.664062 100.796875 45.007812 L 102.582031 44.523438 L 101.15625 43.558594 C 101.890625 43.4375 103.199219 43.453125 105.097656 44.28125 C 110.421875 46.601562 115.074219 46.601562 120.402344 44.28125 C 122.300781 43.453125 123.605469 43.4375 124.34375 43.558594 L 122.917969 44.523438 L 124.699219 45.007812 C 124.421875 45.664062 124.039062 46.886719 124.414062 48.042969 C 124.460938 48.1875 124.515625 48.351562 124.582031 48.539062 C 125.078125 49.976562 126.015625 52.691406 125.804688 56.761719 C 125.757812 57.6875 125.828125 58.167969 125.828125 59.046875 C 126.117188 58.410156 126.40625 57.722656 126.746094 57.113281 C 127.625 55.550781 128.96875 54.394531 129.34375 54.449219 C 129.890625 54.519531 130.351562 55.566406 130.070312 57.695312 C 129.835938 59.453125 126.453125 63.402344 125.167969 64.777344 L 125.085938 64.871094 L 125.0625 64.992188 C 124.253906 69.765625 121.605469 71.304688 120.335938 72.042969 C 120.238281 72.101562 120.148438 72.152344 120.070312 72.199219 C 118.882812 72.921875 118.027344 73.933594 117.183594 74.996094 C 115.964844 76.53125 109.535156 76.53125 108.316406 74.996094 C 107.472656 73.933594 106.613281 72.921875 105.429688 72.199219 C 105.347656 72.152344 105.261719 72.101562 105.164062 72.042969 C 103.890625 71.304688 101.242188 69.765625 100.433594 64.992188 L 100.414062 64.871094 L 100.328125 64.777344 C 99.042969 63.402344 95.664062 59.453125 95.429688 57.695312 C 95.148438 55.566406 95.609375 54.519531 96.152344 54.449219 C 96.519531 54.398438 97.804688 55.492188 98.679688 56.988281 C 99.054688 57.628906 99.363281 58.375 99.671875 59.046875 C 99.671875 58.140625 99.734375 57.636719 99.6875 56.679688 Z M 129.457031 53.617188 C 128.734375 53.519531 127.609375 54.394531 126.683594 55.644531 C 126.691406 52.058594 125.847656 49.617188 125.378906 48.265625 C 125.320312 48.085938 125.261719 47.925781 125.21875 47.789062 C 124.800781 46.488281 125.65625 44.960938 125.664062 44.945312 L 125.9375 44.476562 L 124.902344 44.195312 L 126.070312 43.40625 L 125.523438 43.0625 C 125.449219 43.015625 123.664062 41.945312 120.058594 43.515625 C 115 45.722656 110.496094 45.71875 105.4375 43.515625 C 101.835938 41.945312 100.050781 43.015625 99.976562 43.0625 L 99.429688 43.40625 L 100.59375 44.195312 L 99.5625 44.476562 L 99.832031 44.945312 C 99.839844 44.960938 100.699219 46.488281 100.28125 47.789062 C 100.234375 47.925781 100.179688 48.085938 100.117188 48.265625 C 99.648438 49.617188 98.808594 52.054688 98.816406 55.644531 C 97.890625 54.394531 96.761719 53.519531 96.042969 53.617188 C 94.808594 53.777344 94.265625 55.34375 94.59375 57.804688 C 94.890625 60.039062 98.957031 64.535156 99.625 65.257812 C 100.523438 70.316406 103.472656 72.03125 104.734375 72.769531 C 104.828125 72.824219 104.914062 72.871094 104.988281 72.917969 C 105.957031 73.507812 106.671875 74.285156 107.652344 75.515625 C 109.214844 77.488281 116.28125 77.488281 117.847656 75.515625 C 118.824219 74.285156 119.539062 73.507812 120.511719 72.917969 C 120.585938 72.871094 120.667969 72.824219 120.761719 72.769531 C 122.023438 72.03125 124.972656 70.316406 125.875 65.257812 C 126.539062 64.535156 130.609375 60.039062 130.90625 57.804688 C 131.230469 55.34375 130.691406 53.777344 129.457031 53.617188 "/>
<g clip-path="url(#clip4)" clip-rule="nonzero">
<path style=" stroke:none;fill-rule:evenodd;fill:rgb(5.099487%,5.099487%,5.099487%);fill-opacity:1;" d="M 128.902344 54.25 C 128.976562 54.199219 129.046875 54.148438 129.117188 54.105469 C 129.320312 53.964844 129.582031 54.019531 129.761719 54.164062 C 130.121094 51.03125 130.746094 44.292969 130.636719 42.636719 C 130.535156 41.078125 129.285156 39.34375 128.734375 38.652344 C 129.195312 38.179688 129.972656 37.28125 129.972656 36.585938 C 129.972656 35.78125 129.617188 34.566406 129.601562 34.515625 L 129.324219 33.582031 L 127.761719 36.246094 C 127.5625 35.46875 127.183594 34.355469 126.480469 33.113281 C 125.273438 30.984375 122.839844 28.058594 118.089844 26.222656 L 117.394531 25.949219 L 117.855469 28.597656 C 116.464844 27.902344 113.324219 26.527344 109.390625 25.957031 C 104.355469 25.222656 101.421875 22.875 101.394531 22.847656 L 101.039062 22.558594 L 100.78125 22.933594 C 100.589844 23.207031 96.554688 28.996094 96.707031 33.121094 C 96.433594 32.835938 96.148438 32.511719 95.914062 32.199219 L 95.167969 31.195312 L 95.152344 32.441406 C 95.148438 32.621094 95.113281 36.691406 96.769531 38.640625 C 96.226562 39.328125 94.964844 41.070312 94.859375 42.636719 C 94.753906 44.289062 95.371094 50.976562 95.730469 54.128906 C 95.832031 54.09375 95.941406 54.089844 96.046875 54.128906 C 96.242188 54.203125 96.429688 54.285156 96.609375 54.382812 C 96.25 51.351562 95.601562 44.265625 95.703125 42.691406 C 95.8125 41.019531 97.476562 39.117188 97.496094 39.097656 C 97.667969 39.191406 98.234375 39.394531 99.113281 39.414062 C 98.246094 38.957031 97.773438 38.523438 97.402344 38.082031 C 96.46875 36.972656 96.152344 34.949219 96.050781 33.65625 C 96.5625 34.199219 97.023438 34.613281 97.054688 34.636719 L 98.230469 35.6875 L 97.734375 34.195312 C 96.675781 31 100.246094 25.261719 101.230469 23.773438 C 102.191406 24.453125 104.976562 26.164062 109.269531 26.789062 C 114.347656 27.523438 118.171875 29.710938 118.207031 29.734375 L 118.992188 30.1875 L 118.484375 27.289062 C 122.523438 29.035156 124.644531 31.597656 125.722656 33.488281 C 126.960938 35.660156 127.140625 37.445312 127.140625 37.460938 L 127.257812 38.773438 L 129.03125 35.75 C 129.085938 36.039062 129.128906 36.339844 129.128906 36.585938 C 129.128906 36.933594 128.480469 37.753906 127.875 38.316406 L 127.578125 38.59375 L 127.84375 38.898438 C 127.863281 38.917969 129.683594 41.015625 129.796875 42.691406 C 129.898438 44.242188 129.269531 51.144531 128.902344 54.25 "/>
</g>
<path style=" stroke:none;fill-rule:evenodd;fill:rgb(5.099487%,5.099487%,5.099487%);fill-opacity:1;" d="M 114.621094 62.480469 C 114.722656 62.367188 114.785156 62.074219 114.558594 62.105469 C 114.328125 62.140625 113.855469 62.480469 113.855469 62.480469 C 114.410156 62.367188 114.621094 62.480469 114.621094 62.480469 "/>
<path style=" stroke:none;fill-rule:evenodd;fill:rgb(5.099487%,5.099487%,5.099487%);fill-opacity:1;" d="M 113.707031 62.5625 C 113.171875 62.992188 112.316406 62.992188 111.78125 62.5625 C 112.144531 63.5 113.339844 63.5 113.707031 62.5625 "/>
<path style=" stroke:none;fill-rule:evenodd;fill:rgb(5.099487%,5.099487%,5.099487%);fill-opacity:1;" d="M 111.632812 62.480469 C 111.632812 62.480469 111.160156 62.140625 110.929688 62.105469 C 110.699219 62.074219 110.765625 62.367188 110.863281 62.480469 C 110.863281 62.480469 111.074219 62.367188 111.632812 62.480469 "/>
<path style=" stroke:none;fill-rule:evenodd;fill:rgb(70.588684%,45.489502%,35.289001%);fill-opacity:1;" d="M 98.375 58.972656 C 98.375 58.972656 97.46875 56.847656 96.863281 56.386719 C 96.257812 55.925781 96.609375 58.035156 96.929688 58.828125 C 97.246094 59.625 97.898438 61.027344 98.824219 61.347656 C 98.824219 61.347656 98.230469 59.414062 98.375 58.972656 "/>
<path style=" stroke:none;fill-rule:evenodd;fill:rgb(5.099487%,5.099487%,5.099487%);fill-opacity:1;" d="M 99.757812 61.914062 C 99.757812 61.914062 98.664062 61.117188 98.667969 60.386719 C 98.667969 59.65625 98.421875 58.996094 98.394531 58.78125 C 98.375 58.566406 97.019531 56.035156 96.25 55.195312 C 96.25 55.195312 97.886719 58.25 98.039062 59.050781 C 98.191406 59.851562 97.960938 61.179688 99.757812 61.914062 "/>
<path style=" stroke:none;fill-rule:evenodd;fill:rgb(5.099487%,5.099487%,5.099487%);fill-opacity:1;" d="M 97.140625 56.925781 C 97.140625 56.925781 95.980469 57.097656 97.472656 60.085938 C 97.472656 60.085938 96.601562 57.328125 97.433594 57.53125 C 97.433594 57.53125 97.53125 57.066406 97.140625 56.925781 "/>
<path style=" stroke:none;fill-rule:evenodd;fill:rgb(70.588684%,45.489502%,35.289001%);fill-opacity:1;" d="M 127.15625 58.972656 C 127.15625 58.972656 128.0625 56.847656 128.667969 56.386719 C 129.273438 55.925781 128.921875 58.035156 128.605469 58.828125 C 128.285156 59.625 127.632812 61.027344 126.707031 61.347656 C 126.707031 61.347656 127.296875 59.414062 127.15625 58.972656 "/>
<path style=" stroke:none;fill-rule:evenodd;fill:rgb(5.099487%,5.099487%,5.099487%);fill-opacity:1;" d="M 125.773438 61.914062 C 125.773438 61.914062 126.863281 61.117188 126.863281 60.386719 C 126.859375 59.65625 127.109375 58.996094 127.132812 58.78125 C 127.15625 58.566406 128.511719 56.035156 129.28125 55.195312 C 129.28125 55.195312 127.644531 58.25 127.492188 59.050781 C 127.335938 59.851562 127.570312 61.179688 125.773438 61.914062 "/>
<path style=" stroke:none;fill-rule:evenodd;fill:rgb(5.099487%,5.099487%,5.099487%);fill-opacity:1;" d="M 128.390625 56.925781 C 128.390625 56.925781 129.550781 57.097656 128.054688 60.085938 C 128.054688 60.085938 128.925781 57.328125 128.097656 57.53125 C 128.097656 57.53125 128 57.066406 128.390625 56.925781 "/>
<path style=" stroke:none;fill-rule:evenodd;fill:rgb(100%,100%,100%);fill-opacity:1;" d="M 119.15625 65.394531 C 119.15625 65.394531 118.453125 67.015625 118.269531 67.777344 C 118.082031 68.542969 117.378906 70.523438 113.207031 70.582031 C 113.207031 70.582031 108.515625 70.492188 107.707031 68.328125 L 106.742188 65.28125 C 106.742188 65.28125 110.851562 67.703125 119.15625 65.394531 "/>
<path style=" stroke:none;fill-rule:evenodd;fill:rgb(70.588684%,45.489502%,35.289001%);fill-opacity:1;" d="M 111.664062 71.828125 C 111.664062 71.828125 113.019531 73.109375 114.292969 71.828125 L 111.664062 71.828125 "/>
<path style=" stroke:none;fill-rule:evenodd;fill:rgb(70.588684%,45.489502%,35.289001%);fill-opacity:1;" d="M 119.550781 64.917969 C 119.550781 64.917969 120.003906 65.683594 119.929688 66.292969 C 119.929688 66.292969 119.460938 66.019531 119.449219 66.140625 C 119.4375 66.261719 118.679688 67.277344 118.679688 67.277344 L 118.992188 65.78125 L 119.550781 64.917969 "/>
<path style=" stroke:none;fill-rule:evenodd;fill:rgb(70.588684%,45.489502%,35.289001%);fill-opacity:1;" d="M 106.273438 64.917969 C 106.273438 64.917969 105.621094 65.683594 105.699219 66.292969 C 105.699219 66.292969 106.167969 66.019531 106.179688 66.140625 C 106.191406 66.261719 107.140625 67.277344 107.140625 67.277344 L 106.828125 65.78125 L 106.273438 64.917969 "/>
<path style=" stroke:none;fill-rule:evenodd;fill:rgb(5.099487%,5.099487%,5.099487%);fill-opacity:1;" d="M 116.917969 51.363281 C 116.917969 51.363281 118.328125 48.925781 120.011719 48.894531 C 121.699219 48.863281 122.402344 50.96875 122.402344 50.96875 C 122.402344 50.96875 119.769531 48.683594 116.917969 51.363281 "/>
<path style=" stroke:none;fill-rule:evenodd;fill:rgb(5.099487%,5.099487%,5.099487%);fill-opacity:1;" d="M 108.710938 51.363281 C 108.710938 51.363281 107.300781 48.925781 105.613281 48.894531 C 103.929688 48.863281 103.222656 50.96875 103.222656 50.96875 C 103.222656 50.96875 105.859375 48.683594 108.710938 51.363281 "/>
<path style=" stroke:none;fill-rule:evenodd;fill:rgb(5.099487%,5.099487%,5.099487%);fill-opacity:1;" d="M 110.882812 71.503906 C 112.035156 72.34375 114.15625 72.117188 114.757812 71.503906 C 113.679688 71.742188 112.195312 71.8125 110.882812 71.503906 "/>
<path style=" stroke:none;fill-rule:evenodd;fill:rgb(5.099487%,5.099487%,5.099487%);fill-opacity:1;" d="M 118.621094 65.582031 C 118.671875 65.5625 118.765625 65.523438 118.871094 65.480469 C 118.585938 66.003906 117.40625 67.773438 114.589844 68.058594 C 114.589844 68.058594 116.207031 68.070312 117.949219 67.390625 C 117.949219 67.390625 118.011719 68.097656 117.660156 68.714844 C 117.21875 69.289062 116.425781 69.878906 114.976562 70.167969 C 113.773438 70.410156 112.039062 70.421875 110.816406 70.203125 C 109.253906 69.925781 108.417969 69.3125 107.953125 68.714844 C 107.605469 68.097656 107.667969 67.390625 107.667969 67.390625 C 109.410156 68.070312 111.023438 68.058594 111.023438 68.058594 C 108.191406 67.773438 107.019531 65.984375 106.738281 65.472656 C 110.066406 66.910156 115.246094 66.914062 118.621094 65.582031 Z M 106.308594 64.839844 C 106.25 64.8125 106.15625 64.839844 106.09375 64.898438 C 105.957031 64.878906 105.835938 65.054688 105.964844 65.265625 C 106.265625 65.761719 106.820312 66.738281 107.007812 67.515625 C 107.414062 69.152344 108.648438 70.167969 110.6875 70.554688 C 111.957031 70.792969 113.761719 70.789062 115.023438 70.535156 C 117.003906 70.140625 118.207031 69.128906 118.605469 67.515625 C 118.804688 66.703125 119.402344 65.671875 119.691406 65.203125 C 119.71875 65.15625 119.515625 64.792969 119.429688 64.925781 C 119.402344 64.90625 119.375 64.890625 119.339844 64.871094 C 119.1875 64.945312 118.644531 65.171875 118.480469 65.238281 C 115.089844 66.5625 109.503906 66.589844 106.308594 64.839844 "/>
<path style=" stroke:none;fill-rule:evenodd;fill:rgb(5.099487%,5.099487%,5.099487%);fill-opacity:1;" d="M 118.683594 64.523438 C 118.683594 64.523438 119.613281 65.144531 119.929688 66.292969 C 120.042969 65.511719 119.945312 64.3125 118.683594 64.523438 "/>
<path style=" stroke:none;fill-rule:evenodd;fill:rgb(5.099487%,5.099487%,5.099487%);fill-opacity:1;" d="M 118.5 65.421875 C 118.539062 65.558594 118.308594 66.351562 118.011719 66.941406 C 118.644531 66.582031 119.433594 65.601562 119.460938 65.058594 C 119.140625 65.179688 118.820312 65.300781 118.5 65.421875 "/>
<path style=" stroke:none;fill-rule:evenodd;fill:rgb(5.099487%,5.099487%,5.099487%);fill-opacity:1;" d="M 106.941406 64.523438 C 106.941406 64.523438 106.015625 65.144531 105.699219 66.292969 C 105.582031 65.511719 105.683594 64.3125 106.941406 64.523438 "/>
<path style=" stroke:none;fill-rule:evenodd;fill:rgb(5.099487%,5.099487%,5.099487%);fill-opacity:1;" d="M 107.125 65.421875 C 107.089844 65.558594 107.320312 66.351562 107.617188 66.941406 C 106.980469 66.582031 106.191406 65.601562 106.164062 65.058594 C 106.484375 65.179688 106.804688 65.300781 107.125 65.421875 "/>
<path style=" stroke:none;fill-rule:evenodd;fill:rgb(5.099487%,5.099487%,5.099487%);fill-opacity:1;" d="M 116.933594 58.445312 C 116.933594 58.445312 117.699219 55.960938 122.1875 55.664062 C 120.648438 56.554688 118.511719 57.78125 116.933594 58.445312 "/>
<path style=" stroke:none;fill-rule:evenodd;fill:rgb(5.099487%,5.099487%,5.099487%);fill-opacity:1;" d="M 108.695312 58.445312 C 108.695312 58.445312 107.925781 55.960938 103.441406 55.664062 C 104.980469 56.554688 107.113281 57.78125 108.695312 58.445312 "/>
</g>
</svg>
